<svg width="238" height="86" fill="none" xmlns="http://www.w3.org/2000/svg"><g filter="url(#filter0_d-h-logo)"><path d="M18.35 43.7H4v-7.35c.7-.5 1.2-1.4 1.5-2.75l.45-2L11.45 2h18.5L36 32.25c.163.78.38 1.55.65 2.3.4 1 .9 1.6 1.55 1.8v7.35H21.8v-7.35a2.3 2.3 0 001.5-2.3 7.443 7.443 0 00-.15-1.25h-6.3a4.798 4.798 0 00-.2 1.25 2.15 2.15 0 001.7 2.3v7.35zm3.6-19L19.8 12.35 17.7 24.7h4.25zm210.5 9.85a12.005 12.005 0 01-.65-2.3L225.75 2h-18.5l-5.5 29.6a16.282 16.282 0 00-.45 2c-.367 1.367-.867 2.267-1.5 2.7v7.4h14.35v-7.4c-1.15-.25-1.7-1.05-1.7-2.25 0-.3 3.15-21.7 3.15-21.7s3.5 21.4 3.5 21.7a2.151 2.151 0 01-1.5 2.25v7.4H234v-7.4c-.65-.15-1.15-.75-1.55-1.75zM52.6 14.8a11.198 11.198 0 013.55-1.75c1.296-.398 2.644-.6 4-.6a11.298 11.298 0 014.25.7 5.85 5.85 0 012.95 2.45c.55.65.95 1.75 1.2 3.2.135 1.212.202 2.43.2 3.65v11.3a23.606 23.606 0 01-.25 3.4c-.3 1.8-.75 3.15-1.4 4.05a7.25 7.25 0 01-3.1 2.4 11.051 11.051 0 01-4.1.75 13.353 13.353 0 01-3.75-.55 11.5 11.5 0 01-3.3-1.7v1.6c-.036.871.03 1.744.2 2.6a2.4 2.4 0 001.25 1.45v6.9H39.95V47.7a2.45 2.45 0 001.15-1.35 5.7 5.7 0 00.3-1.95V23.45a7.65 7.65 0 00-.25-2.05 2.45 2.45 0 00-1.2-1.4v-6.95H52.6v1.75zm.25 20.5a3.6 3.6 0 002.1.65c1 0 1.7-.4 2-1.25a7.38 7.38 0 00.3-2.55V25.4a9.4 9.4 0 00-.3-2.8 2 2 0 00-2.05-1.55 3.7 3.7 0 00-2.05.55v13.7zm35.6-11.7v-.55a6.398 6.398 0 00-.3-2.25 1.75 1.75 0 00-1.8-1.2 1.8 1.8 0 00-1.9 1.3 9.7 9.7 0 00-.25 2.55v9.75a9.898 9.898 0 00.25 2.6 1.85 1.85 0 001.9 1.4 1.75 1.75 0 001.8-1.3c.24-.845.34-1.723.3-2.6v-2.6H99.2v9.45c-1.5 1.5-3.6 2.6-6.3 3.35a28.9 28.9 0 01-7.15.85c-5.6 0-9.4-1.4-11.35-4.25-1.1-1.55-1.7-3.9-1.7-7V22.9c0-3.55.85-6.1 2.5-7.7 1.65-1.6 5.4-2.75 10.3-2.75a30.31 30.31 0 017.5.85 16.198 16.198 0 016.2 2.95v8.35H88.45v-1zm14.55.6c0-4.35.85-7.35 2.6-9 1.75-1.65 5.55-2.75 10.8-2.75 5.25 0 9.1.9 11.1 2.75s2.75 4.45 2.75 8.4v7.25H114.5v2.85a8.33 8.33 0 00.25 2.3 1.853 1.853 0 001.85 1.2 1.748 1.748 0 001.8-1.05 5.687 5.687 0 00.35-2.3V32.7h11.5v7.7a16.148 16.148 0 01-5.25 2.8 20.753 20.753 0 01-6.7 1.15 42.898 42.898 0 01-7.15-.5 10 10 0 01-4.8-1.85 7.501 7.501 0 01-2.85-4.2 20.064 20.064 0 01-.5-5.25V24.2zm15.95-1.5a4.496 4.496 0 00-.35-2 1.85 1.85 0 00-1.9-1.1 2.099 2.099 0 00-1.65.65c-.35.45-.55 1.3-.55 2.45v1.15h4.45V22.7zm43.9 10.3c-.044.839.024 1.68.2 2.5a2.15 2.15 0 001.2 1.35v6.85h-14v-6.85a1.593 1.593 0 00.9-1 5.287 5.287 0 00.2-1.65v-2.65h-4.25v2.65c-.02.557.047 1.114.2 1.65a1.593 1.593 0 00.9 1v6.85h-14v-6.85a2.306 2.306 0 001.2-1.4c.166-.806.233-1.628.2-2.45v-9.8a6.999 6.999 0 00-.25-2 2.545 2.545 0 00-1.15-1.3v-6.85h14v6.85a1.85 1.85 0 00-.9 1.05 5.316 5.316 0 00-.2 1.65v1.85h4.25V22.6a7.886 7.886 0 00-.15-1.7 2 2 0 00-.95-1v-6.85h14v6.85a2.752 2.752 0 00-1.1 1.35 5.693 5.693 0 00-.3 1.95V33zm21.6 8.4c-1.1.95-2.35 1.71-3.7 2.25a12.85 12.85 0 01-4.25.7c-2.7 0-4.85-.75-6.4-2.35-1.55-1.6-2.35-3.7-2.35-6.4s.85-4.95 2.5-6.5c1.65-1.55 3.35-2.15 6.4-3.15l7.4-2.4V22.5a4.552 4.552 0 00-.45-2.15 1.55 1.55 0 00-1.55-.85c-.85 0-1.45.25-1.75.8a4.104 4.104 0 00-.5 2.2v1.25h-10.75v-7.5a18.353 18.353 0 016.25-2.9 29.395 29.395 0 017.4-.9 22.947 22.947 0 015.3.55 10.9 10.9 0 014.3 1.85 7.9 7.9 0 012.85 4.25c.294 1.666.412 3.359.35 5.05v8.55a10.75 10.75 0 00.2 2.6 2.65 2.65 0 001.25 1.55v6.85h-12.5v-2.3zm-.4-10.7l-3.15 1.2c-1.1.6-1.65 1.35-1.65 2.25-.004.503.154.994.45 1.4a1.204 1.204 0 001.2.5 5.45 5.45 0 003.15-1.15v-4.2z" fill="#C90000"/><path d="M234 59.8H4v20h230v-20z" fill="#fff"/><path d="M15 74.55V64.1h5.2v1.05H16v3.3h.5a9.448 9.448 0 012.85.35 3.1 3.1 0 011.4 1.1 3.2 3.2 0 01.5 1.65 2.9 2.9 0 01-.9 2.1 3.401 3.401 0 01-2.5.9H15zm1-5.05v4.05h1.3a4.901 4.901 0 001.7-.25c.34-.132.624-.38.8-.7a1.55 1.55 0 00.35-1 1.85 1.85 0 00-.45-1.25 2.1 2.1 0 00-1.1-.65 9.496 9.496 0 00-2-.2H16zm8.85-5.35h1.2l3.15 7.1 2.9-7.15h1.15l-4 9.4a1.95 1.95 0 01-1.95 1.3 2.7 2.7 0 01-1.1-.2c-.471-.3-.893-.67-1.25-1.1l.75-.65c.304.35.658.653 1.05.9l.55.1c.249.01.494-.06.7-.2a3.25 3.25 0 00.65-1.1l-3.8-8.4zm12.5 11.95H36.3v-2.5h.85l4.1-9.5h.35l4.35 9.5h.8v2.5h-1v-1.55h-8.4v1.55zm1-2.5h6.35l-3.25-7.35-3.1 7.35zm12.1-9.5h1v10.45h-1V64.1zm5.75 0h2.1a4.848 4.848 0 011.9.3c.434.185.8.5 1.05.9.26.402.399.87.4 1.35a2.8 2.8 0 01-.35 1.3 2.95 2.95 0 01-1 .9c.45.144.873.364 1.25.65a3.1 3.1 0 01.7.9 2.85 2.85 0 01-.7 3.3 3.55 3.55 0 01-2.45.85h-2.9V64.1zm1.05 1.05v3.3h.6a4.452 4.452 0 001.6-.2 1.65 1.65 0 00.8-.6 1.8 1.8 0 00.3-1 1.3 1.3 0 00-.5-1.1 2.35 2.35 0 00-1.6-.4h-1.2zm0 4.35v4.05h1.3a4.351 4.351 0 001.65-.25c.35-.16.66-.4.9-.7a1.8 1.8 0 00.3-1 1.85 1.85 0 00-.45-1.25 2.55 2.55 0 00-1.25-.7 7.9 7.9 0 00-1.85-.15h-.6zm9.65-5.4h5.95v1.05H67.9v3.25h4.9v1h-4.9v4.15h4.9v1h-5.9V64.1zm18.55 10.45H84.3l-3.45-8.05-3.5 8.05H76.2l4.55-10.45h.2l4.5 10.45zm4.1-10.45h1v4.5h.8a13.25 13.25 0 012.9.2 2.152 2.152 0 011.45.9 2.7 2.7 0 01.55 1.85 3.1 3.1 0 01-.5 1.85 2.95 2.95 0 01-1.4.95 11.95 11.95 0 01-2.75.2h-2.05V64.1zm1 9.45h1.15c.77.031 1.54-.019 2.3-.15a1.85 1.85 0 00.85-.65c.211-.345.316-.746.3-1.15a2.1 2.1 0 00-.4-1.3 1.85 1.85 0 00-1-.6l-2.3-.1h-.9v3.95zm10.1-9.45h1.05v4.4h5.35v-4.4h1v10.45h-1V69.5h-5.35v5.05h-1.05V64.1zm12.15 0h1.05v10.45h-1.05V64.1zm11.9 10.45l1.5-10.45h.2l4.25 8.6 4.2-8.6h.15l1.5 10.45h-1l-1.05-7.45-3.7 7.45h-.25L126.75 67l-1 7.55h-1.05zm20.45-10.45l4.9 10.45h-1.15l-1.65-3.45h-4.5l-1.6 3.45h-1.2l4.95-10.45h.25zm-.1 2.2l-1.8 3.8h3.55l-1.75-3.8zm7.9-1.15V64.1h5.7v1.05h-2.3v9.4h-1.1v-9.4h-2.3zm9.55-1.05h6v1.05h-4.95v3.25h4.9v1h-4.9v4.15h4.9v1h-5.95V64.1zm10.1 0h2.1c.803-.03 1.607.02 2.4.15a2.65 2.65 0 012.05 2.65 2.648 2.648 0 01-.55 1.7c-.406.459-.95.775-1.55.9a10.43 10.43 0 01-2.65.2h-.75v4.85h-1.05V64.1zm1.05 1.05v3.5h1.8a4.149 4.149 0 001.55-.2c.327-.129.607-.356.8-.65a1.95 1.95 0 000-1.9 1.852 1.852 0 00-.75-.65 5.95 5.95 0 00-1.55-.15l-1.85.05zm9.75-1.05h1.05v10.45h-1.05V64.1zm10.05 0l4.85 10.45h-1.1l-1.65-3.45h-4.5l-1.65 3.45h-1.15l4.95-10.45h.25zm-.15 2.2l-1.8 3.8h3.6l-1.8-3.8zm17.4 8.25h-1.1l-3.5-8.05-3.5 8.05h-1.15L206 64.1h.25l4.45 10.45zm12.3 0h-1.05v-8l-6.9 8h-.25V64.1h1.05v8.15l6.95-8.15h.2v10.45z" fill="#C90000" stroke="#C90000" stroke-width=".75" stroke-miterlimit="10"/></g><defs><filter id="filter0_d-h-logo" x="0" y="0" width="238" height="85.8" filterUnits="userSpaceOnUse" color-interpolation-filters="sRGB"><feFlood flood-opacity="0" result="BackgroundImageFix"/><feColorMatrix in="SourceAlpha" values="0 0 0 0 0 0 0 0 0 0 0 0 0 0 0 0 0 0 127 0"/><feOffset dy="2"/><feGaussianBlur stdDeviation="2"/><feColorMatrix values="0 0 0 0 0 0 0 0 0 0 0 0 0 0 0 0 0 0 0.1 0"/><feBlend in2="BackgroundImageFix" result="effect1_dropShadow"/><feBlend in="SourceGraphic" in2="effect1_dropShadow" result="shape"/></filter></defs></svg>