<svg xmlns="http://www.w3.org/2000/svg" width="60" height="60" viewBox="0 0 60 60"><g><g><path fill="#fff" d="M29.605 36.05c-.77.337-2.056 1.211-3.115 2.27 4.68.888 9.455-.012 13.496-2.542-.815-2.153.835-4.842 2.296-7.22 1.543-2.512 2.044-3.634 1.853-4.139-.12-.315-.559-.449-1.166-.633-.766-.23-1.815-.55-2.91-1.439-1.472-1.195-2.877-2.933-2.133-6.755.322-1.649 1.812-3.127 3.005-4.08a.704.704 0 0 0 .21-.8c-.254-.69-.319-1.31-.193-1.842-.106-.126-.258-.275-.43-.444l-.008-.008-.003-.002c-.84-.827-2.233-2.197-1.85-4.264a18.854 18.854 0 0 0-3.294-1.316c-.227 1.216-.942 2.434-2.024 3.45-.91.848-2.32 1.091-3.816 1.346l-.005.001c-2.14.368-4.354.748-5.372 2.935-.104.227-.21.481-.322.75-.599 1.443-1.354 3.232-2.913 2.946-1.098-.204-1.358-1.172-1.568-1.952l-.004-.013c-.12-.444-.235-.863-.474-1.063a.512.512 0 0 0-.18-.112c-.05.006-.246.091-.794.765-.165.202-.185.23.081.893.3.743.748 1.862.132 3.422.232.424 1.22 1.481 2.578 2.315.98.6 1.505.66 1.58.65 3.91-.953 6.121 2.38 7.587 4.588l.012.018c.64.96 1.192 1.79 1.644 1.902 3.061.768 5.89 2.646 5.314 5.111-.85 3.632-3.845 4.368-5.827 4.855h-.002l-.056.014c-.53.131-.987.245-1.329.393zm12.25-1.608c4.503-3.654 6.951-9.036 6.727-14.81C48.36 13.89 45.52 8.736 40.78 5.43c.207.55.68 1.021 1.14 1.478l.002.002c.708.706 1.439 1.435 1.051 2.415-.017.045-.033.268.122.69a2.739 2.739 0 0 1-.857 3.088c-1.308 1.043-2.114 2.065-2.27 2.875-.567 2.902.387 3.957 1.412 4.79.821.666 1.598.895 2.285 1.096l.003.001c.8.235 1.555.456 2.143 1.316 1.16 1.698-.255 4-1.752 6.437l-.006.01c-1.017 1.658-2.16 3.519-2.198 4.814zm-22.038.509l.05-.108c1.022-2.189 1.33-2.85-1.608-5.238-2.09-1.698-2.373-4.215-.778-6.913-.203-.136-.435-.287-.693-.454l-.019-.013c-1.424-.924-3.544-2.302-5.227-4.059-.838 6.755 2.284 13.512 8.02 17.337a45.8 45.8 0 0 1 .255-.552zm30.824-15.499c.314 6.888-2.893 13.397-8.58 17.414a.82.82 0 0 1-.22.15 20.71 20.71 0 0 1-11.793 3.687c-1.41 0-2.832-.143-4.249-.432-5.567-1.13-10.297-4.373-13.32-9.128C7.926 23.98 8.374 14.67 13.594 7.974a1.052 1.052 0 0 1 1.455-.189c.22.168.362.41.398.681.036.272-.038.54-.207.756a18.034 18.034 0 0 0-3.184 6.344c1.494 2.129 4.412 4.019 5.992 5.042l.008.005.09.059c.21.135.392.253.541.353a1.986 1.986 0 0 1 .608 2.666c-.755 1.26-1.318 3.034.283 4.335 3.642 2.958 3.622 4.691 2.166 7.698-.14.29-.268.568-.387.834.91.47 1.874.867 2.87 1.187 1.313-1.604 3.307-3.029 4.54-3.567.538-.233 1.143-.382 1.782-.538l.026-.007c1.797-.435 3.654-.887 4.22-3.306.234-.999-1.79-2.16-3.8-2.665-1.213-.304-2.111-1.63-3.062-3.034l-.003-.004c-1.352-1.996-2.758-4.053-5.172-3.467-1.839.451-4.8-1.886-5.905-3.176-.295-.346-1.185-1.392-.74-2.387.4-.888.193-1.404-.067-2.054l-.002-.004c-.284-.704-.713-1.77.225-2.925.431-.531 1.154-1.422 2.222-1.524.603-.06 1.178.14 1.712.586.74.613.975 1.473 1.142 2.112.193-.368.393-.845.574-1.28l.01-.02.05-.12c.1-.24.195-.467.282-.65 1.476-3.178 4.692-3.726 7.04-4.124 1.156-.196 2.154-.366 2.608-.79.765-.716 1.313-1.66 1.432-2.444-5.634-1.006-11.523.632-15.785 4.401a1.046 1.046 0 0 1-1.464-.076 1.01 1.01 0 0 1 .08-1.446c6.683-5.914 16.393-6.918 24.163-2.504a.958.958 0 0 1 .134.078c6.051 3.496 9.857 9.72 10.172 16.642zm4.837 11.893c.506-1.093 1.761-1.625 2.914-1.246a2.35 2.35 0 0 1 1.517 2.88c-.823 2.916-1.085 3.857-1.166 4.146l-.024.084-.03.084c-.565 1.749-2.59 5.63-3.924 6.926-1.539 1.494-3.806 3.013-5.626 4.232-1.536 1.028-2.86 1.916-3.256 2.448a1.041 1.041 0 0 1-1.766-.15.993.993 0 0 1 .09-1.055c.596-.808 2.137-1.844 3.924-3.045l.03-.02c1.768-1.187 3.772-2.534 5.148-3.87 1.052-1.018 2.914-4.584 3.4-6.076l1.2-4.253c.06-.215-.05-.34-.172-.385a.28.28 0 0 0-.37.149l-1.54 3.333c-.817 1.772-3.62 4.566-6.9 6.18a107.46 107.46 0 0 0-2.739 2.712l-.117.12-.009.01c-.957.982-1.157 1.188-1.637 1.188a1.02 1.02 0 0 1-.96-.642.994.994 0 0 1 .225-1.104l3.819-3.78 1.484-2.276c.085-.173 0-.347-.125-.437-.126-.09-.329-.121-.516.068l-4.92 5.116a2.22 2.22 0 0 1-.055.056c-.112.107-.26.177-1.333.683-.811.384-2.165 1.025-4.455 2.128-1.715.82-2.65 2.343-2.784 4.529a1.114 1.114 0 0 1-.026.244c-.046.53-.552.94-1.122.894a1.027 1.027 0 0 1-.939-1.113c.011-.05.015-.106.02-.18l.003-.043c.196-2.94 1.522-5.016 3.942-6.174l5.373-2.568 4.798-4.988c.82-.834 2.118-1.003 3.093-.405a2.422 2.422 0 0 1 1.148 2.132 15.673 15.673 0 0 0 2.352-2.397c.319-.403.441-.673.89-1.662l.007-.018c.25-.553.6-1.323 1.134-2.455zM11.018 48.55l-.045-.03-.23-.153c-1.872-1.258-3.987-2.68-5.5-4.15-1.3-1.259-3.258-4.977-3.881-6.789l-.012.004-.04-.144c-.005-.025-.158-.577-1.222-4.35a2.287 2.287 0 0 1 .242-1.812c.339-.564.88-.95 1.526-1.093a2.427 2.427 0 0 1 2.692 1.351c.518 1.096.86 1.85 1.106 2.394l.016.034c.45.995.57 1.262.89 1.667a15.813 15.813 0 0 0 2.352 2.398 2.422 2.422 0 0 1 1.15-2.133c.975-.6 2.269-.433 3.085.396l4.804 4.997 5.374 2.57c2.173 1.037 3.66 3.154 3.882 5.522l.079.837c.026.27-.057.534-.232.744a1.04 1.04 0 0 1-.706.37 1.03 1.03 0 0 1-1.13-.926 1.043 1.043 0 0 1-.02-.212c-.134-2.165-1.07-3.676-2.777-4.492l-5.544-2.65c-.187-.09-.187-.09-1.301-1.254-.72-.754-1.911-2-3.928-4.089-.18-.182-.386-.146-.507-.059-.118.083-.218.251-.118.452l1.497 2.286 3.797 3.754a.994.994 0 0 1 .226 1.104 1.02 1.02 0 0 1-.961.642c-.277 0-.538-.106-.734-.3l-3.767-3.727a18.064 18.064 0 0 1-6.158-4.973c-.484-.614-.698-1.087-1.212-2.228l-.09-.196c-.243-.54-.543-1.201-.961-2.077-.097-.21-.264-.235-.39-.187-.122.044-.23.17-.182.34l1.214 4.301c.483 1.486 2.346 5.05 3.397 6.07 1.377 1.337 3.382 2.685 5.15 3.873l.03.02c1.792 1.205 3.337 2.244 3.93 3.052.23.313.263.708.088 1.054-.178.351-.535.57-.93.57-.331 0-.647-.158-.84-.424-.392-.536-2.2-1.745-3.108-2.354zm33.141 6.301a.131.131 0 0 0-.133-.129H33.143a.13.13 0 0 0-.13.13v2.971a.13.13 0 0 0 .13.13h10.883a.131.131 0 0 0 .133-.13zm-.133-2.177c1.22 0 2.21.977 2.21 2.177v2.972c0 1.2-.99 2.177-2.21 2.177H33.143c-1.218 0-2.21-.978-2.21-2.177v-2.972c0-1.2.992-2.177 2.21-2.177zm-17.028 2.177a.132.132 0 0 0-.134-.129H15.981a.13.13 0 0 0-.132.13v2.971a.13.13 0 0 0 .132.13h10.883a.132.132 0 0 0 .134-.13zm-.134-2.177c1.219 0 2.21.977 2.21 2.177v2.972c0 1.2-.991 2.177-2.21 2.177H15.981c-1.218 0-2.21-.978-2.21-2.177v-2.972c0-1.2.992-2.177 2.21-2.177z"/></g></g></svg>