<svg xmlns="http://www.w3.org/2000/svg" width="60" height="60" viewBox="0 0 60 60"><g><g><path fill="#fff" d="M17.927 2.139a1.145 1.145 0 0 0 2.289 0 1.145 1.145 0 0 0-2.289 0zm-5.967 1.84H6.292V2.288h5.668zm38.437 2.152l-3.1-1.978.921-1.431 3.1 1.979zm-17.551.982a1.146 1.146 0 0 0 2.289 0v-3.98a1.146 1.146 0 0 0-2.289 0zm7.238.896a.843.843 0 0 1 .714-.389h.003a.924.924 0 0 1 .458.125.84.84 0 0 1 .364.535.852.852 0 0 1-.052.527l-.058.106a.846.846 0 0 1-1.429-.904zm-17.802.296a.842.842 0 0 1 .49-.337l.1-.007c.031 0 .067.002.107.007a.846.846 0 0 1 .769 1.185l-.059.108a.842.842 0 0 1-1.404.032.845.845 0 0 1-.024-.937zm-19.97.798a.846.846 0 1 1 1.693 0 .846.846 0 0 1-1.693 0zm36.828 1.995a3.07 3.07 0 0 0 1.684.502 3.21 3.21 0 0 0 2.529-1.252l2.708-4.243L50.133 8.7a1.141 1.141 0 0 0 1.579-.343L53.846 5c.185-.262.251-.592.181-.906a1.182 1.182 0 0 0-.502-.719L48.473.183a1.145 1.145 0 0 0-1.578.343l-2.089 3.351-1.639 2.506a3.039 3.039 0 0 0-.657-.563 3.124 3.124 0 0 0-4.214 1.02 3.129 3.129 0 0 0 .844 4.258zM19.921 9.463a3.115 3.115 0 0 0 3.728 2.392 3.135 3.135 0 0 0 1.849-1.203l3.327-5.199a1.148 1.148 0 0 0-.343-1.58 1.147 1.147 0 0 0-1.579.344l-1.599 2.492a3.031 3.031 0 0 0-.642-.558 3.138 3.138 0 0 0-4.322.95 3.053 3.053 0 0 0-.419 2.362zm-9.652 1.629a.847.847 0 1 1 .846.846.847.847 0 0 1-.846-.846zm-1.71 1.822a3.12 3.12 0 0 0 3.511 1.171 3.122 3.122 0 0 0 2.178-2.993V1.144C14.248.513 13.735 0 13.104 0H5.147c-.631 0-1.144.513-1.144 1.144v4.947a3.123 3.123 0 0 0-3.155.869 3.128 3.128 0 0 0-.584 3.399 3.129 3.129 0 0 0 2.869 1.877h.025a3.138 3.138 0 0 0 3.134-3.133V6.267h5.668v1.816a3.12 3.12 0 0 0-3.346 1.129 3.12 3.12 0 0 0-.055 3.702zM22.9 16.066a1.146 1.146 0 0 0 2.289 0 1.146 1.146 0 0 0-2.289 0zM3.009 23.03a1.144 1.144 0 0 0 2.288 0v-2.985a1.144 1.144 0 1 0-2.288 0zm8.951 15.918a1.144 1.144 0 0 0 2.288 0v-3.98a1.152 1.152 0 0 0-.656-1.031 1.144 1.144 0 0 0-1.149.129l-2.725 2.168a.855.855 0 0 1-.65.178l-5.99-.907-.124.005a.845.845 0 0 1-.644-.936.839.839 0 0 1 .342-.551.839.839 0 0 1 .622-.161l5.122.776c.308.048.631-.033.883-.23l5.095-4.056c.238-.098.487-.169.719-.209h.996c.629 0 1.143-.514 1.143-1.144v-.417a1.143 1.143 0 0 0-.687-1.053 3.846 3.846 0 0 1-2.216-4.293 3.844 3.844 0 0 1 3.748-3.047 3.845 3.845 0 0 1 3.749 3.047 3.847 3.847 0 0 1-2.219 4.293 1.147 1.147 0 0 0-.685 1.052v.418c0 .63.513 1.144 1.144 1.144h.618c.295-.002.576-.114.791-.321a.836.836 0 0 1 .3-.195l5.779-1.989c.413-.141.715-.514.767-.95l.845-7.729a.857.857 0 0 1 .93-.745 1.146 1.146 0 0 0 1.258-1.018 1.147 1.147 0 0 0-1.008-1.258 3.148 3.148 0 0 0-2.306.665 3.112 3.112 0 0 0-1.16 2.103l-.776 6.989-2.481.848a6.096 6.096 0 0 0-2.184-7.641 6.096 6.096 0 0 0-8.126 1.238 6.094 6.094 0 0 0 .283 8.046l-.299.118-.237.141-4.822 3.839-4.632-.697a3.113 3.113 0 0 0-3.472 2.381 3.122 3.122 0 0 0 2.534 3.814l5.965.904a3.14 3.14 0 0 0 2.456-.616l.871-.701zm11.934 17.906a3.137 3.137 0 0 0 3.134 3.135 3.137 3.137 0 0 0 3.134-3.135v-8.953a3.117 3.117 0 0 0-.909-2.214l-5.059-5.079v-7.603l5.867-2.045a3.146 3.146 0 0 0 2.089-2.611l.169-1.521a1.15 1.15 0 0 0-1.026-1.27c-.3-.033-.612.054-.847.244a1.15 1.15 0 0 0-.423.774l-.159 1.521a.847.847 0 0 1-.558.701l-6.623 2.308c-.48.167-.795.638-.767 1.137v8.883c-.001.304.116.593.332.812l5.389 5.41c.145.15.23.349.237.553v8.953a.846.846 0 0 1-1.69 0v-8.126a1.155 1.155 0 0 0-.333-.812l-5.759-5.801a1.148 1.148 0 0 0-.804-.332h-2.206c-.63 0-1.144.513-1.144 1.144v7.957a.839.839 0 0 1-.381.702l-8.951 5.97a.847.847 0 0 1-1.166-.236.85.85 0 0 1 .237-1.167l8.057-5.381c.32-.212.512-.567.514-.951v-6.894a1.145 1.145 0 0 0-2.288 0v6.278l-7.552 5.039A3.114 3.114 0 0 0 3.14 57.76a3.117 3.117 0 0 0 3.002 2.229c.617 0 1.217-.181 1.734-.523l8.951-5.968a3.133 3.133 0 0 0 1.4-2.613v-6.813h.573l5.094 5.124zm25.5 3.134a2.91 2.91 0 0 0 .511.001 3.137 3.137 0 0 0 3.134-3.135V32.979a1.145 1.145 0 0 0-2.289 0v23.877a.839.839 0 0 1-.296.655.839.839 0 0 1-.683.194.94.94 0 0 1-.712-.95V38.948c0-.631-.512-1.145-1.143-1.145h-2.205c-.299 0-.593.121-.806.333l-5.759 5.8a1.14 1.14 0 0 0-.332.811v8.131a.836.836 0 0 1-.296.654.829.829 0 0 1-.681.193.938.938 0 0 1-.713-.949v-8.855a.854.854 0 0 1 .245-.6l5.39-5.413c.212-.212.334-.509.333-.811v-8.883a1.148 1.148 0 0 0-.766-1.087l-6.624-2.307a.848.848 0 0 1-.558-.702l-.994-8.954a.839.839 0 0 1 .82-.938.957.957 0 0 1 .862.862l.835 7.601c.05.436.352.809.766.95l5.776 1.988a.842.842 0 0 1 .306.197c.213.205.493.319.789.32h.627c.631 0 1.145-.513 1.145-1.144v-.417a1.144 1.144 0 0 0-.688-1.053 3.846 3.846 0 0 1-2.216-4.293 3.845 3.845 0 0 1 3.749-3.047 3.846 3.846 0 0 1 3.749 3.047 3.848 3.848 0 0 1-2.217 4.293 1.14 1.14 0 0 0-.687 1.053v.437c0 .631.513 1.144 1.144 1.144h4.973c1.179 0 2.139-.96 2.139-2.139l-.001-12.83a.939.939 0 0 1 .694-.941.852.852 0 0 1 .998.838v12.933a3.835 3.835 0 0 1-3.83 3.83h-1.99a1.145 1.145 0 0 0 0 2.288h1.99a6.126 6.126 0 0 0 6.118-6.118V11.092c0-.924-.405-1.796-1.107-2.39a3.125 3.125 0 0 0-2.548-.742l-.004.001a3.215 3.215 0 0 0-2.609 3.241v12.674h-2.045a6.143 6.143 0 0 0 1.258-4.851 6.099 6.099 0 0 0-4.722-4.916 6.157 6.157 0 0 0-5.157 1.234 6.135 6.135 0 0 0-1.711 7.29l-2.483-.848-.765-6.864a3.212 3.212 0 0 0-2.934-2.973l-.19-.01a3.129 3.129 0 0 0-2.316 1.043 3.14 3.14 0 0 0-.816 2.435l.995 8.954a3.15 3.15 0 0 0 2.089 2.611l5.867 2.045v7.602l-5.059 5.08a3.11 3.11 0 0 0-.908 2.214v8.839a3.214 3.214 0 0 0 2.611 3.245 3.112 3.112 0 0 0 2.562-.71 3.124 3.124 0 0 0 1.094-2.42v-7.66l5.095-5.125h.573v16.651a3.218 3.218 0 0 0 2.623 3.246z"/></g></g></svg>