<svg xmlns="http://www.w3.org/2000/svg" width="60" height="60" viewBox="0 0 60 60"><g><g><path fill="#fff" d="M9.282 57.775a7.024 7.024 0 0 0 4.687-1.79l-9.955-9.954a7.025 7.025 0 0 0-1.789 4.686c0 3.892 3.166 7.058 7.057 7.058zm7.121-2.889a.93.93 0 0 0 .658-1.587L6.702 42.94a.93.93 0 0 0-1.316 1.315l10.358 10.36a.938.938 0 0 0 .659.271zm2.889-2.889a.93.93 0 0 0 .657-1.587L9.591 40.051a.93.93 0 0 0-1.316 1.315l10.359 10.36a.932.932 0 0 0 .658.271zm6.49-31.564l4.545.65 2.253-4.51-3.042.508a4.693 4.693 0 0 0-3.564 2.87zm4.828 5.715l3.242 3.242 1.316-1.316-3.242-3.243zm12.815 1.272l-4.507 2.253.649 4.544.483-.192a4.682 4.682 0 0 0 2.868-3.562zM15.556 42.872l10.158-10.16-3.844-.549-6.808 10.214zm12.281-4.743l-.549-3.844-10.159 10.158.494.495zm-7.006 10.016H30c10.006 0 18.146-8.139 18.146-18.145 0-1.535-.214-3.105-.636-4.67-.317.182-.645.37-.981.537l-.642.321-.772 4.638a6.934 6.934 0 0 1-4.24 5.265l-3.108 1.244-1.091-7.624-2.824 2.824-.106-.105-6.281-6.282 2.822-2.823-7.622-1.09 1.243-3.11a6.94 6.94 0 0 1 5.265-4.239l4.638-.773.321-.64c.163-.327.345-.646.522-.955l.015-.027A17.873 17.873 0 0 0 30 11.853c-10.006 0-18.146 8.14-18.146 18.147v9.17l1.604 1.602 6.678-10.02-1.445-5.844 2.158-.534 1.384 5.593 6.824.975.975 6.824 5.593 1.383-.534 2.16-5.844-1.447-10.02 6.68zM32.317 22.08l5.605 5.605 7.609-3.804a21.063 21.063 0 0 0 5.494-3.96 21.066 21.066 0 0 0 5.661-10.28 8.714 8.714 0 0 1-6.323-6.325A21.066 21.066 0 0 0 40.08 8.976a21.06 21.06 0 0 0-3.959 5.493zM57.768 3.005a.683.683 0 0 0-.673-.781h-.014l-.096.01-4.419.68a6.536 6.536 0 0 0 4.52 4.52zM56.657.032a2.91 2.91 0 0 1 3.309 3.311l-.796 5.183a23.214 23.214 0 0 1-6.571 12.968 23.602 23.602 0 0 1-3.134 2.61c.601 1.971.906 3.954.906 5.896 0 11.231-9.139 20.371-20.371 20.371h-7.646c.062.25.092.48.092.697a3.138 3.138 0 0 1-2.908 3.136 3.136 3.136 0 0 1-3.135 2.907c-.123 0-.241-.016-.355-.032l-.202.202a9.215 9.215 0 0 1-6.564 2.72C4.164 60 0 55.835 0 50.716c0-2.48.966-4.81 2.719-6.564l.202-.2a2.56 2.56 0 0 1-.032-.357 3.14 3.14 0 0 1 2.908-3.135 3.137 3.137 0 0 1 3.135-2.908c.22 0 .449.031.698.092V30C9.63 18.767 18.768 9.628 30 9.628c1.939 0 3.922.305 5.896.907a23.25 23.25 0 0 1 2.61-3.134A23.207 23.207 0 0 1 51.475.831zm-11.25 15.373a.813.813 0 1 0 0-1.626.813.813 0 0 0 0 1.627zm-3.038-.813a3.043 3.043 0 0 1 3.038-3.039 3.043 3.043 0 0 1 3.038 3.04 3.042 3.042 0 0 1-3.038 3.037 3.042 3.042 0 0 1-3.038-3.038zm3.038-4.664a4.67 4.67 0 0 0-4.664 4.665 4.67 4.67 0 0 0 4.663 4.665 4.67 4.67 0 0 0 4.666-4.665 4.67 4.67 0 0 0-4.666-4.665zm6.89 4.664a6.9 6.9 0 0 1-6.89 6.891c-3.798 0-6.89-3.092-6.89-6.89 0-3.8 3.091-6.891 6.89-6.891 3.8 0 6.89 3.09 6.89 6.89zM27.261 46.518h-2.224v-2.225h2.224zm14.638-8.602l1.838 1.253-.085.123A16.53 16.53 0 0 1 30 46.518h-1.113v-2.224H30c4.722 0 9.138-2.338 11.813-6.255zM17.27 19.48c.445-.534.92-1.042 1.412-1.506l.11-.103 1.524 1.62-.109.102c-.444.421-.856.86-1.222 1.305l-.095.114-1.715-1.418zm5.816-1.991a14.6 14.6 0 0 0-1.503.962l-.12.089-1.314-1.794.12-.09a16.1 16.1 0 0 1 1.739-1.111l.13-.073 1.079 1.945zm-8.026 5.464c.293-.62.63-1.228 1-1.808l.08-.125 1.874 1.196-.08.125c-.317.5-.607 1.026-.862 1.563l-.064.135-2.01-.952z"/></g></g></svg>