<svg xmlns="http://www.w3.org/2000/svg" width="58" height="58" viewBox="0 0 58 58"><g><g><path fill="#fff" d="M54.107 55.793c.929 0 1.686-.757 1.686-1.687s-.757-1.687-1.686-1.687a1.69 1.69 0 0 0-1.687 1.687c0 .93.757 1.687 1.687 1.687zM3.894 2.207c-.93 0-1.687.756-1.687 1.686 0 .929.757 1.686 1.687 1.686.929 0 1.686-.757 1.686-1.686 0-.93-.757-1.686-1.686-1.686zm24.003 13.601V5.953a22.978 22.978 0 0 0-11.503 3.736l3.06 6.119zm-11.159 16.86a2.968 2.968 0 0 1-1.855-2.565H5.958A23.001 23.001 0 0 0 29 52.073c4.494 0 8.85-1.3 12.607-3.759l-3.061-6.121H17.842a2.967 2.967 0 0 1-2.964-2.964v-1.86a2.97 2.97 0 0 1 1.86-2.739zm-1.86-13.897c0-1.332.897-2.497 2.164-2.853L14.583 11a23.05 23.05 0 0 0-8.625 16.897h8.925a2.968 2.968 0 0 1 1.855-2.565v-1.963a2.967 2.967 0 0 1-1.86-2.739zm26.036 0a.757.757 0 0 0-.756-.756H17.842a.757.757 0 0 0-.756.756v1.859c0 .417.339.757.756.757h22.316c.417 0 .756-.34.756-.757zm-21.969 6.335h20.109v-1.512H18.945zm-1.859 14.122c0 .416.339.756.756.756h22.316c.417 0 .756-.34.756-.756v-1.86a.757.757 0 0 0-.756-.756H17.842a.757.757 0 0 0-.756.756zm23.072-8.542c.417 0 .756-.34.756-.756v-1.861a.756.756 0 0 0-.756-.755H17.842a.756.756 0 0 0-.756.755v1.861c0 .416.339.756.756.756zm-21.213 3.72h20.109v-1.513H18.945zm22.317-10.229h14.505c-.56-11.796-10.148-21.384-21.944-21.944v13.575h6.335a2.966 2.966 0 0 1 2.964 2.963v1.859a2.967 2.967 0 0 1-1.86 2.739zm1.86 15.051a2.972 2.972 0 0 1-2.164 2.853l2.459 4.917c5.183-4.16 8.317-10.297 8.63-16.896h-8.93a2.971 2.971 0 0 1-1.855 2.566v1.961a2.97 2.97 0 0 1 1.86 2.739zM58 26.383H42.583c.316.451.501.973.534 1.513H54.28V29c0 7.887-3.59 15.173-9.856 20.01l1.996 3.992h3.968a3.886 3.886 0 0 1 3.719-2.789A3.898 3.898 0 0 1 58 54.106 3.898 3.898 0 0 1 54.107 58a3.886 3.886 0 0 1-3.719-2.79h-5.332l-.048-.096-2.409-4.819A25.15 25.15 0 0 1 29 54.28C15.061 54.28 3.72 42.939 3.72 29c0-7.888 3.591-15.174 9.856-20.012L11.58 4.996H7.612c-.489 1.65-2 2.79-3.718 2.79A3.897 3.897 0 0 1 0 3.893 3.897 3.897 0 0 1 3.894 0a3.887 3.887 0 0 1 3.718 2.79h5.332l.048.095 2.409 4.819A25.143 25.143 0 0 1 29 3.719h1.104v12.089h1.512V0h1.104C46.659 0 58 11.34 58 25.28zm-46.805-9.547l1.833 1.233-.098.144c-.33.489-.637.995-.914 1.503l-.084.153-1.936-1.062.084-.153c.314-.57.656-1.133 1.018-1.673zM49.97 34.038l-2.151-.498.039-.17c.13-.563.237-1.146.317-1.73l.023-.172 2.188.299-.023.172c-.09.655-.21 1.304-.354 1.929zm-3.166 7.126l-1.83-1.233.097-.145c.323-.48.631-.985.914-1.5l.084-.154 1.936 1.061-.084.152c-.32.582-.663 1.145-1.019 1.674zm2.678-5.41a21.706 21.706 0 0 1-.697 1.83l-.069.16-2.027-.88.07-.16c.233-.532.444-1.086.63-1.641l.052-.166 2.095.692zM1.86 50.214h9.646v2.206H1.86zm2.207 5.926H1.86v-2.207h2.207zm3.72 0H5.58v-2.207h2.206zm1.512-2.207h2.207v2.207H9.3zM7.637 26.06c.09-.654.21-1.303.354-1.928l.04-.169 2.15.498-.04.17a18.848 18.848 0 0 0-.316 1.728l-.023.171-2.188-.297zm6.542 15.39l-1.702 1.404-.11-.134a21.494 21.494 0 0 1-1.44-1.96l-.096-.145 1.851-1.204.094.145c.393.604.828 1.196 1.293 1.76zM8.518 22.245c.2-.61.435-1.225.697-1.83l.069-.16 2.027.878-.07.16a20.563 20.563 0 0 0-.63 1.644l-.052.165-2.095-.692zM29 50.56a21.478 21.478 0 0 1-14.799-5.882l-.126-.119 1.516-1.605.126.12A19.278 19.278 0 0 0 29 48.355h.174v2.206zm24.221-31.976l-2.093.702-.055-.165a19.497 19.497 0 0 0-4.279-7.125l-.119-.127 1.605-1.515.12.127a21.7 21.7 0 0 1 4.766 7.938zm.5 1.795c.15.645.272 1.305.361 1.961l.023.172-2.186.297-.025-.172c-.08-.588-.188-1.18-.323-1.759l-.039-.17 2.15-.499z"/></g></g></svg>