<svg xmlns="http://www.w3.org/2000/svg" width="58" height="58" viewBox="0 0 58 58"><g><g><path fill="#fff" d="M24.606 2.102c-.212.23-.503.361-.802.361-.299 0-.59-.131-.8-.361a1.293 1.293 0 0 1-.333-.87c0-.324.121-.641.332-.87.21-.23.502-.362.8-.362.3 0 .59.131.803.362.21.229.33.546.33.87 0 .323-.12.641-.33.87zm7.892 30.591c-.303 0-.594-.05-.87-.142-.434 1.161-1.485 1.983-2.709 1.983-1.223 0-2.274-.822-2.71-1.984a2.675 2.675 0 0 1-.868.143c-1.285 0-2.379-.905-2.77-2.16-.257.08-.528.125-.809.125-1.613 0-2.924-1.427-2.924-3.18V16.65c0-2.884 1.035-5.595 2.914-7.631l.92-.997V5.624c0-.681.506-1.232 1.132-1.232.626 0 1.133.551 1.133 1.232v2.91c0 .326-.12.64-.333.871l-1.252 1.357c-1.45 1.572-2.248 3.663-2.248 5.888v10.828c0 .395.295.717.658.717.335 0 .611-.272.654-.623v-3.194c0-.68.507-1.232 1.133-1.232h.006c.626 0 1.133.551 1.133 1.232v3.1c0 .068-.003.133-.006.2v1.836c0 .396.296.718.66.718.334 0 .61-.273.653-.624v-5.23c0-.68.506-1.232 1.132-1.232h.007c.625 0 1.133.551 1.133 1.232v5.136c0 .067-.003.133-.007.199v1.641c0 .396.296.718.66.718.363 0 .659-.322.659-.718v-1.64a3.65 3.65 0 0 1-.006-.2v-5.136c0-.68.507-1.232 1.132-1.232h.007c.626 0 1.133.551 1.133 1.232v5.23c.042.351.319.623.653.623.363 0 .66-.322.66-.717V19.498c0-.78.516-1.414 1.229-1.508.712-.094 1.353.389 1.525 1.147l.485 2.15c.086.387.438.636.8.567a.698.698 0 0 0 .455-.32.812.812 0 0 0 .11-.576l-.94-5.174c-.295-1.628-1.022-3.108-2.104-4.278l-1.937-2.1a1.292 1.292 0 0 1-.333-.874v-7.3c0-.68.508-1.232 1.133-1.232.626 0 1.133.551 1.133 1.232v6.79l1.605 1.739c1.4 1.52 2.344 3.437 2.727 5.548l.938 5.173a3.42 3.42 0 0 1-.464 2.445c-.454.72-1.14 1.2-1.93 1.352a2.772 2.772 0 0 1-2.167-.501v5.736c0 1.753-1.312 3.18-2.925 3.18zm-4.282 12.71c.805 1.517.326 3.467-1.072 4.343l-3.436 2.156-.194.122-2.134 1.34-2.862 1.795c-2.298 1.443-4.974 1.824-7.537 1.074l-1.254-.368-3.139 1.97a1.067 1.067 0 0 1-.565.166 1.12 1.12 0 0 1-.983-.617c-.313-.589-.127-1.343.415-1.682l3.546-2.226c.261-.164.57-.208.861-.123l1.709.5c1.976.58 4.042.287 5.815-.827l4.995-3.135 3.63-2.278c.316-.198.424-.637.243-.98a.674.674 0 0 0-.4-.335.606.606 0 0 0-.423.032l-2.546 1.597a1.063 1.063 0 0 1-.565.165c-.403 0-.783-.244-.985-.622-.313-.589-.127-1.342.415-1.682l2.47-1.55c.054-.034.107-.064.162-.093l1.463-.919c.314-.198.423-.638.241-.98-.167-.314-.522-.439-.823-.303l-4.167 2.615a1.057 1.057 0 0 1-.565.165c-.312 0-.616-.142-.833-.4a1.224 1.224 0 0 1-.152-.222c-.313-.588-.127-1.342.415-1.68l4.091-2.57c.054-.033.108-.064.162-.093l1.307-.82c.316-.199.424-.638.242-.981-.182-.341-.586-.46-.901-.262l-1.307.82c-.05.037-.103.073-.156.106l-4.092 2.568c-.542.34-1.235.139-1.548-.45v-.004h-.002v-.002c-.314-.59-.127-1.343.414-1.683l4.148-2.603a.71.71 0 0 0 .254-.393.768.768 0 0 0-.066-.546.665.665 0 0 0-.4-.333.61.61 0 0 0-.5.071l-7.98 5.009c-.622.39-1.385.22-1.816-.404a1.598 1.598 0 0 1 .151-2.008l1.47-1.531a.81.81 0 0 0 .052-1.038.66.66 0 0 0-.995-.084l-3.653 3.472c-1.15 1.091-1.964 2.516-2.358 4.12l-.704 2.873a1.224 1.224 0 0 1-.528.75l-3.547 2.226a1.054 1.054 0 0 1-.565.165c-.391 0-.772-.22-.982-.616-.313-.59-.127-1.341.414-1.683l3.14-1.97.583-2.38c.51-2.078 1.567-3.924 3.056-5.34l3.653-3.47c.604-.576 1.38-.854 2.18-.787.8.067 1.526.473 2.041 1.141a3.4 3.4 0 0 1 .684 2.291l4.57-2.868a2.699 2.699 0 0 1 2.22-.318c.755.22 1.386.746 1.776 1.482.15.281.258.58.322.89 1.144-.172 2.322.407 2.934 1.558a3.401 3.401 0 0 1-.224 3.544c.21.212.397.461.547.745.643 1.21.468 2.69-.335 3.687.194.204.363.438.503.7zm26.078-.875l3.14 1.97c.541.34.727 1.093.414 1.682-.21.394-.59.616-.982.616-.192 0-.387-.053-.565-.166l-3.547-2.226a1.227 1.227 0 0 1-.528-.75l-.455-1.857c-.528-2.15-1.795-3.948-3.568-5.06l-2.86-1.797-2.134-1.338-.194-.122-3.438-2.158a.606.606 0 0 0-.5-.07.667.667 0 0 0-.4.333.76.76 0 0 0 .169.927l2.546 1.597c.54.34.727 1.093.414 1.682-.043.08-.095.155-.153.223a1.095 1.095 0 0 1-.832.399 1.05 1.05 0 0 1-.566-.166l-2.47-1.55a3.414 3.414 0 0 1-.155-.105l-1.464-.918a.603.603 0 0 0-.5-.071.661.661 0 0 0-.4.333.764.764 0 0 0-.067.544c.04.162.13.298.255.395l4.148 2.602c.542.341.727 1.093.414 1.683-.043.08-.093.156-.152.222-.217.257-.52.4-.833.4a1.06 1.06 0 0 1-.566-.166l-4.09-2.567a3.166 3.166 0 0 1-.156-.106l-1.308-.82a.603.603 0 0 0-.5-.072.661.661 0 0 0-.4.334c-.183.342-.074.782.241.979l1.306.82c.055.03.109.06.163.094l4.092 2.569c.542.339.727 1.093.415 1.682a1.23 1.23 0 0 1-.153.222c-.218.257-.521.4-.832.4-.193 0-.388-.054-.566-.165l-4.168-2.617a.606.606 0 0 0-.422-.03.667.667 0 0 0-.4.335c-.182.342-.073.782.24.979l7.981 5.008c.622.39.868 1.194.587 1.911-.282.718-.987 1.08-1.675.862l-1.956-.618c-.353-.111-.727.094-.853.47a.817.817 0 0 0 .027.587.72.72 0 0 0 .405.392l4.59 1.703a7.051 7.051 0 0 0 4.462.16l2.642-.775c.29-.085.6-.041.86.123l3.548 2.225c.542.34.728 1.094.414 1.683-.21.395-.59.615-.981.615-.193 0-.387-.052-.566-.164l-3.14-1.971-2.187.642a9.133 9.133 0 0 1-5.783-.207l-4.59-1.703c-.761-.283-1.37-.871-1.717-1.66a3.45 3.45 0 0 1-.112-2.493 3.14 3.14 0 0 1 1.482-1.79l-4.57-2.867c-1.397-.877-1.876-2.825-1.07-4.344.15-.281.335-.532.548-.747a3.414 3.414 0 0 1-.225-3.542c.612-1.151 1.79-1.73 2.935-1.558.064-.31.17-.608.32-.89.39-.736 1.022-1.262 1.777-1.481a2.68 2.68 0 0 1 1.33-.048c.064-.281.164-.558.304-.822.391-.736 1.022-1.262 1.777-1.481a2.702 2.702 0 0 1 2.22.318l3.63 2.277 4.995 3.136c2.299 1.442 3.94 3.772 4.623 6.56z"/></g></g></svg>