<svg xmlns="http://www.w3.org/2000/svg" width="638" height="735" viewBox="0 0 638 735"><g><g clip-path="url(#clip-0:1417)" opacity=".5"><g opacity=".5"><g opacity=".5"><g opacity=".1" transform="rotate(61 420.5 162)"><path fill="#99a2bd" d="M349.583-11.064C343.538-8.133 239.866-74.862 244.861 8.79c9.47 158.601-105.662 201.706-60.187 248.364 21.145 21.695 69.144 3.425 98.663 38.276 29.518 34.851 74.773-2.189 116.441 6.202 41.668 8.391 88.192 15.04 132.509-19.361 99.548-77.275 48.998 34.059 69.303-6.331 9.545-18.985 74.904-16.956 74.904-16.956S601.955 75.042 576.889 36.569C551.824-1.9 550.252-35 550.252-35z"/></g><g opacity=".25"><path fill="#99a2bd" d="M293 57.5a3.5 3.5 0 1 1-7 0 3.5 3.5 0 0 1 7 0zm1 28a1.5 1.5 0 1 1 3.001 0 1.5 1.5 0 0 1-3.001 0zM281 177a1 1 0 1 1-2 0 1 1 0 0 1 2 0zm65 11a1 1 0 1 1-1.999.001A1 1 0 0 1 346 188zm-57-17.5a1.5 1.5 0 1 1 3 0 1.5 1.5 0 0 1-3 0z"/></g><g opacity=".5"><g opacity=".5"><g opacity=".5" transform="rotate(110 54 404.5)"><path fill="#99a2bd" d="M40.342 410.236c.624.21 1.074.78 1.074 1.456 0 .856-.708 1.544-1.584 1.544-.402 0-.762-.143-1.04-.382zm-4.208 9.773c0 .83-.702 1.499-1.567 1.499-.64 0-1.188-.366-1.433-.887l1.264-2.096c.056-.006.11-.017.17-.017.864 0 1.566.674 1.566 1.501zm4.686 9.953c0 .826-.669 1.494-1.496 1.494a1.5 1.5 0 1 1 0-3c.827 0 1.496.676 1.496 1.506zm.176 18.027a1.501 1.501 0 1 1-2.998-.002 1.501 1.501 0 0 1 2.998.002zm-13.843-8.795c0 .827-.672 1.496-1.499 1.496-.83 0-1.501-.669-1.501-1.496 0-.83.671-1.504 1.501-1.504.827 0 1.499.674 1.499 1.504zm28.097-36.83c0 .832-.671 1.498-1.501 1.498-.83 0-1.499-.666-1.499-1.497a1.501 1.501 0 0 1 3 0zm-23.738 45.883a1.5 1.5 0 1 1-2.998.002 1.5 1.5 0 0 1 2.998-.002zm5.124-9.313c0 .827-.671 1.496-1.497 1.496a1.499 1.499 0 1 1 0-3c.826 0 1.497.674 1.497 1.504zm13.345-46.497a1.582 1.582 0 0 1-1.266 2.19zm.322 37.266c0 .826-.671 1.494-1.501 1.494a1.496 1.496 0 0 1-1.499-1.494c0-.83.672-1.506 1.499-1.506.83 0 1.501.676 1.501 1.506zm.176 18.027c0 .83-.671 1.5-1.501 1.5-.827 0-1.499-.67-1.499-1.5 0-.831.672-1.5 1.499-1.5.83 0 1.501.669 1.501 1.5zm-23.15 9.483c0 .83-.671 1.504-1.499 1.504-.83 0-1.501-.674-1.501-1.504s.671-1.496 1.501-1.496c.828 0 1.499.666 1.499 1.496zm18.79-18.536c0 .827-.668 1.496-1.5 1.496a1.501 1.501 0 1 1 1.5-1.496zm-.763 18.36a1.501 1.501 0 1 1-3.002.007 1.501 1.501 0 0 1 3.002-.006zm4.77-45.363c0 .83-.67 1.499-1.5 1.499a1.497 1.497 0 0 1-1.5-1.499c0-.827.672-1.501 1.5-1.501.83 0 1.5.674 1.5 1.501zm-4.39-10.55a1.581 1.581 0 0 1-1.548 2.679zm.208 19.523c0 .83-.67 1.499-1.5 1.499a1.5 1.5 0 1 1 1.5-1.499zm-9.132 36.306c0 .83-.67 1.504-1.497 1.504-.83 0-1.503-.674-1.503-1.504s.674-1.496 1.503-1.496c.826 0 1.497.666 1.497 1.496zm63.906.153c0 .83-.671 1.504-1.501 1.504a1.502 1.502 0 0 1-1.499-1.504c0-.83.672-1.496 1.499-1.496.83 0 1.501.666 1.501 1.496zM95.84 429.09c0 .827-.674 1.495-1.501 1.495a1.496 1.496 0 0 1-1.499-1.495c0-.83.672-1.505 1.499-1.505.827 0 1.501.676 1.501 1.505zm.518 18.967a1.5 1.5 0 1 1-3-.001 1.5 1.5 0 0 1 3 0zm-7.87-28.002c0-.828.685-1.502 1.53-1.502.13 0 .255.023.373.054l1.097 1.853a1.524 1.524 0 0 1-1.47 1.093c-.845 0-1.53-.668-1.53-1.498zm8.047 46.23c0 .64-.366 1.182-.887 1.43h-1.232a1.57 1.57 0 0 1-.881-1.43c0-.868.671-1.57 1.498-1.57s1.502.702 1.502 1.57zm-73.566-18.121a1.5 1.5 0 1 1-3 0 1.5 1.5 0 0 1 3 0zm81.933-.024c0 .83-.671 1.5-1.501 1.5-.828 0-1.499-.67-1.499-1.5 0-.831.671-1.5 1.499-1.5.83 0 1.501.669 1.501 1.5zm-4.36-9.054c0 .828-.671 1.496-1.501 1.496a1.497 1.497 0 0 1-1.499-1.496c0-.83.672-1.504 1.499-1.504.83 0 1.501.674 1.501 1.504zm9.66 17.76c0 .83-.672 1.504-1.502 1.504a1.502 1.502 0 0 1-1.498-1.504c0-.83.671-1.496 1.498-1.496.83 0 1.502.666 1.502 1.496zm-23.15 9.698c0 .64-.366 1.182-.885 1.43h-1.232a1.568 1.568 0 0 1-.884-1.43c0-.868.669-1.57 1.499-1.57.827 0 1.501.702 1.501 1.57zm-69.206-9.073c0 .83-.672 1.504-1.499 1.504-.83 0-1.501-.674-1.501-1.504s.671-1.496 1.501-1.496c.827 0 1.499.666 1.499 1.496zm5.3 8.921c0 .64-.363 1.182-.882 1.43h-1.232a1.576 1.576 0 0 1-.887-1.43c0-.868.674-1.57 1.502-1.57.827 0 1.498.702 1.498 1.57zm18.026-.176c0 .64-.36 1.181-.884 1.43h-1.23a1.576 1.576 0 0 1-.886-1.43c0-.868.674-1.57 1.504-1.57.828 0 1.496.702 1.496 1.57zm-9.483.258c0 .64-.363 1.182-.883 1.43h-1.232a1.576 1.576 0 0 1-.885-1.43c0-.868.673-1.57 1.502-1.57.824 0 1.498.702 1.498 1.57zm45.537-.61c0 .64-.363 1.181-.884 1.43h-1.23a1.57 1.57 0 0 1-.886-1.43c0-.868.671-1.57 1.501-1.57.828 0 1.499.702 1.499 1.57zm-8.544-.084a1.57 1.57 0 0 1-.886 1.43h-1.23a1.573 1.573 0 0 1-.884-1.43c0-.867.672-1.57 1.502-1.57.827 0 1.498.703 1.498 1.57zm-18.966.519c0 .64-.363 1.181-.884 1.43H47.6a1.578 1.578 0 0 1-.884-1.43c0-.868.671-1.57 1.498-1.57.83 0 1.502.702 1.502 1.57zm9.483-.26c0 .64-.362 1.182-.884 1.431h-1.23a1.57 1.57 0 0 1-.886-1.43c0-.868.672-1.57 1.499-1.57.83 0 1.501.702 1.501 1.57zm45.88.329c0 .64-.366 1.181-.887 1.43h-1.233a1.576 1.576 0 0 1-.88-1.43c0-.868.67-1.57 1.498-1.57.83 0 1.501.702 1.501 1.57zm-25.858-64.02c0-.535.264-1.003.663-1.294l1.578 2.736a1.533 1.533 0 0 1-.654.141 1.581 1.581 0 0 1-1.587-1.584zm-1.408 26.918c0 .827-.671 1.495-1.498 1.495-.83 0-1.502-.668-1.502-1.495 0-.829.672-1.505 1.502-1.505.827 0 1.498.676 1.498 1.505zm4.184-8.973c0 .83-.671 1.499-1.501 1.499a1.5 1.5 0 1 1 1.501-1.499zm-5.225-25.663a1.59 1.59 0 0 1-1.59-1.587 1.6 1.6 0 0 1 .222-.798l1.377 2.385zm-4.082 43.952c0 .827-.669 1.496-1.499 1.496-.83 0-1.501-.669-1.501-1.496a1.5 1.5 0 0 1 3 0zm10.001 18.699a1.5 1.5 0 1 1 0 0zm-28.204-36.553c0 .83-.672 1.499-1.502 1.499s-1.498-.669-1.498-1.499a1.5 1.5 0 1 1 3 0zm23.503 26.565c0 .831-.672 1.5-1.5 1.5-.83 0-1.5-.669-1.5-1.5 0-.83.67-1.5 1.5-1.5.828 0 1.5.67 1.5 1.5zm8.885 1.023a1.5 1.5 0 1 1-3 0 1.5 1.5 0 0 1 3 0zm4.781-10.253a1.5 1.5 0 0 1-1.503 1.495 1.496 1.496 0 0 1-1.497-1.495c0-.83.67-1.505 1.497-1.505.83 0 1.503.675 1.503 1.505zm-59.38-8.186c0 .826-.674 1.494-1.497 1.494-.83 0-1.503-.668-1.503-1.494 0-.187.04-.362.102-.53l.24-.407a1.48 1.48 0 0 1 1.16-.569c.824 0 1.498.677 1.498 1.506zM13.32 465.712c0 .64-.363 1.182-.884 1.43h-1.23a1.576 1.576 0 0 1-.886-1.43c0-.867.674-1.57 1.504-1.57.827 0 1.496.703 1.496 1.57zm68.853-27.388c0 .827-.671 1.495-1.501 1.495a1.5 1.5 0 1 1 1.501-1.496zm32.389 27.786c0 .64-.366 1.181-.887 1.43h-1.23a1.573 1.573 0 0 1-.883-1.43c0-.868.668-1.57 1.495-1.57.83 0 1.505.702 1.505 1.57zm-30.298-55.055c0-.726.528-1.328 1.239-1.483l1.515 2.504a1.616 1.616 0 0 1-1.167.496c-.88 0-1.587-.677-1.587-1.517zm2.093 18.295c0 .827-.674 1.495-1.502 1.495-.83 0-1.498-.668-1.498-1.495 0-.829.668-1.505 1.498-1.505.828 0 1.502.676 1.502 1.505zm4.878 28.014c0 .83-.674 1.504-1.503 1.504a1.501 1.501 0 0 1-1.497-1.504c0-.83.67-1.496 1.497-1.496.83 0 1.503.666 1.503 1.496zm-18.369-.763a1.5 1.5 0 1 1-1.498-1.495c.83 0 1.498.665 1.498 1.495zm4.771-45.362c0 .83-.671 1.499-1.498 1.499-.83 0-1.502-.669-1.502-1.499 0-.827.672-1.501 1.502-1.501.827 0 1.498.674 1.498 1.501zm-18.614 36.574c0 .83-.672 1.5-1.502 1.5-.827 0-1.498-.67-1.498-1.5a1.499 1.499 0 1 1 3 0zm.763-18.37c0 .827-.671 1.495-1.501 1.495a1.496 1.496 0 0 1-1.499-1.495c0-.829.672-1.505 1.499-1.505.83 0 1.501.676 1.501 1.505zm4.17-55.792a1.5 1.5 0 1 1-2.998 0 1.5 1.5 0 0 1 2.998 0zm.601 10.423a1.5 1.5 0 1 1-3.002-.005 1.5 1.5 0 0 1 3.002.005zm-4.947 27.341c0 .83-.671 1.499-1.501 1.499a1.497 1.497 0 0 1-1.499-1.499c0-.827.672-1.501 1.499-1.501.83 0 1.501.674 1.501 1.501zm-4.77 45.362a1.5 1.5 0 1 1 0 0zm-.177-18.018c0 .827-.671 1.496-1.501 1.496a1.5 1.5 0 1 1 1.501-1.496zm6.644-45.895c0 .824-.894 1.498-1.998 1.498-1.105 0-2.002-.674-2.002-1.498 0-.83.897-1.502 2.002-1.502 1.104 0 1.998.672 1.998 1.502zm2.487 9.583c0 .83-.671 1.497-1.5 1.497a1.5 1.5 0 1 1 1.5-1.497zm9.483-.258c0 .83-.668 1.497-1.498 1.497s-1.502-.667-1.502-1.497a1.501 1.501 0 1 1 3 0zm-9.307 18.28c0 .83-.671 1.499-1.5 1.499a1.501 1.501 0 0 1 0-3c.829 0 1.5.674 1.5 1.501zm4.36 9.057c0 .827-.671 1.495-1.499 1.495-.83 0-1.501-.668-1.501-1.495 0-.829.671-1.505 1.501-1.505.828 0 1.499.676 1.499 1.505zm2.707-44.184a1.584 1.584 0 0 1-.71-1.233zm2.416 34.87c0 .83-.668 1.498-1.498 1.498s-1.502-.669-1.502-1.499a1.5 1.5 0 1 1 3 0zm-5.3-8.714c0 .83-.67 1.499-1.498 1.499-.83 0-1.501-.669-1.501-1.499 0-.827.671-1.501 1.501-1.501.827 0 1.499.674 1.499 1.501zm-4.77 45.361c0 .83-.671 1.505-1.5 1.505-.83 0-1.5-.675-1.5-1.505 0-.83.67-1.495 1.5-1.495.829 0 1.5.665 1.5 1.495zm.763-18.36c0 .827-.67 1.496-1.5 1.496s-1.5-.669-1.5-1.496c0-.83.67-1.504 1.5-1.504s1.5.674 1.5 1.504zm4.36 9.054a1.499 1.499 0 1 1-3 0c0-.83.672-1.5 1.502-1.5.827 0 1.498.67 1.498 1.5zm.411-54.424a1.5 1.5 0 1 1-3.001-.004 1.5 1.5 0 0 1 3.001.004z"/></g><g opacity=".5"/><g opacity=".25"><path fill="#99a2bd" d="M277-269.5c0 6.351-5.149 11.5-11.501 11.5-6.35 0-11.499-5.149-11.499-11.5 0-6.35 5.149-11.5 11.499-11.5 6.352 0 11.501 5.15 11.501 11.5zm5 98.501a5.002 5.002 0 0 1 5-5.001 5 5 0 1 1-5 5.001zM353 22c0-5.524 4.477-10 9.999-10C368.523 12 373 16.476 373 22c0 5.521-4.477 10-10.001 10-5.522 0-9.999-4.479-9.999-10zm73 32.5a4.5 4.5 0 1 1 9 0 4.5 4.5 0 0 1-9 0zm25 48.001a2.5 2.5 0 1 1-5.001-.003 2.5 2.5 0 0 1 5.001.003zm15-38.502a4 4 0 1 1 8 .002 4 4 0 0 1-8-.002zM442 41a4.001 4.001 0 0 1-8 0 4.001 4.001 0 0 1 8 0zm-48 88.499a4.5 4.5 0 1 1 9 .001 4.5 4.5 0 0 1-9-.001zm-156 13.502a4 4 0 1 1-8-.002 4 4 0 0 1 8 .002zm88 22.498a7.5 7.5 0 1 1 15 .003 7.5 7.5 0 0 1-15-.003zM462 182.5a3.5 3.5 0 1 1-6.999-.001 3.5 3.5 0 0 1 6.999.001zm-197-61.501a5 5 0 0 1 5-4.999 5 5 0 1 1-5 4.999z"/></g><g opacity=".25"/></g></g></g></g></g></g></svg>