<svg xmlns="http://www.w3.org/2000/svg" width="436" height="480" viewBox="0 0 436 480"><defs><clipPath id="grrpa"><path d="M0 327.36h8.81v8.78H0z"/></clipPath><clipPath id="grrpb"><path d="M320.59 0h5.04v5.023h-5.04z"/></clipPath></defs><g><g><g><g><path fill="#91d2ff" d="M431.253 214.442l-.81 36.578-5.181 57.176-39.826-105.355zm-5.783 95.241a.273.273 0 0 0 .23-.247l5.294-58.388.813-36.812a.294.294 0 0 0-.202-.275l-46.538-11.784a.283.283 0 0 0-.28.087.275.275 0 0 0-.05.275l40.429 106.969a.271.271 0 0 0 .293.177z"/></g><g/><g><path fill="#91d2ff" d="M425.464 309.68a.24.24 0 0 1-.121-.006L267.57 266.37a.27.27 0 0 1-.19-.336c.039-.148.154-.239.338-.19l157.772 43.305a.27.27 0 0 1 .191.336.269.269 0 0 1-.217.196"/></g><g/><g><path fill="#91d2ff" d="M430.764 251.311a.272.272 0 0 1-.244-.082l-45.987-48.044-116.755 63.168c-.143.058-.301.026-.37-.115a.262.262 0 0 1 .109-.372l116.934-63.265a.272.272 0 0 1 .327.056l46.134 48.198a.27.27 0 0 1-.007.388.283.283 0 0 1-.141.068"/></g><g/><g><path fill="#91d2ff" d="M367.337 324.94a.289.289 0 0 1-.122-.007l-54.692-16.276a.28.28 0 0 1-.192-.342.293.293 0 0 1 .34-.185l52.904 15.742-28.065-18.403-25.188 2.364-28.582 18.421a.246.246 0 0 1-.246.027.298.298 0 0 1-.175-.187l-15.94-59.912c-.04-.16.067-.294.224-.338a.288.288 0 0 1 .32.2l15.842 59.542 28.316-18.25a.224.224 0 0 1 .124-.043l25.35-2.38a.303.303 0 0 1 .18.043l29.71 19.485a.276.276 0 0 1-.108.498"/></g><g/><g><path fill="#91d2ff" d="M367.292 324.943l-83.451 1.883-.011-.553 83.451-1.883z"/></g><g/><g><path fill="#91d2ff" d="M308.974 410.584l-25.394-83.958.519-.156 25.394 83.958z"/></g><g/><g><path fill="#91d2ff" d="M321.552 416.979a.253.253 0 0 1-.168-.025l-12.278-6.199a.264.264 0 0 1-.12-.371.255.255 0 0 1 .361-.117l11.666 5.887-53.624-149.947a.267.267 0 0 1 .167-.35c.01-.008.031-.01.042-.013a.271.271 0 0 1 .304.175l53.859 150.597a.274.274 0 0 1-.209.363"/></g><g/><g><path fill="#91d2ff" d="M291.545 477.96a.253.253 0 0 1-.168-.025.267.267 0 0 1-.13-.363l30.015-60.985a.271.271 0 0 1 .37-.125.27.27 0 0 1 .13.363l-30.014 60.985a.274.274 0 0 1-.203.15"/></g><g/><g><path fill="#91d2ff" d="M279.783 458.406c-.02.003-.043.007-.064.006a.314.314 0 0 1-.205-.106l-42.75-54.555a.27.27 0 0 1-.01-.308c.047-.1.214-.147.271-.13l48.622 7.643 23.58-.72a.27.27 0 0 1 .276.266.266.266 0 0 1-.224.278l-.042.008-23.624.712-47.98-7.537 42.128 53.76 41.488-40.819c.123-.109.276-.109.393.001a.277.277 0 0 1 .003.386l-41.712 41.038a.307.307 0 0 1-.15.076"/></g><g/><g><path fill="#91d2ff" d="M281.013 437.47a.276.276 0 0 1-.285-.129.276.276 0 0 1 .097-.377l14.065-8.265 10.907-14.445 3.216-3.922c.1-.115.27-.14.387-.035.125.092.134.264.046.383l-3.217 3.912-10.935 14.477a.192.192 0 0 1-.075.072l-14.114 8.296a.328.328 0 0 1-.092.033"/></g><g/><g><path fill="#91d2ff" d="M295.122 429.175a.303.303 0 0 1-.133-.009l-41.916-12.999-13.807-3.858c-.093-.028-.17-.095-.187-.191l-2.255-8.297a.28.28 0 0 1-.012-.129l5.387-26.081 12.51-55.685 12.661-55.879c.04-.143.185-.255.335-.205a.281.281 0 0 1 .211.327l-12.661 55.88-12.511 55.678-5.377 26.015 2.194 8.079 13.669 3.817 41.929 13.008c.139.041.22.196.18.339a.285.285 0 0 1-.217.19"/></g><g/><g><path fill="#91d2ff" d="M309.276 410.78a.253.253 0 0 1-.168-.024l-66.753-32.84a.259.259 0 0 1-.136-.335l1.6-4.421a.14.14 0 0 1 .05-.085l14.223-16.743 25.537-29.954c.068-.11.271-.135.387-.035a.274.274 0 0 1 .025.387l-25.536 29.954-14.188 16.704-1.494 4.147 66.526 32.733a.268.268 0 0 1 .13.363.276.276 0 0 1-.203.15"/></g><g/><g><path fill="#91d2ff" d="M309.277 410.781a.254.254 0 0 1-.145-.013l-39.42-15.374-34.055-13.004a.277.277 0 0 1-.16-.352c.062-.142.224-.214.353-.16l34.055 13.003 39.421 15.375a.284.284 0 0 1 .162.358.282.282 0 0 1-.211.167"/></g><g/><g><path fill="#91d2ff" d="M236.658 403.798l-.011.002a.28.28 0 0 1-.313-.228l-5.344-35.692a.429.429 0 0 1 .02-.134l36.78-101.618c.051-.145.21-.232.353-.165a.27.27 0 0 1 .16.347l-36.759 101.554 5.343 35.622a.283.283 0 0 1-.229.312"/></g><g/><g><path fill="#91d2ff" d="M337.623 305.455a.268.268 0 0 1-.19-.037l-33.914-21.272 8.963 23.322a.265.265 0 0 1-.155.353c-.12.06-.308-.011-.355-.155l-9.264-24.09a.284.284 0 0 1 .076-.312.27.27 0 0 1 .324-.02l34.613 21.71a.272.272 0 0 1 .088.376.263.263 0 0 1-.186.125"/></g><g/><g><path fill="#91d2ff" d="M284.089 326.661l-.499-.228 19.075-42.954-4.907-9.033-12.707-27.876.506-.23 12.693 27.862 5.024 9.258-.055.124z"/></g><g/><g><path fill="#91d2ff" d="M284.108 326.552l-.548-.012 1.069-80.11.547.013z"/></g><g/><g><path fill="#91d2ff" d="M242.525 377.935a.26.26 0 0 1-.23-.063l-11.503-10.155a.366.366 0 0 1-.091-.141l-12.146-50.868a.284.284 0 0 1 .204-.33l.02-.004a.286.286 0 0 1 .32.206l12.12 50.785 11.44 10.095a.271.271 0 0 1 .025.387.257.257 0 0 1-.16.088"/></g><g/><g><path fill="#91d2ff" d="M231.306 368.212c-.03.005-.054.004-.086.004l-4.973-.698a.304.304 0 0 1-.197-.129l-34.65-55.003a.273.273 0 0 1 .087-.375c.168-.1.309-.043.386.085l34.577 54.896 4.847.678a.272.272 0 0 1 .231.313.266.266 0 0 1-.222.229"/></g><g/><g><path fill="#91d2ff" d="M236.245 382.808a.264.264 0 0 1-.157-.021l-37.183-16.736a.271.271 0 0 1-.14-.362c.052-.134.227-.198.358-.134l37.184 16.736a.271.271 0 0 1-.062.517"/></g><g/><g><path fill="#91d2ff" d="M237.027 403.845a.392.392 0 0 1-.132-.004l-53.154-16.161-14.8-4.646a.284.284 0 0 1-.18-.343.283.283 0 0 1 .351-.177l14.798 4.642 53.153 16.155c.14.046.222.2.181.344a.285.285 0 0 1-.217.19"/></g><g/><g><path fill="#91d2ff" d="M183.482 423.411a.25.25 0 0 1-.121-.006.27.27 0 0 1-.191-.337l15.409-56.704-29.41 16.647-47.093 25.679a.253.253 0 0 1-.368-.11.26.26 0 0 1 .109-.367l47.083-25.677 29.974-16.97a.282.282 0 0 1 .31.022c.088.066.13.178.094.288l-15.58 57.339a.269.269 0 0 1-.217.196"/></g><g/><g><path fill="#91d2ff" d="M199.06 366.075l-.01.002a.284.284 0 0 1-.314-.233l-5.646-41.347-1.79-11.839a.315.315 0 0 1 .079-.237.33.33 0 0 1 .237-.08l92.257 13.936c.158.027.258.167.23.313-.017.155-.145.232-.31.234l-91.884-13.88 1.735 11.472 5.646 41.352a.277.277 0 0 1-.23.307"/></g><g/><g><path fill="#91d2ff" d="M146.532 334.64a.281.281 0 0 1-.3-.154.28.28 0 0 1 .133-.361l39.739-18.68 4.664-2.701c.109-.068.3-.032.378.096.078.133.032.3-.097.377l-4.685 2.71-39.76 18.689c-.03.016-.051.02-.072.024"/></g><g/><g><path fill="#91d2ff" d="M192.182 312.546a.287.287 0 0 1-.271-.105.279.279 0 0 1 .064-.386l17.482-12.952 49.274-34.283a.315.315 0 0 1 .188-.05l7.73.927a.265.265 0 0 1 .24.307c-.007.142-.141.248-.296.236l-7.63-.911-49.186 34.218-17.484 12.952a.26.26 0 0 1-.111.047"/></g><g/><g><path fill="#91d2ff" d="M4.462 332.016a.286.286 0 0 1-.205-.045.271.271 0 0 1-.067-.38l56.156-81.1c.054-.07.14-.129.22-.115l49.285-.096 19.169.402c.152 0 .273.126.267.279.005.151-.117.265-.28.267l-19.158-.404-49.132.096-56.08 80.983a.265.265 0 0 1-.175.113"/></g><g/><g><path fill="#91d2ff" d="M4.462 332.021a.293.293 0 0 1-.27-.1.285.285 0 0 1 .053-.384L92.65 262.98l45.247-33.586c.055-.053.162-.072.255-.034a.286.286 0 0 1 .177.197l4.916 23.151a.279.279 0 0 1-.216.326l-.01.002a.281.281 0 0 1-.321-.21l-4.82-22.732-44.9 33.323-88.395 68.55a.278.278 0 0 1-.121.054"/></g><g/><g><path fill="#91d2ff" d="M5.084 332.117a.27.27 0 0 1-.286-.135.267.267 0 0 1 .099-.37l71.507-40.317 66.88-37.78 5.009-8.78 42.199-44.518c.089-.113.275-.113.39-.014a.275.275 0 0 1 .004.39l-42.154 44.469-5.005 8.795a.298.298 0 0 1-.103.1l-66.94 37.81-71.507 40.318a.302.302 0 0 1-.093.032"/></g><g/><g><path fill="#91d2ff" d="M4.454 332.021a.283.283 0 0 1-.283-.119.281.281 0 0 1 .085-.38l124.599-80.792c.115-.096.298-.046.386.08a.28.28 0 0 1-.086.38L4.555 331.98a.25.25 0 0 1-.101.04"/></g><g/><g><path fill="#91d2ff" d="M104.353 356.037a.253.253 0 0 1-.145-.013.278.278 0 0 1-.161-.352l35.694-93.075 3.487-8.98c.072-.15.225-.209.353-.16a.278.278 0 0 1 .163.351l-3.49 8.986-35.692 93.07a.274.274 0 0 1-.21.173"/></g><g/><g><path fill="#91d2ff" d="M131.9 142.497l16.682 31.954-14.473-2zm16.8 102.6a.28.28 0 0 0 .064-.381l-10.442-15.199-4.168-56.508 33.714 4.664c.164-.002.292-.079.308-.234a.273.273 0 0 0-.23-.313l-18.803-2.774-17.378-33.289c-.053-.121-.234-.154-.319-.14a.27.27 0 0 0-.19.284l2.294 31.168-5.597-.779c-.153.005-.29.084-.309.234a.273.273 0 0 0 .231.313l5.72.79 4.19 56.7a.207.207 0 0 0 .046.133l10.485 15.257c.06.094.166.135.272.116a.284.284 0 0 0 .112-.042z"/></g><g/><g><path fill="#91d2ff" d="M196.466 259.044l-.02.004a.28.28 0 0 1-.306-.246l-5.58-58.07a.286.286 0 0 1 .231-.297l.021-.004a.28.28 0 0 1 .305.245l5.58 58.072a.286.286 0 0 1-.23.296"/></g><g/><g><path fill="#91d2ff" d="M251.397 191.217a.176.176 0 0 1-.076.002.273.273 0 0 1-.195-.112l-48.894-69.53a.27.27 0 0 1 .063-.38.262.262 0 0 1 .383.062l48.718 69.272 17.054-15.993 24.968-23.103c.081-.106.3-.1.385.014a.268.268 0 0 1-.008.388l-24.968 23.102-17.289 16.21a.291.291 0 0 1-.14.068"/></g><g/><g><path fill="#91d2ff" d="M293.65 151.907a.278.278 0 0 1-.322-.21l-9.324-42.137-84.343-49.748c-.123-.082-.175-.247-.088-.376.073-.138.231-.172.375-.099l84.442 49.813a.324.324 0 0 1 .13.178l9.355 42.251a.283.283 0 0 1-.215.326z"/></g><g/><g><path fill="#91d2ff" d="M284.056 109.778a.278.278 0 0 1-.217-.054.263.263 0 0 1-.046-.384l43.001-53.436c.062-.086.156-.114.267-.101l21.147 3.558a.195.195 0 0 1 .094.038l28.141 17.286c.134.08.175.247.088.376-.087.124-.254.17-.377.088l-28.092-17.256-20.934-3.525-42.904 53.31a.27.27 0 0 1-.168.1"/></g><g/><g><path fill="#91d2ff" d="M381.149 134.656a.265.265 0 0 1-.317-.254l-3.823-56.776-92.914 32.153c-.145.036-.3-.035-.346-.173-.058-.142.023-.298.167-.35l93.254-32.267c.084-.015.182-.016.246.033a.302.302 0 0 1 .114.214l3.84 57.13a.265.265 0 0 1-.221.29"/></g><g/><g><path fill="#91d2ff" d="M284.581 108.887a.29.29 0 0 1-.269-.1.285.285 0 0 1 .052-.384l63.63-48.986c.114-.09.282-.072.39.045a.285.285 0 0 1-.052.385l-63.63 48.986a.273.273 0 0 1-.121.054"/></g><g/><g><path fill="#91d2ff" d="M326.726 55.4a1.748 1.748 0 0 0-.03.006.263.263 0 0 1-.286-.255l-3.569-52.625a.265.265 0 0 1 .222-.29l.031-.005c.152-.01.28.103.285.255l3.57 52.625a.265.265 0 0 1-.223.289"/></g><g/><g><path fill="#0090d6" d="M336.305 172.06a2.506 2.506 0 0 1 .914 3.432 2.524 2.524 0 0 1-3.444.912 2.506 2.506 0 0 1-.914-3.432 2.524 2.524 0 0 1 3.444-.912"/></g><g><path fill="#0090d6" d="M154.695 180.97a2.506 2.506 0 0 1 .914 3.432 2.524 2.524 0 0 1-3.444.91 2.506 2.506 0 0 1-.914-3.431 2.525 2.525 0 0 1 3.444-.911"/></g><g><path fill="#0090d6" d="M237.746 418.92a1.372 1.372 0 1 1-.04 2.743 1.372 1.372 0 1 1 .04-2.743"/></g><g><path fill="#0090d6" d="M196.99 462.26a2.529 2.529 0 0 1 2.495 2.561 2.529 2.529 0 0 1-2.57 2.486 2.528 2.528 0 0 1-2.495-2.56 2.528 2.528 0 0 1 2.57-2.487"/></g><g><path fill="#0090d6" d="M134.72 371.16c.517.008.93.432.922.946a.935.935 0 0 1-.949.92.934.934 0 0 1-.923-.947.935.935 0 0 1 .95-.919"/></g><g><path fill="#0090d6" d="M269.88 256.6a.933.933 0 1 1-.027 1.865.935.935 0 0 1-.923-.946.935.935 0 0 1 .95-.919"/></g><g><path fill="#0090d6" d="M266.367 259.11a.714.714 0 0 1-.021 1.426.715.715 0 0 1-.706-.723.715.715 0 0 1 .727-.703"/></g><g><path fill="#0090d6" d="M144.254 266.1a1.814 1.814 0 0 1 1.79 1.837 1.816 1.816 0 0 1-1.844 1.784 1.814 1.814 0 0 1-1.79-1.837c.015-1 .84-1.799 1.844-1.784"/></g><g><path fill="#0090d6" d="M259.067 224.18c.395.006.711.33.705.724a.715.715 0 0 1-.726.702.715.715 0 0 1-.706-.723.715.715 0 0 1 .727-.703"/></g><g><path fill="#0090d6" d="M281.487 202.41a.715.715 0 1 1-.02 1.427.716.716 0 0 1-.707-.724.716.716 0 0 1 .727-.703"/></g><g><path fill="#0090d6" d="M283.147 195.99a.714.714 0 1 1-.02 1.426.716.716 0 0 1-.707-.723.715.715 0 0 1 .727-.703"/></g><g><path fill="#0090d6" d="M259.07 223.96c.517.008.93.432.922.946a.935.935 0 0 1-.949.92.934.934 0 0 1-.923-.947.935.935 0 0 1 .95-.919"/></g><g><path fill="#0090d6" d="M222.676 186.01a.714.714 0 1 1-.02 1.426.714.714 0 1 1 .02-1.426"/></g><g><path fill="#0090d6" d="M219.237 185.5a.714.714 0 1 1-.02 1.426.715.715 0 0 1-.707-.723.715.715 0 0 1 .727-.703"/></g><g><path fill="#0090d6" d="M215.787 184.99a.714.714 0 1 1-.02 1.427.716.716 0 0 1-.707-.724.716.716 0 0 1 .727-.703"/></g><g><path fill="#0090d6" d="M212.347 184.48a.714.714 0 0 1-.021 1.426.715.715 0 0 1-.706-.723.715.715 0 0 1 .727-.703"/></g><g><path fill="#0090d6" d="M276.544 97.45a1.814 1.814 0 0 1 1.79 1.837 1.815 1.815 0 0 1-1.844 1.784 1.815 1.815 0 0 1-1.79-1.837c.015-1 .841-1.799 1.844-1.784"/></g><g><path fill="#0090d6" d="M381.154 142.02a1.814 1.814 0 0 1 1.79 1.837 1.815 1.815 0 0 1-1.844 1.784 1.815 1.815 0 0 1-1.79-1.837c.015-1 .84-1.799 1.844-1.784"/></g><g><path fill="#0090d6" d="M434.015 210.908a3.97 3.97 0 0 1 1.448 5.436 4 4 0 0 1-5.455 1.443 3.97 3.97 0 0 1-1.448-5.436 3.998 3.998 0 0 1 5.455-1.443"/></g><g><path fill="#0090d6" d="M340.343 230.53a1.813 1.813 0 0 1 1.79 1.837c-.015 1-.84 1.798-1.843 1.784a1.814 1.814 0 0 1-1.79-1.837c.015-1 .84-1.799 1.843-1.784"/></g><g><path fill="#0090d6" d="M407.313 324.62a1.814 1.814 0 0 1 1.791 1.837 1.817 1.817 0 0 1-1.844 1.784 1.814 1.814 0 0 1-1.79-1.837c.015-1 .84-1.799 1.843-1.784"/></g><g><path fill="#0090d6" d="M430.358 308.182c.483 2.732-1.348 5.338-4.09 5.82-2.742.482-5.357-1.342-5.84-4.075-.484-2.733 1.347-5.338 4.09-5.82 2.741-.482 5.356 1.343 5.84 4.075"/></g><g><path fill="#0090d6" d="M360.373 289.97a1.813 1.813 0 0 1 1.79 1.837c-.015 1-.84 1.798-1.843 1.784a1.813 1.813 0 0 1-1.79-1.837c.015-1 .84-1.799 1.843-1.784"/></g><g><path fill="#0090d6" d="M355.014 288.12a1.814 1.814 0 0 1 1.79 1.837 1.815 1.815 0 0 1-1.844 1.784 1.814 1.814 0 0 1-1.79-1.837c.015-1 .84-1.799 1.844-1.784"/></g><g><path fill="#0090d6" d="M366.797 292.34a1.098 1.098 0 0 1 1.085 1.113 1.1 1.1 0 0 1-1.117 1.081 1.098 1.098 0 0 1-1.085-1.113 1.1 1.1 0 0 1 1.117-1.08"/></g><g><path fill="#0090d6" d="M313.257 277.23a1.1 1.1 0 0 1 1.085 1.113 1.1 1.1 0 0 1-1.117 1.081 1.098 1.098 0 1 1 .032-2.194"/></g><g><path fill="#0090d6" d="M391.473 201.969c.658 3.717-1.833 7.262-5.563 7.917-3.73.655-7.288-1.827-7.945-5.543-.658-3.718 1.833-7.262 5.563-7.918 3.73-.655 7.288 1.827 7.945 5.544"/></g><g><path fill="#0090d6" d="M301.654 245.69a1.814 1.814 0 0 1 1.79 1.837c-.015 1-.84 1.798-1.844 1.784a1.814 1.814 0 0 1-1.79-1.837c.015-1 .84-1.799 1.844-1.784"/></g><g><path fill="#0090d6" d="M334.337 228.96a1.099 1.099 0 0 1 1.085 1.113 1.1 1.1 0 0 1-1.117 1.081 1.098 1.098 0 1 1 .032-2.194"/></g><g><path fill="#0090d6" d="M368.721 322.196a2.848 2.848 0 0 1 1.038 3.9 2.867 2.867 0 0 1-3.913 1.035 2.847 2.847 0 0 1-1.039-3.9 2.87 2.87 0 0 1 3.914-1.035"/></g><g><path fill="#0090d6" d="M297.494 370.65a1.813 1.813 0 0 1 1.79 1.837c-.015 1-.84 1.798-1.844 1.784a1.814 1.814 0 0 1-1.79-1.837c.016-1 .841-1.799 1.844-1.784"/></g><g><path fill="#0090d6" d="M295.8 364.87c.668.01 1.202.558 1.192 1.225a1.209 1.209 0 0 1-1.228 1.19 1.21 1.21 0 0 1-1.194-1.226 1.21 1.21 0 0 1 1.23-1.189"/></g><g><path fill="#0090d6" d="M291.526 475.39a2.308 2.308 0 0 1 2.278 2.338 2.307 2.307 0 0 1-2.345 2.27 2.307 2.307 0 0 1-2.279-2.337 2.309 2.309 0 0 1 2.346-2.27"/></g><g><path fill="#0090d6" d="M283.247 457.53a3.293 3.293 0 0 1-2.68 3.814 3.302 3.302 0 0 1-3.826-2.67 3.293 3.293 0 0 1 2.679-3.813 3.302 3.302 0 0 1 3.827 2.67"/></g><g><path fill="#0090d6" d="M285.38 451.65c.517.008.93.431.922.946a.935.935 0 0 1-1.872-.027.935.935 0 0 1 .95-.919"/></g><g><path fill="#0090d6" d="M321.535 414.79a1.923 1.923 0 0 1 1.898 1.948 1.924 1.924 0 0 1-1.955 1.892 1.923 1.923 0 0 1-1.898-1.948 1.924 1.924 0 0 1 1.955-1.892"/></g><g><path fill="#0090d6" d="M280.995 435.28a1.923 1.923 0 0 1 1.898 1.948 1.922 1.922 0 0 1-1.955 1.892 1.923 1.923 0 0 1-1.898-1.948 1.925 1.925 0 0 1 1.955-1.892"/></g><g><path fill="#0090d6" d="M306.02 413.49a.933.933 0 1 1-.027 1.865.935.935 0 0 1-.923-.946.935.935 0 0 1 .95-.919"/></g><g><path fill="#0090d6" d="M285.36 410.43c.517.008.93.432.922.946a.935.935 0 0 1-.95.92.933.933 0 1 1 .028-1.866"/></g><g><path fill="#0090d6" d="M295.216 427.49a1.648 1.648 0 0 1 1.627 1.67 1.65 1.65 0 0 1-1.676 1.622 1.65 1.65 0 0 1-1.627-1.67 1.65 1.65 0 0 1 1.676-1.622"/></g><g><path fill="#0090d6" d="M253.176 414.53a1.372 1.372 0 1 1-.04 2.743 1.372 1.372 0 1 1 .04-2.743"/></g><g><path fill="#0090d6" d="M239.65 411.22a.933.933 0 1 1-.027 1.865.935.935 0 0 1-.923-.946.935.935 0 0 1 .95-.919"/></g><g><path fill="#0090d6" d="M258.334 354.69a1.813 1.813 0 0 1 1.79 1.837 1.815 1.815 0 0 1-1.844 1.784 1.815 1.815 0 0 1-1.79-1.837c.016-1 .841-1.799 1.844-1.784"/></g><g><path fill="#0090d6" d="M243.99 372.57c.516.008.93.432.921.946a.934.934 0 0 1-.949.92.933.933 0 1 1 .027-1.866"/></g><g><path fill="#0090d6" d="M270.18 394.16a.934.934 0 1 1-.027 1.865.935.935 0 0 1-.923-.946.935.935 0 0 1 .95-.919"/></g><g><path fill="#0090d6" d="M309.267 408.21a2.308 2.308 0 0 1 2.278 2.338 2.309 2.309 0 0 1-2.346 2.27 2.308 2.308 0 0 1-2.279-2.337 2.31 2.31 0 0 1 2.347-2.27"/></g><g><path fill="#0090d6" d="M435.658 249.802c.483 2.732-1.348 5.338-4.09 5.82-2.742.482-5.356-1.342-5.84-4.075s1.347-5.338 4.089-5.82c2.742-.482 5.358 1.343 5.84 4.075"/></g><g><path fill="#0090d6" d="M313.67 305.096a2.848 2.848 0 0 1 1.04 3.9 2.869 2.869 0 0 1-3.914 1.035 2.847 2.847 0 0 1-1.038-3.9 2.868 2.868 0 0 1 3.913-1.035"/></g><g><path fill="#0090d6" d="M339.01 302.716a2.847 2.847 0 0 1 1.04 3.9 2.868 2.868 0 0 1-3.913 1.035 2.846 2.846 0 0 1-1.04-3.9 2.868 2.868 0 0 1 3.914-1.035"/></g><g><path fill="#0090d6" d="M288.86 253.27a.933.933 0 1 1-.028 1.865.934.934 0 1 1 .027-1.865"/></g><g><path fill="#0090d6" d="M298.01 273.39a.933.933 0 1 1-.028 1.865.934.934 0 1 1 .027-1.865"/></g><g><path fill="#0090d6" d="M302.987 282.38a1.098 1.098 0 1 1-.033 2.194 1.097 1.097 0 1 1 .033-2.194"/></g><g><path fill="#0090d6" d="M286.73 243.996a2.849 2.849 0 0 1 1.04 3.9 2.87 2.87 0 0 1-3.914 1.035 2.848 2.848 0 0 1-1.04-3.9 2.87 2.87 0 0 1 3.915-1.035"/></g><g><path fill="#0090d6" d="M284.8 255.65a.933.933 0 1 1-.027 1.865.935.935 0 0 1-.923-.947.935.935 0 0 1 .95-.918"/></g><g><path fill="#0090d6" d="M284.48 269.64c.517.008.93.431.922.946a.935.935 0 0 1-1.872-.027.935.935 0 0 1 .95-.919"/></g><g><path fill="#0090d6" d="M242.496 376.3a1.373 1.373 0 0 1 1.356 1.392 1.374 1.374 0 0 1-1.396 1.351 1.373 1.373 0 0 1-1.356-1.39 1.374 1.374 0 0 1 1.396-1.353"/></g><g><path fill="#0090d6" d="M215.273 348.33a1.813 1.813 0 0 1 1.79 1.837c-.015 1-.84 1.8-1.843 1.784a1.814 1.814 0 0 1-1.79-1.837c.015-1 .84-1.799 1.843-1.784"/></g><g><path fill="#0090d6" d="M226.65 365.88c.668.01 1.202.558 1.192 1.225a1.21 1.21 0 1 1-2.422-.036c.01-.667.56-1.199 1.23-1.189"/></g><g><path fill="#0090d6" d="M231.284 366.13a1.814 1.814 0 0 1 1.79 1.837c-.015 1-.84 1.8-1.844 1.784a1.814 1.814 0 0 1-1.79-1.837c.015-1 .84-1.799 1.844-1.784"/></g><g><path fill="#0090d6" d="M236.675 380.41a2.188 2.188 0 0 1 2.16 2.216 2.189 2.189 0 0 1-2.224 2.152 2.189 2.189 0 0 1-2.16-2.216 2.19 2.19 0 0 1 2.224-2.152"/></g><g><path fill="#0090d6" d="M183.84 386.21c.668.01 1.202.558 1.192 1.225a1.21 1.21 0 0 1-1.229 1.19 1.208 1.208 0 0 1 .036-2.414"/></g><g><path fill="#0090d6" d="M240.107 403.29a3.293 3.293 0 0 1-2.68 3.814 3.301 3.301 0 0 1-3.826-2.67 3.293 3.293 0 0 1 2.679-3.813 3.302 3.302 0 0 1 3.827 2.67"/></g><g><path fill="#0090d6" d="M122.237 405.62a2.948 2.948 0 0 1 2.91 2.986 2.95 2.95 0 0 1-2.997 2.9 2.948 2.948 0 0 1-2.91-2.986 2.949 2.949 0 0 1 2.997-2.9"/></g><g><path fill="#0090d6" d="M169.064 380.59a2.188 2.188 0 0 1 2.16 2.216A2.19 2.19 0 0 1 169 384.96a2.19 2.19 0 0 1-2.16-2.217 2.188 2.188 0 0 1 2.224-2.152"/></g><g><path fill="#0090d6" d="M183.45 422.21a.933.933 0 1 1-.027 1.865.935.935 0 0 1-.923-.946.934.934 0 0 1 .95-.919"/></g><g><path fill="#0090d6" d="M199.045 363.62a2.187 2.187 0 0 1 2.16 2.216 2.188 2.188 0 0 1-2.224 2.153 2.19 2.19 0 0 1-2.16-2.217 2.19 2.19 0 0 1 2.224-2.152"/></g><g><path fill="#0090d6" d="M193.39 323.53a.933.933 0 1 1-.028 1.865.934.934 0 1 1 .027-1.865"/></g><g><path fill="#0090d6" d="M285.27 324.086a2.847 2.847 0 0 1 1.04 3.9 2.868 2.868 0 0 1-3.914 1.035 2.847 2.847 0 0 1-1.039-3.9 2.868 2.868 0 0 1 3.913-1.035"/></g><g><path fill="#0090d6" d="M254.997 321.28a.714.714 0 1 1-.02 1.426.715.715 0 0 1-.707-.723.715.715 0 0 1 .727-.703"/></g><g><path fill="#0090d6" d="M248.116 320.26a.714.714 0 0 1-.021 1.426.714.714 0 0 1-.705-.723.715.715 0 0 1 .726-.703"/></g><g><path fill="#0090d6" d="M244.666 319.75a.713.713 0 1 1-.02 1.426.715.715 0 0 1-.706-.723.715.715 0 0 1 .726-.703"/></g><g><path fill="#0090d6" d="M218.84 315.44c.668.01 1.202.558 1.192 1.225a1.209 1.209 0 0 1-1.229 1.19 1.209 1.209 0 0 1-1.193-1.226 1.209 1.209 0 0 1 1.23-1.189"/></g><g><path fill="#0090d6" d="M146.515 332.18a2.188 2.188 0 0 1 2.16 2.216 2.188 2.188 0 0 1-2.224 2.153 2.19 2.19 0 0 1-2.16-2.217 2.19 2.19 0 0 1 2.224-2.152"/></g><g><path fill="#0090d6" d="M186.236 314.97a.713.713 0 1 1-.02 1.426.713.713 0 0 1 .021-1.426"/></g><g><path fill="#0090d6" d="M191.844 310.29a2.188 2.188 0 0 1 2.16 2.216 2.19 2.19 0 0 1-2.224 2.153 2.19 2.19 0 0 1-2.16-2.217 2.189 2.189 0 0 1 2.224-2.152"/></g><g><path fill="#0090d6" d="M209.616 298.61a.714.714 0 1 1-.02 1.426.713.713 0 0 1 .021-1.426"/></g><g><path fill="#0090d6" d="M238.49 278.28a.933.933 0 1 1-.028 1.865.934.934 0 0 1-.922-.947.934.934 0 0 1 .95-.918"/></g><g><path fill="#0090d6" d="M243.43 274.62c.517.007.93.431.922.946a.935.935 0 0 1-1.872-.027.934.934 0 0 1 .95-.919"/></g><g><path fill="#0090d6" d="M247.93 271.6a.934.934 0 1 1-.027 1.865.934.934 0 0 1-.923-.946.935.935 0 0 1 .95-.919"/></g><g><path fill="#0090d6" d="M258.897 264.32a.714.714 0 1 1-.02 1.426.715.715 0 0 1-.707-.723.715.715 0 0 1 .727-.703"/></g><g><path fill="#0090d6" d="M269.08 263.646a2.847 2.847 0 0 1 1.04 3.9 2.867 2.867 0 0 1-3.914 1.035 2.847 2.847 0 0 1-1.039-3.9 2.868 2.868 0 0 1 3.913-1.035"/></g><g><path fill="#0090d6" d="M64.904 249.888a4.39 4.39 0 0 1-3.573 5.084 4.403 4.403 0 0 1-5.103-3.56 4.39 4.39 0 0 1 3.573-5.085 4.405 4.405 0 0 1 5.103 3.561"/></g><g><path fill="#0090d6" d="M92.841 261a2.195 2.195 0 0 1 2.167 2.223 2.196 2.196 0 0 1-2.23 2.16 2.194 2.194 0 0 1-2.168-2.224A2.194 2.194 0 0 1 92.841 261"/></g><g><path fill="#0090d6" d="M109.87 249.35c.668.01 1.202.558 1.192 1.225a1.21 1.21 0 0 1-1.229 1.19 1.208 1.208 0 0 1 .036-2.414"/></g><g><path fill="#0090d6" d="M76.927 288.28a2.948 2.948 0 0 1 2.91 2.986 2.949 2.949 0 0 1-2.997 2.9 2.948 2.948 0 0 1-2.91-2.986 2.949 2.949 0 0 1 2.997-2.9"/></g><g><path fill="#0090d6" d="M166.48 224.91c.668.01 1.202.558 1.192 1.225a1.21 1.21 0 1 1-2.422-.036c.01-.667.56-1.199 1.23-1.189"/></g><g><g><path d="M0 327.36h8.81v8.78H0z"/></g><g clip-path="url(#grrpa)"><path fill="#0090d6" d="M8.744 330.988a4.389 4.389 0 0 1-3.572 5.084 4.403 4.403 0 0 1-5.104-3.56 4.392 4.392 0 0 1 3.573-5.085c2.396-.42 4.68 1.174 5.103 3.561"/></g></g><g><path fill="#0090d6" d="M133.344 250.188a4.389 4.389 0 0 1-3.573 5.084 4.403 4.403 0 0 1-5.103-3.56 4.392 4.392 0 0 1 3.573-5.085c2.396-.42 4.68 1.174 5.103 3.561"/></g><g><path fill="#0090d6" d="M144.92 251.246a2.848 2.848 0 0 1 1.04 3.9 2.869 2.869 0 0 1-3.913 1.035 2.846 2.846 0 0 1-1.04-3.9 2.868 2.868 0 0 1 3.914-1.035"/></g><g><path fill="#0090d6" d="M140.043 261.27a1.813 1.813 0 0 1 1.79 1.837c-.015 1-.84 1.798-1.843 1.784a1.813 1.813 0 0 1-1.79-1.837c.015-1 .84-1.799 1.843-1.784"/></g><g><path fill="#0090d6" d="M111.157 335.69a1.79 1.79 0 0 1 1.766 1.812 1.79 1.79 0 0 1-1.818 1.76 1.787 1.787 0 0 1-1.765-1.813 1.788 1.788 0 0 1 1.817-1.759"/></g><g><path fill="#0090d6" d="M104.347 352.83a2.948 2.948 0 0 1 2.91 2.986 2.949 2.949 0 0 1-2.997 2.9 2.948 2.948 0 0 1-2.91-2.986 2.949 2.949 0 0 1 2.997-2.9"/></g><g><path fill="#0090d6" d="M128.15 168.609a3.271 3.271 0 0 1 3.032 3.498 3.277 3.277 0 0 1-3.511 3.02 3.272 3.272 0 0 1-3.032-3.497 3.277 3.277 0 0 1 3.51-3.021"/></g><g><path fill="#0090d6" d="M134.12 171.55a1.208 1.208 0 0 1-.035 2.414 1.21 1.21 0 0 1-1.195-1.225 1.21 1.21 0 0 1 1.23-1.189"/></g><g><path fill="#0090d6" d="M131.711 139.55a2.194 2.194 0 0 1 2.166 2.224 2.195 2.195 0 0 1-2.23 2.158 2.194 2.194 0 0 1-2.167-2.223 2.194 2.194 0 0 1 2.231-2.159"/></g><g><path fill="#0090d6" d="M167.92 176.47a.933.933 0 1 1-.027 1.865.935.935 0 0 1-.923-.946.935.935 0 0 1 .95-.919"/></g><g><path fill="#0090d6" d="M148.977 173.89a.714.714 0 1 1-.02 1.426.715.715 0 0 1-.707-.723.715.715 0 0 1 .727-.703"/></g><g><path fill="#0090d6" d="M138.241 226.98a2.195 2.195 0 0 1 2.166 2.223 2.195 2.195 0 0 1-2.23 2.16 2.194 2.194 0 0 1-2.167-2.224 2.194 2.194 0 0 1 2.231-2.159"/></g><g><path fill="#0090d6" d="M148.56 243.66c.668.01 1.202.558 1.192 1.225a1.21 1.21 0 0 1-1.229 1.19 1.208 1.208 0 0 1 .036-2.414"/></g><g><path fill="#0090d6" d="M191.32 197.059a3.272 3.272 0 0 1 3.032 3.498 3.278 3.278 0 0 1-3.511 3.022 3.273 3.273 0 0 1-3.032-3.5 3.277 3.277 0 0 1 3.51-3.02"/></g><g><path fill="#0090d6" d="M196.66 255.519a3.27 3.27 0 0 1 3.03 3.498 3.275 3.275 0 0 1-3.51 3.02 3.272 3.272 0 0 1-3.031-3.497 3.276 3.276 0 0 1 3.51-3.021"/></g><g><path fill="#0090d6" d="M202.803 119.88a1.813 1.813 0 0 1 1.79 1.837c-.015 1-.84 1.798-1.843 1.784a1.814 1.814 0 0 1-1.79-1.837c.015-1 .84-1.799 1.843-1.784"/></g><g><path fill="#0090d6" d="M251.58 187.689a3.272 3.272 0 0 1 3.032 3.498 3.277 3.277 0 0 1-3.511 3.02 3.272 3.272 0 0 1-3.032-3.497 3.277 3.277 0 0 1 3.51-3.021"/></g><g><path fill="#0090d6" d="M268.65 173.54a1.208 1.208 0 0 1-.035 2.414 1.21 1.21 0 0 1-1.195-1.225 1.21 1.21 0 0 1 1.23-1.189"/></g><g><path fill="#0090d6" d="M271.52 171.08a.933.933 0 1 1-.027 1.865.935.935 0 0 1-.923-.946.935.935 0 0 1 .95-.919"/></g><g><path fill="#0090d6" d="M204.594 58.837a4.392 4.392 0 0 1-3.573 5.085 4.404 4.404 0 0 1-5.103-3.56 4.39 4.39 0 0 1 3.573-5.085 4.404 4.404 0 0 1 5.103 3.56"/></g><g><path fill="#0090d6" d="M293.85 148.379a3.27 3.27 0 0 1 3.03 3.498 3.277 3.277 0 0 1-3.51 3.022 3.273 3.273 0 0 1-3.031-3.5 3.277 3.277 0 0 1 3.51-3.02"/></g><g><path fill="#0090d6" d="M384.014 76.059c.657 3.717-1.833 7.262-5.563 7.917-3.73.656-7.288-1.826-7.946-5.543-.658-3.718 1.833-7.262 5.564-7.918 3.73-.655 7.287 1.827 7.945 5.544"/></g><g><path fill="#0090d6" d="M382.375 132.21a2.506 2.506 0 0 1 .915 3.432 2.524 2.524 0 0 1-3.444.912 2.505 2.505 0 0 1-.914-3.432 2.523 2.523 0 0 1 3.443-.912"/></g><g><path fill="#0090d6" d="M288.343 108.748a4.389 4.389 0 0 1-3.572 5.084c-2.396.421-4.681-1.172-5.103-3.56a4.39 4.39 0 0 1 3.572-5.085c2.397-.42 4.68 1.174 5.103 3.561"/></g><g><path fill="#0090d6" d="M299.154 95.71a1.813 1.813 0 0 1 1.79 1.837c-.015 1-.84 1.798-1.844 1.784a1.814 1.814 0 0 1-1.79-1.837c.016-1 .841-1.799 1.844-1.784"/></g><g><path fill="#0090d6" d="M349.085 57.84a2.506 2.506 0 0 1 .915 3.432 2.524 2.524 0 0 1-3.444.912 2.507 2.507 0 0 1-.915-3.433 2.525 2.525 0 0 1 3.444-.911"/></g><g><g><path d="M320.59 0h5.04v5.023h-5.04z"/></g><g clip-path="url(#grrpb)"><path fill="#0090d6" d="M324.375.34a2.505 2.505 0 0 1 .914 3.432 2.523 2.523 0 0 1-3.443.912 2.507 2.507 0 0 1-.915-3.433 2.525 2.525 0 0 1 3.444-.911"/></g></g><g><path fill="#0090d6" d="M327.249 52.819a3.272 3.272 0 0 1 3.032 3.498 3.276 3.276 0 0 1-3.511 3.02 3.27 3.27 0 0 1-3.031-3.497 3.275 3.275 0 0 1 3.51-3.021"/></g></g></g></g></svg>