<svg width="724" height="972" viewBox="0 0 724 972" fill="none" xmlns="http://www.w3.org/2000/svg">
<g id="particle:hover" opacity="0.5">
<g id="particle:hover_2">
<g id="particle:hover_3">
<path id="amorphic_right--color-el" opacity="0.195917" fill-rule="evenodd" clip-rule="evenodd" d="M1037.58 -1.06351C1026.59 -8.79457 1042.8 -254.844 901.313 -164.996C633.064 5.35138 446.027 -154.246 408.506 -29.4587C391.059 28.5646 469.559 94.8114 437.217 180.238C404.876 265.665 513.547 308.913 539.272 389.936C564.996 470.959 598.477 558.787 701.623 602.952C933.318 702.16 689.554 721.687 779.895 718.042C822.358 716.329 882.182 832.626 882.182 832.626C882.182 832.626 1131.67 523.886 1174.66 442.735C1217.65 361.59 1274.02 326.746 1274.02 326.746L1037.58 -1.06351Z" fill="#99A2BD"/>
<path id="Combined Shape" opacity="0.499" fill-rule="evenodd" clip-rule="evenodd" d="M586 115C586 118.866 582.866 122 578.999 122C575.134 122 572 118.866 572 115C572 111.135 575.134 108 578.999 108C582.866 108 586 111.135 586 115ZM591 174C592.657 174 594 172.657 594 171.001C594 169.344 592.657 168 591 168C589.343 168 588 169.344 588 171.001C588 172.657 589.343 174 591 174ZM562 354.001C562 355.105 561.104 356 560 356C558.896 356 558 355.105 558 354.001C558 352.897 558.896 352 560 352C561.104 352 562 352.897 562 354.001ZM692 376C692 377.105 691.105 378 690 378C688.896 378 688 377.105 688 376C688 374.895 688.896 374 690 374C691.105 374 692 374.895 692 376ZM581 344C582.656 344 584 342.658 584 340.999C584 339.342 582.656 338 581 338C579.344 338 578 339.342 578 340.999C578 342.658 579.344 344 581 344Z" fill="#99A2BD"/>
<g id="particle-tech">
<g id="particle-tech_2">
<path id="triangle-el" fill-rule="evenodd" clip-rule="evenodd" d="M158.459 805.322L154.601 800.616C153.96 800.977 153.445 801.556 153.17 802.311C152.571 803.957 153.381 805.759 154.988 806.344C156.26 806.807 157.638 806.351 158.459 805.322ZM146.864 788.81C146.905 788.699 146.92 788.591 146.948 788.481L143.873 784.671C142.725 784.776 141.664 785.556 141.226 786.758C140.635 788.383 141.411 790.16 142.971 790.727C144.526 791.293 146.273 790.435 146.864 788.81ZM124.913 790.945C125.481 789.385 124.671 787.656 123.113 787.088C121.56 786.523 119.843 787.333 119.275 788.893C118.709 790.448 119.507 792.161 121.061 792.727C122.619 793.294 124.348 792.5 124.913 790.945ZM90.9025 778.941C91.4702 777.381 90.6738 775.657 89.1124 775.088C87.5509 774.52 85.8321 775.329 85.2643 776.889C84.6985 778.444 85.4988 780.158 87.0602 780.726C88.6217 781.295 90.3366 780.496 90.9025 778.941ZM116.91 758.938C117.478 757.378 116.67 755.655 115.11 755.087C113.555 754.522 111.84 755.326 111.272 756.886C110.706 758.441 111.503 760.16 113.058 760.726C114.618 761.293 116.344 760.493 116.91 758.938ZM166.906 836.931C167.474 835.371 166.668 833.655 165.107 833.086C163.546 832.518 161.836 833.319 161.268 834.879C160.7 836.439 161.493 838.156 163.055 838.724C164.616 839.293 166.339 838.491 166.906 836.931ZM96.9054 760.939C97.4727 759.38 96.6758 757.657 95.1144 757.088C93.5529 756.52 91.8345 757.328 91.2673 758.887C90.7039 760.434 91.5008 762.158 93.0622 762.726C94.6237 763.295 96.3421 762.487 96.9054 760.939ZM110.911 776.941C111.478 775.382 110.672 773.655 109.112 773.087C107.557 772.522 105.84 773.33 105.273 774.889C104.707 776.442 105.505 778.16 107.06 778.726C108.62 779.293 110.346 778.494 110.911 776.941ZM182.068 831.734C181.713 833.272 182.542 834.87 184.059 835.422C184.476 835.574 184.901 835.633 185.318 835.612L182.068 831.734ZM118.917 808.935C119.483 807.38 118.671 805.656 117.113 805.088C115.56 804.523 113.845 805.328 113.279 806.883C112.711 808.443 113.507 810.161 115.061 810.727C116.619 811.294 118.35 810.495 118.917 808.935ZM84.9063 796.931C85.4722 795.376 84.6738 793.657 83.1124 793.088C81.5509 792.52 79.834 793.324 79.2682 794.879C78.7004 796.439 79.4988 798.158 81.0602 798.726C82.6217 799.295 84.3386 798.491 84.9063 796.931ZM82.9099 746.938C83.4777 745.378 82.6858 743.661 81.1258 743.093C79.5659 742.525 77.8395 743.326 77.2717 744.886C76.7059 746.441 77.5138 748.164 79.0737 748.731C80.6337 749.299 82.3441 748.493 82.9099 746.938ZM104.909 794.935C105.477 793.374 104.668 791.655 103.108 791.087C101.553 790.522 99.839 791.322 99.2707 792.883C98.7024 794.445 99.5011 796.16 101.056 796.726C102.616 797.293 104.341 796.497 104.909 794.935ZM70.9089 780.935C71.4772 779.374 70.6838 777.661 69.1238 777.093C67.5639 776.525 65.839 777.322 65.2707 778.883C64.7024 780.445 65.5118 782.164 67.0717 782.731C68.6317 783.299 70.3406 782.497 70.9089 780.935ZM152.912 820.933C153.478 819.378 152.67 817.655 151.115 817.089C149.555 816.522 147.84 817.326 147.274 818.881C146.706 820.441 147.503 822.16 149.063 822.727C150.618 823.293 152.344 822.493 152.912 820.933ZM167.919 816.949C167.722 817.21 167.552 817.486 167.431 817.819C166.829 819.47 167.67 821.283 169.322 821.885C170.202 822.205 171.132 822.103 171.895 821.691L167.919 816.949ZM138.909 806.935C139.477 805.374 138.668 803.655 137.113 803.089C135.553 802.522 133.839 803.322 133.271 804.883C132.702 806.445 133.501 808.16 135.061 808.727C136.616 809.293 138.341 808.497 138.909 806.935ZM76.9109 764.941C77.4782 763.382 76.6878 761.661 75.1278 761.093C73.5679 760.525 71.84 761.33 71.2728 762.889C70.7075 764.442 71.5158 766.164 73.0757 766.731C74.6357 767.299 76.3456 766.494 76.9109 764.941ZM32.9118 884.933C33.4777 883.378 32.6858 881.661 31.1258 881.093C29.5659 880.525 27.8395 881.326 27.2737 882.881C26.7059 884.441 27.5138 886.164 29.0737 886.731C30.6337 887.299 32.3441 886.493 32.9118 884.933ZM88.9173 894.935C89.4832 893.38 88.6712 891.656 87.1127 891.088C85.5595 890.523 83.845 891.328 83.2792 892.883C82.7133 894.437 83.5074 896.161 85.0606 896.727C86.6191 897.294 88.3515 896.489 88.9173 894.935ZM52.9063 882.931C53.4722 881.376 52.6738 879.657 51.1124 879.088C49.5509 878.52 47.834 879.324 47.2682 880.879C46.7023 882.433 47.4988 884.158 49.0602 884.726C50.6217 885.295 52.3405 884.485 52.9063 882.931ZM103.208 890.94C102.727 892.262 103.2 893.678 104.258 894.45L108.49 893.657C108.629 893.455 108.757 893.237 108.846 892.992C109.424 891.405 108.626 889.655 107.071 889.089C105.511 888.522 103.786 889.353 103.208 890.94ZM18.6593 870.841C19.2251 869.286 18.3653 867.544 16.7345 866.951C15.5323 866.513 14.2676 866.819 13.4436 867.628L12.6006 869.944C12.7116 871.094 13.4802 872.151 14.6824 872.589C16.3132 873.182 18.0934 872.395 18.6593 870.841ZM102.904 744.936C103.47 743.381 102.674 741.657 101.112 741.088C99.5509 740.52 97.8321 741.329 97.2663 742.884C96.7004 744.439 97.4988 746.158 99.0602 746.726C100.622 747.295 102.339 746.491 102.904 744.936ZM46.9063 898.931C47.4722 897.376 46.6738 895.657 45.1124 895.088C43.5509 894.52 41.834 895.324 41.2682 896.879C40.7004 898.439 41.4988 900.158 43.0602 900.726C44.6217 901.295 46.3386 900.491 46.9063 898.931ZM66.9118 896.933C67.4777 895.378 66.6698 893.655 65.1099 893.087C63.5552 892.522 61.8395 893.326 61.2737 894.881C60.7059 896.441 61.5031 898.16 63.0577 898.726C64.6177 899.293 66.3441 898.493 66.9118 896.933ZM26.9118 902.933C27.4777 901.378 26.6858 899.661 25.1258 899.093C23.5659 898.525 21.8395 899.326 21.2737 900.881C20.7059 902.441 21.5138 904.164 23.0737 904.731C24.6337 905.299 26.3441 904.493 26.9118 902.933ZM24.6593 852.841C25.227 851.281 24.3653 849.544 22.7345 848.951C21.5323 848.513 20.2676 848.819 19.4416 849.633L18.5987 851.949C18.7116 853.094 19.4802 854.151 20.6824 854.589C22.3132 855.182 24.0934 854.395 24.6593 852.841ZM88.9099 728.938C89.4777 727.378 88.6858 725.661 87.1258 725.093C85.5659 724.525 83.8395 725.326 83.2717 726.886C82.7059 728.441 83.5138 730.164 85.0737 730.731C86.6337 731.299 88.3441 730.493 88.9099 728.938ZM68.6573 732.846C69.2232 731.292 68.3653 729.544 66.7345 728.951C65.5323 728.513 64.2638 728.829 63.4397 729.639L62.5967 731.955C62.7097 733.099 63.4802 734.151 64.6824 734.589C66.3132 735.182 68.0915 734.401 68.6573 732.846ZM56.6554 766.851C57.2232 765.292 56.3653 763.544 54.7345 762.951C53.5323 762.513 52.2638 762.829 51.4397 763.639L50.5987 765.949C50.7077 767.104 51.4802 768.151 52.6824 768.589C54.3132 769.182 56.0896 768.406 56.6554 766.851ZM62.6584 748.849C63.2256 747.29 62.3673 745.544 60.7365 744.951C59.5343 744.513 58.266 744.829 57.4423 745.637L56.6001 747.951C56.7114 749.1 57.4822 750.151 58.6844 750.589C60.3152 751.182 62.095 750.397 62.6584 748.849ZM32.6573 834.846C33.2251 833.286 32.3653 831.544 30.7345 830.951C29.5323 830.513 28.2657 830.824 27.4397 831.639L26.5987 833.949C26.7097 835.099 27.4802 836.151 28.6824 836.589C30.3132 837.182 32.0915 836.401 32.6573 834.846ZM38.6573 818.846C39.2251 817.286 38.3653 815.544 36.7345 814.951C35.5323 814.513 34.2657 814.824 33.4416 815.633L32.6006 817.944C32.7097 819.099 33.4802 820.151 34.6824 820.589C36.3132 821.182 38.0915 820.401 38.6573 818.846ZM50.6593 782.841C51.2251 781.286 50.3653 779.544 48.7345 778.951C47.5323 778.513 46.2638 778.829 45.4416 779.633L44.5987 781.949C44.7097 783.099 45.4802 784.151 46.6824 784.589C48.3132 785.182 50.0915 784.401 50.6593 782.841ZM44.6593 800.841C45.2251 799.286 44.3653 797.544 42.7345 796.951C41.5323 796.513 40.2657 796.824 39.4397 797.639L38.5987 799.949C38.7097 801.099 39.4802 802.151 40.6824 802.589C42.3132 803.182 44.0915 802.401 44.6593 800.841ZM12.6593 886.841C13.2251 885.286 12.3653 883.544 10.7345 882.951C9.53229 882.513 8.26571 882.824 7.44356 883.628L6.60061 885.944C6.7116 887.094 7.48017 888.151 8.68237 888.589C10.3132 889.182 12.0915 888.401 12.6593 886.841ZM142.627 885.684C142.465 886.13 142.407 886.568 142.445 887.01L148.666 885.916C148.392 884.967 147.693 884.15 146.69 883.785C145.038 883.184 143.228 884.032 142.627 885.684ZM100.915 860.94C101.483 859.38 100.671 857.656 99.1127 857.088C97.5596 856.523 95.845 857.328 95.2772 858.888C94.7114 860.443 95.5074 862.161 97.0606 862.727C98.6191 863.294 100.35 862.495 100.915 860.94ZM114.912 874.933C115.48 873.373 114.67 871.655 113.115 871.089C111.555 870.522 109.841 871.321 109.274 872.881C108.706 874.441 109.503 876.16 111.063 876.727C112.618 877.293 114.344 876.493 114.912 874.933ZM162.868 884.461L162.862 884.478L168.286 883.522C167.933 883.106 167.49 882.76 166.938 882.559C165.297 881.962 163.469 882.809 162.868 884.461ZM86.9099 844.938C87.4777 843.378 86.6698 841.655 85.1099 841.087C83.5552 840.522 81.8395 841.326 81.2717 842.886C80.704 844.446 81.5031 846.16 83.0577 846.726C84.6177 847.293 86.3421 846.498 86.9099 844.938ZM44.9118 850.933C45.4796 849.373 44.6858 847.661 43.1258 847.093C41.5659 846.525 39.8414 847.321 39.2737 848.881C38.7059 850.441 39.5138 852.164 41.0737 852.731C42.6337 853.299 44.3441 852.493 44.9118 850.933ZM132.912 822.933C133.48 821.373 132.67 819.655 131.115 819.089C129.555 818.522 127.841 819.321 127.274 820.881C126.706 822.441 127.503 824.16 129.063 824.727C130.618 825.293 132.344 824.493 132.912 822.933ZM66.9044 848.936C67.4722 847.376 66.6738 845.657 65.1124 845.088C63.551 844.52 61.834 845.324 61.2663 846.884C60.7004 848.439 61.4988 850.158 63.0602 850.726C64.6217 851.295 66.3386 850.491 66.9044 848.936ZM58.9063 864.931C59.4741 863.371 58.6738 861.657 57.1124 861.088C55.5509 860.52 53.836 861.319 53.2682 862.879C52.7024 864.433 53.4988 866.158 55.0602 866.726C56.6217 867.295 58.3405 866.485 58.9063 864.931ZM74.9148 880.93C75.4801 879.377 74.6718 877.655 73.1119 877.087C71.5573 876.522 69.842 877.325 69.2767 878.878C68.7094 880.436 69.5051 882.16 71.0597 882.726C72.6197 883.293 74.3476 882.489 74.9148 880.93ZM130.916 774.943C131.24 774.054 131.099 773.118 130.641 772.373L130.04 771.642C129.768 771.411 129.466 771.216 129.115 771.088C127.562 770.523 125.846 771.332 125.278 772.891C124.715 774.438 125.509 776.161 127.063 776.727C128.621 777.294 130.353 776.491 130.916 774.943ZM76.6554 714.851C77.2232 713.292 76.3653 711.544 74.7345 710.951C73.5323 710.513 72.2638 710.829 71.4397 711.639L70.5987 713.949C70.7097 715.099 71.4802 716.151 72.6824 716.589C74.3132 717.182 76.0896 716.406 76.6554 714.851ZM80.9118 862.933C81.4796 861.373 80.6698 859.655 79.1099 859.087C77.5552 858.522 75.8415 859.321 75.2737 860.881C74.7059 862.441 75.5031 864.16 77.0577 864.726C78.6177 865.293 80.3441 864.493 80.9118 862.933ZM6.66121 904.835C7.22705 903.281 6.36527 901.544 4.73449 900.951C3.53229 900.513 2.26571 900.824 1.44161 901.633L0.600613 903.944C0.711602 905.094 1.48017 906.151 2.68237 906.589C4.31315 907.182 6.09344 906.395 6.66121 904.835ZM122.939 889.252C122.623 890.12 122.703 891.024 123.074 891.785L128.816 890.65C129.011 889.208 128.24 887.804 126.876 887.307C125.297 886.732 123.541 887.6 122.939 889.252ZM94.9173 876.935C95.4851 875.375 94.6712 873.656 93.1127 873.088C91.5596 872.523 89.8469 873.323 89.2792 874.883C88.7133 876.437 89.5074 878.161 91.0606 878.727C92.6191 879.294 94.3515 878.489 94.9173 876.935ZM38.9148 866.93C39.4801 865.377 38.6878 863.661 37.1278 863.093C35.5679 862.525 33.842 863.325 33.2767 864.878C32.7094 866.436 33.5158 868.164 35.0757 868.731C36.6357 869.299 38.3476 868.489 38.9148 866.93ZM52.9099 832.938C53.4777 831.378 52.6858 829.661 51.1258 829.093C49.5659 828.525 47.8395 829.326 47.2717 830.886C46.704 832.446 47.5138 834.164 49.0737 834.731C50.6337 835.299 52.3421 834.498 52.9099 832.938ZM134.91 872.938C135.478 871.378 134.67 869.655 133.115 869.089C131.555 868.522 129.84 869.326 129.272 870.886C128.706 872.441 129.503 874.16 131.063 874.727C132.618 875.293 134.344 874.493 134.91 872.938ZM78.9063 812.931C79.4722 811.376 78.6738 809.657 77.1124 809.088C75.5509 808.52 73.834 809.324 73.2682 810.879C72.7004 812.439 73.4988 814.158 75.0602 814.726C76.6217 815.295 78.3386 814.491 78.9063 812.931ZM112.917 826.935C113.483 825.38 112.671 823.656 111.113 823.088C109.56 822.523 107.845 823.328 107.279 824.883C106.711 826.443 107.507 828.161 109.061 828.727C110.619 829.294 112.35 828.495 112.917 826.935ZM214.91 872.938C215.478 871.378 214.675 869.657 213.115 869.089C211.561 868.523 209.84 869.326 209.272 870.886C208.706 872.441 209.508 874.162 211.063 874.727C212.623 875.295 214.344 874.493 214.91 872.938ZM194.913 866.935C195.48 865.377 194.677 863.657 193.117 863.089C191.568 862.525 189.842 863.325 189.275 864.883C188.707 866.442 189.516 868.164 191.065 868.727C192.625 869.295 194.346 868.494 194.913 866.935ZM146.912 838.933C147.478 837.378 146.67 835.655 145.115 835.089C143.555 834.522 141.84 835.326 141.274 836.881C140.706 838.441 141.503 840.16 143.063 840.727C144.618 841.293 146.344 840.493 146.912 838.933ZM64.9118 798.933C65.4796 797.373 64.6858 795.661 63.1258 795.093C61.5659 794.525 59.8414 795.321 59.2737 796.881C58.7059 798.441 59.5138 800.164 61.0737 800.731C62.6337 801.299 64.3441 800.493 64.9118 798.933ZM98.9118 810.933C99.4796 809.373 98.6698 807.655 97.1099 807.087C95.5552 806.522 93.8415 807.321 93.2737 808.881C92.7059 810.441 93.5031 812.16 95.0577 812.726C96.6177 813.293 98.3441 812.493 98.9118 810.933ZM180.957 853.878C181.712 851.802 181.064 849.657 179.504 849.089C177.955 848.525 176.074 849.75 175.318 851.826C174.563 853.902 175.218 856.043 176.768 856.607C178.328 857.175 180.201 855.954 180.957 853.878ZM160.907 852.933C161.475 851.375 160.67 849.655 159.109 849.086C157.548 848.518 155.836 849.323 155.269 850.881C154.702 852.44 155.495 854.156 157.057 854.724C158.618 855.293 160.34 854.492 160.907 852.933ZM154.904 870.936C155.472 869.376 154.668 867.655 153.107 867.086C151.546 866.518 149.834 867.324 149.266 868.884C148.698 870.444 149.493 872.156 151.055 872.724C152.616 873.293 154.337 872.496 154.904 870.936ZM126.913 840.935C127.48 839.377 126.672 837.655 125.117 837.089C123.557 836.522 121.842 837.325 121.275 838.883C120.707 840.442 121.505 842.16 123.065 842.727C124.62 843.293 126.346 842.494 126.913 840.935ZM106.915 842.94C107.483 841.38 106.671 839.656 105.113 839.088C103.56 838.523 101.845 839.328 101.277 840.888C100.711 842.443 101.507 844.161 103.061 844.727C104.619 845.294 106.35 844.495 106.915 842.94ZM184.248 880.038L187.051 879.545C186.061 879.248 185.034 879.456 184.248 880.038ZM120.91 858.938C121.478 857.378 120.67 855.655 119.115 855.089C117.555 854.522 115.84 855.326 115.272 856.886C114.704 858.446 115.503 860.16 117.063 860.727C118.618 861.293 120.342 860.498 120.91 858.938ZM140.91 854.938C141.478 853.378 140.67 851.655 139.115 851.089C137.555 850.522 135.84 851.326 135.272 852.886C134.706 854.441 135.503 856.16 137.063 856.727C138.618 857.293 140.344 856.493 140.91 854.938ZM58.9129 814.935C59.4801 813.377 58.6878 811.661 57.1278 811.093C55.5679 810.525 53.842 811.325 53.2747 812.883C52.7075 814.442 53.5158 816.164 55.0757 816.731C56.6357 817.299 58.3456 816.494 58.9129 814.935ZM92.9129 828.935C93.4801 827.377 92.6718 825.655 91.1119 825.087C89.5572 824.522 87.8419 825.325 87.2747 826.883C86.7075 828.442 87.5051 830.16 89.0597 830.726C90.6197 831.293 92.3456 830.494 92.9129 828.935ZM72.9044 830.936C73.4722 829.376 72.6738 827.657 71.1123 827.088C69.5509 826.52 67.834 827.324 67.2662 828.884C66.7004 830.439 67.4988 832.158 69.0602 832.726C70.6217 833.295 72.3386 832.491 72.9044 830.936ZM174.91 868.938C175.478 867.378 174.675 865.657 173.115 865.089C171.566 864.525 169.84 865.326 169.272 866.886C168.706 868.441 169.514 870.164 171.063 870.727C172.623 871.295 174.344 870.493 174.91 868.938Z" fill="#99A2BD"/>
<path id="light--dots-el" opacity="0.498675" fill-rule="evenodd" clip-rule="evenodd" d="M554 -539C554 -526.297 543.702 -516 530.998 -516C518.298 -516 508 -526.297 508 -539C508 -551.698 518.298 -562 530.998 -562C543.702 -562 554 -551.698 554 -539ZM574 -332C579.523 -332 584 -336.476 584 -341.998C584 -347.519 579.523 -352 574 -352C568.477 -352 564 -347.519 564 -341.998C564 -336.476 568.477 -332 574 -332ZM725.997 64C737.046 64 746 55.0424 746 44C746 32.9525 737.046 24 725.997 24C714.954 24 706 32.9525 706 44C706 55.0424 714.954 64 725.997 64ZM861 118C865.969 118 870 113.974 870 109C870 104.026 865.969 100 861 100C856.026 100 852 104.026 852 109C852 113.974 856.026 118 861 118ZM902 205.003C902 207.761 899.761 210 897.003 210C894.239 210 892 207.761 892 205.003C892 202.239 894.239 200 897.003 200C899.761 200 902 202.239 902 205.003ZM940.003 136C944.418 136 948 132.418 948 127.997C948 123.582 944.418 120 940.003 120C935.582 120 932 123.582 932 127.997C932 132.418 935.582 136 940.003 136ZM884 82C884 86.413 880.417 90 876.003 90C871.583 90 868 86.413 868 82C868 77.587 871.583 74 876.003 74C880.417 74 884 77.587 884 82ZM797.002 268C801.973 268 806 263.973 806 258.998C806 254.027 801.973 250 797.002 250C792.032 250 788 254.027 788 258.998C788 263.973 792.032 268 797.002 268ZM476 286.003C476 290.419 472.418 294 468 294C463.582 294 460 290.419 460 286.003C460 281.587 463.582 278 468 278C472.418 278 476 281.587 476 286.003ZM667 346C675.283 346 682 339.279 682 330.997C682 322.716 675.283 316 667 316C658.717 316 652 322.716 652 330.997C652 339.279 658.717 346 667 346ZM924 365C924 368.868 920.868 372 917 372C913.137 372 910 368.868 910 365C910 361.132 913.137 358 917 358C920.868 358 924 361.132 924 365ZM540 252C545.521 252 550 247.525 550 241.998C550 236.475 545.521 232 540 232C534.479 232 530 236.475 530 241.998C530 247.525 534.479 252 540 252Z" fill="#99A2BD"/>
<path id="violet--dots-el" opacity="0.499721" d="M418 502.998C418 499.134 421.134 496 425 496V492C418.925 492 414 496.924 414 502.998H418ZM425 510C421.135 510 418 506.863 418 502.998H414C414 509.071 418.924 514 425 514V510ZM432 502.998C432 506.863 428.865 510 425 510V514C431.076 514 436 509.071 436 502.998H432ZM425 496C428.866 496 432 499.134 432 502.998H436C436 496.924 431.075 492 425 492V496ZM164 160C164 156.684 166.687 154 170 154V150C164.479 150 160 154.474 160 160H164ZM170 166C166.687 166 164 163.316 164 160H160C160 165.526 164.479 170 170 170V166ZM176 160C176 163.316 173.316 166 170 166V170C175.526 170 180 165.526 180 160H176ZM170 154C173.316 154 176 156.684 176 160H180C180 154.474 175.526 150 170 150V154ZM364 149C364 140.718 370.715 134 379.002 134V130C368.506 130 360 138.509 360 149H364ZM379.002 164C370.715 164 364 157.286 364 149H360C360 159.495 368.506 168 379.002 168V164ZM394 149C394 157.286 387.285 164 379.002 164V168C389.494 168 398 159.495 398 149H394ZM379.002 134C387.284 134 394 140.718 394 149H398C398 138.51 389.494 130 379.002 130V134ZM172.997 18C169.135 18 166 21.1347 166 24.9973H170C170 23.3439 171.344 22 172.997 22V18ZM180 24.9973C180 21.1333 176.864 18 172.997 18V22C174.658 22 176 23.3452 176 24.9973H180ZM172.997 32C176.865 32 180 28.8653 180 24.9973H176C176 26.6561 174.656 28 172.997 28V32ZM166 24.9973C166 28.8639 169.133 32 172.997 32V28C171.345 28 170 26.6575 170 24.9973H166ZM132 93.0022C132 90.2377 134.239 88 136.998 88V84C132.029 84 128 88.0303 128 93.0022H132ZM136.998 98C134.239 98 132 95.7614 132 93.0022H128C128 97.9706 132.029 102 136.998 102V98ZM142 93.0022C142 95.7606 139.762 98 136.998 98V102C141.97 102 146 97.9714 146 93.0022H142ZM136.998 88C139.761 88 142 90.2386 142 93.0022H146C146 88.0294 141.971 84 136.998 84V88ZM194.998 124C190.029 124 186 128.035 186 133H190C190 130.242 192.241 128 194.998 128V124ZM204 133C204 128.034 199.97 124 194.998 124V128C197.76 128 200 130.243 200 133H204ZM194.998 142C199.97 142 204 137.966 204 133H200C200 135.757 197.76 138 194.998 138V142ZM186 133C186 137.965 190.029 142 194.998 142V138C192.241 138 190 135.758 190 133H186ZM226 -19.9978C226 -23.3168 228.685 -26 231.998 -26V-30C226.474 -30 222 -25.5245 222 -19.9978H226ZM231.998 -14C228.684 -14 226 -16.6839 226 -19.9978H222C222 -14.4748 226.475 -10 231.998 -10V-14ZM238 -19.9978C238 -16.6854 235.313 -14 231.998 -14V-10C237.519 -10 242 -14.4733 242 -19.9978H238ZM231.998 -26C235.312 -26 238 -23.3154 238 -19.9978H242C242 -25.5259 237.52 -30 231.998 -30V-26ZM295 -54C290.031 -54 286 -49.9718 286 -45.0024H290C290 -47.7614 292.238 -50 295 -50V-54ZM304 -45.0024C304 -49.9718 299.969 -54 295 -54V-50C297.762 -50 300 -47.7614 300 -45.0024H304ZM295 -36C299.971 -36 304 -40.035 304 -45.0024H300C300 -42.2418 297.76 -40 295 -40V-36ZM286 -45.0024C286 -40.035 290.029 -36 295 -36V-40C292.24 -40 290 -42.2418 290 -45.0024H286ZM334 -82.9977C334 -89.0708 338.927 -94 345 -94V-98C336.716 -98 330 -91.2787 330 -82.9977H334ZM345 -72C338.926 -72 334 -76.9255 334 -82.9977H330C330 -74.7156 336.717 -68 345 -68V-72ZM356 -82.9977C356 -76.9255 351.074 -72 345 -72V-68C353.283 -68 360 -74.7156 360 -82.9977H356ZM345 -94C351.073 -94 356 -89.0708 356 -82.9977H360C360 -91.2787 353.284 -98 345 -98V-94ZM168 -76C163.58 -76 160 -72.42 160 -68H164C164 -70.2109 165.789 -72 168 -72V-76ZM176 -68C176 -72.421 172.414 -76 168 -76V-72C170.207 -72 172 -70.2098 172 -68H176ZM168 -60C172.414 -60 176 -63.579 176 -68H172C172 -65.7902 170.207 -64 168 -64V-60ZM160 -68C160 -63.58 163.58 -60 168 -60V-64C165.789 -64 164 -65.7891 164 -68H160ZM464.002 362C451.85 362 442 371.849 442 384H446C446 374.059 454.059 366 464.002 366V362ZM486 384C486 371.849 476.15 362 464.002 362V366C473.941 366 482 374.058 482 384H486ZM464.002 406C476.15 406 486 396.146 486 384H482C482 393.938 473.94 402 464.002 402V406ZM442 384C442 396.146 451.85 406 464.002 406V402C454.059 402 446 393.937 446 384H442ZM448 -4.99792C448 -8.8678 451.135 -12 455 -12V-16C448.926 -16 444 -11.0773 444 -4.99792H448ZM455 2C451.135 2 448 -1.13281 448 -4.99792H444C444 1.07788 448.927 6 455 6V2ZM462 -4.99792C462 -1.13281 458.865 2 455 2V6C461.073 6 466 1.07788 466 -4.99792H462ZM455 -12C458.865 -12 462 -8.8678 462 -4.99792H466C466 -11.0773 461.074 -16 455 -16V-12Z" fill="#99A2BD"/>
</g>
</g>
</g>
</g>
</g>
</svg>
