<?xml version="1.0" encoding="UTF-8"?>
<svg width="65px" height="64px" viewBox="0 0 65 64" version="1.1" xmlns="http://www.w3.org/2000/svg" xmlns:xlink="http://www.w3.org/1999/xlink">
    <!-- Generator: sketchtool 63 (101010) - https://sketch.com -->
    <title>2A1CC016-DE74-461D-84C6-737019386115</title>
    <desc>Created with sketchtool.</desc>
    <defs>
        <linearGradient x1="16.7396426%" y1="85.0251651%" x2="103.595814%" y2="22.1598972%" id="linearGradient-1">
            <stop stop-color="#FB2059" offset="0%"></stop>
            <stop stop-color="#8138E9" offset="60.2402114%"></stop>
            <stop stop-color="#12CAF9" offset="100%"></stop>
        </linearGradient>
    </defs>
    <g id="DESKTOP" stroke="none" stroke-width="1" fill="none" fill-rule="evenodd">
        <g id="job_page" transform="translate(-868.000000, -4168.000000)" fill="url(#linearGradient-1)">
            <g id="main" transform="translate(0.000000, 121.000000)">
                <g id="section--working" transform="translate(370.000000, 3848.000000)">
                    <g id="item2" transform="translate(380.000000, 190.000000)">
                        <path d="M163.109052,37.9032 L164.163948,42.0325333 L172.82926,42.0325333 C173.991135,42.0325333 174.939052,42.9578667 174.939052,44.0965333 L174.939052,44.0965333 L174.939052,64.7418667 C174.939052,65.8805333 173.991135,66.8058667 172.82926,66.8058667 L172.82926,66.8058667 L170.719469,66.8058667 C170.719469,67.9445333 169.77426,68.8712 168.612385,68.8712 L168.612385,68.8712 L168.378115,68.8712 L167.325927,72.9992 L134.045927,72.9992 L132.99374,68.8712 L132.762177,68.8712 C131.598948,68.8712 130.652385,67.9445333 130.652385,66.8058667 L130.652385,66.8058667 L128.543948,66.8058667 C127.380719,66.8058667 126.43551,65.8805333 126.43551,64.7418667 L126.43551,64.7418667 L126.43551,44.0965333 C126.43551,42.9578667 127.380719,42.0325333 128.543948,42.0325333 L128.543948,42.0325333 L137.211969,42.0325333 L138.26551,37.9032 L163.109052,37.9032 Z M168.612385,48.2245333 L132.762177,48.2245333 L132.762177,66.8058667 L149.632385,66.8058667 L149.632385,68.8712 L135.165823,68.8712 L135.693948,70.9352 L165.677906,70.9352 L166.206031,68.8712 L151.740823,68.8712 L151.740823,66.8058667 L168.612385,66.8058667 L168.612385,48.2245333 Z M172.82926,44.0965333 L128.543948,44.0965333 L128.543948,64.7418667 L130.652385,64.7418667 L130.652385,48.2245333 C130.652385,47.0872 131.598948,46.1605333 132.762177,46.1605333 L132.762177,46.1605333 L168.612385,46.1605333 C169.77426,46.1605333 170.719469,47.0872 170.719469,48.2245333 L170.719469,48.2245333 L170.719469,64.7418667 L172.82926,64.7418667 L172.82926,44.0965333 Z M145.414562,52.3557333 L145.414562,58.5477333 L141.196333,58.5477333 L141.196333,60.6130667 L145.414562,60.6130667 L145.414562,62.6770667 L139.087896,62.6770667 L139.087896,56.4837333 L143.306125,56.4837333 L143.306125,54.4184 L139.087896,54.4184 L139.087896,52.3557333 L145.414562,52.3557333 Z M136.98,52.3557333 L136.98,62.6770667 L134.870208,62.6770667 L134.870208,52.3557333 L136.98,52.3557333 Z M149.631979,60.6130667 L149.631979,62.6770667 L147.522188,62.6770667 L147.522188,60.6130667 L149.631979,60.6130667 Z M158.067083,52.3557333 L158.067083,62.6770667 L151.740417,62.6770667 L151.740417,52.3557333 L158.067083,52.3557333 Z M166.502188,52.3557333 L166.502188,62.6770667 L160.175521,62.6770667 L160.175521,52.3557333 L166.502188,52.3557333 Z M155.958646,54.4184 L153.848854,54.4184 L153.848854,60.6130667 L155.958646,60.6130667 L155.958646,54.4184 Z M164.39375,54.4184 L162.285313,54.4184 L162.285313,60.6130667 L164.39375,60.6130667 L164.39375,54.4184 Z M161.461031,39.9672 L139.910823,39.9672 L139.384052,42.0325333 L161.99051,42.0325333 L161.461031,39.9672 Z M134.87075,9 L134.87075,14.3733333 C134.87075,15.8453333 133.822625,17.1146667 132.377729,17.3933333 C128.934083,18.06 126.435646,21.0413333 126.435646,24.484 C126.435646,27.9266667 128.934083,30.9066667 132.377729,31.572 C133.822625,31.8506667 134.87075,33.1213333 134.87075,34.5933333 L134.87075,34.5933333 L134.87075,39.9666667 L132.760958,39.9666667 L132.760958,34.5933333 C132.760958,34.1053333 132.429188,33.6866667 131.970125,33.5986667 C127.540646,32.7426667 124.325854,28.9093333 124.325854,24.484 C124.325854,20.0573333 127.540646,16.224 131.970125,15.3693333 C132.429188,15.2813333 132.760958,14.8626667 132.760958,14.3733333 L132.760958,14.3733333 L132.760958,9 L134.87075,9 Z M142.763781,31.7832 L145.745656,34.7032 L144.254719,36.1632 L141.27149,33.2432 L142.763781,31.7832 Z M124.869823,31.7829333 L126.36076,33.2416 L123.377531,36.1616 L121.886594,34.7016 L124.869823,31.7829333 Z M137.375281,15.8688 C140.977365,17.2968 143.306531,20.6781333 143.306531,24.4834667 C143.306531,28.2888 140.977365,31.6701333 137.375281,33.0994667 L137.375281,33.0994667 L136.584448,31.1848 C139.386219,30.0741333 141.19674,27.4434667 141.19674,24.4834667 C141.19674,21.5234667 139.386219,18.8928 136.584448,17.7834667 L136.584448,17.7834667 Z M170.277604,9.36413333 L168.91125,11.5934667 C168.105521,12.9094667 167.681667,14.4041333 167.681667,15.9228 C167.681667,20.5761333 171.547813,24.3614667 176.302292,24.3614667 C177.84875,24.3614667 179.378958,23.9454667 180.720938,23.1574667 L180.720938,23.1574667 L183,21.8214667 L182.279583,24.3228 C180.852292,29.2801333 176.183125,32.7414667 170.92625,32.7414667 C164.416771,32.7414667 159.121979,27.5574667 159.121979,21.1854667 C159.121979,16.0388 162.659063,11.4681333 167.720937,10.0694667 L167.720937,10.0694667 L170.277604,9.36413333 Z M165.993021,13.0241333 C163.103229,14.7041333 161.230417,17.7908 161.230417,21.1854667 C161.230417,26.4188 165.58,30.6774667 170.92625,30.6774667 C174.392917,30.6774667 177.549479,28.8441333 179.265208,26.0148 C178.30375,26.2881333 177.307083,26.4281333 176.302292,26.4281333 C170.385938,26.4281333 165.573229,21.7161333 165.573229,15.9241333 C165.573229,14.9401333 165.714062,13.9654667 165.993021,13.0241333 Z M133.81626,19.3217333 C136.722302,19.3217333 139.088031,21.6377333 139.088031,24.4830667 C139.088031,27.3297333 136.722302,29.6444 133.81626,29.6444 C130.910219,29.6444 128.54449,27.3297333 128.54449,24.4830667 C128.54449,21.6377333 130.910219,19.3217333 133.81626,19.3217333 Z M133.81626,21.3870667 C132.072094,21.3870667 130.652927,22.7764 130.652927,24.4830667 C130.652927,26.1910667 132.072094,27.5804 133.81626,27.5804 C135.560427,27.5804 136.979594,26.1910667 136.979594,24.4830667 C136.979594,22.7764 135.560427,21.3870667 133.81626,21.3870667 Z M122.218229,23.4517333 L122.218229,25.5157333 L118,25.5157333 L118,23.4517333 L122.218229,23.4517333 Z M149.631979,23.4517333 L149.631979,25.5157333 L145.41375,25.5157333 L145.41375,23.4517333 L149.631979,23.4517333 Z M123.378479,12.8057333 L126.360354,15.7244 L124.869417,17.1844 L121.887542,14.2644 L123.378479,12.8057333 Z M144.25499,12.8046667 L145.745927,14.2646667 L142.764052,17.1833333 L141.273115,15.7246667 L144.25499,12.8046667 Z" id="i__flexible"></path>
                    </g>
                </g>
            </g>
        </g>
    </g>
</svg>