<?xml version="1.0" encoding="UTF-8"?>
<svg width="13px" height="15px" viewBox="0 0 13 15" version="1.1" xmlns="http://www.w3.org/2000/svg" xmlns:xlink="http://www.w3.org/1999/xlink">
    <!-- Generator: sketchtool 63 (101010) - https://sketch.com -->
    <title>74F73B38-1FA7-45F5-B96A-153BE4229539</title>
    <desc>Created with sketchtool.</desc>
    <g id="DESKTOP" stroke="none" stroke-width="1" fill="none" fill-rule="evenodd">
        <g id="job_page" transform="translate(-1431.000000, -1174.000000)" fill="#FD574C">
            <g id="sidebar" transform="translate(1070.000000, 868.000000)">
                <g id="item4" transform="translate(40.000000, 301.000000)">
                    <g id="span-location" transform="translate(321.000000, 2.000000)">
                        <path d="M6.5,3 C10.0898509,3 13,5.96972656 13,9.45784077 C13,12.945955 8.29202271,18 6.5,18 C4.70797729,18 0,12.945955 0,9.45784077 C0,5.96972656 2.91014913,3 6.5,3 Z M6.5,6.94736842 C5.60253728,6.94736842 4.875,7.65428724 4.875,8.52631579 C4.875,9.39834434 5.60253728,10.1052632 6.5,10.1052632 C7.39746272,10.1052632 8.125,9.39834434 8.125,8.52631579 C8.125,7.65428724 7.39746272,6.94736842 6.5,6.94736842 Z" id="i__location"></path>
                    </g>
                </g>
            </g>
        </g>
    </g>
</svg>