<?xml version="1.0" encoding="UTF-8"?>
<svg width="60px" height="58px" viewBox="0 0 60 58" version="1.1" xmlns="http://www.w3.org/2000/svg" xmlns:xlink="http://www.w3.org/1999/xlink">
    <!-- Generator: sketchtool 63 (101010) - https://sketch.com -->
    <title>E1A98654-8414-42EA-A7C5-A88255A656F8</title>
    <desc>Created with sketchtool.</desc>
    <defs>
        <linearGradient x1="16.7396426%" y1="83.7610108%" x2="103.595814%" y2="23.1647229%" id="linearGradient-1">
            <stop stop-color="#FB2059" offset="0%"></stop>
            <stop stop-color="#8138E9" offset="60.2402114%"></stop>
            <stop stop-color="#12CAF9" offset="100%"></stop>
        </linearGradient>
    </defs>
    <g id="DESKTOP" stroke="none" stroke-width="1" fill="none" fill-rule="evenodd">
        <g id="job_page" transform="translate(-489.000000, -4480.000000)" fill="url(#linearGradient-1)">
            <g id="main" transform="translate(0.000000, 121.000000)">
                <g id="section--working" transform="translate(370.000000, 3848.000000)">
                    <g id="item3" transform="translate(0.000000, 497.000000)">
                        <path d="M171.152296,14 C172.824554,14 174.185199,15.4036 174.185199,17.1291 L174.185199,17.1291 L174.185199,17.9807333 L175.966811,17.9807333 C177.639069,17.9807333 178.999714,19.3843333 178.999714,21.1108 C178.999714,22.8353333 177.639069,24.2389333 175.966811,24.2389333 L175.966811,24.2389333 L174.185199,24.2389333 L174.185199,29.921 L178.999714,29.921 L178.999714,37.0308333 C178.999714,38.7563333 177.639069,40.1589667 175.966811,40.1589667 L175.966811,40.1589667 L170.187457,40.1589667 C168.910038,40.1589667 167.778748,39.3228 167.347135,38.0932 L167.347135,38.0932 L164.343265,42.043 L169.760683,51.1654333 C170.190361,50.9353667 170.667457,50.8164667 171.151328,50.8164667 C172.237134,50.8164667 173.246489,51.4206333 173.786489,52.3931 C174.188102,53.1181 174.290682,53.9610333 174.078747,54.7662667 C173.896812,55.4526 173.485521,56.0548333 172.913586,56.4763 L172.913586,56.4763 L178.505198,65.8926 C179.033585,66.9269333 179.140037,68.0337667 178.816811,69.1029 C178.502295,70.1527 177.807456,71.0130333 176.86294,71.5253667 C176.291005,71.8366333 175.648424,72 175.00294,72 C173.510683,72 172.152941,71.1532 171.461006,69.7902 L171.461006,69.7902 L165.941006,60.6271667 L165.916813,60.6407 C165.457135,60.9113667 164.935523,61.0544333 164.411007,61.0544333 C163.322297,61.0544333 162.311975,60.4493 161.77391,59.4749 C161.373265,58.7537667 161.268749,57.9118 161.48262,57.1036667 C161.677136,56.3661 162.12133,55.7377667 162.741652,55.3182333 L162.741652,55.3182333 L158.986814,49.0851667 L158.207782,50.1098333 L155.887137,50.1098333 L155.887137,53.8005667 L156.704879,53.8005667 C158.378104,53.8005667 159.738749,55.2051333 159.738749,56.9306333 L159.738749,56.9306333 L159.738749,68.8709 C159.738749,70.5964 158.378104,72 156.704879,72 L156.704879,72 L141.297462,72 C139.624236,72 138.262624,70.5964 138.262624,68.8709 L138.262624,68.8709 L138.262624,56.9306333 C138.262624,55.2051333 139.624236,53.8005667 141.297462,53.8005667 L141.297462,53.8005667 L142.115204,53.8005667 L142.115204,50.1098333 L139.793591,50.1098333 L139.012623,49.0832333 L135.258753,55.3163 C135.879076,55.7339 136.324237,56.3632 136.519721,57.1017333 C136.731656,57.9108333 136.62714,58.7547333 136.225527,59.4758667 C135.689398,60.4493 134.680044,61.0544333 133.591334,61.0544333 C133.06585,61.0544333 132.546173,60.9113667 132.086496,60.6416667 L132.086496,60.6416667 L132.060366,60.6262 L126.497787,69.8636667 C125.845529,71.1580333 124.470368,72 122.998432,72 C122.353916,72 121.710368,71.8356667 121.136497,71.5244 C120.193917,71.0130333 119.500046,70.1527 119.182627,69.1019333 C118.865207,68.0502 118.963917,66.9346667 119.460368,65.9602667 L119.460368,65.9602667 L125.088755,56.4763 C124.516819,56.0567667 124.105529,55.4545333 123.924561,54.7672333 C123.711658,53.962 123.816174,53.1181 124.217787,52.3940667 C124.754884,51.4206333 125.764238,50.8164667 126.85198,50.8164667 C127.335851,50.8164667 127.813916,50.9363333 128.241657,51.1635 L128.241657,51.1635 L133.659076,42.0410667 L130.655205,38.0932 C130.225528,39.3228 129.09327,40.1589667 127.813916,40.1589667 L127.813916,40.1589667 L122.036497,40.1589667 C120.363272,40.1589667 119.002627,38.7563333 119.002627,37.0308333 L119.002627,37.0308333 L119.002627,29.921 L123.81811,29.921 L123.81811,24.2389333 L122.036497,24.2389333 C120.363272,24.2389333 119.002627,22.8353333 119.002627,21.1108 C119.002627,19.3843333 120.363272,17.9807333 122.036497,17.9807333 L122.036497,17.9807333 L123.81811,17.9807333 L123.81811,17.1291 C123.81811,15.4036 125.178755,14 126.851012,14 C128.524238,14 129.884883,15.4036 129.884883,17.1291 L129.884883,17.1291 L129.884883,17.9807333 L131.666496,17.9807333 C133.339721,17.9807333 134.700366,19.3843333 134.700366,21.1108 C134.700366,22.8353333 133.339721,24.2389333 131.666496,24.2389333 L131.666496,24.2389333 L129.884883,24.2389333 L129.884883,29.921 L132.127141,29.921 L137.53585,35.5102667 L139.403591,32.3637667 C140.29972,30.8577 141.920688,29.921 143.632623,29.921 L143.632623,29.921 L154.366815,29.921 C156.081653,29.921 157.701653,30.8577 158.597782,32.3637667 L158.597782,32.3637667 L160.464556,35.5112333 L165.877135,29.921 L168.118425,29.921 L168.118425,24.2389333 L166.336813,24.2389333 C164.663587,24.2389333 163.302942,22.8353333 163.302942,21.1108 C163.302942,19.3843333 164.663587,17.9807333 166.336813,17.9807333 L166.336813,17.9807333 L168.118425,17.9807333 L168.118425,17.1291 C168.118425,15.4036 169.47907,14 171.152296,14 Z M156.704879,56.079 L141.297462,56.079 C140.845526,56.079 140.478752,56.4608333 140.478752,56.9306333 L140.478752,56.9306333 L140.478752,68.8709 C140.478752,69.3397333 140.845526,69.7215667 141.297462,69.7215667 L141.297462,69.7215667 L156.704879,69.7215667 C157.156814,69.7215667 157.523588,69.3397333 157.523588,68.8709 L157.523588,68.8709 L157.523588,56.9306333 C157.523588,56.4608333 157.156814,56.079 156.704879,56.079 L156.704879,56.079 Z M171.006167,57.6363 L167.861006,59.4942333 L173.383908,68.6630667 C173.628747,69.1415667 174.028424,69.4828 174.511328,69.6316667 C174.961328,69.7708667 175.428747,69.7273667 175.828424,69.5098667 C176.251327,69.2817333 176.561005,68.897 176.702295,68.4262333 C176.844553,67.9535333 176.801005,67.4528 176.578424,67.0168333 L176.578424,67.0168333 L171.006167,57.6363 Z M126.993271,57.6363 L121.385207,67.0825667 C121.194562,67.4634333 121.159723,67.9699667 121.297142,68.4262333 C121.440368,68.8979667 121.749078,69.2827 122.169078,69.5098667 C122.572626,69.7273667 123.04682,69.7689333 123.506497,69.6258667 C123.971981,69.4808667 124.361981,69.1570333 124.575852,68.7375 L124.575852,68.7375 L130.137464,59.4942333 L126.993271,57.6363 Z M147.07488,57.7823633 C149.810686,57.7823633 152.034557,60.0781967 152.034557,62.9008633 C152.034557,65.72353 149.810686,68.0193633 147.07488,68.0193633 C144.34101,68.0193633 142.115204,65.72353 142.115204,62.9008633 C142.115204,60.0781967 144.34101,57.7823633 147.07488,57.7823633 Z M147.07488,60.05983 C145.561332,60.05983 144.330365,61.3348633 144.330365,62.9008633 C144.330365,64.4668633 145.561332,65.74093 147.07488,65.74093 C148.588428,65.74093 149.820364,64.4668633 149.820364,62.9008633 C149.820364,61.3348633 148.588428,60.05983 147.07488,60.05983 Z M147.075267,61.7623233 C147.685912,61.7623233 148.182364,62.2727233 148.182364,62.9010567 C148.182364,63.52939 147.685912,64.03979 147.075267,64.03979 C146.464622,64.03979 145.968171,63.52939 145.968171,62.9010567 C145.968171,62.2727233 146.464622,61.7623233 147.075267,61.7623233 Z M171.151328,53.0939333 C171.00907,53.0939333 170.870683,53.1335667 170.750683,53.2060667 L170.750683,53.2060667 L164.005523,57.1868 C163.814878,57.3008667 163.677458,57.4835667 163.620362,57.7020333 C163.562297,57.9224333 163.590362,58.1515333 163.699716,58.3487333 C163.804233,58.5372333 163.987136,58.6793333 164.20391,58.7383 C164.41391,58.7963 164.63649,58.7702 164.814555,58.6658 L164.814555,58.6658 L171.554876,54.6860333 C171.746489,54.5729333 171.882941,54.3902333 171.941973,54.1708 C171.99907,53.9494333 171.971005,53.7203333 171.861651,53.5241 C171.716489,53.2582667 171.444554,53.0939333 171.151328,53.0939333 Z M126.85198,53.0939333 C126.559722,53.0939333 126.287787,53.2582667 126.142625,53.5231333 C126.031335,53.7222667 126.003271,53.9523333 126.061335,54.1727333 C126.120367,54.3902333 126.255851,54.5729333 126.446496,54.6860333 L126.446496,54.6860333 L133.188753,58.6658 C133.364882,58.7692333 133.586495,58.7953333 133.797463,58.7373333 C134.013269,58.6783667 134.19714,58.5372333 134.300689,58.3506667 C134.411979,58.1505667 134.441011,57.9195333 134.381979,57.7001 C134.323915,57.4806667 134.186495,57.2979667 133.996818,57.1858333 L133.996818,57.1858333 L127.255529,53.2060667 C127.132625,53.1326 126.993271,53.0939333 126.85198,53.0939333 Z M162.885846,43.9599 L160.442298,47.1740667 L164.658748,54.1746667 L167.836813,52.2974 L162.885846,43.9599 Z M135.116495,43.9589333 L130.165528,52.2964333 L133.343592,54.1737 L137.559075,47.1721333 L135.116495,43.9589333 Z M153.671976,50.1098333 L144.330365,50.1098333 L144.330365,53.8015333 L153.671976,53.8015333 L153.671976,50.1098333 Z M131.206818,32.1984667 L121.217788,32.1984667 L121.217788,33.9007667 L130.279722,33.9007667 L130.32327,33.9578 L140.873591,47.8304333 L157.129717,47.8304333 L167.723587,33.9007667 L176.785521,33.9007667 L176.785521,32.1984667 L166.795522,32.1984667 L155.239718,44.1387333 L142.762623,44.1387333 L142.720042,44.0952333 L131.206818,32.1984667 Z M154.366815,32.1984667 L143.632623,32.1984667 C142.686171,32.1984667 141.790042,32.7175667 141.294559,33.5537333 L141.294559,33.5537333 L139.145204,37.1719667 L143.682945,41.8612667 L154.320363,41.8612667 L158.856169,37.1739 L156.706814,33.5537333 C156.210363,32.7175667 155.314234,32.1984667 154.366815,32.1984667 L154.366815,32.1984667 Z M152.852396,33.90154 C153.994331,33.90154 154.923363,34.85854 154.923363,36.0349733 L154.923363,36.0349733 L154.923363,38.0243733 C154.923363,39.2017733 153.994331,40.15974 152.852396,40.15974 L152.852396,40.15974 L145.149171,40.15974 C144.007236,40.15974 143.079171,39.2017733 143.079171,38.0243733 L143.079171,38.0243733 L143.079171,36.0349733 C143.079171,34.85854 144.007236,33.90154 145.149171,33.90154 L145.149171,33.90154 Z M176.785521,36.1792 L169.369716,36.1792 L169.369716,37.0308333 C169.369716,37.4996667 169.73649,37.8815 170.187457,37.8815 L170.187457,37.8815 L175.966811,37.8815 C176.417779,37.8815 176.785521,37.4996667 176.785521,37.0308333 L176.785521,37.0308333 L176.785521,36.1792 Z M128.633593,36.1792 L121.217788,36.1792 L121.217788,37.0308333 C121.217788,37.4996667 121.584562,37.8815 122.036497,37.8815 L122.036497,37.8815 L127.813916,37.8815 C128.265851,37.8815 128.633593,37.4996667 128.633593,37.0308333 L128.633593,37.0308333 L128.633593,36.1792 Z M152.708202,36.1790067 L145.293364,36.1790067 L145.293364,37.88034 L152.710137,37.88034 L152.708202,36.1790067 Z M171.970038,24.2408667 L170.333586,24.2408667 L170.333586,29.921 L171.970038,29.921 L171.970038,24.2408667 Z M127.669722,24.2399 L126.033271,24.2399 L126.033271,29.9200333 L127.669722,29.9200333 L127.669722,24.2399 Z M149.001074,21.9604033 C150.673331,21.9604033 152.033976,23.3640033 152.033976,25.09047 C152.033976,26.81597 150.673331,28.21957 149.001074,28.21957 C147.328816,28.21957 145.968171,26.81597 145.968171,25.09047 C145.968171,23.3640033 147.328816,21.9604033 149.001074,21.9604033 Z M149.001074,24.2398033 C148.550106,24.2398033 148.182364,24.6216367 148.182364,25.09047 C148.182364,25.5593033 148.550106,25.9411367 149.001074,25.9411367 C149.452041,25.9411367 149.820751,25.5593033 149.820751,25.09047 C149.820751,24.6216367 149.452041,24.2398033 149.001074,24.2398033 Z M131.666496,20.2591667 L122.036497,20.2591667 C121.584562,20.2591667 121.217788,20.641 121.217788,21.1108 C121.217788,21.5796333 121.584562,21.9614667 122.036497,21.9614667 L122.036497,21.9614667 L131.666496,21.9614667 C132.117463,21.9614667 132.485205,21.5796333 132.485205,21.1108 C132.485205,20.641 132.117463,20.2591667 131.666496,20.2591667 L131.666496,20.2591667 Z M175.966811,20.2591667 L166.336813,20.2591667 C165.884877,20.2591667 165.517135,20.641 165.517135,21.1108 C165.517135,21.5796333 165.884877,21.9614667 166.336813,21.9614667 L166.336813,21.9614667 L175.966811,21.9614667 C176.417779,21.9614667 176.785521,21.5796333 176.785521,21.1108 C176.785521,20.641 176.417779,20.2591667 175.966811,20.2591667 L175.966811,20.2591667 Z M171.152296,16.2794 C170.70036,16.2794 170.332619,16.6612333 170.332619,17.1291 L170.332619,17.1291 L170.332619,17.9807333 L171.970038,17.9807333 L171.970038,17.1291 C171.970038,16.6612333 171.603264,16.2794 171.152296,16.2794 Z M126.851012,16.2794 C126.400045,16.2794 126.033271,16.6612333 126.033271,17.1291 L126.033271,17.1291 L126.033271,17.9807333 L127.669722,17.9807333 L127.669722,17.1291 C127.669722,16.6612333 127.302948,16.2794 126.851012,16.2794 Z" id="i__remote"></path>
                    </g>
                </g>
            </g>
        </g>
    </g>
</svg>