<?xml version="1.0" encoding="UTF-8"?>
<svg width="32px" height="60px" viewBox="0 0 32 60" version="1.1" xmlns="http://www.w3.org/2000/svg" xmlns:xlink="http://www.w3.org/1999/xlink">
    <!-- Generator: sketchtool 63 (101010) - https://sketch.com -->
    <title>6906BF11-FA7D-414D-9EC9-5F81CCBD962E</title>
    <desc>Created with sketchtool.</desc>
    <defs>
        <linearGradient x1="40.5391851%" y1="86.1291558%" x2="65.2451783%" y2="21.2823792%" id="linearGradient-1">
            <stop stop-color="#FB2059" offset="0%"></stop>
            <stop stop-color="#8138E9" offset="60.2402114%"></stop>
            <stop stop-color="#12CAF9" offset="100%"></stop>
        </linearGradient>
    </defs>
    <g id="DESKTOP" stroke="none" stroke-width="1" fill="none" fill-rule="evenodd">
        <g id="job_page" transform="translate(-884.000000, -4478.000000)" fill="url(#linearGradient-1)">
            <g id="main" transform="translate(0.000000, 121.000000)">
                <g id="section--working" transform="translate(370.000000, 3848.000000)">
                    <g id="item4" transform="translate(380.000000, 497.000000)">
                        <path d="M150.000457,12 C150.468222,12 150.895516,12.2559375 151.099751,12.6590625 L151.099751,12.6590625 L155.418811,21.1584375 L164.95952,22.535625 C165.417873,22.6021875 165.798108,22.910625 165.940226,23.3325 C166.083285,23.754375 165.965638,24.2175 165.636226,24.5296875 L165.636226,24.5296875 L158.758106,31.0228125 L160.341165,40.15125 C160.417401,40.5890625 160.228224,41.030625 159.853636,41.29125 C159.479989,41.551875 158.983047,41.5884375 158.571753,41.383125 L158.571753,41.383125 L157.2014,40.700625 L155.069635,55.5965625 L155.8254,55.5965625 C157.223047,55.5965625 158.480459,56.3409375 159.106342,57.54 L159.106342,57.54 L161.759519,62.626875 L162.227284,62.626875 C164.249872,62.626875 165.895049,64.20375 165.895049,66.1415625 L165.895049,66.1415625 L165.895049,70.828125 C165.895049,71.475 165.347284,72 164.672461,72 L164.672461,72 L155.502576,72 C154.826811,72 154.279046,71.475 154.279046,70.828125 C154.279046,70.18125 154.826811,69.65625 155.502576,69.65625 L155.502576,69.65625 L163.449872,69.65625 L163.449872,66.1415625 C163.449872,65.495625 162.901166,64.9696875 162.227284,64.9696875 L162.227284,64.9696875 L137.77363,64.9696875 C137.099747,64.9696875 136.551041,65.495625 136.551041,66.1415625 L136.551041,66.1415625 L136.551041,69.65625 L144.498338,69.65625 C145.173161,69.65625 145.720926,70.18125 145.720926,70.828125 C145.720926,71.475 145.173161,72 144.498338,72 L144.498338,72 L135.328453,72 C134.652688,72 134.105864,71.475 134.105864,70.828125 L134.105864,70.828125 L134.105864,66.1415625 C134.105864,64.20375 135.751041,62.626875 137.77363,62.626875 L137.77363,62.626875 L138.240454,62.626875 L140.894572,57.54 C141.520454,56.3409375 142.776925,55.5965625 144.175514,55.5965625 L144.175514,55.5965625 L144.930338,55.5965625 L142.799514,40.700625 L141.42916,41.383125 C141.017866,41.5875 140.521866,41.5528125 140.147278,41.29125 C139.772689,41.030625 139.583513,40.5890625 139.659748,40.15125 L139.659748,40.15125 L141.242807,31.0228125 L134.364688,24.5296875 C134.035276,24.2175 133.916688,23.754375 134.059747,23.3325 C134.203747,22.910625 134.583041,22.6021875 135.040453,22.535625 L135.040453,22.535625 L144.582102,21.1584375 L148.901162,12.6590625 C149.106339,12.2559375 149.532692,12 150.000457,12 Z M150.000269,69.65625 C150.675092,69.65625 151.222857,70.18125 151.222857,70.828125 C151.222857,71.475 150.675092,72 150.000269,72 C149.325445,72 148.77768,71.475 148.77768,70.828125 C148.77768,70.18125 149.325445,69.65625 150.000269,69.65625 Z M155.8254,57.939375 L144.175514,57.939375 C143.709632,57.939375 143.289867,58.18875 143.081867,58.5871875 L143.081867,58.5871875 L140.974572,62.626875 L159.0254,62.626875 L156.919047,58.5871875 C156.710106,58.18875 156.291282,57.939375 155.8254,57.939375 L155.8254,57.939375 Z M150.000457,37.1184375 L145.104455,39.555 L147.399044,55.5965625 L152.601869,55.5965625 L154.896458,39.5540625 L150.000457,37.1184375 Z M150.000457,15.8484375 L146.499279,22.7390625 C146.322338,23.085 145.97975,23.326875 145.581632,23.3840625 L145.581632,23.3840625 L137.822571,24.504375 L143.411278,29.7796875 C143.694573,30.0478125 143.824455,30.43125 143.759514,30.8071875 L143.759514,30.8071875 L142.472925,38.22375 L149.437633,34.75875 C149.613633,34.670625 149.807516,34.6265625 150.000457,34.6265625 C150.193398,34.6265625 150.386339,34.670625 150.564222,34.75875 L150.564222,34.75875 L156.788223,37.8553125 L157.527047,38.2228125 L156.2414,30.8071875 C156.176458,30.4303125 156.306341,30.0478125 156.589635,29.7796875 L156.589635,29.7796875 L162.178342,24.504375 L154.419281,23.3840625 C154.021164,23.326875 153.678575,23.085 153.501634,22.738125 L153.501634,22.738125 L150.000457,15.8484375 Z M150.000551,25.3666875 C150.675375,25.3666875 151.223139,25.8916875 151.223139,26.5385625 L151.223139,26.5385625 L151.223139,30.05325 C151.223139,30.700125 150.675375,31.225125 150.000551,31.225125 C149.324786,31.225125 148.777962,30.700125 148.777962,30.05325 L148.777962,30.05325 L148.777962,26.5385625 C148.777962,25.8916875 149.324786,25.3666875 150.000551,25.3666875 Z" id="i__self-r"></path>
                    </g>
                </g>
            </g>
        </g>
    </g>
</svg>