<?xml version="1.0" encoding="UTF-8"?>
<svg width="62px" height="50px" viewBox="0 0 62 50" version="1.1" xmlns="http://www.w3.org/2000/svg" xmlns:xlink="http://www.w3.org/1999/xlink">
    <!-- Generator: sketchtool 63 (101010) - https://sketch.com -->
    <title>B968E918-8A6D-49A4-97B9-2419566E8663</title>
    <desc>Created with sketchtool.</desc>
    <defs>
        <linearGradient x1="16.7396426%" y1="73.4971096%" x2="103.595814%" y2="31.3230874%" id="linearGradient-1">
            <stop stop-color="#FB2059" offset="0%"></stop>
            <stop stop-color="#8138E9" offset="60.2402114%"></stop>
            <stop stop-color="#12CAF9" offset="100%"></stop>
        </linearGradient>
    </defs>
    <g id="DESKTOP" stroke="none" stroke-width="1" fill="none" fill-rule="evenodd">
        <g id="job_page" transform="translate(-489.000000, -4184.000000)" fill="url(#linearGradient-1)">
            <g id="main" transform="translate(0.000000, 121.000000)">
                <g id="section--working" transform="translate(370.000000, 3848.000000)">
                    <g id="item1" transform="translate(0.000000, 190.000000)">
                        <path d="M159.29985,25 C162.080519,25.0039742 164.347322,27.3144253 164.462516,30.2105046 L164.467106,30.434406 L164.467106,33.2448489 L165.802997,31.8396274 L167.263856,33.3773208 L164.467106,36.3192166 L164.467106,48.9122017 L166.533427,48.9122017 L166.533427,51.0867793 L164.467106,51.0867793 L164.467106,63.6797644 L167.263856,66.6226792 L165.802997,68.1603726 L164.467106,66.7541321 L164.467106,69.564575 C164.463328,72.4905486 162.265947,74.8740498 159.512706,74.995174 L159.29985,75 L140.700053,75 C137.919384,74.9960258 135.653502,72.6855747 135.538354,69.7885509 L135.533766,69.564575 L135.533766,66.7541321 L134.197874,68.1603726 L132.736047,66.6226792 L135.533766,63.6797644 L135.533766,51.0867793 L133.466476,51.0867793 L133.466476,48.9122017 L135.533766,48.9122017 L135.533766,36.3192166 L132.736047,33.3773208 L134.197874,31.8396274 L135.533766,33.2448489 L135.533766,30.434406 C135.537544,27.5094259 137.734004,25.1259496 140.487199,25.004826 L140.700053,25 L159.29985,25 Z M177.900034,61.955897 C179.55277,61.955897 180.903877,63.3171748 180.995092,65.0326528 L181,65.2177635 L181,71.7384393 C181,73.4779327 179.705884,74.8982431 178.075915,74.9941271 L177.900034,74.9992867 L171.700102,74.9992867 C170.047365,74.9992867 168.696259,73.6389589 168.605044,71.9235464 L168.600136,71.7384393 L168.600136,65.2177635 C168.600136,63.47827 169.894252,62.0570097 171.524221,61.9610601 L171.700102,61.955897 L177.900034,61.955897 Z M128.300867,61.955897 C129.953603,61.955897 131.303807,63.3171748 131.394959,65.0326528 L131.399864,65.2177635 L131.399864,71.7384393 C131.399864,73.4779327 130.106651,74.8982431 128.476745,74.9941271 L128.300867,74.9992867 L122.100935,74.9992867 C120.447263,74.9992867 119.096124,73.6389589 119.004908,71.9235464 L119,71.7384393 L119,65.2177635 C119,63.47827 120.294116,62.0570097 121.924957,61.9610601 L122.100935,61.955897 L128.300867,61.955897 Z M162.399816,68.4783052 L137.600087,68.4783052 L137.600087,69.564575 C137.600087,71.3030845 138.894203,72.7252609 140.524172,72.8212748 L140.700053,72.8264414 L159.29985,72.8264414 C160.952586,72.8264414 162.303693,71.4642137 162.394908,69.7495874 L162.399816,69.564575 L162.399816,68.4783052 Z M177.900034,64.1294556 L171.700102,64.1294556 C171.166649,64.1294556 170.728555,64.554652 170.672513,65.0993295 L170.666457,65.2177635 L170.666457,71.7384393 C170.666457,72.2995768 171.068987,72.760407 171.587355,72.8193571 L171.700102,72.8257281 L177.900034,72.8257281 C178.431678,72.8257281 178.870496,72.402307 178.926642,71.8570378 L178.93271,71.7384393 L178.93271,65.2177635 C178.93271,64.6175637 178.469653,64.1294556 177.900034,64.1294556 Z M128.300867,64.1294556 L122.100935,64.1294556 C121.567482,64.1294556 121.129388,64.554652 121.073347,65.0993295 L121.06729,65.2177635 L121.06729,71.7384393 C121.06729,72.2995768 121.46982,72.760407 121.988188,72.8193571 L122.100935,72.8257281 L128.300867,72.8257281 C128.832511,72.8257281 129.271329,72.402307 129.327475,71.8570378 L129.333543,71.7384393 L129.333543,65.2177635 C129.333543,64.6175637 128.870486,64.1294556 128.300867,64.1294556 Z M153.100111,69.5651864 L153.100111,71.738745 L146.900179,71.738745 L146.900179,69.5651864 L153.100111,69.5651864 Z M162.399816,33.6952534 L137.600087,33.6952534 L137.600087,35.4194265 L143.497773,41.6231887 L142.035945,43.159863 L137.600087,38.4937942 L137.600087,48.9122017 L140.700053,48.9122017 L140.700053,51.0867793 L137.600087,51.0867793 L137.600087,61.5062058 L142.035945,56.840137 L143.497773,58.3768113 L137.600087,64.5805735 L137.600087,66.3037276 L162.399816,66.3037276 L162.399816,64.5805735 L156.503099,58.3768113 L157.963958,56.840137 L162.399816,61.5062058 L162.399816,51.0867793 L159.29985,51.0867793 L159.29985,48.9122017 L162.399816,48.9122017 L162.399816,38.4937942 L157.963958,43.159863 L156.503099,41.6231887 L162.399816,35.4194265 L162.399816,33.6952534 Z M177.900034,43.4783052 C179.55277,43.4783052 180.903877,44.839583 180.995092,46.5541437 L181,46.7391526 L181,53.2608474 C181,54.999357 179.705884,56.4205834 178.075915,56.5165318 L177.900034,56.5216948 L171.700102,56.5216948 C170.047365,56.5216948 168.696259,55.160417 168.605044,53.4458563 L168.600136,53.2608474 L168.600136,46.7391526 C168.600136,45.000643 169.894252,43.5794166 171.524221,43.4834682 L171.700102,43.4783052 L177.900034,43.4783052 Z M128.300867,43.4783052 C129.953603,43.4783052 131.303807,44.839583 131.394959,46.5541437 L131.399864,46.7391526 L131.399864,53.2608474 C131.399864,54.999357 130.106651,56.4205834 128.476745,56.5165318 L128.300867,56.5216948 L122.100935,56.5216948 C120.447263,56.5216948 119.096124,55.160417 119.004908,53.4458563 L119,53.2608474 L119,46.7391526 C119,45.000643 120.294116,43.5794166 121.924957,43.4834682 L122.100935,43.4783052 L128.300867,43.4783052 Z M177.900034,45.6518638 L171.700102,45.6518638 C171.166649,45.6518638 170.728555,46.0761725 170.672513,46.6207316 L170.666457,46.7391526 L170.666457,53.2608474 C170.666457,53.8210338 171.068987,54.2818006 171.587355,54.3407465 L171.700102,54.3471172 L177.900034,54.3471172 C178.431678,54.3471172 178.870496,53.9236962 178.926642,53.3792554 L178.93271,53.2608474 L178.93271,46.7391526 C178.93271,46.1389529 178.469653,45.6518638 177.900034,45.6518638 Z M128.300867,45.6518638 L122.100935,45.6518638 C121.567482,45.6518638 121.129388,46.0761725 121.073347,46.6207316 L121.06729,46.7391526 L121.06729,53.2608474 C121.06729,53.8210338 121.46982,54.2818006 121.988188,54.3407465 L122.100935,54.3471172 L128.300867,54.3471172 C128.832511,54.3471172 129.271329,53.9236962 129.327475,53.3792554 L129.333543,53.2608474 L129.333543,46.7391526 C129.333543,46.1389529 128.870486,45.6518638 128.300867,45.6518638 Z M177.900034,25.0002038 C179.55277,25.0002038 180.903877,26.3614816 180.995092,28.0760423 L181,28.2610512 L181,34.782746 C181,36.5212556 179.705884,37.942482 178.075915,38.0384304 L177.900034,38.0435935 L171.700102,38.0435935 C170.047365,38.0435935 168.696259,36.6823157 168.605044,34.9677549 L168.600136,34.782746 L168.600136,28.2610512 C168.600136,26.5225417 169.894252,25.1013153 171.524221,25.0053669 L171.700102,25.0002038 L177.900034,25.0002038 Z M128.300867,25.0002038 C129.953603,25.0002038 131.303807,26.3614816 131.394959,28.0760423 L131.399864,28.2610512 L131.399864,34.782746 C131.399864,36.5212556 130.106651,37.942482 128.476745,38.0384304 L128.300867,38.0435935 L122.100935,38.0435935 C120.447263,38.0435935 119.096124,36.6823157 119.004908,34.9677549 L119,34.782746 L119,28.2610512 C119,26.5225417 120.294116,25.1013153 121.924957,25.0053669 L122.100935,25.0002038 L128.300867,25.0002038 Z M177.900034,27.1737624 L171.700102,27.1737624 C171.166649,27.1737624 170.728555,27.5980711 170.672513,28.1426302 L170.666457,28.2610512 L170.666457,34.782746 C170.666457,35.3429325 171.068987,35.8036993 171.587355,35.8626451 L171.700102,35.8690158 L177.900034,35.8690158 C178.431678,35.8690158 178.870496,35.4455948 178.926642,34.9011541 L178.93271,34.782746 L178.93271,28.2610512 C178.93271,27.6608515 178.469653,27.1737624 177.900034,27.1737624 Z M128.300867,27.1737624 L122.100935,27.1737624 C121.567482,27.1737624 121.129388,27.5980711 121.073347,28.1426302 L121.06729,28.2610512 L121.06729,34.782746 C121.06729,35.3429325 121.46982,35.8036993 121.988188,35.8626451 L122.100935,35.8690158 L128.300867,35.8690158 C128.832511,35.8690158 129.271329,35.4455948 129.327475,34.9011541 L129.333543,34.782746 L129.333543,28.2610512 C129.333543,27.6608515 128.870486,27.1737624 128.300867,27.1737624 Z M159.29985,27.1735586 L140.700053,27.1735586 C139.047317,27.1735586 137.69621,28.5348364 137.604996,30.2493971 L137.600087,30.434406 L137.600087,31.5216948 L162.399816,31.5216948 L162.399816,30.434406 C162.399816,28.6338068 161.011612,27.1735586 159.29985,27.1735586 Z M143.800213,28.2604398 L143.800213,30.4339984 L141.733892,30.4339984 L141.733892,28.2604398 L143.800213,28.2604398 Z M150.000145,28.2604398 L150.000145,30.4339984 L145.866534,30.4339984 L145.866534,28.2604398 L150.000145,28.2604398 Z" id="i__unique"></path>
                    </g>
                </g>
            </g>
        </g>
    </g>
</svg>