<svg width="68" height="47" viewBox="0 0 68 47" fill="none" xmlns="http://www.w3.org/2000/svg">
<g clip-path="url(#clip0)">
<path d="M49.1921 32.3167C49.113 31.5023 47.6093 31.565 47.6093 31.565L39.4581 31.8625C39.4107 31.6276 39.1099 30.594 39.1099 30.594C39.1099 30.594 44.6021 30.5626 46.9129 30.406C49.2238 30.2494 48.9864 28.9965 48.9864 28.9965C48.9864 28.9965 49.2554 18.707 49.2079 16.7493C49.1605 14.776 48.7015 7.36819 48.5115 5.83338C48.3216 4.29857 48.3216 2.35657 46.7705 1.79276C45.2194 1.22895 43.5733 0.86874 42.4179 0.75911C41.2625 0.649481 32.0033 0.75911 28.2364 1.40123C24.4694 2.04334 22.301 2.57583 21.114 4.83106C19.9269 7.08629 19.2305 6.89835 19.2305 6.89835C18.3441 7.02364 15.3844 7.74407 14.8462 8.01031C14.3081 8.27655 13.4534 9.26322 13.2318 10.1403C13.0102 11.0173 13.6592 10.892 13.6592 10.892C12.4563 13.3038 12.1239 16.718 12.1239 16.718C11.4275 16.9059 10.7311 17.1879 10.0821 17.5011V13.9146C10.0821 13.6954 9.8922 13.5074 9.67061 13.5074H8.57851C8.35692 13.5074 8.16699 13.6954 8.16699 13.9146V18.4094C8.16699 18.4408 8.16699 18.4877 8.18282 18.5191C7.12237 19.1768 6.3943 19.725 6.3943 19.725C5.42882 20.5707 4.79571 21.526 4.35254 22.4657C4.96982 21.714 5.90364 21.3381 9.02168 21.2911C12.852 21.2285 16.2707 20.9466 20.0377 21.2911C23.8047 21.6357 23.0449 23.4837 23.0449 24.6896C23.0449 25.8956 22.2852 31.1734 21.5413 33.0058C21.2248 33.7889 21.1931 34.1804 20.9873 34.384C23.3298 34.6659 33.4278 34.243 33.4278 34.243C33.7919 32.7082 33.9185 32.4263 34.1876 31.5806C34.4566 30.7506 36.6567 27.2424 38.366 31.0168C40.0438 34.7129 39.4581 40.0377 39.4581 40.0377C39.9963 40.0064 41.769 39.7402 41.769 39.7402C41.769 39.7402 46.359 38.3933 47.8626 37.9704C49.3504 37.5476 49.1763 36.7332 49.1763 36.7332C49.1763 36.7332 49.2712 33.1311 49.1921 32.3167ZM46.4065 13.8207C46.4065 13.8207 46.4223 13.5388 46.6913 13.6641C46.9604 13.805 47.6568 14.1965 47.6568 14.1965C47.6568 14.1965 47.8309 14.3062 47.8309 14.8073C47.8309 15.3085 47.8309 18.801 47.8309 18.801C47.8309 18.801 47.8626 19.1612 47.4511 19.1612C47.0396 19.1612 46.8655 19.1142 46.6755 19.0359C46.5014 18.9732 46.4698 18.9419 46.3906 18.3625C46.3273 17.7986 46.4065 13.8207 46.4065 13.8207ZM40.6136 11.0329C40.9776 11.1739 41.8006 11.5968 41.8006 11.5968C41.8006 11.5968 42.0539 11.8473 42.0697 12.4268C42.0855 12.9906 42.0697 13.3978 42.0697 13.3978H40.297V12.7557V11.2679C40.3128 11.2679 40.2495 10.892 40.6136 11.0329ZM33.1271 31.9408C32.9372 32.9432 32.3357 34.0551 30.5314 33.9925C28.727 33.9298 22.3802 34.5719 23.0133 33.0841C23.0133 33.0841 23.2982 31.9095 25.3874 31.4866C27.4925 31.0638 32.2091 31.0168 32.2091 31.0168C32.2091 31.0168 33.317 30.9385 33.1271 31.9408ZM36.5775 16.0289C36.5775 16.0289 16.1599 15.7783 12.4721 16.6554C12.4721 16.6554 12.8203 12.0509 14.4505 10.1246C14.4505 10.1246 35.5012 8.22957 38.8092 9.46681C38.8092 9.45115 37.1473 14.3062 36.5775 16.0289ZM38.0178 19.1142C37.7804 16.3735 38.1603 14.9326 38.92 12.5991C39.6639 10.2655 40.0596 10.8607 40.0596 10.8607L39.933 16.6554C39.933 20.4454 38.0178 19.1142 38.0178 19.1142Z" fill="white"/>
<path d="M3.51371 27.0702C2.3583 27.7749 1.6144 29.3097 1.17123 30.7662C1.64606 30.7662 3.24464 30.7976 3.5612 31.4867C3.92523 32.301 3.81444 33.2721 3.2763 33.3817C2.8173 33.4756 1.06044 33.3347 0.585608 33.2877C0.522297 33.6949 0.50647 33.9298 0.50647 33.9298L4.84323 34.0081C4.40006 33.5226 3.78278 32.1288 3.57702 28.1978C3.5612 28.2134 3.52954 27.7436 3.51371 27.0702Z" fill="white"/>
<path d="M49.7778 16.765C49.8252 18.7383 49.5562 29.0122 49.5562 29.0122C49.5562 29.0122 49.6195 29.3411 49.3821 29.6699L51.4713 29.7169V2.02769L48.0367 2.23128C48.8914 3.04567 48.9231 4.58048 49.0655 5.83339C49.2554 7.38386 49.7144 14.7917 49.7778 16.765Z" fill="white"/>
<path d="M5.33391 33.2094H7.50229C7.72388 33.2094 7.91381 33.0215 7.91381 32.8022V23.7656C7.91381 23.5464 7.72388 23.3584 7.50229 23.3584H5.33391C5.11232 23.3584 4.92239 23.5464 4.92239 23.7656V32.8022C4.92239 33.0215 5.0965 33.2094 5.33391 33.2094Z" fill="white"/>
<path d="M17.5528 33.2094H20.3701C20.5917 33.2094 20.7816 33.0215 20.7816 32.8022V23.7656C20.7816 23.5464 20.5917 23.3584 20.3701 23.3584H17.5528C17.3312 23.3584 17.1413 23.5464 17.1413 23.7656V32.8022C17.1413 33.0215 17.3312 33.2094 17.5528 33.2094Z" fill="white"/>
<path d="M8.73687 33.2094H11.7125C11.934 33.2094 12.124 33.0215 12.124 32.8022V23.7656C12.124 23.5464 11.934 23.3584 11.7125 23.3584H8.73687C8.51528 23.3584 8.32535 23.5464 8.32535 23.7656V32.8022C8.32535 33.0215 8.51528 33.2094 8.73687 33.2094Z" fill="white"/>
<path d="M13.1053 33.2094H16.0809C16.3024 33.2094 16.4924 33.0215 16.4924 32.8022V23.7656C16.4924 23.5464 16.3024 23.3584 16.0809 23.3584H13.1053C12.8837 23.3584 12.6938 23.5464 12.6938 23.7656V32.8022C12.6938 33.0215 12.8679 33.2094 13.1053 33.2094Z" fill="white"/>
<path d="M27.54 35.2141C26.5745 35.2141 12.5671 34.9008 8.34115 34.7599C4.11518 34.6189 0.126625 34.337 0.126625 34.337C-0.0474782 35.1827 0.0158322 40.0221 0.0158322 40.0221C0.348212 40.2257 1.7727 40.398 3.56121 40.5389C4.0677 44.0314 5.7929 46.6155 7.85049 46.6155C9.81311 46.6155 11.4908 44.2506 12.0765 40.9774C12.4721 40.9931 12.6937 40.9931 12.6937 40.9931C12.6937 40.9931 25.245 41.3533 27.0335 41.3533C28.8221 41.3533 30.1357 41.134 30.1357 41.134L33.2538 40.9618C32.9689 37.9861 33.4437 34.7755 33.4437 34.7755C33.1113 34.8225 28.5055 35.2141 27.54 35.2141ZM5.00152 37.7042L7.42315 37.8138C7.67639 37.8295 7.86632 38.0331 7.86632 38.2837L7.80301 39.5679C7.78718 39.8185 7.58142 40.0064 7.32818 40.0064L4.90656 39.8968C4.65332 39.8811 4.46339 39.6775 4.46339 39.427L4.5267 38.1427C4.5267 37.8921 4.74828 37.6885 5.00152 37.7042ZM3.08639 39.7089L1.72521 39.6305C1.50363 39.6149 1.32952 39.4269 1.34535 39.2077L1.42449 37.9078C1.44032 37.6885 1.63025 37.5163 1.85183 37.5319L3.21301 37.6102C3.43459 37.6259 3.6087 37.8138 3.59287 38.0331L3.51373 39.333C3.51373 39.5522 3.3238 39.7245 3.08639 39.7089ZM15.4319 39.9125C15.4319 40.163 15.2103 40.3666 14.9571 40.351L9.21166 40.1944C8.95842 40.1944 8.75266 39.9751 8.76849 39.7245L8.80015 38.3463C8.80015 38.0957 9.02173 37.8921 9.27497 37.9078L15.0204 38.0644C15.2736 38.0644 15.4794 38.2837 15.4636 38.5343L15.4319 39.9125ZM20.2593 40.2257C20.2593 40.5076 20.0061 40.7425 19.7212 40.7268L16.9672 40.6642C16.6823 40.6642 16.4449 40.4136 16.4607 40.1317L16.4924 38.6752C16.4924 38.3933 16.7456 38.1584 17.0305 38.174L19.7845 38.2367C20.0694 38.2367 20.3068 38.4873 20.291 38.7692L20.2593 40.2257ZM25.1184 40.3353C25.1184 40.5859 24.9126 40.7895 24.6594 40.7895H22.1586C21.9054 40.7895 21.6996 40.5859 21.6996 40.3353V38.8631C21.6996 38.6126 21.9054 38.409 22.1586 38.409H24.6594C24.9126 38.409 25.1184 38.6126 25.1184 38.8631V40.3353Z" fill="white"/>
<path d="M36.3717 30.2024C34.9156 30.2024 33.7285 33.8829 33.7285 38.409C33.7285 42.9351 34.9156 46.6155 36.3717 46.6155C37.8278 46.6155 39.0149 42.9351 39.0149 38.409C39.0149 33.8672 37.8278 30.2024 36.3717 30.2024Z" fill="white"/>
<path d="M52.152 40.2727C52.7726 40.2727 53.2757 38.0289 53.2757 35.261C53.2757 32.4932 52.7726 30.2494 52.152 30.2494C51.5313 30.2494 51.0282 32.4932 51.0282 35.261C51.0282 38.0289 51.5313 40.2727 52.152 40.2727Z" fill="white"/>
<path d="M54.7002 30.1398C54.1462 30.1398 53.6872 32.1601 53.6872 34.6502C53.6872 37.1404 54.1462 39.1607 54.7002 39.1607C55.2542 39.1607 55.7132 37.1404 55.7132 34.6502C55.7132 32.1601 55.2542 30.1398 54.7002 30.1398Z" fill="white"/>
<path d="M64.8298 30.4374C64.5766 30.4374 64.3867 31.565 64.3867 32.9588C64.3867 34.3527 64.5924 35.4803 64.8298 35.4803C65.0831 35.4803 65.273 34.3527 65.273 32.9588C65.2888 31.565 65.0831 30.4374 64.8298 30.4374Z" fill="white"/>
<path d="M65.7478 30.4374C65.6054 30.4374 65.4946 31.471 65.4946 32.7552C65.4946 34.0395 65.6054 35.0731 65.7478 35.0731C65.8903 35.0731 66.001 34.0395 66.001 32.7552C66.001 31.471 65.8903 30.4374 65.7478 30.4374Z" fill="white"/>
<path d="M51.9778 2.02769V29.7013L67.8529 30.2494V16.9843L51.9778 2.02769Z" fill="white"/>
<path d="M56.3936 34.2431L64.0383 32.6143C64.0383 32.6143 64.0067 32.2854 64.0542 31.9252C64.0858 31.6746 64.1333 31.3144 64.1333 31.3144L56.1562 31.5806C56.2986 32.4107 56.3936 34.2431 56.3936 34.2431Z" fill="white"/>
</g>
<defs>
<clipPath id="clip0">
<rect y="0.727802" width="67.8529" height="45.8877" fill="white"/>
</clipPath>
</defs>
</svg>
