<svg width="415" height="116" viewBox="0 0 415 116" fill="none" xmlns="http://www.w3.org/2000/svg">
<path d="M100.628 42.6468H84.6957L81.6563 50H73.5188L88.8134 15.6852H96.6568L112 50H103.667L100.628 42.6468ZM98.1274 36.6172L92.6861 23.4796L87.2448 36.6172H98.1274ZM124.533 15.6852V50H116.592V22.058H109.729V15.6852H124.533ZM153.642 22.156H142.661V15.6852H172.564V22.156H161.583V50H153.642V22.156ZM198.7 50L192.082 40.4409H191.69H184.778V50H176.837V15.6852H191.69C194.73 15.6852 197.36 16.1918 199.583 17.2049C201.838 18.218 203.57 19.6559 204.779 21.5187C205.988 23.3815 206.593 25.5875 206.593 28.1366C206.593 30.6857 205.972 32.8916 204.73 34.7544C203.521 36.5846 201.789 37.9898 199.534 38.9703L207.23 50H198.7ZM198.553 28.1366C198.553 26.2084 197.932 24.7378 196.69 23.7247C195.449 22.6789 193.635 22.156 191.249 22.156H184.778V34.1172H191.249C193.635 34.1172 195.449 33.5943 196.69 32.5485C197.932 31.5027 198.553 30.0321 198.553 28.1366ZM228.13 50.5883C223.228 50.5883 219.404 49.232 216.659 46.5195C213.947 43.807 212.591 39.9343 212.591 34.9015V15.6852H220.532V34.6074C220.532 40.7514 223.081 43.8233 228.179 43.8233C230.663 43.8233 232.558 43.088 233.866 41.6174C235.173 40.1141 235.827 37.7774 235.827 34.6074V15.6852H243.67V34.9015C243.67 39.9343 242.297 43.807 239.552 46.5195C236.84 49.232 233.032 50.5883 228.13 50.5883ZM267.94 50.5883C264.443 50.5883 261.273 49.8366 258.429 48.3333C255.619 46.7973 253.397 44.6894 251.763 42.0096C250.161 39.2971 249.361 36.2414 249.361 32.8426C249.361 29.4438 250.161 26.4045 251.763 23.7247C253.397 21.0122 255.619 18.9043 258.429 17.401C261.273 15.865 264.459 15.097 267.989 15.097C270.963 15.097 273.642 15.6199 276.028 16.6657C278.446 17.7114 280.473 19.2148 282.107 21.1756L277.008 25.8816C274.688 23.2018 271.812 21.8619 268.381 21.8619C266.257 21.8619 264.361 22.3358 262.694 23.2835C261.028 24.1986 259.72 25.4895 258.773 27.1562C257.858 28.8229 257.4 30.7184 257.4 32.8426C257.4 34.9669 257.858 36.8623 258.773 38.5291C259.72 40.1958 261.028 41.503 262.694 42.4508C264.361 43.3658 266.257 43.8233 268.381 43.8233C271.812 43.8233 274.688 42.4671 277.008 39.7546L282.107 44.4606C280.473 46.4541 278.446 47.9738 276.028 49.0196C273.61 50.0654 270.914 50.5883 267.94 50.5883ZM299.97 36.5192L295.362 41.3233V50H287.469V15.6852H295.362V31.7151L310.558 15.6852H319.382L305.166 30.9798L320.216 50H310.951L299.97 36.5192ZM323.757 15.6852H331.698V50H323.757V15.6852ZM371.313 15.6852V50H364.793L347.685 29.166V50H339.842V15.6852H346.41L363.47 36.5192V15.6852H371.313ZM402.619 32.3034H409.874V46.2254C408.011 47.6306 405.854 48.7091 403.403 49.4608C400.952 50.2124 398.485 50.5883 396.001 50.5883C392.439 50.5883 389.236 49.8366 386.393 48.3333C383.55 46.7973 381.311 44.6894 379.677 42.0096C378.076 39.2971 377.275 36.2414 377.275 32.8426C377.275 29.4438 378.076 26.4045 379.677 23.7247C381.311 21.0122 383.566 18.9043 386.442 17.401C389.318 15.865 392.553 15.097 396.148 15.097C399.155 15.097 401.884 15.6035 404.335 16.6166C406.786 17.6297 408.845 19.1004 410.511 21.0285L405.413 25.7346C402.962 23.1528 400.004 21.8619 396.54 21.8619C394.351 21.8619 392.406 22.3194 390.707 23.2345C389.007 24.1495 387.684 25.4404 386.736 27.1071C385.788 28.7739 385.314 30.6857 385.314 32.8426C385.314 34.9669 385.788 36.8623 386.736 38.5291C387.684 40.1958 388.991 41.503 390.658 42.4508C392.357 43.3658 394.285 43.8233 396.442 43.8233C398.73 43.8233 400.789 43.3331 402.619 42.3527V32.3034Z" fill="white"/>
<path d="M132.624 99.6293C130.075 99.6293 127.624 99.2208 125.271 98.4038C122.951 97.5868 121.153 96.5083 119.879 95.1684L121.3 92.3742C122.542 93.6161 124.193 94.6292 126.252 95.4135C128.31 96.1652 130.435 96.541 132.624 96.541C135.696 96.541 138 95.9854 139.536 94.8743C141.072 93.7305 141.84 92.2598 141.84 90.4624C141.84 89.0898 141.415 87.995 140.566 87.178C139.749 86.361 138.736 85.74 137.526 85.3152C136.317 84.8576 134.634 84.3674 132.477 83.8445C129.896 83.1909 127.837 82.57 126.301 81.9817C124.765 81.3608 123.441 80.4294 122.33 79.1875C121.251 77.9457 120.712 76.2626 120.712 74.1384C120.712 72.4063 121.17 70.8376 122.085 69.4323C123 67.9944 124.405 66.8506 126.301 66.0009C128.196 65.1512 130.549 64.7263 133.36 64.7263C135.321 64.7263 137.232 65.0041 139.095 65.5597C140.991 66.0826 142.625 66.8179 143.997 67.7656L142.772 70.6579C141.334 69.7101 139.798 69.0075 138.164 68.55C136.53 68.0597 134.928 67.8146 133.36 67.8146C130.353 67.8146 128.082 68.4029 126.546 69.5794C125.042 70.7232 124.291 72.2102 124.291 74.0403C124.291 75.4129 124.699 76.5241 125.516 77.3738C126.366 78.1908 127.412 78.828 128.654 79.2856C129.928 79.7104 131.628 80.1843 133.752 80.7072C136.268 81.3281 138.294 81.9491 139.83 82.57C141.399 83.1582 142.723 84.0733 143.801 85.3152C144.88 86.5244 145.419 88.1747 145.419 90.2663C145.419 91.9984 144.945 93.5834 143.997 95.0213C143.082 96.4266 141.661 97.5541 139.732 98.4038C137.804 99.2208 135.435 99.6293 132.624 99.6293ZM168.323 99.6293C164.924 99.6293 161.836 98.8777 159.058 97.3744C156.313 95.8384 154.156 93.7468 152.587 91.0997C151.051 88.4525 150.283 85.4786 150.283 82.1778C150.283 78.8771 151.051 75.9031 152.587 73.256C154.156 70.6088 156.313 68.5336 159.058 67.0303C161.836 65.4943 164.924 64.7263 168.323 64.7263C171.722 64.7263 174.778 65.478 177.49 66.9813C180.235 68.4846 182.392 70.5762 183.961 73.256C185.53 75.9031 186.314 78.8771 186.314 82.1778C186.314 85.4786 185.53 88.4689 183.961 91.1487C182.392 93.7958 180.235 95.871 177.49 97.3744C174.778 98.8777 171.722 99.6293 168.323 99.6293ZM168.323 96.3939C171.036 96.3939 173.487 95.7893 175.676 94.5802C177.866 93.3383 179.582 91.6389 180.824 89.482C182.065 87.2924 182.686 84.8576 182.686 82.1778C182.686 79.498 182.065 77.0796 180.824 74.9227C179.582 72.7331 177.866 71.0337 175.676 69.8245C173.487 68.5826 171.036 67.9617 168.323 67.9617C165.611 67.9617 163.143 68.5826 160.921 69.8245C158.731 71.0337 156.999 72.7331 155.725 74.9227C154.483 77.0796 153.862 79.498 153.862 82.1778C153.862 84.8576 154.483 87.2924 155.725 89.482C156.999 91.6389 158.731 93.3383 160.921 94.5802C163.143 95.7893 165.611 96.3939 168.323 96.3939ZM194.445 65.0204H198.072V96.1979H217.289V99.3352H194.445V65.0204ZM236.513 99.6293C232.069 99.6293 228.605 98.3548 226.121 95.8057C223.637 93.2566 222.395 89.5473 222.395 84.6779V65.0204H226.023V84.5308C226.023 88.5179 226.922 91.4918 228.719 93.4527C230.517 95.4135 233.115 96.3939 236.513 96.3939C239.945 96.3939 242.559 95.4135 244.357 93.4527C246.154 91.4918 247.053 88.5179 247.053 84.5308V65.0204H250.582V84.6779C250.582 89.5473 249.341 93.2566 246.857 95.8057C244.406 98.3548 240.958 99.6293 236.513 99.6293ZM267.51 68.1578H255.451V65.0204H283.197V68.1578H271.138V99.3352H267.51V68.1578ZM288.992 65.0204H292.62V99.3352H288.992V65.0204ZM318.785 99.6293C315.387 99.6293 312.298 98.8777 309.52 97.3744C306.775 95.8384 304.618 93.7468 303.05 91.0997C301.514 88.4525 300.746 85.4786 300.746 82.1778C300.746 78.8771 301.514 75.9031 303.05 73.256C304.618 70.6088 306.775 68.5336 309.52 67.0303C312.298 65.4943 315.387 64.7263 318.785 64.7263C322.184 64.7263 325.24 65.478 327.952 66.9813C330.698 68.4846 332.854 70.5762 334.423 73.256C335.992 75.9031 336.776 78.8771 336.776 82.1778C336.776 85.4786 335.992 88.4689 334.423 91.1487C332.854 93.7958 330.698 95.871 327.952 97.3744C325.24 98.8777 322.184 99.6293 318.785 99.6293ZM318.785 96.3939C321.498 96.3939 323.949 95.7893 326.139 94.5802C328.328 93.3383 330.044 91.6389 331.286 89.482C332.528 87.2924 333.149 84.8576 333.149 82.1778C333.149 79.498 332.528 77.0796 331.286 74.9227C330.044 72.7331 328.328 71.0337 326.139 69.8245C323.949 68.5826 321.498 67.9617 318.785 67.9617C316.073 67.9617 313.605 68.5826 311.383 69.8245C309.194 71.0337 307.462 72.7331 306.187 74.9227C304.945 77.0796 304.324 79.498 304.324 82.1778C304.324 84.8576 304.945 87.2924 306.187 89.482C307.462 91.6389 309.194 93.3383 311.383 94.5802C313.605 95.7893 316.073 96.3939 318.785 96.3939ZM373.584 65.0204V99.3352H370.594L348.535 71.4912V99.3352H344.907V65.0204H347.897L370.006 92.8644V65.0204H373.584ZM394.246 99.6293C391.697 99.6293 389.246 99.2208 386.893 98.4038C384.572 97.5868 382.775 96.5083 381.5 95.1684L382.922 92.3742C384.164 93.6161 385.814 94.6292 387.873 95.4135C389.932 96.1652 392.056 96.541 394.246 96.541C397.318 96.541 399.622 95.9854 401.158 94.8743C402.694 93.7305 403.462 92.2598 403.462 90.4624C403.462 89.0898 403.037 87.995 402.187 87.178C401.37 86.361 400.357 85.74 399.148 85.3152C397.939 84.8576 396.256 84.3674 394.099 83.8445C391.517 83.1909 389.458 82.57 387.922 81.9817C386.386 81.3608 385.062 80.4294 383.951 79.1875C382.873 77.9457 382.334 76.2626 382.334 74.1384C382.334 72.4063 382.791 70.8376 383.706 69.4323C384.621 67.9944 386.027 66.8506 387.922 66.0009C389.817 65.1512 392.17 64.7263 394.981 64.7263C396.942 64.7263 398.854 65.0041 400.716 65.5597C402.612 66.0826 404.246 66.8179 405.619 67.7656L404.393 70.6579C402.955 69.7101 401.419 69.0075 399.785 68.55C398.151 68.0597 396.55 67.8146 394.981 67.8146C391.974 67.8146 389.703 68.4029 388.167 69.5794C386.664 70.7232 385.912 72.2102 385.912 74.0403C385.912 75.4129 386.321 76.5241 387.138 77.3738C387.987 78.1908 389.033 78.828 390.275 79.2856C391.55 79.7104 393.249 80.1843 395.373 80.7072C397.89 81.3281 399.916 81.9491 401.452 82.57C403.02 83.1582 404.344 84.0733 405.423 85.3152C406.501 86.5244 407.04 88.1747 407.04 90.2663C407.04 91.9984 406.566 93.5834 405.619 95.0213C404.704 96.4266 403.282 97.5541 401.354 98.4038C399.426 99.2208 397.056 99.6293 394.246 99.6293Z" fill="white"/>
<path d="M83.6668 93.0945L70.2441 79.6719C69.8527 79.2804 69.2374 79.1685 68.6781 79.3363C68.1189 79.56 67.7833 80.0634 67.7833 80.6786V86.2713H16.6507V21.0077H44.7264V80.4439H60.4421V16.9809C60.4421 10.5492 55.1849 5.29199 48.7532 5.29199H12.6239C6.19226 5.29199 0.935059 10.5492 0.935059 16.9809V90.1863C0.935059 96.618 6.19226 101.875 12.6239 101.875H67.7833V107.468C67.7833 108.027 68.1189 108.586 68.6781 108.81C69.2374 109.034 69.7967 108.922 70.2441 108.475L83.6668 95.052C83.9464 94.7723 84.0583 94.4368 84.0583 94.0453C84.0583 93.7097 83.9464 93.3182 83.6668 93.0945Z" fill="white"/>
<path d="M39.9225 25.0701H21.3564V80.7681H39.9225V25.0701Z" fill="#1968B3"/>
<path d="M68.8863 94.9963H62.8461V93.2066H68.8863V94.9963ZM56.8059 94.9963H50.7657V93.2066H56.8059V94.9963ZM44.7255 94.9963H38.6853V93.2066H44.7255V94.9963ZM32.6451 94.9963H26.6049V93.2066H32.6451V94.9963ZM20.5647 94.9963H14.5245V93.2066H20.5647V94.9963ZM8.42842 92.4796C8.03692 91.8084 7.86914 91.0254 7.86914 90.2425V86.1038H9.65883V90.2425C9.65883 90.7458 9.77068 91.1932 9.99439 91.6406L8.42842 92.4796ZM9.71475 42.9316H7.92507V36.8914H9.71475V42.9316ZM53.5061 46.477H51.7165V39.5759H53.5061V46.477ZM53.5061 33.5357H51.7165V27.4955H53.5061V33.5357ZM9.71475 30.8512H7.92507V24.811H9.71475V30.8512ZM53.5061 21.4553H51.7165V17.0371C51.7165 16.6456 51.6046 16.1981 51.4368 15.8626L53.1147 15.1355C53.3943 15.7507 53.5061 16.4219 53.5061 17.093V21.4553ZM9.71475 18.7708H7.92507V17.0371C7.92507 15.1914 8.93177 13.5695 10.6096 12.7866L11.3926 14.4085C10.3859 14.9118 9.71475 15.9185 9.71475 17.0371V18.7708ZM47.1304 14.0729H41.0902V12.2832H47.1304V14.0729ZM35.05 14.0729H29.0098V12.2832H35.05V14.0729ZM22.9696 14.0729H16.9294V12.2832H22.9696V14.0729Z" fill="#1968B3"/>
<path d="M7.86914 81.2389H9.65883V75.1987H7.86914V81.2389Z" fill="#1968B3"/>
<path d="M7.86914 68.7006H9.65883V62.6604H7.86914V68.7006Z" fill="#1968B3"/>
<path d="M7.92507 56.1748H9.71475V50.1346H7.92507V56.1748Z" fill="#1968B3"/>
<path d="M51.7168 59.4732H53.5065V52.5721H51.7168V59.4732Z" fill="#1968B3"/>
<path d="M51.7165 70.9602H53.5061V64.0591H51.7165V70.9602Z" fill="#1968B3"/>
</svg>
