<svg width="422" height="114" viewBox="0 0 422 114" fill="none" xmlns="http://www.w3.org/2000/svg">
<path d="M163.151 43.8429H150.067L147.571 49.8817H140.888L153.448 21.7005H159.89L172.491 49.8817H165.647L163.151 43.8429ZM161.098 38.891L156.629 28.1017L152.16 38.891H161.098ZM182.783 21.7005V49.8817H176.261V26.9342H170.625V21.7005H182.783ZM206.689 27.0147H197.671V21.7005H222.229V27.0147H213.211V49.8817H206.689V27.0147ZM243.694 49.8817L238.259 42.0312H237.937H232.26V49.8817H225.738V21.7005H237.937C240.433 21.7005 242.593 22.1165 244.418 22.9485C246.27 23.7806 247.693 24.9615 248.686 26.4913C249.679 28.0212 250.175 29.8328 250.175 31.9263C250.175 34.0197 249.665 35.8314 248.646 37.3612C247.652 38.8642 246.23 40.0183 244.378 40.8235L250.699 49.8817H243.694ZM243.573 31.9263C243.573 30.3428 243.063 29.135 242.043 28.303C241.023 27.4441 239.534 27.0147 237.574 27.0147H232.26V36.8378H237.574C239.534 36.8378 241.023 36.4084 242.043 35.5496C243.063 34.6907 243.573 33.4829 243.573 31.9263ZM267.863 50.3648C263.837 50.3648 260.697 49.251 258.443 47.0233C256.215 44.7957 255.101 41.6152 255.101 37.482V21.7005H261.623V37.2404C261.623 42.2862 263.716 44.8091 267.903 44.8091C269.943 44.8091 271.5 44.2052 272.573 42.9975C273.647 41.7628 274.184 39.8438 274.184 37.2404V21.7005H280.625V37.482C280.625 41.6152 279.498 44.7957 277.243 47.0233C275.016 49.251 271.889 50.3648 267.863 50.3648ZM300.557 50.3648C297.685 50.3648 295.082 49.7475 292.747 48.5129C290.438 47.2515 288.613 45.5203 287.271 43.3195C285.956 41.0919 285.299 38.5824 285.299 35.7911C285.299 32.9998 285.956 30.5038 287.271 28.303C288.613 26.0753 290.438 24.3442 292.747 23.1096C295.082 21.8481 297.698 21.2174 300.597 21.2174C303.039 21.2174 305.24 21.6468 307.199 22.5057C309.186 23.3646 310.85 24.5992 312.192 26.2095L308.005 30.0744C306.099 27.8735 303.737 26.7731 300.919 26.7731C299.175 26.7731 297.618 27.1623 296.249 27.9406C294.88 28.6921 293.807 29.7523 293.028 31.1211C292.277 32.4899 291.901 34.0466 291.901 35.7911C291.901 37.5357 292.277 39.0923 293.028 40.4611C293.807 41.8299 294.88 42.9035 296.249 43.6819C297.618 44.4333 299.175 44.8091 300.919 44.8091C303.737 44.8091 306.099 43.6953 308.005 41.4676L312.192 45.3325C310.85 46.9697 309.186 48.2177 307.199 49.0765C305.213 49.9354 302.999 50.3648 300.557 50.3648ZM326.862 38.8105L323.078 42.7559V49.8817H316.596V21.7005H323.078V34.8652L335.558 21.7005H342.804L331.129 34.2613L343.489 49.8817H335.88L326.862 38.8105ZM346.397 21.7005H352.919V49.8817H346.397V21.7005ZM385.453 21.7005V49.8817H380.098L366.048 32.7717V49.8817H359.607V21.7005H365.001L379.012 38.8105V21.7005H385.453ZM411.163 35.3483H417.121V46.7818C415.591 47.9359 413.82 48.8216 411.807 49.4389C409.794 50.0562 407.768 50.3648 405.728 50.3648C402.803 50.3648 400.172 49.7475 397.837 48.5129C395.502 47.2515 393.664 45.5203 392.322 43.3195C391.007 41.0919 390.349 38.5824 390.349 35.7911C390.349 32.9998 391.007 30.5038 392.322 28.303C393.664 26.0753 395.516 24.3442 397.878 23.1096C400.239 21.8481 402.896 21.2174 405.849 21.2174C408.318 21.2174 410.559 21.6334 412.572 22.4654C414.585 23.2975 416.276 24.5052 417.645 26.0887L413.458 29.9536C411.445 27.8333 409.016 26.7731 406.171 26.7731C404.373 26.7731 402.776 27.1489 401.38 27.9004C399.984 28.6519 398.897 29.712 398.119 31.0808C397.341 32.4496 396.952 34.0197 396.952 35.7911C396.952 37.5357 397.341 39.0923 398.119 40.4611C398.897 41.8299 399.971 42.9035 401.34 43.6819C402.735 44.4333 404.319 44.8091 406.09 44.8091C407.969 44.8091 409.66 44.4065 411.163 43.6013V35.3483Z" fill="white"/>
<path d="M151.436 90.6401C149.343 90.6401 147.33 90.3046 145.397 89.6336C143.492 88.9627 142.016 88.077 140.969 86.9766L142.136 84.6818C143.156 85.7017 144.512 86.5337 146.202 87.1779C147.893 87.7952 149.638 88.1038 151.436 88.1038C153.959 88.1038 155.851 87.6475 157.113 86.735C158.374 85.7956 159.005 84.5879 159.005 83.1117C159.005 81.9845 158.656 81.0853 157.958 80.4144C157.287 79.7434 156.455 79.2334 155.462 78.8845C154.469 78.5088 153.087 78.1062 151.315 77.6768C149.195 77.14 147.504 76.63 146.243 76.1469C144.981 75.637 143.894 74.8721 142.982 73.8522C142.096 72.8323 141.653 71.4501 141.653 69.7055C141.653 68.283 142.029 66.9947 142.78 65.8407C143.532 64.6597 144.686 63.7204 146.243 63.0225C147.799 62.3247 149.732 61.9758 152.04 61.9758C153.65 61.9758 155.22 62.2039 156.75 62.6602C158.307 63.0896 159.649 63.6935 160.776 64.4719L159.77 66.8471C158.589 66.0688 157.327 65.4918 155.985 65.116C154.643 64.7134 153.328 64.5121 152.04 64.5121C149.571 64.5121 147.705 64.9952 146.444 65.9614C145.209 66.9008 144.592 68.122 144.592 69.625C144.592 70.7522 144.928 71.6648 145.599 72.3626C146.296 73.0336 147.155 73.5569 148.175 73.9327C149.222 74.2816 150.618 74.6708 152.362 75.1002C154.429 75.6101 156.093 76.1201 157.354 76.63C158.642 77.1131 159.729 77.8646 160.615 78.8845C161.501 79.8776 161.944 81.233 161.944 82.9507C161.944 84.3732 161.555 85.6749 160.776 86.8558C160.025 88.0099 158.857 88.9358 157.274 89.6336C155.69 90.3046 153.744 90.6401 151.436 90.6401ZM180.754 90.6401C177.963 90.6401 175.426 90.0228 173.145 88.7882C170.891 87.5268 169.119 85.8091 167.831 83.6351C166.569 81.4611 165.939 79.0187 165.939 76.308C165.939 73.5972 166.569 71.1548 167.831 68.9809C169.119 66.8069 170.891 65.1026 173.145 63.868C175.426 62.6065 177.963 61.9758 180.754 61.9758C183.545 61.9758 186.055 62.5931 188.282 63.8277C190.537 65.0623 192.308 66.78 193.597 68.9809C194.885 71.1548 195.529 73.5972 195.529 76.308C195.529 79.0187 194.885 81.4745 193.597 83.6753C192.308 85.8493 190.537 87.5536 188.282 88.7882C186.055 90.0228 183.545 90.6401 180.754 90.6401ZM180.754 87.983C182.982 87.983 184.995 87.4865 186.793 86.4935C188.591 85.4736 190 84.0779 191.02 82.3065C192.04 80.5083 192.55 78.5088 192.55 76.308C192.55 74.1071 192.04 72.121 191.02 70.3497C190 68.5514 188.591 67.1558 186.793 66.1627C184.995 65.1428 182.982 64.6329 180.754 64.6329C178.526 64.6329 176.5 65.1428 174.675 66.1627C172.877 67.1558 171.454 68.5514 170.407 70.3497C169.388 72.121 168.878 74.1071 168.878 76.308C168.878 78.5088 169.388 80.5083 170.407 82.3065C171.454 84.0779 172.877 85.4736 174.675 86.4935C176.5 87.4865 178.526 87.983 180.754 87.983ZM202.207 62.2174H205.186V87.822H220.967V90.3986H202.207V62.2174ZM236.756 90.6401C233.105 90.6401 230.261 89.5934 228.221 87.4999C226.181 85.4065 225.161 82.3602 225.161 78.3612V62.2174H228.14V78.2404C228.14 81.5148 228.878 83.9571 230.354 85.5675C231.831 87.1779 233.964 87.983 236.756 87.983C239.574 87.983 241.721 87.1779 243.197 85.5675C244.673 83.9571 245.411 81.5148 245.411 78.2404V62.2174H248.31V78.3612C248.31 82.3602 247.29 85.4065 245.25 87.4999C243.237 89.5934 240.406 90.6401 236.756 90.6401ZM262.212 64.7939H252.308V62.2174H275.095V64.7939H265.191V90.3986H262.212V64.7939ZM279.854 62.2174H282.833V90.3986H279.854V62.2174ZM304.322 90.6401C301.531 90.6401 298.994 90.0228 296.713 88.7882C294.459 87.5268 292.687 85.8091 291.399 83.6351C290.137 81.4611 289.507 79.0187 289.507 76.308C289.507 73.5972 290.137 71.1548 291.399 68.9809C292.687 66.8069 294.459 65.1026 296.713 63.868C298.994 62.6065 301.531 61.9758 304.322 61.9758C307.113 61.9758 309.623 62.5931 311.85 63.8277C314.105 65.0623 315.876 66.78 317.164 68.9809C318.453 71.1548 319.097 73.5972 319.097 76.308C319.097 79.0187 318.453 81.4745 317.164 83.6753C315.876 85.8493 314.105 87.5536 311.85 88.7882C309.623 90.0228 307.113 90.6401 304.322 90.6401ZM304.322 87.983C306.55 87.983 308.563 87.4865 310.361 86.4935C312.159 85.4736 313.568 84.0779 314.588 82.3065C315.608 80.5083 316.118 78.5088 316.118 76.308C316.118 74.1071 315.608 72.121 314.588 70.3497C313.568 68.5514 312.159 67.1558 310.361 66.1627C308.563 65.1428 306.55 64.6329 304.322 64.6329C302.094 64.6329 300.068 65.1428 298.243 66.1627C296.445 67.1558 295.022 68.5514 293.975 70.3497C292.956 72.121 292.446 74.1071 292.446 76.308C292.446 78.5088 292.956 80.5083 293.975 82.3065C295.022 84.0779 296.445 85.4736 298.243 86.4935C300.068 87.4865 302.094 87.983 304.322 87.983ZM349.326 62.2174V90.3986H346.87L328.754 67.5315V90.3986H325.775V62.2174H328.23L346.387 85.0844V62.2174H349.326ZM366.294 90.6401C364.201 90.6401 362.188 90.3046 360.255 89.6336C358.35 88.9627 356.874 88.077 355.827 86.9766L356.994 84.6818C358.014 85.7017 359.37 86.5337 361.06 87.1779C362.751 87.7952 364.496 88.1038 366.294 88.1038C368.817 88.1038 370.709 87.6475 371.971 86.735C373.232 85.7956 373.863 84.5879 373.863 83.1117C373.863 81.9845 373.514 81.0853 372.816 80.4144C372.145 79.7434 371.313 79.2334 370.32 78.8845C369.327 78.5088 367.945 78.1062 366.173 77.6768C364.053 77.14 362.362 76.63 361.101 76.1469C359.839 75.637 358.752 74.8721 357.84 73.8522C356.954 72.8323 356.511 71.4501 356.511 69.7055C356.511 68.283 356.887 66.9947 357.638 65.8407C358.39 64.6597 359.544 63.7204 361.101 63.0225C362.657 62.3247 364.59 61.9758 366.898 61.9758C368.508 61.9758 370.078 62.2039 371.608 62.6602C373.165 63.0896 374.507 63.6935 375.634 64.4719L374.628 66.8471C373.447 66.0688 372.185 65.4918 370.843 65.116C369.501 64.7134 368.186 64.5121 366.898 64.5121C364.429 64.5121 362.563 64.9952 361.302 65.9614C360.067 66.9008 359.45 68.122 359.45 69.625C359.45 70.7522 359.786 71.6648 360.457 72.3626C361.154 73.0336 362.013 73.5569 363.033 73.9327C364.08 74.2816 365.476 74.6708 367.22 75.1002C369.287 75.6101 370.951 76.1201 372.212 76.63C373.5 77.1131 374.587 77.8646 375.473 78.8845C376.359 79.8776 376.802 81.233 376.802 82.9507C376.802 84.3732 376.413 85.6749 375.634 86.8558C374.883 88.0099 373.715 88.9358 372.132 89.6336C370.548 90.3046 368.602 90.6401 366.294 90.6401Z" fill="white"/>
<g clip-path="url(#clip0)">
<path d="M0.207733 66.8521C1.14473 72.9602 1.24884 73.6974 2.60228 78.3312L3.53928 81.2799C11.2435 98.4458 37.5835 92.1271 48.6193 88.5464C92.3458 72.7496 121.185 36.2063 105.88 16.0916L104.423 14.512C120.039 34.1 82.9758 69.6956 45.1836 80.0162C14.0545 87.8093 1.45706 77.594 -0.000488281 65.5884L0.207733 66.8521Z" fill="url(#paint0_linear)"/>
<path d="M1.66293 43.2621C1.14237 45.895 0.517708 49.5809 0.101264 52.2137C-1.25218 80.8586 49.4498 71.1699 78.0803 43.6834C96.7161 25.7803 99.5271 7.14006 84.431 0.400078L83.9105 0.189453C106.711 11.4579 81.3077 44.8418 47.4717 58.1112C21.8604 68.2211 -3.12617 63.9033 1.97526 41.7878L1.66293 43.2621Z" fill="url(#paint1_linear)"/>
<path d="M11.2432 96.4448C12.3884 97.9192 13.846 99.9201 14.9912 101.394C41.6436 128.249 119.31 78.7524 119.518 45.1578C119.518 44.1046 119.518 42.209 118.686 39.155L118.165 37.47C128.056 74.5399 45.5998 117.297 16.2405 100.236C12.3884 98.0245 10.7226 95.497 9.78564 94.1279L11.2432 96.4448Z" fill="url(#paint2_linear)"/>
<path d="M114.002 57.7952C114.002 88.441 89.4315 113.189 59.2393 113.189C28.9431 113.189 4.47705 88.3357 4.47705 57.7952C4.47705 27.2546 28.9431 2.29565 59.1352 2.29565C89.4315 2.29565 114.002 27.1493 114.002 57.7952Z" fill="url(#paint3_linear)"/>
<path d="M100.05 30.6246C107.025 51.8977 91.9291 76.1195 66.3178 84.6498C40.7066 93.1801 14.3665 82.8595 7.39111 61.5864C0.519796 40.3133 15.6159 16.0915 41.123 7.56124C66.7343 -0.969045 93.0743 9.35155 100.05 30.6246Z" fill="url(#paint4_linear)"/>
<path d="M74.9602 20.7253C78.9164 32.9415 70.2752 46.7374 55.6997 51.6871C40.916 56.6367 25.8199 50.7393 21.8637 38.523C17.9075 26.3068 26.5487 12.5109 41.1242 7.56125C55.8038 2.71689 70.8999 8.61437 74.9602 20.7253Z" fill="url(#paint5_linear)"/>
<g opacity="0.2">
<g opacity="0.2">
<g opacity="0.2">
<path opacity="0.2" d="M65.6935 23.358C61.1126 27.3598 57.9893 30.0979 52.2632 36.4167C51.9508 34.2051 51.5344 31.2564 51.222 29.0448C16.0326 44.8416 3.74751 65.0616 7.18317 77.2778L6.35028 74.5397C4.99684 68.8528 4.89273 68.3263 4.37218 64.0085L4.26807 62.85C4.26807 47.3691 19.6765 30.5192 45.2877 17.8817C44.1425 16.9339 42.4767 15.6702 41.3315 14.8277C47.0576 13.8799 51.3262 13.248 59.0304 13.0374C65.5893 13.0374 70.4826 13.1427 78.4991 14.4064C75.7922 15.8808 71.1072 18.7242 65.6935 23.358Z" fill="#211915"/>
</g>
<g opacity="0.2">
<path opacity="0.2" d="M30.3986 17.6712C26.9629 21.4624 26.4423 21.989 23.9437 25.2537L24.4642 21.989C19.8834 25.6749 8.01473 35.153 6.03662 46.7374C6.45306 44.3152 7.28595 41.0505 7.91062 38.6283L8.32706 37.3646C10.4093 31.9937 13.8449 25.8856 24.3601 17.25L23.9437 15.7756C26.7547 14.5118 27.1711 14.3012 29.7739 13.3534C33.2095 12.195 33.9383 11.9843 37.1658 11.1418C34.3548 13.7747 32.689 15.3543 30.3986 17.6712Z" fill="#211915"/>
</g>
<g opacity="0.2">
<path opacity="0.2" d="M42.4762 52.1083C39.6652 56.7421 39.1447 57.4793 37.2707 61.2705L35.9172 57.058C6.45389 80.0161 16.3444 93.2854 18.5307 95.9182C17.4896 94.5492 15.928 92.6535 14.8869 91.2845L12.7005 89.7048C4.37167 73.4867 23.0075 56.1102 31.3364 49.3702L28.5254 46.5268C33.4186 45.4737 34.0433 45.3684 38.2077 44.6312C43.5173 43.894 44.2461 43.7887 48.7229 43.3674C46.016 47.0534 44.4543 49.0543 42.4762 52.1083Z" fill="#211915"/>
</g>
</g>
</g>
<path d="M61.3212 19.6721C56.7403 24.2005 53.7211 27.3599 48.0991 34.6264C47.6827 32.2043 47.058 29.0449 46.7457 26.6227C11.348 45.3683 -0.416503 68.1157 3.53971 81.2798L2.60271 78.331C1.04105 72.2229 0.832826 71.591 0.208161 66.852L-6.01877e-05 65.5882C-0.520614 48.633 14.4713 29.4661 40.2908 14.5118C39.0415 13.564 37.3757 12.3003 36.1264 11.3524C41.9566 10.0887 46.3293 9.14089 54.2417 8.50901C60.9048 8.19308 66.0062 8.08776 74.3351 9.14089C71.5241 11.1418 66.8391 14.4065 61.3212 19.6721Z" fill="url(#paint6_linear)"/>
<path d="M23.9449 19.3562C20.6134 23.5687 20.0928 24.3059 17.5941 27.9918L18.0106 24.4112C13.5338 28.5184 1.66518 39.4709 0.103516 52.2136C0.519959 49.4755 1.14462 45.8949 1.66518 43.2621L2.08162 41.7877C4.05973 35.7849 7.28716 28.9396 17.6982 19.0403L17.1777 17.5659C19.9887 16.0916 20.4051 15.8809 23.112 14.7225C26.6518 13.3534 27.2764 13.0375 30.608 11.9844C27.797 14.9331 26.1312 16.6181 23.9449 19.3562Z" fill="url(#paint7_linear)"/>
<path d="M38.7299 51.6872C36.023 56.8475 35.6066 57.6899 33.7326 62.0077L32.1709 57.374C2.91577 83.8074 12.7022 98.6564 14.9926 101.289C13.8474 99.8148 12.2857 97.9192 11.2446 96.3395L9.68298 93.9173C0.521226 76.5408 18.8447 56.7421 27.1736 48.949L24.2585 46.0003C29.2558 44.6312 29.8805 44.4206 34.149 43.4728C39.5628 42.4197 40.3957 42.3144 44.8724 41.6825C42.0614 45.895 40.6039 48.2119 38.7299 51.6872Z" fill="url(#paint8_linear)"/>
</g>
<defs>
<linearGradient id="paint0_linear" x1="67.6536" y1="45.4301" x2="71.5663" y2="-20.2295" gradientUnits="userSpaceOnUse">
<stop offset="0.0353535" stop-color="#094986"/>
<stop offset="1" stop-color="#4C97DD"/>
</linearGradient>
<linearGradient id="paint1_linear" x1="57.9125" y1="27.6146" x2="61.5126" y2="-30.6113" gradientUnits="userSpaceOnUse">
<stop offset="0.0353535" stop-color="#094986"/>
<stop offset="1" stop-color="#4C97DD"/>
</linearGradient>
<linearGradient id="paint2_linear" x1="77.2585" y1="65.7892" x2="80.5517" y2="5.61547" gradientUnits="userSpaceOnUse">
<stop offset="0.0353535" stop-color="#094986"/>
<stop offset="1" stop-color="#4C97DD"/>
</linearGradient>
<linearGradient id="paint3_linear" x1="71.8219" y1="46.1483" x2="79.7005" y2="-46.6415" gradientUnits="userSpaceOnUse">
<stop offset="0.0353535" stop-color="#1968B3"/>
<stop offset="1" stop-color="#4C97DD"/>
</linearGradient>
<linearGradient id="paint4_linear" x1="28.249" y1="114.276" x2="61.656" y2="-15.6518" gradientUnits="userSpaceOnUse">
<stop offset="0.0353535" stop-color="#1968B3"/>
<stop offset="1" stop-color="#4C97DD"/>
</linearGradient>
<linearGradient id="paint5_linear" x1="54.7323" y1="24.679" x2="57.6244" y2="-15.2041" gradientUnits="userSpaceOnUse">
<stop offset="0.0353535" stop-color="#1968B3"/>
<stop offset="1" stop-color="#4C97DD"/>
</linearGradient>
<linearGradient id="paint6_linear" x1="-41.2889" y1="155.564" x2="50.9275" y2="-23.8002" gradientUnits="userSpaceOnUse">
<stop offset="0.0353535" stop-color="#D3EAFF"/>
<stop offset="1" stop-color="#85C3FF"/>
</linearGradient>
<linearGradient id="paint7_linear" x1="-16.8316" y1="93.1575" x2="41.6163" y2="8.53231" gradientUnits="userSpaceOnUse">
<stop offset="0.0353535" stop-color="#D3EAFF"/>
<stop offset="1" stop-color="#85C3FF"/>
</linearGradient>
<linearGradient id="paint8_linear" x1="-13.7453" y1="161.955" x2="77.2331" y2="52.1034" gradientUnits="userSpaceOnUse">
<stop offset="0.0353535" stop-color="#D3EAFF"/>
<stop offset="1" stop-color="#85C3FF"/>
</linearGradient>
<clipPath id="clip0">
<rect y="0.189453" width="119.519" height="113" fill="white"/>
</clipPath>
</defs>
</svg>
