<svg width="414" height="118" viewBox="0 0 414 118" fill="none" xmlns="http://www.w3.org/2000/svg">
<path d="M122.271 40.3593H107.472L104.649 47.1895H97.0902L111.297 15.3154H118.582L132.835 47.1895H125.094L122.271 40.3593ZM119.948 34.7586L114.894 22.5554L109.84 34.7586H119.948ZM144.476 15.3154V47.1895H137.099V21.2349H130.724V15.3154H144.476ZM171.514 21.326H161.315V15.3154H189.09V21.326H178.891V47.1895H171.514V21.326ZM213.368 47.1895L207.221 38.3103H206.856H200.436V47.1895H193.059V15.3154H206.856C209.679 15.3154 212.123 15.786 214.187 16.727C216.282 17.6681 217.891 19.0037 219.014 20.734C220.137 22.4643 220.699 24.5134 220.699 26.8812C220.699 29.2489 220.122 31.298 218.968 33.0283C217.845 34.7282 216.236 36.0336 214.142 36.9442L221.291 47.1895H213.368ZM213.231 26.8812C213.231 25.0901 212.654 23.7241 211.501 22.7831C210.347 21.8117 208.662 21.326 206.446 21.326H200.436V32.4363H206.446C208.662 32.4363 210.347 31.9506 211.501 30.9792C212.654 30.0078 213.231 28.6418 213.231 26.8812ZM240.704 47.7359C236.151 47.7359 232.599 46.4761 230.049 43.9565C227.53 41.437 226.27 37.8397 226.27 33.1649V15.3154H233.646V32.8917C233.646 38.5986 236.014 41.4521 240.75 41.4521C243.057 41.4521 244.818 40.7691 246.032 39.4031C247.246 38.0067 247.853 35.8362 247.853 32.8917V15.3154H255.139V33.1649C255.139 37.8397 253.864 41.437 251.314 43.9565C248.794 46.4761 245.258 47.7359 240.704 47.7359ZM277.682 47.7359C274.434 47.7359 271.489 47.0377 268.848 45.6413C266.238 44.2145 264.174 42.2566 262.656 39.7674C261.168 37.2478 260.425 34.4095 260.425 31.2524C260.425 28.0954 261.168 25.2723 262.656 22.7831C264.174 20.2635 266.238 18.3055 268.848 16.9091C271.489 15.4824 274.449 14.769 277.728 14.769C280.49 14.769 282.979 15.2547 285.195 16.2261C287.442 17.1975 289.324 18.5939 290.841 20.4153L286.106 24.7866C283.951 22.2974 281.279 21.0528 278.092 21.0528C276.119 21.0528 274.358 21.4929 272.81 22.3733C271.262 23.2232 270.047 24.4223 269.167 25.9705C268.317 27.5186 267.892 29.2793 267.892 31.2524C267.892 33.2256 268.317 34.9863 269.167 36.5344C270.047 38.0826 271.262 39.2968 272.81 40.1772C274.358 41.0271 276.119 41.4521 278.092 41.4521C281.279 41.4521 283.951 40.1923 286.106 37.6728L290.841 42.0441C289.324 43.8958 287.442 45.3074 285.195 46.2788C282.949 47.2502 280.444 47.7359 277.682 47.7359ZM307.434 34.6675L303.154 39.1299V47.1895H295.823V15.3154H303.154V30.2052L317.269 15.3154H325.466L312.261 29.5221L326.24 47.1895H317.634L307.434 34.6675ZM329.529 15.3154H336.905V47.1895H329.529V15.3154ZM373.703 15.3154V47.1895H367.647L351.755 27.8374V47.1895H344.47V15.3154H350.571L366.417 34.6675V15.3154H373.703ZM402.782 30.7516H409.521V43.6833C407.791 44.9886 405.787 45.9904 403.51 46.6886C401.234 47.3868 398.942 47.7359 396.635 47.7359C393.326 47.7359 390.351 47.0377 387.71 45.6413C385.069 44.2145 382.99 42.2566 381.472 39.7674C379.984 37.2478 379.241 34.4095 379.241 31.2524C379.241 28.0954 379.984 25.2723 381.472 22.7831C382.99 20.2635 385.084 18.3055 387.755 16.9091C390.427 15.4824 393.432 14.769 396.771 14.769C399.564 14.769 402.099 15.2396 404.375 16.1806C406.652 17.1216 408.565 18.4877 410.113 20.2787L405.377 24.65C403.101 22.2518 400.353 21.0528 397.136 21.0528C395.102 21.0528 393.295 21.4778 391.717 22.3277C390.138 23.1777 388.909 24.3768 388.029 25.9249C387.148 27.4731 386.708 29.2489 386.708 31.2524C386.708 33.2256 387.148 34.9863 388.029 36.5344C388.909 38.0826 390.123 39.2968 391.671 40.1772C393.25 41.0271 395.041 41.4521 397.044 41.4521C399.169 41.4521 401.082 40.9968 402.782 40.0861V30.7516Z" fill="white"/>
<path d="M112.582 102.582C110.214 102.582 107.937 102.203 105.752 101.444C103.596 100.685 101.927 99.683 100.743 98.4384L102.063 95.843C103.217 96.9965 104.75 97.9375 106.662 98.6661C108.575 99.3643 110.548 99.7134 112.582 99.7134C115.435 99.7134 117.575 99.1973 119.002 98.1652C120.429 97.1028 121.142 95.7367 121.142 94.0671C121.142 92.7922 120.748 91.7752 119.958 91.0163C119.199 90.2574 118.258 89.6807 117.135 89.286C116.012 88.861 114.449 88.4057 112.445 87.92C110.047 87.3129 108.135 86.7361 106.708 86.1897C105.281 85.6129 104.052 84.7478 103.02 83.5942C102.018 82.4407 101.517 80.8774 101.517 78.9042C101.517 77.2953 101.942 75.8382 102.792 74.5329C103.642 73.1972 104.947 72.1348 106.708 71.3455C108.469 70.5563 110.654 70.1616 113.265 70.1616C115.086 70.1616 116.862 70.4197 118.592 70.9357C120.353 71.4214 121.871 72.1044 123.146 72.9848L122.007 75.6713C120.672 74.7909 119.245 74.1383 117.727 73.7133C116.209 73.258 114.722 73.0303 113.265 73.0303C110.472 73.0303 108.362 73.5767 106.936 74.6695C105.539 75.732 104.841 77.1132 104.841 78.8131C104.841 80.0881 105.22 81.1202 105.979 81.9095C106.769 82.6684 107.74 83.2603 108.894 83.6853C110.077 84.0799 111.656 84.5201 113.629 85.0058C115.967 85.5826 117.849 86.1593 119.275 86.7361C120.732 87.2825 121.962 88.1325 122.964 89.286C123.965 90.4092 124.466 91.9422 124.466 93.885C124.466 95.4939 124.026 96.9661 123.146 98.3018C122.296 99.6071 120.975 100.654 119.184 101.444C117.393 102.203 115.192 102.582 112.582 102.582ZM145.741 102.582C142.584 102.582 139.716 101.884 137.135 100.487C134.586 99.0607 132.582 97.1179 131.125 94.6591C129.698 92.2002 128.985 89.4378 128.985 86.3718C128.985 83.3059 129.698 80.5434 131.125 78.0846C132.582 75.6257 134.586 73.6981 137.135 72.3017C139.716 70.875 142.584 70.1616 145.741 70.1616C148.898 70.1616 151.737 70.8598 154.256 72.2562C156.806 73.6526 158.81 75.5954 160.267 78.0846C161.724 80.5434 162.453 83.3059 162.453 86.3718C162.453 89.4378 161.724 92.2154 160.267 94.7046C158.81 97.1635 156.806 99.0911 154.256 100.487C151.737 101.884 148.898 102.582 145.741 102.582ZM145.741 99.5768C148.261 99.5768 150.538 99.0152 152.572 97.892C154.605 96.7385 156.199 95.16 157.353 93.1564C158.506 91.1226 159.083 88.861 159.083 86.3718C159.083 83.8826 158.506 81.6363 157.353 79.6328C156.199 77.5989 154.605 76.0204 152.572 74.8972C150.538 73.7437 148.261 73.1669 145.741 73.1669C143.222 73.1669 140.93 73.7437 138.866 74.8972C136.832 76.0204 135.223 77.5989 134.039 79.6328C132.886 81.6363 132.309 83.8826 132.309 86.3718C132.309 88.861 132.886 91.1226 134.039 93.1564C135.223 95.16 136.832 96.7385 138.866 97.892C140.93 99.0152 143.222 99.5768 145.741 99.5768ZM170.005 70.4348H173.375V99.3946H191.224V102.309H170.005V70.4348ZM209.081 102.582C204.953 102.582 201.735 101.398 199.428 99.0304C197.121 96.6626 195.968 93.2172 195.968 88.6941V70.4348H199.337V88.5575C199.337 92.2609 200.172 95.0234 201.841 96.8447C203.511 98.6661 205.924 99.5768 209.081 99.5768C212.269 99.5768 214.697 98.6661 216.367 96.8447C218.037 95.0234 218.871 92.2609 218.871 88.5575V70.4348H222.15V88.6941C222.15 93.2172 220.996 96.6626 218.689 99.0304C216.412 101.398 213.21 102.582 209.081 102.582ZM237.874 73.349H226.672V70.4348H252.445V73.349H241.243V102.309H237.874V73.349ZM257.828 70.4348H261.197V102.309H257.828V70.4348ZM285.501 102.582C282.344 102.582 279.476 101.884 276.896 100.487C274.346 99.0607 272.342 97.1179 270.885 94.6591C269.458 92.2002 268.745 89.4378 268.745 86.3718C268.745 83.3059 269.458 80.5434 270.885 78.0846C272.342 75.6257 274.346 73.6981 276.896 72.3017C279.476 70.875 282.344 70.1616 285.501 70.1616C288.659 70.1616 291.497 70.8598 294.016 72.2562C296.566 73.6526 298.57 75.5954 300.027 78.0846C301.484 80.5434 302.213 83.3059 302.213 86.3718C302.213 89.4378 301.484 92.2154 300.027 94.7046C298.57 97.1635 296.566 99.0911 294.016 100.487C291.497 101.884 288.659 102.582 285.501 102.582ZM285.501 99.5768C288.021 99.5768 290.298 99.0152 292.332 97.892C294.366 96.7385 295.959 95.16 297.113 93.1564C298.266 91.1226 298.843 88.861 298.843 86.3718C298.843 83.8826 298.266 81.6363 297.113 79.6328C295.959 77.5989 294.366 76.0204 292.332 74.8972C290.298 73.7437 288.021 73.1669 285.501 73.1669C282.982 73.1669 280.69 73.7437 278.626 74.8972C276.592 76.0204 274.983 77.5989 273.799 79.6328C272.646 81.6363 272.069 83.8826 272.069 86.3718C272.069 88.861 272.646 91.1226 273.799 93.1564C274.983 95.16 276.592 96.7385 278.626 97.892C280.69 99.0152 282.982 99.5768 285.501 99.5768ZM336.403 70.4348V102.309H333.625L313.135 76.4454V102.309H309.765V70.4348H312.543L333.079 96.2983V70.4348H336.403ZM355.594 102.582C353.227 102.582 350.95 102.203 348.764 101.444C346.609 100.685 344.939 99.683 343.755 98.4384L345.076 95.843C346.23 96.9965 347.763 97.9375 349.675 98.6661C351.587 99.3643 353.561 99.7134 355.594 99.7134C358.448 99.7134 360.588 99.1973 362.015 98.1652C363.441 97.1028 364.155 95.7367 364.155 94.0671C364.155 92.7922 363.76 91.7752 362.971 91.0163C362.212 90.2574 361.271 89.6807 360.148 89.286C359.025 88.861 357.461 88.4057 355.458 87.92C353.06 87.3129 351.147 86.7361 349.72 86.1897C348.294 85.6129 347.064 84.7478 346.032 83.5942C345.03 82.4407 344.53 80.8774 344.53 78.9042C344.53 77.2953 344.955 75.8382 345.805 74.5329C346.655 73.1972 347.96 72.1348 349.72 71.3455C351.481 70.5563 353.667 70.1616 356.277 70.1616C358.099 70.1616 359.875 70.4197 361.605 70.9357C363.366 71.4214 364.883 72.1044 366.158 72.9848L365.02 75.6713C363.684 74.7909 362.258 74.1383 360.74 73.7133C359.222 73.258 357.735 73.0303 356.277 73.0303C353.485 73.0303 351.375 73.5767 349.948 74.6695C348.552 75.732 347.854 77.1132 347.854 78.8131C347.854 80.0881 348.233 81.1202 348.992 81.9095C349.781 82.6684 350.753 83.2603 351.906 83.6853C353.09 84.0799 354.669 84.5201 356.642 85.0058C358.979 85.5826 360.861 86.1593 362.288 86.7361C363.745 87.2825 364.974 88.1325 365.976 89.286C366.978 90.4092 367.479 91.9422 367.479 93.885C367.479 95.4939 367.039 96.9661 366.158 98.3018C365.308 99.6071 363.988 100.654 362.197 101.444C360.406 102.203 358.205 102.582 355.594 102.582Z" fill="white"/>
<path d="M95.7533 18.3361L69.863 15.0254L72.5787 22.4432C54.1253 33.258 5.4538 61.7681 3.07396 63.1787C0.127953 64.906 0.617352 67.545 0.617352 67.545V74.4446V77.1219C0.617352 77.1219 2.07597 73.7633 5.37703 72.2279C8.01597 70.9996 58.3956 47.5179 78.3555 38.2192L80.8889 45.1476L95.7533 18.3361Z" fill="url(#paint0_linear)"/>
<path d="M44.2605 24.161H30.2886V79.2332H44.2605V24.161Z" fill="white"/>
<path d="M62.7132 2.10901H48.7412V79.233H62.7132V2.10901Z" fill="white"/>
<path d="M26.1819 43.142H12.21V79.233H26.1819V43.142Z" fill="white"/>
<path d="M65.4191 93.2145L62.9146 87.2745C62.9146 87.2745 37.149 96.2949 35.3353 97.3697C33.512 98.4444 33.8095 100.076 33.8095 100.076V104.346V106.006C33.8095 106.006 34.7116 103.933 36.7555 102.974C38.3773 102.216 52.4548 98.2717 62.7898 97.552C65.4575 97.3793 65.4191 93.2145 65.4191 93.2145Z" fill="url(#paint1_linear)"/>
<path d="M65.7173 76.6998C49.0104 75.5482 7.9966 72.6214 5.36727 71.4027C2.0662 69.8673 0.607586 66.5087 0.607586 66.5087V69.186V76.0856C0.607586 76.0856 0.118187 78.7245 3.0642 80.4518C5.58798 81.9392 49.8933 90.3071 62.5602 92.6869C65.2567 94.0591 64.537 96.6213 64.2491 97.389L68.0107 88.3494L69.9588 83.7241C69.9588 83.7145 70.0259 76.9972 65.7173 76.6998Z" fill="url(#paint2_linear)"/>
<path d="M64.2493 97.3793L64.1533 97.6C64.1629 97.6 64.2013 97.5232 64.2493 97.3793Z" fill="url(#paint3_radial)"/>
<defs>
<linearGradient id="paint0_linear" x1="59.1032" y1="39.5813" x2="61.9583" y2="-12.596" gradientUnits="userSpaceOnUse">
<stop offset="0.0353535" stop-color="#1968B3"/>
<stop offset="1" stop-color="#4C97DD"/>
</linearGradient>
<linearGradient id="paint1_linear" x1="53.2388" y1="94.6819" x2="54.021" y2="78.9342" gradientUnits="userSpaceOnUse">
<stop offset="0.0353535" stop-color="#1968B3"/>
<stop offset="1" stop-color="#4C97DD"/>
</linearGradient>
<linearGradient id="paint2_linear" x1="43.2388" y1="78.7202" x2="44.2088" y2="52.7312" gradientUnits="userSpaceOnUse">
<stop offset="0.0353535" stop-color="#1968B3"/>
<stop offset="1" stop-color="#4C97DD"/>
</linearGradient>
<radialGradient id="paint3_radial" cx="0" cy="0" r="1" gradientUnits="userSpaceOnUse" gradientTransform="translate(64.2063 97.4936) scale(0.0846666)">
<stop stop-color="#00A5E5"/>
<stop offset="0.0706497" stop-color="#029FDE"/>
<stop offset="0.4735" stop-color="#0980B8"/>
<stop offset="0.7974" stop-color="#0E6DA1"/>
<stop offset="1" stop-color="#106698"/>
</radialGradient>
</defs>
</svg>
