<svg width="423" height="144" viewBox="0 0 423 144" fill="none" xmlns="http://www.w3.org/2000/svg">
<path d="M151.114 50.3625H137.352L134.726 56.7144H127.697L140.909 27.0724H147.684L160.938 56.7144H153.74L151.114 50.3625ZM148.954 45.154L144.254 33.8054L139.554 45.154H148.954ZM171.764 27.0724V56.7144H164.904V32.5774H158.976V27.0724H171.764ZM196.909 32.6621H187.424V27.0724H213.255V32.6621H203.769V56.7144H196.909V32.6621ZM235.832 56.7144L230.115 48.457H229.776H223.806V56.7144H216.946V27.0724H229.776C232.402 27.0724 234.674 27.51 236.594 28.3852C238.542 29.2603 240.038 30.5024 241.083 32.1116C242.127 33.7207 242.649 35.6263 242.649 37.8282C242.649 40.0302 242.113 41.9357 241.04 43.5449C239.996 45.1258 238.5 46.3397 236.552 47.1866L243.2 56.7144H235.832ZM235.705 37.8282C235.705 36.1626 235.168 34.8923 234.096 34.0171C233.023 33.1138 231.456 32.6621 229.395 32.6621H223.806V42.9944H229.395C231.456 42.9944 233.023 42.5427 234.096 41.6393C235.168 40.736 235.705 39.4656 235.705 37.8282ZM261.254 57.2225C257.019 57.2225 253.716 56.0509 251.345 53.7078C249.002 51.3647 247.83 48.0194 247.83 43.6719V27.0724H254.69V43.4178C254.69 48.7252 256.892 51.3788 261.296 51.3788C263.442 51.3788 265.079 50.7436 266.208 49.4733C267.338 48.1747 267.902 46.1562 267.902 43.4178V27.0724H274.678V43.6719C274.678 48.0194 273.492 51.3647 271.121 53.7078C268.777 56.0509 265.489 57.2225 261.254 57.2225ZM295.642 57.2225C292.622 57.2225 289.883 56.5732 287.427 55.2746C284.999 53.9478 283.08 52.1269 281.668 49.812C280.285 47.4689 279.593 44.8294 279.593 41.8934C279.593 38.9574 280.285 36.332 281.668 34.0171C283.08 31.674 284.999 29.8531 287.427 28.5545C289.883 27.2277 292.636 26.5643 295.685 26.5643C298.254 26.5643 300.568 27.016 302.629 27.9194C304.718 28.8227 306.469 30.1213 307.88 31.8152L303.476 35.8803C301.472 33.5654 298.988 32.408 296.023 32.408C294.188 32.408 292.551 32.8173 291.111 33.636C289.672 34.4265 288.542 35.5416 287.724 36.9813C286.933 38.4211 286.538 40.0584 286.538 41.8934C286.538 43.7284 286.933 45.3657 287.724 46.8055C288.542 48.2452 289.672 49.3745 291.111 50.1931C292.551 50.9836 294.188 51.3788 296.023 51.3788C298.988 51.3788 301.472 50.2073 303.476 47.8641L307.88 51.9293C306.469 53.6514 304.718 54.9641 302.629 55.8674C300.54 56.7708 298.211 57.2225 295.642 57.2225ZM323.311 45.0693L319.33 49.2192V56.7144H312.513V27.0724H319.33V40.9195L332.457 27.0724H340.08L327.799 40.2843L340.8 56.7144H332.796L323.311 45.0693ZM343.858 27.0724H350.718V56.7144H343.858V27.0724ZM384.939 27.0724V56.7144H379.307L364.528 38.7175V56.7144H357.753V27.0724H363.427L378.164 45.0693V27.0724H384.939ZM411.981 41.4276H418.249V53.4537C416.639 54.6677 414.776 55.5993 412.659 56.2486C410.542 56.8979 408.41 57.2225 406.265 57.2225C403.188 57.2225 400.421 56.5732 397.965 55.2746C395.509 53.9478 393.575 52.1269 392.164 49.812C390.78 47.4689 390.089 44.8294 390.089 41.8934C390.089 38.9574 390.78 36.332 392.164 34.0171C393.575 31.674 395.523 29.8531 398.007 28.5545C400.492 27.2277 403.286 26.5643 406.392 26.5643C408.989 26.5643 411.346 27.0019 413.464 27.877C415.581 28.7522 417.359 30.0225 418.799 31.6881L414.395 35.7533C412.278 33.5231 409.723 32.408 406.731 32.408C404.839 32.408 403.159 32.8032 401.691 33.5937C400.223 34.3841 399.08 35.4992 398.261 36.939C397.443 38.3787 397.033 40.0302 397.033 41.8934C397.033 43.7284 397.443 45.3657 398.261 46.8055C399.08 48.2452 400.209 49.3745 401.649 50.1931C403.117 50.9836 404.783 51.3788 406.646 51.3788C408.622 51.3788 410.401 50.9554 411.981 50.1084V41.4276Z" fill="white"/>
<path d="M141 108.228C138.798 108.228 136.681 107.875 134.648 107.169C132.644 106.463 131.091 105.532 129.99 104.374L131.218 101.961C132.291 103.033 133.717 103.908 135.495 104.586C137.274 105.235 139.109 105.56 141 105.56C143.654 105.56 145.644 105.08 146.971 104.12C148.298 103.132 148.961 101.862 148.961 100.309C148.961 99.1234 148.594 98.1777 147.86 97.4719C147.154 96.7662 146.279 96.2298 145.235 95.8628C144.19 95.4676 142.736 95.0441 140.873 94.5924C138.643 94.0278 136.864 93.4914 135.538 92.9833C134.211 92.4469 133.067 91.6424 132.108 90.5696C131.176 89.4968 130.71 88.043 130.71 86.208C130.71 84.7118 131.105 83.3567 131.896 82.1428C132.686 80.9007 133.9 79.9126 135.538 79.1786C137.175 78.4446 139.207 78.0777 141.635 78.0777C143.329 78.0777 144.981 78.3176 146.59 78.7975C148.227 79.2492 149.639 79.8844 150.824 80.7031L149.766 83.2015C148.523 82.3828 147.197 81.7758 145.785 81.3806C144.374 80.9572 142.99 80.7454 141.635 80.7454C139.038 80.7454 137.076 81.2536 135.749 82.2699C134.451 83.2579 133.801 84.5424 133.801 86.1233C133.801 87.309 134.154 88.2688 134.86 89.0028C135.594 89.7086 136.497 90.2591 137.57 90.6543C138.671 91.0213 140.139 91.4306 141.974 91.8823C144.148 92.4187 145.898 92.9551 147.225 93.4914C148.58 93.9996 149.723 94.79 150.655 95.8628C151.586 96.9073 152.052 98.333 152.052 100.14C152.052 101.636 151.643 103.005 150.824 104.247C150.034 105.461 148.806 106.435 147.14 107.169C145.475 107.875 143.428 108.228 141 108.228ZM171.838 108.228C168.902 108.228 166.234 107.578 163.834 106.28C161.463 104.953 159.6 103.146 158.245 100.86C156.918 98.5729 156.254 96.0039 156.254 93.1527C156.254 90.3014 156.918 87.7324 158.245 85.4458C159.6 83.1591 161.463 81.3665 163.834 80.0679C166.234 78.7411 168.902 78.0777 171.838 78.0777C174.774 78.0777 177.413 78.727 179.756 80.0255C182.128 81.3241 183.991 83.1309 185.346 85.4458C186.701 87.7324 187.378 90.3014 187.378 93.1527C187.378 96.0039 186.701 98.587 185.346 100.902C183.991 103.189 182.128 104.981 179.756 106.28C177.413 107.578 174.774 108.228 171.838 108.228ZM171.838 105.433C174.181 105.433 176.298 104.911 178.189 103.866C180.081 102.793 181.563 101.325 182.636 99.4622C183.708 97.5707 184.245 95.4676 184.245 93.1527C184.245 90.8378 183.708 88.7487 182.636 86.8855C181.563 84.9941 180.081 83.5261 178.189 82.4816C176.298 81.4088 174.181 80.8725 171.838 80.8725C169.494 80.8725 167.363 81.4088 165.443 82.4816C163.552 83.5261 162.056 84.9941 160.955 86.8855C159.882 88.7487 159.346 90.8378 159.346 93.1527C159.346 95.4676 159.882 97.5707 160.955 99.4622C162.056 101.325 163.552 102.793 165.443 103.866C167.363 104.911 169.494 105.433 171.838 105.433ZM194.402 78.3317H197.536V105.264H214.135V107.974H194.402V78.3317ZM230.742 108.228C226.903 108.228 223.91 107.127 221.765 104.925C219.619 102.723 218.546 99.5186 218.546 95.3123V78.3317H221.68V95.1853C221.68 98.6294 222.456 101.198 224.009 102.892C225.562 104.586 227.806 105.433 230.742 105.433C233.706 105.433 235.965 104.586 237.517 102.892C239.07 101.198 239.846 98.6294 239.846 95.1853V78.3317H242.895V95.3123C242.895 99.5186 241.822 102.723 239.677 104.925C237.56 107.127 234.581 108.228 230.742 108.228ZM257.518 81.0418H247.101V78.3317H271.069V81.0418H260.652V107.974H257.518V81.0418ZM276.075 78.3317H279.208V107.974H276.075V78.3317ZM301.81 108.228C298.874 108.228 296.207 107.578 293.807 106.28C291.436 104.953 289.573 103.146 288.217 100.86C286.891 98.5729 286.227 96.0039 286.227 93.1527C286.227 90.3014 286.891 87.7324 288.217 85.4458C289.573 83.1591 291.436 81.3665 293.807 80.0679C296.207 78.7411 298.874 78.0777 301.81 78.0777C304.746 78.0777 307.386 78.727 309.729 80.0255C312.1 81.3241 313.964 83.1309 315.319 85.4458C316.674 87.7324 317.351 90.3014 317.351 93.1527C317.351 96.0039 316.674 98.587 315.319 100.902C313.964 103.189 312.1 104.981 309.729 106.28C307.386 107.578 304.746 108.228 301.81 108.228ZM301.81 105.433C304.154 105.433 306.271 104.911 308.162 103.866C310.054 102.793 311.536 101.325 312.609 99.4622C313.681 97.5707 314.218 95.4676 314.218 93.1527C314.218 90.8378 313.681 88.7487 312.609 86.8855C311.536 84.9941 310.054 83.5261 308.162 82.4816C306.271 81.4088 304.154 80.8725 301.81 80.8725C299.467 80.8725 297.336 81.4088 295.416 82.4816C293.525 83.5261 292.029 84.9941 290.928 86.8855C289.855 88.7487 289.318 90.8378 289.318 93.1527C289.318 95.4676 289.855 97.5707 290.928 99.4622C292.029 101.325 293.525 102.793 295.416 103.866C297.336 104.911 299.467 105.433 301.81 105.433ZM349.147 78.3317V107.974H346.564L327.509 83.9213V107.974H324.375V78.3317H326.958L346.056 102.384V78.3317H349.147ZM366.995 108.228C364.793 108.228 362.676 107.875 360.643 107.169C358.639 106.463 357.086 105.532 355.985 104.374L357.213 101.961C358.286 103.033 359.711 103.908 361.49 104.586C363.268 105.235 365.103 105.56 366.995 105.56C369.648 105.56 371.639 105.08 372.966 104.12C374.292 103.132 374.956 101.862 374.956 100.309C374.956 99.1234 374.589 98.1777 373.855 97.4719C373.149 96.7662 372.274 96.2298 371.229 95.8628C370.185 95.4676 368.731 95.0441 366.868 94.5924C364.638 94.0278 362.859 93.4914 361.532 92.9833C360.205 92.4469 359.062 91.6424 358.102 90.5696C357.171 89.4968 356.705 88.043 356.705 86.208C356.705 84.7118 357.1 83.3567 357.891 82.1428C358.681 80.9007 359.895 79.9126 361.532 79.1786C363.17 78.4446 365.202 78.0777 367.63 78.0777C369.324 78.0777 370.975 78.3176 372.584 78.7975C374.222 79.2492 375.633 79.8844 376.819 80.7031L375.76 83.2015C374.518 82.3828 373.191 81.7758 371.78 81.3806C370.368 80.9572 368.985 80.7454 367.63 80.7454C365.033 80.7454 363.071 81.2536 361.744 82.2699C360.445 83.2579 359.796 84.5424 359.796 86.1233C359.796 87.309 360.149 88.2688 360.855 89.0028C361.589 89.7086 362.492 90.2591 363.565 90.6543C364.666 91.0213 366.134 91.4306 367.969 91.8823C370.143 92.4187 371.893 92.9551 373.22 93.4914C374.575 93.9996 375.718 94.79 376.65 95.8628C377.581 96.9073 378.047 98.333 378.047 100.14C378.047 101.636 377.638 103.005 376.819 104.247C376.029 105.461 374.801 106.435 373.135 107.169C371.469 107.875 369.423 108.228 366.995 108.228Z" fill="white"/>
<g clip-path="url(#clip0)">
<path d="M31.7127 56.4635C67.4633 42.1965 100.72 46.9118 102.739 60.5743V60.3325L102.501 56.8262C98.7005 37.1184 61.6434 33.4912 30.7625 42.5592C5.10759 51.1436 0.475459 60.937 0.119141 66.0151C0.119141 74.1158 0.119141 74.2367 0.475459 78.4685C0.831777 81.2493 1.18809 85.1184 1.66319 87.8992C0.119141 71.4559 22.2109 60.4534 31.7127 56.4635Z" fill="url(#paint0_linear)"/>
<path d="M46.7964 7.61705C74.708 2.17625 83.616 9.79338 85.6351 12.2115C84.4474 10.7606 82.7845 8.82612 81.5968 7.49615C72.4513 -1.20914 55.4668 -0.483702 46.2026 0.725366C26.8426 3.86894 18.8848 10.6397 15.9155 14.3878C14.9653 15.8387 13.7776 17.6523 12.8274 19.1032C9.85811 24.544 9.50179 25.0276 7.7202 29.3803L6.77002 31.6775C14.609 14.5087 43.4708 8.22159 46.7964 7.61705Z" fill="url(#paint1_linear)"/>
<path d="M54.5169 103.738C81.7159 97.5717 97.3939 104.947 92.7617 115.345L94.4245 111.96C100.838 95.6372 78.1527 88.3828 53.5667 90.9218C26.0115 94.6699 6.65152 107.486 11.9963 118.368L12.2338 118.73C15.6782 124.171 15.797 124.534 18.2912 127.677C22.092 132.03 22.3295 132.272 24.8237 134.69C14.1342 124.05 30.6436 110.146 52.0227 104.463C52.8541 104.222 53.8043 103.98 54.5169 103.738Z" fill="url(#paint2_linear)"/>
<path d="M102.857 60.4534V60.6952C102.739 64.9269 101.432 68.3123 94.6621 73.9949C97.3939 70.8514 103.333 64.6851 102.501 56.8262L102.857 60.4534Z" fill="url(#paint3_linear)"/>
<path d="M63.7815 101.924C58.7931 107.365 56.0613 110.146 49.7664 116.07C50.2414 110.267 50.2414 110.267 50.5978 105.189C17.579 107.728 3.56378 97.4508 1.54465 87.8991C1.18833 85.1183 0.713238 81.3702 0.35692 78.4684C0.000602297 70.2467 0.000602279 70.2467 0.119375 66.015C0.832011 77.9848 21.2609 83.0629 48.4599 78.1057C46.797 70.7304 46.6783 70.1258 45.8469 65.7732C51.3104 69.7631 54.3985 71.9394 61.6436 76.0503C67.3447 79.1938 70.314 80.7656 77.5592 84.151C74.2335 89.1082 70.314 94.6699 63.7815 101.924Z" fill="url(#paint4_linear)"/>
<path d="M85.6358 12.2115C92.1683 22.2468 73.5209 30.5893 69.7202 32.1611C88.6051 20.7959 85.1607 11.7279 81.4787 7.37524C82.7852 8.82613 84.5668 10.6397 85.6358 12.2115Z" fill="url(#paint5_linear)"/>
<path d="M42.1643 51.8688C37.6509 56.705 35.1567 59.2441 28.9805 64.9267C30.287 57.4305 30.4058 57.3096 31.356 52.5942C8.43286 49.9342 3.68195 40.0199 6.77004 31.7982L7.72022 29.501C10.3332 23.6975 10.5708 23.0929 12.8274 19.2239C13.7776 17.773 14.9654 15.8385 15.9155 14.5085C10.0957 23.8184 21.1415 28.4128 34.5628 28.0501C35.2755 22.0048 35.2755 21.642 35.9881 18.1357C37.6509 21.8839 38.7199 24.0602 42.4018 28.2919C45.8462 31.9191 48.1029 33.9745 53.5665 37.8436C50.9535 41.3499 47.8654 45.7025 42.1643 51.8688Z" fill="url(#paint6_linear)"/>
<path d="M92.7624 115.466C90.1494 119.94 85.9923 123.083 78.1533 126.831C81.954 124.776 90.7432 119.819 94.4252 112.081L92.7624 115.466Z" fill="url(#paint7_linear)"/>
<path d="M51.0733 140.252C49.2917 141.461 49.2917 141.461 45.2534 144.121C43.7094 142.428 43.7094 142.307 42.878 140.735C38.8397 140.373 30.5256 139.647 24.8245 134.811C20.905 131.063 20.5487 130.7 18.292 127.798C14.6101 122.962 14.3725 122.479 12.2346 118.851L11.9971 118.489C14.3725 121.995 19.5985 126.589 36.7018 126.831C34.3263 121.753 34.2076 121.269 32.7823 117.763C38.1271 121.511 41.2152 123.446 47.9852 126.952C52.9737 129.37 55.5867 130.579 61.2877 132.756C58.4372 134.811 55.4679 137.229 51.0733 140.252Z" fill="url(#paint8_linear)"/>
</g>
<defs>
<linearGradient id="paint0_linear" x1="63.2182" y1="57.6391" x2="64.9408" y2="15.5254" gradientUnits="userSpaceOnUse">
<stop offset="0.0353535" stop-color="#094986"/>
<stop offset="1" stop-color="#4C97DD"/>
</linearGradient>
<linearGradient id="paint1_linear" x1="55.2628" y1="12.5306" x2="56.1607" y2="-14.1309" gradientUnits="userSpaceOnUse">
<stop offset="0.0353535" stop-color="#094986"/>
<stop offset="1" stop-color="#4C97DD"/>
</linearGradient>
<linearGradient id="paint2_linear" x1="63.0138" y1="107.93" x2="64.6509" y2="70.6981" gradientUnits="userSpaceOnUse">
<stop offset="0.0353535" stop-color="#094986"/>
<stop offset="1" stop-color="#4C97DD"/>
</linearGradient>
<linearGradient id="paint3_linear" x1="90.1123" y1="91.4687" x2="116.67" y2="67.2625" gradientUnits="userSpaceOnUse">
<stop offset="0.0353535" stop-color="#D3EAFF"/>
<stop offset="1" stop-color="#85C3FF"/>
</linearGradient>
<linearGradient id="paint4_linear" x1="-42.9831" y1="167.261" x2="4.62644" y2="27.1661" gradientUnits="userSpaceOnUse">
<stop offset="0.0353535" stop-color="#D3EAFF"/>
<stop offset="1" stop-color="#85C3FF"/>
</linearGradient>
<linearGradient id="paint5_linear" x1="60.1207" y1="57.3873" x2="97.0954" y2="8.13412" gradientUnits="userSpaceOnUse">
<stop offset="0.0353535" stop-color="#D3EAFF"/>
<stop offset="1" stop-color="#85C3FF"/>
</linearGradient>
<linearGradient id="paint6_linear" x1="-20.5251" y1="116.24" x2="45.893" y2="-3.59929" gradientUnits="userSpaceOnUse">
<stop offset="0.0353535" stop-color="#D3EAFF"/>
<stop offset="1" stop-color="#85C3FF"/>
</linearGradient>
<linearGradient id="paint7_linear" x1="69.1197" y1="141.844" x2="86.8758" y2="104.443" gradientUnits="userSpaceOnUse">
<stop offset="0.0353535" stop-color="#D3EAFF"/>
<stop offset="1" stop-color="#85C3FF"/>
</linearGradient>
<linearGradient id="paint8_linear" x1="-15.3675" y1="170.947" x2="5.89886" y2="95.0085" gradientUnits="userSpaceOnUse">
<stop offset="0.0353535" stop-color="#D3EAFF"/>
<stop offset="1" stop-color="#85C3FF"/>
</linearGradient>
<clipPath id="clip0">
<rect width="102.857" height="144" fill="white"/>
</clipPath>
</defs>
</svg>
