<svg xmlns="http://www.w3.org/2000/svg" width="92" height="92" viewBox="0 0 92 92"><g><g opacity=".5"><path fill="#99a2bd" d="M0 1a1 1 0 1 1 2 0 1 1 0 0 1-2 0zm2 10a1 1 0 1 1-2 0 1 1 0 0 1 2 0zm10 0a1 1 0 1 1-2 0 1 1 0 0 1 2 0zm8 0a1 1 0 1 1 2 0 1 1 0 0 1-2 0zm12 0a1 1 0 1 1-2 0 1 1 0 0 1 2 0zm8 0a1 1 0 1 1 2 0 1 1 0 0 1-2 0zm12 0a1 1 0 1 1-2 0 1 1 0 0 1 2 0zm8 0a1 1 0 1 1 2 0 1 1 0 0 1-2 0zm12 0a1 1 0 1 1-2 0 1 1 0 0 1 2 0zm8 0a1 1 0 1 1 2 0 1 1 0 0 1-2 0zm12 0a1 1 0 1 1-2 0 1 1 0 0 1 2 0zM12 1a1 1 0 1 1-2 0 1 1 0 0 1 2 0zM2 21a1 1 0 1 1-2 0 1 1 0 0 1 2 0zm10 0a1 1 0 1 1-2 0 1 1 0 0 1 2 0zm8 0a1 1 0 1 1 2 0 1 1 0 0 1-2 0zm12 0a1 1 0 1 1-2 0 1 1 0 0 1 2 0zm8 0a1 1 0 1 1 2 0 1 1 0 0 1-2 0zm12 0a1 1 0 1 1-2 0 1 1 0 0 1 2 0zm8 0a1 1 0 1 1 2 0 1 1 0 0 1-2 0zm12 0a1 1 0 1 1-2 0 1 1 0 0 1 2 0zm8 0a1 1 0 1 1 2 0 1 1 0 0 1-2 0zm12 0a1 1 0 1 1-2 0 1 1 0 0 1 2 0zM22 1a1 1 0 1 1-2 0 1 1 0 0 1 2 0zM2 31a1 1 0 1 1-2 0 1 1 0 0 1 2 0zm10 0a1 1 0 1 1-2 0 1 1 0 0 1 2 0zm8 0a1 1 0 1 1 2 0 1 1 0 0 1-2 0zm12 0a1 1 0 1 1-2 0 1 1 0 0 1 2 0zm8 0a1 1 0 1 1 2 0 1 1 0 0 1-2 0zm12 0a1 1 0 1 1-2 0 1 1 0 0 1 2 0zm8 0a1 1 0 1 1 2 0 1 1 0 0 1-2 0zm12 0a1 1 0 1 1-2 0 1 1 0 0 1 2 0zm8 0a1 1 0 1 1 2 0 1 1 0 0 1-2 0zm12 0a1 1 0 1 1-2 0 1 1 0 0 1 2 0zM32 1a1 1 0 1 1-2 0 1 1 0 0 1 2 0zM2 41a1 1 0 1 1-2 0 1 1 0 0 1 2 0zm10 0a1 1 0 1 1-2 0 1 1 0 0 1 2 0zm8 0a1 1 0 1 1 2 0 1 1 0 0 1-2 0zm12 0a1 1 0 1 1-2 0 1 1 0 0 1 2 0zm8 0a1 1 0 1 1 2 0 1 1 0 0 1-2 0zm12 0a1 1 0 1 1-2 0 1 1 0 0 1 2 0zm8 0a1 1 0 1 1 2 0 1 1 0 0 1-2 0zm12 0a1 1 0 1 1-2 0 1 1 0 0 1 2 0zm8 0a1 1 0 1 1 2 0 1 1 0 0 1-2 0zm12 0a1 1 0 1 1-2 0 1 1 0 0 1 2 0zM42 1a1 1 0 1 1-2 0 1 1 0 0 1 2 0zM2 51a1 1 0 1 1-2 0 1 1 0 0 1 2 0zm10 0a1 1 0 1 1-2 0 1 1 0 0 1 2 0zm8 0a1 1 0 1 1 2 0 1 1 0 0 1-2 0zm12 0a1 1 0 1 1-2 0 1 1 0 0 1 2 0zm8 0a1 1 0 1 1 2 0 1 1 0 0 1-2 0zm12 0a1 1 0 1 1-2 0 1 1 0 0 1 2 0zm8 0a1 1 0 1 1 2 0 1 1 0 0 1-2 0zm12 0a1 1 0 1 1-2 0 1 1 0 0 1 2 0zm8 0a1 1 0 1 1 2 0 1 1 0 0 1-2 0zm12 0a1 1 0 1 1-2 0 1 1 0 0 1 2 0zM52 1a1 1 0 1 1-2 0 1 1 0 0 1 2 0zM2 61a1 1 0 1 1-2 0 1 1 0 0 1 2 0zm10 0a1 1 0 1 1-2 0 1 1 0 0 1 2 0zm8 0a1 1 0 1 1 2 0 1 1 0 0 1-2 0zm12 0a1 1 0 1 1-2 0 1 1 0 0 1 2 0zm8 0a1 1 0 1 1 2 0 1 1 0 0 1-2 0zm12 0a1 1 0 1 1-2 0 1 1 0 0 1 2 0zm8 0a1 1 0 1 1 2 0 1 1 0 0 1-2 0zm12 0a1 1 0 1 1-2 0 1 1 0 0 1 2 0zm8 0a1 1 0 1 1 2 0 1 1 0 0 1-2 0zm12 0a1 1 0 1 1-2 0 1 1 0 0 1 2 0zM62 1a1 1 0 1 1-2 0 1 1 0 0 1 2 0zM2 71a1 1 0 1 1-2 0 1 1 0 0 1 2 0zm10 0a1 1 0 1 1-2 0 1 1 0 0 1 2 0zm8 0a1 1 0 1 1 2 0 1 1 0 0 1-2 0zm12 0a1 1 0 1 1-2 0 1 1 0 0 1 2 0zm8 0a1 1 0 1 1 2 0 1 1 0 0 1-2 0zm12 0a1 1 0 1 1-2 0 1 1 0 0 1 2 0zm8 0a1 1 0 1 1 2 0 1 1 0 0 1-2 0zm12 0a1 1 0 1 1-2 0 1 1 0 0 1 2 0zm8 0a1 1 0 1 1 2 0 1 1 0 0 1-2 0zm12 0a1 1 0 1 1-2 0 1 1 0 0 1 2 0zM72 1a1 1 0 1 1-2 0 1 1 0 0 1 2 0zM2 81a1 1 0 1 1-2 0 1 1 0 0 1 2 0zm10 0a1 1 0 1 1-2 0 1 1 0 0 1 2 0zm8 0a1 1 0 1 1 2 0 1 1 0 0 1-2 0zm12 0a1 1 0 1 1-2 0 1 1 0 0 1 2 0zm8 0a1 1 0 1 1 2 0 1 1 0 0 1-2 0zm12 0a1 1 0 1 1-2 0 1 1 0 0 1 2 0zm8 0a1 1 0 1 1 2 0 1 1 0 0 1-2 0zm12 0a1 1 0 1 1-2 0 1 1 0 0 1 2 0zm8 0a1 1 0 1 1 2 0 1 1 0 0 1-2 0zm12 0a1 1 0 1 1-2 0 1 1 0 0 1 2 0zM82 1a1 1 0 1 1-2 0 1 1 0 0 1 2 0zM2 91a1 1 0 1 1-2 0 1 1 0 0 1 2 0zm10 0a1 1 0 1 1-2 0 1 1 0 0 1 2 0zm8 0a1 1 0 1 1 2 0 1 1 0 0 1-2 0zm12 0a1 1 0 1 1-2 0 1 1 0 0 1 2 0zm8 0a1 1 0 1 1 2 0 1 1 0 0 1-2 0zm12 0a1 1 0 1 1-2 0 1 1 0 0 1 2 0zm8 0a1 1 0 1 1 2 0 1 1 0 0 1-2 0zm12 0a1 1 0 1 1-2 0 1 1 0 0 1 2 0zm8 0a1 1 0 1 1 2 0 1 1 0 0 1-2 0zm12 0a1 1 0 1 1-2 0 1 1 0 0 1 2 0zm0-90a1 1 0 1 1-2 0 1 1 0 0 1 2 0z"/></g><g><path fill="#1d252d" d="M64 36.313a16.035 16.035 0 0 1-4.361 1.113c1.569-.875 2.772-2.26 3.337-3.91a15.897 15.897 0 0 1-4.82 1.715C56.773 33.856 54.8 33 52.617 33c-4.898 0-8.502 4.256-7.395 8.678-6.307-.294-11.901-3.108-15.646-7.385-1.988 3.175-1.03 7.333 2.35 9.438a7.993 7.993 0 0 1-3.438-.884c-.083 3.273 2.437 6.337 6.088 7.018a8.144 8.144 0 0 1-3.429.122c.967 2.809 3.77 4.853 7.092 4.909-3.192 2.329-7.21 3.37-11.238 2.928C30.36 59.83 34.35 61 38.635 61c14.095 0 22.057-11.086 21.576-21.028A14.889 14.889 0 0 0 64 36.313"/></g></g></svg>