<svg xmlns="http://www.w3.org/2000/svg" width="92" height="92" viewBox="0 0 92 92"><g><g opacity=".5"><path fill="#99a2bd" d="M0 1a1 1 0 1 1 2 0 1 1 0 0 1-2 0zm2 10a1 1 0 1 1-2 0 1 1 0 0 1 2 0zm10 0a1 1 0 1 1-2 0 1 1 0 0 1 2 0zm8 0a1 1 0 1 1 2 0 1 1 0 0 1-2 0zm12 0a1 1 0 1 1-2 0 1 1 0 0 1 2 0zm8 0a1 1 0 1 1 2 0 1 1 0 0 1-2 0zm12 0a1 1 0 1 1-2 0 1 1 0 0 1 2 0zm8 0a1 1 0 1 1 2 0 1 1 0 0 1-2 0zm12 0a1 1 0 1 1-2 0 1 1 0 0 1 2 0zm8 0a1 1 0 1 1 2 0 1 1 0 0 1-2 0zm12 0a1 1 0 1 1-2 0 1 1 0 0 1 2 0zM12 1a1 1 0 1 1-2 0 1 1 0 0 1 2 0zM2 21a1 1 0 1 1-2 0 1 1 0 0 1 2 0zm10 0a1 1 0 1 1-2 0 1 1 0 0 1 2 0zm8 0a1 1 0 1 1 2 0 1 1 0 0 1-2 0zm12 0a1 1 0 1 1-2 0 1 1 0 0 1 2 0zm8 0a1 1 0 1 1 2 0 1 1 0 0 1-2 0zm12 0a1 1 0 1 1-2 0 1 1 0 0 1 2 0zm8 0a1 1 0 1 1 2 0 1 1 0 0 1-2 0zm12 0a1 1 0 1 1-2 0 1 1 0 0 1 2 0zm8 0a1 1 0 1 1 2 0 1 1 0 0 1-2 0zm12 0a1 1 0 1 1-2 0 1 1 0 0 1 2 0zM22 1a1 1 0 1 1-2 0 1 1 0 0 1 2 0zM2 31a1 1 0 1 1-2 0 1 1 0 0 1 2 0zm10 0a1 1 0 1 1-2 0 1 1 0 0 1 2 0zm8 0a1 1 0 1 1 2 0 1 1 0 0 1-2 0zm12 0a1 1 0 1 1-2 0 1 1 0 0 1 2 0zm8 0a1 1 0 1 1 2 0 1 1 0 0 1-2 0zm12 0a1 1 0 1 1-2 0 1 1 0 0 1 2 0zm8 0a1 1 0 1 1 2 0 1 1 0 0 1-2 0zm12 0a1 1 0 1 1-2 0 1 1 0 0 1 2 0zm8 0a1 1 0 1 1 2 0 1 1 0 0 1-2 0zm12 0a1 1 0 1 1-2 0 1 1 0 0 1 2 0zM32 1a1 1 0 1 1-2 0 1 1 0 0 1 2 0zM2 41a1 1 0 1 1-2 0 1 1 0 0 1 2 0zm10 0a1 1 0 1 1-2 0 1 1 0 0 1 2 0zm8 0a1 1 0 1 1 2 0 1 1 0 0 1-2 0zm12 0a1 1 0 1 1-2 0 1 1 0 0 1 2 0zm8 0a1 1 0 1 1 2 0 1 1 0 0 1-2 0zm12 0a1 1 0 1 1-2 0 1 1 0 0 1 2 0zm8 0a1 1 0 1 1 2 0 1 1 0 0 1-2 0zm12 0a1 1 0 1 1-2 0 1 1 0 0 1 2 0zm8 0a1 1 0 1 1 2 0 1 1 0 0 1-2 0zm12 0a1 1 0 1 1-2 0 1 1 0 0 1 2 0zM42 1a1 1 0 1 1-2 0 1 1 0 0 1 2 0zM2 51a1 1 0 1 1-2 0 1 1 0 0 1 2 0zm10 0a1 1 0 1 1-2 0 1 1 0 0 1 2 0zm8 0a1 1 0 1 1 2 0 1 1 0 0 1-2 0zm12 0a1 1 0 1 1-2 0 1 1 0 0 1 2 0zm8 0a1 1 0 1 1 2 0 1 1 0 0 1-2 0zm12 0a1 1 0 1 1-2 0 1 1 0 0 1 2 0zm8 0a1 1 0 1 1 2 0 1 1 0 0 1-2 0zm12 0a1 1 0 1 1-2 0 1 1 0 0 1 2 0zm8 0a1 1 0 1 1 2 0 1 1 0 0 1-2 0zm12 0a1 1 0 1 1-2 0 1 1 0 0 1 2 0zM52 1a1 1 0 1 1-2 0 1 1 0 0 1 2 0zM2 61a1 1 0 1 1-2 0 1 1 0 0 1 2 0zm10 0a1 1 0 1 1-2 0 1 1 0 0 1 2 0zm8 0a1 1 0 1 1 2 0 1 1 0 0 1-2 0zm12 0a1 1 0 1 1-2 0 1 1 0 0 1 2 0zm8 0a1 1 0 1 1 2 0 1 1 0 0 1-2 0zm12 0a1 1 0 1 1-2 0 1 1 0 0 1 2 0zm8 0a1 1 0 1 1 2 0 1 1 0 0 1-2 0zm12 0a1 1 0 1 1-2 0 1 1 0 0 1 2 0zm8 0a1 1 0 1 1 2 0 1 1 0 0 1-2 0zm12 0a1 1 0 1 1-2 0 1 1 0 0 1 2 0zM62 1a1 1 0 1 1-2 0 1 1 0 0 1 2 0zM2 71a1 1 0 1 1-2 0 1 1 0 0 1 2 0zm10 0a1 1 0 1 1-2 0 1 1 0 0 1 2 0zm8 0a1 1 0 1 1 2 0 1 1 0 0 1-2 0zm12 0a1 1 0 1 1-2 0 1 1 0 0 1 2 0zm8 0a1 1 0 1 1 2 0 1 1 0 0 1-2 0zm12 0a1 1 0 1 1-2 0 1 1 0 0 1 2 0zm8 0a1 1 0 1 1 2 0 1 1 0 0 1-2 0zm12 0a1 1 0 1 1-2 0 1 1 0 0 1 2 0zm8 0a1 1 0 1 1 2 0 1 1 0 0 1-2 0zm12 0a1 1 0 1 1-2 0 1 1 0 0 1 2 0zM72 1a1 1 0 1 1-2 0 1 1 0 0 1 2 0zM2 81a1 1 0 1 1-2 0 1 1 0 0 1 2 0zm10 0a1 1 0 1 1-2 0 1 1 0 0 1 2 0zm8 0a1 1 0 1 1 2 0 1 1 0 0 1-2 0zm12 0a1 1 0 1 1-2 0 1 1 0 0 1 2 0zm8 0a1 1 0 1 1 2 0 1 1 0 0 1-2 0zm12 0a1 1 0 1 1-2 0 1 1 0 0 1 2 0zm8 0a1 1 0 1 1 2 0 1 1 0 0 1-2 0zm12 0a1 1 0 1 1-2 0 1 1 0 0 1 2 0zm8 0a1 1 0 1 1 2 0 1 1 0 0 1-2 0zm12 0a1 1 0 1 1-2 0 1 1 0 0 1 2 0zM82 1a1 1 0 1 1-2 0 1 1 0 0 1 2 0zM2 91a1 1 0 1 1-2 0 1 1 0 0 1 2 0zm10 0a1 1 0 1 1-2 0 1 1 0 0 1 2 0zm8 0a1 1 0 1 1 2 0 1 1 0 0 1-2 0zm12 0a1 1 0 1 1-2 0 1 1 0 0 1 2 0zm8 0a1 1 0 1 1 2 0 1 1 0 0 1-2 0zm12 0a1 1 0 1 1-2 0 1 1 0 0 1 2 0zm8 0a1 1 0 1 1 2 0 1 1 0 0 1-2 0zm12 0a1 1 0 1 1-2 0 1 1 0 0 1 2 0zm8 0a1 1 0 1 1 2 0 1 1 0 0 1-2 0zm12 0a1 1 0 1 1-2 0 1 1 0 0 1 2 0zm0-90a1 1 0 1 1-2 0 1 1 0 0 1 2 0z"/></g><g><path fill="#1d252d" d="M38.667 29h12.666C58.33 29 64 34.671 64 41.667v12.666C64 61.33 58.329 67 51.333 67H38.667C31.67 67 26 61.329 26 54.333V41.667C26 34.67 31.671 29 38.667 29z"/></g><g/><g><path fill="#fff" d="M55.551 41.662a2.111 2.111 0 1 0 0-4.222 2.111 2.111 0 0 0 0 4.222z"/></g></g></svg>