<svg xmlns="http://www.w3.org/2000/svg" width="92" height="92" viewBox="0 0 92 92"><g><g opacity=".5"><path fill="#99a2bd" d="M0 1a1 1 0 1 1 2 0 1 1 0 0 1-2 0zm2 10a1 1 0 1 1-2 0 1 1 0 0 1 2 0zm10 0a1 1 0 1 1-2 0 1 1 0 0 1 2 0zm8 0a1 1 0 1 1 2 0 1 1 0 0 1-2 0zm12 0a1 1 0 1 1-2 0 1 1 0 0 1 2 0zm8 0a1 1 0 1 1 2 0 1 1 0 0 1-2 0zm12 0a1 1 0 1 1-2 0 1 1 0 0 1 2 0zm8 0a1 1 0 1 1 2 0 1 1 0 0 1-2 0zm12 0a1 1 0 1 1-2 0 1 1 0 0 1 2 0zm8 0a1 1 0 1 1 2 0 1 1 0 0 1-2 0zm12 0a1 1 0 1 1-2 0 1 1 0 0 1 2 0zM12 1a1 1 0 1 1-2 0 1 1 0 0 1 2 0zM2 21a1 1 0 1 1-2 0 1 1 0 0 1 2 0zm10 0a1 1 0 1 1-2 0 1 1 0 0 1 2 0zm8 0a1 1 0 1 1 2 0 1 1 0 0 1-2 0zm12 0a1 1 0 1 1-2 0 1 1 0 0 1 2 0zm8 0a1 1 0 1 1 2 0 1 1 0 0 1-2 0zm12 0a1 1 0 1 1-2 0 1 1 0 0 1 2 0zm8 0a1 1 0 1 1 2 0 1 1 0 0 1-2 0zm12 0a1 1 0 1 1-2 0 1 1 0 0 1 2 0zm8 0a1 1 0 1 1 2 0 1 1 0 0 1-2 0zm12 0a1 1 0 1 1-2 0 1 1 0 0 1 2 0zM22 1a1 1 0 1 1-2 0 1 1 0 0 1 2 0zM2 31a1 1 0 1 1-2 0 1 1 0 0 1 2 0zm10 0a1 1 0 1 1-2 0 1 1 0 0 1 2 0zm8 0a1 1 0 1 1 2 0 1 1 0 0 1-2 0zm12 0a1 1 0 1 1-2 0 1 1 0 0 1 2 0zm8 0a1 1 0 1 1 2 0 1 1 0 0 1-2 0zm12 0a1 1 0 1 1-2 0 1 1 0 0 1 2 0zm8 0a1 1 0 1 1 2 0 1 1 0 0 1-2 0zm12 0a1 1 0 1 1-2 0 1 1 0 0 1 2 0zm8 0a1 1 0 1 1 2 0 1 1 0 0 1-2 0zm12 0a1 1 0 1 1-2 0 1 1 0 0 1 2 0zM32 1a1 1 0 1 1-2 0 1 1 0 0 1 2 0zM2 41a1 1 0 1 1-2 0 1 1 0 0 1 2 0zm10 0a1 1 0 1 1-2 0 1 1 0 0 1 2 0zm8 0a1 1 0 1 1 2 0 1 1 0 0 1-2 0zm12 0a1 1 0 1 1-2 0 1 1 0 0 1 2 0zm8 0a1 1 0 1 1 2 0 1 1 0 0 1-2 0zm12 0a1 1 0 1 1-2 0 1 1 0 0 1 2 0zm8 0a1 1 0 1 1 2 0 1 1 0 0 1-2 0zm12 0a1 1 0 1 1-2 0 1 1 0 0 1 2 0zm8 0a1 1 0 1 1 2 0 1 1 0 0 1-2 0zm12 0a1 1 0 1 1-2 0 1 1 0 0 1 2 0zM42 1a1 1 0 1 1-2 0 1 1 0 0 1 2 0zM2 51a1 1 0 1 1-2 0 1 1 0 0 1 2 0zm10 0a1 1 0 1 1-2 0 1 1 0 0 1 2 0zm8 0a1 1 0 1 1 2 0 1 1 0 0 1-2 0zm12 0a1 1 0 1 1-2 0 1 1 0 0 1 2 0zm8 0a1 1 0 1 1 2 0 1 1 0 0 1-2 0zm12 0a1 1 0 1 1-2 0 1 1 0 0 1 2 0zm8 0a1 1 0 1 1 2 0 1 1 0 0 1-2 0zm12 0a1 1 0 1 1-2 0 1 1 0 0 1 2 0zm8 0a1 1 0 1 1 2 0 1 1 0 0 1-2 0zm12 0a1 1 0 1 1-2 0 1 1 0 0 1 2 0zM52 1a1 1 0 1 1-2 0 1 1 0 0 1 2 0zM2 61a1 1 0 1 1-2 0 1 1 0 0 1 2 0zm10 0a1 1 0 1 1-2 0 1 1 0 0 1 2 0zm8 0a1 1 0 1 1 2 0 1 1 0 0 1-2 0zm12 0a1 1 0 1 1-2 0 1 1 0 0 1 2 0zm8 0a1 1 0 1 1 2 0 1 1 0 0 1-2 0zm12 0a1 1 0 1 1-2 0 1 1 0 0 1 2 0zm8 0a1 1 0 1 1 2 0 1 1 0 0 1-2 0zm12 0a1 1 0 1 1-2 0 1 1 0 0 1 2 0zm8 0a1 1 0 1 1 2 0 1 1 0 0 1-2 0zm12 0a1 1 0 1 1-2 0 1 1 0 0 1 2 0zM62 1a1 1 0 1 1-2 0 1 1 0 0 1 2 0zM2 71a1 1 0 1 1-2 0 1 1 0 0 1 2 0zm10 0a1 1 0 1 1-2 0 1 1 0 0 1 2 0zm8 0a1 1 0 1 1 2 0 1 1 0 0 1-2 0zm12 0a1 1 0 1 1-2 0 1 1 0 0 1 2 0zm8 0a1 1 0 1 1 2 0 1 1 0 0 1-2 0zm12 0a1 1 0 1 1-2 0 1 1 0 0 1 2 0zm8 0a1 1 0 1 1 2 0 1 1 0 0 1-2 0zm12 0a1 1 0 1 1-2 0 1 1 0 0 1 2 0zm8 0a1 1 0 1 1 2 0 1 1 0 0 1-2 0zm12 0a1 1 0 1 1-2 0 1 1 0 0 1 2 0zM72 1a1 1 0 1 1-2 0 1 1 0 0 1 2 0zM2 81a1 1 0 1 1-2 0 1 1 0 0 1 2 0zm10 0a1 1 0 1 1-2 0 1 1 0 0 1 2 0zm8 0a1 1 0 1 1 2 0 1 1 0 0 1-2 0zm12 0a1 1 0 1 1-2 0 1 1 0 0 1 2 0zm8 0a1 1 0 1 1 2 0 1 1 0 0 1-2 0zm12 0a1 1 0 1 1-2 0 1 1 0 0 1 2 0zm8 0a1 1 0 1 1 2 0 1 1 0 0 1-2 0zm12 0a1 1 0 1 1-2 0 1 1 0 0 1 2 0zm8 0a1 1 0 1 1 2 0 1 1 0 0 1-2 0zm12 0a1 1 0 1 1-2 0 1 1 0 0 1 2 0zM82 1a1 1 0 1 1-2 0 1 1 0 0 1 2 0zM2 91a1 1 0 1 1-2 0 1 1 0 0 1 2 0zm10 0a1 1 0 1 1-2 0 1 1 0 0 1 2 0zm8 0a1 1 0 1 1 2 0 1 1 0 0 1-2 0zm12 0a1 1 0 1 1-2 0 1 1 0 0 1 2 0zm8 0a1 1 0 1 1 2 0 1 1 0 0 1-2 0zm12 0a1 1 0 1 1-2 0 1 1 0 0 1 2 0zm8 0a1 1 0 1 1 2 0 1 1 0 0 1-2 0zm12 0a1 1 0 1 1-2 0 1 1 0 0 1 2 0zm8 0a1 1 0 1 1 2 0 1 1 0 0 1-2 0zm12 0a1 1 0 1 1-2 0 1 1 0 0 1 2 0zm0-90a1 1 0 1 1-2 0 1 1 0 0 1 2 0z"/></g><g><path fill="#1d252d" d="M47.97 62V47h5.792L54 41.612h-6.03V37.66c0-.748.134-1.34.404-1.776.268-.432.91-.634 1.922-.604h3.562L54 30.25c-.444-.06-.894-.098-1.354-.114a23.93 23.93 0 0 1-1.258-.066 21.085 21.085 0 0 0-1.328-.044c-1.394-.09-2.588.052-3.586.428-.998.372-1.82.896-2.468 1.57a6.498 6.498 0 0 0-1.448 2.312 7.704 7.704 0 0 0-.474 2.65v4.626H38V47h4.084v15z"/></g></g></svg>