<svg width="62" height="60" viewBox="0 0 62 60" fill="none" xmlns="http://www.w3.org/2000/svg">
<path fill-rule="evenodd" clip-rule="evenodd" d="M59.9999 20.6901V18.6207H49.4144L37.4155 31.0342H24.5873L12.5883 18.6207H2.00282V20.6901H11.4878L22.488 35.172H39.5147L50.5149 20.6901H59.9999ZM59.0002 24.828C59.5524 24.828 59.9999 24.363 59.9999 23.7938V22.7586H52V23.7938C52 24.363 52.4485 24.828 52.9997 24.828H59.0002ZM47.2066 41.8222L50.7639 39.7187L45.4328 30.7296L42.7 34.3292L47.2066 41.8222ZM53.9995 40.3441C53.8261 40.3441 53.6556 40.3912 53.5054 40.4824L46.5043 44.6202C46.2718 44.7585 46.1051 44.98 46.0354 45.2465C45.9656 45.5111 45.9996 45.7917 46.1323 46.0292C46.3958 46.5092 47.0313 46.6896 47.4972 46.416L54.4955 42.2782C54.7299 42.1399 54.8946 41.9194 54.9653 41.6519C55.0351 41.3853 55.0012 41.1057 54.8694 40.8682C54.6912 40.5435 54.3579 40.3441 53.9995 40.3441ZM59.9069 56.4775C60.0668 55.9494 60.0183 55.3892 59.7694 54.9011L53.9026 45.011L50.3773 47.0955L56.1898 56.7571C56.7381 57.8294 57.982 58.2072 58.9285 57.6931C59.4012 57.4365 59.749 57.0046 59.9069 56.4775ZM36.0011 41.3793H26.0017V37.2414H36.0011V41.3793ZM40.0001 44.4829C40.0001 43.9127 39.5535 43.4477 39.0003 43.4477H23.0014C22.4492 43.4477 22.0017 43.9127 22.0017 44.4829V56.8964C22.0017 57.4656 22.4492 57.9306 23.0014 57.9306H39.0003C39.5535 57.9306 40.0001 57.4656 40.0001 56.8964V44.4829ZM11.2379 39.7177L14.7952 41.8212L19.3018 34.3272L16.5689 30.7286L11.2379 39.7177ZM14.5065 46.416C14.9705 46.6886 15.606 46.5062 15.8685 46.0312C16.0032 45.7907 16.0381 45.5101 15.9664 45.2435C15.8957 44.978 15.73 44.7565 15.4985 44.6192L8.49828 40.4814C8.34716 40.3912 8.17569 40.3441 8.00325 40.3441C7.64578 40.3441 7.31253 40.5435 7.13428 40.8682C7.00156 41.1077 6.96669 41.3873 7.03741 41.6539C7.10813 41.9194 7.27475 42.1409 7.50531 42.2782L14.5065 46.416ZM3.06941 57.6931C4.02266 58.2092 5.27719 57.8013 5.77319 56.8252L11.6215 47.0955L8.09722 45.011L2.19754 54.9603C1.98247 55.3902 1.93307 55.9504 2.09194 56.4775C2.25179 57.0056 2.5986 57.4375 3.06941 57.6931ZM9.00203 24.828C9.55422 24.828 10.0028 24.363 10.0028 23.7938V22.7586H2.00282V23.7938C2.00282 24.363 2.45038 24.828 3.00257 24.828H9.00203ZM9.00203 16.5523H7.00253V10.3461H9.00203V16.5523ZM2.00282 7.24245C2.00282 7.81166 2.45038 8.27666 3.00257 8.27666H13.002C13.5542 8.27666 14.0018 7.81166 14.0018 7.24245C14.0018 6.67223 13.5542 6.20724 13.002 6.20724H3.00257C2.45038 6.20724 2.00282 6.67223 2.00282 7.24245ZM8.00228 2.06941C7.4501 2.06941 7.00253 2.53441 7.00253 3.10362V4.13883H9.00203V3.10362C9.00203 2.53441 8.55447 2.06941 8.00228 2.06941ZM25.4272 18.6207C24.3916 18.6207 23.4112 19.1879 22.8697 20.1019L20.5796 23.9631L25.4156 28.9658H36.5872L41.4212 23.9641L39.1311 20.1019C38.5886 19.1879 37.6092 18.6207 36.5727 18.6207H25.4272ZM55.0002 16.5523H53.0007V10.3461H55.0002V16.5523ZM48 7.24245C48 7.81166 48.4486 8.27666 49.0007 8.27666H59.0002C59.5524 8.27666 59.9999 7.81166 59.9999 7.24245C59.9999 6.67223 59.5524 6.20724 59.0002 6.20724H49.0007C48.4486 6.20724 48 6.67223 48 7.24245ZM54.0005 2.06941C53.4483 2.06941 52.9997 2.53441 52.9997 3.10362V4.13883H55.0002V3.10362C55.0002 2.53441 54.5526 2.06941 54.0005 2.06941ZM59.0002 10.3451H56.9997V16.5523H61.9994V21.7243V22.7586V23.7938C61.9994 25.5044 60.6538 26.8964 59.0002 26.8964H52.9997C51.6086 26.8964 50.4461 25.9063 50.108 24.5734L46.7503 28.9949L52.5018 38.6915L52.5125 38.6855C52.9629 38.417 53.4783 38.2757 53.9995 38.2757C55.0729 38.2757 56.0707 38.8739 56.6045 39.838C57.0016 40.5565 57.1053 41.3943 56.8941 42.195C56.6984 42.9356 56.247 43.5529 55.6299 43.9678L61.5063 53.8769C62.0372 54.9172 62.135 56.0375 61.8163 57.0938C61.4995 58.148 60.803 59.0119 59.8585 59.525C59.2898 59.8346 58.6456 60 57.9995 60C56.5066 60 55.1484 59.1512 54.4558 57.7843L48.6413 48.1207L48.4883 48.2108C48.0349 48.4784 47.5224 48.6207 47.0012 48.6207C45.9269 48.6207 44.9272 48.0204 44.3953 47.0554C43.9972 46.3399 43.8945 45.5031 44.1056 44.7014C44.312 43.9177 44.7993 43.2653 45.4716 42.8534L41.3844 36.0589L40.4864 37.2414H38.0006V41.3783H39.0003C40.655 41.3783 42.0006 42.7712 42.0006 44.4829V56.8964C42.0006 58.607 40.655 60 39.0003 60H23.0014C21.3478 60 20.0012 58.607 20.0012 56.8964V44.4829C20.0012 42.7712 21.3478 41.3783 23.0014 41.3783H24.0012V37.2414H21.5154L20.6154 36.0569L16.5292 42.8514C17.2015 43.2623 17.6888 43.9157 17.8961 44.6994C18.1063 45.5021 18.0037 46.3389 17.6045 47.0564C17.0746 48.0204 16.0758 48.6207 15.0005 48.6207C14.4813 48.6207 13.9669 48.4784 13.5145 48.2119L13.3595 48.1207L7.50725 57.8514C6.85238 59.1512 5.49419 60 4.00135 60C3.35616 60 2.71194 59.8346 2.14038 59.524C1.19779 59.0119 0.502223 58.149 0.183505 57.0928C-0.135214 56.0375 -0.0364014 54.9172 0.461536 53.9381L6.37188 43.9678C5.75382 43.5539 5.30335 42.9366 5.10863 42.196C4.89744 41.3953 5.0011 40.5575 5.39925 39.839C5.9311 38.8749 6.92891 38.2757 8.00325 38.2757C8.52444 38.2757 9.03981 38.417 9.49125 38.6845L9.49997 38.6895L15.2514 28.9929L11.8938 24.5734C11.5576 25.9063 10.3941 26.8964 9.00203 26.8964H3.00257C1.34891 26.8964 0.00234858 25.5044 0.00234858 23.7938V22.7586V21.7243V16.5523H5.00303V10.3451H3.00257C1.34891 10.3451 0.00234858 8.9531 0.00234858 7.24245C0.00234858 5.5308 1.34891 4.13883 3.00257 4.13883H5.00303V3.10362C5.00303 1.39297 6.34863 0 8.00228 0C9.65594 0 11.0025 1.39297 11.0025 3.10362V4.13883H13.002C14.6557 4.13883 16.0022 5.5308 16.0022 7.24245C16.0022 8.9531 14.6557 10.3451 13.002 10.3451H11.0025V16.5523H13.4166L19.1255 22.4589L21.1647 19.0186C22.0685 17.4973 23.7009 16.5523 25.4272 16.5523H36.5727C38.2999 16.5523 39.9332 17.4973 40.8361 19.0186L42.8753 22.4599L48.5871 16.5523H51.0002V10.3451H49.0007C47.3461 10.3451 46.0005 8.9531 46.0005 7.24245C46.0005 5.5308 47.3461 4.13883 49.0007 4.13883H51.0002V3.10362C51.0002 1.39297 52.3468 0 54.0005 0C55.6541 0 56.9997 1.39297 56.9997 3.10362V4.13883H59.0002C60.6538 4.13883 61.9994 5.5308 61.9994 7.24245C61.9994 8.9531 60.6538 10.3451 59.0002 10.3451ZM29.0014 47.5863C30.656 47.5863 32.0016 48.9783 32.0016 50.6899C32.0016 52.4006 30.656 53.7926 29.0014 53.7926C27.3477 53.7926 26.0012 52.4006 26.0012 50.6899C26.0012 48.9783 27.3477 47.5863 29.0014 47.5863ZM29.0014 55.862C31.7584 55.862 34.0011 53.541 34.0011 50.6899C34.0011 47.8369 31.7584 45.5179 29.0014 45.5179C26.2443 45.5179 24.0017 47.8369 24.0017 50.6899C24.0017 53.541 26.2443 55.862 29.0014 55.862ZM29.0014 51.724C29.5536 51.724 30.0011 51.2601 30.0011 50.6898C30.0011 50.1176 29.5536 49.6556 29.0014 49.6556C28.4492 49.6556 28.0016 50.1176 28.0016 50.6898C28.0016 51.2601 28.4492 51.724 29.0014 51.724ZM27.0014 22.759H35.0004L35.0023 24.8274H27.0014V22.759ZM27.0014 26.8968H35.0004C36.1038 26.8968 37.0008 25.9688 37.0008 24.8274V22.759C37.0008 21.6175 36.1038 20.6905 35.0004 20.6905H27.0014C25.898 20.6905 25.0019 21.6175 25.0019 22.759V24.8274C25.0019 25.9688 25.898 26.8968 27.0014 26.8968ZM31.0011 12.4139C31.5533 12.4139 32.0018 11.9499 32.0018 11.3797C32.0018 10.8095 31.5533 10.3455 31.0011 10.3455C30.4489 10.3455 30.0013 10.8095 30.0013 11.3797C30.0013 11.9499 30.4489 12.4139 31.0011 12.4139ZM31.0011 14.4833C29.3474 14.4833 28.0018 13.0913 28.0018 11.3797C28.0018 9.66803 29.3474 8.27606 31.0011 8.27606C32.6557 8.27606 34.0003 9.66803 34.0003 11.3797C34.0003 13.0913 32.6557 14.4833 31.0011 14.4833Z" fill="url(#paint0_linear)"/>
<defs>
<linearGradient id="paint0_linear" x1="30.4808" y1="77.7343" x2="83.0561" y2="37.1736" gradientUnits="userSpaceOnUse">
<stop stop-color="#FB2059"/>
<stop offset="0.602402" stop-color="#8138E9"/>
<stop offset="1" stop-color="#12CAF9"/>
</linearGradient>
</defs>
</svg>
