<svg width="32" height="60" viewBox="0 0 32 60" fill="none" xmlns="http://www.w3.org/2000/svg">
<path fill-rule="evenodd" clip-rule="evenodd" d="M6.97457 50.6269L9.08187 46.5872C9.28987 46.1888 9.70963 45.9394 10.1755 45.9394H21.8254C22.2913 45.9394 22.7101 46.1888 22.919 46.5872L25.0254 50.6269H6.97457ZM20.8965 27.5541L18.6019 43.5966H13.399L11.1045 27.555L16.0005 25.1184L20.8965 27.5541ZM8.47293 26.2238L9.75951 18.8072C9.82446 18.4312 9.69457 18.0478 9.41128 17.7797L3.82257 12.5044L11.5816 11.3841C11.9797 11.3269 12.3223 11.085 12.4993 10.7391L16.0005 3.84844L19.5016 10.7381C19.6786 11.085 20.0212 11.3269 20.4193 11.3841L28.1783 12.5044L22.5896 17.7797C22.3063 18.0478 22.1765 18.4303 22.2414 18.8072L23.527 26.2228L22.7882 25.8553L16.5642 22.7588C16.3863 22.6706 16.1934 22.6266 16.0005 22.6266C15.8075 22.6266 15.6136 22.6706 15.4376 22.7588L8.47293 26.2238ZM28.2273 50.6269H27.7595L25.1063 45.54C24.4805 44.3409 23.223 43.5966 21.8254 43.5966H21.0696L23.2014 28.7006L24.5718 29.3831C24.983 29.5884 25.48 29.5519 25.8536 29.2913C26.2282 29.0306 26.4174 28.5891 26.3412 28.1513L24.7581 19.0228L31.6362 12.5297C31.9656 12.2175 32.0833 11.7544 31.9402 11.3325C31.7981 10.9106 31.4179 10.6022 30.9595 10.5356L21.4188 9.15844L17.0998 0.659063C16.8955 0.255938 16.4682 0 16.0005 0C15.5327 0 15.1063 0.255938 14.9012 0.659063L10.5821 9.15844L1.04045 10.5356C0.583041 10.6022 0.203747 10.9106 0.0597465 11.3325C-0.0833123 11.7544 0.0352759 12.2175 0.364688 12.5297L7.24281 19.0228L5.65975 28.1513C5.58351 28.5891 5.77269 29.0306 6.14728 29.2913C6.52187 29.5528 7.01787 29.5875 7.42916 29.3831L8.79951 28.7006L10.9303 43.5966H10.1755C8.77693 43.5966 7.52045 44.3409 6.89457 45.54L4.24045 50.6269H3.77363C1.75104 50.6269 0.105864 52.2038 0.105864 54.1416V58.8281C0.105864 59.475 0.652688 60 1.32845 60H10.4983C11.1732 60 11.7209 59.475 11.7209 58.8281C11.7209 58.1813 11.1732 57.6562 10.4983 57.6562H2.55104V54.1416C2.55104 53.4956 3.09975 52.9697 3.77363 52.9697H28.2273C28.9012 52.9697 29.4499 53.4956 29.4499 54.1416V57.6562H21.5026C20.8268 57.6562 20.279 58.1813 20.279 58.8281C20.279 59.475 20.8268 60 21.5026 60H30.6725C31.3473 60 31.8951 59.475 31.8951 58.8281V54.1416C31.8951 52.2038 30.2499 50.6269 28.2273 50.6269ZM17.2231 18.0532V14.5386C17.2231 13.8917 16.6754 13.3667 16.0006 13.3667C15.3248 13.3667 14.778 13.8917 14.778 14.5386V18.0532C14.778 18.7001 15.3248 19.2251 16.0006 19.2251C16.6754 19.2251 17.2231 18.7001 17.2231 18.0532ZM14.7777 58.8281C14.7777 58.1813 15.3254 57.6562 16.0003 57.6562C16.6751 57.6562 17.2229 58.1813 17.2229 58.8281C17.2229 59.475 16.6751 60 16.0003 60C15.3254 60 14.7777 59.475 14.7777 58.8281Z" fill="url(#paint0_linear)"/>
<defs>
<linearGradient id="paint0_linear" x1="15.7322" y1="77.7343" x2="53.0951" y2="62.8569" gradientUnits="userSpaceOnUse">
<stop stop-color="#FB2059"/>
<stop offset="0.602402" stop-color="#8138E9"/>
<stop offset="1" stop-color="#12CAF9"/>
</linearGradient>
</defs>
</svg>
