<svg width="64" height="60" viewBox="0 0 64 60" fill="none" xmlns="http://www.w3.org/2000/svg">
<path fill-rule="evenodd" clip-rule="evenodd" d="M27.151 2.174C26.917 2.412 26.596 2.548 26.266 2.548C25.937 2.548 25.615 2.412 25.383 2.174C25.15 1.938 25.016 1.609 25.016 1.274C25.016 0.939 25.15 0.611 25.383 0.374C25.615 0.136 25.937 0 26.266 0C26.596 0 26.917 0.136 27.151 0.374C27.384 0.611 27.516 0.939 27.516 1.274C27.516 1.609 27.384 1.938 27.151 2.174ZM35.8598 33.8205C35.5258 33.8205 35.2048 33.7695 34.9008 33.6735C34.4208 34.8745 33.2608 35.7245 31.9108 35.7245C30.5608 35.7245 29.4018 34.8745 28.9208 33.6725C28.6188 33.7695 28.2958 33.8205 27.9628 33.8205C26.5448 33.8205 25.3378 32.8845 24.9058 31.5865C24.6228 31.6695 24.3238 31.7155 24.0138 31.7155C22.2338 31.7155 20.7868 30.2395 20.7868 28.4255V23.9635V20.9405V17.2245C20.7868 14.2405 21.9288 11.4365 24.0018 9.3295L25.0168 8.2985V5.8175C25.0168 5.1135 25.5758 4.5435 26.2668 4.5435C26.9568 4.5435 27.5168 5.1135 27.5168 5.8175V8.8275C27.5168 9.1655 27.3838 9.4905 27.1498 9.7295L25.7678 11.1335C24.1678 12.7595 23.2868 14.9225 23.2868 17.2245V20.9405V23.9635V28.4255C23.2868 28.8345 23.6128 29.1675 24.0138 29.1675C24.3828 29.1675 24.6878 28.8855 24.7348 28.5225V25.2185C24.7348 24.5145 25.2948 23.9445 25.9848 23.9445H25.9888H25.9918C26.6828 23.9445 27.2418 24.5145 27.2418 25.2185V28.4255C27.2418 28.4955 27.2388 28.5635 27.2348 28.6315V30.5315C27.2348 30.9415 27.5618 31.2745 27.9628 31.2745C28.3318 31.2745 28.6368 30.9925 28.6838 30.6295V25.2185C28.6838 24.5145 29.2428 23.9445 29.9338 23.9445H29.9368H29.9408C30.6308 23.9445 31.1908 24.5145 31.1908 25.2185V30.5315C31.1908 30.6015 31.1878 30.6695 31.1838 30.7375V32.4355C31.1838 32.8445 31.5098 33.1775 31.9118 33.1775C32.3128 33.1775 32.6388 32.8445 32.6388 32.4355V30.7385C32.6348 30.6705 32.6318 30.6015 32.6318 30.5315V25.2185C32.6318 24.5145 33.1918 23.9445 33.8818 23.9445H33.8848H33.8888C34.5798 23.9445 35.1388 24.5145 35.1388 25.2185V30.6295C35.1858 30.9925 35.4908 31.2735 35.8598 31.2735C36.2608 31.2735 36.5878 30.9405 36.5878 30.5315V20.1705C36.5878 19.3635 37.1578 18.7075 37.9438 18.6105C38.7298 18.5135 39.4378 19.0125 39.6268 19.7965L40.1618 22.0205C40.2568 22.4215 40.6458 22.6795 41.0448 22.6075C41.2508 22.5695 41.4278 22.4525 41.5468 22.2775C41.6648 22.1015 41.7078 21.8895 41.6678 21.6805L40.6308 16.3285C40.3058 14.6445 39.5038 13.1135 38.3098 11.9025L36.1718 9.7295C35.9368 9.4895 35.8048 9.1655 35.8048 8.8265V1.2745C35.8048 0.5705 36.3648 0.0005 37.0548 0.0005C37.7458 0.0005 38.3048 0.5705 38.3048 1.2745V8.2985L40.0758 10.0975C41.6218 11.6695 42.6628 13.6535 43.0848 15.8365L44.1198 21.1885C44.2918 22.0745 44.1098 22.9725 43.6088 23.7175C43.1078 24.4625 42.3508 24.9595 41.4788 25.1165C40.6178 25.2705 39.7678 25.0635 39.0878 24.5975V30.5315C39.0878 32.3455 37.6398 33.8205 35.8598 33.8205ZM30.5795 46.2438C31.4655 45.2128 31.6585 43.6808 30.9495 42.4298C30.7835 42.1358 30.5785 41.8778 30.3455 41.6588C30.6075 41.3158 30.8015 40.9208 30.9155 40.4888C31.1385 39.6398 31.0235 38.7538 30.5925 37.9928C29.9175 36.8018 28.6175 36.2028 27.3555 36.3798C27.2845 36.0598 27.1655 35.7508 27.0005 35.4598C26.5695 34.6988 25.8735 34.1538 25.0405 33.9268C24.2075 33.6988 23.3385 33.8158 22.5915 34.2558L17.5485 37.2228C17.6045 36.3898 17.3565 35.5358 16.7935 34.8528C16.2245 34.1618 15.4235 33.7418 14.5405 33.6728C13.6575 33.6028 12.8025 33.8908 12.1355 34.4858L8.10454 38.0758C6.46154 39.5408 5.29554 41.4508 4.73254 43.6008L4.08954 46.0628L0.624544 48.1008C0.027544 48.4538 -0.177456 49.2318 0.167544 49.8418C0.399544 50.2508 0.819544 50.4788 1.25154 50.4788C1.46354 50.4788 1.67854 50.4238 1.87454 50.3078L5.78854 48.0058C6.07654 47.8358 6.28654 47.5568 6.37154 47.2298L7.14854 44.2568C7.58254 42.5978 8.48154 41.1238 9.75054 39.9948L13.7805 36.4038C13.9375 36.2648 14.1395 36.1958 14.3475 36.2128C14.5565 36.2288 14.7445 36.3278 14.8785 36.4908C15.1395 36.8068 15.1145 37.2778 14.8215 37.5638L13.1995 39.1478C12.6275 39.7068 12.5575 40.5798 13.0325 41.2248C13.5085 41.8708 14.3505 42.0468 15.0365 41.6428L23.8415 36.4618C24.0105 36.3628 24.2055 36.3368 24.3935 36.3878C24.5815 36.4388 24.7385 36.5618 24.8355 36.7328C24.9335 36.9048 24.9585 37.1048 24.9085 37.2968C24.8645 37.4638 24.7645 37.6038 24.6275 37.7038L20.0505 40.3968C19.4535 40.7488 19.2475 41.5278 19.5935 42.1378L19.5945 42.139C19.5947 42.1395 19.595 42.1398 19.5955 42.1398L19.5965 42.1428C19.9415 42.7528 20.7065 42.9618 21.3045 42.6098L25.8195 39.9528C25.8785 39.9188 25.9355 39.8818 25.9915 39.8438L27.4335 38.9948C27.7815 38.7908 28.2275 38.9128 28.4285 39.2658C28.6285 39.6208 28.5095 40.0748 28.1615 40.2798L26.7185 41.1288C26.6595 41.1588 26.5995 41.1908 26.5405 41.2248L22.0255 43.8828C21.4275 44.2338 21.2225 45.0138 21.5675 45.6218C21.6145 45.7048 21.6715 45.7818 21.7355 45.8518C21.9755 46.1178 22.3105 46.2648 22.6545 46.2648C22.8665 46.2648 23.0815 46.2108 23.2785 46.0948L27.8765 43.3898C28.2085 43.2488 28.6005 43.3778 28.7845 43.7028C28.9855 44.0568 28.8655 44.5118 28.5185 44.7168L26.9045 45.6668C26.8435 45.6968 26.7845 45.7288 26.7255 45.7638L23.9995 47.3668C23.4015 47.7188 23.1965 48.4978 23.5415 49.1068C23.7645 49.4978 24.1845 49.7508 24.6285 49.7508C24.8415 49.7508 25.0565 49.6948 25.2525 49.5798L28.0615 47.9278C28.2085 47.8648 28.3705 47.8528 28.5275 47.8948C28.7145 47.9468 28.8715 48.0698 28.9695 48.2408C29.1695 48.5958 29.0505 49.0498 28.7025 49.2548L24.6965 51.6118L19.1845 54.8548C17.2275 56.0068 14.9485 56.3098 12.7675 55.7108L10.8825 55.1928C10.5615 55.1048 10.2205 55.1508 9.93254 55.3198L6.01954 57.6228C5.42154 57.9738 5.21654 58.7538 5.56154 59.3628C5.79354 59.7718 6.21354 60.0008 6.64554 60.0008C6.85754 60.0008 7.07254 59.9448 7.26954 59.8298L10.7335 57.7918L12.1165 58.1718C14.9445 58.9478 17.8975 58.5538 20.4335 57.0608L23.5915 55.2038L25.9465 53.8178L26.1605 53.6918L29.9525 51.4608C31.4945 50.5548 32.0235 48.5378 31.1345 46.9678C30.9805 46.6968 30.7935 46.4548 30.5795 46.2438ZM59.9104 46.0632L63.3744 48.1012C63.9724 48.4532 64.1774 49.2322 63.8324 49.8412C63.6014 50.2492 63.1814 50.4782 62.7484 50.4782C62.5364 50.4782 62.3214 50.4232 62.1254 50.3072L58.2114 48.0042C57.9244 47.8352 57.7144 47.5562 57.6284 47.2292L57.1264 45.3072C56.5444 43.0822 55.1464 41.2232 53.1894 40.0722L50.0334 38.2142L47.6784 36.8292L47.4644 36.7032L43.6714 34.4712C43.5034 34.3722 43.3074 34.3462 43.1194 34.3982C42.9324 34.4492 42.7744 34.5722 42.6774 34.7432C42.4934 35.0692 42.5794 35.4792 42.8644 35.7022L45.6734 37.3542C46.2704 37.7052 46.4764 38.4852 46.1304 39.0942C46.0834 39.1762 46.0254 39.2542 45.9624 39.3252C45.7234 39.5902 45.3874 39.7372 45.0434 39.7372C44.8314 39.7382 44.6164 39.6822 44.4194 39.5662L41.6934 37.9622C41.6354 37.9282 41.5784 37.8912 41.5224 37.8542L39.9074 36.9042C39.7394 36.8042 39.5434 36.7782 39.3554 36.8302C39.1674 36.8802 39.0114 37.0032 38.9134 37.1752C38.8154 37.3462 38.7904 37.5462 38.8404 37.7382C38.8854 37.9052 38.9844 38.0462 39.1214 38.1462L43.6984 40.8382C44.2964 41.1912 44.5014 41.9692 44.1554 42.5792C44.1084 42.6622 44.0524 42.7402 43.9874 42.8092C43.7484 43.0752 43.4134 43.2222 43.0684 43.2222C42.8564 43.2222 42.6424 43.1672 42.4444 43.0512L37.9304 40.3952C37.8714 40.3602 37.8134 40.3232 37.7584 40.2862L36.3154 39.4372C36.1474 39.3372 35.9514 39.3112 35.7634 39.3632C35.5754 39.4132 35.4184 39.5372 35.3214 39.7082C35.1204 40.0622 35.2404 40.5172 35.5884 40.7212L37.0294 41.5702C37.0904 41.6002 37.1494 41.6322 37.2094 41.6672L41.7244 44.3242C42.3224 44.6752 42.5264 45.4552 42.1824 46.0642C42.1354 46.1472 42.0774 46.2242 42.0134 46.2942C41.7734 46.5602 41.4384 46.7072 41.0954 46.7072C40.8824 46.7072 40.6674 46.6522 40.4714 46.5372L35.8724 43.8302C35.7254 43.7682 35.5634 43.7562 35.4064 43.7992C35.2194 43.8512 35.0624 43.9732 34.9654 44.1452C34.7644 44.4992 34.8844 44.9542 35.2304 45.1582L44.0364 50.3392C44.7224 50.7432 44.9944 51.5742 44.6844 52.3162C44.3724 53.0582 43.5954 53.4332 42.8354 53.2072L40.6774 52.5682C40.2884 52.4532 39.8754 52.6652 39.7364 53.0542C39.6654 53.2532 39.6764 53.4702 39.7664 53.6622C39.8554 53.8542 40.0154 53.9972 40.2124 54.0672L45.2784 55.8292C46.8724 56.3832 48.5754 56.4402 50.2014 55.9942L53.1164 55.1932C53.4374 55.1052 53.7794 55.1502 54.0664 55.3202L57.9804 57.6222C58.5784 57.9742 58.7834 58.7532 58.4374 59.3632C58.2064 59.7712 57.7864 59.9992 57.3544 59.9992C57.1424 59.9992 56.9274 59.9452 56.7304 59.8292L53.2664 57.7902L50.8524 58.4542C48.7434 59.0332 46.5374 58.9582 44.4714 58.2402L39.4054 56.4782C38.5664 56.1862 37.8944 55.5772 37.5114 54.7622C37.1284 53.9472 37.0844 53.0312 37.3884 52.1822C37.6874 51.3452 38.2884 50.6992 39.0234 50.3312L33.9804 47.3652C32.4394 46.4572 31.9104 44.4422 32.8004 42.8712C32.9654 42.5802 33.1694 42.3212 33.4044 42.0982C32.6244 41.0732 32.4814 39.6252 33.1564 38.4342C33.8314 37.2432 35.1324 36.6452 36.3944 36.8222C36.4654 36.5022 36.5834 36.1932 36.7484 35.9022C37.1794 35.1402 37.8754 34.5962 38.7084 34.3692C39.1954 34.2362 39.6954 34.2212 40.1764 34.3202C40.2474 34.0292 40.3574 33.7432 40.5124 33.4692C40.9434 32.7082 41.6394 32.1642 42.4724 31.9372C43.3054 31.7092 44.1744 31.8272 44.9214 32.2662L48.9274 34.6222L54.4394 37.8662C56.9764 39.3582 58.7874 41.7682 59.5414 44.6522L59.9104 46.0632Z" fill="url(#paint0_linear)"/>
<defs>
<linearGradient id="paint0_linear" x1="31.4643" y1="77.7354" x2="84.4405" y2="35.5472" gradientUnits="userSpaceOnUse">
<stop stop-color="#FB2059"/>
<stop offset="0.602402" stop-color="#8138E9"/>
<stop offset="1" stop-color="#12CAF9"/>
</linearGradient>
</defs>
</svg>
