<svg width="64" height="64" viewBox="0 0 64 64" fill="none" xmlns="http://www.w3.org/2000/svg">
<path fill-rule="evenodd" clip-rule="evenodd" d="M14.5339 25.5933C14.5339 25.1053 14.2072 24.6867 13.7552 24.5987C9.39387 23.7427 6.22853 19.9093 6.22853 15.484C6.22853 11.0573 9.39387 7.224 13.7552 6.36933C14.2072 6.28133 14.5339 5.86267 14.5339 5.37333V0H16.6112V5.37333C16.6112 6.84533 15.5792 8.11467 14.1565 8.39333C10.7659 9.06 8.30587 12.0413 8.30587 15.484C8.30587 18.9267 10.7659 21.9067 14.1565 22.572C15.5792 22.8507 16.6112 24.1213 16.6112 25.5933V30.9667H14.5339V25.5933ZM15.5729 18.5804C13.8556 18.5804 12.4583 17.1911 12.4583 15.4831C12.4583 13.7764 13.8556 12.3871 15.5729 12.3871C17.2903 12.3871 18.6876 13.7764 18.6876 15.4831C18.6876 17.1911 17.2903 18.5804 15.5729 18.5804ZM15.5729 10.3217C12.7116 10.3217 10.3823 12.6377 10.3823 15.4831C10.3823 18.3297 12.7116 20.6444 15.5729 20.6444C18.4343 20.6444 20.7636 18.3297 20.7636 15.4831C20.7636 12.6377 18.4343 10.3217 15.5729 10.3217ZM51.9084 55.7419H53.9857V35.0965H10.3817V55.7419H12.4577V39.2245C12.4577 38.0872 13.3897 37.1605 14.5351 37.1605H49.8337C50.9777 37.1605 51.9084 38.0872 51.9084 39.2245V55.7419ZM33.2217 57.8059H49.8337V39.2245H14.5351V57.8059H31.1457V59.8712H16.9017L17.4217 61.9352H46.9444L47.4644 59.8712H33.2217V57.8059ZM42.7924 30.9672H21.5737L21.0551 33.0325H43.3137L42.7924 30.9672ZM45.4537 33.0325H53.9857C55.1297 33.0325 56.0631 33.9579 56.0631 35.0965V55.7419C56.0631 56.8805 55.1297 57.8059 53.9857 57.8059H51.9084C51.9084 58.9445 50.9777 59.8712 49.8337 59.8712H49.6031L48.5671 63.9992H15.7991L14.7631 59.8712H14.5351C13.3897 59.8712 12.4577 58.9445 12.4577 57.8059H10.3817C9.2364 57.8059 8.30573 56.8805 8.30573 55.7419V35.0965C8.30573 33.9579 9.2364 33.0325 10.3817 33.0325H18.9164L19.9537 28.9032H44.4151L45.4537 33.0325ZM18.688 53.6771H16.6107V43.3557H18.688V53.6771ZM22.8395 51.6131H26.9928V53.6771H20.7635V47.4837H24.9168V45.4184H20.7635V43.3557H26.9928V49.5477H22.8395V51.6131ZM29.068 53.6771H31.1453V51.6131H29.068V53.6771ZM37.3747 51.6131H35.2973V45.4184H37.3747V51.6131ZM39.4507 53.6771H33.2213V43.3557H39.4507V53.6771ZM43.604 51.6131H45.68V45.4184H43.604V51.6131ZM41.5267 53.6771H47.756V43.3557H41.5267V53.6771ZM5.29573 3.80573L3.82773 5.2644L6.76373 8.1844L8.23173 6.7244L5.29573 3.80573ZM4.15333 16.5157H0V14.4517H4.15333V16.5157ZM3.8268 25.7016L5.2948 27.1616L8.23213 24.2416L6.76413 22.7829L3.8268 25.7016ZM25.8508 27.1632L22.9135 24.2432L24.3828 22.7832L27.3188 25.7032L25.8508 27.1632ZM26.992 16.5157H31.1453V14.4517H26.992V16.5157ZM25.8511 3.80467L27.3191 5.26467L24.3831 8.18333L22.9151 6.72467L25.8511 3.80467ZM22.8399 15.4835C22.8399 18.4435 21.0572 21.0741 18.2985 22.1848L19.0772 24.0995C22.6239 22.6701 24.9172 19.2888 24.9172 15.4835C24.9172 11.6781 22.6239 8.2968 19.0772 6.8688L18.2985 8.78347C21.0572 9.8928 22.8399 12.5235 22.8399 15.4835ZM42.5653 12.1855C42.5653 17.4188 46.848 21.6775 52.112 21.6775C55.5253 21.6775 58.6333 19.8441 60.3227 17.0148C59.376 17.2881 58.3947 17.4281 57.4053 17.4281C51.58 17.4281 46.8413 12.7161 46.8413 6.92413C46.8413 5.94013 46.98 4.96547 47.2547 4.02413C44.4093 5.70413 42.5653 8.7908 42.5653 12.1855ZM57.4053 15.3615C58.928 15.3615 60.4347 14.9455 61.756 14.1575L64 12.8215L63.2907 15.3228C61.8853 20.2801 57.288 23.7415 52.112 23.7415C45.7027 23.7415 40.4893 18.5575 40.4893 12.1855C40.4893 7.0388 43.972 2.46813 48.956 1.06947L51.4733 0.364133L50.128 2.59347C49.3347 3.90947 48.9173 5.40413 48.9173 6.9228C48.9173 11.5761 52.724 15.3615 57.4053 15.3615Z" fill="url(#paint0_linear)"/>
<defs>
<linearGradient id="paint0_linear" x1="31.4643" y1="82.9156" x2="87.0518" y2="41.4135" gradientUnits="userSpaceOnUse">
<stop stop-color="#FB2059"/>
<stop offset="0.602402" stop-color="#8138E9"/>
<stop offset="1" stop-color="#12CAF9"/>
</linearGradient>
</defs>
</svg>
