<svg width="62" height="60" viewBox="0 0 62 60" fill="none" xmlns="http://www.w3.org/2000/svg">
<path fill-rule="evenodd" clip-rule="evenodd" d="M47.0927 38.8154C47.0748 38.5088 47.1725 38.2069 47.3632 37.9688L58.6613 23.91L43.2928 19.7925V28.3716C44.1054 29.1403 44.6155 30.2363 44.6155 31.4513V38.61C44.6155 43.4054 42.1609 47.8388 38.1637 50.3551V53.0176L48.096 56.9335L47.0927 38.8154ZM36.3714 48.5738C36.3733 48.5729 36.3761 48.571 36.378 48.5701C39.9655 46.5676 42.1937 42.7519 42.1937 38.61V31.4513C42.1937 30.8513 41.896 30.3216 41.4422 30.0057C41.4369 30.0023 41.4314 29.999 41.4258 29.9957C41.4155 29.9896 41.405 29.9833 41.3953 29.9766C41.1275 29.8022 40.81 29.6991 40.469 29.6991H33.2742C32.3235 29.6991 31.5495 30.4857 31.5495 31.4513C31.5495 32.4169 32.3235 33.2025 33.2742 33.2025H37.5334C38.2023 33.2025 38.7443 33.7538 38.7443 34.4325C38.7443 35.1113 38.2023 35.6625 37.5334 35.6625H36.3216C33.3794 35.6625 30.5941 37.2432 29.0507 39.7857C28.8224 40.1635 28.4251 40.3716 28.0192 40.3716C27.8022 40.3716 27.5834 40.3125 27.3851 40.1879C26.8732 39.8672 26.6797 39.2232 26.9014 38.6757C24.8507 38.4225 23.2556 36.646 23.2556 34.4972V29.0625V25.0857V16.2919C23.2556 15.3253 22.4824 14.5397 21.5308 14.5397C20.5802 14.5397 19.8061 15.3253 19.8061 16.2919V28.5685V38.61C19.8061 43.3613 22.7718 47.6541 27.1851 49.2938C27.8126 49.5263 28.1357 50.2332 27.9065 50.8707C27.7271 51.3694 27.263 51.6779 26.7689 51.6779C26.6308 51.6779 26.4908 51.6544 26.3537 51.6029C25.5843 51.3179 24.8525 50.9635 24.1611 50.5529V53.7226H27.4077C28.0765 53.7226 28.6186 54.2729 28.6186 54.9516C28.6186 55.6313 28.0765 56.1816 27.4077 56.1816H24.1611V57.541H35.742V49.6622V49.6538V49.6519C35.742 49.6482 35.7429 49.6444 35.7429 49.6416C35.7429 49.6051 35.7448 49.5685 35.7476 49.5329C35.7495 49.5132 35.7533 49.4954 35.7561 49.4757C35.758 49.456 35.7608 49.4354 35.7645 49.4157C35.7678 49.3988 35.7719 49.3824 35.7761 49.3661C35.7779 49.3588 35.7797 49.3516 35.7814 49.3444C35.7852 49.3294 35.789 49.3154 35.7927 49.3013C35.7981 49.2812 35.8055 49.261 35.8127 49.2414C35.8142 49.2373 35.8157 49.2332 35.8171 49.2291C35.8218 49.215 35.8265 49.201 35.8322 49.1888C35.8397 49.1663 35.85 49.1447 35.8604 49.1232C35.8641 49.1161 35.8676 49.1087 35.8712 49.1012C35.8747 49.0937 35.8782 49.0861 35.882 49.0791C35.8914 49.0604 35.9017 49.0435 35.912 49.0257C35.9214 49.0079 35.9317 48.991 35.943 48.9741C35.9524 48.961 35.9618 48.9469 35.9721 48.9329C35.9741 48.9301 35.976 48.9274 35.9779 48.9246C35.9892 48.9085 36.0006 48.892 36.0135 48.8776C36.0219 48.8654 36.0313 48.8541 36.0417 48.8438C36.0576 48.8251 36.0736 48.8063 36.0914 48.7876C36.1018 48.7763 36.113 48.7679 36.1243 48.7566C36.1422 48.7397 36.1581 48.7238 36.1769 48.7079C36.1915 48.695 36.2069 48.6838 36.223 48.6719L36.2277 48.6685C36.2347 48.6633 36.2415 48.658 36.2483 48.6526C36.2551 48.6472 36.2619 48.6418 36.269 48.6366C36.3009 48.6151 36.3329 48.5954 36.3657 48.5757C36.3676 48.5757 36.3686 48.5747 36.3704 48.5747C36.3704 48.5738 36.3714 48.5738 36.3714 48.5738ZM13.9039 56.9335L21.7394 53.8444V48.7219C19.0255 46.1513 17.3844 42.5082 17.3844 38.61V28.5685V20.1469L3.3376 23.91L14.6366 37.9688C14.8273 38.2069 14.9241 38.5088 14.9072 38.8154L13.9039 56.9335ZM29.1277 31.4513V25.0857C29.1277 24.12 28.3537 23.3344 27.4021 23.3344C26.4514 23.3344 25.6783 24.12 25.6783 25.0857V29.0625V34.4972C25.6783 35.4628 26.4514 36.2485 27.4021 36.2485C28.3537 36.2485 29.1277 35.4628 29.1277 34.4972V31.4513ZM31.5495 25.0857V27.6235C32.0755 27.3778 32.6598 27.24 33.2742 27.24H34.9999V25.0857C34.9999 24.12 34.2258 23.3344 33.2751 23.3344C32.3235 23.3344 31.5495 24.12 31.5495 25.0857ZM35.2742 10.2422L30.9999 3.50157L24.6477 13.5178C25.2875 14.2594 25.6783 15.2306 25.6783 16.2919V21.2578C26.2034 21.0131 26.7867 20.8753 27.4021 20.8753C28.5481 20.8753 29.5871 21.3488 30.3386 22.1147C31.0901 21.3488 32.1281 20.8744 33.2742 20.8744C33.8895 20.8744 34.4738 21.0122 34.9999 21.2578V11.7469C34.9999 11.2172 35.0976 10.71 35.2742 10.2422ZM39.1464 9.99564C38.1947 9.99564 37.4216 10.7813 37.4216 11.7469V27.24H40.469C40.6052 27.24 40.7386 27.2466 40.8711 27.2607V11.7469C40.8711 10.7813 40.098 9.99564 39.1464 9.99564ZM61.0981 22.02C61.4964 22.1269 61.8139 22.4306 61.9407 22.8291C62.0676 23.2256 61.9868 23.6625 61.7275 23.986L49.537 39.1547L50.6201 58.7016C50.6427 59.1197 50.4557 59.5191 50.1232 59.7657C49.9127 59.9204 49.6619 60.001 49.4111 60.001C49.2617 60.001 49.1143 59.9738 48.9724 59.9166L38.1637 55.6557V58.7701C38.1637 59.4497 37.6217 60.0001 36.9529 60.0001H22.9503C22.2824 60.0001 21.7394 59.4497 21.7394 58.7701V56.4816L13.0274 59.9166C12.8856 59.9729 12.7372 60.0001 12.5897 60.0001C12.337 60.0001 12.0871 59.9204 11.8776 59.7657C11.5441 59.5191 11.3572 59.1197 11.3807 58.7016L12.4629 39.1547L0.273301 23.986C0.0121496 23.6625 -0.0676989 23.2256 0.0591193 22.8291C0.186877 22.4306 0.504392 22.126 0.902695 22.02L17.3844 17.6035V16.2919C17.3844 13.9697 19.2444 12.0806 21.5308 12.0806C21.8972 12.0806 22.2523 12.1294 22.5905 12.2203L29.9826 0.564376C30.2052 0.212813 30.5885 0 30.9999 0C31.4123 0 31.7956 0.212813 32.0182 0.564376L36.8768 8.22563C37.5287 7.79063 38.3084 7.53563 39.1464 7.53563C41.4338 7.53563 43.2928 9.4247 43.2928 11.7469V17.2491L61.0981 22.02ZM26.9938 41.2958C26.34 41.1542 25.6965 41.578 25.5565 42.2417C25.5556 42.2475 25.5539 42.2561 25.5521 42.2651L25.5471 42.2895C25.4241 42.9542 25.8524 43.5945 26.5062 43.7239C26.5852 43.7389 26.6622 43.7464 26.7392 43.7464C27.3066 43.7464 27.8139 43.3395 27.9266 42.7517C27.9272 42.7496 27.9277 42.7465 27.9282 42.7429C27.9286 42.7404 27.929 42.7376 27.9294 42.7349C28.0562 42.0777 27.641 41.4355 26.9938 41.2958ZM30.9578 53.7223H30.9344C30.2655 53.7223 29.7235 54.2726 29.7235 54.9523C29.7235 55.631 30.2655 56.1813 30.9344 56.1813H30.9578C31.6267 56.1813 32.1687 55.631 32.1687 54.9523C32.1687 54.2726 31.6267 53.7223 30.9578 53.7223Z" fill="url(#paint0_linear)"/>
<defs>
<linearGradient id="paint0_linear" x1="30.4809" y1="77.7356" x2="83.057" y2="37.1748" gradientUnits="userSpaceOnUse">
<stop stop-color="#FB2059"/>
<stop offset="0.602402" stop-color="#8138E9"/>
<stop offset="1" stop-color="#12CAF9"/>
</linearGradient>
</defs>
</svg>
