<svg width="54" height="58" viewBox="0 0 54 58" fill="none" xmlns="http://www.w3.org/2000/svg">
<path fill-rule="evenodd" clip-rule="evenodd" d="M50.7907 35.4878C49.383 36.6007 47.6317 37.2695 45.7827 37.2695C45.1347 37.2695 44.6087 36.762 44.6087 36.1367C44.6087 35.5114 45.1347 35.0039 45.7827 35.0039C48.9594 35.0039 51.6529 32.209 51.6529 29C51.6529 27.0597 50.6278 25.2753 48.911 24.2259C48.3821 23.9023 48.209 23.2362 48.5181 22.7106C49.0394 21.8225 49.3039 20.8891 49.3039 19.9375C49.3039 16.8789 46.7202 13.9336 43.4356 13.9336C40.3082 13.9336 37.5654 16.7393 37.5654 19.9375C37.5654 20.5628 37.0393 21.0703 36.3913 21.0703C35.7433 21.0703 35.2173 20.5628 35.2173 19.9375C35.2173 15.4552 38.9806 11.668 43.4356 11.668C43.8275 11.668 44.2186 11.6988 44.6059 11.7568C44.6059 11.7418 44.6066 11.7271 44.6073 11.7124L44.6078 11.6996L44.6085 11.6823L44.6087 11.668C44.6087 9.15131 42.4952 7.13672 39.9125 7.13672C38.6593 7.13672 37.4797 7.60797 36.5915 8.46347C36.1334 8.90572 35.3896 8.90572 34.9315 8.46256C34.4734 8.02031 34.4743 7.30347 34.9333 6.86122C36.004 5.829 37.3578 5.17016 38.826 4.95175C37.7907 3.46913 36.0692 2.26562 34.0442 2.26562C30.9169 2.26562 28.174 5.07137 28.174 8.26953V17.149C28.8649 16.762 29.6665 16.5391 30.5212 16.5391C31.1701 16.5391 31.6961 17.0466 31.6961 17.6719C31.6961 18.2972 31.1701 18.8047 30.5212 18.8047C29.228 18.8047 28.174 19.8215 28.174 21.0703V42.6128C29.8964 40.7278 32.4149 39.5352 35.2173 39.5352C35.8662 39.5352 36.3913 40.0427 36.3913 40.668C36.3913 41.2933 35.8662 41.8008 35.2173 41.8008C31.333 41.8008 28.174 44.8494 28.174 48.5977C28.174 52.4664 31.4001 55.7344 35.2173 55.7344C37.935 55.7344 40.4376 54.1838 41.5921 51.7831C41.8053 51.3409 42.2857 51.079 42.7894 51.1343C42.8723 51.1442 42.9551 51.1542 43.038 51.1651C46.0089 51.5575 49.3039 48.7155 49.3039 45.1992C49.3039 44.7923 49.2471 44.37 49.1223 43.8716C49.018 43.452 49.1689 43.0115 49.5124 42.7351C50.8727 41.644 51.6529 40.0644 51.6529 38.4023C51.6529 37.3747 51.3512 36.3696 50.7907 35.4878ZM23.4779 16.5391C24.3335 16.5391 25.1351 16.762 25.826 17.149V8.26953C25.826 5.07137 23.0841 2.26562 19.9567 2.26562C17.9308 2.26562 16.2093 3.46913 15.174 4.95175C16.6422 5.17016 17.9969 5.829 19.0676 6.86122C19.5266 7.30347 19.5266 8.02031 19.0685 8.46256C18.6104 8.90572 17.8675 8.90572 17.4085 8.46347C16.5203 7.60797 15.3416 7.13672 14.0875 7.13672C11.5178 7.13672 9.39135 9.13953 9.39135 11.668C9.39135 11.6859 9.39234 11.7034 9.39335 11.721C9.39402 11.7329 9.39469 11.7448 9.39507 11.7568C9.78145 11.6988 10.1725 11.668 10.5654 11.668C15.0194 11.668 18.7827 15.4552 18.7827 19.9375C18.7827 20.5628 18.2576 21.0703 17.6087 21.0703C16.9607 21.0703 16.4356 20.5628 16.4356 19.9375C16.4356 16.7393 13.6918 13.9336 10.5654 13.9336C7.27883 13.9336 4.69614 16.8798 4.69614 19.9375C4.69614 20.8891 4.96055 21.8225 5.48193 22.7106C5.79103 23.2362 5.61786 23.9023 5.08903 24.2259C3.37314 25.2753 2.34807 27.0597 2.34807 29C2.34807 32.1973 5.03131 35.0039 8.21731 35.0039C8.86624 35.0039 9.39135 35.5114 9.39135 36.1367C9.39135 36.762 8.86624 37.2695 8.21731 37.2695C6.36921 37.2695 4.61793 36.6016 3.20928 35.4869C2.64879 36.3696 2.34807 37.3747 2.34807 38.4023C2.34807 40.0644 3.12828 41.644 4.48759 42.7351C4.83114 43.0115 4.9829 43.452 4.87769 43.8716C3.86007 47.9551 7.62238 51.6055 10.9629 51.1651C11.0458 51.1542 11.1277 51.1442 11.2115 51.1343C11.7133 51.0799 12.1956 51.3409 12.4088 51.7831C13.5633 54.1838 16.065 55.7344 18.7827 55.7344C22.6009 55.7344 25.826 52.4664 25.826 48.5977C25.826 44.8494 22.666 41.8008 18.7827 41.8008C18.1347 41.8008 17.6087 41.2933 17.6087 40.668C17.6087 40.0427 18.1347 39.5352 18.7827 39.5352C21.586 39.5352 24.1035 40.7278 25.826 42.6128V21.0703C25.826 19.8215 24.773 18.8047 23.4779 18.8047C22.8299 18.8047 22.3048 18.2972 22.3048 17.6719C22.3048 17.0466 22.8299 16.5391 23.4779 16.5391ZM54 29C54 30.5778 53.4963 32.3984 52.488 33.8575C53.4693 35.1933 54 36.7756 54 38.4023C54 40.5112 53.1137 42.5203 51.5467 44.0111C51.6184 44.4253 51.6529 44.8177 51.6529 45.1992C51.6529 49.6815 47.8896 53.4688 43.4356 53.4688L43.4087 53.4686C43.3811 53.4683 43.3543 53.4676 43.3276 53.4669C41.6582 56.2446 38.5616 58 35.2173 58C31.7325 58 28.6181 55.9809 27 53.0727C25.3819 55.9809 22.2676 58 18.7827 58C15.4393 58 12.3418 56.2446 10.6724 53.4669C10.6371 53.4678 10.6017 53.4688 10.5654 53.4688C5.53221 53.4688 1.64793 48.7118 2.45328 44.0111C0.886345 42.5203 0 40.5112 0 38.4023C0 36.7756 0.53069 35.1933 1.512 33.8575C0.508345 32.4048 0 30.5859 0 29C0 26.6211 1.0949 24.4117 2.97372 22.9136C2.55848 21.9548 2.34807 20.957 2.34807 19.9375C2.34807 16.7819 4.25669 13.8421 7.09355 12.47C6.66434 9.04528 8.96866 5.87159 12.4377 5.06141C13.7868 2.05084 16.7893 0 19.9567 0C22.9044 0 25.5485 1.65934 27 4.07994C28.4524 1.65934 31.0966 0 34.0442 0C37.2107 0 40.2142 2.05084 41.5632 5.0605C45.0109 5.86706 47.3375 9.02444 46.9064 12.47C49.7442 13.8421 51.6529 16.7819 51.6529 19.9375C51.6529 20.957 51.4424 21.9548 51.0263 22.9136C52.9051 24.4117 54 26.6211 54 29ZM21.1308 9.40234C20.4828 9.40234 19.9567 9.90984 19.9567 10.5352C19.9567 11.1605 20.4828 11.668 21.1308 11.668C21.7788 11.668 22.3048 11.1605 22.3048 10.5352C22.3048 9.90984 21.7788 9.40234 21.1308 9.40234ZM32.8701 11.668C33.5171 11.668 34.0441 11.1605 34.0441 10.5352C34.0441 9.90984 33.5171 9.40234 32.8701 9.40234C32.2221 9.40234 31.696 9.90984 31.696 10.5352C31.696 11.1605 32.2221 11.668 32.8701 11.668ZM21.5217 24.159C17.7575 27.4088 11.7393 24.8115 11.7393 19.9377C11.7393 19.3115 11.2142 18.8049 10.5653 18.8049C9.91729 18.8049 9.39125 19.3115 9.39125 19.9377C9.39125 23.8699 12.3743 27.1415 16.2707 27.7604C15.8191 29.1343 14.484 30.133 12.9134 30.133C12.2654 30.133 11.7393 30.6396 11.7393 31.2658C11.7393 31.8911 12.2654 32.3986 12.9134 32.3986C15.7726 32.3986 18.1597 30.4148 18.6774 27.7994C20.3095 27.5928 21.8466 26.9185 23.0877 25.8473C23.57 25.4305 23.6119 24.7145 23.1799 24.2487C22.7469 23.782 22.0049 23.7421 21.5217 24.159ZM9.39125 45.1992C9.39125 44.5739 9.91729 44.0664 10.5653 44.0664C15.0194 44.0664 18.7826 47.8536 18.7826 52.3359C18.7826 52.9613 18.2575 53.4688 17.6086 53.4688C16.9606 53.4688 16.4355 52.9613 16.4355 52.3359C16.4355 49.1378 13.6917 46.332 10.5653 46.332C9.91729 46.332 9.39125 45.8245 9.39125 45.1992ZM19.9565 35.0039C15.9792 35.0039 12.5632 37.1091 10.7644 40.1704C10.4451 40.7151 10.6434 41.4057 11.2076 41.7147C11.7709 42.0228 12.4878 41.8316 12.8071 41.2878C14.2083 38.9026 16.8674 37.2695 19.9565 37.2695C20.6055 37.2695 21.1306 36.762 21.1306 36.1367C21.1306 35.5114 20.6055 35.0039 19.9565 35.0039ZM42.2611 19.9375C42.2611 19.3122 42.7871 18.8047 43.4351 18.8047C44.0831 18.8047 44.6091 19.3122 44.6091 19.9375C44.6091 23.8697 41.627 27.1413 37.7297 27.7603C38.1813 29.1341 39.5154 30.1328 41.0879 30.1328C41.7359 30.1328 42.2611 30.6403 42.2611 31.2656C42.2611 31.8909 41.7359 32.3984 41.0879 32.3984C38.2278 32.3984 35.8416 30.4156 35.323 27.7992C33.6899 27.5926 32.1537 26.9193 30.9136 25.8472C30.4295 25.4312 30.3885 24.7143 30.8205 24.2485C31.2534 23.7818 31.9955 23.7419 32.4777 24.1588C33.5568 25.0895 34.9459 25.6016 36.3918 25.6016C39.6281 25.6016 42.2611 23.0604 42.2611 19.9375ZM43.4351 44.0664C38.981 44.0664 35.2178 47.8536 35.2178 52.3359C35.2178 52.9613 35.7429 53.4688 36.3918 53.4688C37.0398 53.4688 37.5649 52.9613 37.5649 52.3359C37.5649 49.1378 40.3087 46.332 43.4351 46.332C44.0831 46.332 44.6091 45.8245 44.6091 45.1992C44.6091 44.5739 44.0831 44.0664 43.4351 44.0664ZM42.7934 41.7152C42.2292 42.0234 41.5132 41.833 41.193 41.2875C39.7918 38.9022 37.1318 37.2692 34.0436 37.2692C33.3956 37.2692 32.8705 36.7626 32.8705 36.1364C32.8705 35.511 33.3956 35.0035 34.0436 35.0035C38.0312 35.0035 41.4416 37.116 43.2347 40.171C43.555 40.7147 43.3567 41.4062 42.7934 41.7152Z" fill="url(#paint0_linear)"/>
<defs>
<linearGradient id="paint0_linear" x1="26.548" y1="75.1432" x2="75.7978" y2="40.9092" gradientUnits="userSpaceOnUse">
<stop stop-color="#FB2059"/>
<stop offset="0.602402" stop-color="#8138E9"/>
<stop offset="1" stop-color="#12CAF9"/>
</linearGradient>
</defs>
</svg>
