<svg width="60" height="60" viewBox="0 0 60 60" fill="none" xmlns="http://www.w3.org/2000/svg">
<path fill-rule="evenodd" clip-rule="evenodd" d="M40.6237 26.3794L32.1122 25.1382C31.5806 25.0603 31.1794 24.5972 31.1794 24.0591C31.1794 23.4581 31.6678 22.9688 32.2697 22.9688H42.7481L44.9512 30.0497C45.1041 30.5391 45.5578 30.8728 46.0706 30.8728C46.5825 30.8728 47.0363 30.5391 47.1891 30.0497L49.5788 22.3753L56.1028 14.3297C56.108 14.324 56.1124 14.3179 56.1168 14.3119C56.1187 14.3094 56.1205 14.3068 56.1224 14.3044C56.1234 14.3031 56.1243 14.3019 56.1253 14.3006C56.4694 13.8478 56.94 13.9622 57.0769 14.0081C57.2128 14.055 57.6572 14.2481 57.6572 14.8163C57.6572 14.9635 57.6188 15.1088 57.5466 15.2372L50.6822 27.3525C50.5819 27.5288 50.5294 27.7275 50.5294 27.93L50.5303 35.7422H41.625L41.6269 27.5391C41.6269 26.9578 41.1994 26.4638 40.6237 26.3794ZM39.2822 36.9216C39.2822 36.9231 39.2825 36.9244 39.2827 36.9255C39.2829 36.9265 39.2831 36.9273 39.2831 36.9282V49.5244L30.4528 45.8907C30.1687 45.7735 29.8472 45.7735 29.5622 45.8907L20.7178 49.5263V36.9282L20.7169 28.5525L28.2262 27.4575C28.4363 27.4266 28.6406 27.3769 28.8366 27.3103V37.6163C28.8366 38.2632 29.3606 38.7882 30.0075 38.7882C30.6544 38.7882 31.1794 38.2632 31.1794 37.6163V27.315C31.3706 27.3797 31.5694 27.4275 31.7747 27.4575L39.2831 28.5525L39.2822 36.9141V36.9216ZM18.3741 27.5391L18.375 35.7422H9.46969L9.47156 27.93C9.47156 27.7275 9.41813 27.5288 9.31875 27.3525L2.45438 15.2372C2.38125 15.1088 2.34375 14.9635 2.34375 14.8163C2.34375 14.2481 2.78813 14.0541 2.92406 14.0081C3.06 13.9622 3.53063 13.8478 3.87469 14.3006L3.88594 14.3152L3.89719 14.3297L10.41 22.3603L12.8044 30.0497C12.9572 30.5391 13.41 30.8728 13.9228 30.8728C14.4356 30.8728 14.8894 30.5391 15.0413 30.0497L17.2453 22.9688H27.7313C28.3322 22.9688 28.8216 23.4581 28.8216 24.0591C28.8216 24.5972 28.4203 25.0613 27.8888 25.1382L19.3762 26.3794C18.8006 26.4638 18.3731 26.9578 18.3741 27.5391ZM18.375 50.4891H18.3741L15.0938 51.8382V40.3519C15.0938 39.7041 14.5688 39.18 13.9228 39.18C13.2759 39.18 12.7509 39.7041 12.7509 40.3519V52.801L9.47062 54.1501V38.086H18.375V50.4891ZM14.7909 22.9688L13.9228 25.7588L13.0538 22.9688H14.7909ZM11.2875 16.1972C12.6909 16.1972 14.0363 15.7706 15.1641 14.9925C15.7172 15.6703 16.5487 16.111 17.4947 16.1438L17.9062 16.1578V16.6406C17.9062 18.8381 16.1184 20.625 13.9228 20.625C11.7262 20.625 9.93937 18.8381 9.93937 16.6406V16.1972H11.2875ZM13.9228 10.5141C15.8841 10.5141 17.5191 11.94 17.8462 13.8103L17.5753 13.801C17.1412 13.786 16.8009 13.4335 16.8009 12.9994C16.8009 12.5063 16.4925 12.0656 16.0294 11.8978C15.5662 11.7291 15.0478 11.8678 14.7309 12.2456C13.875 13.2675 12.6206 13.8535 11.2875 13.8535H9.99094C10.3003 11.9625 11.9456 10.5141 13.9228 10.5141ZM31.1794 14.071H37.7081C38.355 14.071 38.88 13.546 38.88 12.8991V10.7813H40.9772C40.2169 11.8266 39.7669 13.11 39.7669 14.4985V15.0253C39.7669 15.0319 39.7678 15.0385 39.7678 15.045C39.7575 15.105 39.7509 15.1669 39.7509 15.2288V16.6406C39.7509 18.15 40.2834 19.5366 41.1675 20.625H32.2697C31.8891 20.625 31.5225 20.6888 31.1794 20.8041V14.071ZM31.1794 5.86688H32.6878V9.60938C32.6878 10.2572 33.2119 10.7813 33.8587 10.7813H36.5372V11.7263H31.1794V5.86688ZM35.0306 2.34375H41.4656L39.1659 4.64344C38.9437 4.86657 38.82 5.16938 38.8237 5.48344C38.8266 5.79844 38.9569 6.09938 39.1828 6.31782L41.3859 8.43751H35.0306V2.34375ZM46.9388 22.9688L46.0706 25.7588L45.2025 22.9688H46.9388ZM42.5203 16.1438C43.4663 16.11 44.2988 15.6703 44.8519 14.9925C45.9797 15.7706 47.325 16.1972 48.7284 16.1972H50.0616V16.6406C50.0616 18.8381 48.2747 20.625 46.0781 20.625C43.8825 20.625 42.0947 18.8381 42.0947 16.6406V16.1578L42.5203 16.1438ZM46.0931 10.5141C48.0694 10.5141 49.7147 11.9625 50.0241 13.8535H48.7284C47.3953 13.8535 46.1409 13.2675 45.285 12.2466C45.0572 11.9756 44.7262 11.8275 44.3869 11.8275C44.2519 11.8275 44.1178 11.85 43.9866 11.8978C43.5234 12.0656 43.215 12.5063 43.215 12.9994C43.215 13.4335 42.8747 13.786 42.4397 13.801L42.1688 13.8103C42.4959 11.94 44.1309 10.5141 46.0931 10.5141ZM59.2594 57.7444L52.8731 55.1166V49.8572C52.8731 49.2104 52.3491 48.6854 51.7012 48.6854C51.0544 48.6854 50.5294 49.2113 50.5294 49.8572V54.1529L47.2491 52.8019V40.3519C47.2491 39.7041 46.725 39.18 46.0781 39.18C45.4313 39.18 44.9062 39.7041 44.9062 40.3519V51.8382L41.6259 50.4882V38.086H50.5303V40.5488C50.5303 41.1957 51.0544 41.7207 51.7012 41.7207C52.3491 41.7207 52.8731 41.1957 52.8731 40.5488V36.9272V36.9216C52.8731 36.9202 52.8734 36.919 52.8736 36.9178C52.8738 36.9166 52.8741 36.9155 52.8741 36.9141L52.8722 28.2385L59.5847 16.3931C59.8566 15.9131 60 15.3675 60 14.8172C60 13.4222 59.1469 12.2335 57.825 11.7872C56.5097 11.3438 55.1184 11.7675 54.2738 12.8663L52.4109 15.1622C52.4166 15.1172 52.4194 15.0713 52.4194 15.0253V14.4985C52.4194 11.0091 49.5816 8.17032 46.0931 8.17032C45.6009 8.17032 45.1219 8.22938 44.6616 8.33626L41.6681 5.45626L45.1237 2.00063C45.4575 1.66594 45.5588 1.16156 45.3769 0.723751C45.1959 0.285938 44.7684 0 44.2941 0H33.8587C33.2119 0 32.6869 0.525001 32.6869 1.17188V3.52313H30.0084C29.3606 3.52313 28.8366 4.04813 28.8366 4.695V20.8088C28.4897 20.6906 28.1184 20.625 27.7313 20.625H18.8325C19.7175 19.5366 20.2491 18.15 20.2491 16.6406V15.2288C20.2491 15.1941 20.2472 15.1603 20.2434 15.1275C20.2472 15.0928 20.2491 15.0591 20.2491 15.0253V14.4985C20.2491 11.0091 17.4112 8.17032 13.9228 8.17032C10.4344 8.17032 7.59656 11.0091 7.59656 14.4985V15.0253C7.59656 15.06 7.59844 15.0928 7.60125 15.1275C7.6 15.1375 7.59958 15.1475 7.59917 15.1575L7.59844 15.1725L5.72719 12.8653C4.8825 11.7675 3.49125 11.3438 2.17594 11.7872C0.854062 12.2325 0 13.4222 0 14.8172C0 15.3675 0.144375 15.9131 0.41625 16.3931L7.12781 28.2385V55.1129L0.726562 57.7444C0.128438 57.9901 -0.1575 58.6754 0.088125 59.2735C0.27375 59.7272 0.711563 60.001 1.17188 60.001C1.32094 60.001 1.47187 59.9729 1.61719 59.9119L30.0075 48.2419L58.3678 59.9119C58.9659 60.1585 59.6512 59.8726 59.8978 59.2735C60.1434 58.6754 59.8584 57.9901 59.2594 57.7444ZM51.7016 44.1795C51.3932 44.1795 51.0923 44.3052 50.8738 44.5227C50.6544 44.7411 50.5307 45.0439 50.5307 45.3514C50.5307 45.6599 50.6554 45.9617 50.8738 46.1802C51.0923 46.3977 51.3932 46.5233 51.7016 46.5233C52.0101 46.5233 52.3119 46.3977 52.5304 46.1802C52.7479 45.9617 52.8735 45.6599 52.8735 45.3514C52.8735 45.0439 52.7479 44.7411 52.5304 44.5227C52.311 44.3052 52.0101 44.1795 51.7016 44.1795ZM29.1795 41.593C29.3979 41.3755 29.6989 41.2499 30.0082 41.2499C30.3158 41.2499 30.6186 41.3755 30.837 41.593C31.0545 41.8114 31.1792 42.1142 31.1792 42.4217C31.1792 42.7302 31.0545 43.032 30.837 43.2505C30.6186 43.468 30.3158 43.5936 30.0082 43.5936C29.6998 43.5936 29.3979 43.468 29.1795 43.2505C28.9611 43.032 28.8364 42.7302 28.8364 42.4217C28.8364 42.1142 28.9611 41.8114 29.1795 41.593Z" fill="url(#paint0_linear)"/>
<defs>
<linearGradient id="paint0_linear" x1="29.4978" y1="77.7356" x2="81.6121" y2="38.8278" gradientUnits="userSpaceOnUse">
<stop stop-color="#FB2059"/>
<stop offset="0.602402" stop-color="#8138E9"/>
<stop offset="1" stop-color="#12CAF9"/>
</linearGradient>
</defs>
</svg>
