<svg width="64" height="62" viewBox="0 0 64 62" fill="none" xmlns="http://www.w3.org/2000/svg">
<path fill-rule="evenodd" clip-rule="evenodd" d="M18.618 28.3885C17.105 29.9598 15.016 30.8927 12.8 30.9866C5.405 30.9866 0 18.7484 0 12.3789C0.014 6.85313 3.798 2.0026 9.279 0.481661C16.075 -1.40256 23.162 2.40851 25.106 8.99601L23.054 9.55885C21.746 5.13457 17.577 2.08107 12.829 2.06847C6.938 2.05297 2.15 6.66907 2.133 12.3789C2.133 18.6012 7.3 28.9193 12.8 28.9193C14.465 28.8147 16.022 28.0881 17.145 26.8927L18.618 28.3885ZM32.7543 17.3182C32.3383 17.7221 31.6633 17.7221 31.2463 17.3182L29.1123 15.2508C26.5833 12.7989 22.4833 12.7989 19.9543 15.2508C17.4253 17.7018 17.4253 21.6756 19.9543 24.1265L32.0003 35.8009L44.0463 24.1265C46.5753 21.6756 46.5753 17.7018 44.0463 15.2508C41.5173 12.7989 37.4173 12.7989 34.8883 15.2508L32.7543 17.3182ZM18.4463 25.5884C15.0843 22.3295 15.0843 17.0469 18.4463 13.789C21.8083 10.5301 27.2593 10.5301 30.6213 13.789L32.0003 15.1249L33.3793 13.789L33.4343 13.7347C36.8113 10.4914 42.2633 10.5156 45.6093 13.789C48.9563 17.0614 48.9323 22.344 45.5543 25.5884L32.7543 37.9932C32.3383 38.3972 31.6633 38.3972 31.2463 37.9932L18.4463 25.5884ZM33.1422 62.0001H31.0082V45.4597H33.1422V62.0001ZM50.1342 62.0001H52.2672V38.2231H50.1342V62.0001ZM13.8662 62.0011H11.7332V39.2568H13.8662V62.0011ZM19.2004 30.9866H17.0674C16.7834 30.9866 16.5124 31.0961 16.3124 31.2889L14.1794 33.3572L15.6874 34.819L17.5084 33.054H18.1334V38.2232H17.4684L9.2354 31.2434C9.0414 31.0777 8.7914 30.9866 8.5334 30.9866H6.4004C5.8114 30.9866 5.3334 31.4497 5.3334 32.0203V39.2569C5.3334 39.8275 5.8114 40.2905 6.4004 40.2905H8.5334C8.8164 40.2905 9.0874 40.182 9.2874 39.9883L11.4214 37.921L9.9124 36.4581L8.0924 38.2232H7.4674V33.054H8.1324L16.3654 40.0338C16.5594 40.1995 16.8084 40.2905 17.0674 40.2905H19.2004C19.7894 40.2905 20.2664 39.8275 20.2664 39.2569V32.0203C20.2664 31.4497 19.7894 30.9866 19.2004 30.9866ZM38.4756 37.1894H38.4816C39.0706 37.1894 39.5476 37.6524 39.5476 38.223V45.4596C39.5476 46.0302 39.0706 46.4932 38.4816 46.4932H36.3476C36.0896 46.4932 35.8396 46.4022 35.6456 46.2375L27.4136 39.2567H26.7426V44.4259H27.3676L29.1886 42.6609L30.6966 44.1227L28.5636 46.19C28.3636 46.3838 28.0916 46.4932 27.8096 46.4932H25.6756C25.0866 46.4932 24.6086 46.0302 24.6086 45.4596V38.223C24.6086 37.6524 25.0866 37.1894 25.6756 37.1894H27.8096C28.0676 37.1894 28.3166 37.2814 28.5106 37.4461L36.7436 44.4259H37.4096V39.2567H36.7846L34.9626 41.0217L33.4556 39.5599L35.5876 37.4916C35.7886 37.2979 36.0596 37.1894 36.3426 37.1894H38.4756ZM57.5998 29.9531H55.4668C55.1838 29.9531 54.9118 30.0616 54.7128 30.2553L52.5788 32.3227L54.0878 33.7855L55.9088 32.0204H56.5338V37.1897H55.8688L47.6348 30.2098C47.4418 30.0441 47.1918 29.9531 46.9338 29.9531H44.7998C44.2108 29.9531 43.7338 30.4161 43.7338 30.9867V38.2233C43.7338 38.7939 44.2108 39.257 44.7998 39.257H46.9338C47.2158 39.257 47.4878 39.1475 47.6878 38.9537L49.8208 36.8864L48.3128 35.4246L46.4928 37.1897H45.8668V32.0204H46.5328L54.7648 39.0002C54.9588 39.1659 55.2078 39.257 55.4668 39.257H57.5998C58.1898 39.257 58.6668 38.7939 58.6668 38.2233V30.9867C58.6668 30.4161 58.1898 29.9531 57.5998 29.9531ZM12.8 6.17617V4.10886C8.09 4.1137 4.272 7.81336 4.267 12.3791H6.4C6.404 8.95455 9.267 6.17908 12.8 6.17617ZM40.0904 8.28514C42.3654 3.79789 46.6224 1.00692 51.2004 1.00692C58.2584 1.00692 64.0004 7.49948 64.0004 15.4801C64.0004 23.4606 58.2584 29.9532 51.2004 29.9532C49.5394 29.9522 47.8994 29.5928 46.4004 28.9011L47.3074 27.0314C48.5234 27.5923 49.8534 27.8849 51.2004 27.8859C57.0824 27.8859 61.8664 22.3204 61.8664 15.4801C61.8664 8.6397 57.0824 3.07423 51.2004 3.07423C47.4424 3.07423 43.9184 5.42055 42.0044 9.19673L40.0904 8.28514ZM51.2004 7.20973V5.14242C48.2624 5.14242 45.4714 7.04601 43.9194 10.1044L45.8394 11.016C47.0254 8.66964 49.0824 7.20973 51.2004 7.20973ZM6.4002 16.5134H4.2672V14.4461H6.4002V16.5134ZM22.3244 19.6885C22.3244 18.5057 23.3134 17.5476 24.5334 17.5476V15.4802C22.1354 15.4812 20.1904 17.3664 20.1914 19.6914C20.1924 20.8064 20.6494 21.8759 21.4624 22.6645L22.9704 21.2027C22.5554 20.8016 22.3234 20.2562 22.3244 19.6885ZM22.7153 24.4819L24.8483 26.5492L26.3573 25.0873L24.2233 23.02L22.7153 24.4819Z" fill="url(#paint0_linear)"/>
<defs>
<linearGradient id="paint0_linear" x1="31.4645" y1="80.3269" x2="85.7789" y2="38.4682" gradientUnits="userSpaceOnUse">
<stop stop-color="#FB2059"/>
<stop offset="0.602402" stop-color="#8138E9"/>
<stop offset="1" stop-color="#12CAF9"/>
</linearGradient>
</defs>
</svg>
