<svg width="92" height="92" viewBox="0 0 92 92" fill="none" xmlns="http://www.w3.org/2000/svg">
<path opacity="0.501325" fill-rule="evenodd" clip-rule="evenodd" d="M1 2C1.55228 2 2 1.55228 2 1C2 0.447715 1.55228 0 1 0C0.447715 0 0 0.447715 0 1C0 1.55228 0.447715 2 1 2ZM2 11C2 11.5523 1.55228 12 1 12C0.447715 12 0 11.5523 0 11C0 10.4477 0.447715 10 1 10C1.55228 10 2 10.4477 2 11ZM12 11C12 11.5523 11.5523 12 11 12C10.4477 12 10 11.5523 10 11C10 10.4477 10.4477 10 11 10C11.5523 10 12 10.4477 12 11ZM21 12C21.5523 12 22 11.5523 22 11C22 10.4477 21.5523 10 21 10C20.4477 10 20 10.4477 20 11C20 11.5523 20.4477 12 21 12ZM32 11C32 11.5523 31.5523 12 31 12C30.4477 12 30 11.5523 30 11C30 10.4477 30.4477 10 31 10C31.5523 10 32 10.4477 32 11ZM41 12C41.5523 12 42 11.5523 42 11C42 10.4477 41.5523 10 41 10C40.4477 10 40 10.4477 40 11C40 11.5523 40.4477 12 41 12ZM52 11C52 11.5523 51.5523 12 51 12C50.4477 12 50 11.5523 50 11C50 10.4477 50.4477 10 51 10C51.5523 10 52 10.4477 52 11ZM61 12C61.5523 12 62 11.5523 62 11C62 10.4477 61.5523 10 61 10C60.4477 10 60 10.4477 60 11C60 11.5523 60.4477 12 61 12ZM72 11C72 11.5523 71.5523 12 71 12C70.4477 12 70 11.5523 70 11C70 10.4477 70.4477 10 71 10C71.5523 10 72 10.4477 72 11ZM81 12C81.5523 12 82 11.5523 82 11C82 10.4477 81.5523 10 81 10C80.4477 10 80 10.4477 80 11C80 11.5523 80.4477 12 81 12ZM92 11C92 11.5523 91.5523 12 91 12C90.4477 12 90 11.5523 90 11C90 10.4477 90.4477 10 91 10C91.5523 10 92 10.4477 92 11ZM12 1C12 1.55228 11.5523 2 11 2C10.4477 2 10 1.55228 10 1C10 0.447715 10.4477 0 11 0C11.5523 0 12 0.447715 12 1ZM2 21C2 21.5523 1.55228 22 1 22C0.447715 22 0 21.5523 0 21C0 20.4477 0.447715 20 1 20C1.55228 20 2 20.4477 2 21ZM12 21C12 21.5523 11.5523 22 11 22C10.4477 22 10 21.5523 10 21C10 20.4477 10.4477 20 11 20C11.5523 20 12 20.4477 12 21ZM21 22C21.5523 22 22 21.5523 22 21C22 20.4477 21.5523 20 21 20C20.4477 20 20 20.4477 20 21C20 21.5523 20.4477 22 21 22ZM32 21C32 21.5523 31.5523 22 31 22C30.4477 22 30 21.5523 30 21C30 20.4477 30.4477 20 31 20C31.5523 20 32 20.4477 32 21ZM41 22C41.5523 22 42 21.5523 42 21C42 20.4477 41.5523 20 41 20C40.4477 20 40 20.4477 40 21C40 21.5523 40.4477 22 41 22ZM52 21C52 21.5523 51.5523 22 51 22C50.4477 22 50 21.5523 50 21C50 20.4477 50.4477 20 51 20C51.5523 20 52 20.4477 52 21ZM61 22C61.5523 22 62 21.5523 62 21C62 20.4477 61.5523 20 61 20C60.4477 20 60 20.4477 60 21C60 21.5523 60.4477 22 61 22ZM72 21C72 21.5523 71.5523 22 71 22C70.4477 22 70 21.5523 70 21C70 20.4477 70.4477 20 71 20C71.5523 20 72 20.4477 72 21ZM81 22C81.5523 22 82 21.5523 82 21C82 20.4477 81.5523 20 81 20C80.4477 20 80 20.4477 80 21C80 21.5523 80.4477 22 81 22ZM92 21C92 21.5523 91.5523 22 91 22C90.4477 22 90 21.5523 90 21C90 20.4477 90.4477 20 91 20C91.5523 20 92 20.4477 92 21ZM22 1C22 1.55228 21.5523 2 21 2C20.4477 2 20 1.55228 20 1C20 0.447715 20.4477 0 21 0C21.5523 0 22 0.447715 22 1ZM2 31C2 31.5523 1.55228 32 1 32C0.447715 32 0 31.5523 0 31C0 30.4477 0.447715 30 1 30C1.55228 30 2 30.4477 2 31ZM12 31C12 31.5523 11.5523 32 11 32C10.4477 32 10 31.5523 10 31C10 30.4477 10.4477 30 11 30C11.5523 30 12 30.4477 12 31ZM21 32C21.5523 32 22 31.5523 22 31C22 30.4477 21.5523 30 21 30C20.4477 30 20 30.4477 20 31C20 31.5523 20.4477 32 21 32ZM32 31C32 31.5523 31.5523 32 31 32C30.4477 32 30 31.5523 30 31C30 30.4477 30.4477 30 31 30C31.5523 30 32 30.4477 32 31ZM41 32C41.5523 32 42 31.5523 42 31C42 30.4477 41.5523 30 41 30C40.4477 30 40 30.4477 40 31C40 31.5523 40.4477 32 41 32ZM52 31C52 31.5523 51.5523 32 51 32C50.4477 32 50 31.5523 50 31C50 30.4477 50.4477 30 51 30C51.5523 30 52 30.4477 52 31ZM61 32C61.5523 32 62 31.5523 62 31C62 30.4477 61.5523 30 61 30C60.4477 30 60 30.4477 60 31C60 31.5523 60.4477 32 61 32ZM72 31C72 31.5523 71.5523 32 71 32C70.4477 32 70 31.5523 70 31C70 30.4477 70.4477 30 71 30C71.5523 30 72 30.4477 72 31ZM81 32C81.5523 32 82 31.5523 82 31C82 30.4477 81.5523 30 81 30C80.4477 30 80 30.4477 80 31C80 31.5523 80.4477 32 81 32ZM92 31C92 31.5523 91.5523 32 91 32C90.4477 32 90 31.5523 90 31C90 30.4477 90.4477 30 91 30C91.5523 30 92 30.4477 92 31ZM32 1C32 1.55228 31.5523 2 31 2C30.4477 2 30 1.55228 30 1C30 0.447715 30.4477 0 31 0C31.5523 0 32 0.447715 32 1ZM2 41C2 41.5523 1.55228 42 1 42C0.447715 42 0 41.5523 0 41C0 40.4477 0.447715 40 1 40C1.55228 40 2 40.4477 2 41ZM12 41C12 41.5523 11.5523 42 11 42C10.4477 42 10 41.5523 10 41C10 40.4477 10.4477 40 11 40C11.5523 40 12 40.4477 12 41ZM21 42C21.5523 42 22 41.5523 22 41C22 40.4477 21.5523 40 21 40C20.4477 40 20 40.4477 20 41C20 41.5523 20.4477 42 21 42ZM32 41C32 41.5523 31.5523 42 31 42C30.4477 42 30 41.5523 30 41C30 40.4477 30.4477 40 31 40C31.5523 40 32 40.4477 32 41ZM41 42C41.5523 42 42 41.5523 42 41C42 40.4477 41.5523 40 41 40C40.4477 40 40 40.4477 40 41C40 41.5523 40.4477 42 41 42ZM52 41C52 41.5523 51.5523 42 51 42C50.4477 42 50 41.5523 50 41C50 40.4477 50.4477 40 51 40C51.5523 40 52 40.4477 52 41ZM61 42C61.5523 42 62 41.5523 62 41C62 40.4477 61.5523 40 61 40C60.4477 40 60 40.4477 60 41C60 41.5523 60.4477 42 61 42ZM72 41C72 41.5523 71.5523 42 71 42C70.4477 42 70 41.5523 70 41C70 40.4477 70.4477 40 71 40C71.5523 40 72 40.4477 72 41ZM81 42C81.5523 42 82 41.5523 82 41C82 40.4477 81.5523 40 81 40C80.4477 40 80 40.4477 80 41C80 41.5523 80.4477 42 81 42ZM92 41C92 41.5523 91.5523 42 91 42C90.4477 42 90 41.5523 90 41C90 40.4477 90.4477 40 91 40C91.5523 40 92 40.4477 92 41ZM42 1C42 1.55228 41.5523 2 41 2C40.4477 2 40 1.55228 40 1C40 0.447715 40.4477 0 41 0C41.5523 0 42 0.447715 42 1ZM2 51C2 51.5523 1.55228 52 1 52C0.447715 52 0 51.5523 0 51C0 50.4477 0.447715 50 1 50C1.55228 50 2 50.4477 2 51ZM12 51C12 51.5523 11.5523 52 11 52C10.4477 52 10 51.5523 10 51C10 50.4477 10.4477 50 11 50C11.5523 50 12 50.4477 12 51ZM21 52C21.5523 52 22 51.5523 22 51C22 50.4477 21.5523 50 21 50C20.4477 50 20 50.4477 20 51C20 51.5523 20.4477 52 21 52ZM32 51C32 51.5523 31.5523 52 31 52C30.4477 52 30 51.5523 30 51C30 50.4477 30.4477 50 31 50C31.5523 50 32 50.4477 32 51ZM41 52C41.5523 52 42 51.5523 42 51C42 50.4477 41.5523 50 41 50C40.4477 50 40 50.4477 40 51C40 51.5523 40.4477 52 41 52ZM52 51C52 51.5523 51.5523 52 51 52C50.4477 52 50 51.5523 50 51C50 50.4477 50.4477 50 51 50C51.5523 50 52 50.4477 52 51ZM61 52C61.5523 52 62 51.5523 62 51C62 50.4477 61.5523 50 61 50C60.4477 50 60 50.4477 60 51C60 51.5523 60.4477 52 61 52ZM72 51C72 51.5523 71.5523 52 71 52C70.4477 52 70 51.5523 70 51C70 50.4477 70.4477 50 71 50C71.5523 50 72 50.4477 72 51ZM81 52C81.5523 52 82 51.5523 82 51C82 50.4477 81.5523 50 81 50C80.4477 50 80 50.4477 80 51C80 51.5523 80.4477 52 81 52ZM92 51C92 51.5523 91.5523 52 91 52C90.4477 52 90 51.5523 90 51C90 50.4477 90.4477 50 91 50C91.5523 50 92 50.4477 92 51ZM52 1C52 1.55228 51.5523 2 51 2C50.4477 2 50 1.55228 50 1C50 0.447715 50.4477 0 51 0C51.5523 0 52 0.447715 52 1ZM2 61C2 61.5523 1.55228 62 1 62C0.447715 62 0 61.5523 0 61C0 60.4477 0.447715 60 1 60C1.55228 60 2 60.4477 2 61ZM12 61C12 61.5523 11.5523 62 11 62C10.4477 62 10 61.5523 10 61C10 60.4477 10.4477 60 11 60C11.5523 60 12 60.4477 12 61ZM21 62C21.5523 62 22 61.5523 22 61C22 60.4477 21.5523 60 21 60C20.4477 60 20 60.4477 20 61C20 61.5523 20.4477 62 21 62ZM32 61C32 61.5523 31.5523 62 31 62C30.4477 62 30 61.5523 30 61C30 60.4477 30.4477 60 31 60C31.5523 60 32 60.4477 32 61ZM41 62C41.5523 62 42 61.5523 42 61C42 60.4477 41.5523 60 41 60C40.4477 60 40 60.4477 40 61C40 61.5523 40.4477 62 41 62ZM52 61C52 61.5523 51.5523 62 51 62C50.4477 62 50 61.5523 50 61C50 60.4477 50.4477 60 51 60C51.5523 60 52 60.4477 52 61ZM61 62C61.5523 62 62 61.5523 62 61C62 60.4477 61.5523 60 61 60C60.4477 60 60 60.4477 60 61C60 61.5523 60.4477 62 61 62ZM72 61C72 61.5523 71.5523 62 71 62C70.4477 62 70 61.5523 70 61C70 60.4477 70.4477 60 71 60C71.5523 60 72 60.4477 72 61ZM81 62C81.5523 62 82 61.5523 82 61C82 60.4477 81.5523 60 81 60C80.4477 60 80 60.4477 80 61C80 61.5523 80.4477 62 81 62ZM92 61C92 61.5523 91.5523 62 91 62C90.4477 62 90 61.5523 90 61C90 60.4477 90.4477 60 91 60C91.5523 60 92 60.4477 92 61ZM62 1C62 1.55228 61.5523 2 61 2C60.4477 2 60 1.55228 60 1C60 0.447715 60.4477 0 61 0C61.5523 0 62 0.447715 62 1ZM2 71C2 71.5523 1.55228 72 1 72C0.447715 72 0 71.5523 0 71C0 70.4477 0.447715 70 1 70C1.55228 70 2 70.4477 2 71ZM12 71C12 71.5523 11.5523 72 11 72C10.4477 72 10 71.5523 10 71C10 70.4477 10.4477 70 11 70C11.5523 70 12 70.4477 12 71ZM21 72C21.5523 72 22 71.5523 22 71C22 70.4477 21.5523 70 21 70C20.4477 70 20 70.4477 20 71C20 71.5523 20.4477 72 21 72ZM32 71C32 71.5523 31.5523 72 31 72C30.4477 72 30 71.5523 30 71C30 70.4477 30.4477 70 31 70C31.5523 70 32 70.4477 32 71ZM41 72C41.5523 72 42 71.5523 42 71C42 70.4477 41.5523 70 41 70C40.4477 70 40 70.4477 40 71C40 71.5523 40.4477 72 41 72ZM52 71C52 71.5523 51.5523 72 51 72C50.4477 72 50 71.5523 50 71C50 70.4477 50.4477 70 51 70C51.5523 70 52 70.4477 52 71ZM61 72C61.5523 72 62 71.5523 62 71C62 70.4477 61.5523 70 61 70C60.4477 70 60 70.4477 60 71C60 71.5523 60.4477 72 61 72ZM72 71C72 71.5523 71.5523 72 71 72C70.4477 72 70 71.5523 70 71C70 70.4477 70.4477 70 71 70C71.5523 70 72 70.4477 72 71ZM81 72C81.5523 72 82 71.5523 82 71C82 70.4477 81.5523 70 81 70C80.4477 70 80 70.4477 80 71C80 71.5523 80.4477 72 81 72ZM92 71C92 71.5523 91.5523 72 91 72C90.4477 72 90 71.5523 90 71C90 70.4477 90.4477 70 91 70C91.5523 70 92 70.4477 92 71ZM72 1C72 1.55228 71.5523 2 71 2C70.4477 2 70 1.55228 70 1C70 0.447715 70.4477 0 71 0C71.5523 0 72 0.447715 72 1ZM2 81C2 81.5523 1.55228 82 1 82C0.447715 82 0 81.5523 0 81C0 80.4477 0.447715 80 1 80C1.55228 80 2 80.4477 2 81ZM12 81C12 81.5523 11.5523 82 11 82C10.4477 82 10 81.5523 10 81C10 80.4477 10.4477 80 11 80C11.5523 80 12 80.4477 12 81ZM21 82C21.5523 82 22 81.5523 22 81C22 80.4477 21.5523 80 21 80C20.4477 80 20 80.4477 20 81C20 81.5523 20.4477 82 21 82ZM32 81C32 81.5523 31.5523 82 31 82C30.4477 82 30 81.5523 30 81C30 80.4477 30.4477 80 31 80C31.5523 80 32 80.4477 32 81ZM41 82C41.5523 82 42 81.5523 42 81C42 80.4477 41.5523 80 41 80C40.4477 80 40 80.4477 40 81C40 81.5523 40.4477 82 41 82ZM52 81C52 81.5523 51.5523 82 51 82C50.4477 82 50 81.5523 50 81C50 80.4477 50.4477 80 51 80C51.5523 80 52 80.4477 52 81ZM61 82C61.5523 82 62 81.5523 62 81C62 80.4477 61.5523 80 61 80C60.4477 80 60 80.4477 60 81C60 81.5523 60.4477 82 61 82ZM72 81C72 81.5523 71.5523 82 71 82C70.4477 82 70 81.5523 70 81C70 80.4477 70.4477 80 71 80C71.5523 80 72 80.4477 72 81ZM81 82C81.5523 82 82 81.5523 82 81C82 80.4477 81.5523 80 81 80C80.4477 80 80 80.4477 80 81C80 81.5523 80.4477 82 81 82ZM92 81C92 81.5523 91.5523 82 91 82C90.4477 82 90 81.5523 90 81C90 80.4477 90.4477 80 91 80C91.5523 80 92 80.4477 92 81ZM82 1C82 1.55228 81.5523 2 81 2C80.4477 2 80 1.55228 80 1C80 0.447715 80.4477 0 81 0C81.5523 0 82 0.447715 82 1ZM2 91C2 91.5523 1.55228 92 1 92C0.447715 92 0 91.5523 0 91C0 90.4477 0.447715 90 1 90C1.55228 90 2 90.4477 2 91ZM12 91C12 91.5523 11.5523 92 11 92C10.4477 92 10 91.5523 10 91C10 90.4477 10.4477 90 11 90C11.5523 90 12 90.4477 12 91ZM21 92C21.5523 92 22 91.5523 22 91C22 90.4477 21.5523 90 21 90C20.4477 90 20 90.4477 20 91C20 91.5523 20.4477 92 21 92ZM32 91C32 91.5523 31.5523 92 31 92C30.4477 92 30 91.5523 30 91C30 90.4477 30.4477 90 31 90C31.5523 90 32 90.4477 32 91ZM41 92C41.5523 92 42 91.5523 42 91C42 90.4477 41.5523 90 41 90C40.4477 90 40 90.4477 40 91C40 91.5523 40.4477 92 41 92ZM52 91C52 91.5523 51.5523 92 51 92C50.4477 92 50 91.5523 50 91C50 90.4477 50.4477 90 51 90C51.5523 90 52 90.4477 52 91ZM61 92C61.5523 92 62 91.5523 62 91C62 90.4477 61.5523 90 61 90C60.4477 90 60 90.4477 60 91C60 91.5523 60.4477 92 61 92ZM72 91C72 91.5523 71.5523 92 71 92C70.4477 92 70 91.5523 70 91C70 90.4477 70.4477 90 71 90C71.5523 90 72 90.4477 72 91ZM81 92C81.5523 92 82 91.5523 82 91C82 90.4477 81.5523 90 81 90C80.4477 90 80 90.4477 80 91C80 91.5523 80.4477 92 81 92ZM92 91C92 91.5523 91.5523 92 91 92C90.4477 92 90 91.5523 90 91C90 90.4477 90.4477 90 91 90C91.5523 90 92 90.4477 92 91ZM92 1C92 1.55228 91.5523 2 91 2C90.4477 2 90 1.55228 90 1C90 0.447715 90.4477 0 91 0C91.5523 0 92 0.447715 92 1Z" fill="#99A2BD"/>
<path d="M38.6667 29H51.3333C58.3289 29 64 34.6711 64 41.6667V54.3333C64 61.3289 58.3289 67 51.3333 67H38.6667C31.6711 67 26 61.3289 26 54.3333V41.6667C26 34.6711 31.6711 29 38.6667 29Z" fill="#1D252D"/>
<path d="M44.5294 55C41.209 55 38 51.9441 38 47.5294H36C36 52.8925 39.9544 57 44.5294 57V55ZM52 47.5294C52 51.866 48.866 55 44.5294 55V57C49.9706 57 54 52.9706 54 47.5294H52ZM44.5294 41C48.9441 41 52 44.209 52 47.5294H54C54 42.9544 49.8925 39 44.5294 39V41ZM38 47.5294C38 44.134 41.134 41 44.5294 41V39C40.0294 39 36 43.0294 36 47.5294H38ZM45.4706 53.2353C46.7334 53.2353 47.9157 52.6058 48.7607 51.7607C49.6058 50.9157 50.2353 49.7334 50.2353 48.4706H48.2353C48.2353 49.0763 47.9167 49.7763 47.3465 50.3465C46.7763 50.9167 46.0763 51.2353 45.4706 51.2353V53.2353ZM39.7647 48.4706C39.7647 51.0301 42.2585 53.2353 45.4706 53.2353V51.2353C43.0634 51.2353 41.7647 49.648 41.7647 48.4706H39.7647ZM45.4706 42.7647C43.8354 42.7647 42.393 43.3208 41.3569 44.3569C40.3208 45.393 39.7647 46.8354 39.7647 48.4706H41.7647C41.7647 47.2961 42.1567 46.3855 42.7711 45.7711C43.3855 45.1567 44.2961 44.7647 45.4706 44.7647V42.7647ZM50.2353 48.4706C50.2353 45.2585 48.0301 42.7647 45.4706 42.7647V44.7647C46.648 44.7647 48.2353 46.0634 48.2353 48.4706H50.2353Z" fill="#E5E8EF"/>
<path d="M55.5564 41.6667C56.7224 41.6667 57.6675 40.7215 57.6675 39.5556C57.6675 38.3896 56.7224 37.4445 55.5564 37.4445C54.3905 37.4445 53.4453 38.3896 53.4453 39.5556C53.4453 40.7215 54.3905 41.6667 55.5564 41.6667Z" fill="white"/>
</svg>
