<svg width="54" height="54" viewBox="0 0 54 54" fill="none" xmlns="http://www.w3.org/2000/svg">
<path opacity="0.397321" d="M53 27C53 41.3594 41.3594 53 27 53C12.6406 53 1 41.3594 1 27C1 12.6406 12.6406 1 27 1C41.3594 1 53 12.6406 53 27Z" stroke="#FD574C" stroke-width="2"/>
<path d="M27 0C12.0883 0 0 12.0883 0 27C0 41.9117 12.0883 54 27 54C41.9117 54 54 41.9117 54 27H52.0714C52.0714 40.8466 40.8466 52.0714 27 52.0714C13.1534 52.0714 1.92857 40.8466 1.92857 27C1.92857 13.1534 13.1534 1.92857 27 1.92857V0Z" fill="#FD574C"/>
<path fill-rule="evenodd" clip-rule="evenodd" d="M33.4073 26.3543C33.8986 26.6446 33.8986 27.3554 33.4073 27.6457L24.6315 32.8314C24.1316 33.1268 23.5 32.7664 23.5 32.1857V21.8143C23.5 21.2336 24.1316 20.8732 24.6315 21.1686L33.4073 26.3543Z" fill="#FD574C"/>
</svg>
