<svg width="585" height="563" viewBox="0 0 585 563" fill="none" xmlns="http://www.w3.org/2000/svg">
<g clip-path="url(#clip0)">
<g opacity="0.501511">
<path fill-rule="evenodd" clip-rule="evenodd" d="M374.877 311.563C413.11 369.845 371.62 404.577 296.664 407.546C269.102 408.637 235.841 399.562 205.473 385.767C158.621 364.486 92.6836 322.506 97.5125 299.31C113.936 220.422 57.6182 213.407 87.3832 162.306C117.148 111.205 150.813 247.88 260.518 244.764C316.18 243.183 294.741 189.405 374.877 311.563Z" stroke="url(#paint0_linear)"/>
<path fill-rule="evenodd" clip-rule="evenodd" d="M89.8945 158.825C120.856 108.179 155.997 240.803 266.046 237.626C323.249 235.961 296.709 186.144 380.388 307.139C420.75 365.501 376.801 410.617 302.41 409.97C272.139 409.707 238.132 405.729 206.519 389.983C159.741 366.683 91.2815 323.973 95.1669 299.955C98.8994 276.879 99.4224 259.868 95.2218 244.819C85.4653 209.868 67.8142 194.939 89.8945 158.825Z" stroke="url(#paint1_linear)"/>
<path fill-rule="evenodd" clip-rule="evenodd" d="M92.4055 155.345C124.565 105.153 161.181 233.728 271.576 230.49C330.319 228.738 298.721 182.871 385.898 302.714C428.409 361.152 381.863 416.136 308.155 412.394C275.087 410.714 240.427 411.939 207.564 394.197C160.844 368.973 89.8923 325.454 92.8212 300.599C95.5901 277.1 97.9092 259.785 93.0108 243.23C82.276 206.961 69.4689 191.136 92.4055 155.345Z" stroke="url(#paint2_linear)"/>
<path fill-rule="evenodd" clip-rule="evenodd" d="M94.9181 151.864C128.275 102.126 166.366 226.652 277.106 223.351C337.39 221.514 300.776 179.585 391.411 298.289C436.087 356.8 386.861 421.239 313.902 414.818C277.978 411.655 242.72 418.19 208.611 398.411C161.929 371.34 88.5184 326.944 90.4767 301.243C92.2987 277.331 96.4094 259.7 90.8001 241.641C79.1239 204.049 71.1237 187.334 94.9181 151.864Z" stroke="url(#paint3_linear)"/>
<path fill-rule="evenodd" clip-rule="evenodd" d="M97.4304 148.383C131.984 99.0987 171.551 219.577 282.636 216.214C344.46 214.292 302.868 176.284 396.923 293.865C443.782 352.444 391.827 426.011 319.649 417.241C280.83 412.524 245.004 424.477 209.658 402.625C162.99 373.774 87.1592 328.445 88.1321 301.887C89.0231 277.57 94.9182 259.613 88.5895 240.052C75.9966 201.129 72.7791 183.532 97.4304 148.383Z" stroke="url(#paint4_linear)"/>
<path fill-rule="evenodd" clip-rule="evenodd" d="M99.9423 144.902C135.694 96.0721 176.735 212.501 288.166 209.076C351.531 207.07 304.996 172.967 402.435 289.44C451.492 348.08 396.785 430.517 325.396 419.665C283.66 413.321 247.277 430.799 210.704 406.84C164.028 376.263 85.8136 329.951 85.7872 302.532C85.7625 277.814 93.4358 259.524 86.3789 238.464C72.8897 198.205 74.4346 179.729 99.9423 144.902Z" stroke="url(#paint5_linear)"/>
<path fill-rule="evenodd" clip-rule="evenodd" d="M102.454 141.421C139.402 93.0459 181.919 205.425 293.695 201.939C358.601 199.847 307.155 169.633 407.947 285.016C459.218 343.708 401.748 434.811 331.141 422.088C286.481 414.041 249.537 437.151 211.751 411.055C165.044 378.798 84.4839 331.462 83.4422 303.177C82.5169 278.062 91.9602 259.434 84.1679 236.874C69.7989 195.275 76.0887 175.927 102.454 141.421Z" stroke="url(#paint6_linear)"/>
<path fill-rule="evenodd" clip-rule="evenodd" d="M104.966 137.94C143.112 90.0192 187.104 198.35 299.225 194.801C365.671 192.625 309.345 166.28 413.459 280.591C466.958 339.329 406.724 438.934 336.887 424.512C289.303 414.686 251.783 443.53 212.798 415.269C166.037 381.371 83.1672 332.974 81.0971 303.82C79.2857 278.312 90.4912 259.34 81.9571 235.285C66.721 192.342 77.743 172.125 104.966 137.94Z" stroke="url(#paint7_linear)"/>
<path fill-rule="evenodd" clip-rule="evenodd" d="M107.477 134.459C146.82 86.9923 192.287 191.274 304.754 187.664C372.74 185.401 311.561 162.909 418.97 276.166C474.71 334.94 411.721 442.918 342.632 426.936C292.133 415.255 254.01 449.934 213.843 419.484C167.007 383.977 81.8633 334.488 78.7509 304.465C76.0655 278.562 89.0281 259.244 79.7452 233.697C63.6523 189.404 79.3972 168.322 107.477 134.459Z" stroke="url(#paint8_linear)"/>
<path fill-rule="evenodd" clip-rule="evenodd" d="M109.989 130.978C150.529 83.9662 197.471 184.198 310.283 180.527C379.811 178.179 313.802 159.519 424.482 271.741C482.475 330.542 416.741 446.789 348.378 429.36C294.98 415.747 256.22 456.362 214.89 423.698C167.96 386.609 80.5741 336.001 76.4064 305.11C72.8579 278.811 87.5708 259.146 77.5346 232.107C60.5925 186.463 81.0517 164.519 109.989 130.978Z" stroke="url(#paint9_linear)"/>
<path fill-rule="evenodd" clip-rule="evenodd" d="M112.501 127.497C154.238 80.9394 202.655 177.123 315.813 173.389C386.881 170.957 316.064 156.109 429.994 267.316C490.251 326.134 421.787 450.566 354.124 431.784C297.849 416.163 258.414 462.809 215.936 427.912C168.892 389.264 79.2969 337.512 74.0611 305.754C69.6603 279.06 86.1174 259.047 75.3236 230.519C57.5408 183.519 82.7069 160.717 112.501 127.497Z" stroke="url(#paint10_linear)"/>
<path fill-rule="evenodd" clip-rule="evenodd" d="M115.012 124.017C157.947 77.9126 207.839 170.046 321.342 166.251C393.951 163.734 318.346 152.679 435.504 262.892C498.037 321.716 426.862 454.268 359.87 434.207C300.743 416.501 260.59 469.276 216.982 432.126C169.806 391.937 78.03 339.021 71.7149 306.399C66.4708 279.306 84.6689 258.945 73.1122 228.93C54.494 180.573 84.3606 156.914 115.012 124.017Z" stroke="url(#paint11_linear)"/>
<path fill-rule="evenodd" clip-rule="evenodd" d="M117.525 120.535C161.658 74.8855 213.026 162.972 326.874 159.113C401.022 156.511 320.647 149.231 441.018 258.467C505.835 317.288 431.965 457.907 365.618 436.631C303.669 416.766 262.75 475.759 218.03 436.341C170.705 394.625 76.7756 340.526 69.3715 307.043C63.2928 279.55 83.226 258.842 70.9036 227.341C51.4538 177.624 86.0171 153.112 117.525 120.535Z" stroke="url(#paint12_linear)"/>
<path fill-rule="evenodd" clip-rule="evenodd" d="M120.036 117.055C165.365 71.8588 218.209 155.895 332.402 151.976C408.091 149.288 322.961 145.764 446.529 254.042C513.637 312.849 437.094 461.496 371.362 439.055C306.625 416.954 264.889 482.257 219.075 440.556C171.584 397.327 75.5277 342.028 67.0255 307.687C60.1182 279.791 81.7846 258.738 68.6906 225.752C48.4151 174.674 87.6702 149.309 120.036 117.055Z" stroke="url(#paint13_linear)"/>
<path fill-rule="evenodd" clip-rule="evenodd" d="M122.548 113.574C169.074 68.8329 223.393 148.82 337.931 144.839C415.162 142.066 325.291 142.277 452.04 249.618C521.45 308.399 442.255 465.042 377.109 441.479C309.62 417.069 267.013 488.769 220.122 444.77C172.451 400.04 74.2901 343.525 64.6805 308.332C56.9521 280.027 80.3476 258.631 66.4795 224.163C45.3816 171.721 89.3251 145.508 122.548 113.574Z" stroke="url(#paint14_linear)"/>
<path fill-rule="evenodd" clip-rule="evenodd" d="M125.06 110.093C172.783 65.8059 228.577 141.744 343.461 137.701C422.232 134.843 327.632 138.773 457.552 245.192C529.27 303.939 447.444 468.552 382.854 443.902C312.655 417.111 269.12 495.293 221.168 448.984C173.304 402.761 73.0605 345.019 62.3357 308.977C53.7907 280.262 78.913 258.524 64.2695 222.574C42.351 168.767 90.9793 141.705 125.06 110.093Z" stroke="url(#paint15_linear)"/>
<path fill-rule="evenodd" clip-rule="evenodd" d="M127.573 106.612C176.494 62.779 233.763 134.668 348.991 130.563C429.303 127.62 329.985 135.25 463.064 240.768C537.098 299.468 452.663 472.035 388.602 446.327C315.731 417.082 271.213 501.828 222.216 453.198C174.145 405.489 71.8394 346.507 59.991 309.621C50.6356 280.491 77.4831 258.414 62.0592 220.985C39.3243 165.811 92.6359 137.902 127.573 106.612Z" stroke="url(#paint16_linear)"/>
<path fill-rule="evenodd" clip-rule="evenodd" d="M130.083 103.131C180.201 59.7523 238.945 127.593 354.52 123.425C436.372 120.397 332.344 131.71 468.575 236.343C544.927 294.986 457.91 475.496 394.347 448.749C318.849 416.983 273.287 508.373 223.261 457.414C174.971 408.223 70.6209 347.991 57.645 310.265C47.482 280.718 76.052 258.304 59.8476 219.396C36.2977 162.854 94.2885 134.1 130.083 103.131Z" stroke="url(#paint17_linear)"/>
<path fill-rule="evenodd" clip-rule="evenodd" d="M132.596 99.6503C183.911 56.7263 244.131 120.517 360.05 116.289C443.443 113.175 334.712 128.153 474.088 231.919C552.765 290.494 463.186 478.938 400.094 451.174C322.015 416.816 275.35 514.928 224.309 461.628C175.789 410.962 69.4119 349.471 55.3012 310.909C44.3348 280.942 74.6258 258.192 57.6371 217.808C33.2755 159.895 95.9446 130.298 132.596 99.6503Z" stroke="url(#paint18_linear)"/>
<path fill-rule="evenodd" clip-rule="evenodd" d="M135.108 96.1694C187.621 53.6994 249.316 113.441 365.58 109.151C450.515 105.952 337.087 124.58 479.6 227.494C560.607 285.992 468.491 482.366 405.84 453.597C325.228 416.581 277.397 521.491 225.356 465.843C176.596 413.704 68.2068 350.945 52.9568 311.554C41.1896 281.161 73.2026 258.08 55.4275 216.219C30.2547 156.936 97.5997 126.495 135.108 96.1694Z" stroke="url(#paint19_linear)"/>
<path fill-rule="evenodd" clip-rule="evenodd" d="M137.62 92.6886C191.33 50.6726 254.5 106.366 371.11 102.014C457.585 98.7298 339.466 120.99 485.112 223.069C568.452 281.481 473.823 485.783 411.587 456.022C328.488 416.284 279.43 528.061 226.402 470.057C177.392 416.45 67.0058 352.415 50.6109 312.198C38.0471 281.377 71.7799 257.966 53.2165 214.629C27.2338 153.975 99.2546 122.693 137.62 92.6886Z" stroke="url(#paint20_linear)"/>
<path fill-rule="evenodd" clip-rule="evenodd" d="M140.131 89.2077C195.039 47.6457 259.684 99.2905 376.639 94.8763C464.654 91.5075 341.849 117.385 490.623 218.645C576.3 276.959 479.182 489.193 417.332 458.445C331.796 415.922 281.45 534.637 227.448 474.272C178.179 419.197 65.8087 353.881 48.2661 312.842C34.9058 281.59 70.3587 257.851 51.0046 213.041C24.2157 151.013 100.909 118.89 140.131 89.2077Z" stroke="url(#paint21_linear)"/>
<path fill-rule="evenodd" clip-rule="evenodd" d="M142.642 85.7268C198.748 44.6189 264.868 92.2139 382.168 87.7386C471.724 84.2842 344.235 113.765 496.134 214.219C584.152 272.427 484.568 492.597 423.078 460.869C335.154 415.501 283.457 541.219 228.494 478.486C178.957 421.946 64.6146 355.342 45.9202 313.487C31.7668 281.801 68.9383 257.735 48.7936 211.452C21.1972 148.051 102.563 115.088 142.642 85.7268Z" stroke="url(#paint22_linear)"/>
<path fill-rule="evenodd" clip-rule="evenodd" d="M145.156 82.2459C202.458 41.5929 270.054 85.1391 387.699 80.6009C478.795 77.0618 346.626 110.132 501.647 209.795C592.006 267.887 489.983 496 428.825 463.293C338.566 415.023 285.455 547.807 229.541 482.7C179.729 424.697 63.4258 356.8 43.576 314.131C28.6314 282.007 67.5927 257.589 46.5836 209.863C18.2782 145.047 104.219 111.286 145.156 82.2459Z" stroke="url(#paint23_linear)"/>
<path fill-rule="evenodd" clip-rule="evenodd" d="M147.667 78.765C206.167 38.566 275.238 78.0626 393.229 73.4632C485.866 69.8391 349.142 106.288 507.158 205.37C599.936 263.222 495.421 499.4 434.571 465.717C342.026 414.488 287.439 554.4 230.587 486.915C180.492 427.449 62.3195 358.215 41.2305 314.776C25.5559 282.183 66.1419 257.487 44.373 208.274C15.2156 142.102 105.874 107.483 147.667 78.765Z" stroke="url(#paint24_linear)"/>
<path fill-rule="evenodd" clip-rule="evenodd" d="M440.317 468.14C345.538 413.901 289.412 560.997 231.634 491.129C181.248 430.201 61.0541 359.703 38.8858 315.42C22.3613 282.413 64.691 257.383 42.1618 206.685C12.1536 139.158 107.528 103.68 150.179 75.2845C209.876 35.5395 280.422 70.9873 398.758 66.3258C492.936 62.6162 351.409 102.825 512.67 200.946C607.72 258.779 500.886 502.802 440.317 468.14Z" stroke="url(#paint25_linear)"/>
</g>
<path fill-rule="evenodd" clip-rule="evenodd" d="M531.621 219.983C533.278 219.983 534.621 218.652 534.621 217.009C534.621 215.367 533.278 214.036 531.621 214.036C529.964 214.036 528.621 215.367 528.621 217.009C528.621 218.652 529.964 219.983 531.621 219.983Z" fill="#515A63"/>
<path fill-rule="evenodd" clip-rule="evenodd" d="M420.621 396.417C422.278 396.417 423.621 395.086 423.621 393.443C423.621 391.801 422.278 390.47 420.621 390.47C418.964 390.47 417.621 391.801 417.621 393.443C417.621 395.086 418.964 396.417 420.621 396.417Z" fill="#515A63"/>
<path fill-rule="evenodd" clip-rule="evenodd" d="M471.121 192.229C473.606 192.229 475.621 190.232 475.621 187.769C475.621 185.306 473.606 183.309 471.121 183.309C468.636 183.309 466.621 185.306 466.621 187.769C466.621 190.232 468.636 192.229 471.121 192.229Z" fill="#515A63"/>
<path fill-rule="evenodd" clip-rule="evenodd" d="M42.6211 324.059C43.7257 324.059 44.6211 323.172 44.6211 322.077C44.6211 320.982 43.7257 320.094 42.6211 320.094C41.5165 320.094 40.6211 320.982 40.6211 322.077C40.6211 323.172 41.5165 324.059 42.6211 324.059Z" fill="#515A63"/>
<path fill-rule="evenodd" clip-rule="evenodd" d="M114.621 159.52C116.278 159.52 117.621 158.188 117.621 156.546C117.621 154.904 116.278 153.573 114.621 153.573C112.964 153.573 111.621 154.904 111.621 156.546C111.621 158.188 112.964 159.52 114.621 159.52Z" fill="#515A63"/>
<path fill-rule="evenodd" clip-rule="evenodd" d="M225.121 190.247C225.95 190.247 226.621 189.581 226.621 188.76C226.621 187.939 225.95 187.273 225.121 187.273C224.293 187.273 223.621 187.939 223.621 188.76C223.621 189.581 224.293 190.247 225.121 190.247Z" fill="#515A63"/>
<path fill-rule="evenodd" clip-rule="evenodd" d="M419.121 137.713C419.95 137.713 420.621 137.048 420.621 136.227C420.621 135.405 419.95 134.74 419.121 134.74C418.293 134.74 417.621 135.405 417.621 136.227C417.621 137.048 418.293 137.713 419.121 137.713Z" fill="#515A63"/>
<path fill-rule="evenodd" clip-rule="evenodd" d="M378.121 97.0739C378.95 97.0739 379.621 96.4083 379.621 95.5871C379.621 94.766 378.95 94.1003 378.121 94.1003C377.293 94.1003 376.621 94.766 376.621 95.5871C376.621 96.4083 377.293 97.0739 378.121 97.0739Z" fill="#515A63"/>
<path fill-rule="evenodd" clip-rule="evenodd" d="M152.621 115.907C154.278 115.907 155.621 114.575 155.621 112.933C155.621 111.291 154.278 109.959 152.621 109.959C150.964 109.959 149.621 111.291 149.621 112.933C149.621 114.575 150.964 115.907 152.621 115.907Z" fill="#515A63"/>
<path fill-rule="evenodd" clip-rule="evenodd" d="M458.121 336.945C458.95 336.945 459.621 336.279 459.621 335.458C459.621 334.637 458.95 333.971 458.121 333.971C457.293 333.971 456.621 334.637 456.621 335.458C456.621 336.279 457.293 336.945 458.121 336.945Z" fill="#515A63"/>
</g>
<defs>
<linearGradient id="paint0_linear" x1="112.132" y1="247.615" x2="283.481" y2="501.464" gradientUnits="userSpaceOnUse">
<stop stop-color="#515A63"/>
<stop offset="1" stop-color="white"/>
</linearGradient>
<linearGradient id="paint1_linear" x1="113.865" y1="247.119" x2="291.826" y2="503.694" gradientUnits="userSpaceOnUse">
<stop stop-color="#515A63"/>
<stop offset="1" stop-color="white"/>
</linearGradient>
<linearGradient id="paint2_linear" x1="115.511" y1="246.651" x2="300.046" y2="505.871" gradientUnits="userSpaceOnUse">
<stop stop-color="#515A63"/>
<stop offset="1" stop-color="white"/>
</linearGradient>
<linearGradient id="paint3_linear" x1="116.988" y1="246.308" x2="308.2" y2="508.108" gradientUnits="userSpaceOnUse">
<stop stop-color="#515A63"/>
<stop offset="1" stop-color="white"/>
</linearGradient>
<linearGradient id="paint4_linear" x1="118.294" y1="246.029" x2="316.23" y2="510.399" gradientUnits="userSpaceOnUse">
<stop stop-color="#515A63"/>
<stop offset="1" stop-color="white"/>
</linearGradient>
<linearGradient id="paint5_linear" x1="119.475" y1="245.64" x2="324.048" y2="512.67" gradientUnits="userSpaceOnUse">
<stop stop-color="#515A63"/>
<stop offset="1" stop-color="white"/>
</linearGradient>
<linearGradient id="paint6_linear" x1="120.49" y1="245.101" x2="331.644" y2="514.951" gradientUnits="userSpaceOnUse">
<stop stop-color="#515A63"/>
<stop offset="1" stop-color="white"/>
</linearGradient>
<linearGradient id="paint7_linear" x1="121.306" y1="244.385" x2="339.021" y2="517.271" gradientUnits="userSpaceOnUse">
<stop stop-color="#515A63"/>
<stop offset="1" stop-color="white"/>
</linearGradient>
<linearGradient id="paint8_linear" x1="121.914" y1="243.483" x2="346.191" y2="519.644" gradientUnits="userSpaceOnUse">
<stop stop-color="#515A63"/>
<stop offset="1" stop-color="white"/>
</linearGradient>
<linearGradient id="paint9_linear" x1="122.33" y1="242.407" x2="353.186" y2="522.074" gradientUnits="userSpaceOnUse">
<stop stop-color="#515A63"/>
<stop offset="1" stop-color="white"/>
</linearGradient>
<linearGradient id="paint10_linear" x1="122.584" y1="241.176" x2="360.035" y2="524.555" gradientUnits="userSpaceOnUse">
<stop stop-color="#515A63"/>
<stop offset="1" stop-color="white"/>
</linearGradient>
<linearGradient id="paint11_linear" x1="122.707" y1="239.814" x2="366.766" y2="527.08" gradientUnits="userSpaceOnUse">
<stop stop-color="#515A63"/>
<stop offset="1" stop-color="white"/>
</linearGradient>
<linearGradient id="paint12_linear" x1="122.728" y1="238.343" x2="373.405" y2="529.644" gradientUnits="userSpaceOnUse">
<stop stop-color="#515A63"/>
<stop offset="1" stop-color="white"/>
</linearGradient>
<linearGradient id="paint13_linear" x1="122.666" y1="236.782" x2="379.962" y2="532.243" gradientUnits="userSpaceOnUse">
<stop stop-color="#515A63"/>
<stop offset="1" stop-color="white"/>
</linearGradient>
<linearGradient id="paint14_linear" x1="122.542" y1="235.148" x2="386.455" y2="534.876" gradientUnits="userSpaceOnUse">
<stop stop-color="#515A63"/>
<stop offset="1" stop-color="white"/>
</linearGradient>
<linearGradient id="paint15_linear" x1="122.367" y1="233.452" x2="392.895" y2="537.541" gradientUnits="userSpaceOnUse">
<stop stop-color="#515A63"/>
<stop offset="1" stop-color="white"/>
</linearGradient>
<linearGradient id="paint16_linear" x1="122.155" y1="231.705" x2="399.288" y2="540.236" gradientUnits="userSpaceOnUse">
<stop stop-color="#515A63"/>
<stop offset="1" stop-color="white"/>
</linearGradient>
<linearGradient id="paint17_linear" x1="121.907" y1="229.918" x2="405.639" y2="542.963" gradientUnits="userSpaceOnUse">
<stop stop-color="#515A63"/>
<stop offset="1" stop-color="white"/>
</linearGradient>
<linearGradient id="paint18_linear" x1="121.636" y1="228.095" x2="411.959" y2="545.721" gradientUnits="userSpaceOnUse">
<stop stop-color="#515A63"/>
<stop offset="1" stop-color="white"/>
</linearGradient>
<linearGradient id="paint19_linear" x1="121.345" y1="226.242" x2="418.248" y2="548.509" gradientUnits="userSpaceOnUse">
<stop stop-color="#515A63"/>
<stop offset="1" stop-color="white"/>
</linearGradient>
<linearGradient id="paint20_linear" x1="121.035" y1="224.364" x2="424.512" y2="551.327" gradientUnits="userSpaceOnUse">
<stop stop-color="#515A63"/>
<stop offset="1" stop-color="white"/>
</linearGradient>
<linearGradient id="paint21_linear" x1="120.711" y1="222.466" x2="430.754" y2="554.175" gradientUnits="userSpaceOnUse">
<stop stop-color="#515A63"/>
<stop offset="1" stop-color="white"/>
</linearGradient>
<linearGradient id="paint22_linear" x1="120.377" y1="220.549" x2="436.978" y2="557.052" gradientUnits="userSpaceOnUse">
<stop stop-color="#515A63"/>
<stop offset="1" stop-color="white"/>
</linearGradient>
<linearGradient id="paint23_linear" x1="120.054" y1="218.627" x2="443.196" y2="559.948" gradientUnits="userSpaceOnUse">
<stop stop-color="#515A63"/>
<stop offset="1" stop-color="white"/>
</linearGradient>
<linearGradient id="paint24_linear" x1="119.698" y1="216.668" x2="449.398" y2="562.877" gradientUnits="userSpaceOnUse">
<stop stop-color="#515A63"/>
<stop offset="1" stop-color="white"/>
</linearGradient>
<linearGradient id="paint25_linear" x1="119.326" y1="214.713" x2="455.567" y2="565.853" gradientUnits="userSpaceOnUse">
<stop stop-color="#515A63"/>
<stop offset="1" stop-color="white"/>
</linearGradient>
<clipPath id="clip0">
<rect width="585" height="563" fill="white"/>
</clipPath>
</defs>
</svg>
