<svg xmlns="http://www.w3.org/2000/svg" width="80" height="121.333"><path fill-rule="evenodd" clip-rule="evenodd" fill="#E54243" d="M4 43c0 24.85 31 39.67 36 75 5-35.33 36-50.15 36-75S59.88 4 40 4 4 18.15 4 43zm22-5.5C26 30.04 32.04 24 39.5 24S53 30.04 53 37.5 46.96 51 39.5 51 26 44.96 26 37.5z"/><path fill-rule="evenodd" clip-rule="evenodd" fill="#FFF" d="M49.88 37.37c0 6.25-5.25 10.5-10.5 10.5-6.25 0-10.25-5.25-10.25-10.5 0-5.75 4.5-10.25 10.25-10.25 6.25 0 10.5 5 10.5 10.25zm3 0c0 7.75-6.25 13.5-13.5 13.5-7.75 0-13.25-6.25-13.25-13.5 0-7.75 6-13.25 13.25-13.25 7.75 0 13.5 6 13.5 13.25zm23 5c0 19-16.5 31.5-28.25 52.25-1.25 2.25-2.75 5.25-3.75 8-1.75 4.25-3 10-4 14.5-.25-2.5-1-5.5-1.75-8-.75-2.75-2-5.5-2.75-7.75-2.25-5.75-6.5-12.5-10.5-18.25-6.75-10-20.75-26.25-20.75-37.5v-6.25c1.25-23.5 18-35.25 35.75-35.25 24 0 36 18.5 36 38.25zm3 0c0 5-.75 10-3.25 15-8.5 17.25-27.25 35-31 52.5-.75 3-1.25 6.25-2.25 9.5-.25.75-1.75 1.5-2.5 1.5-.5 0-2.25-.75-2.5-1.5-.75-2.75-1.25-6-2-8.5-.5-2.5-1.5-5.25-2.5-7.5-6-17.5-26.25-34.75-30.75-51.5-.25-1.75-1-5-1-5.5v-8c2.25-25.75 20-37.25 38.75-37.25 25.25 0 39 19.5 39 41.25z"/></svg>