<svg data-name="Layer 1" xmlns="http://www.w3.org/2000/svg" viewBox="0 0 800 270.6"><path fill="#fff" d="M0 201h800v69.57H0z"/><path d="M38.2 252.3V216h18.2v3.5H41.8v11.7h1.7q6.8 0 9.9 1.2a10.4 10.4 0 014.8 3.7 10.2 10.2 0 011.8 5.8 10.3 10.3 0 01-3.1 7.3c-2.1 2.1-5 3.1-8.7 3.1zm3.6-17.5v14h4.5a16.3 16.3 0 005.8-.8 6.2 6.2 0 002.9-2.4 5.9 5.9 0 001.1-3.6 6.4 6.4 0 00-1.5-4.3 7.4 7.4 0 00-3.9-2.3 29 29 0 00-6.9-.6zm30.7-18.7h4.1l11 24.7L97.7 216h4l-13.8 32.6a6.9 6.9 0 01-6.9 4.6 8 8 0 01-3.7-.8c-1.2-.5-2.6-1.8-4.4-3.8l2.6-2.1c1.8 1.8 3 2.8 3.7 3a3.9 3.9 0 001.8.4 4.1 4.1 0 002.5-.8 9.2 9.2 0 002.3-3.8zm43.5 41.7h-3.6v-8.9h2.9l14.3-32.9h1.3l15 32.9h2.9v8.9h-3.6v-5.5H116zm3.4-8.9h22.2l-11.3-25.4zm42.1-32.9h3.6v36.3h-3.6zm20.1 0h7.2a17.2 17.2 0 016.7 1 7.9 7.9 0 013.6 3.2 8.6 8.6 0 01.2 9.1 9.1 9.1 0 01-3.5 3.2 12 12 0 014.4 2.3 9.2 9.2 0 012.4 3.1 10.6 10.6 0 01.8 4 9.9 9.9 0 01-3.2 7.4c-2.1 2-5 3-8.6 3h-10zm3.6 3.5v11.7h2.1a18.6 18.6 0 005.6-.7 6.2 6.2 0 002.8-2.3 5.6 5.6 0 001-3.3 4.8 4.8 0 00-1.7-3.9c-1.2-1-3-1.5-5.6-1.5zm0 15.3v14h4.5a15.9 15.9 0 005.8-.8 7.1 7.1 0 004.2-6 6.7 6.7 0 00-1.6-4.3 7.9 7.9 0 00-4.4-2.4 30 30 0 00-6.4-.5zm33.5-18.8h20.8v3.5h-17.2v11.4h17.1v3.6h-17.1v14.3h17.1v3.5h-20.7zm64.6 36.3h-3.9l-12.1-28.1-12.2 28.1h-4l15.8-36.3h.8zm14.2-36.3h3.6v15.6h2.6a50.3 50.3 0 0110.3.7 8.3 8.3 0 015 3.1 10.1 10.1 0 011.9 6.4 10.8 10.8 0 01-1.8 6.4 8.4 8.4 0 01-4.8 3.3c-1.9.6-5.1.8-9.6.8h-7.2zm3.6 32.8h3.9c4.1 0 6.8-.2 8-.6a6.3 6.3 0 003-2.1 7.3 7.3 0 001.1-4.1 6.8 6.8 0 00-1.4-4.4 6.1 6.1 0 00-3.5-2.1 63.6 63.6 0 00-8-.4h-3.1zm35.1-32.8h3.7v15.2h18.5V216h3.6v36.3h-3.6v-17.5h-18.5v17.5h-3.7zm42.2 0h3.6v36.3h-3.6zm41.5 36.3l5.2-36.3h.6l14.8 29.8 14.6-29.8h.6l5.2 36.3h-3.5l-3.6-26-12.9 26h-.9l-13-26.2-3.6 26.2zM491 216l16.9 36.3H504l-5.7-11.9h-15.7l-5.6 11.9h-4.1l17.2-36.3zm-.5 7.7l-6.2 13.2h12.4zm27.6-4.2V216H538v3.5h-8.1v32.8h-3.7v-32.8zm33.2-3.5h20.8v3.5H555v11.4h17v3.6h-17v14.3h17v3.5h-20.7zm35.2 0h7.2a47.7 47.7 0 018.4.5 9.1 9.1 0 017.1 9.2 8.7 8.7 0 01-7.2 9.1 47.6 47.6 0 01-9.3.6h-2.6v16.9h-3.6zm3.6 3.5v12.4h6.2a17.3 17.3 0 005.4-.6 5.4 5.4 0 002.7-2.2 6.3 6.3 0 000-6.8 4.9 4.9 0 00-2.6-2.1 15.5 15.5 0 00-5.3-.7zM624 216h3.7v36.3H624zm34.9 0l17 36.3h-4l-5.7-11.9h-15.6l-5.7 11.9h-4L658 216zm-.4 7.7l-6.3 13.2h12.5zm60.5 28.6h-3.9L703 224.2l-12.2 28.1h-4l15.8-36.3h.8zm42.8 0H758v-27.8l-23.9 27.8h-.9V216h3.7v28.3L761 216h.8z" stroke="#c90000" stroke-miterlimit="10" stroke-width=".75" fill="#c90000"/><path d="M64 143.1v-22.5c3.4-1.8 5.2-4.9 5.2-9.2a19.7 19.7 0 00-.7-4.7l-.4-1.5h-25l-.3 1.5a20.8 20.8 0 00-.8 4.7c0 4.6 2.1 7.9 5.9 9.4v22.3H2v-22.8c2.3-2 4.1-5.4 5.2-10l1.5-6.9L27.6 2h61l20.8 103.5a55.3 55.3 0 002.3 8.5c1.3 3.3 3.1 5.5 5.3 6.7v22.4zM45.2 80.9h19.6l-8-46.2h-3.6zm699.7 62.2v-22.5c3.5-1.8 5.3-4.9 5.3-9.2 0-1-6.6-41.8-12.2-75.8v-.9h-3.7l-.2.8c-3.3 22.4-11 74.7-11 75.8 0 4.6 2.1 7.9 5.9 9.4V143h-46v-22.7c2.3-2 4.1-5.4 5.2-10 .4-2.1.9-4.3 1.5-6.9L708.6 2h61l20.8 103.5a66.9 66.9 0 002.3 8.5c1.3 3.3 3.1 5.5 5.3 6.7v22.4zm-617.8 38.1V160a11.4 11.4 0 003.9-5.2 23 23 0 001-7.3V74.6a27.6 27.6 0 00-.9-7.7 10.2 10.2 0 00-4-5.3V40.4H167v8.1l3.2-2.4a37.7 37.7 0 0111.7-5.8 44.3 44.3 0 0113.5-2.1 37.5 37.5 0 0113.9 2.4 19.8 19.8 0 019.5 7.8c1.7 2.2 3 5.6 3.7 10.3a95.5 95.5 0 01.7 12.4v39.3a68.8 68.8 0 01-.9 11.5q-1.4 9-4.5 13.2a22.7 22.7 0 01-9.9 7.7 34.9 34.9 0 01-13.5 2.5 40.1 40.1 0 01-12.4-1.9 32.5 32.5 0 01-10.8-5.5l-3.2-2.5v9.7a50.5 50.5 0 00.6 9.3 9.9 9.9 0 004.3 5.7v21.1zm50-117a15.8 15.8 0 00-8.1 2.1l-1 .6v50l.9.6a15 15 0 008.4 2.5c4.3 0 7.3-1.9 8.8-5.5.7-1.9 1.1-5.1 1.1-9.7V81.3a36.3 36.3 0 00-1.1-10.3c-1.5-4.5-4.7-6.8-9-6.8zm107.3 81.1c-18.7 0-31.5-4.7-38-13.9-3.5-5.1-5.4-13-5.4-23.2V72.6c0-11.6 2.7-20.2 8.1-25.3s17.9-9.1 34.3-9.1a110.5 110.5 0 0125.7 2.9 58.3 58.3 0 0120 9.3v26.2h-33.4v-3.5a26.1 26.1 0 00-1.1-8.5 8.5 8.5 0 00-8.2-5.5 8.3 8.3 0 00-8.5 6c-.6 1.9-.9 5-.9 9.4v34c0 4.6.3 7.7.9 9.6a8.8 8.8 0 0016.7.4 32.2 32.2 0 001.1-9.6v-7.2h33.4v30.2c-4.9 4.6-11.7 8.1-20.3 10.4a93.7 93.7 0 01-24.4 3zm113.1 0a157.2 157.2 0 01-24.4-1.7c-6.6-1-12-3.1-15.9-6a24.9 24.9 0 01-9.2-13.7c-1.1-4-1.7-9.9-1.7-17.7v-29c0-14.5 2.9-24.5 8.5-29.9s18.5-9.1 36.1-9.1 30.7 3.1 37.4 9.2 8.8 14.6 8.8 27.8v23.2h-54.8v11.8a26.6 26.6 0 001.1 8.7 8.4 8.4 0 008.3 5.5c3.9 0 6.7-1.7 8.1-4.9a22.7 22.7 0 001.4-8.8v-1.9h35.9v23.8a55.6 55.6 0 01-16.9 8.8 68.6 68.6 0 01-22.7 3.9zm-5.4-86.2a9.2 9.2 0 00-7.3 3.1c-1.7 2-2.5 5.2-2.5 9.8v6h19.6v-6a18.4 18.4 0 00-1.4-7.8 8.8 8.8 0 00-8.4-5.1zm118.6 84v-20.7a7.6 7.6 0 003-4.1 20.2 20.2 0 00.9-6.4v-11.1h-18.9v11.1a20.2 20.2 0 00.9 6.4 7.6 7.6 0 003 4.1v20.7h-44.8v-20.8a9.2 9.2 0 004.2-5.5 40.7 40.7 0 00.8-9V73.6a25.2 25.2 0 00-1-7.5 9.8 9.8 0 00-4-4.9V40.4h44.8v20.8a7.4 7.4 0 00-3 4 20.6 20.6 0 00-.9 6.4v8.5h18.9v-8.5a21.7 21.7 0 00-.8-6.4 7.1 7.1 0 00-3.1-4V40.4h44.8v20.8a9.6 9.6 0 00-3.9 5.1 23 23 0 00-1 7.3v34.2a47.8 47.8 0 00.6 9.2c.5 2 1.9 3.7 4.3 5.3v20.8zm89.2 2.2c-8.7 0-15.7-2.6-20.7-7.6s-7.6-12-7.6-20.9 2.7-16.1 8-21 11.2-7.2 21.5-10.6l27.1-8.7v-5.2a18.1 18.1 0 00-1.8-8.5c-1.3-2.6-3.8-4-7.2-4s-6.3 1.3-7.8 3.8a17.5 17.5 0 00-1.9 8.7v2.4H576V50.5a64.9 64.9 0 0120.4-9.2 101.7 101.7 0 0125.2-3.1 88.6 88.6 0 0118 1.9 36.9 36.9 0 0114.2 6.2 24.4 24.4 0 019 13.6c.9 3.4 1.3 9.1 1.3 17.1v29.8a41.8 41.8 0 00.7 9.4q.6 3.1 4.2 6v20.9h-39.3v-10.4l-3.3 2.7a42.4 42.4 0 01-12.3 7.5 40.3 40.3 0 01-14.2 2.4zm25.5-47.4l-10.7 4.2h-.2q-6.9 3.8-6.9 9.6a10.1 10.1 0 002 6.1 5.8 5.8 0 004.8 2.6h1.1a20.3 20.3 0 0011.9-4.2l.8-.6V96.7z" fill="#c90000"/></svg>