<svg width="68" height="68" viewBox="0 0 68 68" fill="none"
     xmlns="http://www.w3.org/2000/svg">
    <path d="M41.4907 30.0592L50.3444 36.3617C50.7378 36.6418 51.2656 36.6418 51.6591 36.3617L60.5128 30.0592C62.3572 28.7528 63.4579 26.6367 63.4686 24.3765V10.9668C63.4692 10.5155 63.2021 10.1068 62.7886 9.92634L51.4551 5.03027C51.1686 4.90674 50.8439 4.90674 50.5575 5.03027L39.224 9.92634C38.8104 10.1068 38.5433 10.5155 38.5439 10.9668V24.3765C38.5527 26.635 39.6498 28.7507 41.4907 30.0592ZM40.8016 11.7114L51.0017 7.30604L61.2019 11.7114V24.3765C61.1936 25.9062 60.4468 27.3377 59.197 28.2197L51.0017 34.0474L42.8065 28.2129C41.5581 27.3327 40.8115 25.904 40.8016 24.3765V11.7114Z"
          fill="url(#paint0_linear1)"/>
    <path d="M48.0551 26.973C48.5448 27.3405 49.2377 27.2527 49.6203 26.7747L58.6871 15.4412C59.0783 14.9523 58.9991 14.2389 58.5103 13.8477C58.0214 13.4565 57.308 13.5356 56.9168 14.0245L48.53 24.5012L44.8817 21.7596C44.5578 21.5167 44.1289 21.465 43.7565 21.624C43.3842 21.7831 43.1249 22.1287 43.0765 22.5307C43.0281 22.9327 43.1978 23.33 43.5217 23.573L48.0551 26.973Z"
          fill="url(#paint1_linear1)"/>
    <path d="M2.2667 60.0672H3.40005V64.6006C3.40005 66.4784 4.9223 68.0007 6.80009 68.0007H13.6002C15.478 68.0007 17.0002 66.4784 17.0002 64.6006V60.0672H44.2006V64.6006C44.2006 66.4784 45.7229 68.0007 47.6007 68.0007H54.4008C56.2785 68.0007 57.8008 66.4784 57.8008 64.6006V60.0672H58.9342C60.186 60.0672 61.2008 59.0524 61.2008 57.8005V40.8003C61.2051 39.1578 60.4888 37.596 59.2413 36.5276L63.14 33.7531C66.1785 31.5953 67.9887 28.1036 68.0009 24.3769V7.98756C68.0016 7.53631 67.7345 7.12765 67.3209 6.94715L51.454 0.0926507C51.1676 -0.0308836 50.8429 -0.0308836 50.5564 0.0926507L34.6805 6.94715C34.2669 7.12765 33.9998 7.53631 34.0005 7.98756V12.4666H16.8529C14.4501 12.4674 12.309 13.9835 11.5103 16.2497L4.83487 35.2174C2.06361 35.6253 0.00773757 37.9992 0 40.8003V57.8005C0 59.0524 1.01484 60.0672 2.2667 60.0672ZM14.7335 64.6006C14.7335 65.2265 14.2261 65.734 13.6002 65.734H6.80009C6.17416 65.734 5.66675 65.2265 5.66675 64.6006V60.0672H14.7335V64.6006ZM10.2001 57.8005H7.93344V55.5338H10.2001V57.8005ZM55.5341 64.6006C55.5341 65.2265 55.0267 65.734 54.4008 65.734H47.6007C46.9747 65.734 46.4673 65.2265 46.4673 64.6006V60.0672H55.5341V64.6006ZM53.2674 57.8005H51.0007V55.5338H53.2674V57.8005ZM36.2672 8.73217L51.0007 2.36728L65.7342 8.73217V24.3724C65.723 27.3662 64.2673 30.1704 61.8253 31.9024L51.0007 39.6125L40.1761 31.9058C37.7344 30.1741 36.2788 27.3703 36.2672 24.3769V8.73217ZM53.2674 41.9336C53.8933 41.9336 54.4008 42.4411 54.4008 43.067V45.3337C54.4008 45.9596 53.8933 46.467 53.2674 46.467H46.4673C45.8414 46.467 45.334 45.9596 45.334 45.3337C45.334 43.4559 46.8562 41.9336 48.734 41.9336H53.2674ZM34.0005 19.2667V21.5334H26.067V19.2667H34.0005ZM34.0005 17H31.7338V14.7333H34.0005V17ZM13.6489 17C14.129 15.642 15.4126 14.7339 16.8529 14.7333H29.4671V17H26.067C24.8152 17 23.8003 18.0148 23.8003 19.2667V21.5334C23.8003 22.7852 24.8152 23.8 26.067 23.8H34.0005V24.3769C34.0127 28.1036 35.8229 31.5953 38.8614 33.7531L40.8006 35.1335H7.26703L13.6489 17ZM2.2667 40.8003C2.2667 38.9225 3.78895 37.4002 5.66675 37.4002H43.9853L47.4103 39.8392C44.8686 40.4498 43.0744 42.7197 43.0673 45.3337C43.0673 47.2115 44.5895 48.7337 46.4673 48.7337H53.2674C55.1452 48.7337 56.6675 47.2115 56.6675 45.3337V43.067C56.6638 41.667 55.8023 40.4124 54.4971 39.9061L57.3033 37.908C58.3197 38.5163 58.9397 39.6158 58.9342 40.8003L58.9342 57.8005H55.5341V55.5338C55.5341 54.282 54.5193 53.2671 53.2674 53.2671H51.0007C49.7488 53.2671 48.734 54.282 48.734 55.5338V57.8005H12.4668V55.5338C12.4668 54.282 11.452 53.2671 10.2001 53.2671H7.93344C6.68158 53.2671 5.66675 54.282 5.66675 55.5338V57.8005H2.2667V40.8003Z"
          fill="url(#paint2_linear1)"/>
    <path d="M20.4003 16.9995H18.4611C17.0203 17.0011 15.7362 17.9086 15.2537 19.2662L10.9991 31.3568C10.7913 31.9473 11.1016 32.5946 11.6922 32.8024C12.2828 33.0102 12.93 32.6999 13.1378 32.1093L17.3924 20.0233C17.552 19.5698 17.9804 19.2663 18.4611 19.2662H20.4003C21.0262 19.2662 21.5336 18.7588 21.5336 18.1329C21.5336 17.5069 21.0262 16.9995 20.4003 16.9995Z"
          fill="url(#paint3_linear1)"/>
    <path d="M7.93325 48.7334H14.7333C16.6111 48.7334 18.1334 47.2112 18.1334 45.3334C18.1296 42.2053 15.5948 39.6704 12.4666 39.6666H7.93325C6.05546 39.6666 4.5332 41.1889 4.5332 43.0667V45.3334C4.5332 47.2112 6.05546 48.7334 7.93325 48.7334ZM6.7999 43.0667C6.7999 42.4407 7.30732 41.9333 7.93325 41.9333H12.4666C14.3444 41.9333 15.8667 43.4556 15.8667 45.3334C15.8667 45.9593 15.3593 46.4667 14.7333 46.4667H7.93325C7.30732 46.4667 6.7999 45.9593 6.7999 45.3334V43.0667Z"
          fill="url(#paint4_linear1)"/>
    <path d="M22.6661 55.5333H38.533C39.7849 55.5333 40.7997 54.5185 40.7997 53.2666V48.7333C40.7997 47.4814 39.7849 46.4666 38.533 46.4666H22.6661C21.4142 46.4666 20.3994 47.4814 20.3994 48.7333V53.2666C20.3994 54.5185 21.4142 55.5333 22.6661 55.5333ZM22.6661 48.7333H38.533V53.2666H22.6661V48.7333Z"
          fill="url(#paint5_linear1)"/>
    <defs>
        <linearGradient id="paint0_linear1" x1="51.0063" y1="4.93762" x2="63.4686"
                        y2="4.93762" gradientUnits="userSpaceOnUse">
            <stop stop-color="#029C99"/>
            <stop offset="1" stop-color="#006C6A"/>
        </linearGradient>
        <linearGradient id="paint1_linear1" x1="51.002" y1="13.5991" x2="58.9356"
                        y2="13.5991" gradientUnits="userSpaceOnUse">
            <stop stop-color="#029C99"/>
            <stop offset="1" stop-color="#006C6A"/>
        </linearGradient>
        <linearGradient id="paint2_linear1" x1="34.0005" y1="0" x2="68.0009" y2="0"
                        gradientUnits="userSpaceOnUse">
            <stop stop-color="#029C99"/>
            <stop offset="1" stop-color="#006C6A"/>
        </linearGradient>
        <linearGradient id="paint3_linear1" x1="16.2341" y1="16.9995" x2="21.5336"
                        y2="16.9995" gradientUnits="userSpaceOnUse">
            <stop stop-color="#029C99"/>
            <stop offset="1" stop-color="#006C6A"/>
        </linearGradient>
        <linearGradient id="paint4_linear1" x1="11.3333" y1="39.6666" x2="18.1334"
                        y2="39.6666" gradientUnits="userSpaceOnUse">
            <stop stop-color="#029C99"/>
            <stop offset="1" stop-color="#006C6A"/>
        </linearGradient>
        <linearGradient id="paint5_linear1" x1="30.5996" y1="46.4666" x2="40.7997"
                        y2="46.4666" gradientUnits="userSpaceOnUse">
            <stop stop-color="#029C99"/>
            <stop offset="1" stop-color="#006C6A"/>
        </linearGradient>
    </defs>
</svg>