<svg width="71" height="71" viewBox="0 0 71 71" fill="none"
     xmlns="http://www.w3.org/2000/svg">
    <path d="M43.1917 44.7183V9.83882C43.1917 5.53314 39.7413 2.02856 35.4998 2.02856C31.2583 2.02856 27.8079 5.53314 27.8079 9.83882V44.7183C23.9125 47.559 21.8511 52.2708 22.4027 57.1601C23.0928 63.2766 27.9695 68.2094 33.9966 68.8888C34.4878 68.9446 34.979 68.9714 35.4679 68.9714C38.715 68.9714 41.8665 67.7675 44.2916 65.5628C47.0838 63.0245 48.6859 59.3871 48.6859 55.5846C48.6859 51.2533 46.6431 47.2366 43.1917 44.7183ZM42.8258 63.9003C40.4666 66.0448 37.4162 67.0278 34.2394 66.6696C29.221 66.105 25.1608 61.998 24.5861 56.9046C24.1059 52.6547 25.9915 48.5688 29.5067 46.2391L30.0056 45.9077V44.4271H31.1044C31.711 44.4271 32.2033 43.9284 32.2033 43.3114C32.2033 42.6944 31.711 42.1956 31.1044 42.1956H30.0056V38.8484H31.1044C31.711 38.8484 32.2033 38.3496 32.2033 37.7326C32.2033 37.1156 31.711 36.6169 31.1044 36.6169H30.0056V33.2696H31.1044C31.711 33.2696 32.2033 32.7709 32.2033 32.1539C32.2033 31.5368 31.711 31.0381 31.1044 31.0381H30.0056V27.6908H31.1044C31.711 27.6908 32.2033 27.1921 32.2033 26.5751C32.2033 25.9581 31.711 25.4593 31.1044 25.4593H30.0056V22.1121H31.1044C31.711 22.1121 32.2033 21.6133 32.2033 20.9963C32.2033 20.3793 31.711 19.8806 31.1044 19.8806H30.0056V16.5333H31.1044C31.711 16.5333 32.2033 16.0346 32.2033 15.4176C32.2033 14.8006 31.711 14.3018 31.1044 14.3018H30.0056V10.9546H31.1044C31.711 10.9546 32.2033 10.4558 32.2033 9.83882C32.2033 9.22181 31.711 8.72307 31.1044 8.72307H30.1166C30.6275 6.18028 32.8461 4.26007 35.4998 4.26007C38.5293 4.26007 40.994 6.7627 40.994 9.83882V10.9546H39.8952C39.2886 10.9546 38.7963 11.4533 38.7963 12.0703C38.7963 12.6873 39.2886 13.1861 39.8952 13.1861H40.994V16.5333H39.8952C39.2886 16.5333 38.7963 17.0321 38.7963 17.6491C38.7963 18.2661 39.2886 18.7648 39.8952 18.7648H40.994V22.1121H39.8952C39.2886 22.1121 38.7963 22.6108 38.7963 23.2278C38.7963 23.8449 39.2886 24.3436 39.8952 24.3436H40.994V27.6908H39.8952C39.2886 27.6908 38.7963 28.1896 38.7963 28.8066C38.7963 29.4236 39.2886 29.9223 39.8952 29.9223H40.994V33.2696H39.8952C39.2886 33.2696 38.7963 33.7683 38.7963 34.3854C38.7963 35.0024 39.2886 35.5011 39.8952 35.5011H40.994V38.8484H39.8952C39.2886 38.8484 38.7963 39.3471 38.7963 39.9641C38.7963 40.5811 39.2886 41.0799 39.8952 41.0799H40.994V45.91L41.4929 46.2402C44.6213 48.3122 46.4882 51.8056 46.4882 55.5846C46.4882 58.7545 45.1531 61.7849 42.8258 63.9003Z"
          fill="url(#paint0_linear2)" stroke="url(#paint1_linear2)" stroke-width="0.7"/>
    <path d="M36.5144 50.1892V27.4491C36.5144 26.8532 36.06 26.3715 35.5001 26.3715C34.9403 26.3715 34.4859 26.8532 34.4859 27.4491V50.1892C32.1713 50.6882 30.4287 52.8619 30.4287 55.4688C30.4287 58.4443 32.6997 60.8572 35.5001 60.8572C38.3006 60.8572 40.5716 58.4443 40.5716 55.4688C40.5716 52.8619 38.829 50.6882 36.5144 50.1892Z"
          fill="url(#paint2_linear2)" stroke="url(#paint3_linear2)" stroke-width="0.5"/>
    <defs>
        <linearGradient id="paint0_linear2" x1="35.5002" y1="2.02856" x2="48.6859"
                        y2="2.02856" gradientUnits="userSpaceOnUse">
            <stop stop-color="#029C99"/>
            <stop offset="1" stop-color="#006C6A"/>
        </linearGradient>
        <linearGradient id="paint1_linear2" x1="35.5002" y1="2.02856" x2="48.6859"
                        y2="2.02856" gradientUnits="userSpaceOnUse">
            <stop stop-color="#029C99"/>
            <stop offset="1" stop-color="#006C6A"/>
        </linearGradient>
        <linearGradient id="paint2_linear2" x1="35.5001" y1="26.3715" x2="40.5716"
                        y2="26.3715" gradientUnits="userSpaceOnUse">
            <stop stop-color="#029C99"/>
            <stop offset="1" stop-color="#006C6A"/>
        </linearGradient>
        <linearGradient id="paint3_linear2" x1="35.5001" y1="26.3715" x2="40.5716"
                        y2="26.3715" gradientUnits="userSpaceOnUse">
            <stop stop-color="#029C99"/>
            <stop offset="1" stop-color="#006C6A"/>
        </linearGradient>
    </defs>
</svg>