<svg width="70" height="71" viewBox="0 0 70 71" fill="none"
     xmlns="http://www.w3.org/2000/svg">
    <path d="M9.31063 58.7787H4.65489C2.72642 58.7787 1.16309 60.342 1.16309 62.2705V66.9262C1.16309 68.8547 2.72642 70.418 4.65489 70.418H9.31063C11.2391 70.418 12.8024 68.8547 12.8024 66.9262V62.2705C12.8024 60.342 11.2391 58.7787 9.31063 58.7787ZM10.4746 66.9262C10.4746 67.569 9.95345 68.0902 9.31063 68.0902H4.65489C4.01207 68.0902 3.49095 67.569 3.49095 66.9262V62.2705C3.49095 61.6277 4.01207 61.1066 4.65489 61.1066H9.31063C9.95345 61.1066 10.4746 61.6277 10.4746 62.2705V66.9262Z"
          fill="url(#paint0_linear3)"/>
    <path d="M18.6227 70.418H23.2784C25.2069 70.418 26.7702 68.8547 26.7702 66.9262V57.6147C26.7702 55.6863 25.2069 54.1229 23.2784 54.1229H18.6227C16.6942 54.1229 15.1309 55.6863 15.1309 57.6147V66.9262C15.1309 68.8547 16.6942 70.418 18.6227 70.418ZM17.4587 57.6147C17.4587 56.9719 17.9798 56.4508 18.6227 56.4508H23.2784C23.9212 56.4508 24.4423 56.9719 24.4423 57.6147V66.9262C24.4423 67.569 23.9212 68.0902 23.2784 68.0902H18.6227C17.9798 68.0902 17.4587 67.569 17.4587 66.9262V57.6147Z"
          fill="url(#paint1_linear3)"/>
    <path d="M32.5904 70.418H37.2462C39.1746 70.418 40.738 68.8546 40.738 66.9262V51.795C40.738 49.8666 39.1746 48.3032 37.2462 48.3032H32.5904C30.662 48.3032 29.0986 49.8666 29.0986 51.795V66.9262C29.0986 68.8546 30.662 70.418 32.5904 70.418ZM31.4265 51.795C31.4265 51.1522 31.9476 50.6311 32.5904 50.6311H37.2462C37.889 50.6311 38.4101 51.1522 38.4101 51.795V66.9262C38.4101 67.569 37.889 68.0901 37.2462 68.0901H32.5904C31.9476 68.0901 31.4265 67.569 31.4265 66.9262V51.795Z"
          fill="url(#paint2_linear3)"/>
    <path d="M46.5563 70.4179H51.212C53.1405 70.4179 54.7038 68.8546 54.7038 66.9261V44.8114C54.7038 42.8829 53.1405 41.3196 51.212 41.3196H46.5563C44.6278 41.3196 43.0645 42.8829 43.0645 44.8114V66.9261C43.0645 68.8546 44.6278 70.4179 46.5563 70.4179ZM45.3923 44.8114C45.3923 44.1686 45.9134 43.6474 46.5563 43.6474H51.212C51.8548 43.6474 52.3759 44.1686 52.3759 44.8114V66.9261C52.3759 67.569 51.8548 68.0901 51.212 68.0901H46.5563C45.9134 68.0901 45.3923 67.569 45.3923 66.9261V44.8114Z"
          fill="url(#paint3_linear3)"/>
    <path d="M65.1798 70.4179C67.1082 70.4179 68.6716 68.8545 68.6716 66.9261V33.172C68.6716 31.2435 67.1082 29.6802 65.1798 29.6802H60.524C58.5956 29.6802 57.0322 31.2435 57.0322 33.172V66.9261C57.0322 68.8545 58.5956 70.4179 60.524 70.4179H65.1798ZM59.3601 66.9261V33.172C59.3601 32.5292 59.8812 32.008 60.524 32.008H65.1798C65.8226 32.008 66.3437 32.5292 66.3437 33.172V66.9261C66.3437 67.5689 65.8226 68.09 65.1798 68.09H60.524C59.8812 68.09 59.3601 67.5689 59.3601 66.9261Z"
          fill="url(#paint4_linear3)"/>
    <path d="M68.8647 5.67406C68.2572 5.23918 67.478 5.12229 66.7696 5.3598L56.4502 8.80388C55.6276 9.07742 55.0251 9.78541 54.8867 10.6412C54.7483 11.497 55.0969 12.3588 55.7914 12.8776L57.1881 13.9252C43.4339 29.2251 25.7677 39.5143 1.70688 46.2535C1.09055 46.4273 0.571566 46.8446 0.26942 47.4093C-0.0267228 47.9688 -0.0821971 48.6248 0.11578 49.2262L1.21803 52.5329C1.53384 53.4861 2.42532 54.1294 3.4295 54.1287C3.64702 54.1289 3.86357 54.0996 4.07316 54.0414C29.8415 46.8087 48.8066 35.6256 63.7201 18.8172L66.1213 20.6213C66.8267 21.1503 67.7705 21.2354 68.5591 20.8411C69.3477 20.4468 69.8459 19.6407 69.8459 18.759V7.56545C69.842 6.8139 69.4769 6.11009 68.8647 5.67406ZM64.2369 16.295C63.9707 16.099 63.6343 16.0244 63.3102 16.0893C62.9861 16.1542 62.7043 16.3527 62.5341 16.636C47.893 33.4211 29.1164 44.5925 3.42834 51.795L2.33424 48.494C27.3402 41.4918 45.5907 30.6952 59.7697 14.5176C59.9832 14.2738 60.0853 13.952 60.0515 13.6297C60.0177 13.3074 59.851 13.0137 59.5917 12.8195L57.1788 11.0142L67.5076 7.56545V18.7509L64.2369 16.295Z"
          fill="url(#paint5_linear3)"/>
    <path d="M15.0992 35.3067C15.8687 35.4326 16.6472 35.4961 17.427 35.4965C21.1299 35.5125 24.687 34.0545 27.3133 31.4442C29.9396 28.8338 31.4192 25.2857 31.4257 21.5828C31.4257 11.1411 20.3252 2.13111 19.0589 1.13827C18.1246 0.398694 16.8054 0.395326 15.8673 1.13013C13.3847 3.07855 1.1331 13.3852 3.88581 24.9535C5.22823 30.3298 9.63309 34.3967 15.0992 35.3067ZM17.3036 2.96216C17.3476 2.9272 17.4023 2.90867 17.4584 2.90978C17.5194 2.91017 17.5784 2.93108 17.6261 2.96914C18.7958 3.89098 29.0978 12.2422 29.0978 21.5828C29.0978 24.981 27.6022 28.2071 25.0089 30.4031C22.3694 32.629 18.8847 33.582 15.4798 33.0091C10.9381 32.2563 7.2757 28.8811 6.15548 24.4158C3.67397 14.0102 15.9011 4.06208 17.3036 2.96216Z"
          fill="url(#paint6_linear3)"/>
    <path d="M15.8511 30.7127C16.3825 30.7995 16.92 30.8435 17.4585 30.8442C18.1013 30.8442 18.6224 30.3231 18.6224 29.6803C18.6224 29.0375 18.1013 28.5163 17.4585 28.5163C17.0455 28.5159 16.6333 28.482 16.2259 28.4151C13.5307 27.978 11.352 25.9831 10.6797 23.3368C10.5309 22.7114 9.90322 22.325 9.27775 22.4738C8.65228 22.6226 8.26588 23.2503 8.41469 23.8757C9.31059 27.4324 12.2318 30.1182 15.8511 30.7127Z"
          fill="url(#paint7_linear3)"/>
    <defs>
        <linearGradient id="paint0_linear3" x1="6.98276" y1="58.7787" x2="12.8024"
                        y2="58.7787" gradientUnits="userSpaceOnUse">
            <stop stop-color="#029C99"/>
            <stop offset="1" stop-color="#006C6A"/>
        </linearGradient>
        <linearGradient id="paint1_linear3" x1="20.9505" y1="54.1229" x2="26.7702"
                        y2="54.1229" gradientUnits="userSpaceOnUse">
            <stop stop-color="#029C99"/>
            <stop offset="1" stop-color="#006C6A"/>
        </linearGradient>
        <linearGradient id="paint2_linear3" x1="34.9183" y1="48.3032" x2="40.738"
                        y2="48.3032" gradientUnits="userSpaceOnUse">
            <stop stop-color="#029C99"/>
            <stop offset="1" stop-color="#006C6A"/>
        </linearGradient>
        <linearGradient id="paint3_linear3" x1="48.8841" y1="41.3196" x2="54.7038"
                        y2="41.3196" gradientUnits="userSpaceOnUse">
            <stop stop-color="#029C99"/>
            <stop offset="1" stop-color="#006C6A"/>
        </linearGradient>
        <linearGradient id="paint4_linear3" x1="62.8519" y1="29.6802" x2="68.6716"
                        y2="29.6802" gradientUnits="userSpaceOnUse">
            <stop stop-color="#029C99"/>
            <stop offset="1" stop-color="#006C6A"/>
        </linearGradient>
        <linearGradient id="paint5_linear3" x1="34.9225" y1="5.23901" x2="69.8459"
                        y2="5.23901" gradientUnits="userSpaceOnUse">
            <stop stop-color="#029C99"/>
            <stop offset="1" stop-color="#006C6A"/>
        </linearGradient>
        <linearGradient id="paint6_linear3" x1="17.4555" y1="0.581299" x2="31.4257"
                        y2="0.581299" gradientUnits="userSpaceOnUse">
            <stop stop-color="#029C99"/>
            <stop offset="1" stop-color="#006C6A"/>
        </linearGradient>
        <linearGradient id="paint7_linear3" x1="13.5026" y1="22.4419" x2="18.6224"
                        y2="22.4419" gradientUnits="userSpaceOnUse">
            <stop stop-color="#029C99"/>
            <stop offset="1" stop-color="#006C6A"/>
        </linearGradient>
    </defs>
</svg>