<svg width="71" height="71" viewBox="0 0 71 71" fill="none"
     xmlns="http://www.w3.org/2000/svg">
    <path d="M70.186 16.2388L70.0675 16.1203L55.014 1.06678C53.7101 -0.355592 51.458 -0.355592 50.0357 1.06678L48.3762 2.72625C48.1391 2.96336 48.0206 3.20033 48.0206 3.55592C48.0206 3.91152 48.1391 4.14862 48.3762 4.38559L49.2059 5.21526L47.6622 6.7589L46.8352 5.92645C46.3611 5.45237 45.6499 5.45237 45.1757 5.92645C44.7015 6.40052 44.7016 7.11171 45.1757 7.58593L46.0028 8.41837L44.2277 10.1937L42.5682 8.53422C42.3311 8.29711 42.0942 8.17863 41.7386 8.17863C41.5015 8.17863 41.1459 8.29711 41.0274 8.53422L20.8771 28.6845C20.403 29.1586 20.403 29.8698 20.8771 30.344L22.0624 31.5292C23.7218 33.1887 26.3295 33.1887 27.9889 31.5292L30.4781 29.0401C31.4262 29.1144 32.3509 29.3028 33.2387 29.5908L14.4764 48.2421C12.6985 47.6494 11.039 47.6494 9.49814 48.1236L7.00899 45.7529C6.53491 45.2789 5.82373 45.2789 5.34951 45.7529L0.371217 50.7312C0.134109 50.9683 0.015625 51.2053 0.015625 51.5609C0.015625 51.9165 0.13411 52.1536 0.252733 52.2721L2.74188 54.7612C1.43799 58.5543 2.50477 62.8214 5.34951 65.6661C8.31274 68.6293 12.5798 69.5776 16.3729 68.2737L18.862 70.6444C19.0991 70.8815 19.4547 71 19.6917 71C19.9287 71 20.2844 70.8815 20.5214 70.6444L25.4997 65.7846C25.7368 65.5475 25.8552 65.3105 25.8552 64.9549C25.8552 64.5993 25.7368 64.3622 25.4997 64.1253L23.0105 61.6361C23.6032 59.9766 23.4846 58.4358 22.892 56.6578L41.577 37.8616C41.8976 38.7943 42.116 39.7698 42.2125 40.7746L39.7234 43.2638C38.0639 44.9233 38.0639 47.5309 39.7234 49.1904L40.9086 50.3756C41.1457 50.6127 41.3827 50.7312 41.7383 50.7312C42.0939 50.7312 42.4495 50.6127 42.4495 50.3756L62.6 30.2254C63.0741 29.7513 63.0741 29.0401 62.6 28.5659L60.9406 26.9064L62.6621 25.1848L63.5482 26.0767C63.7853 26.3138 64.0223 26.4323 64.3779 26.4323C64.7335 26.4323 64.9706 26.3138 65.2075 26.0767C65.6816 25.6027 65.6816 24.8915 65.2075 24.4173L64.3215 23.5254L65.9187 21.9281L66.7484 22.7578C67.2225 23.2319 67.9336 23.2319 68.4079 22.7578L70.0673 21.0983L70.1858 20.9798C71.2527 19.6761 71.2527 17.5425 70.186 16.2388ZM20.7586 55.5909C20.403 55.9465 20.2845 56.4206 20.5215 56.8948C21.3512 59.1468 21.1142 60.4507 20.64 61.5175C20.4029 61.9916 20.5215 62.4658 20.8771 62.8214L23.0106 64.9549L19.6918 68.1553L17.4398 66.1402C17.2027 65.9031 16.8471 65.7846 16.6101 65.7846C16.4916 65.7846 16.373 65.7846 16.2545 65.9031C13.0542 67.207 9.49827 66.4958 7.12761 64.1251C4.75695 61.7545 4.04577 58.0801 5.34965 54.9982C5.58676 54.5241 5.46813 54.0499 5.11254 53.6943L2.97899 51.5609L6.2978 48.2421L8.43136 50.3756C8.78695 50.7312 9.26103 50.8497 9.73524 50.6127C10.802 50.1387 12.1059 49.7831 14.3579 50.7312C14.832 50.9683 15.3062 50.8497 15.6618 50.4941L35.6213 30.6528C37.697 31.8451 39.4411 33.6143 40.6219 35.7277L20.7586 55.5909ZM41.7386 47.8865L41.383 47.5309C40.6718 46.8197 40.6718 45.6345 41.383 44.9233L44.2277 42.0785C44.4648 41.8414 44.5833 41.4858 44.5833 41.1302C44.463 39.1757 43.9531 37.2979 43.1361 35.5772C43.1158 35.4926 43.0851 35.4074 43.0424 35.3221C42.3363 33.9099 41.4041 32.5991 40.3069 31.443C40.2249 31.3559 40.142 31.2696 40.0583 31.1843C40.0351 31.1609 40.0123 31.1368 39.9889 31.1135C38.7516 29.8699 37.3171 28.8291 35.7502 28.0557C35.7452 28.053 35.7402 28.0505 35.7352 28.048C33.9626 27.1756 32.0212 26.6454 30.0042 26.5508C29.767 26.5508 29.4114 26.6693 29.1745 26.9064L26.3297 29.7511C25.6186 30.4623 24.4333 30.4623 23.7221 29.7511L23.3665 29.3955L41.7386 11.0234L43.3979 12.6827C43.3979 12.6827 43.3979 12.6827 43.398 12.6828L58.5699 27.7362L60.2294 29.3957L41.7386 47.8865ZM59.3404 25.3064L45.8872 11.8532L47.6571 10.0833L61.0671 23.5798L59.3404 25.3064ZM49.3166 8.42365L50.984 6.75626L64.4372 20.2095L62.7264 21.9202L49.3166 8.42365ZM68.5265 19.4391L67.8153 20.1503L66.9856 19.3206C66.8712 19.2062 66.7427 19.1199 66.6073 19.0607L51.8136 4.26711C51.8136 4.26711 51.8136 4.26711 51.8135 4.26697L50.9838 3.4373L51.8135 2.60763C52.2876 2.13355 52.9988 2.13355 53.473 2.60763L68.5263 17.661C68.8821 18.1352 68.8821 18.9649 68.5265 19.4391Z"
          fill="url(#paint0_linear4)"/>
    <path d="M34.2723 35.3222L23.0118 46.5827C22.5377 47.0568 22.5377 47.768 23.0118 48.2422C23.2489 48.4793 23.4859 48.5978 23.8415 48.5978C24.0786 48.5978 24.4342 48.4793 24.6711 48.2422L35.9316 36.9817C36.4057 36.5076 36.4057 35.7964 35.9316 35.3222C35.4575 34.8482 34.7464 34.8482 34.2723 35.3222Z"
          fill="url(#paint1linear4)"/>
    <path d="M8.78675 54.1685C7.60149 55.2353 7.00879 56.7762 7.00879 58.3171C7.00879 59.8581 7.71997 61.399 8.78675 62.4658C9.85353 63.651 11.3944 64.2437 12.9354 64.2437C14.4762 64.2437 16.0172 63.5325 17.2025 62.4658C18.3877 61.399 18.9804 59.8581 18.9804 58.3171C18.9804 56.7762 18.2693 55.2353 17.2025 54.1685C14.8318 51.9165 11.0389 51.9165 8.78675 54.1685ZM15.4245 60.8063C14.1206 62.1102 11.7501 62.1102 10.4462 60.8063C9.73504 60.2136 9.37945 59.2654 9.37945 58.3171C9.37945 57.3689 9.73504 56.5392 10.4462 55.828C11.1574 55.1168 11.9871 54.7612 12.9354 54.7612C13.8837 54.7612 14.7133 54.9983 15.4245 55.828C16.1357 56.4207 16.4913 57.3689 16.4913 58.3171C16.4913 59.2654 16.1357 60.0951 15.4245 60.8063Z"
          fill="url(#paint2_linear4)"/>
    <path d="M45.0566 21.217C42.449 21.217 40.3154 23.3506 40.3154 25.9582C40.3154 28.5659 42.449 30.6994 45.0566 30.6994C47.6642 30.6994 49.7978 28.5659 49.7978 25.9582C49.7979 23.3506 47.6644 21.217 45.0566 21.217ZM45.0566 28.3289C43.7527 28.3289 42.686 27.2621 42.686 25.9582C42.686 24.6543 43.7527 23.5876 45.0566 23.5876C46.3605 23.5876 47.4273 24.6543 47.4273 25.9582C47.4273 27.2621 46.3605 28.3289 45.0566 28.3289Z"
          fill="url(#paint3_linear4)"/>
    <defs>
        <linearGradient id="paint0_linear4" x1="35.5008" y1="0" x2="70.986" y2="0"
                        gradientUnits="userSpaceOnUse">
            <stop stop-color="#029C99"/>
            <stop offset="1" stop-color="#006C6A"/>
        </linearGradient>
        <linearGradient id="paint1linear4" x1="29.4717" y1="34.9667" x2="36.2872"
                        y2="34.9667" gradientUnits="userSpaceOnUse">
            <stop stop-color="#029C99"/>
            <stop offset="1" stop-color="#006C6A"/>
        </linearGradient>
        <linearGradient id="paint2_linear4" x1="12.9946" y1="52.4795" x2="18.9804"
                        y2="52.4795" gradientUnits="userSpaceOnUse">
            <stop stop-color="#029C99"/>
            <stop offset="1" stop-color="#006C6A"/>
        </linearGradient>
        <linearGradient id="paint3_linear4" x1="45.0566" y1="21.217" x2="49.7978"
                        y2="21.217" gradientUnits="userSpaceOnUse">
            <stop stop-color="#029C99"/>
            <stop offset="1" stop-color="#006C6A"/>
        </linearGradient>
    </defs>
</svg>