<svg width="228" height="230" viewBox="0 0 228 230" fill="none" xmlns="http://www.w3.org/2000/svg">
<path opacity="0.3" fill-rule="evenodd" clip-rule="evenodd" d="M149.846 98.0497L148.164 93.4212C147.58 93.5103 147.034 93.7987 146.624 94.288C145.729 95.3542 145.865 96.937 146.932 97.8322C147.777 98.5411 148.947 98.5892 149.846 98.0497ZM143.877 82.2391C143.938 82.1661 143.979 82.0881 144.03 82.0127L142.643 78.1925C141.719 77.9334 140.682 78.2147 140.021 79.0034C139.126 80.0696 139.259 81.6561 140.326 82.5513C141.389 83.4435 142.982 83.3053 143.877 82.2391ZM127.681 78.3936C128.579 77.3238 128.438 75.7245 127.371 74.8293C126.308 73.9371 124.719 74.085 123.822 75.1549C122.927 76.2211 123.063 77.8039 124.127 78.696C125.193 79.5913 126.787 79.4598 127.681 78.3936ZM104.872 59.2544C105.77 58.1845 105.64 56.5944 104.573 55.6992C103.506 54.8039 101.917 54.9519 101.02 56.0217C100.125 57.0879 100.261 58.6707 101.328 59.566C102.395 60.4612 103.978 60.3206 104.872 59.2544ZM130.668 51.6736C131.565 50.6038 131.425 49.0112 130.358 48.1159C129.295 47.2238 127.709 47.368 126.812 48.4379C125.917 49.5041 126.05 51.0905 127.113 51.9827C128.18 52.878 129.773 52.7398 130.668 51.6736ZM147.493 124.237C148.391 123.167 148.251 121.581 147.184 120.686C146.117 119.791 144.538 119.935 143.64 121.004C142.743 122.074 142.872 123.658 143.939 124.553C145.006 125.448 146.595 125.307 147.493 124.237ZM114.465 47.822C115.363 46.7521 115.233 45.162 114.166 44.2668C113.099 43.3716 111.51 43.5195 110.613 44.5893C109.721 45.6519 109.851 47.242 110.918 48.1372C111.985 49.0325 113.574 48.8845 114.465 47.822ZM121.075 63.106C121.973 62.0361 121.835 60.4399 120.768 59.5447C119.705 58.6525 118.116 58.8004 117.219 59.8703C116.324 60.9365 116.457 62.5229 117.521 63.4151C118.587 64.3104 120.18 64.1722 121.075 63.106ZM159.659 125.112C158.976 126.163 159.159 127.58 160.138 128.401C160.408 128.628 160.709 128.787 161.024 128.884L159.659 125.112ZM118.092 89.8224C118.986 88.7562 118.842 87.1605 117.775 86.2653C116.712 85.3731 115.126 85.5174 114.232 86.5836C113.334 87.6534 113.467 89.2399 114.531 90.1321C115.598 91.0273 117.194 90.8922 118.092 89.8224ZM95.2824 70.6831C96.177 69.6169 96.0438 68.0305 94.9769 67.1352C93.91 66.24 92.3245 66.3843 91.4298 67.4505C90.5321 68.5203 90.6654 70.1068 91.7323 71.002C92.7992 71.8972 94.3847 71.7529 95.2824 70.6831ZM107.858 32.5343C108.756 31.4645 108.627 29.8811 107.56 28.9859C106.493 28.0906 104.9 28.2288 104.002 29.2986C103.108 30.3648 103.248 31.9574 104.315 32.8526C105.382 33.7479 106.964 33.6005 107.858 32.5343ZM111.482 74.5384C112.38 73.4685 112.236 71.8796 111.169 70.9844C110.106 70.0922 108.523 70.2328 107.626 71.3027C106.728 72.3725 106.864 73.9553 107.928 74.8475C108.995 75.7427 110.584 75.6082 111.482 74.5384ZM88.6727 55.3991C89.5704 54.3293 89.4377 52.7495 88.3708 51.8543C87.3039 50.959 85.7142 51.0936 84.8165 52.1634C83.9188 53.2333 84.0623 54.8222 85.1293 55.7174C86.1962 56.6126 87.7749 56.469 88.6727 55.3991ZM140.89 108.952C141.785 107.886 141.644 106.294 140.581 105.401C139.514 104.506 137.928 104.651 137.034 105.717C136.136 106.787 136.269 108.373 137.336 109.268C138.4 110.16 139.992 110.022 140.89 108.952ZM153.834 109.056C153.617 109.197 153.414 109.357 153.233 109.572C152.336 110.642 152.468 112.222 153.535 113.117C154.103 113.593 154.824 113.769 155.505 113.668L153.834 109.056ZM134.284 93.6715C135.182 92.6017 135.038 91.0127 133.975 90.1206C132.908 89.2253 131.325 89.3659 130.428 90.4358C129.53 91.5056 129.666 93.0884 130.733 93.9837C131.796 94.8759 133.386 94.7413 134.284 93.6715ZM98.2656 43.9667C99.1633 42.8969 99.0368 41.3098 97.9698 40.4146C96.9029 39.5193 95.3071 39.6612 94.4094 40.731C93.5148 41.7972 93.6553 43.3898 94.7222 44.285C95.7891 45.1803 97.3709 45.0329 98.2656 43.9667ZM31.1152 123.993C32.0098 122.927 31.8803 121.344 30.8134 120.449C29.7464 119.553 28.1537 119.692 27.259 120.758C26.3613 121.828 26.5018 123.42 27.5687 124.315C28.6356 125.211 30.2175 125.063 31.1152 123.993ZM70.124 146.988C71.0187 145.922 70.8745 144.326 69.8076 143.431C68.7443 142.539 67.1589 142.683 66.2642 143.749C65.3696 144.815 65.4997 146.405 66.563 147.298C67.6299 148.193 69.2294 148.054 70.124 146.988ZM47.3148 127.849C48.2094 126.782 48.0762 125.196 47.0093 124.301C45.9424 123.406 44.3569 123.55 43.4622 124.616C42.5676 125.682 42.6977 127.272 43.7646 128.168C44.8316 129.063 46.4201 128.915 47.3148 127.849ZM82.4632 147.598C81.7187 148.485 81.697 149.724 82.3123 150.632L85.8549 151.246C86.0206 151.13 86.1815 150.998 86.3194 150.833C87.214 149.767 87.0735 148.175 86.0102 147.282C84.9433 146.387 83.3578 146.532 82.4632 147.598ZM24.5164 108.719C25.4111 107.652 25.2742 106.063 24.2073 105.168C23.4208 104.508 22.3653 104.412 21.4957 104.827L20.1629 106.416C19.905 107.344 20.1761 108.374 20.9627 109.034C22.0296 109.93 23.6218 109.785 24.5164 108.719ZM124.061 36.386C124.956 35.3198 124.826 33.7297 123.759 32.8344C122.692 31.9392 121.103 32.0871 120.209 33.1533C119.314 34.2195 119.447 35.806 120.514 36.7012C121.581 37.5964 123.166 37.4522 124.061 36.386ZM37.7218 139.281C38.6165 138.215 38.4833 136.628 37.4164 135.733C36.3495 134.838 34.764 134.982 33.8693 136.048C32.9716 137.118 33.1048 138.705 34.1717 139.6C35.2386 140.495 36.8241 140.351 37.7218 139.281ZM53.9245 143.133C54.8191 142.066 54.6786 140.474 53.6117 139.579C52.5484 138.686 50.9629 138.831 50.0683 139.897C49.1706 140.967 49.3038 142.553 50.3671 143.445C51.434 144.341 53.0268 144.203 53.9245 143.133ZM21.5223 135.426C22.4169 134.36 22.2874 132.776 21.2205 131.881C20.1535 130.986 18.5608 131.124 17.6661 132.19C16.7684 133.26 16.9089 134.852 17.9758 135.748C19.0427 136.643 20.6246 136.496 21.5223 135.426ZM34.1093 97.2862C35.007 96.2164 34.8671 94.6305 33.8002 93.7353C33.0137 93.0753 31.9582 92.9799 31.0855 93.3987L29.7527 94.987C29.4979 95.9119 29.7691 96.9421 30.5556 97.602C31.6225 98.4973 33.2147 98.3524 34.1093 97.2862ZM117.451 21.102C118.349 20.0321 118.22 18.4487 117.153 17.5535C116.086 16.6582 114.493 16.7964 113.595 17.8663C112.701 18.9325 112.841 20.525 113.908 21.4203C114.975 22.3155 116.557 22.1682 117.451 21.102ZM101.263 17.2559C102.157 16.1897 102.024 14.5965 100.957 13.7013C100.17 13.0413 99.1086 12.9532 98.2389 13.3684L96.9062 14.9567C96.6513 15.8816 96.9255 16.9081 97.7121 17.5681C98.779 18.4633 100.368 18.3221 101.263 17.2559ZM82.0739 40.1243C82.9716 39.0544 82.8378 37.4613 81.7709 36.566C80.9843 35.9061 79.9227 35.8179 79.0531 36.2331L77.7234 37.8178C77.4625 38.75 77.7397 39.7728 78.5263 40.4328C79.5932 41.3281 81.1792 41.1905 82.0739 40.1243ZM91.6668 28.6919C92.5645 27.6221 92.4307 26.0289 91.3638 25.1337C90.5772 24.4737 89.5156 24.3856 88.646 24.8008L87.3133 26.3891C87.0554 27.3176 87.3296 28.3441 88.1161 29.0041C89.183 29.8993 90.7752 29.7545 91.6668 28.6919ZM43.7022 85.8538C44.5999 84.784 44.4631 83.1945 43.3962 82.2992C42.6096 81.6392 41.5511 81.5475 40.6784 81.9663L39.3487 83.551C39.0908 84.4795 39.365 85.506 40.1516 86.166C41.2185 87.0613 42.8076 86.92 43.7022 85.8538ZM53.2951 74.4214C54.1928 73.3516 54.056 71.7621 52.9891 70.8668C52.2025 70.2069 51.144 70.1151 50.2744 70.5303L48.9447 72.115C48.6837 73.0471 48.9579 74.0736 49.7445 74.7336C50.8114 75.6289 52.4005 75.4876 53.2951 74.4214ZM72.484 51.553C73.3787 50.4868 73.2418 48.8973 72.1749 48.0021C71.3884 47.3421 70.3268 47.254 69.4602 47.6655L68.1274 49.2539C67.8696 50.1824 68.1438 51.2089 68.9303 51.8689C69.9972 52.7641 71.5863 52.6229 72.484 51.553ZM62.8911 62.9854C63.7858 61.9192 63.6489 60.3297 62.582 59.4345C61.7955 58.7745 60.7369 58.6827 59.8642 59.1016L58.5345 60.6862C58.2766 61.6148 58.5508 62.6413 59.3374 63.3012C60.4043 64.1965 61.9934 64.0553 62.8911 62.9854ZM14.9235 120.151C15.8181 119.085 15.6813 117.495 14.6144 116.6C13.8278 115.94 12.7693 115.848 11.9028 116.26L10.57 117.848C10.3121 118.777 10.5832 119.807 11.3698 120.467C12.4367 121.362 14.0258 121.221 14.9235 120.151ZM114.862 155.302C114.62 155.59 114.457 155.902 114.365 156.241L119.297 157.107C119.352 156.325 119.053 155.527 118.405 154.983C117.338 154.088 115.759 154.232 114.862 155.302ZM89.3098 124.123C90.2076 123.053 90.0634 121.458 88.9965 120.562C87.9332 119.67 86.3477 119.815 85.45 120.884C84.5554 121.951 84.6886 123.537 85.7519 124.429C86.8188 125.324 88.4152 125.189 89.3098 124.123ZM95.9123 139.401C96.81 138.331 96.6664 136.742 95.6031 135.85C94.5362 134.955 92.9538 135.095 92.0561 136.165C91.1584 137.235 91.2916 138.822 92.3585 139.717C93.4218 140.609 95.0146 140.471 95.9123 139.401ZM131.054 159.151L131.045 159.162L135.346 159.915C135.196 159.509 134.961 159.131 134.604 158.832C133.544 157.943 131.952 158.081 131.054 159.151ZM82.7032 108.836C83.6009 107.766 83.4604 106.173 82.3935 105.278C81.3302 104.386 79.7447 104.53 78.847 105.6C77.9493 106.67 78.0856 108.252 79.1489 109.145C80.2158 110.04 81.8055 109.905 82.7032 108.836ZM50.301 101.129C51.1987 100.059 51.0661 98.4791 49.9992 97.5838C48.9323 96.6886 47.3426 96.8231 46.4449 97.8929C45.5471 98.9628 45.6876 100.555 46.7546 101.451C47.8215 102.346 49.4033 102.198 50.301 101.129ZM124.691 105.104C125.589 104.034 125.445 102.445 124.382 101.553C123.315 100.658 121.733 100.798 120.835 101.868C119.937 102.938 120.07 104.524 121.137 105.42C122.201 106.312 123.793 106.174 124.691 105.104ZM66.5006 104.984C67.3983 103.914 67.2651 102.328 66.1981 101.432C65.1312 100.537 63.5458 100.681 62.648 101.751C61.7534 102.817 61.8866 104.404 62.9535 105.299C64.0204 106.194 65.6059 106.05 66.5006 104.984ZM56.9077 116.416C57.8054 115.346 57.6691 113.764 56.6022 112.868C55.5353 111.973 53.9528 112.114 53.0551 113.184C52.1605 114.25 52.2907 115.84 53.3576 116.735C54.4245 117.63 56.013 117.482 56.9077 116.416ZM63.5174 131.7C64.412 130.634 64.2715 129.042 63.2046 128.146C62.1413 127.254 60.5559 127.398 59.6612 128.465C58.7635 129.534 58.8937 131.125 59.9569 132.017C61.0238 132.912 62.6197 132.77 63.5174 131.7ZM137.274 66.9612C137.786 66.3515 137.945 65.5703 137.799 64.85L137.535 64.0997C137.387 63.8391 137.204 63.5985 136.964 63.3969C135.901 62.5047 134.312 62.6526 133.415 63.7225C132.523 64.785 132.653 66.3751 133.716 67.2673C134.783 68.1626 136.383 68.0238 137.274 66.9612ZM110.853 5.82714C111.75 4.75729 111.617 3.16414 110.55 2.2689C109.763 1.60891 108.701 1.5208 107.832 1.93599L106.502 3.52068C106.244 4.44918 106.518 5.4757 107.305 6.13568C108.372 7.03092 109.958 6.89334 110.853 5.82714ZM73.1103 120.268C74.008 119.198 73.8644 117.609 72.7975 116.714C71.7342 115.822 70.1518 115.962 69.2541 117.032C68.3564 118.102 68.4896 119.688 69.5529 120.581C70.6198 121.476 72.2126 121.338 73.1103 120.268ZM5.33366 131.58C6.22831 130.514 6.08838 128.928 5.02148 128.032C4.23494 127.372 3.17641 127.281 2.30679 127.696L0.977069 129.281C0.719201 130.209 0.990323 131.239 1.77686 131.899C2.84376 132.794 4.43595 132.65 5.33366 131.58ZM98.6591 151.45C98.1873 152.012 98.0115 152.717 98.0972 153.399L102.823 154.222C103.353 153.192 103.127 151.908 102.206 151.135C101.139 150.239 99.5568 150.38 98.6591 151.45ZM79.7169 135.556C80.6146 134.486 80.4674 132.894 79.4005 131.998C78.3373 131.106 76.7548 131.247 75.8571 132.317C74.9625 133.383 75.0926 134.973 76.1559 135.865C77.2228 136.761 78.8223 136.622 79.7169 135.556ZM40.7081 112.561C41.6027 111.495 41.4732 109.911 40.4063 109.016C39.3393 108.121 37.7466 108.259 36.8519 109.325C35.9542 110.395 36.0917 111.991 37.1586 112.887C38.2255 113.782 39.8104 113.631 40.7081 112.561ZM59.8939 89.6963C60.7916 88.6264 60.6621 87.043 59.5951 86.1478C58.5282 85.2525 56.9355 85.3907 56.0378 86.4606C55.1401 87.5304 55.2836 89.1193 56.3505 90.0146C57.4174 90.9098 58.9962 90.7661 59.8939 89.6963ZM112.108 143.253C113.006 142.183 112.865 140.591 111.802 139.699C110.735 138.803 109.15 138.948 108.252 140.018C107.357 141.084 107.491 142.67 108.558 143.565C109.621 144.458 111.214 144.319 112.108 143.253ZM85.6895 82.1155C86.5841 81.0493 86.4509 79.4628 85.384 78.5676C84.3171 77.6724 82.7316 77.8166 81.8369 78.8828C80.9392 79.9527 81.0724 81.5391 82.1394 82.4344C83.2063 83.3296 84.7917 83.1853 85.6895 82.1155ZM108.499 101.255C109.393 100.189 109.249 98.5929 108.182 97.6977C107.119 96.8055 105.534 96.9498 104.639 98.016C103.741 99.0858 103.874 100.672 104.938 101.564C106.005 102.46 107.601 102.325 108.499 101.255ZM172.615 165.209C173.512 164.139 173.375 162.55 172.308 161.654C171.245 160.762 169.656 160.903 168.758 161.973C167.864 163.039 168.001 164.629 169.064 165.521C170.131 166.416 171.72 166.275 172.615 165.209ZM160.702 154.803C161.6 153.733 161.463 152.143 160.396 151.248C159.336 150.359 157.744 150.497 156.846 151.567C155.948 152.637 156.089 154.229 157.148 155.118C158.215 156.014 159.804 155.872 160.702 154.803ZM131.297 120.385C132.192 119.319 132.051 117.726 130.988 116.834C129.921 115.939 128.336 116.083 127.441 117.149C126.543 118.219 126.676 119.805 127.743 120.701C128.807 121.593 130.399 121.455 131.297 120.385ZM79.0797 66.8315C79.9775 65.7616 79.8448 64.1819 78.7779 63.2867C77.711 62.3914 76.1213 62.5259 75.2236 63.5958C74.3259 64.6656 74.4664 66.2582 75.5333 67.1534C76.6002 68.0487 78.182 67.9013 79.0797 66.8315ZM101.889 85.9707C102.787 84.9009 102.643 83.312 101.576 82.4167C100.513 81.5246 98.9306 81.6652 98.0329 82.735C97.1351 83.8049 97.2684 85.3913 98.3316 86.2835C99.3985 87.1788 100.991 87.0406 101.889 85.9707ZM152.834 141.026C153.894 139.763 153.892 138.012 152.825 137.117C151.765 136.228 150.038 136.527 148.978 137.79C147.917 139.054 147.926 140.803 148.986 141.692C150.053 142.588 151.774 142.289 152.834 141.026ZM137.9 135.669C138.798 134.6 138.661 133.01 137.594 132.115C136.527 131.22 134.945 131.367 134.048 132.437C133.15 133.507 133.279 135.09 134.346 135.985C135.413 136.88 137.002 136.739 137.9 135.669ZM128.307 147.102C129.205 146.032 129.068 144.442 128.001 143.547C126.934 142.652 125.352 142.799 124.455 143.869C123.557 144.939 123.69 146.519 124.756 147.414C125.823 148.309 127.409 148.172 128.307 147.102ZM115.098 116.536C115.996 115.466 115.855 113.874 114.792 112.982C113.725 112.086 112.14 112.231 111.242 113.301C110.344 114.37 110.477 115.957 111.544 116.852C112.608 117.744 114.2 117.606 115.098 116.536ZM98.9028 112.691C99.8005 111.621 99.6563 110.025 98.5894 109.13C97.5261 108.238 95.9407 108.382 95.0429 109.452C94.1483 110.518 94.2815 112.105 95.3448 112.997C96.4117 113.892 98.0081 113.757 98.9028 112.691ZM148.452 162.207L150.674 162.597C150.017 162.108 149.196 161.985 148.452 162.207ZM105.505 127.969C106.403 126.899 106.262 125.306 105.199 124.414C104.132 123.519 102.547 123.663 101.649 124.733C100.751 125.803 100.888 127.386 101.955 128.281C103.018 129.173 104.607 129.038 105.505 127.969ZM121.701 131.821C122.599 130.751 122.458 129.158 121.395 128.266C120.328 127.371 118.743 127.515 117.845 128.585C116.95 129.651 117.084 131.238 118.15 132.133C119.214 133.025 120.806 132.887 121.701 131.821ZM69.4868 78.2639C70.3845 77.194 70.255 75.6106 69.1881 74.7154C68.1211 73.8201 66.5284 73.9583 65.6307 75.0282C64.733 76.098 64.8735 77.6906 65.9404 78.5858C67.0073 79.4811 68.5891 79.3337 69.4868 78.2639ZM92.2961 97.4031C93.1938 96.3333 93.0533 94.7407 91.9864 93.8455C90.9231 92.9533 89.3376 93.0976 88.4399 94.1674C87.5422 95.2373 87.6755 96.8237 88.7387 97.7159C89.8056 98.6112 91.3984 98.473 92.2961 97.4031ZM76.0935 93.5515C76.9912 92.4817 76.858 90.8952 75.7911 90C74.7242 89.1047 73.1387 89.249 72.241 90.3189C71.3463 91.3851 71.4795 92.9715 72.5464 93.8668C73.6134 94.762 75.1988 94.6177 76.0935 93.5515ZM144.503 150.954C145.401 149.884 145.264 148.295 144.197 147.399C143.137 146.51 141.545 146.648 140.647 147.718C139.752 148.784 139.893 150.377 140.952 151.266C142.019 152.161 143.608 152.02 144.503 150.954Z" fill="#99A2BD"/>
</svg>
