<svg width="236" height="174" viewBox="0 0 236 174" fill="none" xmlns="http://www.w3.org/2000/svg">
<path opacity="0.3" fill-rule="evenodd" clip-rule="evenodd" d="M195.31 12.1963C195.31 18.9324 200.776 24.3925 207.519 24.3925C214.259 24.3925 219.724 18.9324 219.724 12.1963C219.724 5.46275 214.259 0 207.519 0C200.776 0 195.31 5.46275 195.31 12.1963ZM56.9655 39.028C54.2698 39.028 52.0828 36.8456 52.0828 34.1495C52.0828 31.4535 54.2698 29.271 56.9655 29.271C59.6639 29.271 61.8483 31.4535 61.8483 34.1495C61.8483 36.8456 59.6639 39.028 56.9655 39.028ZM135.905 95.9439C130.06 95.9439 125.324 91.2098 125.324 85.3738C125.324 79.5352 130.06 74.8037 135.905 74.8037C141.747 74.8037 146.483 79.5352 146.483 85.3738C146.483 91.2098 141.747 95.9439 135.905 95.9439ZM56.9655 114.646C56.9655 115.992 58.0589 117.084 59.4056 117.084C60.7549 117.084 61.8483 115.992 61.8483 114.646C61.8483 113.298 60.7549 112.206 59.4056 112.206C58.0589 112.206 56.9655 113.298 56.9655 114.646ZM36.6194 78.0561C34.3734 78.0561 32.5517 76.2359 32.5517 73.9893C32.5517 71.7454 34.3734 69.9252 36.6194 69.9252C38.8679 69.9252 40.6897 71.7454 40.6897 73.9893C40.6897 76.2359 38.8679 78.0561 36.6194 78.0561ZM74.869 78.8692C74.869 81.1118 76.6912 82.9346 78.9366 82.9346C81.1846 82.9346 83.0069 81.1118 83.0069 78.8692C83.0069 76.6265 81.1846 74.8037 78.9366 74.8037C76.6912 74.8037 74.869 76.6265 74.869 78.8692ZM94.3987 147.981C91.7019 147.981 89.5172 145.799 89.5172 143.101C89.5172 140.407 91.7019 138.224 94.3987 138.224C97.0955 138.224 99.2828 140.407 99.2828 143.101C99.2828 145.799 97.0955 147.981 94.3987 147.981ZM128.579 156.927C128.579 159.171 130.401 160.991 132.648 160.991C134.895 160.991 136.717 159.171 136.717 156.927C136.717 154.682 134.895 152.86 132.648 152.86C130.401 152.86 128.579 154.682 128.579 156.927ZM8.13794 117.084C3.64429 117.084 0 113.441 0 108.952C0 104.463 3.64429 100.822 8.13794 100.822C12.6316 100.822 16.2759 104.463 16.2759 108.952C16.2759 113.441 12.6316 117.084 8.13794 117.084ZM52.0828 170.748C52.0828 172.545 53.5392 174 55.3379 174C57.1342 174 58.5931 172.545 58.5931 170.748C58.5931 168.951 57.1342 167.495 55.3379 167.495C53.5392 167.495 52.0828 168.951 52.0828 170.748ZM101.724 58.5421C98.5781 58.5421 96.0276 55.9944 96.0276 52.8518C96.0276 49.7093 98.5781 47.1589 101.724 47.1589C104.87 47.1589 107.421 49.7093 107.421 52.8518C107.421 55.9944 104.87 58.5421 101.724 58.5421ZM230.303 139.85C227.158 139.85 224.607 137.303 224.607 134.158C224.607 131.014 227.158 128.467 230.303 128.467C233.449 128.467 236 131.014 236 134.158C236 137.303 233.449 139.85 230.303 139.85Z" fill="#99A2BD"/>
</svg>
