<svg width="375" height="378" viewBox="0 0 375 378" fill="none" xmlns="http://www.w3.org/2000/svg">
<path opacity="0.15" fill-rule="evenodd" clip-rule="evenodd" d="M52.4267 173.06C32.6607 226.227 51.2232 296.081 122.914 286.878C139.085 284.802 202.303 270.388 258.74 248.02C315.178 225.653 364.836 195.331 353.888 161.44C342.872 127.337 234.293 124.096 227.577 106.563C211.226 63.8709 228.001 -17.0774 186.337 48.8131C182.893 54.2603 158.525 60.8178 130.464 78.2655C102.402 95.7137 70.6464 124.052 52.4267 173.06Z" stroke="url(#paint0_linear)"/>
<path opacity="0.15" fill-rule="evenodd" clip-rule="evenodd" d="M345.713 162.639C335.562 130.338 232.971 126.278 225.378 108.852C207.809 68.5314 223.198 -7.12302 182.622 53.8828C179.102 59.1754 155.783 65.68 129.053 82.5186C102.078 99.5871 71.5614 127.078 53.8857 173.76C34.2417 225.142 50.9121 290.725 120.006 283.811C137.881 282.022 197.089 264.419 251.669 243.051C306.153 221.708 355.769 195.071 345.713 162.639Z" stroke="url(#paint1_linear)"/>
<path opacity="0.15" fill-rule="evenodd" clip-rule="evenodd" d="M337.836 164.088C328.624 133.52 231.845 128.581 223.306 111.224C204.61 73.2237 218.243 2.80615 178.929 58.9596C175.33 64.1006 153.018 70.4744 127.647 86.7333C101.719 103.349 72.622 130.078 55.3829 174.386C36.0603 224.048 50.8393 285.747 117.32 280.803C136.939 279.344 192.148 258.58 244.896 238.263C297.453 217.995 347.167 195.049 337.836 164.088Z" stroke="url(#paint2_linear)"/>
<path opacity="0.15" fill-rule="evenodd" clip-rule="evenodd" d="M329.473 165.139C321.191 136.384 230.526 130.681 221.034 113.418C201.447 77.7928 213.081 12.668 175.186 63.9914C171.502 68.9809 150.257 75.2684 126.256 90.9255C101.422 107.126 73.6649 133.031 56.9242 174.948C37.8093 222.81 50.7257 280.85 114.425 277.497C135.77 276.373 186.883 252.382 237.723 233.08C288.278 213.852 337.958 194.593 329.473 165.139Z" stroke="url(#paint3_linear)"/>
<path opacity="0.15" fill-rule="evenodd" clip-rule="evenodd" d="M321.483 167.269C314.083 140.305 229.487 133.727 218.967 116.536C198.571 83.2053 207.844 23.3165 171.545 69.8649C167.771 74.7046 147.588 80.8848 124.949 95.9179C101.205 111.685 74.7814 136.744 58.5808 176.277C39.7032 222.344 50.8731 277.015 111.825 275.085C134.922 274.353 181.954 247.151 230.915 228.912C279.494 210.772 329.162 195.248 321.483 167.269Z" stroke="url(#paint4_linear)"/>
<path opacity="0.15" fill-rule="evenodd" clip-rule="evenodd" d="M313.328 168.55C306.811 143.392 228.38 135.94 216.789 118.837C195.734 87.7691 202.351 33.1101 167.822 74.9449C163.951 79.6344 144.849 85.707 123.582 100.108C100.94 115.44 75.8492 139.637 60.2036 176.772C41.5609 221.02 50.9965 272.488 109.156 271.785C134.002 271.484 176.921 241.041 223.978 223.87C270.559 206.823 320.19 195.042 313.328 168.55Z" stroke="url(#paint5_linear)"/>
<path opacity="0.15" fill-rule="evenodd" clip-rule="evenodd" d="M304.979 169.886C299.362 146.53 227.141 138.257 214.441 121.262C192.874 92.4004 196.611 42.896 163.962 80.1712C159.979 84.718 141.958 90.7105 122.039 104.506C100.478 119.439 76.6761 142.809 61.553 177.59C43.0844 220.065 50.7518 268.512 106.13 268.819C132.735 268.968 171.583 235.177 216.768 219.015C261.382 203.001 310.995 194.906 304.979 169.886Z" stroke="url(#paint6_linear)"/>
<path opacity="0.15" fill-rule="evenodd" clip-rule="evenodd" d="M297.041 171.433C292.325 149.885 226.399 140.781 212.548 123.936C190.591 97.2301 191.192 52.8539 160.586 85.6781C156.48 90.0818 139.555 96.0062 120.982 109.197C100.503 123.742 77.9724 146.284 63.3761 178.715C45.0573 219.417 50.9483 264.964 103.53 266.136C131.884 266.769 166.673 229.572 209.979 214.401C252.62 199.406 302.193 194.979 297.041 171.433Z" stroke="url(#paint7_linear)"/>
<path opacity="0.15" fill-rule="evenodd" clip-rule="evenodd" d="M288.632 173.349C284.749 153.619 225.145 143.468 210.043 126.792C187.711 102.132 184.808 62.873 156.49 91.2561C152.258 95.4974 136.458 101.314 119.26 113.837C99.9018 127.931 78.682 149.558 64.7096 179.581C46.6326 218.425 50.8789 261.16 100.682 263.232C130.787 264.485 161.425 223.945 202.82 209.894C243.454 196.041 292.976 195.422 288.632 173.349Z" stroke="url(#paint8_linear)"/>
<path opacity="0.15" fill-rule="evenodd" clip-rule="evenodd" d="M280.488 174.792C277.453 156.869 224.214 145.693 207.82 129.242C185.209 106.553 178.634 72.3122 152.695 96.4591C148.314 100.538 133.64 106.293 117.783 118.183C99.5168 131.88 79.5442 152.636 66.1553 180.313C48.2327 217.362 50.7782 257.419 97.8439 260.233C129.712 262.138 156.277 218.09 195.809 205.08C234.484 192.293 283.98 195.416 280.488 174.792Z" stroke="url(#paint9_linear)"/>
<path opacity="0.15" fill-rule="evenodd" clip-rule="evenodd" d="M272.237 176.212C270.036 160.11 223.265 147.845 205.535 131.699C182.711 110.915 172.269 81.649 148.87 101.688C144.32 105.585 130.806 111.3 116.294 122.546C99.1344 135.844 80.3978 155.707 67.6145 181.031C49.8331 216.256 50.6804 253.692 94.9957 257.172C128.599 259.811 151.086 212.192 188.732 200.229C225.427 188.513 274.856 195.38 272.237 176.212Z" stroke="url(#paint10_linear)"/>
<path opacity="0.15" fill-rule="evenodd" clip-rule="evenodd" d="M264.217 177.21C262.851 162.921 222.612 149.525 203.508 133.778C180.521 114.83 166.078 90.454 145.311 106.594C140.558 110.288 128.218 116.027 115.023 126.654C98.9464 139.601 81.382 158.599 69.1806 181.624C51.4535 215.076 50.5562 250.007 92.1604 254.034C127.498 257.456 146.01 206.083 181.811 195.101C216.563 184.391 265.913 194.945 264.217 177.21Z" stroke="url(#paint11_linear)"/>
<path opacity="0.15" fill-rule="evenodd" clip-rule="evenodd" d="M256.082 179.079C255.495 166.642 221.923 151.977 201.416 136.735C178.298 119.553 159.728 100.016 141.766 112.35C136.793 115.766 125.707 121.552 113.869 131.498C98.9441 144.036 82.5966 162.061 71.0677 182.711C53.4637 214.243 50.9011 246.638 89.7353 251.23C126.708 255.601 141.142 200.55 174.996 190.645C207.708 181.037 256.85 195.338 256.082 179.079Z" stroke="url(#paint12_linear)"/>
<path opacity="0.15" fill-rule="evenodd" clip-rule="evenodd" d="M247.973 180.78C248.131 170.146 221.184 154.071 199.168 139.39C175.839 123.835 153.051 108.939 137.863 117.729C132.6 120.775 122.785 126.749 112.251 136.045C98.4321 148.238 83.2034 165.333 72.3207 183.704C54.724 213.408 50.488 243.455 86.7194 248.574C125.425 254.042 135.878 194.964 167.909 186.09C198.703 177.537 247.753 195.619 247.973 180.78Z" stroke="url(#paint13_linear)"/>
<path opacity="0.15" fill-rule="evenodd" clip-rule="evenodd" d="M84.0642 245.426C124.422 252.191 130.857 189.004 161.017 181.203C189.844 173.747 238.678 195.617 239.965 182.244C240.814 173.419 220.601 155.839 197.055 141.835C173.508 127.83 146.629 117.401 134.145 122.876C120.836 128.714 91.5044 156.533 73.9055 184.303C56.3068 212.072 50.441 239.791 84.0642 245.426Z" stroke="url(#paint14_linear)"/>
<path fill-rule="evenodd" clip-rule="evenodd" d="M56.9333 211.933C57.5121 211.244 58.5406 211.154 59.2305 211.732C59.9204 212.311 60.0104 213.339 59.4316 214.028C58.8528 214.717 57.8244 214.807 57.1345 214.228C56.4446 213.65 56.3546 212.622 56.9333 211.933Z" fill="#0090D6"/>
<path fill-rule="evenodd" clip-rule="evenodd" d="M224.352 108.277C224.931 107.588 225.959 107.498 226.649 108.077C227.339 108.655 227.429 109.683 226.85 110.372C226.271 111.061 225.243 111.151 224.553 110.572C223.863 109.994 223.773 108.966 224.352 108.277Z" fill="#0090D6"/>
<path fill-rule="evenodd" clip-rule="evenodd" d="M299.702 203.763C300.57 202.729 302.113 202.594 303.148 203.462C304.183 204.33 304.318 205.871 303.449 206.905C302.581 207.939 301.039 208.073 300.004 207.206C298.969 206.338 298.834 204.797 299.702 203.763Z" fill="#0090D6"/>
<path fill-rule="evenodd" clip-rule="evenodd" d="M176.241 58.4462C177.109 57.4124 178.652 57.2776 179.687 58.1452C180.722 59.0129 180.857 60.5543 179.988 61.5881C179.12 62.6219 177.578 62.7567 176.543 61.8891C175.508 61.0215 175.373 59.48 176.241 58.4462Z" fill="#0090D6"/>
<path fill-rule="evenodd" clip-rule="evenodd" d="M307.433 204.92C307.819 204.46 308.504 204.4 308.964 204.786C309.424 205.172 309.484 205.857 309.098 206.316C308.713 206.776 308.027 206.835 307.567 206.45C307.107 206.064 307.047 205.379 307.433 204.92Z" fill="#0090D6"/>
<path fill-rule="evenodd" clip-rule="evenodd" d="M353.737 175.554C354.316 174.865 355.344 174.775 356.034 175.353C356.724 175.932 356.814 176.959 356.235 177.648C355.657 178.338 354.628 178.427 353.938 177.849C353.248 177.271 353.158 176.243 353.737 175.554Z" fill="#0090D6"/>
<path fill-rule="evenodd" clip-rule="evenodd" d="M65.8154 270.083C66.1048 269.738 66.619 269.693 66.9639 269.983C67.3089 270.272 67.3539 270.786 67.0645 271.13C66.7751 271.475 66.2609 271.52 65.9159 271.23C65.571 270.941 65.526 270.427 65.8154 270.083Z" fill="#0090D6"/>
<path fill-rule="evenodd" clip-rule="evenodd" d="M63.6415 267.91C63.9309 267.566 64.4451 267.521 64.7901 267.81C65.135 268.099 65.18 268.613 64.8906 268.958C64.6012 269.302 64.087 269.347 63.7421 269.058C63.3971 268.769 63.3521 268.255 63.6415 267.91Z" fill="#0090D6"/>
<path fill-rule="evenodd" clip-rule="evenodd" d="M54.2193 255.377C54.7981 254.688 55.8266 254.598 56.5164 255.177C57.2063 255.755 57.2964 256.783 56.7176 257.472C56.1388 258.161 55.1103 258.251 54.4204 257.673C53.7306 257.094 53.6405 256.067 54.2193 255.377Z" fill="#0090D6"/>
<path fill-rule="evenodd" clip-rule="evenodd" d="M204.406 193.522C204.695 193.177 205.209 193.132 205.554 193.422C205.899 193.711 205.944 194.225 205.655 194.569C205.366 194.914 204.851 194.959 204.506 194.67C204.162 194.38 204.116 193.867 204.406 193.522Z" fill="#0090D6"/>
<path fill-rule="evenodd" clip-rule="evenodd" d="M220.168 187.007C220.457 186.662 220.971 186.617 221.316 186.906C221.661 187.195 221.706 187.709 221.417 188.054C221.127 188.398 220.613 188.443 220.268 188.154C219.923 187.865 219.878 187.351 220.168 187.007Z" fill="#0090D6"/>
<path fill-rule="evenodd" clip-rule="evenodd" d="M215.638 189.136C216.217 188.447 217.245 188.357 217.935 188.936C218.625 189.514 218.715 190.542 218.136 191.231C217.558 191.92 216.529 192.01 215.839 191.432C215.149 190.853 215.059 189.826 215.638 189.136Z" fill="#0090D6"/>
<path fill-rule="evenodd" clip-rule="evenodd" d="M209.286 34.4069C209.575 34.0622 210.09 34.0173 210.435 34.3065C210.78 34.5957 210.825 35.1095 210.535 35.4542C210.246 35.7988 209.732 35.8437 209.387 35.5545C209.042 35.2653 208.997 34.7515 209.286 34.4069Z" fill="#0090D6"/>
<defs>
<linearGradient id="paint0_linear" x1="33.8031" y1="63.0711" x2="321.648" y2="13.1017" gradientUnits="userSpaceOnUse">
<stop stop-color="#FB2059"/>
<stop offset="0.602402" stop-color="#8138E9"/>
<stop offset="1" stop-color="#12CAF9"/>
</linearGradient>
<linearGradient id="paint1_linear" x1="35.8921" y1="68.4482" x2="313.074" y2="20.5647" gradientUnits="userSpaceOnUse">
<stop stop-color="#FB2059"/>
<stop offset="0.602402" stop-color="#8138E9"/>
<stop offset="1" stop-color="#12CAF9"/>
</linearGradient>
<linearGradient id="paint2_linear" x1="37.8543" y1="73.7189" x2="304.588" y2="27.5561" gradientUnits="userSpaceOnUse">
<stop stop-color="#FB2059"/>
<stop offset="0.602402" stop-color="#8138E9"/>
<stop offset="1" stop-color="#12CAF9"/>
</linearGradient>
<linearGradient id="paint3_linear" x1="39.9428" y1="79.096" x2="296.013" y2="35.0193" gradientUnits="userSpaceOnUse">
<stop stop-color="#FB2059"/>
<stop offset="0.602402" stop-color="#8138E9"/>
<stop offset="1" stop-color="#12CAF9"/>
</linearGradient>
<linearGradient id="paint4_linear" x1="41.9661" y1="85.1656" x2="287.588" y2="42.8095" gradientUnits="userSpaceOnUse">
<stop stop-color="#FB2059"/>
<stop offset="0.602402" stop-color="#8138E9"/>
<stop offset="1" stop-color="#12CAF9"/>
</linearGradient>
<linearGradient id="paint5_linear" x1="43.9279" y1="90.4363" x2="279.101" y2="49.8009" gradientUnits="userSpaceOnUse">
<stop stop-color="#FB2059"/>
<stop offset="0.602402" stop-color="#8138E9"/>
<stop offset="1" stop-color="#12CAF9"/>
</linearGradient>
<linearGradient id="paint6_linear" x1="45.8838" y1="95.7143" x2="271.387" y2="57.2586" gradientUnits="userSpaceOnUse">
<stop stop-color="#FB2059"/>
<stop offset="0.602402" stop-color="#8138E9"/>
<stop offset="1" stop-color="#12CAF9"/>
</linearGradient>
<linearGradient id="paint7_linear" x1="48.6312" y1="100.921" x2="265.226" y2="65.1092" gradientUnits="userSpaceOnUse">
<stop stop-color="#FB2059"/>
<stop offset="0.602402" stop-color="#8138E9"/>
<stop offset="1" stop-color="#12CAF9"/>
</linearGradient>
<linearGradient id="paint8_linear" x1="50.6412" y1="105.877" x2="258.155" y2="72.1135" gradientUnits="userSpaceOnUse">
<stop stop-color="#FB2059"/>
<stop offset="0.602402" stop-color="#8138E9"/>
<stop offset="1" stop-color="#12CAF9"/>
</linearGradient>
<linearGradient id="paint9_linear" x1="52.8322" y1="110.617" x2="251.635" y2="79.1379" gradientUnits="userSpaceOnUse">
<stop stop-color="#FB2059"/>
<stop offset="0.602402" stop-color="#8138E9"/>
<stop offset="1" stop-color="#12CAF9"/>
</linearGradient>
<linearGradient id="paint10_linear" x1="55.0233" y1="115.357" x2="245.1" y2="86.1671" gradientUnits="userSpaceOnUse">
<stop stop-color="#FB2059"/>
<stop offset="0.602402" stop-color="#8138E9"/>
<stop offset="1" stop-color="#12CAF9"/>
</linearGradient>
<linearGradient id="paint11_linear" x1="57.3955" y1="119.882" x2="239.09" y2="93.2233" gradientUnits="userSpaceOnUse">
<stop stop-color="#FB2059"/>
<stop offset="0.602402" stop-color="#8138E9"/>
<stop offset="1" stop-color="#12CAF9"/>
</linearGradient>
<linearGradient id="paint12_linear" x1="60.0162" y1="124.982" x2="232.939" y2="100.625" gradientUnits="userSpaceOnUse">
<stop stop-color="#FB2059"/>
<stop offset="0.602402" stop-color="#8138E9"/>
<stop offset="1" stop-color="#12CAF9"/>
</linearGradient>
<linearGradient id="paint13_linear" x1="62.0743" y1="129.623" x2="227.159" y2="107.677" gradientUnits="userSpaceOnUse">
<stop stop-color="#FB2059"/>
<stop offset="0.602402" stop-color="#8138E9"/>
<stop offset="1" stop-color="#12CAF9"/>
</linearGradient>
<linearGradient id="paint14_linear" x1="64.682" y1="133.61" x2="222.221" y2="114.329" gradientUnits="userSpaceOnUse">
<stop stop-color="#FB2059"/>
<stop offset="0.602402" stop-color="#8138E9"/>
<stop offset="1" stop-color="#12CAF9"/>
</linearGradient>
</defs>
</svg>
