<svg width="620" height="520" viewBox="0 0 620 520" fill="none" xmlns="http://www.w3.org/2000/svg">
<path opacity="0.15432" fill-rule="evenodd" clip-rule="evenodd" d="M332.694 79.8433C218.376 203.325 598.27 213.283 604.359 297.194C608.828 358.78 414.88 362.269 343.537 381.641C277.973 399.445 132.773 573.124 125.149 485.974C117.524 398.826 37.8278 180.318 118.602 92.2136C202.378 0.836408 392.107 15.6687 332.694 79.8433Z" stroke="url(#paint0_linear)"/>
<path opacity="0.15432" fill-rule="evenodd" clip-rule="evenodd" d="M589.209 296.159C593.072 355.536 408.363 354.786 338.153 376.612C273.807 396.478 125.973 556.696 119.331 472.245C112.501 385.402 50.9866 187.933 130.246 101.774C211.426 13.4394 383.362 26.4047 329.169 84.9631C224.24 198.344 583.778 216.113 589.209 296.159Z" stroke="url(#paint1_linear)"/>
<path opacity="0.15432" fill-rule="evenodd" clip-rule="evenodd" d="M574.197 296.734C577.625 354.005 401.696 349.016 332.507 373.338C269.275 395.308 118.599 542.351 112.899 460.44C106.866 373.728 63.4192 196.941 141.288 112.563C220.001 27.1046 374.416 38.2303 325.359 91.279C229.654 194.768 569.628 220.387 574.197 296.734Z" stroke="url(#paint2_linear)"/>
<path opacity="0.15432" fill-rule="evenodd" clip-rule="evenodd" d="M558.041 295.708C560.936 350.716 394.393 341.672 326.336 368.251C264.442 392.421 111.276 525.702 106.507 446.574C101.305 360.235 76.0177 204.653 152.297 122.297C228.344 39.9574 364.847 49.2057 321.048 96.5929C234.806 189.892 554.23 223.289 558.041 295.708Z" stroke="url(#paint3_linear)"/>
<path opacity="0.15432" fill-rule="evenodd" clip-rule="evenodd" d="M542.024 296.289C544.389 349.143 386.886 335.889 319.883 364.908C259.178 391.199 103.327 511.099 99.4518 434.604C95.0879 348.468 87.8672 213.788 162.692 133.295C236.209 53.9173 355.067 61.307 316.441 103.126C239.498 186.418 538.953 227.66 542.024 296.289Z" stroke="url(#paint4_linear)"/>
<path opacity="0.15432" fill-rule="evenodd" clip-rule="evenodd" d="M526.909 295.724C528.735 346.382 380.279 328.927 314.332 360.379C254.813 388.765 96.3005 495.2 93.295 421.405C89.7973 335.535 100.637 221.879 174.012 143.311C245.002 66.9516 346.209 72.4678 312.754 108.685C245.108 181.907 524.574 230.944 526.909 295.724Z" stroke="url(#paint5_linear)"/>
<path opacity="0.15432" fill-rule="evenodd" clip-rule="evenodd" d="M510.788 295.157C512.064 343.561 372.666 321.933 307.774 355.794C249.436 386.235 88.285 479.116 86.1281 408.11C83.5306 322.609 112.419 230.088 184.351 153.528C252.82 80.2726 336.37 83.9023 308.087 114.485C249.733 177.564 509.184 234.301 510.788 295.157Z" stroke="url(#paint6_linear)"/>
<path opacity="0.15432" fill-rule="evenodd" clip-rule="evenodd" d="M495.622 294.059C496.346 340.28 366.009 314.427 302.179 350.742C245.023 383.259 81.2769 462.717 79.9307 394.404C78.2507 309.153 125.151 237.614 195.631 162.966C261.57 92.7181 327.461 94.4825 304.353 119.475C255.303 172.505 494.729 237.042 495.622 294.059Z" stroke="url(#paint7_linear)"/>
<path opacity="0.15432" fill-rule="evenodd" clip-rule="evenodd" d="M479.59 294.571C479.756 338.656 358.485 308.525 295.725 347.337C239.75 381.953 73.4473 448.049 72.8761 382.362C72.1364 297.268 137.017 246.669 206.038 173.863C269.441 106.559 317.668 106.461 299.739 125.882C259.998 168.904 479.388 241.34 479.59 294.571Z" stroke="url(#paint8_linear)"/>
<path opacity="0.15432" fill-rule="evenodd" clip-rule="evenodd" d="M464.418 293.489C464.018 335.448 351.817 301.008 290.134 342.34C235.337 379.06 66.5123 431.781 66.6853 368.712C66.9189 283.753 149.753 254.134 217.312 183.159C278.177 118.788 308.737 116.822 295.987 130.664C265.557 163.666 464.891 244.04 464.418 293.489Z" stroke="url(#paint9_linear)"/>
<path opacity="0.15432" fill-rule="evenodd" clip-rule="evenodd" d="M448.371 293.925C447.384 333.696 344.268 294.996 283.667 338.81C230.037 377.583 58.7217 416.868 59.6176 356.508C60.8742 271.804 161.628 263.225 227.734 194.173C286.068 132.823 298.956 128.985 291.385 137.224C270.263 160.15 449.504 248.335 448.371 293.925Z" stroke="url(#paint10_linear)"/>
<path opacity="0.15432" fill-rule="evenodd" clip-rule="evenodd" d="M433.154 292.445C431.559 330.013 337.547 287.068 278.032 333.352C225.564 374.155 51.7958 400.011 53.3854 342.383C55.7143 257.972 174.345 270.415 238.998 203.314C294.801 145.008 290.022 139.308 287.622 141.936C275.853 154.824 434.925 250.732 433.154 292.445Z" stroke="url(#paint11_linear)"/>
<path opacity="0.15432" fill-rule="evenodd" clip-rule="evenodd" d="M417.112 293.102C414.883 328.436 329.996 281.295 271.574 330.011C220.259 372.8 44.0793 385.251 46.3368 330.403C49.7953 246.367 186.245 279.761 249.45 214.664C302.724 159.447 280.26 151.884 283.051 148.926C280.551 151.705 419.496 255.296 417.112 293.102Z" stroke="url(#paint12_linear)"/>
<path opacity="0.15432" fill-rule="evenodd" clip-rule="evenodd" d="M401.961 292.619C399.073 325.773 323.331 274.357 266.017 325.57C215.853 370.395 37.3071 369.465 40.1937 317.308C44.8302 233.529 199.04 287.9 260.786 224.717C311.523 172.51 271.381 163.083 279.354 154.533C286.169 147.261 404.919 258.657 401.961 292.619Z" stroke="url(#paint13_linear)"/>
<path opacity="0.15432" fill-rule="evenodd" clip-rule="evenodd" d="M386.801 292.271C383.216 323.302 316.556 267.389 260.462 321.302C211.373 368.163 30.5821 353.882 34.058 304.308C39.9252 220.621 211.837 296.148 272.11 234.762C320.298 185.471 262.477 174.146 275.629 159.978C291.757 142.621 390.288 262.085 386.801 292.271Z" stroke="url(#paint14_linear)"/>
<path opacity="0.15432" fill-rule="evenodd" clip-rule="evenodd" d="M370.557 291.408C366.211 320.243 308.83 260.086 253.831 316.478C205.924 365.424 22.831 337.7 26.8724 290.795C34.061 207.363 223.567 303.926 282.369 244.443C328.012 198.155 252.521 184.951 270.852 165.178C296.29 137.744 374.531 265.047 370.557 291.408Z" stroke="url(#paint15_linear)"/>
<path opacity="0.15432" fill-rule="evenodd" clip-rule="evenodd" d="M355.281 291.004C350.088 317.621 302.079 253.228 248.191 312.112C201.478 363.155 16.1538 321.974 20.7274 277.72C29.3243 194.544 236.287 312.17 293.604 254.58C336.691 211.289 243.554 196.198 267.056 170.811C301.791 133.289 359.683 268.443 355.281 291.004Z" stroke="url(#paint16_linear)"/>
<path fill-rule="evenodd" clip-rule="evenodd" d="M481.133 270.335C482.784 270.19 484.005 268.735 483.861 267.085C483.716 265.434 482.261 264.213 480.611 264.358C478.96 264.502 477.739 265.957 477.883 267.608C478.028 269.258 479.483 270.479 481.133 270.335Z" fill="#0090D6"/>
<path fill-rule="evenodd" clip-rule="evenodd" d="M561.133 333.335C562.784 333.19 564.005 331.735 563.861 330.085C563.716 328.434 562.261 327.213 560.611 327.358C558.96 327.502 557.739 328.957 557.883 330.608C558.028 332.258 559.483 333.479 561.133 333.335Z" fill="#0090D6"/>
<path fill-rule="evenodd" clip-rule="evenodd" d="M103.889 117.193C106.365 116.976 108.197 114.793 107.98 112.317C107.763 109.842 105.581 108.01 103.105 108.227C100.629 108.443 98.7975 110.626 99.0141 113.102C99.2308 115.578 101.413 117.409 103.889 117.193Z" fill="#0090D6"/>
<path fill-rule="evenodd" clip-rule="evenodd" d="M453.889 367.193C456.365 366.976 458.197 364.793 457.98 362.317C457.763 359.842 455.581 358.01 453.105 358.227C450.629 358.443 448.798 360.626 449.014 363.102C449.231 365.578 451.413 367.409 453.889 367.193Z" fill="#0090D6"/>
<path fill-rule="evenodd" clip-rule="evenodd" d="M26.963 295.429C28.0633 295.333 28.8773 294.363 28.781 293.263C28.6848 292.162 27.7147 291.348 26.6143 291.445C25.514 291.541 24.7 292.511 24.7963 293.611C24.8925 294.712 25.8626 295.526 26.963 295.429Z" fill="#0090D6"/>
<path fill-rule="evenodd" clip-rule="evenodd" d="M102.133 368.335C103.784 368.19 105.005 366.735 104.861 365.085C104.716 363.434 103.261 362.213 101.611 362.358C99.96 362.502 98.739 363.957 98.8834 365.608C99.0278 367.258 100.483 368.479 102.133 368.335Z" fill="#0090D6"/>
<path fill-rule="evenodd" clip-rule="evenodd" d="M111.378 102.477C112.203 102.405 112.813 101.677 112.741 100.852C112.669 100.027 111.942 99.4161 111.116 99.4883C110.291 99.5605 109.68 100.288 109.753 101.113C109.825 101.939 110.552 102.549 111.378 102.477Z" fill="#0090D6"/>
<path fill-rule="evenodd" clip-rule="evenodd" d="M310.378 64.4769C311.203 64.4047 311.813 63.6771 311.741 62.8518C311.669 62.0266 310.942 61.4161 310.116 61.4883C309.291 61.5605 308.68 62.288 308.753 63.1133C308.825 63.9386 309.552 64.5491 310.378 64.4769Z" fill="#0090D6"/>
<path fill-rule="evenodd" clip-rule="evenodd" d="M336.378 56.4769C337.203 56.4047 337.813 55.6771 337.741 54.8518C337.669 54.0266 336.942 53.4161 336.116 53.4883C335.291 53.5605 334.68 54.288 334.753 55.1133C334.825 55.9386 335.552 56.5491 336.378 56.4769Z" fill="#0090D6"/>
<path fill-rule="evenodd" clip-rule="evenodd" d="M385.133 191.335C386.784 191.19 388.005 189.735 387.861 188.085C387.716 186.434 386.261 185.213 384.611 185.358C382.96 185.502 381.739 186.957 381.883 188.608C382.028 190.258 383.483 191.479 385.133 191.335Z" fill="#0090D6"/>
<path fill-rule="evenodd" clip-rule="evenodd" d="M476.378 284.477C477.203 284.405 477.813 283.677 477.741 282.852C477.669 282.027 476.942 281.416 476.116 281.488C475.291 281.56 474.68 282.288 474.753 283.113C474.825 283.939 475.552 284.549 476.378 284.477Z" fill="#0090D6"/>
<defs>
<linearGradient id="paint0_linear" x1="371.178" y1="629.995" x2="757.079" y2="254.31" gradientUnits="userSpaceOnUse">
<stop stop-color="#FB2059"/>
<stop offset="0.602402" stop-color="#8138E9"/>
<stop offset="1" stop-color="#12CAF9"/>
</linearGradient>
<linearGradient id="paint1_linear" x1="364.5" y1="609.108" x2="730.505" y2="247.519" gradientUnits="userSpaceOnUse">
<stop stop-color="#FB2059"/>
<stop offset="0.602402" stop-color="#8138E9"/>
<stop offset="1" stop-color="#12CAF9"/>
</linearGradient>
<linearGradient id="paint2_linear" x1="356.502" y1="590.641" x2="703.452" y2="240.916" gradientUnits="userSpaceOnUse">
<stop stop-color="#FB2059"/>
<stop offset="0.602402" stop-color="#8138E9"/>
<stop offset="1" stop-color="#12CAF9"/>
</linearGradient>
<linearGradient id="paint3_linear" x1="345.789" y1="570.108" x2="672.846" y2="230.027" gradientUnits="userSpaceOnUse">
<stop stop-color="#FB2059"/>
<stop offset="0.602402" stop-color="#8138E9"/>
<stop offset="1" stop-color="#12CAF9"/>
</linearGradient>
<linearGradient id="paint4_linear" x1="333.25" y1="552.038" x2="640.867" y2="218.955" gradientUnits="userSpaceOnUse">
<stop stop-color="#FB2059"/>
<stop offset="0.602402" stop-color="#8138E9"/>
<stop offset="1" stop-color="#12CAF9"/>
</linearGradient>
<linearGradient id="paint5_linear" x1="321.62" y1="532.885" x2="609.192" y2="207.345" gradientUnits="userSpaceOnUse">
<stop stop-color="#FB2059"/>
<stop offset="0.602402" stop-color="#8138E9"/>
<stop offset="1" stop-color="#12CAF9"/>
</linearGradient>
<linearGradient id="paint6_linear" x1="308.994" y1="513.819" x2="575.867" y2="196.491" gradientUnits="userSpaceOnUse">
<stop stop-color="#FB2059"/>
<stop offset="0.602402" stop-color="#8138E9"/>
<stop offset="1" stop-color="#12CAF9"/>
</linearGradient>
<linearGradient id="paint7_linear" x1="297.39" y1="494.96" x2="543.812" y2="186.542" gradientUnits="userSpaceOnUse">
<stop stop-color="#FB2059"/>
<stop offset="0.602402" stop-color="#8138E9"/>
<stop offset="1" stop-color="#12CAF9"/>
</linearGradient>
<linearGradient id="paint8_linear" x1="284.99" y1="478.476" x2="511.299" y2="179.672" gradientUnits="userSpaceOnUse">
<stop stop-color="#FB2059"/>
<stop offset="0.602402" stop-color="#8138E9"/>
<stop offset="1" stop-color="#12CAF9"/>
</linearGradient>
<linearGradient id="paint9_linear" x1="273.524" y1="461.202" x2="480.157" y2="172.715" gradientUnits="userSpaceOnUse">
<stop stop-color="#FB2059"/>
<stop offset="0.602402" stop-color="#8138E9"/>
<stop offset="1" stop-color="#12CAF9"/>
</linearGradient>
<linearGradient id="paint10_linear" x1="261.263" y1="446.303" x2="448.76" y2="168.817" gradientUnits="userSpaceOnUse">
<stop stop-color="#FB2059"/>
<stop offset="0.602402" stop-color="#8138E9"/>
<stop offset="1" stop-color="#12CAF9"/>
</linearGradient>
<linearGradient id="paint11_linear" x1="249.962" y1="430.909" x2="420.048" y2="164.684" gradientUnits="userSpaceOnUse">
<stop stop-color="#FB2059"/>
<stop offset="0.602402" stop-color="#8138E9"/>
<stop offset="1" stop-color="#12CAF9"/>
</linearGradient>
<linearGradient id="paint12_linear" x1="238.003" y1="419.474" x2="393.66" y2="164.048" gradientUnits="userSpaceOnUse">
<stop stop-color="#FB2059"/>
<stop offset="0.602402" stop-color="#8138E9"/>
<stop offset="1" stop-color="#12CAF9"/>
</linearGradient>
<linearGradient id="paint13_linear" x1="227.093" y1="408.541" x2="370.372" y2="163.5" gradientUnits="userSpaceOnUse">
<stop stop-color="#FB2059"/>
<stop offset="0.602402" stop-color="#8138E9"/>
<stop offset="1" stop-color="#12CAF9"/>
</linearGradient>
<linearGradient id="paint14_linear" x1="216.32" y1="399.193" x2="349.356" y2="163.866" gradientUnits="userSpaceOnUse">
<stop stop-color="#FB2059"/>
<stop offset="0.602402" stop-color="#8138E9"/>
<stop offset="1" stop-color="#12CAF9"/>
</linearGradient>
<linearGradient id="paint15_linear" x1="204.578" y1="390.226" x2="328.442" y2="164.294" gradientUnits="userSpaceOnUse">
<stop stop-color="#FB2059"/>
<stop offset="0.602402" stop-color="#8138E9"/>
<stop offset="1" stop-color="#12CAF9"/>
</linearGradient>
<linearGradient id="paint16_linear" x1="193.945" y1="382.463" x2="309.73" y2="165.511" gradientUnits="userSpaceOnUse">
<stop stop-color="#FB2059"/>
<stop offset="0.602402" stop-color="#8138E9"/>
<stop offset="1" stop-color="#12CAF9"/>
</linearGradient>
</defs>
</svg>
