<svg width="104" height="281" viewBox="0 0 104 281" fill="none" xmlns="http://www.w3.org/2000/svg">
<mask id="mask0" mask-type="alpha" maskUnits="userSpaceOnUse" x="52" y="11" width="52" height="269">
<path fill-rule="evenodd" clip-rule="evenodd" d="M52.0503 11.2821H103.151V279.906H52.0503V11.2821Z" fill="white"/>
</mask>
<g mask="url(#mask0)">
<path fill-rule="evenodd" clip-rule="evenodd" d="M103.127 33.7602C103.127 34.0402 103.109 34.3202 103.076 34.5851C102.952 35.9038 102.756 38.5412 102.476 42.1812C102.353 44.0479 102.196 46.1735 102.037 48.5309C101.913 50.2531 101.79 52.0836 101.648 54.0165C101.525 55.564 101.42 57.1627 101.296 58.8187C101.176 60.4354 101.052 62.1064 100.911 63.8286C100.805 65.343 100.7 66.8905 100.559 68.4711C99.0472 88.2036 96.9366 112.383 94.3865 129.987C92.0111 147.133 93.1913 151.968 93.1913 151.968L92.3994 226.268L90.1835 276.686L90.027 279.907H67.0941C67.0941 279.907 67.0579 278.727 66.9887 276.686C66.513 263.201 64.7186 211.921 64.7186 210.004C64.7186 207.803 63.153 166.477 63.153 165.158C63.153 163.84 58.7934 104.489 58.7934 104.489L52.0764 49.5335L50.417 10.7448C49.6764 8.24584 66.273 11.0971 78.5659 11.0278C82.3294 11.0097 85.9659 10.4437 89.061 10.7448C94.2666 11.2175 97.2576 10.6442 97.2576 10.6442C97.2576 10.6442 102.916 24.475 103.145 32.4746C103.16 32.9141 103.145 33.3356 103.127 33.7602Z" fill="#2F3676"/>
<path fill-rule="evenodd" clip-rule="evenodd" d="M103.127 33.7602C103.127 34.0402 103.109 34.3202 103.076 34.5851C102.952 35.9038 102.756 38.5412 102.476 42.1812C102.353 44.0479 102.196 46.1735 102.037 48.5309C101.913 50.2531 101.79 52.0836 101.648 54.0165C101.525 55.564 101.42 57.1627 101.296 58.8187C101.176 60.4354 101.052 62.1064 100.911 63.8286C100.805 65.343 100.7 66.8905 100.559 68.4711C99.0472 88.2036 96.9366 112.383 94.3865 129.987C92.0111 147.133 93.1913 151.968 93.1913 151.968L92.3994 226.268L90.1835 276.686L90.027 279.907H67.0941C67.0941 279.907 67.0579 278.727 66.9887 276.686C66.513 263.201 64.7186 211.921 64.7186 210.004C64.7186 207.803 63.153 166.477 63.153 165.158C63.153 163.84 58.7934 104.489 58.7934 104.489L52.0764 49.5335L50.417 10.7448C49.6764 8.24584 66.273 11.0971 78.5659 11.0278C82.3294 11.0097 85.9659 10.4437 89.061 10.7448C94.2666 11.2175 97.2576 10.6442 97.2576 10.6442C97.2576 10.6442 102.916 24.475 103.145 32.4746C103.16 32.9141 103.145 33.3356 103.127 33.7602Z" style="mix-blend-mode:soft-light"/>
</g>
<path fill-rule="evenodd" clip-rule="evenodd" d="M94.9092 1.17328H52.0752V11.2834H97.4924L94.9092 1.17328Z" fill="#2F3676"/>
<path fill-rule="evenodd" clip-rule="evenodd" d="M94.9092 1.17328H52.0752V11.2834H97.4924L94.9092 1.17328Z" style="mix-blend-mode:soft-light"/>
<path d="M102.942 32.9022C102.942 32.9022 79.899 42.2242 77.7733 12.1638" stroke="#F7B500" stroke-width="1.26452" stroke-dasharray="2.53 2.53"/>
<path fill-rule="evenodd" clip-rule="evenodd" d="M78.8516 13.1841C79.6103 20.991 82.1423 30.505 87.2636 33.1243C87.7574 33.3712 88.2933 33.582 88.8473 33.7235C89.0701 33.7957 89.2898 33.8439 89.5126 33.88C93.7969 34.8134 99.5535 33.5308 103.145 32.474C103.082 30.1166 102.606 27.4792 101.974 24.914C100.424 18.742 97.9397 13.0426 97.9397 13.0426C97.9397 13.0426 88.9105 13.1299 78.8516 13.1841Z" fill="#2F3676"/>
<path fill-rule="evenodd" clip-rule="evenodd" d="M78.8516 13.1841C79.6103 20.991 82.1423 30.505 87.2636 33.1243C87.7574 33.3712 88.2933 33.582 88.8473 33.7235C89.0701 33.7957 89.2898 33.8439 89.5126 33.88C93.7969 34.8134 99.5535 33.5308 103.145 32.474C103.082 30.1166 102.606 27.4792 101.974 24.914C100.424 18.742 97.9397 13.0426 97.9397 13.0426C97.9397 13.0426 88.9105 13.1299 78.8516 13.1841Z" style="mix-blend-mode:soft-light"/>
<path fill-rule="evenodd" clip-rule="evenodd" d="M55.1525 44.3925C54.168 46.1519 53.1323 47.7796 52.0755 49.2849C51.8286 51.3737 51.5818 53.4404 51.3379 55.5291V11.2711H62.9263C62.9263 11.3463 62.9443 11.3996 62.9443 11.4749C63.0828 20.2312 61.8364 32.4843 55.1525 44.3925Z" fill="#20255F"/>
<path fill-rule="evenodd" clip-rule="evenodd" d="M51.3373 10.5437V55.5273C49.3502 71.8486 47.345 88.1669 45.3579 104.488C45.3579 104.488 40.9953 163.839 40.9953 165.158C40.9953 166.477 39.4297 207.805 39.4297 210.003C39.4297 211.921 37.6383 263.2 37.1626 276.685C37.0934 278.726 37.0573 279.907 37.0573 279.907H14.1244L13.9678 276.685L11.7519 226.267L10.9601 151.971C10.9601 151.971 12.1373 147.132 9.76479 129.986C7.21468 112.382 5.10414 88.203 3.59274 68.4706C3.45124 66.8899 3.34586 65.3424 3.24048 63.828C3.09898 62.1058 2.97554 60.4349 2.8521 58.8181C2.72866 57.1622 2.62328 55.5635 2.49984 54.0159C2.36134 52.083 2.2379 50.2525 2.11446 48.5303C1.95489 46.1729 1.79833 44.0473 1.67489 42.1807C1.39489 38.5407 1.19919 35.9033 1.07575 34.5845C1.03962 34.3196 1.02457 34.0396 1.02457 33.7596C1.00651 33.3351 0.988441 32.9166 1.00651 32.474C1.23532 24.4744 6.2121 13.0426 6.2121 13.0426C6.2121 13.0426 7.53081 12.4946 9.71059 11.8293C13.2452 10.7544 19.068 9.35142 25.2942 9.38454C32.222 9.42067 43.8444 10.5256 52.1119 10.5437" fill="#2F3676"/>
<path fill-rule="evenodd" clip-rule="evenodd" d="M51.3373 10.5437V55.5273C49.3502 71.8486 47.345 88.1669 45.3579 104.488C45.3579 104.488 40.9953 163.839 40.9953 165.158C40.9953 166.477 39.4297 207.805 39.4297 210.003C39.4297 211.921 37.6383 263.2 37.1626 276.685C37.0934 278.726 37.0573 279.907 37.0573 279.907H14.1244L13.9678 276.685L11.7519 226.267L10.9601 151.971C10.9601 151.971 12.1373 147.132 9.76479 129.986C7.21468 112.382 5.10414 88.203 3.59274 68.4706C3.45124 66.8899 3.34586 65.3424 3.24048 63.828C3.09898 62.1058 2.97554 60.4349 2.8521 58.8181C2.72866 57.1622 2.62328 55.5635 2.49984 54.0159C2.36134 52.083 2.2379 50.2525 2.11446 48.5303C1.95489 46.1729 1.79833 44.0473 1.67489 42.1807C1.39489 38.5407 1.19919 35.9033 1.07575 34.5845C1.03962 34.3196 1.02457 34.0396 1.02457 33.7596C1.00651 33.3351 0.988441 32.9166 1.00651 32.474C1.23532 24.4744 6.2121 13.0426 6.2121 13.0426C6.2121 13.0426 7.53081 12.4946 9.71059 11.8293C13.2452 10.7544 19.068 9.35142 25.2942 9.38454C32.222 9.42067 43.8444 10.5256 52.1119 10.5437" style="mix-blend-mode:soft-light"/>
<path fill-rule="evenodd" clip-rule="evenodd" d="M59.5491 1.17328H9.73618L6.73145 11.2834H59.5491V1.17328Z" fill="#2F3676"/>
<path fill-rule="evenodd" clip-rule="evenodd" d="M59.5491 1.17328H9.73618L6.73145 11.2834H59.5491V1.17328Z" style="mix-blend-mode:soft-light"/>
<path d="M6.73145 12.1638H97.4924" stroke="#F7B500" stroke-width="1.26452" stroke-dasharray="2.53 2.53"/>
<path fill-rule="evenodd" clip-rule="evenodd" d="M75.0073 16.119H78.566V-0.000610352H75.0073V16.119Z" fill="#20255F"/>
<path d="M0.999023 32.9022C0.999023 32.9022 24.0424 42.2242 26.1681 12.1638" stroke="#F7B500" stroke-width="1.26452" stroke-dasharray="2.53 2.53"/>
<path fill-rule="evenodd" clip-rule="evenodd" d="M25.2986 13.1841C24.5399 20.991 22.0079 30.505 16.8836 33.1243C16.3928 33.3712 15.8569 33.582 15.3029 33.7235C15.0802 33.7957 14.8604 33.8439 14.6376 33.88C10.3533 34.8134 4.59671 33.5308 1.00488 32.474C1.06811 30.1166 1.54381 27.4792 2.17607 24.914C3.72359 18.742 6.21047 13.0426 6.21047 13.0426C6.21047 13.0426 15.2397 13.1299 25.2986 13.1841Z" fill="#2F3676"/>
<path fill-rule="evenodd" clip-rule="evenodd" d="M25.2986 13.1841C24.5399 20.991 22.0079 30.505 16.8836 33.1243C16.3928 33.3712 15.8569 33.582 15.3029 33.7235C15.0802 33.7957 14.8604 33.8439 14.6376 33.88C10.3533 34.8134 4.59671 33.5308 1.00488 32.474C1.06811 30.1166 1.54381 27.4792 2.17607 24.914C3.72359 18.742 6.21047 13.0426 6.21047 13.0426C6.21047 13.0426 15.2397 13.1299 25.2986 13.1841Z" style="mix-blend-mode:soft-light"/>
<path fill-rule="evenodd" clip-rule="evenodd" d="M25.583 16.119H29.1417V-0.000610352H25.583V16.119Z" fill="#20255F"/>
<path fill-rule="evenodd" clip-rule="evenodd" d="M57.1499 7.1066C57.1499 9.06058 55.5662 10.6442 53.6153 10.6442C51.6613 10.6442 50.0776 9.06058 50.0776 7.1066C50.0776 5.15564 51.6613 3.56897 53.6153 3.56897C55.5662 3.56897 57.1499 5.15564 57.1499 7.1066Z" fill="#898989"/>
<path d="M13.9966 271.2H37.2188" stroke="#F7B500" stroke-width="1.26452" stroke-dasharray="2.53 2.53"/>
<path d="M67.0474 271.2H90.2695" stroke="#F7B500" stroke-width="1.26452" stroke-dasharray="2.53 2.53"/>
</svg>
