<svg width="459" height="428" viewBox="0 0 459 428" fill="none" xmlns="http://www.w3.org/2000/svg">
<g clip-path="url(#clip0)">
<path d="M343.345 21.47H335.125L335.035 24.77H337.105C339.485 24.77 341.33 25.35 342.64 26.51C343.95 27.66 344.605 29.19 344.605 31.1C344.605 33.32 343.855 35.09 342.355 36.41C340.865 37.73 338.955 38.39 336.625 38.39C335.075 38.39 333.64 38.125 332.32 37.595C331 37.065 329.905 36.355 329.035 35.465L331.45 31.895C332.03 32.445 332.795 32.925 333.745 33.335C334.695 33.745 335.645 33.95 336.595 33.95C337.555 33.95 338.29 33.725 338.8 33.275C339.31 32.825 339.565 32.21 339.565 31.43C339.565 29.85 338.33 29.06 335.86 29.06H330.67L330.94 17H343.345V21.47ZM352.198 16.4L349.798 26.15H345.883L347.068 16.4H352.198ZM368.855 20.81L360.575 38H354.785L363.065 21.515H353.66V17H368.855V20.81ZM383.573 16.4L381.173 26.15H377.258L378.443 16.4H383.573ZM376.403 16.4L374.003 26.15H370.088L371.273 16.4H376.403Z" fill="#1D252D"/>
<path d="M315.109 27.5H40" stroke="url(#paint0_linear)" stroke-width="2"/>
<rect x="226" y="17" width="73" height="20" rx="2" fill="#E0E4EE"/>
<path d="M238.766 26.334H242.3V23.1H244.304V31.5H242.3V28.188H238.766V31.5H236.762V23.1H238.766V26.334ZM253.264 31.5H246.832V23.1H253.24V24.906H248.836V26.358H252.982V28.158H248.836V29.694H253.264V31.5ZM257.641 31.5H255.637V23.1H257.641V31.5ZM264.286 22.944C265.59 22.944 266.632 23.35 267.412 24.162L265.984 25.566C265.524 25.074 264.926 24.828 264.19 24.828C263.514 24.828 262.96 25.058 262.528 25.518C262.096 25.978 261.88 26.572 261.88 27.3C261.88 28.076 262.102 28.69 262.546 29.142C262.994 29.594 263.544 29.82 264.196 29.82C265.376 29.82 266.084 29.314 266.32 28.302H264.274V26.754H268.306C268.334 26.962 268.348 27.172 268.348 27.384C268.348 28.036 268.236 28.634 268.012 29.178C267.792 29.722 267.494 30.172 267.118 30.528C266.742 30.884 266.308 31.16 265.816 31.356C265.328 31.552 264.812 31.65 264.268 31.65C263.648 31.65 263.064 31.546 262.516 31.338C261.972 31.126 261.5 30.834 261.1 30.462C260.704 30.086 260.39 29.626 260.158 29.082C259.93 28.534 259.816 27.94 259.816 27.3C259.816 26.46 260.006 25.71 260.386 25.05C260.766 24.386 261.296 23.87 261.976 23.502C262.656 23.13 263.426 22.944 264.286 22.944ZM272.532 26.334H276.066V23.1H278.07V31.5H276.066V28.188H272.532V31.5H270.528V23.1H272.532V26.334ZM286.964 24.96H284.48V31.5H282.476V24.96H279.986V23.1H286.964V24.96Z" fill="#737E85"/>
</g>
<path fill-rule="evenodd" clip-rule="evenodd" d="M201.761 50.9182C201.745 50.9114 201.729 50.9085 201.711 50.9065C201.173 50.796 200.632 50.6952 200.079 50.6209C199.608 50.5583 199.139 50.5133 198.672 50.4791C193.07 49.4217 189.556 47.0137 184.972 42.4792L177.176 33.7868C173.588 29.6836 169.987 27.1406 164.125 26.6486C152.478 25.6705 138.195 33.2537 136.471 46.0307C135.482 53.3576 138.012 60.3452 142.755 65.3012C140.778 68.0673 139.42 71.2461 138.896 74.7096C136.96 87.4865 147.02 99.2414 161.365 100.966C170.294 102.039 178.777 98.9705 184.377 93.4207C187.155 95.1989 190.352 96.4205 193.836 96.89C206.613 98.6144 218.368 89.654 220.092 76.8771C221.739 64.6704 213.631 53.4016 201.761 50.9182Z" fill="#1D252D"/>
<path fill-rule="evenodd" clip-rule="evenodd" d="M169.921 412.719L179.425 414.661L195.902 330.14L174.383 315.142L169.921 412.719Z" fill="#F4E4D4"/>
<path fill-rule="evenodd" clip-rule="evenodd" d="M171.239 422.805L192.8 427.214C193.238 425.073 192.383 422.876 190.616 421.591C188.893 420.339 184.092 417.542 181.49 416.047C180.446 415.447 179.876 414.271 180.049 413.08L180.255 411.67L170.312 409.637L168.475 418.621C168.083 420.54 169.32 422.413 171.239 422.805Z" fill="#1D252D"/>
<path fill-rule="evenodd" clip-rule="evenodd" d="M116.553 396.794L122.374 403.21L177.154 319.87L153.795 308.646L116.553 396.794Z" fill="#F4E4D4"/>
<path fill-rule="evenodd" clip-rule="evenodd" d="M111.101 404.261C110.214 405.549 110.121 407.224 110.858 408.602L119.69 425.098C121.795 424.509 123.358 422.746 123.694 420.586C124.021 418.482 121.766 409.006 121.908 406.008C121.965 404.805 123.034 401.891 123.034 401.891L116.915 395.816L111.101 404.261Z" fill="#1D252D"/>
<path fill-rule="evenodd" clip-rule="evenodd" d="M160.932 100.23L179.454 96.6875L170.793 53.248L153.778 62.8276L160.932 100.23Z" fill="#F4E4D4"/>
<path fill-rule="evenodd" clip-rule="evenodd" d="M174.666 72.6595L171.917 58.8734L155.317 61.9114L153.772 62.7809L158.097 85.3931C158.097 85.3931 161.982 84.703 166.471 81.253C170.96 77.803 174.666 72.6595 174.666 72.6595Z" fill="#E0CEBB"/>
<path fill-rule="evenodd" clip-rule="evenodd" d="M160.904 82.1831C168.718 79.7212 173.058 71.3917 170.596 63.5776L168.478 56.9187L161.59 35.2792L144.436 40.6832C138.281 42.6218 134.863 49.1829 136.802 55.3371L142.299 72.4911C144.76 80.3051 153.09 84.645 160.904 82.1831Z" fill="#F4E4D4"/>
<path fill-rule="evenodd" clip-rule="evenodd" d="M100.423 109.135L89.7768 112.924C88.2871 113.454 86.6498 112.675 86.1197 111.186L76.1831 83.2567C75.653 81.7681 76.4306 80.1307 77.9202 79.6016L88.5669 75.8134C90.0555 75.2832 91.6929 76.0608 92.223 77.5495L102.161 105.479C102.691 106.968 101.912 108.605 100.423 109.135Z" fill="#102257"/>
<path fill-rule="evenodd" clip-rule="evenodd" d="M237.482 65.1751C238.325 63.7559 238.831 62.1626 238.959 60.5164L239.116 54.0727C239.193 53.1093 238.233 50.5134 236.201 49.6145C233.751 48.5318 231.751 49.546 231.034 50.752L227.401 59.3584C226.102 57.6398 224.31 59.0649 224.177 59.7868L221.91 72.1588L230.101 77.1129L237.482 65.1751Z" fill="#F4E4D4"/>
<path fill-rule="evenodd" clip-rule="evenodd" d="M80.6058 112.173C79.5543 110.9 78.809 109.404 78.4285 107.797L77.2793 101.455C77.0563 100.515 77.604 97.8015 79.4731 96.6004C81.7277 95.1528 82.4172 96.1446 83.3112 97.2264L88.4727 106.585L89.6708 104.871C90.0005 104.255 90.4338 103.959 90.8759 103.862C91.7963 103.661 92.7577 104.329 92.9211 104.799L97.0692 116.672L89.7383 122.83L80.6058 112.173Z" fill="#F4E4D4"/>
<path fill-rule="evenodd" clip-rule="evenodd" d="M248.968 135.119L248.522 129.015L232.009 73.9593L221.909 72.3875L227.126 112.493L204.671 95.1538C200.966 92.0072 196.395 89.8789 191.461 89.112C191.297 89.0866 191.277 89.916 191.113 89.8945C188.853 89.5864 186.94 90.7425 184.571 91.0555L161.606 93.6123L149.338 93.7228C148.482 93.8353 149.499 93.6827 148.689 93.8744C140.868 95.7269 135.229 101.151 132.447 108.178C132.443 108.173 132.344 108.431 132.344 108.431C132.316 108.506 132.288 108.58 132.259 108.655L119.645 141.658L96.5321 115.133L89.1719 121.648L112.866 160.513L115.342 165.51C116.05 166.941 116.997 168.127 118.091 169.082L118.657 170.009L118.871 169.686C123.895 173.342 131.452 172.485 135.237 166.696L144.562 148.425L148.463 179.594L204.949 177.883L208.369 134.353L232.434 146.246C240.393 150.18 249.615 143.976 248.968 135.119Z" fill="#FD574C"/>
<path fill-rule="evenodd" clip-rule="evenodd" d="M195.901 330.141L150.909 315.142L140.313 246.812C137.179 226.606 139.118 205.94 145.953 186.669L148.463 179.594L204.949 177.882L210.599 190.157C217.935 206.091 219.821 223.996 215.964 241.109L195.901 330.141Z" fill="#1D252D"/>
<path fill-rule="evenodd" clip-rule="evenodd" d="M172.748 56.0713C169.756 56.8793 166.676 55.1089 165.869 52.1169L164.124 45.6594C162.542 40.0099 156.67 36.8291 151.073 38.5917C150.266 35.6006 163.07 31.7626 166.062 30.9547C169.054 30.1467 172.134 31.9171 172.942 34.9091L176.701 49.1914C177.51 52.1834 175.74 55.2634 172.748 56.0713Z" fill="#1D252D"/>
<path fill-rule="evenodd" clip-rule="evenodd" d="M184.106 89.0546L151.126 93.4131C150.517 93.4933 149.924 93.6009 149.338 93.7222C150.474 99.8431 159.834 104.303 171.007 103.834C182.762 103.341 192.065 97.5817 191.789 90.9698C191.761 90.3389 191.647 89.7237 191.455 89.1251C189.077 88.7661 186.61 88.7231 184.106 89.0546Z" fill="#F4E4D4"/>
<path fill-rule="evenodd" clip-rule="evenodd" d="M170.492 66.7722L169.768 66.8896L168.068 56.3397L170.791 55.9016C172.286 55.66 173.696 56.6782 173.936 58.1747L174.441 61.3066C174.86 63.9063 173.091 66.3536 170.492 66.7722Z" fill="#F4E4D4"/>
<rect x="246" y="391" width="107" height="20" rx="2" fill="#E0E4EE"/>
<path d="M258.766 400.334H262.3V397.1H264.304V405.5H262.3V402.188H258.766V405.5H256.762V397.1H258.766V400.334ZM269.124 397.274C269.676 397.054 270.272 396.944 270.912 396.944C271.552 396.944 272.146 397.054 272.694 397.274C273.246 397.494 273.714 397.796 274.098 398.18C274.486 398.56 274.79 399.02 275.01 399.56C275.23 400.1 275.34 400.68 275.34 401.3C275.34 401.92 275.23 402.5 275.01 403.04C274.79 403.58 274.486 404.042 274.098 404.426C273.714 404.806 273.246 405.106 272.694 405.326C272.146 405.546 271.552 405.656 270.912 405.656C270.272 405.656 269.676 405.546 269.124 405.326C268.576 405.106 268.108 404.806 267.72 404.426C267.336 404.042 267.034 403.58 266.814 403.04C266.594 402.5 266.484 401.92 266.484 401.3C266.484 400.68 266.594 400.1 266.814 399.56C267.034 399.02 267.336 398.56 267.72 398.18C268.108 397.796 268.576 397.494 269.124 397.274ZM272.592 399.542C272.156 399.09 271.596 398.864 270.912 398.864C270.228 398.864 269.666 399.09 269.226 399.542C268.79 399.994 268.572 400.58 268.572 401.3C268.572 402.02 268.79 402.606 269.226 403.058C269.666 403.51 270.228 403.736 270.912 403.736C271.596 403.736 272.156 403.51 272.592 403.058C273.032 402.606 273.252 402.02 273.252 401.3C273.252 400.58 273.032 399.994 272.592 399.542ZM284.784 402.11C284.784 403.246 284.46 404.122 283.812 404.738C283.164 405.35 282.262 405.656 281.106 405.656C279.95 405.656 279.048 405.35 278.4 404.738C277.756 404.126 277.434 403.25 277.434 402.11V397.1H279.444V402.032C279.444 402.592 279.592 403.016 279.888 403.304C280.184 403.588 280.59 403.73 281.106 403.73C281.626 403.73 282.034 403.588 282.33 403.304C282.626 403.016 282.774 402.592 282.774 402.032V397.1H284.784V402.11ZM290.885 397.1C291.913 397.1 292.699 397.338 293.243 397.814C293.791 398.29 294.065 398.948 294.065 399.788C294.065 400.456 293.861 401.012 293.453 401.456C293.045 401.896 292.467 402.176 291.719 402.296L294.131 405.5H291.743L289.529 402.356H289.235V405.5H287.231V397.1H290.885ZM289.235 398.918V400.67H290.861C291.233 400.67 291.519 400.596 291.719 400.448C291.923 400.3 292.025 400.08 292.025 399.788C292.025 399.496 291.923 399.278 291.719 399.134C291.515 398.99 291.229 398.918 290.861 398.918H289.235ZM300.392 396.944C301.696 396.944 302.738 397.35 303.518 398.162L302.09 399.566C301.63 399.074 301.032 398.828 300.296 398.828C299.62 398.828 299.066 399.058 298.634 399.518C298.202 399.978 297.986 400.572 297.986 401.3C297.986 402.076 298.208 402.69 298.652 403.142C299.1 403.594 299.65 403.82 300.302 403.82C301.482 403.82 302.19 403.314 302.426 402.302H300.38V400.754H304.412C304.44 400.962 304.454 401.172 304.454 401.384C304.454 402.036 304.342 402.634 304.118 403.178C303.898 403.722 303.6 404.172 303.224 404.528C302.848 404.884 302.414 405.16 301.922 405.356C301.434 405.552 300.918 405.65 300.374 405.65C299.754 405.65 299.17 405.546 298.622 405.338C298.078 405.126 297.606 404.834 297.206 404.462C296.81 404.086 296.496 403.626 296.264 403.082C296.036 402.534 295.922 401.94 295.922 401.3C295.922 400.46 296.112 399.71 296.492 399.05C296.872 398.386 297.402 397.87 298.082 397.502C298.762 397.13 299.532 396.944 300.392 396.944ZM312.861 405.5H306.633V397.1H308.637V403.64H312.861V405.5ZM323.035 405.5H320.899L320.263 403.736H316.927L316.291 405.5H314.197L317.419 397.1H319.813L323.035 405.5ZM317.575 401.924H319.615L318.595 399.092L317.575 401.924ZM330.768 399.482C329.96 399.01 329.158 398.774 328.362 398.774C327.966 398.774 327.646 398.84 327.402 398.972C327.162 399.104 327.042 399.29 327.042 399.53C327.042 399.614 327.06 399.69 327.096 399.758C327.132 399.826 327.196 399.888 327.288 399.944C327.384 399.996 327.468 400.04 327.54 400.076C327.616 400.108 327.74 400.144 327.912 400.184C328.088 400.22 328.22 400.246 328.308 400.262C328.396 400.278 328.55 400.306 328.77 400.346L329.118 400.406C329.966 400.554 330.62 400.828 331.08 401.228C331.544 401.628 331.776 402.16 331.776 402.824C331.776 403.212 331.71 403.566 331.578 403.886C331.45 404.202 331.276 404.468 331.056 404.684C330.836 404.9 330.574 405.082 330.27 405.23C329.97 405.378 329.65 405.486 329.31 405.554C328.974 405.622 328.622 405.656 328.254 405.656C327.542 405.656 326.86 405.564 326.208 405.38C325.56 405.196 325.01 404.932 324.558 404.588L325.56 402.956C326.428 403.544 327.332 403.838 328.272 403.838C328.664 403.838 328.984 403.772 329.232 403.64C329.48 403.504 329.604 403.31 329.604 403.058C329.604 402.958 329.58 402.87 329.532 402.794C329.484 402.718 329.42 402.654 329.34 402.602C329.26 402.55 329.144 402.502 328.992 402.458C328.844 402.414 328.694 402.378 328.542 402.35C328.39 402.318 328.19 402.282 327.942 402.242L327.522 402.176C326.638 402.036 325.974 401.76 325.53 401.348C325.086 400.932 324.872 400.354 324.888 399.614C324.904 398.806 325.224 398.16 325.848 397.676C326.472 397.192 327.28 396.95 328.272 396.95C328.88 396.95 329.444 397.014 329.964 397.142C330.488 397.27 331.054 397.502 331.662 397.838L330.768 399.482ZM339.607 399.482C338.799 399.01 337.997 398.774 337.201 398.774C336.805 398.774 336.485 398.84 336.241 398.972C336.001 399.104 335.881 399.29 335.881 399.53C335.881 399.614 335.899 399.69 335.935 399.758C335.971 399.826 336.035 399.888 336.127 399.944C336.223 399.996 336.307 400.04 336.379 400.076C336.455 400.108 336.579 400.144 336.751 400.184C336.927 400.22 337.059 400.246 337.147 400.262C337.235 400.278 337.389 400.306 337.609 400.346L337.957 400.406C338.805 400.554 339.459 400.828 339.919 401.228C340.383 401.628 340.615 402.16 340.615 402.824C340.615 403.212 340.549 403.566 340.417 403.886C340.289 404.202 340.115 404.468 339.895 404.684C339.675 404.9 339.413 405.082 339.109 405.23C338.809 405.378 338.489 405.486 338.149 405.554C337.813 405.622 337.461 405.656 337.093 405.656C336.381 405.656 335.699 405.564 335.047 405.38C334.399 405.196 333.849 404.932 333.397 404.588L334.399 402.956C335.267 403.544 336.171 403.838 337.111 403.838C337.503 403.838 337.823 403.772 338.071 403.64C338.319 403.504 338.443 403.31 338.443 403.058C338.443 402.958 338.419 402.87 338.371 402.794C338.323 402.718 338.259 402.654 338.179 402.602C338.099 402.55 337.983 402.502 337.831 402.458C337.683 402.414 337.533 402.378 337.381 402.35C337.229 402.318 337.029 402.282 336.781 402.242L336.361 402.176C335.477 402.036 334.813 401.76 334.369 401.348C333.925 400.932 333.711 400.354 333.727 399.614C333.743 398.806 334.063 398.16 334.687 397.676C335.311 397.192 336.119 396.95 337.111 396.95C337.719 396.95 338.283 397.014 338.803 397.142C339.327 397.27 339.893 397.502 340.501 397.838L339.607 399.482Z" fill="#737E85"/>
<path d="M266.075 418C266.915 418 267.567 418.162 268.03 418.485C268.497 418.805 268.73 419.29 268.73 419.94C268.73 420.283 268.635 420.59 268.445 420.86C268.255 421.13 268.012 421.318 267.715 421.425C268.048 421.538 268.325 421.737 268.545 422.02C268.768 422.303 268.88 422.628 268.88 422.995C268.88 423.658 268.653 424.158 268.2 424.495C267.747 424.832 267.095 425 266.245 425H263.215V418H266.075ZM264.61 422.09V423.77L266.175 423.775C266.592 423.775 266.905 423.713 267.115 423.59C267.325 423.463 267.43 423.242 267.43 422.925C267.43 422.612 267.325 422.395 267.115 422.275C266.905 422.152 266.592 422.09 266.175 422.09H264.61ZM264.61 419.23V420.865H266.04C266.433 420.865 266.737 420.807 266.95 420.69C267.167 420.57 267.275 420.353 267.275 420.04C267.275 419.883 267.243 419.75 267.18 419.64C267.12 419.53 267.03 419.447 266.91 419.39C266.793 419.33 266.665 419.288 266.525 419.265C266.385 419.242 266.222 419.23 266.035 419.23H264.61ZM274.312 417.87C275.019 417.87 275.652 418.027 276.212 418.34C276.775 418.65 277.212 419.082 277.522 419.635C277.835 420.188 277.992 420.81 277.992 421.5C277.992 422.19 277.835 422.812 277.522 423.365C277.212 423.918 276.775 424.352 276.212 424.665C275.652 424.975 275.019 425.13 274.312 425.13C273.779 425.13 273.284 425.038 272.827 424.855C272.37 424.672 271.982 424.422 271.662 424.105C271.342 423.785 271.09 423.4 270.907 422.95C270.727 422.5 270.637 422.017 270.637 421.5C270.637 420.983 270.727 420.5 270.907 420.05C271.09 419.6 271.342 419.217 271.662 418.9C271.982 418.58 272.37 418.328 272.827 418.145C273.284 417.962 273.779 417.87 274.312 417.87ZM274.312 419.21C273.665 419.21 273.134 419.423 272.717 419.85C272.3 420.273 272.092 420.823 272.092 421.5C272.092 422.177 272.3 422.728 272.717 423.155C273.134 423.578 273.665 423.79 274.312 423.79C274.962 423.79 275.494 423.578 275.907 423.155C276.324 422.728 276.532 422.177 276.532 421.5C276.532 420.823 276.324 420.273 275.907 419.85C275.494 419.423 274.962 419.21 274.312 419.21ZM282.962 418C284.055 418 284.934 418.32 285.597 418.96C286.264 419.6 286.597 420.447 286.597 421.5C286.597 422.553 286.264 423.4 285.597 424.04C284.934 424.68 284.055 425 282.962 425H280.077V418H282.962ZM281.472 419.305V423.695H282.947C283.66 423.695 284.204 423.495 284.577 423.095C284.95 422.692 285.137 422.16 285.137 421.5C285.137 420.833 284.95 420.302 284.577 419.905C284.204 419.505 283.66 419.305 282.947 419.305H281.472ZM291.491 422.24V425H290.096V422.235L287.401 418H289.041L290.801 420.97L292.561 418H294.151L291.491 422.24ZM303.645 419.765C302.999 419.368 302.337 419.17 301.66 419.17C301.264 419.17 300.94 419.245 300.69 419.395C300.444 419.545 300.32 419.75 300.32 420.01C300.32 420.133 300.354 420.24 300.42 420.33C300.487 420.42 300.59 420.497 300.73 420.56C300.874 420.62 301.022 420.67 301.175 420.71C301.332 420.747 301.529 420.783 301.765 420.82L302.16 420.885C303.647 421.122 304.39 421.775 304.39 422.845C304.39 423.218 304.312 423.553 304.155 423.85C303.999 424.143 303.787 424.382 303.52 424.565C303.254 424.748 302.95 424.888 302.61 424.985C302.27 425.078 301.909 425.125 301.525 425.125C300.975 425.125 300.437 425.047 299.91 424.89C299.387 424.73 298.942 424.503 298.575 424.21L299.3 423.085C299.577 423.302 299.91 423.482 300.3 423.625C300.694 423.768 301.104 423.84 301.53 423.84C301.934 423.84 302.264 423.765 302.52 423.615C302.777 423.465 302.905 423.258 302.905 422.995C302.905 422.765 302.789 422.593 302.555 422.48C302.325 422.363 301.947 422.262 301.42 422.175L300.975 422.105C300.652 422.052 300.365 421.978 300.115 421.885C299.869 421.788 299.647 421.663 299.45 421.51C299.254 421.353 299.102 421.157 298.995 420.92C298.892 420.683 298.84 420.41 298.84 420.1C298.84 419.747 298.915 419.427 299.065 419.14C299.215 418.853 299.419 418.62 299.675 418.44C299.935 418.26 300.232 418.122 300.565 418.025C300.899 417.928 301.254 417.88 301.63 417.88C302.124 417.88 302.582 417.94 303.005 418.06C303.432 418.177 303.865 418.365 304.305 418.625L303.645 419.765ZM307.891 420.82H311.261V418H312.656V425H311.261V422.12H307.891V425H306.496V418H307.891V420.82ZM321.543 425H320.053L319.443 423.37H316.458L315.848 425H314.393L317.118 418H318.818L321.543 425ZM316.938 422.085H318.963L317.953 419.38L316.938 422.085ZM324.675 422.44V425H323.28V418H326.135C326.958 418 327.59 418.198 328.03 418.595C328.473 418.992 328.695 419.535 328.695 420.225C328.695 420.908 328.473 421.448 328.03 421.845C327.59 422.242 326.962 422.44 326.145 422.44H324.675ZM324.675 419.285V421.165H326.11C326.88 421.165 327.265 420.852 327.265 420.225C327.265 419.598 326.88 419.285 326.11 419.285H324.675ZM335.945 425H330.715V418H335.905V419.28H332.11V420.83H335.73V422.11H332.11V423.72H335.945V425Z" fill="#737E85"/>
<g clip-path="url(#clip1)">
<path d="M178 216.5H320.219" stroke="url(#paint1_linear)" stroke-width="2"/>
<path d="M179 221.4C181.761 221.4 184 219.161 184 216.4C184 213.639 181.761 211.4 179 211.4C176.239 211.4 174 213.639 174 216.4C174 219.161 176.239 221.4 179 221.4Z" fill="white" stroke="#1D252D" stroke-width="2"/>
<rect x="246" y="206" width="53" height="20" rx="2" fill="#E0E4EE"/>
<path d="M258.766 215.334H262.3V212.1H264.304V220.5H262.3V217.188H258.766V220.5H256.762V212.1H258.766V215.334ZM268.836 220.5H266.832V212.1H268.836V220.5ZM273.364 217.662V220.5H271.36V212.1H274.96C275.98 212.1 276.764 212.352 277.312 212.856C277.86 213.36 278.134 214.042 278.134 214.902C278.134 215.746 277.86 216.418 277.312 216.918C276.764 217.414 275.986 217.662 274.978 217.662H273.364ZM273.364 213.918V215.874H274.93C275.298 215.874 275.584 215.792 275.788 215.628C275.992 215.46 276.094 215.218 276.094 214.902C276.094 214.582 275.992 214.338 275.788 214.17C275.584 214.002 275.298 213.918 274.93 213.918H273.364ZM286.162 214.482C285.354 214.01 284.552 213.774 283.756 213.774C283.36 213.774 283.04 213.84 282.796 213.972C282.556 214.104 282.436 214.29 282.436 214.53C282.436 214.614 282.454 214.69 282.49 214.758C282.526 214.826 282.59 214.888 282.682 214.944C282.778 214.996 282.862 215.04 282.934 215.076C283.01 215.108 283.134 215.144 283.306 215.184C283.482 215.22 283.614 215.246 283.702 215.262C283.79 215.278 283.944 215.306 284.164 215.346L284.512 215.406C285.36 215.554 286.014 215.828 286.474 216.228C286.938 216.628 287.17 217.16 287.17 217.824C287.17 218.212 287.104 218.566 286.972 218.886C286.844 219.202 286.67 219.468 286.45 219.684C286.23 219.9 285.968 220.082 285.664 220.23C285.364 220.378 285.044 220.486 284.704 220.554C284.368 220.622 284.016 220.656 283.648 220.656C282.936 220.656 282.254 220.564 281.602 220.38C280.954 220.196 280.404 219.932 279.952 219.588L280.954 217.956C281.822 218.544 282.726 218.838 283.666 218.838C284.058 218.838 284.378 218.772 284.626 218.64C284.874 218.504 284.998 218.31 284.998 218.058C284.998 217.958 284.974 217.87 284.926 217.794C284.878 217.718 284.814 217.654 284.734 217.602C284.654 217.55 284.538 217.502 284.386 217.458C284.238 217.414 284.088 217.378 283.936 217.35C283.784 217.318 283.584 217.282 283.336 217.242L282.916 217.176C282.032 217.036 281.368 216.76 280.924 216.348C280.48 215.932 280.266 215.354 280.282 214.614C280.298 213.806 280.618 213.16 281.242 212.676C281.866 212.192 282.674 211.95 283.666 211.95C284.274 211.95 284.838 212.014 285.358 212.142C285.882 212.27 286.448 212.502 287.056 212.838L286.162 214.482Z" fill="#737E85"/>
<path d="M338.325 205.625C340.615 205.625 342.48 206.18 343.92 207.29C345.36 208.4 346.08 209.865 346.08 211.685C346.08 212.775 345.815 213.725 345.285 214.535C344.765 215.335 344.015 215.965 343.035 216.425C344.155 216.885 345.015 217.52 345.615 218.33C346.215 219.13 346.515 220.08 346.515 221.18C346.515 222 346.365 222.755 346.065 223.445C345.775 224.125 345.375 224.705 344.865 225.185C344.365 225.665 343.77 226.07 343.08 226.4C342.39 226.73 341.655 226.975 340.875 227.135C340.095 227.295 339.285 227.375 338.445 227.375C335.195 227.375 332.71 226.35 330.99 224.3L333.765 221.135C334.995 222.395 336.475 223.025 338.205 223.025C339.155 223.025 339.935 222.835 340.545 222.455C341.155 222.065 341.46 221.505 341.46 220.775C341.46 220.065 341.11 219.515 340.41 219.125C339.72 218.735 338.855 218.54 337.815 218.54H335.445V214.265H337.845C338.785 214.265 339.555 214.075 340.155 213.695C340.765 213.315 341.07 212.78 341.07 212.09C341.07 211.42 340.795 210.9 340.245 210.53C339.705 210.16 338.995 209.975 338.115 209.975C336.355 209.975 334.94 210.64 333.87 211.97L331.08 208.805C332.87 206.685 335.285 205.625 338.325 205.625ZM363.513 209.81L355.233 227H349.443L357.723 210.515H348.318V206H363.513V209.81ZM378.232 205.4L375.832 215.15H371.917L373.102 205.4H378.232ZM371.062 205.4L368.662 215.15H364.747L365.932 205.4H371.062Z" fill="#1D252D"/>
</g>
<g clip-path="url(#clip2)">
<path d="M178 121.5H400.219" stroke="url(#paint2_linear)" stroke-width="2"/>
<path d="M179 126.4C181.761 126.4 184 124.161 184 121.4C184 118.639 181.761 116.4 179 116.4C176.239 116.4 174 118.639 174 121.4C174 124.161 176.239 126.4 179 126.4Z" fill="white" stroke="#FD574C" stroke-width="2"/>
<rect x="286" y="111" width="67" height="20" rx="2" fill="#E0E4EE"/>
<path d="M300.836 116.944C301.644 116.944 302.378 117.122 303.038 117.478C303.698 117.834 304.208 118.33 304.568 118.966L302.81 119.974C302.358 119.234 301.692 118.864 300.812 118.864C300.144 118.864 299.592 119.092 299.156 119.548C298.72 120 298.502 120.584 298.502 121.3C298.502 122.052 298.724 122.646 299.168 123.082C299.616 123.518 300.166 123.736 300.818 123.736C301.678 123.736 302.354 123.368 302.846 122.632L304.49 123.796C304.102 124.38 303.592 124.836 302.96 125.164C302.332 125.492 301.624 125.656 300.836 125.656C300.196 125.656 299.602 125.548 299.054 125.332C298.506 125.116 298.038 124.818 297.65 124.438C297.266 124.054 296.964 123.592 296.744 123.052C296.524 122.512 296.414 121.928 296.414 121.3C296.414 120.672 296.524 120.088 296.744 119.548C296.964 119.008 297.266 118.548 297.65 118.168C298.038 117.784 298.506 117.484 299.054 117.268C299.602 117.052 300.196 116.944 300.836 116.944ZM308.696 120.334H312.23V117.1H314.234V125.5H312.23V122.188H308.696V125.5H306.692V117.1H308.696V120.334ZM323.194 125.5H316.762V117.1H323.17V118.906H318.766V120.358H322.912V122.158H318.766V123.694H323.194V125.5ZM331.424 119.482C330.616 119.01 329.814 118.774 329.018 118.774C328.622 118.774 328.302 118.84 328.058 118.972C327.818 119.104 327.698 119.29 327.698 119.53C327.698 119.614 327.716 119.69 327.752 119.758C327.788 119.826 327.852 119.888 327.944 119.944C328.04 119.996 328.124 120.04 328.196 120.076C328.272 120.108 328.396 120.144 328.568 120.184C328.744 120.22 328.876 120.246 328.964 120.262C329.052 120.278 329.206 120.306 329.426 120.346L329.774 120.406C330.622 120.554 331.276 120.828 331.736 121.228C332.2 121.628 332.432 122.16 332.432 122.824C332.432 123.212 332.366 123.566 332.234 123.886C332.106 124.202 331.932 124.468 331.712 124.684C331.492 124.9 331.23 125.082 330.926 125.23C330.626 125.378 330.306 125.486 329.966 125.554C329.63 125.622 329.278 125.656 328.91 125.656C328.198 125.656 327.516 125.564 326.864 125.38C326.216 125.196 325.666 124.932 325.214 124.588L326.216 122.956C327.084 123.544 327.988 123.838 328.928 123.838C329.32 123.838 329.64 123.772 329.888 123.64C330.136 123.504 330.26 123.31 330.26 123.058C330.26 122.958 330.236 122.87 330.188 122.794C330.14 122.718 330.076 122.654 329.996 122.602C329.916 122.55 329.8 122.502 329.648 122.458C329.5 122.414 329.35 122.378 329.198 122.35C329.046 122.318 328.846 122.282 328.598 122.242L328.178 122.176C327.294 122.036 326.63 121.76 326.186 121.348C325.742 120.932 325.528 120.354 325.544 119.614C325.56 118.806 325.88 118.16 326.504 117.676C327.128 117.192 327.936 116.95 328.928 116.95C329.536 116.95 330.1 117.014 330.62 117.142C331.144 117.27 331.71 117.502 332.318 117.838L331.424 119.482ZM340.937 118.96H338.453V125.5H336.449V118.96H333.959V117.1H340.937V118.96Z" fill="#737E85"/>
<path d="M418.325 110.625C420.615 110.625 422.48 111.18 423.92 112.29C425.36 113.4 426.08 114.865 426.08 116.685C426.08 117.775 425.815 118.725 425.285 119.535C424.765 120.335 424.015 120.965 423.035 121.425C424.155 121.885 425.015 122.52 425.615 123.33C426.215 124.13 426.515 125.08 426.515 126.18C426.515 127 426.365 127.755 426.065 128.445C425.775 129.125 425.375 129.705 424.865 130.185C424.365 130.665 423.77 131.07 423.08 131.4C422.39 131.73 421.655 131.975 420.875 132.135C420.095 132.295 419.285 132.375 418.445 132.375C415.195 132.375 412.71 131.35 410.99 129.3L413.765 126.135C414.995 127.395 416.475 128.025 418.205 128.025C419.155 128.025 419.935 127.835 420.545 127.455C421.155 127.065 421.46 126.505 421.46 125.775C421.46 125.065 421.11 124.515 420.41 124.125C419.72 123.735 418.855 123.54 417.815 123.54H415.445V119.265H417.845C418.785 119.265 419.555 119.075 420.155 118.695C420.765 118.315 421.07 117.78 421.07 117.09C421.07 116.42 420.795 115.9 420.245 115.53C419.705 115.16 418.995 114.975 418.115 114.975C416.355 114.975 414.94 115.64 413.87 116.97L411.08 113.805C412.87 111.685 415.285 110.625 418.325 110.625ZM427.973 114.315C429.993 111.855 432.548 110.625 435.638 110.625C437.848 110.625 439.613 111.245 440.933 112.485C442.263 113.725 442.928 115.365 442.928 117.405C442.928 118.615 442.688 119.68 442.208 120.6C441.728 121.51 440.918 122.535 439.778 123.675L435.968 127.485H443.393V132H429.053V128.19L436.328 121.065C437.358 120.055 437.873 119 437.873 117.9C437.873 117.12 437.618 116.49 437.108 116.01C436.598 115.52 435.938 115.275 435.128 115.275C434.258 115.275 433.493 115.48 432.833 115.89C432.183 116.3 431.523 116.875 430.853 117.615L427.973 114.315ZM458.232 110.4L455.832 120.15H451.917L453.102 110.4H458.232ZM451.062 110.4L448.662 120.15H444.747L445.932 110.4H451.062Z" fill="#1D252D"/>
</g>
<g clip-path="url(#clip3)">
<path d="M178 169.5H360.219" stroke="url(#paint3_linear)" stroke-width="2"/>
<path d="M179 174.4C181.761 174.4 184 172.161 184 169.4C184 166.639 181.761 164.4 179 164.4C176.239 164.4 174 166.639 174 169.4C174 172.161 176.239 174.4 179 174.4Z" fill="white" stroke="#FD574C" stroke-width="2"/>
<rect x="266" y="159" width="66" height="20" rx="2" fill="#E0E4EE"/>
<path d="M286.506 173.5H284.118L282.534 168.082L280.95 173.5H278.562L276.114 165.1H278.184L279.786 171.118L281.466 165.1H283.632L285.312 171.13L286.914 165.1H288.954L286.506 173.5ZM298.203 173.5H296.067L295.431 171.736H292.095L291.459 173.5H289.365L292.587 165.1H294.981L298.203 173.5ZM292.743 169.924H294.783L293.763 167.092L292.743 169.924ZM302.036 173.5H300.032V165.1H302.036V173.5ZM310.463 167.482C309.655 167.01 308.853 166.774 308.057 166.774C307.661 166.774 307.341 166.84 307.097 166.972C306.857 167.104 306.737 167.29 306.737 167.53C306.737 167.614 306.755 167.69 306.791 167.758C306.827 167.826 306.891 167.888 306.983 167.944C307.079 167.996 307.163 168.04 307.235 168.076C307.311 168.108 307.435 168.144 307.607 168.184C307.783 168.22 307.915 168.246 308.003 168.262C308.091 168.278 308.245 168.306 308.465 168.346L308.813 168.406C309.661 168.554 310.315 168.828 310.775 169.228C311.239 169.628 311.471 170.16 311.471 170.824C311.471 171.212 311.405 171.566 311.273 171.886C311.145 172.202 310.971 172.468 310.751 172.684C310.531 172.9 310.269 173.082 309.965 173.23C309.665 173.378 309.345 173.486 309.005 173.554C308.669 173.622 308.317 173.656 307.949 173.656C307.237 173.656 306.555 173.564 305.903 173.38C305.255 173.196 304.705 172.932 304.253 172.588L305.255 170.956C306.123 171.544 307.027 171.838 307.967 171.838C308.359 171.838 308.679 171.772 308.927 171.64C309.175 171.504 309.299 171.31 309.299 171.058C309.299 170.958 309.275 170.87 309.227 170.794C309.179 170.718 309.115 170.654 309.035 170.602C308.955 170.55 308.839 170.502 308.687 170.458C308.539 170.414 308.389 170.378 308.237 170.35C308.085 170.318 307.885 170.282 307.637 170.242L307.217 170.176C306.333 170.036 305.669 169.76 305.225 169.348C304.781 168.932 304.567 168.354 304.583 167.614C304.599 166.806 304.919 166.16 305.543 165.676C306.167 165.192 306.975 164.95 307.967 164.95C308.575 164.95 309.139 165.014 309.659 165.142C310.183 165.27 310.749 165.502 311.357 165.838L310.463 167.482ZM319.976 166.96H317.492V173.5H315.488V166.96H312.998V165.1H319.976V166.96Z" fill="#737E85"/>
<path d="M371.11 162.315C373.13 159.855 375.685 158.625 378.775 158.625C380.985 158.625 382.75 159.245 384.07 160.485C385.4 161.725 386.065 163.365 386.065 165.405C386.065 166.615 385.825 167.68 385.345 168.6C384.865 169.51 384.055 170.535 382.915 171.675L379.105 175.485H386.53V180H372.19V176.19L379.465 169.065C380.495 168.055 381.01 167 381.01 165.9C381.01 165.12 380.755 164.49 380.245 164.01C379.735 163.52 379.075 163.275 378.265 163.275C377.395 163.275 376.63 163.48 375.97 163.89C375.32 164.3 374.66 164.875 373.99 165.615L371.11 162.315ZM401.623 171.9H404.263V176.415H401.623V180H396.763V176.415H387.508V173.01L394.363 159.015H399.703L393.313 171.9H396.763V169.74L398.383 166.38H401.623V171.9ZM418.232 158.4L415.832 168.15H411.917L413.102 158.4H418.232ZM411.062 158.4L408.662 168.15H404.747L405.932 158.4H411.062Z" fill="#1D252D"/>
</g>
<path opacity="0.5" fill-rule="evenodd" clip-rule="evenodd" d="M40 26H0V428H40V26Z" fill="url(#paint4_linear)"/>
<path d="M40 426H21C20.4477 426 20 426.448 20 427C20 427.552 20.4477 428 21 428H40V426Z" fill="#455A64"/>
<path opacity="0.5" d="M40 416H31C30.4477 416 30 416.448 30 417C30 417.552 30.4477 418 31 418H40V416Z" fill="#455A64"/>
<path opacity="0.5" d="M40 406H31C30.4477 406 30 406.448 30 407C30 407.552 30.4477 408 31 408H40V406Z" fill="#455A64"/>
<path opacity="0.5" d="M40 396H31C30.4477 396 30 396.448 30 397C30 397.552 30.4477 398 31 398H40V396Z" fill="#455A64"/>
<path opacity="0.5" d="M40 386H31C30.4477 386 30 386.448 30 387C30 387.552 30.4477 388 31 388H40V386Z" fill="#455A64"/>
<path d="M40 376H21C20.4477 376 20 376.448 20 377C20 377.552 20.4477 378 21 378H40V376Z" fill="#455A64"/>
<path d="M40 376H21C20.4477 376 20 376.448 20 377C20 377.552 20.4477 378 21 378H40V376Z" fill="#455A64"/>
<path opacity="0.5" d="M40 366H31C30.4477 366 30 366.448 30 367C30 367.552 30.4477 368 31 368H40V366Z" fill="#455A64"/>
<path opacity="0.5" d="M40 356H31C30.4477 356 30 356.448 30 357C30 357.552 30.4477 358 31 358H40V356Z" fill="#455A64"/>
<path opacity="0.5" d="M40 346H31C30.4477 346 30 346.448 30 347C30 347.552 30.4477 348 31 348H40V346Z" fill="#455A64"/>
<path opacity="0.5" d="M40 336H31C30.4477 336 30 336.448 30 337C30 337.552 30.4477 338 31 338H40V336Z" fill="#455A64"/>
<path d="M40 326H21C20.4477 326 20 326.448 20 327C20 327.552 20.4477 328 21 328H40V326Z" fill="#455A64"/>
<path d="M40 326H21C20.4477 326 20 326.448 20 327C20 327.552 20.4477 328 21 328H40V326Z" fill="#455A64"/>
<path opacity="0.5" d="M40 316H31C30.4477 316 30 316.448 30 317C30 317.552 30.4477 318 31 318H40V316Z" fill="#455A64"/>
<path opacity="0.5" d="M40 306H31C30.4477 306 30 306.448 30 307C30 307.552 30.4477 308 31 308H40V306Z" fill="#455A64"/>
<path opacity="0.5" d="M40 296H31C30.4477 296 30 296.448 30 297C30 297.552 30.4477 298 31 298H40V296Z" fill="#455A64"/>
<path opacity="0.5" d="M40 286H31C30.4477 286 30 286.448 30 287C30 287.552 30.4477 288 31 288H40V286Z" fill="#455A64"/>
<path d="M40 276H21C20.4477 276 20 276.448 20 277C20 277.552 20.4477 278 21 278H40V276Z" fill="#455A64"/>
<path d="M40 276H21C20.4477 276 20 276.448 20 277C20 277.552 20.4477 278 21 278H40V276Z" fill="#455A64"/>
<path opacity="0.5" d="M40 266H31C30.4477 266 30 266.448 30 267C30 267.552 30.4477 268 31 268H40V266Z" fill="#455A64"/>
<path opacity="0.5" d="M40 256H31C30.4477 256 30 256.448 30 257C30 257.552 30.4477 258 31 258H40V256Z" fill="#455A64"/>
<path opacity="0.5" d="M40 246H31C30.4477 246 30 246.448 30 247C30 247.552 30.4477 248 31 248H40V246Z" fill="#455A64"/>
<path opacity="0.5" d="M40 236H31C30.4477 236 30 236.448 30 237C30 237.552 30.4477 238 31 238H40V236Z" fill="#455A64"/>
<path d="M40 226H21C20.4477 226 20 226.448 20 227C20 227.552 20.4477 228 21 228H40V226Z" fill="#455A64"/>
<path d="M40 226H21C20.4477 226 20 226.448 20 227C20 227.552 20.4477 228 21 228H40V226Z" fill="#455A64"/>
<path opacity="0.5" d="M40 216H31C30.4477 216 30 216.448 30 217C30 217.552 30.4477 218 31 218H40V216Z" fill="#455A64"/>
<path opacity="0.5" d="M40 206H31C30.4477 206 30 206.448 30 207C30 207.552 30.4477 208 31 208H40V206Z" fill="#455A64"/>
<path opacity="0.5" d="M40 196H31C30.4477 196 30 196.448 30 197C30 197.552 30.4477 198 31 198H40V196Z" fill="#455A64"/>
<path opacity="0.5" d="M40 186H31C30.4477 186 30 186.448 30 187C30 187.552 30.4477 188 31 188H40V186Z" fill="#455A64"/>
<path d="M40 176H21C20.4477 176 20 176.448 20 177C20 177.552 20.4477 178 21 178H40V176Z" fill="#455A64"/>
<path d="M40 176H21C20.4477 176 20 176.448 20 177C20 177.552 20.4477 178 21 178H40V176Z" fill="#455A64"/>
<path opacity="0.5" d="M40 166H31C30.4477 166 30 166.448 30 167C30 167.552 30.4477 168 31 168H40V166Z" fill="#455A64"/>
<path opacity="0.5" d="M40 156H31C30.4477 156 30 156.448 30 157C30 157.552 30.4477 158 31 158H40V156Z" fill="#455A64"/>
<path opacity="0.5" d="M40 146H31C30.4477 146 30 146.448 30 147C30 147.552 30.4477 148 31 148H40V146Z" fill="#455A64"/>
<path opacity="0.5" d="M40 136H31C30.4477 136 30 136.448 30 137C30 137.552 30.4477 138 31 138H40V136Z" fill="#455A64"/>
<path d="M40 126H21C20.4477 126 20 126.448 20 127C20 127.552 20.4477 128 21 128H40V126Z" fill="#455A64"/>
<path d="M40 126H21C20.4477 126 20 126.448 20 127C20 127.552 20.4477 128 21 128H40V126Z" fill="#455A64"/>
<path opacity="0.5" d="M40 116H31C30.4477 116 30 116.448 30 117C30 117.552 30.4477 118 31 118H40V116Z" fill="#455A64"/>
<path opacity="0.5" d="M40 106H31C30.4477 106 30 106.448 30 107C30 107.552 30.4477 108 31 108H40V106Z" fill="#455A64"/>
<path opacity="0.5" d="M40 96H31C30.4477 96 30 96.4477 30 97C30 97.5523 30.4477 98 31 98H40V96Z" fill="#455A64"/>
<path opacity="0.5" d="M40 86H31C30.4477 86 30 86.4477 30 87C30 87.5523 30.4477 88 31 88H40V86Z" fill="#455A64"/>
<path d="M40 76H21C20.4477 76 20 76.4477 20 77C20 77.5523 20.4477 78 21 78H40V76Z" fill="#455A64"/>
<path d="M40 76H21C20.4477 76 20 76.4477 20 77C20 77.5523 20.4477 78 21 78H40V76Z" fill="#455A64"/>
<path opacity="0.5" d="M40 66H31C30.4477 66 30 66.4477 30 67C30 67.5523 30.4477 68 31 68H40V66Z" fill="#455A64"/>
<path opacity="0.5" d="M40 56H31C30.4477 56 30 56.4477 30 57C30 57.5523 30.4477 58 31 58H40V56Z" fill="#455A64"/>
<path opacity="0.5" d="M40 46H31C30.4477 46 30 46.4477 30 47C30 47.5523 30.4477 48 31 48H40V46Z" fill="#455A64"/>
<path opacity="0.5" d="M40 36H31C30.4477 36 30 36.4477 30 37C30 37.5523 30.4477 38 31 38H40V36Z" fill="#455A64"/>
<path d="M40 26H21C20.4477 26 20 26.4477 20 27C20 27.5523 20.4477 28 21 28H40V26Z" fill="#455A64"/>
<defs>
<linearGradient id="paint0_linear" x1="40" y1="28" x2="315.109" y2="28" gradientUnits="userSpaceOnUse">
<stop stop-color="white"/>
<stop offset="1" stop-color="#C9CFE0"/>
</linearGradient>
<linearGradient id="paint1_linear" x1="320.219" y1="217" x2="178" y2="217" gradientUnits="userSpaceOnUse">
<stop stop-color="#C9CFE0"/>
<stop offset="1" stop-color="white"/>
</linearGradient>
<linearGradient id="paint2_linear" x1="400.219" y1="122" x2="178" y2="122" gradientUnits="userSpaceOnUse">
<stop stop-color="#C9CFE0"/>
<stop offset="1" stop-color="white"/>
</linearGradient>
<linearGradient id="paint3_linear" x1="360.219" y1="170" x2="178" y2="170" gradientUnits="userSpaceOnUse">
<stop stop-color="#C9CFE0"/>
<stop offset="1" stop-color="white"/>
</linearGradient>
<linearGradient id="paint4_linear" x1="40" y1="428" x2="0" y2="428" gradientUnits="userSpaceOnUse">
<stop stop-color="#E0E3EB"/>
<stop offset="1" stop-color="#E0E3EB" stop-opacity="0.01"/>
</linearGradient>
<clipPath id="clip0">
<rect x="40" width="344" height="54" fill="white"/>
</clipPath>
<clipPath id="clip1">
<rect x="175" y="189" width="204" height="54" fill="white"/>
</clipPath>
<clipPath id="clip2">
<rect x="175" y="94" width="284" height="54" fill="white"/>
</clipPath>
<clipPath id="clip3">
<rect x="175" y="142" width="244" height="54" fill="white"/>
</clipPath>
</defs>
</svg>
