<svg width="39" height="101" viewBox="0 0 39 101" fill="none" xmlns="http://www.w3.org/2000/svg">
<path fill-rule="evenodd" clip-rule="evenodd" d="M18.7693 28.3198C18.9724 26.6408 19.1018 25.5717 19.1018 25.3801C19.1018 25.5717 19.2311 26.6408 19.4342 28.3198C19.8302 31.5929 20.5066 37.1839 21.052 43.1112C21.1977 44.6948 21.2716 45.9067 21.3337 46.9255C21.5 49.6532 21.5819 50.9972 22.7322 54.3877C23.4123 56.3924 23.8901 59.5533 23.8901 61.5808C23.8901 61.6533 23.89 61.7337 23.8899 61.8217C23.8867 64.1929 23.876 72.1221 25.7743 82.9442C26.1058 84.8344 25.9783 86.493 25.8684 87.9217C25.8196 88.5567 25.7743 89.1463 25.7743 89.6907C25.7743 90.2884 25.7964 90.7812 25.8183 91.2674C25.8611 92.2201 25.9027 93.1472 25.7743 94.7884C25.7037 95.6895 26.1941 95.8545 27.8993 96.4194C28.1956 96.5175 28.2446 96.7736 28.3187 97.161C28.445 97.8208 28.6441 98.8614 30.2621 100.151C30.9945 100.734 35.4482 99.5691 37.4969 97.9942C37.9186 97.6701 37.3116 96.7338 34.8629 94.7884C34.8395 94.7698 34.8156 94.7508 34.7911 94.7314C33.7745 93.9258 31.8763 92.4215 31.5337 88.7509C31.2204 85.3933 31.7518 82.8694 32.6033 78.8254C32.7051 78.3419 32.8115 77.8367 32.9216 77.3057C33.3955 75.0194 34.1062 62.6866 33.1921 57.1131C32.9141 55.4184 32.5466 49.3521 33.9543 42.0748C34.2163 40.7201 34.5204 39.3543 34.8299 37.9638C36.1832 31.8847 37.6414 25.3339 36.1544 17.1792C35.4201 13.1526 34.8687 11.1871 34.1375 8.58052C33.7148 7.07389 33.2321 5.3531 32.6192 2.89636C32.6192 2.89636 27.7518 5.76848 19.1018 5.76848C10.4518 5.76848 5.58434 2.89636 5.58434 2.89636C4.97148 5.3531 4.48873 7.07389 4.06606 8.58052C3.33482 11.1871 2.7834 13.1526 2.04914 17.1792C0.562114 25.3339 2.02037 31.8847 3.37362 37.9638C3.68316 39.3543 3.98721 40.7201 4.24926 42.0748C5.65693 49.3521 5.28944 55.4184 5.01148 57.1131C4.09736 62.6866 4.80806 75.0194 5.28198 77.3057C5.39203 77.8367 5.49841 78.3419 5.60022 78.8254C6.45172 82.8694 6.98315 85.3933 6.66983 88.7509C6.32729 92.4215 4.42908 93.9258 3.41243 94.7314C3.38796 94.7508 3.36401 94.7698 3.3406 94.7884C0.891939 96.7338 0.284923 97.6701 0.706648 97.9942C2.75536 99.5691 7.20906 100.734 7.94148 100.151C9.55939 98.8614 9.75855 97.8208 9.88483 97.161C9.95897 96.7736 10.008 96.5175 10.3042 96.4194C12.0095 95.8545 12.4998 95.6895 12.4293 94.7884C12.3008 93.1472 12.3425 92.2201 12.3853 91.2674C12.4071 90.7812 12.4293 90.2884 12.4293 89.6907C12.4293 89.1463 12.3839 88.5567 12.3351 87.9217C12.2252 86.4929 12.0977 84.8344 12.4293 82.9442C14.3275 72.1221 14.3168 64.1929 14.3136 61.8217C14.3135 61.7337 14.3134 61.6533 14.3134 61.5808C14.3134 59.5533 14.7913 56.3924 15.4714 54.3877C16.6216 50.9972 16.7036 49.6532 16.8699 46.9255C16.932 45.9067 17.0059 44.6948 17.1516 43.1112C17.6969 37.1839 18.3733 31.5929 18.7693 28.3198Z" fill="#DCDFEA"/>
<path fill-rule="evenodd" clip-rule="evenodd" d="M5.16968 2.84013C5.16968 2.84013 6.98479 0.583313 19.1018 0.583313C31.2188 0.583313 33.0339 2.84013 33.0339 2.84013C33.0339 2.84013 31.7709 5.7685 19.1018 5.7685C6.4327 5.7685 5.16968 2.84013 5.16968 2.84013Z" fill="#DCDFEA"/>
<path fill-rule="evenodd" clip-rule="evenodd" d="M1.46826 24.1117C1.46826 13.8471 5.16953 2.89636 5.16953 2.89636C5.16953 2.89636 8.40183 4.43729 11.7398 5.10359C15.0777 5.76988 19.1017 5.76848 19.1017 5.76848C19.1017 5.76848 23.1256 5.76988 26.4636 5.10359C29.8015 4.43729 33.0338 2.89636 33.0338 2.89636C33.0338 2.89636 36.7351 13.8471 36.7351 24.1117C36.7351 29.1647 36.1537 33.9484 35.5634 38.8059C34.9545 43.8158 34.3361 48.9042 34.3361 54.4477C34.3361 63.4031 34.0375 66.4063 32.9538 77.3042C32.7163 79.6931 32.441 82.4612 32.1229 85.7546H25.4317C25.4317 85.7546 23.1272 69.194 23.1272 59.1598C23.1272 57.0198 22.5205 53.3501 21.7778 48.8575C20.6519 42.0466 19.2132 33.3442 19.1017 25.2125C18.9901 33.3442 17.5514 42.0466 16.4255 48.8575C15.6828 53.3501 15.0761 57.0198 15.0761 59.1598C15.0761 69.194 12.7717 85.7546 12.7717 85.7546H6.08037C5.76228 82.4613 5.48703 79.6931 5.24949 77.3043C4.16584 66.4063 3.86721 63.4031 3.86721 54.4477C3.86721 48.9042 3.24881 43.8158 2.63996 38.8059C2.04962 33.9484 1.46826 29.1647 1.46826 24.1117Z" fill="#47505A"/>
<mask id="mask0" mask-type="alpha" maskUnits="userSpaceOnUse" x="1" y="2" width="36" height="84">
<path fill-rule="evenodd" clip-rule="evenodd" d="M1.46826 24.1117C1.46826 13.8471 5.16953 2.89636 5.16953 2.89636C5.16953 2.89636 8.40183 4.43729 11.7398 5.10359C15.0777 5.76988 19.1017 5.76848 19.1017 5.76848C19.1017 5.76848 23.1256 5.76988 26.4636 5.10359C29.8015 4.43729 33.0338 2.89636 33.0338 2.89636C33.0338 2.89636 36.7351 13.8471 36.7351 24.1117C36.7351 29.1647 36.1537 33.9484 35.5634 38.8059C34.9545 43.8158 34.3361 48.9042 34.3361 54.4477C34.3361 63.4031 34.0375 66.4063 32.9538 77.3042C32.7163 79.6931 32.441 82.4612 32.1229 85.7546H25.4317C25.4317 85.7546 23.1272 69.194 23.1272 59.1598C23.1272 57.0198 22.5205 53.3501 21.7778 48.8575C20.6519 42.0466 19.2132 33.3442 19.1017 25.2125C18.9901 33.3442 17.5514 42.0466 16.4255 48.8575C15.6828 53.3501 15.0761 57.0198 15.0761 59.1598C15.0761 69.194 12.7717 85.7546 12.7717 85.7546H6.08037C5.76228 82.4613 5.48703 79.6931 5.24949 77.3043C4.16584 66.4063 3.86721 63.4031 3.86721 54.4477C3.86721 48.9042 3.24881 43.8158 2.63996 38.8059C2.04962 33.9484 1.46826 29.1647 1.46826 24.1117Z" fill="white"/>
</mask>
<g mask="url(#mask0)">
<path d="M0.953613 15.8593C0.953613 15.8593 9.22199 19.7132 19.0404 19.7132C28.8588 19.7132 37.2381 15.8593 37.2381 15.8593" stroke="#59D000" stroke-width="1.11111" stroke-dasharray="1.85 1.11"/>
<path d="M11.9287 85.7546C11.9287 85.7546 12.3753 72.0925 14.2869 54.9636C16.1985 37.8347 18.6612 25.4291 18.6612 25.4291" stroke="#59D000" stroke-width="1.11111" stroke-dasharray="1.85 1.11"/>
<path d="M-0.297852 -0.436951C-0.297852 2.29038 6.62416 6.97046 19.1017 6.97046C31.5793 6.97046 37.6202 2.29038 37.6202 -0.436951" stroke="#59D000" stroke-width="1.11111" stroke-dasharray="1.85 1.11"/>
</g>
</svg>
