<svg width="599" height="366" viewBox="0 0 599 366" fill="none" xmlns="http://www.w3.org/2000/svg">
<path fill-rule="evenodd" clip-rule="evenodd" d="M-52.2938 336.348C-33.6944 309.733 15.4806 197.189 104.581 138.347C191.754 80.7766 221.145 166.87 377.528 198.975C552.907 234.98 468.016 332.744 441.43 470.817C414.844 608.89 414.108 547.435 238.675 511.419C63.2427 475.403 -134.432 453.886 -52.2938 336.348Z" fill="#FD574C"/>
<path fill-rule="evenodd" clip-rule="evenodd" d="M166.402 128.028L164.719 123.399C164.136 123.488 163.59 123.777 163.179 124.266C162.285 125.332 162.421 126.915 163.488 127.81C164.333 128.519 165.502 128.567 166.402 128.028ZM160.432 112.217C160.494 112.144 160.534 112.066 160.585 111.99L159.199 108.17C158.275 107.911 157.238 108.193 156.576 108.981C155.682 110.047 155.815 111.634 156.882 112.529C157.945 113.421 159.538 113.283 160.432 112.217ZM144.237 108.371C145.135 107.302 144.994 105.702 143.927 104.807C142.864 103.915 141.275 104.063 140.377 105.133C139.483 106.199 139.619 107.782 140.682 108.674C141.749 109.569 143.343 109.438 144.237 108.371ZM121.428 89.2322C122.326 88.1623 122.195 86.5722 121.129 85.677C120.062 84.7817 118.473 84.9297 117.575 85.9995C116.681 87.0657 116.817 88.6485 117.884 89.5437C118.951 90.439 120.533 90.2984 121.428 89.2322ZM147.223 81.6514C148.121 80.5815 147.981 78.989 146.914 78.0937C145.85 77.2015 144.265 77.3458 143.367 78.4157C142.473 79.4819 142.606 81.0683 143.669 81.9605C144.736 82.8558 146.329 82.7176 147.223 81.6514ZM164.049 154.215C164.946 153.145 164.806 151.559 163.74 150.664C162.673 149.769 161.094 149.912 160.196 150.982C159.298 152.052 159.428 153.635 160.495 154.531C161.562 155.426 163.151 155.285 164.049 154.215ZM131.021 77.7998C131.918 76.7299 131.788 75.1398 130.721 74.2446C129.655 73.3493 128.066 73.4973 127.168 74.5671C126.277 75.6297 126.407 77.2198 127.474 78.115C128.541 79.0103 130.129 78.8623 131.021 77.7998ZM137.63 93.0838C138.528 92.0139 138.391 90.4177 137.324 89.5225C136.261 88.6303 134.672 88.7782 133.774 89.8481C132.88 90.9143 133.013 92.5007 134.076 93.3929C135.143 94.2881 136.736 94.15 137.63 93.0838ZM176.215 155.09C175.532 156.141 175.714 157.557 176.694 158.379C176.963 158.605 177.264 158.764 177.58 158.861L176.215 155.09ZM134.647 119.8C135.542 118.734 135.398 117.138 134.331 116.243C133.268 115.351 131.682 115.495 130.787 116.561C129.89 117.631 130.023 119.218 131.086 120.11C132.153 121.005 133.75 120.87 134.647 119.8ZM111.838 100.661C112.733 99.5947 112.599 98.0082 111.533 97.113C110.466 96.2178 108.88 96.362 107.986 97.4282C107.088 98.4981 107.221 100.085 108.288 100.98C109.355 101.875 110.94 101.731 111.838 100.661ZM124.414 62.5121C125.312 61.4423 125.182 59.8589 124.115 58.9636C123.048 58.0684 121.456 58.2066 120.558 59.2764C119.663 60.3426 119.804 61.9352 120.871 62.8304C121.938 63.7257 123.519 63.5783 124.414 62.5121ZM128.038 104.516C128.935 103.446 128.792 101.857 127.725 100.962C126.662 100.07 125.079 100.211 124.181 101.28C123.284 102.35 123.42 103.933 124.483 104.825C125.55 105.721 127.14 105.586 128.038 104.516ZM105.228 85.3769C106.126 84.307 105.993 82.7273 104.926 81.8321C103.86 80.9368 102.27 81.0713 101.372 82.1412C100.474 83.211 100.618 84.7999 101.685 85.6952C102.752 86.5904 104.331 86.4467 105.228 85.3769ZM157.446 138.93C158.34 137.864 158.2 136.271 157.137 135.379C156.07 134.484 154.484 134.628 153.589 135.695C152.692 136.764 152.825 138.351 153.892 139.246C154.955 140.138 156.548 140 157.446 138.93ZM170.39 139.033C170.172 139.174 169.97 139.334 169.789 139.55C168.891 140.62 169.024 142.199 170.091 143.095C170.659 143.571 171.38 143.747 172.061 143.646L170.39 139.033ZM150.84 123.649C151.737 122.579 151.594 120.991 150.53 120.098C149.464 119.203 147.881 119.344 146.983 120.414C146.086 121.483 146.222 123.066 147.289 123.961C148.352 124.854 149.942 124.719 150.84 123.649ZM114.821 73.9445C115.719 72.8747 115.592 71.2876 114.526 70.3924C113.459 69.4971 111.863 69.639 110.965 70.7088C110.07 71.775 110.211 73.3676 111.278 74.2628C112.345 75.158 113.927 75.0107 114.821 73.9445ZM47.6709 153.971C48.5655 152.905 48.4359 151.322 47.369 150.426C46.3021 149.531 44.7093 149.669 43.8147 150.736C42.917 151.805 43.0575 153.398 44.1244 154.293C45.1913 155.188 46.7732 155.041 47.6709 153.971ZM86.6797 176.966C87.5743 175.9 87.4302 174.304 86.3633 173.409C85.3 172.516 83.7145 172.661 82.8199 173.727C81.9252 174.793 82.0554 176.383 83.1187 177.275C84.1856 178.171 85.785 178.032 86.6797 176.966ZM63.8704 157.826C64.7651 156.76 64.6318 155.174 63.5649 154.279C62.498 153.383 60.9125 153.528 60.0179 154.594C59.1232 155.66 59.2534 157.25 60.3203 158.145C61.3872 159.041 62.9758 158.893 63.8704 157.826ZM99.0189 177.576C98.2743 178.463 98.2526 179.701 98.868 180.61L102.411 181.224C102.576 181.108 102.737 180.976 102.875 180.811C103.77 179.745 103.629 178.152 102.566 177.26C101.499 176.365 99.9135 176.509 99.0189 177.576ZM41.0721 138.696C41.9667 137.63 41.8299 136.041 40.763 135.145C39.9764 134.485 38.9209 134.39 38.0513 134.805L36.7185 136.394C36.4607 137.322 36.7318 138.352 37.5183 139.012C38.5852 139.907 40.1774 139.763 41.0721 138.696ZM140.617 66.3637C141.511 65.2975 141.381 63.7074 140.314 62.8122C139.247 61.917 137.659 62.0649 136.764 63.1311C135.87 64.1973 136.003 65.7837 137.07 66.679C138.137 67.5742 139.722 67.4299 140.617 66.3637ZM54.2775 169.259C55.1722 168.193 55.0389 166.606 53.972 165.711C52.9051 164.816 51.3196 164.96 50.425 166.026C49.5273 167.096 49.6605 168.682 50.7274 169.578C51.7943 170.473 53.3798 170.329 54.2775 169.259ZM70.4801 173.11C71.3748 172.044 71.2343 170.452 70.1674 169.556C69.1041 168.664 67.5186 168.809 66.624 169.875C65.7263 170.945 65.8595 172.531 66.9227 173.423C67.9897 174.318 69.5824 174.18 70.4801 173.11ZM38.078 165.404C38.9726 164.337 38.843 162.754 37.7761 161.859C36.7092 160.963 35.1164 161.102 34.2218 162.168C33.3241 163.238 33.4646 164.83 34.5315 165.726C35.5984 166.621 37.1802 166.473 38.078 165.404ZM50.665 127.264C51.5627 126.194 51.4228 124.608 50.3559 123.713C49.5693 123.053 48.5139 122.958 47.6412 123.376L46.3084 124.965C46.0536 125.89 46.3247 126.92 47.1113 127.58C48.1782 128.475 49.7703 128.33 50.665 127.264ZM134.007 51.0797C134.905 50.0099 134.775 48.4265 133.708 47.5313C132.641 46.636 131.049 46.7742 130.151 47.844C129.256 48.9102 129.397 50.5028 130.464 51.398C131.531 52.2933 133.112 52.1459 134.007 51.0797ZM117.818 47.2337C118.713 46.1675 118.579 44.5743 117.512 43.6791C116.726 43.0191 115.664 42.931 114.795 43.3462L113.462 44.9345C113.207 45.8593 113.481 46.8859 114.268 47.5458C115.335 48.4411 116.924 48.2999 117.818 47.2337ZM98.6295 70.1021C99.5272 69.0322 99.3934 67.4391 98.3265 66.5438C97.54 65.8838 96.4784 65.7957 95.6088 66.2109L94.2791 67.7956C94.0181 68.7278 94.2954 69.7506 95.0819 70.4106C96.1488 71.3058 97.7349 71.1683 98.6295 70.1021ZM108.222 58.6697C109.12 57.5998 108.986 56.0067 107.919 55.1114C107.133 54.4515 106.071 54.3633 105.202 54.7785L103.869 56.3669C103.611 57.2954 103.885 58.3219 104.672 58.9819C105.739 59.8771 107.331 59.7322 108.222 58.6697ZM60.2579 115.832C61.1556 114.762 61.0187 113.172 59.9518 112.277C59.1653 111.617 58.1068 111.525 57.2341 111.944L55.9044 113.529C55.6465 114.457 55.9207 115.484 56.7072 116.144C57.7741 117.039 59.3632 116.898 60.2579 115.832ZM69.8508 104.399C70.7485 103.329 70.6117 101.74 69.5447 100.845C68.7582 100.185 67.6997 100.093 66.8301 100.508L65.5004 102.093C65.2394 103.025 65.5136 104.051 66.3001 104.711C67.367 105.607 68.9562 105.465 69.8508 104.399ZM89.0397 81.5308C89.9343 80.4646 89.7975 78.8751 88.7306 77.9799C87.944 77.3199 86.8824 77.2318 86.0159 77.6433L84.6831 79.2316C84.4252 80.1601 84.6994 81.1867 85.4859 81.8466C86.5529 82.7419 88.142 82.6007 89.0397 81.5308ZM79.4468 92.9632C80.3414 91.897 80.2046 90.3075 79.1377 89.4122C78.3511 88.7523 77.2926 88.6605 76.4199 89.0793L75.0902 90.664C74.8323 91.5925 75.1065 92.619 75.893 93.279C76.9599 94.1743 78.5491 94.033 79.4468 92.9632ZM31.4792 150.129C32.3738 149.063 32.2369 147.473 31.17 146.578C30.3835 145.918 29.325 145.826 28.4584 146.238L27.1256 147.826C26.8678 148.754 27.1389 149.785 27.9254 150.445C28.9923 151.34 30.5815 151.199 31.4792 150.129ZM131.417 185.279C131.175 185.568 131.013 185.88 130.921 186.219L135.853 187.085C135.907 186.303 135.609 185.505 134.961 184.961C133.894 184.066 132.315 184.209 131.417 185.279ZM105.866 154.101C106.763 153.031 106.619 151.435 105.552 150.54C104.489 149.648 102.903 149.792 102.006 150.862C101.111 151.928 101.244 153.515 102.308 154.407C103.374 155.302 104.971 155.167 105.866 154.101ZM112.468 169.379C113.366 168.309 113.222 166.72 112.159 165.828C111.092 164.933 109.509 165.073 108.612 166.143C107.714 167.213 107.847 168.799 108.914 169.695C109.977 170.587 111.57 170.449 112.468 169.379ZM147.61 189.128L147.6 189.139L151.902 189.893C151.752 189.487 151.517 189.109 151.16 188.81C150.1 187.92 148.507 188.059 147.61 189.128ZM99.2589 138.813C100.157 137.743 100.016 136.151 98.9492 135.256C97.8859 134.363 96.3004 134.508 95.4027 135.578C94.505 136.647 94.6413 138.23 95.7045 139.122C96.7715 140.018 98.3612 139.883 99.2589 138.813ZM66.8567 131.106C67.7544 130.037 67.6217 128.457 66.5548 127.562C65.4879 126.666 63.8982 126.801 63.0005 127.871C62.1028 128.941 62.2433 130.533 63.3102 131.428C64.3771 132.324 65.959 132.176 66.8567 131.106ZM141.247 135.082C142.144 134.012 142.001 132.423 140.938 131.531C139.871 130.635 138.288 130.776 137.39 131.846C136.493 132.916 136.626 134.502 137.693 135.398C138.756 136.29 140.349 136.152 141.247 135.082ZM83.0562 134.962C83.9539 133.892 83.8207 132.305 82.7538 131.41C81.6869 130.515 80.1014 130.659 79.2037 131.729C78.3091 132.795 78.4423 134.382 79.5092 135.277C80.5761 136.172 82.1616 136.028 83.0562 134.962ZM73.4633 146.394C74.361 145.324 74.2248 143.741 73.1578 142.846C72.0909 141.951 70.5085 142.092 69.6108 143.161C68.7162 144.228 68.8463 145.818 69.9132 146.713C70.9801 147.608 72.5687 147.46 73.4633 146.394ZM80.073 161.678C80.9677 160.612 80.8272 159.019 79.7603 158.124C78.697 157.232 77.1115 157.376 76.2169 158.442C75.3192 159.512 75.4493 161.102 76.5126 161.994C77.5795 162.89 79.1753 162.748 80.073 161.678ZM153.83 96.939C154.342 96.3293 154.501 95.5481 154.354 94.8278L154.09 94.0775C153.943 93.8169 153.76 93.5763 153.52 93.3747C152.457 92.4825 150.868 92.6304 149.97 93.7003C149.079 94.7628 149.209 96.3529 150.272 97.2451C151.339 98.1403 152.938 98.0016 153.83 96.939ZM127.408 35.8049C128.306 34.7351 128.172 33.1419 127.105 32.2467C126.319 31.5867 125.257 31.4986 124.388 31.9138L123.058 33.4985C122.8 34.427 123.074 35.4535 123.861 36.1135C124.928 37.0087 126.514 36.8711 127.408 35.8049ZM89.666 150.246C90.5637 149.176 90.4201 147.587 89.3532 146.692C88.2899 145.799 86.7075 145.94 85.8098 147.01C84.9121 148.08 85.0453 149.666 86.1086 150.558C87.1755 151.454 88.7682 151.316 89.666 150.246ZM21.8893 161.557C22.784 160.491 22.644 158.905 21.5771 158.01C20.7906 157.35 19.7321 157.258 18.8624 157.674L17.5327 159.258C17.2749 160.187 17.546 161.217 18.3325 161.877C19.3994 162.772 20.9916 162.627 21.8893 161.557ZM115.215 181.428C114.743 181.99 114.567 182.695 114.653 183.377L119.379 184.2C119.909 183.17 119.683 181.885 118.762 181.112C117.695 180.217 116.112 180.358 115.215 181.428ZM96.2726 165.533C97.1703 164.463 97.0231 162.872 95.9562 161.976C94.8929 161.084 93.3105 161.225 92.4128 162.295C91.5181 163.361 91.6483 164.951 92.7116 165.843C93.7785 166.738 95.378 166.6 96.2726 165.533ZM57.2638 142.539C58.1584 141.473 58.0288 139.889 56.9619 138.994C55.895 138.099 54.3023 138.237 53.4076 139.303C52.5099 140.373 52.6473 141.969 53.7142 142.864C54.7812 143.76 56.3661 143.609 57.2638 142.539ZM76.4496 119.674C77.3473 118.604 77.2177 117.021 76.1508 116.126C75.0839 115.23 73.4911 115.368 72.5934 116.438C71.6957 117.508 71.8393 119.097 72.9062 119.992C73.9731 120.888 75.5519 120.744 76.4496 119.674ZM128.664 173.231C129.562 172.161 129.421 170.569 128.358 169.676C127.291 168.781 125.705 168.925 124.808 169.995C123.913 171.062 124.046 172.648 125.113 173.543C126.176 174.435 127.769 174.297 128.664 173.231ZM102.245 112.093C103.14 111.027 103.007 109.441 101.94 108.545C100.873 107.65 99.2872 107.794 98.3926 108.861C97.4949 109.93 97.6281 111.517 98.695 112.412C99.7619 113.307 101.347 113.163 102.245 112.093ZM125.054 131.233C125.949 130.166 125.805 128.571 124.738 127.675C123.675 126.783 122.089 126.928 121.195 127.994C120.297 129.064 120.43 130.65 121.493 131.542C122.56 132.437 124.157 132.302 125.054 131.233ZM189.17 195.187C190.068 194.117 189.931 192.527 188.864 191.632C187.801 190.74 186.212 190.881 185.314 191.951C184.419 193.017 184.556 194.607 185.62 195.499C186.686 196.394 188.276 196.253 189.17 195.187ZM177.258 184.78C178.155 183.71 178.019 182.121 176.952 181.226C175.892 180.337 174.299 180.475 173.402 181.545C172.504 182.614 172.644 184.207 173.704 185.096C174.771 185.991 176.36 185.85 177.258 184.78ZM147.853 150.363C148.747 149.296 148.607 147.704 147.544 146.812C146.477 145.916 144.891 146.061 143.997 147.127C143.099 148.197 143.232 149.783 144.299 150.678C145.362 151.571 146.955 151.432 147.853 150.363ZM95.6354 96.8093C96.5331 95.7394 96.4005 94.1597 95.3336 93.2644C94.2666 92.3692 92.677 92.5037 91.7792 93.5736C90.8815 94.6434 91.022 96.236 92.089 97.1312C93.1559 98.0265 94.7377 97.8791 95.6354 96.8093ZM118.445 115.949C119.342 114.879 119.199 113.29 118.132 112.395C117.069 111.502 115.486 111.643 114.589 112.713C113.691 113.783 113.824 115.369 114.887 116.261C115.954 117.157 117.547 117.018 118.445 115.949ZM169.389 171.004C170.449 169.74 170.447 167.99 169.38 167.095C168.321 166.206 166.593 166.505 165.533 167.768C164.473 169.031 164.482 170.781 165.541 171.67C166.608 172.565 168.329 172.267 169.389 171.004ZM154.456 165.647C155.353 164.577 155.217 162.988 154.15 162.093C153.083 161.197 151.501 161.345 150.603 162.415C149.706 163.484 149.835 165.068 150.902 165.963C151.969 166.858 153.558 166.717 154.456 165.647ZM144.863 177.08C145.761 176.01 145.624 174.42 144.557 173.525C143.49 172.63 141.908 172.777 141.01 173.847C140.113 174.917 140.245 176.497 141.312 177.392C142.379 178.287 143.965 178.149 144.863 177.08ZM131.654 146.514C132.551 145.444 132.411 143.852 131.348 142.959C130.281 142.064 128.695 142.208 127.798 143.278C126.9 144.348 127.033 145.935 128.1 146.83C129.163 147.722 130.756 147.584 131.654 146.514ZM115.458 142.669C116.356 141.599 116.212 140.003 115.145 139.108C114.082 138.216 112.496 138.36 111.599 139.43C110.704 140.496 110.837 142.082 111.9 142.975C112.967 143.87 114.564 143.735 115.458 142.669ZM165.007 192.185L167.23 192.575C166.573 192.086 165.752 191.963 165.007 192.185ZM122.061 157.946C122.959 156.877 122.818 155.284 121.755 154.392C120.688 153.497 119.102 153.641 118.205 154.711C117.307 155.781 117.443 157.363 118.51 158.259C119.573 159.151 121.163 159.016 122.061 157.946ZM138.257 161.799C139.154 160.729 139.014 159.136 137.951 158.244C136.884 157.349 135.298 157.493 134.401 158.563C133.506 159.629 133.639 161.216 134.706 162.111C135.769 163.003 137.362 162.865 138.257 161.799ZM86.0425 108.242C86.9402 107.172 86.8106 105.588 85.7437 104.693C84.6768 103.798 83.084 103.936 82.1863 105.006C81.2886 106.076 81.4291 107.668 82.496 108.564C83.5629 109.459 85.1448 109.312 86.0425 108.242ZM108.852 127.381C109.749 126.311 109.609 124.719 108.542 123.823C107.479 122.931 105.893 123.075 104.996 124.145C104.098 125.215 104.231 126.802 105.294 127.694C106.361 128.589 107.954 128.451 108.852 127.381ZM92.6491 123.529C93.5469 122.459 93.4136 120.873 92.3467 119.978C91.2798 119.083 89.6943 119.227 88.7966 120.297C87.902 121.363 88.0352 122.949 89.1021 123.845C90.169 124.74 91.7545 124.596 92.6491 123.529ZM161.059 180.932C161.956 179.862 161.82 178.272 160.753 177.377C159.693 176.488 158.1 176.626 157.203 177.696C156.308 178.762 156.448 180.355 157.508 181.244C158.575 182.139 160.164 181.998 161.059 180.932Z" fill="#99A2BD"/>
</svg>
