<svg width="996" height="680" viewBox="0 0 996 680" fill="none" xmlns="http://www.w3.org/2000/svg">
<path opacity="0.502023" fill-rule="evenodd" clip-rule="evenodd" d="M603.137 590.934C593.261 573.829 571.641 567.388 537.823 569.606L536.773 569.678C511.722 571.439 488.274 576.111 436.342 588.682L414.336 594.022C370.942 604.475 350.141 608.688 327.292 611.094C293.862 614.615 270.593 611.041 256.725 598.481L255.518 597.388L257.699 594.976L258.905 596.069C271.751 607.702 293.83 611.207 325.801 607.975L329.184 607.614C351.748 605.103 373.176 600.636 417.955 589.798L437.233 585.116C488.203 572.8 511.513 568.19 536.541 566.43C572.073 563.931 595.187 570.662 605.953 589.309L606.767 590.719L603.951 592.345L603.137 590.934ZM313.606 462.465L311.23 460.247L317.212 453.861C319.725 451.192 322.359 448.412 325.574 445.036L343.858 425.89C379.879 388.076 395.463 370.286 409.373 349.715C428.689 321.15 434.156 298.961 424.221 281.71C416.116 267.67 400.041 260.828 375.875 260.067C355.324 259.42 329.847 263.026 294.876 270.753L293.288 271.103L292.587 267.929L294.174 267.578C329.39 259.798 355.09 256.16 375.977 256.818C401.155 257.61 418.267 264.895 427.038 280.086C437.758 298.7 432.005 322.049 412.066 351.536L410.716 353.516C396.851 373.685 380.875 391.772 345.071 429.329L323.493 451.946C320.747 454.844 318.352 457.387 315.85 460.063L313.606 462.465ZM134.954 302.432L136.579 302.346L136.419 299.102L133.764 299.24C102.323 300.747 82.0539 294.218 72.6204 277.896C62.6757 260.671 68.1774 238.481 87.5706 209.891L88.0169 209.235C101.872 188.921 117.568 171.083 153.33 133.625L165.01 121.423C199.303 85.5728 214.475 68.6632 228.558 49.3524L230.409 46.7968L227.772 44.9025L226.818 46.222C213.333 64.8707 199.129 80.9348 167.945 113.649L152.122 130.19C115.802 168.202 99.8066 186.299 85.7793 206.754L84.2805 208.961C64.7437 238.056 59.1755 261.126 69.7984 279.526C80.0945 297.34 101.835 304.19 134.954 302.432Z" fill="#99A2BD"/>
<path fill-rule="evenodd" clip-rule="evenodd" d="M538.698 585.019C572.511 582.743 594.112 589.128 603.953 606.173C604.401 606.949 605.395 607.214 606.173 606.765C606.952 606.315 607.219 605.322 606.771 604.546C596.043 585.965 572.948 579.294 537.422 581.853C512.398 583.655 489.085 588.297 438.107 600.678L424.561 603.987C369.093 617.544 344.956 622.491 319.118 624.353L318.068 624.426C284.256 626.701 262.656 620.317 252.815 603.273C244.256 588.447 247.152 569.908 260.452 546.847L260.904 546.068C271.534 527.862 287.751 507.854 312.861 480.788L316.139 477.269C316.752 476.613 316.718 475.585 316.062 474.974C315.406 474.363 314.377 474.4 313.764 475.056C286.991 503.693 269.809 524.608 258.559 543.649L257.635 545.231C243.816 569.192 240.742 588.869 249.997 604.9C260.51 623.109 282.9 629.879 317.228 627.734L319.344 627.592C344.368 625.789 367.679 621.147 418.657 608.766L435.56 604.639C488.658 591.7 512.337 586.915 537.648 585.092L538.698 585.019ZM326.502 281.612L331.073 280.839C331.961 280.692 332.566 279.856 332.424 278.972C332.282 278.087 331.447 277.489 330.559 277.636C312.251 280.659 296.159 284.164 265.037 291.73L242.437 297.269C190.359 310.019 166.535 314.909 141.765 316.866L139.13 317.062C105.262 319.404 83.6261 313.081 73.7739 296.101C63.8276 278.874 69.3499 256.674 88.7838 228.068L89.231 227.412C103.266 206.865 119.196 188.833 155.835 150.537L165.338 140.626C184.6 120.538 194.647 109.842 204.525 98.659L208.345 94.3002C208.936 93.6209 208.866 92.5958 208.188 92.0106C207.51 91.4254 206.481 91.5018 205.889 92.1811C196.656 102.791 188.265 111.904 173.491 127.408L151.148 150.746C115.641 187.92 100.071 205.678 86.0894 226.259L85.4918 227.143C65.9141 256.254 60.3249 279.334 70.9493 297.736C81.6908 316.249 104.82 322.854 140.404 320.225L141.203 320.165C165.968 318.272 189.361 313.56 239.88 301.232L259.988 296.3C292.12 288.442 308.969 284.652 326.502 281.612Z" fill="white"/>
<path opacity="0.500372" fill-rule="evenodd" clip-rule="evenodd" d="M1154.41 255.905C1141.71 271.036 1119.3 273.624 1086.38 265.568L1085.36 265.315C1061 259.23 1038.72 250.557 989.755 229.16L969.011 220.079C928.091 202.25 908.338 194.489 886.254 188.152C853.943 178.879 830.407 178.359 814.568 188.319L813.19 189.186L814.919 191.94L816.297 191.074C830.967 181.848 853.319 182.23 884.244 190.965L887.512 191.907C909.298 198.299 929.624 206.419 971.841 224.867L990.013 232.826C1038.07 253.806 1060.23 262.393 1084.57 268.473C1119.13 277.104 1143.06 274.489 1156.9 257.995L1157.94 256.748L1155.45 254.658L1154.41 255.905ZM846.967 332.146L844.241 333.918L849.023 341.246C851.035 344.311 853.146 347.505 855.727 351.388L870.407 373.419C899.315 416.914 911.573 437.14 921.7 459.813C935.762 491.299 937.293 514.1 924.514 529.363C914.093 541.782 897.075 545.73 873.143 542.282C852.792 539.351 828.328 531.376 795.23 517.694L793.728 517.073L792.486 520.077L793.988 520.698C827.317 534.475 851.996 542.521 872.68 545.5C897.613 549.091 915.73 544.889 927.005 531.452C940.795 514.982 939.184 490.988 924.668 458.487L923.682 456.303C913.531 434.033 900.938 413.446 872.199 370.243L854.876 344.222C852.675 340.892 850.759 337.971 848.76 334.902L846.967 332.146ZM643.239 458.726L644.825 459.093L644.103 462.259L641.513 461.662C610.811 454.718 589.716 457.629 577.592 472.065C564.807 487.301 566.372 510.109 580.506 541.632L580.832 542.356C590.949 564.767 603.308 585.06 632.023 628.159L641.406 642.204C668.953 683.464 680.958 702.751 691.474 724.214L692.854 727.053L689.927 728.46L689.217 726.995C679.175 706.288 667.977 688.001 642.947 650.369L630.237 631.332C601.069 587.59 588.459 566.991 578.197 544.411L577.104 541.977C562.917 509.931 561.439 486.245 575.096 469.969C588.329 454.213 610.928 451.243 643.239 458.726Z" fill="#99A2BD"/>
<path fill-rule="evenodd" clip-rule="evenodd" d="M1089.92 250.541C1122.82 258.653 1145.21 256.117 1157.86 241.039C1158.43 240.353 1159.46 240.265 1160.15 240.842C1160.84 241.42 1160.93 242.445 1160.35 243.131C1146.56 259.567 1122.66 262.127 1088.11 253.437C1063.78 247.317 1041.63 238.697 993.577 217.652L980.811 212.041C928.54 189.058 905.629 179.995 880.506 173.675L879.485 173.421C846.582 165.308 824.201 167.845 811.55 182.921C800.547 196.035 800.18 214.796 809.273 239.816L809.583 240.661C816.89 260.437 829.386 282.957 849.415 313.972L852.031 318.006C852.522 318.759 852.31 319.765 851.558 320.253C850.806 320.741 849.799 320.527 849.309 319.774C827.915 286.923 814.626 263.341 806.853 242.637L806.218 240.918C796.77 214.922 797.159 195.009 809.057 180.829C822.572 164.723 845.798 161.943 879.232 170.017L881.292 170.524C905.622 176.645 927.773 185.264 975.826 206.309L991.756 213.309C1041.8 235.272 1064.29 244.096 1088.9 250.287L1089.92 250.541ZM828.262 512.49L832.629 514.046C833.478 514.344 833.929 515.273 833.636 516.119C833.342 516.966 832.416 517.41 831.567 517.111C814.062 510.954 798.823 504.709 769.488 491.853L748.193 482.474C699.12 460.875 676.507 451.922 652.453 445.693L649.893 445.043C616.946 436.855 594.54 439.325 581.889 454.336C569.103 469.575 570.686 492.396 584.857 523.942L585.184 524.666C595.438 547.337 607.995 567.862 637.427 611.939L645.064 623.349C660.546 646.477 668.583 658.754 676.368 671.483L679.374 676.439C679.838 677.211 679.591 678.208 678.821 678.667C678.052 679.125 677.052 678.871 676.587 678.1C669.337 666.047 662.655 655.616 650.798 637.782L632.847 610.918C604.335 568.144 592.085 547.952 581.89 525.256L581.455 524.282C567.229 492.213 565.733 468.513 579.391 452.236C593.184 435.869 617.109 433.381 651.696 442.149L652.473 442.347C676.532 448.511 698.752 457.214 746.363 478.127L765.309 486.476C795.588 499.794 811.523 506.453 828.262 512.49Z" fill="white"/>
<path fill-rule="evenodd" clip-rule="evenodd" d="M1023.92 409.211C1011.03 404.506 957.153 398.074 927.66 365.754C898.804 334.134 938.618 308.444 950.425 232.434C963.667 147.191 1011.35 172.044 1076.74 164.52C1142.13 156.997 1113.29 166.087 1100.04 251.356C1086.8 336.625 1080.83 429.989 1023.92 409.211Z" fill="#2253AA"/>
<path fill-rule="evenodd" clip-rule="evenodd" d="M466.569 77.5912C457.268 93.7489 434.801 160.606 386.783 198.716C339.804 236.001 318.648 188.189 227.548 177.594C125.383 165.712 169.03 105.536 177.286 25.1914C185.541 -55.1534 189.059 -20.0177 291.256 -8.1318C393.453 3.7541 507.646 6.23586 466.569 77.5912Z" fill="#0090D6"/>
<mask id="mask0" mask-type="alpha" maskUnits="userSpaceOnUse" x="729" y="245" width="16" height="17">
<path fill-rule="evenodd" clip-rule="evenodd" d="M729.295 245.119H744.813V261.035H729.295V245.119Z" fill="white"/>
</mask>
<g mask="url(#mask0)">
<path fill-rule="evenodd" clip-rule="evenodd" d="M744.797 260.209C743.574 257.83 742.156 255.482 741.035 253.067C740.176 251.214 739.73 249.754 738.922 247.873C738.489 246.873 737.978 245.299 737.171 245.506C736.624 245.646 736.898 247.307 736.967 247.942C737.039 248.593 736.884 250.049 736.884 250.049C736.653 249.95 735.957 248.998 735.238 248.308C734.55 247.646 733.827 247.019 733.056 246.453C732.425 245.989 731.523 245.272 730.731 245.132C730.077 245.016 729.772 245.626 729.522 246.144C729.263 246.682 729.263 248.292 729.34 248.977C729.445 249.941 729.945 252.821 730.957 253.726C731.689 254.38 736.958 256.969 737.319 257.198C737.68 257.428 738.79 259.649 738.79 259.649L739.751 260.83L744.399 261.035C744.399 261.035 744.906 260.422 744.797 260.209" fill="#D2BDA7"/>
</g>
<path fill-rule="evenodd" clip-rule="evenodd" d="M864.127 262.338C865.545 260.071 867.153 257.85 868.474 255.536C869.486 253.763 870.054 252.346 871.017 250.54C871.532 249.578 872.173 248.053 872.96 248.327C873.494 248.512 873.082 250.146 872.959 250.772C872.832 251.415 872.864 252.879 872.864 252.879C873.102 252.8 873.875 251.91 874.651 251.282C875.393 250.681 876.164 250.115 876.979 249.617C877.65 249.207 878.606 248.568 879.409 248.494C880.069 248.436 880.321 249.069 880.528 249.606C880.741 250.162 880.606 251.766 880.473 252.443C880.286 253.397 879.547 256.223 878.462 257.04C877.677 257.629 872.21 259.769 871.831 259.966C871.452 260.164 870.162 262.286 870.162 262.286L869.102 263.382L864.454 263.195C864.454 263.195 864 262.541 864.127 262.338" fill="#D2BDA7"/>
<path fill-rule="evenodd" clip-rule="evenodd" d="M873.001 538.598C872.043 536.465 867.559 531.917 866.861 531.348C866.823 531.317 866.766 531.279 866.704 531.24C865.818 527.539 864.859 523.536 864.337 521.364C863.201 516.624 861.683 510.937 861.683 510.937C861.683 510.937 847.153 512.55 849.362 514.919C854.078 519.979 859.211 532.283 859.211 532.283C859.114 533.256 858.299 537.166 858.775 539.026C859.509 541.888 861.538 544.693 863.029 547.173C865.028 550.494 867.207 554.183 870.282 556.524C871.62 557.543 873.572 557.899 874.111 555.852C875.61 550.178 875.426 544 873.001 538.598" fill="#D2BDA7"/>
<path fill-rule="evenodd" clip-rule="evenodd" d="M873.001 538.598C872.043 536.465 867.558 531.917 866.86 531.348C866.756 531.263 866.86 531.348 866.678 531.13C866.839 531.665 866.764 532.002 867.007 532.528C870.373 539.794 872.464 543.641 870.539 544.531C868.618 545.422 864.329 543.021 860.964 535.753C860.472 534.693 859.572 533.649 859.179 532.633C859.055 533.971 858.342 537.339 858.775 539.026C859.509 541.888 861.538 544.694 863.028 547.173C865.028 550.494 867.207 554.183 870.282 556.524C871.62 557.543 873.572 557.899 874.111 555.852C875.609 550.179 875.425 544 873.001 538.598" fill="#243437"/>
<path fill-rule="evenodd" clip-rule="evenodd" d="M802.215 543.165C801.719 541.099 801.058 537.932 801 535.528C800.904 531.64 800.456 519.509 800.456 519.509L786.687 521.119C786.687 521.119 792.755 536.095 794.094 541.214C794.162 541.475 794.218 542.145 794.262 542.908L794.182 542.976C794.182 542.976 787.216 544.683 784.798 545.819C782.382 546.956 778.401 549.373 776.837 551.364C775.273 553.356 775.415 554.776 775.984 555.629C776.554 556.483 778.827 556.766 780.107 556.483C781.386 556.198 789.917 553.924 792.62 553.071C795.321 552.217 799.301 551.934 801.008 551.506C802.713 551.08 802.856 550.512 802.996 547.952C803.118 545.795 802.435 543.757 802.215 543.165" fill="#D2BDA7"/>
<path fill-rule="evenodd" clip-rule="evenodd" d="M802.186 543.083C801.109 544.99 796.467 546.425 790.904 546.425C788.683 546.425 786.616 546.19 784.858 545.795C784.84 545.803 784.815 545.811 784.797 545.819C782.381 546.957 778.401 549.373 776.837 551.365C775.274 553.355 775.415 554.777 775.983 555.629C776.553 556.482 778.829 556.767 780.108 556.482C781.387 556.199 789.918 553.924 792.619 553.071C795.32 552.217 799.301 551.932 801.007 551.506C802.712 551.08 802.855 550.51 802.997 547.952C803.122 545.704 802.37 543.571 802.186 543.083" fill="#243437"/>
<path fill-rule="evenodd" clip-rule="evenodd" d="M818.493 266.566C818.698 262.017 815.175 258.162 810.626 257.957C806.076 257.752 802.222 261.273 802.017 265.822C801.969 266.88 802.14 267.894 802.461 268.841C798.198 269.036 794.934 270.974 793.606 274.794C791.788 280.022 795.017 289.64 801.026 291.729C807.031 293.817 813.501 288.508 815.318 283.278C816.376 280.237 815.221 276.482 813.262 273.859C816.198 272.704 818.34 269.921 818.493 266.566" fill="#1D252D"/>
<path fill-rule="evenodd" clip-rule="evenodd" d="M588.633 417.343C587.913 416.816 577.72 414.543 574.723 413.942C571.726 413.342 565.545 412.126 563.429 412.445C561.314 412.766 560.245 416.962 560.245 416.962L559.485 419.694C558.501 420.526 557.416 421.406 556.48 422.075L539.643 431.67L537.342 433.401L545.559 445.006C545.559 445.006 551.071 438.061 556.82 432.936C560.273 429.855 565.681 425.493 567.518 424.019C568.467 423.768 569.424 423.545 570.13 423.394C571.773 423.039 585.838 423.03 587.312 422.379C588.786 421.726 589.888 420.952 590.256 419.839C590.623 418.726 589.354 417.872 588.633 417.343" fill="#D2BDA7"/>
<path fill-rule="evenodd" clip-rule="evenodd" d="M588.633 417.343C587.913 416.816 577.72 414.543 574.723 413.942C571.726 413.342 565.545 412.126 563.429 412.445C561.314 412.766 560.245 416.962 560.245 416.962L559.293 420.39C561.721 419.341 565.384 418.817 569.438 419.116C574.474 419.487 578.726 421.02 580.672 422.93C583.866 422.81 586.697 422.651 587.312 422.379C588.786 421.726 589.888 420.952 590.256 419.839C590.623 418.726 589.354 417.872 588.633 417.343" fill="#243437"/>
<path fill-rule="evenodd" clip-rule="evenodd" d="M535.722 421.826C535.009 421.287 524.848 418.872 521.861 418.228C518.873 417.585 512.707 416.282 510.59 416.572C508.471 416.861 507.342 421.045 507.342 421.045L506.543 423.765C505.549 424.58 504.449 425.448 503.505 426.103L486.534 435.458L484.208 437.156L492.262 448.876C492.262 448.876 497.87 442.01 503.691 436.966C507.187 433.936 512.656 429.65 514.516 428.202C515.468 427.965 516.428 427.756 517.136 427.613C518.782 427.283 532.847 427.473 534.331 426.842C535.813 426.211 536.925 425.452 537.309 424.344C537.691 423.235 536.435 422.364 535.722 421.826" fill="#D2BDA7"/>
<path fill-rule="evenodd" clip-rule="evenodd" d="M535.722 421.826C535.009 421.287 524.848 418.872 521.861 418.228C518.873 417.585 512.707 416.282 510.59 416.572C508.471 416.861 507.342 421.045 507.342 421.045L506.34 424.457C508.782 423.441 512.453 422.971 516.503 423.327C521.532 423.77 525.763 425.363 527.683 427.299C530.878 427.224 533.709 427.106 534.331 426.842C535.813 426.211 536.926 425.452 537.309 424.344C537.691 423.235 536.435 422.364 535.722 421.826" fill="#243437"/>
<path fill-rule="evenodd" clip-rule="evenodd" d="M532.284 273.583C532.284 273.583 538.693 270.039 538.868 269.852L539.043 269.665C539.043 269.665 539.676 265.849 541.238 264.261C542.974 262.499 546.016 261.724 547.673 261.227C549.946 260.545 549.549 261.415 549.297 261.877C548.935 262.536 548.529 263.226 547.551 264.362C546.571 265.498 545.823 266.513 545.823 266.513C545.823 266.513 544.975 267.785 546.062 267.748C547.149 267.712 548.865 266.996 549.778 267.122C550.268 267.188 550.418 267.769 549.713 268.308C549.184 268.711 543.273 272.016 542.691 272.498C542.106 272.978 535.326 279.14 535.326 279.14L531.372 272.943" fill="#D2BDA7"/>
<path fill-rule="evenodd" clip-rule="evenodd" d="M378.217 344.175C378.217 344.175 374.226 346.51 372.874 346.858C371.52 347.208 365.779 346.191 363.894 346.769C362.009 347.345 358.588 349.288 357.361 350.329C356.244 351.278 356.931 351.84 357.496 351.917C358.06 351.992 361.116 351.323 363.2 351.304C365.283 351.284 366.526 351.422 366.556 351.692C366.585 351.961 365.88 352.309 364.523 353.272C363.166 354.236 361.712 354.506 362.136 355.3C362.47 355.926 365.771 354.75 367.652 354.14C369.535 353.528 372.342 352.91 373.542 352.439C374.743 351.971 376.346 350.71 376.614 350.612C376.881 350.514 382.033 349.281 382.033 349.281L379.548 343.624" fill="#D2BDA7"/>
<path fill-rule="evenodd" clip-rule="evenodd" d="M221.309 357.593C221.309 357.593 218.371 360.437 216.76 361.384C215.149 362.332 211.073 362.142 209.366 364.134C207.661 366.124 206.062 371.947 206.062 371.947C206.062 371.947 206.535 373.084 207.484 372.422C208.431 371.758 213.633 366.503 214.012 366.408C214.391 366.312 214.579 367.166 214.485 367.64C214.391 368.113 213.821 370.993 214.012 371.166C214.2 371.337 214.485 371.431 215.338 370.388C216.19 369.347 217.518 367.451 218.655 366.124C219.793 364.797 223.205 361.574 223.205 361.574L224.342 360.437L221.309 357.593Z" fill="#D2BDA7"/>
<path fill-rule="evenodd" clip-rule="evenodd" d="M358.469 252.028C357.803 251.249 356.462 251.706 355.481 254.775C354.993 256.305 352.956 260.102 352.956 260.102C352.956 260.102 352.438 258.996 352.425 257.668C352.406 255.864 351.67 254.49 351.257 254.921C350.048 256.182 350.562 262.616 350.256 265.421C350.226 265.704 350.237 266.56 350.237 266.56L354.251 266.788L356.352 264.289C356.352 264.289 359.577 260.79 359.85 258.814C360.159 256.575 359.134 252.808 358.469 252.028" fill="#D2BDA7"/>
<mask id="mask1" mask-type="alpha" maskUnits="userSpaceOnUse" x="142" y="428" width="50" height="39">
<path fill-rule="evenodd" clip-rule="evenodd" d="M142.559 428.75H191.673V466.557H142.559V428.75Z" fill="white"/>
</mask>
<g mask="url(#mask1)">
<path fill-rule="evenodd" clip-rule="evenodd" d="M174.585 444.332C172.663 443.146 169.582 441.001 168.425 440.191C168.47 439.719 168.517 439.273 168.555 438.99C168.74 437.609 168.627 433.876 166.635 433.165C164.645 432.454 145.162 428.567 143.745 428.757C142.454 428.931 141.898 431.46 143.745 432.88C145.595 434.302 156.277 439.149 156.683 439.28C157.323 439.48 160.807 440.983 161.659 441.981C161.713 442.042 161.784 442.098 161.874 442.148C163.877 444.028 168.529 448.4 169.113 449.044C169.86 449.864 178.021 457.786 180.096 459.689C182.171 461.591 188.653 466.557 188.653 466.557L191.673 453.382C191.673 453.382 177.151 445.915 174.585 444.332" fill="#D2BDA7"/>
</g>
<mask id="mask2" mask-type="alpha" maskUnits="userSpaceOnUse" x="321" y="515" width="23" height="54">
<path fill-rule="evenodd" clip-rule="evenodd" d="M321.2 515.204H343.249V568.061H321.2V515.204Z" fill="white"/>
</mask>
<g mask="url(#mask2)">
<path fill-rule="evenodd" clip-rule="evenodd" d="M342.964 563.739C342.253 562.032 335.998 554.071 335.998 554.071C335.998 554.071 332.7 549.809 332.752 548.405C332.754 548.361 332.742 548.324 332.742 548.282C332.93 542.928 333.447 529.265 333.968 525.061C334.602 519.94 333.968 515.204 333.968 515.204L321.2 515.962V517.099C321.2 517.099 323.58 536.436 323.797 540.037C323.865 541.173 323.891 542.421 323.893 543.599C323.505 544.079 320.459 547.972 321.462 550.931C322.152 552.969 328.037 558.479 328.037 558.479C328.037 558.479 336.316 566.539 338.402 567.439C339.64 567.975 340.689 568.289 341.827 567.862C342.964 567.434 343.675 565.446 342.964 563.739" fill="#D2BDA7"/>
</g>
<path fill-rule="evenodd" clip-rule="evenodd" d="M296.962 303.307C296.962 303.307 301.6 304.934 304.854 301.68C308.108 298.425 311.606 291.917 308.352 287.035C305.098 282.154 305.098 283.781 303.471 278.9C301.844 274.018 301.6 270.764 296.718 269.137C291.837 267.51 285.572 271.171 282.318 274.425C279.064 277.68 275.81 278.9 270.928 275.646C266.047 272.391 262.549 271.007 256.04 272.634C249.532 274.261 244.894 280.527 243.267 285.408C240.496 293.72 243.018 300.672 244.894 303.307C246.229 305.179 250.183 309.49 255.064 311.117C259.945 312.744 262.793 311.442 262.793 311.442L296.962 303.307Z" fill="#1D252D"/>
<path fill-rule="evenodd" clip-rule="evenodd" d="M285.44 306.502L295.203 309.756L296.83 304.875C296.83 304.875 295.083 299.349 294.329 293.719C294.126 292.204 287.598 289.617 287.522 291.017C286.965 301.233 285.44 306.502 285.44 306.502" fill="#D2BDA7"/>
<path fill-rule="evenodd" clip-rule="evenodd" d="M301.389 286.721C300.536 280.941 297.007 276.737 293.008 277.327C289.762 277.806 287.363 281.296 287.03 285.681C286.556 285.425 286.05 285.343 285.567 285.458C284.254 285.766 283.608 287.381 284.122 289.57C284.636 291.757 286.849 293.278 288.162 292.97C288.273 292.943 288.361 292.889 288.452 292.839C290.438 296.436 294.235 298.696 297.237 298.254C301.236 297.663 302.242 292.499 301.389 286.721" fill="#F4E4D4"/>
<path fill-rule="evenodd" clip-rule="evenodd" d="M293.708 303.388C285.572 303.388 275.81 300.133 267.674 305.015C259.538 309.896 236.759 335.93 236.759 335.93L217.233 357.082L223.742 365.218L262.793 339.184C261.304 343.898 259.587 348.547 258.328 353.327C257.248 357.429 255.814 364.243 254.488 369.932C253.52 372.979 255.606 373.952 256.943 376.611C256.357 375.449 258.779 369.089 259.25 367.664C259.35 367.361 259.46 367.044 259.703 366.837C259.879 366.686 260.106 366.611 260.328 366.539C269.521 363.594 279.166 362.026 288.809 361.726C297.782 361.446 308.991 361.521 317.373 365.181C320.282 366.451 321.546 368.791 322.682 371.6C323.256 373.018 323.774 374.929 324.643 376.035C326.629 369.906 327.57 372.394 326.239 366.235C324.143 356.531 320.136 337.497 318.115 327.794C318.115 327.794 329.505 326.167 336.013 321.286C342.522 316.404 349.03 306.642 352.284 293.625C355.538 280.608 357.166 267.591 357.166 267.591L347.403 264.337C347.403 264.337 340.894 282.235 337.64 287.116C334.386 291.998 322.996 298.506 314.861 300.133C306.725 301.76 301.844 303.388 293.708 303.388" fill="#0090D6"/>
<path fill-rule="evenodd" clip-rule="evenodd" d="M259.277 367.034L242.384 420.292C242.384 420.292 236.377 437.002 234.421 442.097C232.736 446.491 229.18 453.278 222.641 453.561C216.497 453.83 192.464 451.249 189.576 450.914C189.401 450.893 189.24 450.989 189.163 451.148L184.33 461.362C184.285 461.469 184.238 461.576 184.192 461.684L183.201 464.24C183.13 464.429 183.193 464.637 183.369 464.74C185.653 466.067 200.442 475.436 207.001 478.585C214.11 481.997 225.2 485.978 236.005 485.409C246.81 484.839 254.489 480.859 259.321 476.878C264.155 472.898 272.26 462.657 278.09 450.434C280.936 444.464 292.06 412.047 292.06 412.047C292.205 411.728 293.442 411.324 293.808 412.612C296.481 422.016 308.406 463.358 309.407 466.357C310.544 469.771 313.633 484.556 314.201 488.536C314.718 492.158 319.004 517.676 319.77 522.245C319.84 522.655 320.193 522.943 320.608 522.943H334.912C335.335 522.943 335.693 522.641 335.753 522.222C336.408 517.741 339.927 493.595 341.214 484.839C342.636 475.173 344.463 459.49 342.028 441.05C340.038 425.977 329.832 391.127 328.737 386.877C327.209 380.941 323.963 371.087 322.343 366.836C321.189 363.808 310.009 361.681 306.524 361.473C291.548 360.575 276.709 362.651 272.442 363.219C269.888 363.56 259.835 364.839 259.277 367.034" fill="#1D252D"/>
<mask id="mask3" mask-type="alpha" maskUnits="userSpaceOnUse" x="321" y="543" width="23" height="26">
<path fill-rule="evenodd" clip-rule="evenodd" d="M321.23 543.539H343.219V568.061H321.23V543.539Z" fill="white"/>
</mask>
<g mask="url(#mask3)">
<path fill-rule="evenodd" clip-rule="evenodd" d="M342.934 563.739C342.579 562.885 340.833 560.464 339.18 558.259C336.971 557.408 334.138 555.654 331.31 553.228C327.045 549.569 324.214 545.626 324.173 543.539C324.014 543.543 323.903 543.55 323.903 543.55C323.903 543.55 320.363 547.772 321.432 550.931C322.121 552.969 328.007 558.479 328.007 558.479C328.007 558.479 336.286 566.54 338.372 567.439C339.61 567.975 340.659 568.289 341.797 567.862C342.934 567.434 343.645 565.446 342.934 563.739" fill="#1A1919"/>
</g>
<mask id="mask4" mask-type="alpha" maskUnits="userSpaceOnUse" x="142" y="428" width="27" height="12">
<path fill-rule="evenodd" clip-rule="evenodd" d="M142.559 428.75H168.618V439.988H142.559V428.75Z" fill="white"/>
</mask>
<g mask="url(#mask4)">
<path fill-rule="evenodd" clip-rule="evenodd" d="M159.922 436.156C163.718 437.133 166.868 438.602 168.443 439.988C168.484 439.593 168.523 439.233 168.556 438.989C168.739 437.609 168.627 433.877 166.636 433.164C164.646 432.455 145.162 428.566 143.745 428.756C142.455 428.932 141.897 431.459 143.745 432.879C144.523 433.478 146.864 434.682 149.346 435.886C150.919 434.879 155.168 434.936 159.922 436.156" fill="#243437"/>
</g>
<path fill-rule="evenodd" clip-rule="evenodd" d="M525.418 293.687C523.284 287.146 511.2 275.772 506.792 273.356C502.386 270.94 498.119 269.801 493.855 269.518C489.588 269.233 483.988 271.696 481.627 273.071C479.8 274.134 475.371 277.479 473.239 277.764C471.106 278.049 469.116 276.485 466.983 274.493L466.9 274.454C468.657 273.314 469.825 271.343 469.825 269.091C469.825 265.557 466.962 262.694 463.429 262.694C459.895 262.694 457.031 265.557 457.031 269.091C457.031 269.907 457.197 270.68 457.477 271.397C456.247 271.557 454.83 271.939 453.619 272.787C450.775 274.778 449.425 280.532 449.425 280.532C449.425 280.532 463.855 308.474 465.278 311.886C466.698 315.297 503.095 334.064 506.366 333.924C509.636 333.781 511.362 333.109 513.474 331.932C516.032 330.507 520.303 325.788 522.573 321.411C525.084 316.569 525.71 314.371 526.838 310.038C527.788 306.395 527.551 300.228 525.418 293.687" fill="#1D252D"/>
<path fill-rule="evenodd" clip-rule="evenodd" d="M454.733 292.563C454.733 292.563 455.727 300.81 454.733 303.369C453.737 305.928 453.311 307.207 454.733 308.203C456.155 309.199 456.723 309.908 459.424 309.199C462.125 308.488 463.311 307.351 464.426 305.928C465.539 304.506 466.392 301.024 466.392 301.024C466.392 301.024 462.268 297.398 461.984 295.549C461.699 293.701 460.99 288.014 460.99 288.014L454.733 292.563Z" fill="#D2BDA7"/>
<path fill-rule="evenodd" clip-rule="evenodd" d="M464.577 283.126C464.113 283.022 463.632 283.175 463.189 283.509C462.341 278.969 459.614 275.645 456.178 275.645C452.016 275.645 448.643 280.108 448.643 286.115C448.643 292.121 450.47 297.398 454.632 297.398C457.943 297.398 461.572 294.309 462.919 290.022C462.95 290.032 462.977 290.053 463.008 290.059C464.178 290.325 465.478 288.987 465.911 287.072C466.344 285.157 465.747 283.39 464.577 283.126" fill="#F4E4D4"/>
<path fill-rule="evenodd" clip-rule="evenodd" d="M456.341 302.369C456.341 302.369 439.281 306.918 423.073 316.302C406.864 325.686 374.733 342.178 374.733 342.178L379.307 352.85C379.307 352.85 390.781 348.672 396.06 346.729C404.163 343.743 420.229 342.746 423.358 343.031C426.485 343.315 426.7 345.104 427.053 349.572C427.44 354.466 426.321 365.033 427.575 369.597C428.216 371.927 429.612 372.319 430.75 372.888C431.887 373.456 433.124 367.455 434.162 365.779C435.989 362.828 438.996 361.69 451.507 359.985C464.019 358.278 484.601 356.79 489.433 358.348C491.449 358.999 491.601 359.808 491.601 359.808V365.272C491.601 366.375 492.541 367.234 493.643 367.146C495.553 366.992 498.409 366.435 500.701 364.925C505.181 361.975 506.954 351.562 506.671 346.16C506.388 340.758 506.146 324.833 506.692 319.429C507.239 314.027 508.093 312.179 512.075 307.062C516.055 301.943 523.626 293.514 528.567 288.721C533.641 283.8 539.962 277.305 539.962 277.305L535.097 269.443C535.097 269.443 502.616 282.93 498.583 285.309C495.252 287.273 467.51 300.096 467.51 300.096L456.341 302.369Z" fill="#FD574C"/>
<path fill-rule="evenodd" clip-rule="evenodd" d="M458.176 443.447C458.176 441.886 459.264 433.124 460.54 422.589C460.906 428.64 461.667 435.816 462.206 439.768C462.561 442.366 462.626 443.545 463.561 447.217C461.119 448.262 461.381 448.252 460.862 448.297C457.735 448.582 458.176 446.861 458.176 443.447V443.447ZM539.406 429.026C539.406 429.026 513.389 444.176 502.158 443.75C498.045 443.593 498.035 434.683 498.035 434.651C498.024 420.021 497.487 405.385 496.187 390.811C495.58 384.018 494.615 377.462 493.375 370.786C492.638 366.818 492.531 362.774 491.206 358.926C490.054 355.579 473.902 356.79 469.526 356.743C456.628 356.604 435.703 361.121 433.445 364.633C432.173 366.611 430.887 379.285 430.576 381.12C426.997 402.221 424.348 424.353 425.282 445.832C425.78 457.289 429.255 470.078 439.617 475.962C451.727 482.838 464.215 477.636 475.353 471.111C479.108 474.655 483.635 476.857 489.496 477.393C502.331 478.573 512.448 470.381 523.198 464.08C531.814 459.033 551.777 442.249 551.777 442.249L539.406 429.026Z" fill="#1D252D"/>
<path fill-rule="evenodd" clip-rule="evenodd" d="M579.618 314.447C579.618 314.447 576.718 312.385 574.229 310.135C571.677 307.826 571.781 306.581 572.221 304.204C572.699 301.625 573.273 300.089 573.555 299.376C574.372 297.315 575.462 297.86 575.888 299.092C576.139 299.816 577.667 304.922 578.234 305.489C578.802 306.059 579.655 306.275 579.655 306.275C579.655 306.275 580.15 301.907 580.177 301.651C580.249 300.989 580.866 300.704 581.362 301.296C581.995 302.048 582.665 307.743 582.808 308.643C582.956 309.578 583.708 312.385 583.708 312.385L580.399 315.727L579.618 314.447Z" fill="#D2BDA7"/>
<path fill-rule="evenodd" clip-rule="evenodd" d="M717.943 364.033C717.943 364.033 723.489 369.932 724.911 371.426C726.333 372.918 727.116 373.346 727.469 373.346C727.825 373.346 728.215 372.99 727.753 372.083C727.244 371.083 725.462 368.743 725.622 368.689C726.035 368.551 726.554 368.881 727.488 369.205C728.518 369.56 729.958 370.556 730.952 371.408C731.948 372.262 733.068 373.346 733.655 373.346C733.992 373.346 735.147 372.633 734.438 371.141C733.725 369.648 732.161 365.311 730.101 364.033C728.038 362.754 723.276 362.469 722.067 361.899C720.859 361.331 718.796 359.768 718.796 359.768L716.665 362.682L717.943 364.033Z" fill="#D2BDA7"/>
<path fill-rule="evenodd" clip-rule="evenodd" d="M618.958 544.587C618.797 544.291 618.676 543.894 618.587 543.445C618.556 542.321 618.582 540.637 618.766 538.18C619.192 532.493 620.897 515.432 620.897 515.432L607.675 514.721C607.675 514.721 611.087 541.45 611.087 543.868V545.546C610.663 545.969 610.225 546.377 609.776 546.755C606.081 549.883 599.602 560.024 599.13 562.435C598.723 564.515 599.169 565.24 600.083 566.008C600.781 566.594 602.822 566.352 603.982 565.631C605.404 564.747 618.579 552.55 619.599 551.411C620.619 550.274 621.042 549.423 620.853 548.378C620.665 547.335 619.81 546.152 618.958 544.587" fill="#D2BDA7"/>
<path fill-rule="evenodd" clip-rule="evenodd" d="M620.853 548.379C620.665 547.336 619.81 546.153 618.958 544.587C618.87 544.426 618.797 544.231 618.732 544.018C616.337 546.701 611.961 549.858 606.582 552.557C605.703 552.998 604.834 553.4 603.975 553.782C601.51 557.367 599.392 561.094 599.13 562.435C598.723 564.515 599.169 565.24 600.083 566.008C600.781 566.594 602.822 566.352 603.982 565.631C605.404 564.747 618.579 552.549 619.599 551.411C620.617 550.274 621.042 549.423 620.853 548.379" fill="#243437"/>
<path fill-rule="evenodd" clip-rule="evenodd" d="M750.978 536.824C750.55 533.128 749.983 527.725 748.562 525.308C747.667 523.787 744.919 523.055 743.002 522.721C741.671 521.462 739.582 519.256 738.357 516.807C736.461 513.016 727.553 495.007 727.553 495.007L717.125 505.433L737.9 526.584L737.898 526.587C737.898 526.587 739.746 530.567 741.878 537.116C744.011 543.664 747.661 550.709 748.845 551.611C749.506 552.112 751.689 551.8 751.831 550.189C751.959 548.744 751.405 540.52 750.978 536.824" fill="#D2BDA7"/>
<path fill-rule="evenodd" clip-rule="evenodd" d="M750.978 536.824C750.55 533.128 749.982 527.725 748.562 525.308C747.688 523.823 745.046 523.092 743.137 522.747C744.284 525.12 745.137 529.067 745.331 533.577C745.503 537.554 745.122 541.139 744.388 543.622C746.183 547.696 748.058 551.012 748.845 551.611C749.506 552.112 751.689 551.8 751.831 550.189C751.959 548.744 751.405 540.52 750.978 536.824" fill="#243437"/>
<path fill-rule="evenodd" clip-rule="evenodd" d="M634.347 306.225C634.347 306.225 641.077 298.737 642.026 297.126C642.973 295.516 642.403 292.198 642.026 290.87C641.645 289.544 640.034 284.616 640.415 281.203C640.792 277.79 642.026 275.517 643.257 274.379C644.489 273.242 647.237 271.726 649.512 271.062C651.788 270.398 654.061 268.312 656.242 267.554C658.422 266.797 661.836 266.512 663.256 266.89C664.678 267.27 666.668 268.027 668.469 270.303C670.269 272.576 670.176 273.525 670.459 275.138C670.744 276.748 670.933 282.624 670.459 284.235C669.984 285.849 670.176 288.595 670.365 289.64C670.554 290.681 672.261 293.051 674.345 293.714L676.431 294.378C676.431 294.378 690.079 294.282 692.544 294.473C695.008 294.663 698.706 295.893 700.411 298.358C702.117 300.823 702.781 301.487 703.539 303.477C704.297 305.467 704.676 309.258 704.77 310.965C704.866 312.672 704.582 315.703 703.824 317.506C703.064 319.306 701.075 321.771 699.842 323.097C698.61 324.425 692.639 329.732 692.639 329.732L634.347 306.225Z" fill="#1D252D"/>
<path fill-rule="evenodd" clip-rule="evenodd" d="M648.611 288.014C648.611 288.014 648.327 291.641 647.333 294.695C646.338 297.752 643.281 302.943 643.281 302.943C643.281 302.943 644.986 305.644 645.946 306.142C646.906 306.638 651.882 306.994 651.882 306.994L654.441 306L655.294 304.222C655.294 304.222 654.868 300.597 654.868 298.891C654.868 297.185 654.939 292.066 654.939 292.066L648.611 288.014Z" fill="#D2BDA7"/>
<path fill-rule="evenodd" clip-rule="evenodd" d="M654.263 274.401C650.881 274.401 648.061 277.973 647.431 282.706C647.093 282.555 646.738 282.501 646.393 282.574C645.319 282.805 644.781 284.073 645.191 285.975C645.586 287.819 647.156 289.135 648.232 289.005C649.847 292.726 653.279 295.477 656.11 295.477C659.957 295.477 661.691 289.48 661.691 283.788C661.691 278.095 658.112 274.401 654.263 274.401" fill="#F4E4D4"/>
<path fill-rule="evenodd" clip-rule="evenodd" d="M698 430.166C693.093 416.212 684.126 382.583 683.167 378.578C682.209 374.574 681.251 369.878 681.251 369.878H649.297V369.891L619.863 370.57C619.863 370.57 611.784 393.628 607.949 412.405C604.117 431.183 602.794 454.235 602.747 470.395C602.69 489.867 606.169 516.786 606.169 516.786H623.011C623.011 516.786 629.119 475.779 630.078 469.567C631.036 463.353 636.814 445.128 639.827 435.601C642.33 427.686 647.911 414.199 650.475 407.686C652.659 414.912 655.733 426.582 663.297 440.176C670.743 453.559 680.925 465.976 690.782 477.989C700.641 490 716.95 507.026 716.95 507.026L730.079 497.456C730.079 497.456 700.911 438.443 698 430.166" fill="#1D252D"/>
<path fill-rule="evenodd" clip-rule="evenodd" d="M650.151 300.945C647.733 300.974 645.294 301.155 642.85 301.471C638.47 302.034 633.885 303.363 630.055 305.589C621.904 310.329 614.132 319.807 611.289 321.323C608.445 322.84 604.084 322.176 601.809 321.322C599.06 320.292 596.484 318.105 594.081 316.465C591.43 314.657 585.605 310.75 584.481 311.489C582.935 312.506 580.019 313.864 578.218 315.062C576.363 316.295 584.559 333.186 586.243 335.66C591.028 342.689 597.694 347.046 606.076 348.337C609.773 348.906 614.037 348.478 617.023 347.484C619.306 346.722 622.253 345.461 623.515 344.912C623.802 344.786 624.112 345.009 624.094 345.32L623.562 355.302C621.787 366.839 608.992 370.962 620.399 378.992C621.971 380.096 624.049 375.778 625.98 375.35C627.261 375.065 628.964 375.208 629.962 375.776C630.956 376.346 637.639 379.332 639.061 379.473C640.483 379.616 643.752 378.477 644.747 377.766C645.742 377.055 648.444 375.492 651.43 375.776C654.414 376.061 656.264 378.051 658.537 378.619C660.814 379.188 663.087 379.047 664.509 378.194C667.568 376.359 672.415 374.899 675.506 377.223C678.517 379.486 686.763 373.947 683.492 369.255C680.355 364.756 676.59 345.66 676.258 342.001C676.219 341.568 676.689 341.285 677.052 341.521C682.739 345.239 713.937 365.599 714.84 365.538C716.412 365.436 721.372 360.577 722.825 359.123C723.056 358.89 723.067 358.534 722.851 358.286C719.484 354.466 694.666 326.276 692.944 324.024C688.423 318.113 681.812 312.932 675.868 308.567C668.253 302.971 659.359 300.839 650.151 300.945" fill="#0090D6"/>
<path fill-rule="evenodd" clip-rule="evenodd" d="M800.81 291.424C800.81 291.424 801.473 296.636 800.81 299.291C800.147 301.945 799.673 306.968 799.673 306.968C799.673 306.968 802.895 307.536 803.276 307.632C803.653 307.728 810.858 306.306 810.858 306.306L811.805 303.082C811.805 303.082 809.625 299.48 809.436 298.531C809.247 297.584 808.108 293.889 807.825 291.424C807.54 288.959 807.255 286.115 807.255 286.115L800.81 291.424Z" fill="#D2BDA7"/>
<path fill-rule="evenodd" clip-rule="evenodd" d="M808.686 281.015C808.11 280.766 807.537 281.065 806.997 281.718C806.33 276.752 803.645 273.035 800.431 273.035C796.715 273.035 793.241 277.079 793.241 283.203C793.241 289.326 794.87 295.216 798.586 295.216C801.429 295.216 804.929 292.307 806.424 288.203C807.399 288.386 808.721 286.877 809.476 285.135C810.279 283.286 809.67 281.443 808.686 281.015" fill="#F4E4D4"/>
<path fill-rule="evenodd" clip-rule="evenodd" d="M802.422 304.673L800.526 303.633C800.526 303.633 788.015 302.877 783.466 301.17C778.916 299.463 771.523 293.587 765.836 285.247C760.149 276.905 747.067 257.947 747.067 257.947L736.912 261.227C736.912 261.227 739.355 275.186 742.114 285.815C745.43 298.588 752.167 310.138 755.6 318.988C759.201 328.278 766.214 351.215 767.351 356.523C768.49 361.83 770.953 373.015 771.427 374.341C771.9 375.669 773.418 376.855 774.744 376.995C775.522 377.078 777.587 376.995 777.587 376.995C777.587 376.995 778.157 369.224 778.916 367.706C779.675 366.191 784.792 364.863 787.635 364.863C790.479 364.863 821.568 362.21 823.273 362.21C824.98 362.21 834.079 361.642 835.216 362.589C836.354 363.537 838.251 366.759 838.251 368.843V373.015C838.251 373.015 842.989 371.689 845.264 370.55C847.539 369.413 851.709 367.328 851.898 363.349C852.088 359.365 853.225 340.598 854.742 334.343C856.258 328.089 862.703 306.857 864.031 301.359C865.359 295.861 868.662 286.926 870.18 279.911C871.695 272.899 872.372 262.877 872.372 262.877L860.891 259.275C860.891 259.275 858.609 264.595 856.828 267.994C853.118 275.072 845.965 286.116 840.846 291.122C836.534 295.341 830.477 297.486 826.685 298.622C822.894 299.759 811.521 301.359 811.521 301.359L809.496 303.534C807.676 305.488 804.762 305.957 802.422 304.673" fill="#FD574C"/>
<path fill-rule="evenodd" clip-rule="evenodd" d="M782.111 364.327C780.499 365.186 779.117 366.435 778.792 368.019C776.896 377.213 770.777 407.445 769.573 414.919C768.151 423.734 766.729 438.803 766.729 445.629C766.729 452.453 769.003 470.368 770.995 479.182C772.985 487.997 785.496 522.688 785.496 522.688L786.194 524.595L802.273 522.688C802.273 522.688 801.988 491.409 802.273 481.173C802.556 470.937 806.035 429.587 806.324 426.222C806.681 422.099 809.097 411.791 809.097 411.791C809.097 411.791 811.372 418.331 813.362 424.302C815.353 430.274 825.358 470.779 833.71 488.661C836.673 495.005 847.661 517.286 847.661 517.286L864.26 513.019C864.26 513.019 856.3 450.178 855.446 444.775C854.593 439.373 842.935 383.356 841.797 379.091C840.66 374.825 838.331 364.401 836.003 362.275C835.111 361.463 815.495 358.752 796.869 360.893C794.079 361.212 785.85 362.335 782.111 364.327" fill="#1D252D"/>
<path fill-rule="evenodd" clip-rule="evenodd" d="M728.322 252.441C728.322 259.181 722.858 264.644 716.117 264.644C709.379 264.644 703.915 259.181 703.915 252.441C703.915 245.703 709.379 240.237 716.117 240.237C722.858 240.237 728.322 245.703 728.322 252.441ZM866.627 279.288C869.322 279.288 871.508 277.104 871.508 274.407C871.508 271.709 869.322 269.525 866.627 269.525C863.929 269.525 861.745 271.709 861.745 274.407C861.745 277.104 863.929 279.288 866.627 279.288ZM787.71 336.237C793.553 336.237 798.288 331.5 798.288 325.661C798.288 319.819 793.553 315.085 787.71 315.085C781.87 315.085 777.135 319.819 777.135 325.661C777.135 331.5 781.87 336.237 787.71 336.237ZM866.627 354.95C866.627 356.297 865.534 357.39 864.187 357.39C862.839 357.39 861.745 356.297 861.745 354.95C861.745 353.602 862.839 352.508 864.187 352.508C865.534 352.508 866.627 353.602 866.627 354.95ZM886.967 318.339C889.212 318.339 891.034 316.518 891.034 314.27C891.034 312.025 889.212 310.203 886.967 310.203C884.719 310.203 882.898 312.025 882.898 314.27C882.898 316.518 884.719 318.339 886.967 318.339ZM848.729 319.153C848.729 321.396 846.907 323.22 844.662 323.22C842.415 323.22 840.593 321.396 840.593 319.153C840.593 316.909 842.415 315.085 844.662 315.085C846.907 315.085 848.729 316.909 848.729 319.153ZM829.204 388.305C831.9 388.305 834.084 386.121 834.084 383.422C834.084 380.726 831.9 378.542 829.204 378.542C826.508 378.542 824.322 380.726 824.322 383.422C824.322 386.121 826.508 388.305 829.204 388.305ZM795.034 397.256C795.034 399.501 793.212 401.322 790.966 401.322C788.72 401.322 786.898 399.501 786.898 397.256C786.898 395.01 788.72 393.186 790.966 393.186C793.212 393.186 795.034 395.01 795.034 397.256ZM915.44 357.39C919.933 357.39 923.576 353.744 923.576 349.253C923.576 344.761 919.933 341.119 915.44 341.119C910.948 341.119 907.305 344.761 907.305 349.253C907.305 353.744 910.948 357.39 915.44 357.39ZM871.508 411.085C871.508 412.883 870.052 414.339 868.254 414.339C866.458 414.339 865 412.883 865 411.085C865 409.287 866.458 407.831 868.254 407.831C870.052 407.831 871.508 409.287 871.508 411.085ZM821.881 298.814C825.026 298.814 827.576 296.264 827.576 293.12C827.576 289.976 825.026 287.424 821.881 287.424C818.736 287.424 816.186 289.976 816.186 293.12C816.186 296.264 818.736 298.814 821.881 298.814ZM693.339 380.17C696.483 380.17 699.034 377.621 699.034 374.473C699.034 371.328 696.483 368.78 693.339 368.78C690.194 368.78 687.644 371.328 687.644 374.473C687.644 377.621 690.194 380.17 693.339 380.17Z" fill="white"/>
</svg>
