<svg width="127" height="230" viewBox="0 0 127 230" fill="none" xmlns="http://www.w3.org/2000/svg">
<rect width="126.5" height="230" rx="11.5" fill="#1D252D"/>
<path fill-rule="evenodd" clip-rule="evenodd" d="M9.58325 17.25C9.58325 13.0158 13.0157 9.58331 17.2499 9.58331L31.6249 9.58331C34.2713 9.58331 36.4166 11.7286 36.4166 14.375V14.375C36.4166 17.0213 38.5619 19.1666 41.2083 19.1666H85.2916C87.9379 19.1666 90.0833 17.0213 90.0833 14.375V14.375C90.0833 11.7286 92.2286 9.58331 94.8749 9.58331L109.25 9.58331C113.484 9.58331 116.917 13.0158 116.917 17.25V212.75C116.917 216.984 113.484 220.417 109.25 220.417H17.2499C13.0157 220.417 9.58325 216.984 9.58325 212.75V17.25Z" fill="#FAFAFE"/>
</svg>
