<svg width="909" height="518" viewBox="0 0 909 518" fill="none" xmlns="http://www.w3.org/2000/svg">
<g filter="url(#filter0_i)">
<path fill-rule="evenodd" clip-rule="evenodd" d="M131.256 24.1477C131.256 10.8113 142.067 0 155.404 0H804.551C817.888 0 828.699 10.8113 828.699 24.1477V460.227C828.699 473.564 817.888 484.375 804.551 484.375H155.404C142.067 484.375 131.256 473.564 131.256 460.227V24.1477Z" fill="url(#paint0_linear)"/>
</g>
<g filter="url(#filter1_i)">
<path fill-rule="evenodd" clip-rule="evenodd" d="M134.807 24.858C134.807 13.0905 144.346 3.55115 156.113 3.55115H803.841C815.608 3.55115 825.148 13.0905 825.148 24.858V459.517C825.148 471.284 815.608 480.824 803.841 480.824H156.113C144.346 480.824 134.807 471.284 134.807 459.517V24.858Z" fill="black"/>
</g>
<path d="M135.162 24.858C135.162 13.2867 144.542 3.90626 156.113 3.90626H803.841C815.412 3.90626 824.792 13.2867 824.792 24.858V459.517C824.792 471.088 815.412 480.469 803.841 480.469H156.113C144.542 480.469 135.162 471.088 135.162 459.517V24.858Z" stroke="black" stroke-width="0.710227"/>
<g filter="url(#filter2_i)">
<path fill-rule="evenodd" clip-rule="evenodd" d="M479.977 453.835H821.363C817.088 466.63 805.01 475.852 790.778 475.852H479.977H169.177C154.944 475.852 142.866 466.63 138.592 453.835H278.689H479.977Z" fill="url(#paint1_linear)"/>
</g>
<path d="M482.108 19.1761C482.108 20.3529 481.154 21.3068 479.978 21.3068C478.801 21.3068 477.847 20.3529 477.847 19.1761C477.847 17.9994 478.801 17.0455 479.978 17.0455C481.154 17.0455 482.108 17.9994 482.108 19.1761Z" fill="#070B0C" stroke="#141416" stroke-width="1.42045"/>
<path fill-rule="evenodd" clip-rule="evenodd" d="M479.978 20.5966C480.37 20.5966 480.688 20.2786 480.688 19.8864C480.688 19.4941 480.37 19.1761 479.978 19.1761C479.586 19.1761 479.268 19.4941 479.268 19.8864C479.268 20.2786 479.586 20.5966 479.978 20.5966Z" fill="#232428"/>
<rect x="151.852" y="32.6705" width="655.54" height="410.511" rx="0.710227" fill="white"/>
<mask id="mask0" mask-type="alpha" maskUnits="userSpaceOnUse" x="151" y="32" width="657" height="412">
<rect x="151.852" y="32.6705" width="655.54" height="410.511" rx="0.710227" fill="white"/>
</mask>
<g mask="url(#mask0)">
<rect x="256.852" y="87.6705" width="222" height="14" fill="#E3E8EE"/>
<rect x="562" y="156" width="222" height="14" fill="#E3E8EE"/>
<rect x="562" y="212" width="222" height="14" fill="#E3E8EE"/>
<rect x="562" y="268" width="222" height="14" fill="#E3E8EE"/>
<rect x="256.852" y="105.67" width="92" height="14" fill="#E3E8EE"/>
<rect x="599" y="174" width="92" height="14" fill="#E3E8EE"/>
<rect x="645" y="230" width="92" height="14" fill="#E3E8EE"/>
<rect x="599" y="286" width="92" height="14" fill="#E3E8EE"/>
<rect x="699" y="286" width="48" height="14" fill="#E3E8EE"/>
<path fill-rule="evenodd" clip-rule="evenodd" d="M264.7 189.564C261.508 195.351 256.852 216.102 256.852 216.102L276.941 227.561C277.507 225.613 279.05 221.176 279.05 221.176C287.346 240.271 287.673 251.94 284.702 268.304C283.65 274.104 281.769 280.937 279.693 288.483C275.911 302.23 271.478 318.342 270.211 334.875C268.053 363.051 266.927 382.428 266.927 382.428C275.25 386.015 312.009 387.379 319.654 387.627V387.669C319.654 387.669 319.897 387.663 320.352 387.649C320.806 387.663 321.049 387.669 321.049 387.669V387.627C328.694 387.379 365.453 386.015 373.776 382.428C373.776 382.428 372.65 363.051 370.492 334.875C369.225 318.342 364.792 302.23 361.01 288.483C358.934 280.937 357.053 274.104 356.001 268.304C353.03 251.94 353.358 240.271 361.654 221.176C361.654 221.176 363.196 225.613 363.762 227.561L383.852 216.102C383.852 216.102 379.195 195.351 376.003 189.564C373.277 184.62 367.665 177.041 361.038 175.723C350.622 173.651 341.13 171.67 341.13 171.67C341.13 171.67 333.197 180.355 320.352 180.662C307.506 180.355 299.573 171.67 299.573 171.67C299.573 171.67 290.081 173.651 279.665 175.723C273.038 177.041 267.426 184.62 264.7 189.564Z" fill="#E3E8EE"/>
<mask id="mask1" mask-type="alpha" maskUnits="userSpaceOnUse" x="256" y="171" width="128" height="217">
<path fill-rule="evenodd" clip-rule="evenodd" d="M264.7 189.564C261.508 195.351 256.852 216.102 256.852 216.102L276.941 227.561C277.507 225.613 279.05 221.176 279.05 221.176C287.346 240.271 287.673 251.94 284.702 268.304C283.65 274.104 281.769 280.937 279.693 288.483C275.911 302.23 271.478 318.342 270.211 334.875C268.053 363.051 266.927 382.428 266.927 382.428C275.25 386.015 312.009 387.379 319.654 387.627V387.669C319.654 387.669 319.897 387.663 320.352 387.649C320.806 387.663 321.049 387.669 321.049 387.669V387.627C328.694 387.379 365.453 386.015 373.776 382.428C373.776 382.428 372.65 363.051 370.492 334.875C369.225 318.342 364.792 302.23 361.01 288.483C358.934 280.937 357.053 274.104 356.001 268.304C353.03 251.94 353.358 240.271 361.654 221.176C361.654 221.176 363.196 225.613 363.762 227.561L383.852 216.102C383.852 216.102 379.195 195.351 376.003 189.564C373.277 184.62 367.665 177.041 361.038 175.723C350.622 173.651 341.13 171.67 341.13 171.67C341.13 171.67 333.197 180.355 320.352 180.662C307.506 180.355 299.573 171.67 299.573 171.67C299.573 171.67 290.081 173.651 279.665 175.723C273.038 177.041 267.426 184.62 264.7 189.564Z" fill="white"/>
</mask>
<g mask="url(#mask1)">
</g>
<g filter="url(#filter3_d)">
<rect x="325" y="65" width="326" height="346" rx="4" fill="white"/>
</g>
<g clip-path="url(#clip0)">
<g filter="url(#filter4_d)">
<rect x="412.852" y="366" width="150" height="22.3881" rx="1.79104" fill="#1D252D"/>
</g>
<path d="M457.894 377.076C457.894 376.877 457.824 376.726 457.684 376.621C457.544 376.514 457.292 376.402 456.928 376.285C456.564 376.166 456.276 376.05 456.064 375.935C455.486 375.623 455.196 375.202 455.196 374.672C455.196 374.397 455.273 374.152 455.427 373.938C455.584 373.721 455.806 373.552 456.095 373.431C456.387 373.309 456.714 373.249 457.075 373.249C457.439 373.249 457.763 373.315 458.047 373.448C458.332 373.579 458.552 373.764 458.709 374.004C458.867 374.244 458.946 374.517 458.946 374.823H457.897C457.897 374.59 457.824 374.409 457.677 374.281C457.53 374.15 457.323 374.085 457.057 374.085C456.801 374.085 456.602 374.14 456.459 374.249C456.317 374.356 456.246 374.499 456.246 374.676C456.246 374.842 456.329 374.98 456.494 375.092C456.662 375.204 456.908 375.309 457.232 375.407C457.829 375.587 458.264 375.809 458.537 376.075C458.81 376.341 458.946 376.672 458.946 377.069C458.946 377.509 458.78 377.856 458.446 378.108C458.113 378.357 457.664 378.482 457.099 378.482C456.708 378.482 456.351 378.411 456.029 378.269C455.707 378.124 455.461 377.927 455.291 377.677C455.123 377.428 455.039 377.139 455.039 376.81H456.092C456.092 377.372 456.428 377.653 457.099 377.653C457.349 377.653 457.544 377.603 457.684 377.502C457.824 377.4 457.894 377.258 457.894 377.076ZM463.172 376.205H461.157V377.569H463.522V378.412H460.108V373.319H463.515V374.169H461.157V375.383H463.172V376.205ZM465.635 377.569H467.863V378.412H464.585V373.319H465.635V377.569ZM471.981 376.205H469.966V377.569H472.33V378.412H468.916V373.319H472.323V374.169H469.966V375.383H471.981V376.205ZM477.392 376.715C477.352 377.263 477.15 377.695 476.783 378.01C476.42 378.324 475.939 378.482 475.342 378.482C474.689 378.482 474.175 378.263 473.8 377.824C473.426 377.383 473.24 376.779 473.24 376.012V375.701C473.24 375.211 473.326 374.78 473.499 374.407C473.671 374.033 473.917 373.748 474.237 373.55C474.559 373.349 474.932 373.249 475.356 373.249C475.944 373.249 476.417 373.406 476.776 373.721C477.136 374.036 477.343 374.478 477.399 375.047H476.35C476.324 374.718 476.232 374.48 476.073 374.333C475.917 374.184 475.678 374.109 475.356 374.109C475.006 374.109 474.744 374.235 474.569 374.487C474.397 374.737 474.308 375.125 474.303 375.652V376.037C474.303 376.587 474.386 376.989 474.552 377.244C474.72 377.498 474.983 377.625 475.342 377.625C475.666 377.625 475.908 377.551 476.066 377.404C476.227 377.255 476.319 377.026 476.343 376.715H477.392ZM482.258 374.169H480.698V378.412H479.648V374.169H478.109V373.319H482.258V374.169ZM488.953 374.169H487.393V378.412H486.344V374.169H484.805V373.319H488.953V374.169ZM494.148 378.412H493.099V376.229H491.052V378.412H490.003V373.319H491.052V375.383H493.099V373.319H494.148V378.412ZM496.632 378.412H495.582V373.319H496.632V378.412ZM500.697 377.076C500.697 376.877 500.627 376.726 500.487 376.621C500.347 376.514 500.095 376.402 499.731 376.285C499.367 376.166 499.079 376.05 498.867 375.935C498.289 375.623 498 375.202 498 374.672C498 374.397 498.077 374.152 498.231 373.938C498.387 373.721 498.609 373.552 498.899 373.431C499.19 373.309 499.517 373.249 499.878 373.249C500.242 373.249 500.566 373.315 500.851 373.448C501.135 373.579 501.356 373.764 501.512 374.004C501.67 374.244 501.75 374.517 501.75 374.823H500.7C500.7 374.59 500.627 374.409 500.48 374.281C500.333 374.15 500.127 374.085 499.861 374.085C499.604 374.085 499.405 374.14 499.262 374.249C499.12 374.356 499.049 374.499 499.049 374.676C499.049 374.842 499.132 374.98 499.297 375.092C499.465 375.204 499.711 375.309 500.036 375.407C500.633 375.587 501.068 375.809 501.34 376.075C501.613 376.341 501.75 376.672 501.75 377.069C501.75 377.509 501.583 377.856 501.249 378.108C500.916 378.357 500.467 378.482 499.903 378.482C499.511 378.482 499.154 378.411 498.832 378.269C498.51 378.124 498.264 377.927 498.094 377.677C497.926 377.428 497.842 377.139 497.842 376.81H498.895C498.895 377.372 499.231 377.653 499.903 377.653C500.152 377.653 500.347 377.603 500.487 377.502C500.627 377.4 500.697 377.258 500.697 377.076ZM507.784 377.076C507.784 376.877 507.714 376.726 507.574 376.621C507.434 376.514 507.182 376.402 506.818 376.285C506.455 376.166 506.167 376.05 505.954 375.935C505.376 375.623 505.087 375.202 505.087 374.672C505.087 374.397 505.164 374.152 505.318 373.938C505.474 373.721 505.697 373.552 505.986 373.431C506.277 373.309 506.604 373.249 506.965 373.249C507.329 373.249 507.653 373.315 507.938 373.448C508.222 373.579 508.443 373.764 508.599 374.004C508.758 374.244 508.837 374.517 508.837 374.823H507.787C507.787 374.59 507.714 374.409 507.567 374.281C507.42 374.15 507.214 374.085 506.948 374.085C506.691 374.085 506.492 374.14 506.35 374.249C506.207 374.356 506.136 374.499 506.136 374.676C506.136 374.842 506.219 374.98 506.385 375.092C506.553 375.204 506.799 375.309 507.123 375.407C507.72 375.587 508.155 375.809 508.428 376.075C508.7 376.341 508.837 376.672 508.837 377.069C508.837 377.509 508.67 377.856 508.337 378.108C508.003 378.357 507.554 378.482 506.99 378.482C506.598 378.482 506.241 378.411 505.919 378.269C505.598 378.124 505.352 377.927 505.181 377.677C505.013 377.428 504.929 377.139 504.929 376.81H505.982C505.982 377.372 506.318 377.653 506.99 377.653C507.239 377.653 507.434 377.603 507.574 377.502C507.714 377.4 507.784 377.258 507.784 377.076ZM511.114 378.412H510.065V373.319H511.114V378.412ZM513.65 377.569H516.218V378.412H512.339V377.796L514.857 374.169H512.342V373.319H516.162V373.92L513.65 377.569ZM520.395 376.205H518.38V377.569H520.745V378.412H517.33V373.319H520.738V374.169H518.38V375.383H520.395V376.205Z" fill="white"/>
</g>
<path fill-rule="evenodd" clip-rule="evenodd" d="M486.717 281.89C486.624 282.683 486.509 283.637 486.377 284.732C485.648 290.785 484.402 301.125 483.398 312.086C483.13 315.015 482.994 317.256 482.88 319.14C482.573 324.184 482.423 326.67 480.305 332.94C479.052 336.647 461.767 330.667 461.331 323.581C461.086 319.584 460.576 315.022 459.642 310.17C459.159 307.664 458.599 305.138 458.029 302.567C455.538 291.325 452.852 279.21 455.591 264.129C456.942 256.683 457.958 253.048 459.304 248.228C460.082 245.441 460.971 242.259 462.1 237.716C465.18 225.312 466.98 213.194 459.642 200.22C459.642 200.22 457.222 210.194 451.183 221.239C450.901 221.756 450.548 222.454 450.1 223.34C447.47 228.55 441.573 240.231 427.479 259.43C426.59 260.641 426.317 262.304 425.999 264.242C425.693 266.102 425.346 268.216 424.373 270.428C424.196 270.831 424.155 271.3 424.112 271.786C424.024 272.795 423.929 273.876 422.595 274.597C421.56 275.156 421.378 276.909 421.179 278.826C420.998 280.57 420.802 282.449 419.939 283.69C419.873 283.784 419.808 283.878 419.742 283.973C417.99 286.497 416.16 289.133 413.424 289.444C411.107 289.708 412.086 285.393 413.088 280.981C413.313 279.99 413.539 278.994 413.729 278.044C414.506 274.165 416.889 267.554 418.861 262.081C419.523 260.246 420.138 258.539 420.631 257.105C422.595 251.397 432.621 223.637 437.506 218.29C438.542 217.157 444.568 204.993 446.935 193.085C449.144 181.97 453.806 171.752 464.098 171.356C464.186 171.352 464.275 171.349 464.366 171.346C469.061 171.168 477.316 170.857 477.316 161.913C477.316 161.913 481.742 164.294 486.717 164.379C491.693 164.294 496.119 161.913 496.119 161.913C496.119 170.857 504.373 171.168 509.069 171.346C509.16 171.349 509.249 171.352 509.336 171.356C519.629 171.752 524.291 181.97 526.5 193.085C528.867 204.993 534.893 217.157 535.929 218.29C540.814 223.637 550.84 251.397 552.804 257.105C553.297 258.539 553.912 260.246 554.573 262.08C556.546 267.554 558.929 274.165 559.705 278.044C559.896 278.994 560.122 279.99 560.347 280.981C561.348 285.393 562.328 289.708 560.011 289.444C557.275 289.133 555.445 286.497 553.693 283.973C553.627 283.878 553.562 283.784 553.496 283.69C552.633 282.449 552.437 280.57 552.256 278.826C552.057 276.909 551.874 275.156 550.84 274.597C549.506 273.876 549.411 272.795 549.323 271.786C549.28 271.3 549.239 270.831 549.061 270.428C548.089 268.216 547.742 266.102 547.436 264.242C547.118 262.304 546.844 260.641 545.956 259.43C531.862 240.231 525.965 228.55 523.334 223.34C522.887 222.454 522.534 221.756 522.252 221.239C516.213 210.194 513.793 200.22 513.793 200.22C506.455 213.194 508.254 225.312 511.335 237.716C512.464 242.259 513.352 245.441 514.131 248.228C515.477 253.048 516.492 256.683 517.844 264.129C520.582 279.21 517.897 291.325 515.406 302.567C514.836 305.138 514.276 307.664 513.793 310.17C512.859 315.022 512.349 319.584 512.103 323.581C511.668 330.667 494.383 336.647 493.13 332.94C491.012 326.67 490.861 324.184 490.555 319.14C490.441 317.256 490.305 315.015 490.037 312.086C489.032 301.125 487.787 290.785 487.058 284.732C486.926 283.637 486.811 282.683 486.717 281.89Z" fill="#F4F4F4"/>
<path fill-rule="evenodd" clip-rule="evenodd" d="M477.316 161.913C477.316 161.913 478.379 159.691 486.718 159.691C495.057 159.691 496.12 161.913 496.12 161.913C496.12 161.913 495.41 164.453 486.718 164.453C478.026 164.453 477.316 161.913 477.316 161.913Z" fill="#F4F4F4"/>
<path fill-rule="evenodd" clip-rule="evenodd" d="M450.748 180.907C448.692 184.589 445.691 197.794 445.691 197.794L458.636 205.086C459.001 203.846 459.995 201.023 459.995 201.023C465.34 213.173 465.551 220.599 463.637 231.012C462.959 234.703 461.747 239.051 460.409 243.853C457.972 252.601 455.116 262.853 454.3 273.374C452.909 291.304 452.184 303.634 452.184 303.634C457.66 305.965 482.247 306.821 486.446 306.951V306.969C486.446 306.969 486.552 306.967 486.752 306.961C486.952 306.967 487.057 306.969 487.057 306.969V306.951C491.257 306.821 515.843 305.965 521.32 303.634C521.32 303.634 520.594 291.304 519.204 273.374C518.388 262.853 515.531 252.601 513.094 243.853C511.756 239.051 510.545 234.703 509.867 231.012C507.953 220.599 508.163 213.173 513.509 201.023C513.509 201.023 514.503 203.846 514.867 205.086L527.812 197.794C527.812 197.794 524.812 184.589 522.755 180.907C520.999 177.761 517.383 172.938 513.113 172.099C506.401 170.781 500.285 169.52 500.285 169.52C500.285 169.52 495.113 175.111 486.752 175.245C478.39 175.111 473.219 169.52 473.219 169.52C473.219 169.52 467.103 170.781 460.391 172.099C456.121 172.938 452.505 177.761 450.748 180.907Z" fill="#47505A"/>
<mask id="mask2" mask-type="alpha" maskUnits="userSpaceOnUse" x="445" y="169" width="83" height="138">
<path fill-rule="evenodd" clip-rule="evenodd" d="M450.748 180.907C448.692 184.589 445.691 197.794 445.691 197.794L458.636 205.086C459.001 203.846 459.995 201.023 459.995 201.023C465.34 213.173 465.551 220.599 463.637 231.012C462.959 234.703 461.747 239.051 460.409 243.853C457.972 252.601 455.116 262.853 454.3 273.374C452.909 291.304 452.184 303.634 452.184 303.634C457.66 305.965 482.247 306.821 486.446 306.951V306.969C486.446 306.969 486.552 306.967 486.752 306.961C486.952 306.967 487.057 306.969 487.057 306.969V306.951C491.257 306.821 515.843 305.965 521.32 303.634C521.32 303.634 520.594 291.304 519.204 273.374C518.388 262.853 515.531 252.601 513.094 243.853C511.756 239.051 510.545 234.703 509.867 231.012C507.953 220.599 508.163 213.173 513.509 201.023C513.509 201.023 514.503 203.846 514.867 205.086L527.812 197.794C527.812 197.794 524.812 184.589 522.755 180.907C520.999 177.761 517.383 172.938 513.113 172.099C506.401 170.781 500.285 169.52 500.285 169.52C500.285 169.52 495.113 175.111 486.752 175.245C478.39 175.111 473.219 169.52 473.219 169.52C473.219 169.52 467.103 170.781 460.391 172.099C456.121 172.938 452.505 177.761 450.748 180.907Z" fill="white"/>
</mask>
<g mask="url(#mask2)">
<path d="M461.598 204.959C461.598 204.959 461.307 205.073 460.693 205.628C460.135 206.132 459.82 206.672 459.82 207.19C459.82 210.695 471.863 213.536 486.719 213.536C501.574 213.536 513.617 210.695 513.617 207.19C513.617 206.534 513.239 205.985 512.43 205.385C512.056 205.107 512.114 205.105 511.921 205.032" stroke="#59D000" stroke-width="1.6302" stroke-dasharray="2.72 1.63"/>
<path d="M464.002 226.034C461.182 226.985 460.363 227.787 460.363 228.751C460.363 231.752 472.041 234.185 486.446 234.185C500.852 234.185 512.53 231.752 512.53 228.751C512.53 227.885 511.787 227.163 509.544 226.347" stroke="#59D000" stroke-width="1.6302" stroke-dasharray="2.72 1.63"/>
<path d="M457.923 251.574C454.339 252.842 453.299 253.911 453.299 255.196C453.299 259.198 468.139 262.442 486.446 262.442C504.753 262.442 519.594 259.198 519.594 255.196C519.594 254.042 518.65 253.079 515.799 251.991" stroke="#59D000" stroke-width="1.6302" stroke-dasharray="2.72 1.63"/>
</g>
<path fill-rule="evenodd" clip-rule="evenodd" d="M486.718 220.056C490.47 220.056 493.511 217.015 493.511 213.264C493.511 209.512 490.47 206.471 486.718 206.471C482.967 206.471 479.926 209.512 479.926 213.264C479.926 217.015 482.967 220.056 486.718 220.056Z" fill="#59D000" stroke="#47505A" stroke-width="1.0868"/>
<path d="M483.848 213.327L486.022 215.293L489.951 211.055" stroke="white" stroke-width="1.6302"/>
<path fill-rule="evenodd" clip-rule="evenodd" d="M486.718 240.706C490.47 240.706 493.511 237.664 493.511 233.913C493.511 230.162 490.47 227.121 486.718 227.121C482.967 227.121 479.926 230.162 479.926 233.913C479.926 237.664 482.967 240.706 486.718 240.706Z" fill="#59D000" stroke="#47505A" stroke-width="1.0868"/>
<path d="M483.848 233.976L486.022 235.942L489.951 231.704" stroke="white" stroke-width="1.6302"/>
<path fill-rule="evenodd" clip-rule="evenodd" d="M486.718 268.962C490.47 268.962 493.511 265.921 493.511 262.17C493.511 258.418 490.47 255.377 486.718 255.377C482.967 255.377 479.926 258.418 479.926 262.17C479.926 265.921 482.967 268.962 486.718 268.962Z" fill="#59D000" stroke="#47505A" stroke-width="1.0868"/>
<path d="M483.848 262.233L486.022 264.199L489.951 259.96" stroke="white" stroke-width="1.6302"/>
<g clip-path="url(#clip1)">
<path fill-rule="evenodd" clip-rule="evenodd" d="M458.189 185.674C458.189 184.473 459.163 183.5 460.363 183.5H513.073C514.273 183.5 515.246 184.473 515.246 185.674V199.578C515.246 200.779 514.273 201.752 513.073 201.752H489.756L486.718 205.236L483.755 201.752H460.363C459.163 201.752 458.189 200.779 458.189 199.578V185.674Z" fill="#59D000"/>
<path d="M468.953 189.373V190.346H469.703V190.878H468.953V193.37C468.953 193.531 468.986 193.652 469.053 193.734C469.12 193.813 469.234 193.853 469.395 193.853C469.474 193.853 469.583 193.838 469.722 193.808V194.366C469.541 194.415 469.365 194.44 469.194 194.44C468.887 194.44 468.656 194.347 468.5 194.161C468.344 193.976 468.266 193.712 468.266 193.37V190.878H467.534V190.346H468.266V189.373H468.953ZM472.452 190.963C472.348 190.946 472.235 190.937 472.114 190.937C471.663 190.937 471.357 191.129 471.196 191.513V194.366H470.509V190.346H471.178L471.189 190.811C471.414 190.452 471.734 190.272 472.147 190.272C472.281 190.272 472.383 190.289 472.452 190.324V190.963ZM475.569 193.968C475.301 194.283 474.909 194.44 474.391 194.44C473.963 194.44 473.636 194.316 473.41 194.068C473.187 193.818 473.075 193.449 473.072 192.961V190.346H473.759V192.943C473.759 193.552 474.007 193.857 474.502 193.857C475.027 193.857 475.377 193.661 475.55 193.27V190.346H476.237V194.366H475.583L475.569 193.968ZM478.953 194.44C478.408 194.44 477.964 194.262 477.623 193.905C477.281 193.546 477.11 193.067 477.11 192.467V192.341C477.11 191.942 477.186 191.587 477.337 191.275C477.49 190.961 477.703 190.715 477.976 190.54C478.25 190.361 478.548 190.272 478.867 190.272C479.39 190.272 479.796 190.444 480.086 190.788C480.375 191.133 480.52 191.625 480.52 192.267V192.553H477.797C477.807 192.949 477.922 193.27 478.143 193.515C478.366 193.758 478.648 193.879 478.99 193.879C479.232 193.879 479.438 193.829 479.606 193.73C479.775 193.631 479.922 193.5 480.048 193.337L480.468 193.664C480.131 194.181 479.626 194.44 478.953 194.44ZM478.867 190.837C478.59 190.837 478.357 190.938 478.169 191.141C477.981 191.342 477.864 191.624 477.82 191.988H479.833V191.936C479.813 191.587 479.719 191.317 479.551 191.126C479.382 190.933 479.154 190.837 478.867 190.837ZM484.138 189.373V190.346H484.889V190.878H484.138V193.37C484.138 193.531 484.172 193.652 484.238 193.734C484.305 193.813 484.419 193.853 484.58 193.853C484.659 193.853 484.768 193.838 484.907 193.808V194.366C484.726 194.415 484.551 194.44 484.38 194.44C484.073 194.44 483.841 194.347 483.685 194.161C483.529 193.976 483.451 193.712 483.451 193.37V190.878H482.719V190.346H483.451V189.373H484.138ZM485.438 192.319C485.438 191.925 485.515 191.571 485.669 191.256C485.825 190.942 486.04 190.699 486.315 190.528C486.592 190.357 486.908 190.272 487.262 190.272C487.81 190.272 488.252 190.462 488.588 190.84C488.928 191.219 489.097 191.723 489.097 192.352V192.401C489.097 192.792 489.022 193.143 488.871 193.456C488.722 193.765 488.508 194.007 488.228 194.18C487.951 194.353 487.631 194.44 487.27 194.44C486.725 194.44 486.283 194.25 485.944 193.872C485.607 193.493 485.438 192.991 485.438 192.367V192.319ZM486.129 192.401C486.129 192.846 486.232 193.204 486.438 193.474C486.646 193.744 486.923 193.879 487.27 193.879C487.619 193.879 487.896 193.743 488.102 193.47C488.307 193.195 488.41 192.812 488.41 192.319C488.41 191.878 488.305 191.521 488.094 191.249C487.886 190.974 487.609 190.837 487.262 190.837C486.923 190.837 486.649 190.972 486.441 191.242C486.233 191.512 486.129 191.898 486.129 192.401ZM494.186 193.299C494.186 193.114 494.116 192.97 493.975 192.869C493.836 192.765 493.592 192.675 493.243 192.601C492.896 192.527 492.62 192.438 492.414 192.334C492.211 192.23 492.06 192.106 491.961 191.962C491.865 191.819 491.816 191.648 491.816 191.45C491.816 191.12 491.955 190.842 492.232 190.614C492.512 190.386 492.869 190.272 493.302 190.272C493.758 190.272 494.127 190.39 494.409 190.625C494.694 190.86 494.836 191.161 494.836 191.528H494.145C494.145 191.339 494.065 191.177 493.904 191.041C493.746 190.905 493.545 190.837 493.302 190.837C493.052 190.837 492.856 190.891 492.715 191C492.574 191.109 492.504 191.251 492.504 191.427C492.504 191.593 492.569 191.718 492.7 191.802C492.832 191.887 493.068 191.967 493.41 192.044C493.754 192.121 494.033 192.212 494.246 192.319C494.459 192.425 494.616 192.554 494.718 192.705C494.822 192.854 494.874 193.036 494.874 193.251C494.874 193.61 494.73 193.899 494.443 194.117C494.155 194.332 493.783 194.44 493.325 194.44C493.003 194.44 492.718 194.383 492.47 194.269C492.223 194.155 492.028 193.997 491.887 193.794C491.748 193.588 491.679 193.366 491.679 193.129H492.366C492.379 193.359 492.47 193.542 492.641 193.678C492.814 193.812 493.042 193.879 493.325 193.879C493.585 193.879 493.793 193.827 493.949 193.723C494.107 193.616 494.186 193.475 494.186 193.299ZM496.515 194.366H495.828V190.346H496.515V194.366ZM495.772 189.28C495.772 189.169 495.806 189.075 495.873 188.998C495.942 188.921 496.044 188.883 496.177 188.883C496.311 188.883 496.413 188.921 496.482 188.998C496.551 189.075 496.586 189.169 496.586 189.28C496.586 189.392 496.551 189.485 496.482 189.559C496.413 189.633 496.311 189.67 496.177 189.67C496.044 189.67 495.942 189.633 495.873 189.559C495.806 189.485 495.772 189.392 495.772 189.28ZM498.265 193.805H500.616V194.366H497.425V193.86L499.643 190.915H497.459V190.346H500.505V190.833L498.265 193.805ZM503.001 194.44C502.456 194.44 502.013 194.262 501.671 193.905C501.33 193.546 501.159 193.067 501.159 192.467V192.341C501.159 191.942 501.234 191.587 501.385 191.275C501.539 190.961 501.752 190.715 502.024 190.54C502.299 190.361 502.596 190.272 502.916 190.272C503.438 190.272 503.844 190.444 504.134 190.788C504.424 191.133 504.569 191.625 504.569 192.267V192.553H501.846C501.856 192.949 501.971 193.27 502.191 193.515C502.414 193.758 502.697 193.879 503.038 193.879C503.281 193.879 503.487 193.829 503.655 193.73C503.823 193.631 503.971 193.5 504.097 193.337L504.517 193.664C504.18 194.181 503.675 194.44 503.001 194.44ZM502.916 190.837C502.638 190.837 502.406 190.938 502.217 191.141C502.029 191.342 501.913 191.624 501.868 191.988H503.882V191.936C503.862 191.587 503.768 191.317 503.599 191.126C503.431 190.933 503.203 190.837 502.916 190.837Z" fill="white"/>
</g>
<g clip-path="url(#clip2)">
<path fill-rule="evenodd" clip-rule="evenodd" d="M472.105 107.94C471.116 107.94 470.314 108.742 470.314 109.731V137.493C470.314 138.482 471.116 139.284 472.105 139.284H485.091L487.858 143.237C488.036 143.492 488.413 143.492 488.592 143.237L491.359 139.284H504.344C505.333 139.284 506.135 138.482 506.135 137.493V109.731C506.135 108.742 505.333 107.94 504.344 107.94H472.105Z" fill="#47505A"/>
<path fill-rule="evenodd" clip-rule="evenodd" d="M488.449 113.761C491.54 113.761 494.046 111.255 494.046 108.164C494.046 105.073 491.54 102.567 488.449 102.567C485.357 102.567 482.852 105.073 482.852 108.164C482.852 111.255 485.357 113.761 488.449 113.761Z" fill="white" stroke="#47505A" stroke-width="1.79104"/>
<path d="M486.084 108.216L487.875 109.836L491.113 106.344" stroke="#47505A" stroke-width="1.79104"/>
<path d="M482.944 123.039V124.651C483.223 124.651 483.514 124.662 483.814 124.684C484.126 124.694 484.411 124.753 484.669 124.861C484.927 124.958 485.136 125.119 485.297 125.344C485.469 125.57 485.555 125.898 485.555 126.328C485.555 126.876 485.378 127.311 485.023 127.633C484.669 127.945 484.234 128.101 483.718 128.101C483.385 128.101 483.094 128.042 482.847 127.924C482.611 127.805 482.412 127.65 482.251 127.456C482.09 127.252 481.966 127.016 481.88 126.747C481.794 126.467 481.746 126.177 481.735 125.876H479.559C479.548 126.532 479.64 127.112 479.833 127.617C480.037 128.122 480.322 128.552 480.687 128.907C481.053 129.251 481.493 129.514 482.009 129.697C482.536 129.879 483.116 129.971 483.75 129.971C484.298 129.971 484.825 129.89 485.33 129.729C485.835 129.568 486.281 129.331 486.668 129.02C487.054 128.708 487.361 128.321 487.586 127.859C487.823 127.397 487.941 126.87 487.941 126.279C487.941 125.635 487.764 125.081 487.409 124.619C487.054 124.157 486.565 123.856 485.942 123.716V123.684C486.469 123.534 486.861 123.249 487.119 122.83C487.388 122.411 487.522 121.927 487.522 121.379C487.522 120.874 487.409 120.428 487.183 120.041C486.958 119.654 486.662 119.327 486.297 119.058C485.942 118.789 485.539 118.59 485.088 118.461C484.637 118.322 484.185 118.252 483.734 118.252C483.154 118.252 482.627 118.349 482.154 118.542C481.681 118.725 481.273 118.988 480.929 119.332C480.596 119.676 480.333 120.09 480.139 120.573C479.957 121.046 479.854 121.573 479.833 122.153H482.009C481.998 121.573 482.138 121.094 482.428 120.718C482.729 120.331 483.17 120.138 483.75 120.138C484.169 120.138 484.54 120.267 484.862 120.525C485.185 120.783 485.346 121.153 485.346 121.637C485.346 121.959 485.265 122.217 485.104 122.411C484.954 122.604 484.755 122.755 484.508 122.862C484.271 122.959 484.013 123.018 483.734 123.039C483.454 123.061 483.191 123.061 482.944 123.039ZM492.836 123.91C493.126 123.91 493.379 123.974 493.594 124.103C493.819 124.221 494.002 124.383 494.142 124.587C494.281 124.78 494.383 125.006 494.448 125.264C494.523 125.511 494.561 125.769 494.561 126.038C494.561 126.296 494.523 126.548 494.448 126.795C494.373 127.042 494.26 127.263 494.109 127.456C493.959 127.65 493.776 127.805 493.561 127.924C493.357 128.042 493.115 128.101 492.836 128.101C492.546 128.101 492.288 128.042 492.062 127.924C491.836 127.805 491.643 127.65 491.482 127.456C491.331 127.252 491.213 127.026 491.127 126.779C491.052 126.521 491.014 126.263 491.014 126.005C491.014 125.726 491.052 125.463 491.127 125.216C491.202 124.958 491.315 124.732 491.466 124.539C491.616 124.345 491.804 124.195 492.03 124.087C492.266 123.969 492.535 123.91 492.836 123.91ZM494.48 121.379H496.656C496.592 120.874 496.457 120.428 496.253 120.041C496.049 119.654 495.786 119.332 495.463 119.074C495.141 118.805 494.77 118.601 494.351 118.461C493.932 118.322 493.481 118.252 492.997 118.252C492.191 118.252 491.509 118.429 490.95 118.784C490.391 119.139 489.934 119.601 489.58 120.17C489.225 120.729 488.967 121.358 488.806 122.056C488.645 122.755 488.564 123.453 488.564 124.152C488.564 124.872 488.629 125.581 488.758 126.279C488.887 126.967 489.118 127.585 489.451 128.133C489.784 128.681 490.23 129.127 490.789 129.471C491.348 129.804 492.051 129.971 492.9 129.971C493.491 129.971 494.029 129.869 494.512 129.664C494.996 129.45 495.41 129.159 495.754 128.794C496.108 128.418 496.377 127.983 496.559 127.488C496.753 126.983 496.85 126.441 496.85 125.86C496.85 125.409 496.78 124.963 496.64 124.522C496.5 124.082 496.28 123.69 495.979 123.346C495.657 122.991 495.265 122.712 494.802 122.507C494.34 122.293 493.868 122.185 493.384 122.185C492.836 122.185 492.352 122.282 491.933 122.475C491.514 122.669 491.149 122.991 490.837 123.442L490.805 123.41C490.816 123.099 490.859 122.744 490.934 122.346C491.009 121.949 491.127 121.578 491.288 121.234C491.45 120.879 491.665 120.584 491.933 120.347C492.213 120.1 492.556 119.977 492.965 119.977C493.362 119.977 493.696 120.116 493.964 120.396C494.233 120.675 494.405 121.003 494.48 121.379Z" fill="white"/>
</g>
<g clip-path="url(#clip3)">
<rect x="430.016" y="110.179" width="31.3433" height="26.8657" rx="1.79104" fill="#F0F2F5"/>
<path d="M441.58 122.981V124.235C441.797 124.235 442.023 124.243 442.257 124.26C442.5 124.268 442.721 124.314 442.922 124.398C443.122 124.473 443.285 124.598 443.411 124.774C443.544 124.949 443.611 125.204 443.611 125.539C443.611 125.965 443.473 126.303 443.197 126.554C442.922 126.796 442.583 126.918 442.182 126.918C441.923 126.918 441.697 126.872 441.505 126.78C441.321 126.688 441.166 126.567 441.041 126.416C440.916 126.257 440.82 126.073 440.753 125.864C440.686 125.647 440.648 125.421 440.64 125.187H438.947C438.939 125.697 439.01 126.149 439.16 126.541C439.319 126.934 439.541 127.269 439.825 127.544C440.109 127.812 440.452 128.017 440.853 128.159C441.263 128.301 441.714 128.372 442.207 128.372C442.633 128.372 443.043 128.309 443.436 128.184C443.828 128.059 444.175 127.875 444.476 127.632C444.777 127.39 445.015 127.089 445.191 126.73C445.375 126.37 445.467 125.961 445.467 125.501C445.467 124.999 445.329 124.569 445.053 124.21C444.777 123.85 444.397 123.616 443.912 123.507V123.482C444.322 123.365 444.627 123.144 444.827 122.818C445.036 122.492 445.141 122.116 445.141 121.69C445.141 121.297 445.053 120.95 444.877 120.649C444.702 120.348 444.472 120.093 444.188 119.884C443.912 119.675 443.599 119.521 443.248 119.42C442.897 119.312 442.545 119.257 442.194 119.257C441.743 119.257 441.334 119.333 440.966 119.483C440.598 119.625 440.28 119.83 440.013 120.097C439.754 120.365 439.549 120.687 439.399 121.063C439.257 121.43 439.177 121.84 439.16 122.291H440.853C440.845 121.84 440.953 121.468 441.179 121.176C441.413 120.875 441.756 120.724 442.207 120.724C442.533 120.724 442.821 120.824 443.072 121.025C443.323 121.226 443.448 121.514 443.448 121.89C443.448 122.141 443.385 122.341 443.26 122.492C443.143 122.642 442.988 122.759 442.796 122.843C442.612 122.918 442.412 122.964 442.194 122.981C441.977 122.998 441.772 122.998 441.58 122.981ZM449.6 121.664V124.711H447.293L449.562 121.664H449.6ZM449.6 126.178V128.209H451.292V126.178H452.458V124.711H451.292V119.433H449.7L445.889 124.548V126.178H449.6Z" fill="black"/>
</g>
<g clip-path="url(#clip4)">
<rect x="515.09" y="110.179" width="31.3433" height="26.8657" rx="1.79104" fill="#F0F2F5"/>
<path d="M526.654 122.981V124.235C526.872 124.235 527.097 124.243 527.331 124.26C527.574 124.268 527.795 124.314 527.996 124.398C528.196 124.473 528.359 124.598 528.485 124.774C528.619 124.949 528.685 125.204 528.685 125.539C528.685 125.965 528.547 126.303 528.272 126.554C527.996 126.796 527.657 126.918 527.256 126.918C526.997 126.918 526.771 126.872 526.579 126.78C526.395 126.688 526.241 126.567 526.115 126.416C525.99 126.257 525.894 126.073 525.827 125.864C525.76 125.647 525.722 125.421 525.714 125.187H524.021C524.013 125.697 524.084 126.149 524.235 126.541C524.393 126.934 524.615 127.269 524.899 127.544C525.183 127.812 525.526 128.017 525.927 128.159C526.337 128.301 526.788 128.372 527.281 128.372C527.707 128.372 528.117 128.309 528.51 128.184C528.903 128.059 529.25 127.875 529.55 127.632C529.851 127.39 530.09 127.089 530.265 126.73C530.449 126.37 530.541 125.961 530.541 125.501C530.541 124.999 530.403 124.569 530.127 124.21C529.851 123.85 529.471 123.616 528.986 123.507V123.482C529.396 123.365 529.701 123.144 529.901 122.818C530.11 122.492 530.215 122.116 530.215 121.69C530.215 121.297 530.127 120.95 529.952 120.649C529.776 120.348 529.546 120.093 529.262 119.884C528.986 119.675 528.673 119.521 528.322 119.42C527.971 119.312 527.62 119.257 527.269 119.257C526.817 119.257 526.408 119.333 526.04 119.483C525.672 119.625 525.355 119.83 525.087 120.097C524.828 120.365 524.623 120.687 524.473 121.063C524.331 121.43 524.251 121.84 524.235 122.291H525.927C525.919 121.84 526.027 121.468 526.253 121.176C526.487 120.875 526.83 120.724 527.281 120.724C527.607 120.724 527.896 120.824 528.146 121.025C528.397 121.226 528.522 121.514 528.522 121.89C528.522 122.141 528.46 122.341 528.334 122.492C528.217 122.642 528.063 122.759 527.87 122.843C527.687 122.918 527.486 122.964 527.269 122.981C527.051 122.998 526.847 122.998 526.654 122.981ZM532.919 121.815C532.919 121.614 532.952 121.439 533.019 121.288C533.094 121.138 533.195 121.013 533.32 120.912C533.445 120.812 533.587 120.737 533.746 120.687C533.913 120.628 534.085 120.599 534.26 120.599C534.536 120.599 534.758 120.641 534.925 120.724C535.1 120.808 535.234 120.912 535.326 121.038C535.426 121.163 535.493 121.297 535.527 121.439C535.56 121.573 535.577 121.698 535.577 121.815C535.577 122.191 535.451 122.479 535.201 122.68C534.95 122.872 534.636 122.968 534.26 122.968C533.901 122.968 533.587 122.872 533.32 122.68C533.053 122.479 532.919 122.191 532.919 121.815ZM531.301 121.652C531.301 122.087 531.41 122.467 531.627 122.793C531.845 123.119 532.167 123.34 532.593 123.457V123.482C532.066 123.608 531.657 123.859 531.364 124.235C531.08 124.611 530.938 125.079 530.938 125.639C530.938 126.115 531.03 126.525 531.214 126.867C531.406 127.21 531.657 127.494 531.966 127.72C532.284 127.946 532.639 128.109 533.032 128.209C533.433 128.318 533.847 128.372 534.273 128.372C534.682 128.372 535.084 128.318 535.476 128.209C535.869 128.092 536.22 127.921 536.53 127.695C536.839 127.469 537.085 127.185 537.269 126.842C537.461 126.5 537.558 126.094 537.558 125.626C537.558 125.075 537.415 124.611 537.131 124.235C536.847 123.85 536.442 123.599 535.915 123.482V123.457C536.341 123.315 536.659 123.081 536.868 122.755C537.085 122.429 537.194 122.049 537.194 121.614C537.194 121.397 537.144 121.155 537.044 120.887C536.943 120.611 536.776 120.356 536.542 120.122C536.316 119.88 536.015 119.675 535.639 119.508C535.263 119.341 534.804 119.257 534.26 119.257C533.901 119.257 533.546 119.307 533.195 119.408C532.844 119.508 532.526 119.659 532.242 119.859C531.966 120.06 531.74 120.31 531.565 120.611C531.389 120.912 531.301 121.259 531.301 121.652ZM532.718 125.551C532.718 125.1 532.869 124.757 533.17 124.523C533.47 124.281 533.838 124.159 534.273 124.159C534.482 124.159 534.674 124.193 534.85 124.26C535.033 124.327 535.192 124.423 535.326 124.548C535.468 124.673 535.577 124.824 535.652 124.999C535.735 125.167 535.777 125.355 535.777 125.564C535.777 125.781 535.74 125.981 535.664 126.165C535.589 126.349 535.481 126.508 535.338 126.642C535.205 126.767 535.046 126.867 534.862 126.943C534.687 127.01 534.49 127.043 534.273 127.043C534.064 127.043 533.863 127.01 533.671 126.943C533.479 126.867 533.312 126.767 533.17 126.642C533.036 126.508 532.927 126.349 532.844 126.165C532.76 125.981 532.718 125.777 532.718 125.551Z" fill="black"/>
</g>
<path d="M418.373 121.65L417.624 120.925L413 125.403L417.624 129.881L418.373 129.156L414.498 125.403L418.373 121.65Z" fill="black"/>
<path d="M557.627 121.65L558.376 120.925L563 125.403L558.376 129.881L557.627 129.156L561.502 125.403L557.627 121.65Z" fill="black"/>
<path d="M444.986 89.2015L446.046 86.9067H447.194L445.521 90.153V92H444.454V90.153L442.782 86.9067H443.933L444.986 89.2015ZM451.738 89.5688C451.738 90.0702 451.649 90.5098 451.472 90.8876C451.295 91.2654 451.04 91.5569 450.709 91.7621C450.38 91.9674 450.003 92.07 449.576 92.07C449.154 92.07 448.777 91.9685 448.446 91.7656C448.115 91.5627 447.858 91.2736 447.676 90.8981C447.494 90.5203 447.402 90.0865 447.4 89.5968V89.3449C447.4 88.8435 447.49 88.4028 447.669 88.0226C447.851 87.6402 448.107 87.3475 448.435 87.1446C448.767 86.9394 449.144 86.8368 449.569 86.8368C449.993 86.8368 450.37 86.9394 450.699 87.1446C451.03 87.3475 451.285 87.6402 451.465 88.0226C451.647 88.4028 451.738 88.8424 451.738 89.3414V89.5688ZM450.674 89.3379C450.674 88.8039 450.579 88.3981 450.387 88.1206C450.196 87.8431 449.923 87.7043 449.569 87.7043C449.217 87.7043 448.945 87.8419 448.754 88.1171C448.562 88.3899 448.466 88.791 448.463 89.3204V89.5688C448.463 90.0889 448.559 90.4923 448.75 90.7792C448.941 91.066 449.217 91.2094 449.576 91.2094C449.928 91.2094 450.198 91.0718 450.387 90.7966C450.576 90.5191 450.672 90.1157 450.674 89.5863V89.3379ZM456.355 86.9067V90.2614C456.355 90.8188 456.18 91.2596 455.83 91.5837C455.483 91.9079 455.007 92.07 454.403 92.07C453.809 92.07 453.336 91.9125 452.986 91.5977C452.637 91.2829 452.458 90.8503 452.451 90.2999V86.9067H453.501V90.2684C453.501 90.6019 453.58 90.8456 453.739 90.9995C453.899 91.1511 454.121 91.2269 454.403 91.2269C454.993 91.2269 455.293 90.9167 455.302 90.2964V86.9067H456.355ZM459.101 90.1355H458.265V92H457.216V86.9067H459.108C459.71 86.9067 460.174 87.0408 460.5 87.309C460.827 87.5772 460.99 87.9562 460.99 88.4459C460.99 88.7934 460.914 89.0837 460.763 89.3169C460.614 89.5478 460.386 89.732 460.081 89.8696L461.183 91.951V92H460.056L459.101 90.1355ZM458.265 89.2854H459.112C459.375 89.2854 459.579 89.219 459.724 89.0861C459.868 88.9508 459.941 88.7654 459.941 88.5299C459.941 88.2896 459.872 88.1007 459.734 87.9632C459.599 87.8256 459.39 87.7568 459.108 87.7568H458.265V89.2854ZM465.461 90.1355H464.625V92H463.575V86.9067H465.468C466.069 86.9067 466.534 87.0408 466.86 87.309C467.187 87.5772 467.35 87.9562 467.35 88.4459C467.35 88.7934 467.274 89.0837 467.122 89.3169C466.973 89.5478 466.746 89.732 466.44 89.8696L467.542 91.951V92H466.416L465.461 90.1355ZM464.625 89.2854H465.471C465.735 89.2854 465.939 89.219 466.083 89.0861C466.228 88.9508 466.3 88.7654 466.3 88.5299C466.3 88.2896 466.232 88.1007 466.094 87.9632C465.959 87.8256 465.75 87.7568 465.468 87.7568H464.625V89.2854ZM471.215 89.7927H469.2V91.1569H471.565V92H468.151V86.9067H471.558V87.7568H469.2V88.9706H471.215V89.7927ZM476.179 90.3034C476.139 90.8514 475.937 91.2829 475.57 91.5977C475.207 91.9125 474.726 92.07 474.129 92.07C473.476 92.07 472.962 91.8507 472.586 91.4123C472.213 90.9715 472.027 90.3675 472.027 89.6003V89.2889C472.027 88.7992 472.113 88.3678 472.286 87.9946C472.458 87.6215 472.704 87.3358 473.024 87.1376C473.346 86.937 473.719 86.8368 474.143 86.8368C474.731 86.8368 475.204 86.9942 475.563 87.309C475.923 87.6238 476.13 88.0658 476.186 88.6348H475.137C475.111 88.306 475.019 88.0681 474.86 87.9212C474.704 87.7719 474.465 87.6973 474.143 87.6973C473.793 87.6973 473.531 87.8232 473.356 88.0751C473.184 88.3246 473.095 88.7129 473.09 89.24V89.6248C473.09 90.1751 473.173 90.5774 473.339 90.8316C473.507 91.0858 473.77 91.2129 474.129 91.2129C474.453 91.2129 474.695 91.1395 474.853 90.9925C475.014 90.8433 475.106 90.6136 475.13 90.3034H476.179ZM481.052 89.5688C481.052 90.0702 480.963 90.5098 480.786 90.8876C480.609 91.2654 480.355 91.5569 480.024 91.7621C479.695 91.9674 479.317 92.07 478.89 92.07C478.468 92.07 478.091 91.9685 477.76 91.7656C477.429 91.5627 477.173 91.2736 476.991 90.8981C476.809 90.5203 476.717 90.0865 476.714 89.5968V89.3449C476.714 88.8435 476.804 88.4028 476.984 88.0226C477.166 87.6402 477.421 87.3475 477.75 87.1446C478.081 86.9394 478.459 86.8368 478.883 86.8368C479.308 86.8368 479.684 86.9394 480.013 87.1446C480.344 87.3475 480.6 87.6402 480.779 88.0226C480.961 88.4028 481.052 88.8424 481.052 89.3414V89.5688ZM479.989 89.3379C479.989 88.8039 479.893 88.3981 479.702 88.1206C479.51 87.8431 479.238 87.7043 478.883 87.7043C478.531 87.7043 478.259 87.8419 478.068 88.1171C477.877 88.3899 477.78 88.791 477.778 89.3204V89.5688C477.778 90.0889 477.873 90.4923 478.065 90.7792C478.256 91.066 478.531 91.2094 478.89 91.2094C479.242 91.2094 479.513 91.0718 479.702 90.7966C479.891 90.5191 479.986 90.1157 479.989 89.5863V89.3379ZM483.186 86.9067L484.494 90.6007L485.795 86.9067H487.174V92H486.121V90.6077L486.226 88.2045L484.851 92H484.13L482.759 88.208L482.864 90.6077V92H481.815V86.9067H483.186ZM489.461 86.9067L490.77 90.6007L492.071 86.9067H493.449V92H492.396V90.6077L492.501 88.2045L491.127 92H490.406L489.035 88.208L489.14 90.6077V92H488.09V86.9067H489.461ZM497.43 89.7927H495.415V91.1569H497.78V92H494.366V86.9067H497.773V87.7568H495.415V88.9706H497.43V89.7927ZM502.538 92H501.488L499.445 88.6488V92H498.396V86.9067H499.445L501.492 90.2649V86.9067H502.538V92ZM503.454 92V86.9067H505.021C505.469 86.9067 505.869 87.0082 506.221 87.2111C506.576 87.4116 506.852 87.6985 507.05 88.0716C507.248 88.4424 507.347 88.8645 507.347 89.3379V89.5723C507.347 90.0457 507.25 90.4667 507.054 90.8351C506.86 91.2036 506.586 91.4893 506.232 91.6922C505.877 91.8951 505.477 91.9977 505.032 92H503.454ZM504.503 87.7568V91.1569H505.011C505.421 91.1569 505.735 91.0229 505.952 90.7547C506.169 90.4865 506.279 90.1028 506.284 89.6038V89.3344C506.284 88.8167 506.177 88.4249 505.962 88.159C505.748 87.8909 505.434 87.7568 505.021 87.7568H504.503ZM511.178 89.7927H509.163V91.1569H511.528V92H508.114V86.9067H511.521V87.7568H509.163V88.9706H511.178V89.7927ZM512.143 92V86.9067H513.711C514.158 86.9067 514.558 87.0082 514.91 87.2111C515.265 87.4116 515.541 87.6985 515.739 88.0716C515.938 88.4424 516.037 88.8645 516.037 89.3379V89.5723C516.037 90.0457 515.939 90.4667 515.743 90.8351C515.549 91.2036 515.275 91.4893 514.921 91.6922C514.566 91.8951 514.166 91.9977 513.721 92H512.143ZM513.193 87.7568V91.1569H513.7C514.111 91.1569 514.424 91.0229 514.641 90.7547C514.858 90.4865 514.969 90.1028 514.973 89.6038V89.3344C514.973 88.8167 514.866 88.4249 514.652 88.159C514.437 87.8909 514.123 87.7568 513.711 87.7568H513.193ZM521.228 90.6637C521.228 90.4655 521.158 90.3139 521.018 90.209C520.878 90.1017 520.626 89.9897 520.263 89.8731C519.899 89.7542 519.611 89.6376 519.399 89.5233C518.82 89.2108 518.531 88.7899 518.531 88.2605C518.531 87.9853 518.608 87.7404 518.762 87.5259C518.918 87.309 519.141 87.1399 519.43 87.0187C519.722 86.8974 520.048 86.8368 520.409 86.8368C520.773 86.8368 521.097 86.9032 521.382 87.0361C521.666 87.1667 521.887 87.3521 522.043 87.5924C522.202 87.8326 522.281 88.1054 522.281 88.4109H521.232C521.232 88.1777 521.158 87.997 521.011 87.8687C520.864 87.7381 520.658 87.6728 520.392 87.6728C520.135 87.6728 519.936 87.7276 519.794 87.8372C519.652 87.9445 519.58 88.0868 519.58 88.264C519.58 88.4296 519.663 88.5683 519.829 88.6803C519.997 88.7922 520.243 88.8972 520.567 88.9951C521.164 89.1747 521.599 89.3974 521.872 89.6632C522.145 89.9291 522.281 90.2603 522.281 90.6567C522.281 91.0975 522.114 91.4438 521.781 91.6957C521.447 91.9452 520.998 92.07 520.434 92.07C520.042 92.07 519.685 91.9988 519.364 91.8566C519.042 91.712 518.796 91.5149 518.625 91.2654C518.458 91.0159 518.374 90.7267 518.374 90.3979H519.427C519.427 90.9599 519.762 91.2409 520.434 91.2409C520.684 91.2409 520.878 91.1908 521.018 91.0905C521.158 90.9879 521.228 90.8456 521.228 90.6637ZM524.111 92H523.061V86.9067H524.111V92ZM526.199 91.1569H528.767V92H524.887V91.3843L527.406 87.7568H524.891V86.9067H528.711V87.5084L526.199 91.1569ZM532.496 89.7927H530.481V91.1569H532.845V92H529.431V86.9067H532.838V87.7568H530.481V88.9706H532.496V89.7927Z" fill="#1D252D"/>
</g>
<path fill-rule="evenodd" clip-rule="evenodd" d="M230.985 499.645C76.6106 500 51 483.665 51 483.665H479.977H908.955C908.955 483.665 883.344 500 728.969 499.645C574.594 499.29 479.977 499.645 479.977 499.645C479.977 499.645 385.36 499.29 230.985 499.645Z" fill="url(#paint2_linear)"/>
<path d="M618.778 491.832C618.741 491.859 618.687 491.891 618.612 491.926C618.381 492.035 618.023 492.143 617.553 492.237C616.618 492.424 615.311 492.543 613.856 492.543C612.401 492.543 611.094 492.424 610.159 492.237C609.689 492.143 609.331 492.035 609.1 491.926C609.025 491.891 608.971 491.859 608.934 491.832C608.971 491.806 609.025 491.774 609.1 491.739C609.331 491.629 609.689 491.521 610.159 491.427C611.094 491.24 612.401 491.122 613.856 491.122C615.311 491.122 616.618 491.24 617.553 491.427C618.023 491.521 618.381 491.629 618.612 491.739C618.687 491.774 618.741 491.806 618.778 491.832ZM618.84 491.887C618.84 491.887 618.84 491.887 618.84 491.887L618.84 491.887Z" fill="#E4E5E9" stroke="#D7D8DB" stroke-width="0.710227"/>
<path fill-rule="evenodd" clip-rule="evenodd" d="M613.856 492.187C614.445 492.187 614.922 492.029 614.922 491.832C614.922 491.636 614.445 491.477 613.856 491.477C613.268 491.477 612.791 491.636 612.791 491.832C612.791 492.029 613.268 492.187 613.856 492.187Z" fill="#C5C7CD"/>
<path d="M351.731 491.832C351.694 491.859 351.64 491.891 351.565 491.926C351.334 492.035 350.976 492.143 350.506 492.237C349.571 492.424 348.264 492.543 346.809 492.543C345.354 492.543 344.047 492.424 343.112 492.237C342.642 492.143 342.284 492.035 342.053 491.926C341.978 491.891 341.924 491.859 341.887 491.832C341.924 491.806 341.978 491.774 342.053 491.739C342.284 491.629 342.642 491.521 343.112 491.427C344.047 491.24 345.354 491.122 346.809 491.122C348.264 491.122 349.571 491.24 350.506 491.427C350.976 491.521 351.334 491.629 351.565 491.739C351.64 491.774 351.694 491.806 351.731 491.832ZM351.793 491.887C351.793 491.887 351.794 491.887 351.794 491.887L351.793 491.887Z" fill="#E4E5E9" stroke="#D7D8DB" stroke-width="0.710227"/>
<path fill-rule="evenodd" clip-rule="evenodd" d="M346.809 492.187C347.398 492.187 347.875 492.029 347.875 491.832C347.875 491.636 347.398 491.477 346.809 491.477C346.221 491.477 345.744 491.636 345.744 491.832C345.744 492.029 346.221 492.187 346.809 492.187Z" fill="#C5C7CD"/>
<path fill-rule="evenodd" clip-rule="evenodd" d="M230.985 499.645C76.6106 500 51 483.665 51 483.665H479.977H908.955C908.955 483.665 883.344 500 728.969 499.645C574.594 499.29 479.977 499.645 479.977 499.645C479.977 499.645 385.36 499.29 230.985 499.645Z" fill="url(#paint3_linear)"/>
<path fill-rule="evenodd" clip-rule="evenodd" d="M230.985 499.645C76.6106 500 51 483.665 51 483.665H479.977H908.955C908.955 483.665 883.344 500 728.969 499.645C574.594 499.29 479.977 499.645 479.977 499.645C479.977 499.645 385.36 499.29 230.985 499.645Z" fill="url(#paint4_linear)" fill-opacity="0.5"/>
<path fill-rule="evenodd" clip-rule="evenodd" d="M51 468.75C51 468.358 51.318 468.04 51.7102 468.04H409.944L412.074 468.75H548.869L551.71 468.04H908.244C908.637 468.04 908.955 468.358 908.955 468.75V483.665H51V468.75Z" fill="url(#paint5_linear)"/>
<g filter="url(#filter5_di)">
<path fill-rule="evenodd" clip-rule="evenodd" d="M540.319 478.693H421.012C414.97 478.693 410.028 473.982 409.664 468.04L412.505 468.75H548.826L551.666 468.04C551.302 473.984 546.364 478.693 540.319 478.693Z" fill="url(#paint6_linear)"/>
</g>
<path d="M51 468.75C51 468.358 51.318 468.04 51.7102 468.04H908.244C908.637 468.04 908.955 468.358 908.955 468.75V483.665H51V468.75Z" style="mix-blend-mode:multiply"/>
<g filter="url(#filter6_d)">
<rect x="21" y="150" width="157" height="340" fill="white"/>
<path fill-rule="evenodd" clip-rule="evenodd" d="M99.2645 366.408C99.1865 367.069 99.0907 367.864 98.9808 368.777C98.3732 373.821 97.3354 382.437 96.4986 391.572C96.275 394.012 96.1616 395.88 96.0663 397.45C95.8111 401.654 95.6854 403.725 93.9205 408.95C92.8769 412.04 78.4724 407.056 78.1095 401.15C77.9048 397.82 77.4801 394.019 76.7013 389.975C76.2992 387.887 75.8327 385.782 75.3577 383.639C73.2813 374.271 71.0437 364.175 73.3254 351.608C74.4521 345.402 75.2982 342.373 76.4202 338.356C77.0687 336.035 77.8094 333.383 78.7498 329.596C81.3171 319.26 82.8166 309.161 76.7013 298.35C76.7013 298.35 74.6846 306.662 69.6527 315.866C69.4171 316.296 69.1231 316.879 68.7504 317.617C66.5584 321.959 61.6441 331.692 49.8993 347.692C49.1587 348.701 48.9311 350.086 48.6657 351.702C48.4111 353.252 48.1218 355.013 47.3112 356.857C47.1633 357.193 47.129 357.584 47.0935 357.988C47.0198 358.829 46.9408 359.73 45.8294 360.33C44.967 360.796 44.8151 362.257 44.649 363.855C44.4979 365.308 44.3351 366.874 43.6154 367.909C43.561 367.987 43.5065 368.065 43.452 368.144C41.9915 370.247 40.4664 372.444 38.1867 372.703C36.2554 372.923 37.072 369.327 37.9069 365.651C38.0944 364.825 38.2828 363.995 38.4412 363.203C39.0882 359.971 41.074 354.462 42.7179 349.9C43.2691 348.371 43.7818 346.949 44.1927 345.754C45.8294 340.998 54.1838 317.864 58.2552 313.409C59.1183 312.464 64.1403 302.328 66.1125 292.404C67.9533 283.142 71.8384 274.626 80.4154 274.296C80.4885 274.294 80.5628 274.291 80.6382 274.288C84.5512 274.14 91.4299 273.881 91.4299 266.427C91.4299 266.427 95.1183 268.412 99.2645 268.483C103.411 268.412 107.099 266.427 107.099 266.427C107.099 273.881 113.978 274.14 117.891 274.288C117.966 274.291 118.041 274.294 118.114 274.296C126.691 274.626 130.576 283.142 132.417 292.404C134.389 302.328 139.411 312.464 140.274 313.409C144.345 317.864 152.7 340.998 154.336 345.754C154.747 346.949 155.26 348.371 155.811 349.9C157.455 354.461 159.441 359.971 160.088 363.203C160.246 363.995 160.435 364.825 160.622 365.651C161.457 369.327 162.274 372.923 160.342 372.703C158.063 372.444 156.538 370.247 155.077 368.144C155.023 368.065 154.968 367.987 154.914 367.909C154.194 366.874 154.031 365.308 153.88 363.855C153.714 362.257 153.562 360.796 152.7 360.33C151.588 359.73 151.509 358.829 151.436 357.988C151.4 357.584 151.366 357.193 151.218 356.857C150.407 355.013 150.118 353.252 149.863 351.702C149.598 350.086 149.37 348.701 148.63 347.692C136.885 331.692 131.971 321.959 129.779 317.617C129.406 316.879 129.112 316.296 128.876 315.866C123.844 306.662 121.828 298.35 121.828 298.35C115.712 309.161 117.212 319.26 119.779 329.596C120.72 333.383 121.46 336.035 122.109 338.356C123.231 342.373 124.077 345.402 125.204 351.608C127.485 364.175 125.248 374.271 123.171 383.639C122.696 385.782 122.23 387.887 121.828 389.975C121.049 394.019 120.624 397.82 120.42 401.15C120.057 407.056 105.652 412.04 104.609 408.95C102.844 403.725 102.718 401.654 102.463 397.45C102.367 395.88 102.254 394.012 102.031 391.572C101.194 382.437 100.156 373.821 99.5482 368.777C99.4384 367.864 99.3425 367.069 99.2645 366.408Z" fill="#F4F4F4"/>
<path fill-rule="evenodd" clip-rule="evenodd" d="M91.4297 266.427C91.4297 266.427 92.3151 264.575 99.2644 264.575C106.214 264.575 107.099 266.427 107.099 266.427C107.099 266.427 106.508 268.545 99.2644 268.545C92.0212 268.545 91.4297 266.427 91.4297 266.427Z" fill="#F4F4F4"/>
<path fill-rule="evenodd" clip-rule="evenodd" d="M69.2903 282.256C67.5767 285.324 65.0762 296.328 65.0762 296.328L75.8635 302.405C76.1672 301.372 76.9956 299.019 76.9956 299.019C81.4502 309.144 81.6258 315.333 80.0309 324.01C79.4657 327.086 78.4561 330.709 77.3412 334.711C75.3102 342.001 72.9298 350.544 72.2498 359.312C71.0911 374.253 70.4864 384.528 70.4864 384.528C75.0503 386.471 95.5393 387.184 99.0386 387.293V387.308C99.0386 387.308 99.1267 387.306 99.2932 387.301C99.4597 387.306 99.5478 387.308 99.5478 387.308V387.293C103.047 387.184 123.536 386.471 128.1 384.528C128.1 384.528 127.495 374.253 126.337 359.312C125.657 350.544 123.276 342.001 121.245 334.711C120.13 330.709 119.121 327.086 118.555 324.01C116.961 315.333 117.136 309.144 121.591 299.019C121.591 299.019 122.419 301.372 122.723 302.405L133.51 296.328C133.51 296.328 131.01 285.324 129.296 282.256C127.832 279.634 124.819 275.615 121.26 274.916C115.667 273.817 110.571 272.767 110.571 272.767C110.571 272.767 106.261 277.426 99.2932 277.537C92.3253 277.426 88.0158 272.767 88.0158 272.767C88.0158 272.767 82.9189 273.817 77.326 274.916C73.7675 275.615 70.7543 279.634 69.2903 282.256Z" fill="#47505A"/>
<mask id="mask3" mask-type="alpha" maskUnits="userSpaceOnUse" x="65" y="272" width="69" height="116">
<path fill-rule="evenodd" clip-rule="evenodd" d="M69.2903 282.256C67.5767 285.324 65.0762 296.328 65.0762 296.328L75.8635 302.405C76.1672 301.372 76.9956 299.019 76.9956 299.019C81.4502 309.144 81.6258 315.333 80.0309 324.01C79.4657 327.086 78.4561 330.709 77.3412 334.711C75.3102 342.001 72.9298 350.544 72.2498 359.312C71.0911 374.253 70.4864 384.528 70.4864 384.528C75.0503 386.471 95.5393 387.184 99.0386 387.293V387.308C99.0386 387.308 99.1267 387.306 99.2932 387.301C99.4597 387.306 99.5478 387.308 99.5478 387.308V387.293C103.047 387.184 123.536 386.471 128.1 384.528C128.1 384.528 127.495 374.253 126.337 359.312C125.657 350.544 123.276 342.001 121.245 334.711C120.13 330.709 119.121 327.086 118.555 324.01C116.961 315.333 117.136 309.144 121.591 299.019C121.591 299.019 122.419 301.372 122.723 302.405L133.51 296.328C133.51 296.328 131.01 285.324 129.296 282.256C127.832 279.634 124.819 275.615 121.26 274.916C115.667 273.817 110.571 272.767 110.571 272.767C110.571 272.767 106.261 277.426 99.2932 277.537C92.3253 277.426 88.0158 272.767 88.0158 272.767C88.0158 272.767 82.9189 273.817 77.326 274.916C73.7675 275.615 70.7543 279.634 69.2903 282.256Z" fill="white"/>
</mask>
<g mask="url(#mask3)">
<path d="M78.331 302.299C78.331 302.299 78.0881 302.394 77.5766 302.857C77.1122 303.277 76.8496 303.727 76.8496 304.158C76.8496 307.079 86.8853 309.446 99.2648 309.446C111.644 309.446 121.68 307.079 121.68 304.158C121.68 303.612 121.366 303.154 120.691 302.654C120.38 302.422 120.427 302.421 120.266 302.36" stroke="#59D000" stroke-width="1.3585" stroke-dasharray="2.26 1.36"/>
<path d="M80.3349 319.861C77.9847 320.654 77.3027 321.323 77.3027 322.126C77.3027 324.627 87.0343 326.654 99.0387 326.654C111.043 326.654 120.775 324.627 120.775 322.126C120.775 321.404 120.156 320.802 118.286 320.122" stroke="#59D000" stroke-width="1.3585" stroke-dasharray="2.26 1.36"/>
<path d="M75.2694 341.145C72.2827 342.202 71.416 343.093 71.416 344.164C71.416 347.498 83.7832 350.201 99.0388 350.201C114.294 350.201 126.662 347.498 126.662 344.164C126.662 343.202 125.875 342.399 123.499 341.492" stroke="#59D000" stroke-width="1.3585" stroke-dasharray="2.26 1.36"/>
</g>
<path fill-rule="evenodd" clip-rule="evenodd" d="M99.2639 314.88C102.39 314.88 104.924 312.346 104.924 309.22C104.924 306.094 102.39 303.559 99.2639 303.559C96.1378 303.559 93.6035 306.094 93.6035 309.22C93.6035 312.346 96.1378 314.88 99.2639 314.88Z" fill="#59D000" stroke="#47505A" stroke-width="0.905666"/>
<path d="M96.873 309.272L98.6848 310.911L101.959 307.379" stroke="white" stroke-width="1.3585"/>
<path fill-rule="evenodd" clip-rule="evenodd" d="M99.2639 332.088C102.39 332.088 104.924 329.554 104.924 326.428C104.924 323.301 102.39 320.767 99.2639 320.767C96.1378 320.767 93.6035 323.301 93.6035 326.428C93.6035 329.554 96.1378 332.088 99.2639 332.088Z" fill="#59D000" stroke="#47505A" stroke-width="0.905666"/>
<path d="M96.873 326.48L98.6848 328.118L101.959 324.586" stroke="white" stroke-width="1.3585"/>
<path fill-rule="evenodd" clip-rule="evenodd" d="M99.2639 355.635C102.39 355.635 104.924 353.101 104.924 349.975C104.924 346.849 102.39 344.314 99.2639 344.314C96.1378 344.314 93.6035 346.849 93.6035 349.975C93.6035 353.101 96.1378 355.635 99.2639 355.635Z" fill="#59D000" stroke="#47505A" stroke-width="0.905666"/>
<path d="M96.873 350.027L98.6848 351.666L101.959 348.134" stroke="white" stroke-width="1.3585"/>
<g clip-path="url(#clip5)">
<path fill-rule="evenodd" clip-rule="evenodd" d="M75.4902 286.228C75.4902 285.228 76.3012 284.417 77.3016 284.417H121.226C122.227 284.417 123.038 285.228 123.038 286.228V297.815C123.038 298.816 122.227 299.627 121.226 299.627H101.796L99.264 302.53L96.7945 299.627H77.3016C76.3012 299.627 75.4902 298.816 75.4902 297.815V286.228Z" fill="#59D000"/>
<path d="M84.4596 289.644V290.455H85.0849V290.898H84.4596V292.975C84.4596 293.109 84.4875 293.21 84.5432 293.278C84.5989 293.344 84.6939 293.377 84.828 293.377C84.894 293.377 84.9848 293.365 85.1004 293.34V293.805C84.9498 293.846 84.8032 293.867 84.6608 293.867C84.4049 293.867 84.212 293.789 84.082 293.634C83.952 293.48 83.887 293.26 83.887 292.975V290.898H83.2771V290.455H83.887V289.644H84.4596ZM87.3756 290.969C87.289 290.955 87.1951 290.947 87.0939 290.947C86.7183 290.947 86.4635 291.107 86.3293 291.427V293.805H85.7567V290.455H86.3139L86.3231 290.842C86.5109 290.543 86.7772 290.393 87.1218 290.393C87.2332 290.393 87.3178 290.408 87.3756 290.437V290.969ZM89.9728 293.473C89.7499 293.736 89.4228 293.867 88.9915 293.867C88.6345 293.867 88.3621 293.763 88.1743 293.557C87.9885 293.349 87.8946 293.041 87.8926 292.635V290.455H88.4653V292.619C88.4653 293.127 88.6716 293.381 89.0844 293.381C89.5219 293.381 89.8129 293.218 89.9573 292.891V290.455H90.53V293.805H89.9852L89.9728 293.473ZM92.7928 293.867C92.3388 293.867 91.9694 293.718 91.6846 293.421C91.3998 293.122 91.2574 292.722 91.2574 292.223V292.118C91.2574 291.785 91.3204 291.489 91.4463 291.229C91.5742 290.967 91.7517 290.763 91.9787 290.616C92.2078 290.468 92.4554 290.393 92.7216 290.393C93.1571 290.393 93.4955 290.537 93.737 290.824C93.9784 291.111 94.0991 291.521 94.0991 292.056V292.294H91.8301C91.8384 292.624 91.9343 292.891 92.118 293.096C92.3037 293.298 92.539 293.399 92.8238 293.399C93.026 293.399 93.1973 293.358 93.3376 293.275C93.478 293.193 93.6008 293.083 93.706 292.947L94.0558 293.22C93.7751 293.651 93.3541 293.867 92.7928 293.867ZM92.7216 290.864C92.4905 290.864 92.2965 290.949 92.1397 291.118C91.9828 291.285 91.8858 291.52 91.8487 291.824H93.5265V291.78C93.51 291.489 93.4315 291.264 93.2912 291.105C93.1509 290.944 92.961 290.864 92.7216 290.864ZM97.1142 289.644V290.455H97.7395V290.898H97.1142V292.975C97.1142 293.109 97.1421 293.21 97.1978 293.278C97.2535 293.344 97.3484 293.377 97.4826 293.377C97.5486 293.377 97.6394 293.365 97.755 293.34V293.805C97.6043 293.846 97.4578 293.867 97.3154 293.867C97.0595 293.867 96.8665 293.789 96.7365 293.634C96.6065 293.48 96.5415 293.26 96.5415 292.975V290.898H95.9317V290.455H96.5415V289.644H97.1142ZM98.1976 292.099C98.1976 291.771 98.2616 291.476 98.3896 291.214C98.5196 290.952 98.6991 290.749 98.9282 290.607C99.1593 290.465 99.4224 290.393 99.7175 290.393C100.174 290.393 100.542 290.551 100.823 290.867C101.105 291.183 101.247 291.603 101.247 292.127V292.167C101.247 292.493 101.184 292.786 101.058 293.046C100.934 293.304 100.756 293.505 100.522 293.65C100.291 293.794 100.025 293.867 99.7237 293.867C99.2697 293.867 98.9013 293.709 98.6186 293.393C98.338 293.077 98.1976 292.659 98.1976 292.139V292.099ZM98.7734 292.167C98.7734 292.539 98.859 292.837 99.0303 293.062C99.2037 293.287 99.4348 293.399 99.7237 293.399C100.015 293.399 100.246 293.286 100.417 293.059C100.588 292.83 100.674 292.51 100.674 292.099C100.674 291.732 100.586 291.435 100.411 291.208C100.238 290.978 100.006 290.864 99.7175 290.864C99.4348 290.864 99.2068 290.976 99.0334 291.201C98.8601 291.426 98.7734 291.748 98.7734 292.167ZM105.488 292.916C105.488 292.761 105.429 292.642 105.311 292.557C105.196 292.47 104.992 292.396 104.701 292.334C104.412 292.272 104.182 292.198 104.011 292.111C103.842 292.025 103.716 291.922 103.633 291.802C103.553 291.682 103.513 291.54 103.513 291.375C103.513 291.1 103.628 290.868 103.859 290.678C104.093 290.488 104.39 290.393 104.751 290.393C105.131 290.393 105.438 290.491 105.673 290.687C105.911 290.884 106.029 291.134 106.029 291.44H105.454C105.454 291.283 105.387 291.148 105.252 291.034C105.12 290.921 104.953 290.864 104.751 290.864C104.542 290.864 104.379 290.909 104.262 291C104.144 291.091 104.085 291.21 104.085 291.356C104.085 291.494 104.14 291.599 104.249 291.669C104.359 291.739 104.556 291.806 104.841 291.87C105.128 291.934 105.36 292.01 105.537 292.099C105.715 292.188 105.846 292.295 105.93 292.421C106.017 292.545 106.06 292.696 106.06 292.876C106.06 293.175 105.941 293.416 105.701 293.597C105.462 293.777 105.151 293.867 104.769 293.867C104.501 293.867 104.264 293.819 104.057 293.724C103.851 293.629 103.689 293.497 103.571 293.328C103.456 293.157 103.398 292.972 103.398 292.774H103.971C103.981 292.966 104.057 293.118 104.2 293.232C104.344 293.343 104.534 293.399 104.769 293.399C104.986 293.399 105.159 293.356 105.29 293.269C105.422 293.18 105.488 293.063 105.488 292.916ZM107.429 293.805H106.856V290.455H107.429V293.805ZM106.809 289.567C106.809 289.474 106.837 289.396 106.893 289.332C106.951 289.268 107.035 289.236 107.147 289.236C107.258 289.236 107.343 289.268 107.401 289.332C107.458 289.396 107.487 289.474 107.487 289.567C107.487 289.66 107.458 289.737 107.401 289.799C107.343 289.861 107.258 289.892 107.147 289.892C107.035 289.892 106.951 289.861 106.893 289.799C106.837 289.737 106.809 289.66 106.809 289.567ZM108.887 293.337H110.846V293.805H108.187V293.384L110.035 290.929H108.215V290.455H110.753V290.861L108.887 293.337ZM112.833 293.867C112.379 293.867 112.01 293.718 111.725 293.421C111.44 293.122 111.298 292.722 111.298 292.223V292.118C111.298 291.785 111.361 291.489 111.487 291.229C111.615 290.967 111.792 290.763 112.019 290.616C112.248 290.468 112.496 290.393 112.762 290.393C113.198 290.393 113.536 290.537 113.777 290.824C114.019 291.111 114.14 291.521 114.14 292.056V292.294H111.871C111.879 292.624 111.975 292.891 112.159 293.096C112.344 293.298 112.579 293.399 112.864 293.399C113.067 293.399 113.238 293.358 113.378 293.275C113.518 293.193 113.641 293.083 113.747 292.947L114.096 293.22C113.816 293.651 113.395 293.867 112.833 293.867ZM112.762 290.864C112.531 290.864 112.337 290.949 112.18 291.118C112.023 291.285 111.926 291.52 111.889 291.824H113.567V291.78C113.55 291.489 113.472 291.264 113.332 291.105C113.191 290.944 113.002 290.864 112.762 290.864Z" fill="white"/>
</g>
<g clip-path="url(#clip6)">
<path fill-rule="evenodd" clip-rule="evenodd" d="M86.2543 201.284C85.43 201.284 84.7617 201.952 84.7617 202.776V225.91C84.7617 226.735 85.4299 227.403 86.2543 227.403H97.0752L99.3814 230.698C99.53 230.91 99.8442 230.91 99.9928 230.698L102.299 227.403H113.12C113.944 227.403 114.612 226.735 114.612 225.91V202.776C114.612 201.952 113.944 201.284 113.12 201.284H86.2543Z" fill="#47505A"/>
<path fill-rule="evenodd" clip-rule="evenodd" d="M99.8732 206.134C102.449 206.134 104.537 204.046 104.537 201.47C104.537 198.894 102.449 196.806 99.8732 196.806C97.2972 196.806 95.209 198.894 95.209 201.47C95.209 204.046 97.2972 206.134 99.8732 206.134Z" fill="white" stroke="#47505A" stroke-width="1.49254"/>
<path d="M97.9023 201.514L99.3952 202.863L102.093 199.953" stroke="#47505A" stroke-width="1.49254"/>
<path d="M95.286 213.533V214.876C95.5188 214.876 95.7606 214.885 96.0114 214.903C96.2711 214.912 96.5084 214.961 96.7233 215.051C96.9383 215.131 97.1129 215.266 97.2472 215.454C97.3905 215.642 97.4621 215.915 97.4621 216.273C97.4621 216.73 97.3144 217.093 97.0188 217.361C96.7233 217.621 96.3606 217.751 95.9308 217.751C95.6532 217.751 95.4114 217.702 95.2054 217.603C95.0084 217.504 94.8427 217.375 94.7084 217.213C94.5741 217.043 94.4711 216.846 94.3994 216.622C94.3278 216.39 94.2875 216.148 94.2786 215.897H92.4651C92.4562 216.443 92.5323 216.927 92.6935 217.348C92.8636 217.769 93.1009 218.127 93.4054 218.422C93.7099 218.709 94.0771 218.928 94.5069 219.081C94.9457 219.233 95.4293 219.309 95.9577 219.309C96.4144 219.309 96.8532 219.242 97.2741 219.107C97.695 218.973 98.0666 218.776 98.389 218.516C98.7114 218.257 98.9666 217.934 99.1547 217.549C99.3517 217.164 99.4502 216.725 99.4502 216.233C99.4502 215.696 99.3024 215.234 99.0069 214.849C98.7114 214.464 98.3039 214.213 97.7845 214.097V214.07C98.2233 213.945 98.5502 213.707 98.7651 213.358C98.989 213.009 99.1009 212.606 99.1009 212.149C99.1009 211.728 99.0069 211.357 98.8188 211.034C98.6308 210.712 98.3845 210.439 98.08 210.215C97.7845 209.991 97.4487 209.825 97.0726 209.718C96.6965 209.602 96.3203 209.543 95.9442 209.543C95.4606 209.543 95.0218 209.624 94.6278 209.785C94.2338 209.937 93.8935 210.157 93.6069 210.443C93.3293 210.73 93.1099 211.075 92.9487 211.478C92.7965 211.872 92.7114 212.31 92.6935 212.794H94.5069C94.498 212.31 94.6144 211.912 94.8562 211.599C95.1069 211.276 95.4741 211.115 95.9577 211.115C96.3069 211.115 96.6159 211.222 96.8845 211.437C97.1532 211.652 97.2875 211.961 97.2875 212.364C97.2875 212.633 97.2203 212.848 97.086 213.009C96.9606 213.17 96.795 213.296 96.589 213.385C96.392 213.466 96.1771 213.515 95.9442 213.533C95.7114 213.551 95.492 213.551 95.286 213.533ZM103.529 214.258C103.771 214.258 103.982 214.312 104.161 214.419C104.349 214.518 104.501 214.652 104.617 214.822C104.734 214.984 104.819 215.172 104.873 215.387C104.935 215.593 104.967 215.807 104.967 216.031C104.967 216.246 104.935 216.457 104.873 216.663C104.81 216.869 104.716 217.052 104.59 217.213C104.465 217.375 104.313 217.504 104.134 217.603C103.964 217.702 103.762 217.751 103.529 217.751C103.287 217.751 103.073 217.702 102.884 217.603C102.696 217.504 102.535 217.375 102.401 217.213C102.276 217.043 102.177 216.855 102.105 216.649C102.043 216.434 102.011 216.219 102.011 216.004C102.011 215.772 102.043 215.552 102.105 215.346C102.168 215.131 102.262 214.943 102.387 214.782C102.513 214.621 102.67 214.496 102.858 214.406C103.055 214.307 103.279 214.258 103.529 214.258ZM104.899 212.149H106.713C106.659 211.728 106.547 211.357 106.377 211.034C106.207 210.712 105.987 210.443 105.719 210.228C105.45 210.004 105.141 209.834 104.792 209.718C104.443 209.602 104.067 209.543 103.664 209.543C102.992 209.543 102.423 209.691 101.958 209.987C101.492 210.282 101.111 210.667 100.816 211.142C100.52 211.607 100.305 212.131 100.171 212.713C100.037 213.296 99.9696 213.878 99.9696 214.46C99.9696 215.06 100.023 215.651 100.131 216.233C100.238 216.806 100.431 217.321 100.708 217.778C100.986 218.234 101.358 218.606 101.823 218.893C102.289 219.17 102.876 219.309 103.583 219.309C104.076 219.309 104.523 219.224 104.926 219.054C105.329 218.875 105.674 218.633 105.961 218.328C106.256 218.015 106.48 217.652 106.632 217.24C106.793 216.819 106.874 216.367 106.874 215.884C106.874 215.507 106.816 215.136 106.699 214.769C106.583 214.402 106.399 214.075 106.149 213.788C105.88 213.493 105.553 213.26 105.168 213.09C104.783 212.91 104.389 212.821 103.986 212.821C103.529 212.821 103.126 212.902 102.777 213.063C102.428 213.224 102.123 213.493 101.864 213.869L101.837 213.842C101.846 213.582 101.882 213.287 101.944 212.955C102.007 212.624 102.105 212.315 102.24 212.028C102.374 211.733 102.553 211.487 102.777 211.29C103.01 211.084 103.296 210.981 103.637 210.981C103.968 210.981 104.246 211.097 104.47 211.33C104.693 211.563 104.837 211.836 104.899 212.149Z" fill="white"/>
</g>
<g clip-path="url(#clip7)">
<rect x="51.1797" y="203.149" width="26.1194" height="22.3881" rx="1.49254" fill="#F0F2F5"/>
<path d="M60.8168 214.151V215.196C60.9979 215.196 61.1859 215.203 61.3809 215.216C61.5829 215.223 61.7675 215.262 61.9347 215.331C62.1018 215.394 62.2377 215.499 62.3421 215.645C62.4536 215.791 62.5093 216.003 62.5093 216.282C62.5093 216.637 62.3944 216.919 62.1645 217.128C61.9347 217.33 61.6526 217.431 61.3183 217.431C61.1023 217.431 60.9143 217.393 60.7541 217.316C60.6008 217.24 60.472 217.139 60.3675 217.013C60.263 216.881 60.1829 216.728 60.1272 216.554C60.0715 216.373 60.0401 216.185 60.0332 215.99H58.6227C58.6158 216.414 58.675 216.791 58.8003 217.118C58.9327 217.445 59.1173 217.724 59.3541 217.954C59.5909 218.177 59.8765 218.347 60.2108 218.466C60.5521 218.584 60.9282 218.643 61.3391 218.643C61.6944 218.643 62.0357 218.591 62.363 218.487C62.6904 218.382 62.9794 218.229 63.2302 218.027C63.4809 217.825 63.6794 217.574 63.8257 217.275C63.979 216.975 64.0556 216.634 64.0556 216.251C64.0556 215.833 63.9406 215.474 63.7108 215.175C63.4809 214.875 63.164 214.68 62.76 214.59V214.569C63.1013 214.471 63.3556 214.287 63.5227 214.015C63.6969 213.743 63.7839 213.43 63.7839 213.075C63.7839 212.747 63.7108 212.458 63.5645 212.207C63.4183 211.957 63.2267 211.744 62.9899 211.57C62.76 211.396 62.4989 211.267 62.2063 211.184C61.9138 211.093 61.6212 211.048 61.3287 211.048C60.9526 211.048 60.6113 211.11 60.3048 211.236C59.9984 211.354 59.7337 211.525 59.5108 211.748C59.2949 211.971 59.1242 212.239 58.9989 212.552C58.8804 212.859 58.8143 213.2 58.8003 213.576H60.2108C60.2038 213.2 60.2944 212.89 60.4824 212.646C60.6775 212.396 60.963 212.27 61.3391 212.27C61.6108 212.27 61.8511 212.354 62.06 212.521C62.269 212.688 62.3735 212.928 62.3735 213.242C62.3735 213.451 62.3212 213.618 62.2168 213.743C62.1192 213.869 61.9904 213.966 61.8302 214.036C61.677 214.099 61.5098 214.137 61.3287 214.151C61.1476 214.165 60.977 214.165 60.8168 214.151ZM67.4998 213.054V215.593H65.5774L67.4685 213.054H67.4998ZM67.4998 216.815V218.507H68.9103V216.815H69.8819V215.593H68.9103V211.194H67.5834L64.4073 215.457V216.815H67.4998Z" fill="black"/>
</g>
<g clip-path="url(#clip8)">
<rect x="122.076" y="203.149" width="26.1194" height="22.3881" rx="1.49254" fill="#F0F2F5"/>
<path d="M131.713 214.151V215.196C131.894 215.196 132.082 215.203 132.277 215.216C132.479 215.223 132.664 215.262 132.831 215.331C132.998 215.394 133.134 215.499 133.239 215.645C133.35 215.791 133.406 216.003 133.406 216.282C133.406 216.637 133.291 216.919 133.061 217.128C132.831 217.33 132.549 217.431 132.215 217.431C131.999 217.431 131.811 217.393 131.651 217.316C131.497 217.24 131.368 217.139 131.264 217.013C131.16 216.881 131.079 216.728 131.024 216.554C130.968 216.373 130.937 216.185 130.93 215.99H129.519C129.512 216.414 129.571 216.791 129.697 217.118C129.829 217.445 130.014 217.724 130.251 217.954C130.487 218.177 130.773 218.347 131.107 218.466C131.449 218.584 131.825 218.643 132.236 218.643C132.591 218.643 132.932 218.591 133.26 218.487C133.587 218.382 133.876 218.229 134.127 218.027C134.377 217.825 134.576 217.574 134.722 217.275C134.875 216.975 134.952 216.634 134.952 216.251C134.952 215.833 134.837 215.474 134.607 215.175C134.377 214.875 134.061 214.68 133.657 214.59V214.569C133.998 214.471 134.252 214.287 134.419 214.015C134.593 213.743 134.68 213.43 134.68 213.075C134.68 212.747 134.607 212.458 134.461 212.207C134.315 211.957 134.123 211.744 133.886 211.57C133.657 211.396 133.395 211.267 133.103 211.184C132.81 211.093 132.518 211.048 132.225 211.048C131.849 211.048 131.508 211.11 131.201 211.236C130.895 211.354 130.63 211.525 130.407 211.748C130.191 211.971 130.021 212.239 129.895 212.552C129.777 212.859 129.711 213.2 129.697 213.576H131.107C131.1 213.2 131.191 212.89 131.379 212.646C131.574 212.396 131.86 212.27 132.236 212.27C132.507 212.27 132.748 212.354 132.957 212.521C133.165 212.688 133.27 212.928 133.27 213.242C133.27 213.451 133.218 213.618 133.113 213.743C133.016 213.869 132.887 213.966 132.727 214.036C132.573 214.099 132.406 214.137 132.225 214.151C132.044 214.165 131.873 214.165 131.713 214.151ZM136.934 213.179C136.934 213.012 136.961 212.866 137.017 212.74C137.08 212.615 137.163 212.51 137.268 212.427C137.372 212.343 137.491 212.281 137.623 212.239C137.762 212.19 137.905 212.166 138.052 212.166C138.281 212.166 138.466 212.201 138.605 212.27C138.752 212.34 138.863 212.427 138.94 212.531C139.023 212.636 139.079 212.747 139.107 212.866C139.135 212.977 139.149 213.082 139.149 213.179C139.149 213.493 139.044 213.733 138.835 213.9C138.626 214.06 138.365 214.14 138.052 214.14C137.752 214.14 137.491 214.06 137.268 213.9C137.045 213.733 136.934 213.493 136.934 213.179ZM135.586 213.043C135.586 213.405 135.676 213.722 135.857 213.994C136.039 214.266 136.307 214.45 136.662 214.548V214.569C136.223 214.673 135.882 214.882 135.638 215.196C135.401 215.509 135.283 215.899 135.283 216.366C135.283 216.763 135.359 217.104 135.513 217.39C135.673 217.675 135.882 217.912 136.14 218.1C136.404 218.288 136.7 218.424 137.028 218.507C137.362 218.598 137.707 218.643 138.062 218.643C138.403 218.643 138.738 218.598 139.065 218.507C139.392 218.41 139.685 218.267 139.943 218.079C140.2 217.891 140.406 217.654 140.559 217.369C140.719 217.083 140.799 216.745 140.799 216.355C140.799 215.896 140.681 215.509 140.444 215.196C140.207 214.875 139.869 214.666 139.431 214.569V214.548C139.786 214.429 140.051 214.234 140.225 213.963C140.406 213.691 140.496 213.374 140.496 213.012C140.496 212.831 140.455 212.629 140.371 212.406C140.287 212.176 140.148 211.964 139.953 211.769C139.765 211.567 139.514 211.396 139.201 211.257C138.887 211.117 138.504 211.048 138.052 211.048C137.752 211.048 137.456 211.09 137.163 211.173C136.871 211.257 136.606 211.382 136.369 211.549C136.14 211.716 135.952 211.925 135.805 212.176C135.659 212.427 135.586 212.716 135.586 213.043ZM136.766 216.293C136.766 215.916 136.892 215.631 137.143 215.436C137.393 215.234 137.7 215.133 138.062 215.133C138.236 215.133 138.396 215.161 138.543 215.216C138.696 215.272 138.828 215.352 138.94 215.457C139.058 215.561 139.149 215.687 139.211 215.833C139.281 215.972 139.316 216.129 139.316 216.303C139.316 216.484 139.284 216.651 139.222 216.804C139.159 216.958 139.068 217.09 138.95 217.202C138.839 217.306 138.706 217.39 138.553 217.452C138.407 217.508 138.243 217.536 138.062 217.536C137.888 217.536 137.721 217.508 137.56 217.452C137.4 217.39 137.261 217.306 137.143 217.202C137.031 217.09 136.941 216.958 136.871 216.804C136.801 216.651 136.766 216.481 136.766 216.293Z" fill="black"/>
</g>
<path d="M41.4776 212.709L40.8536 212.104L37 215.836L40.8536 219.567L41.4776 218.963L38.2481 215.836L41.4776 212.709Z" fill="black"/>
<path d="M157.522 212.709L158.146 212.104L162 215.836L158.146 219.567L157.522 218.963L160.752 215.836L157.522 212.709Z" fill="black"/>
<g clip-path="url(#clip9)">
<g filter="url(#filter7_d)">
<rect x="37.1934" y="455" width="125" height="18.6567" rx="1.49254" fill="#1D252D"/>
</g>
<path d="M74.7283 465.23C74.7283 465.065 74.67 464.938 74.5534 464.851C74.4368 464.761 74.2269 464.668 73.9238 464.571C73.6206 464.472 73.3806 464.375 73.2037 464.279C72.7218 464.019 72.4808 463.668 72.4808 463.227C72.4808 462.998 72.5449 462.794 72.6732 462.615C72.8034 462.434 72.989 462.293 73.23 462.192C73.4729 462.091 73.745 462.041 74.0462 462.041C74.3494 462.041 74.6195 462.096 74.8566 462.207C75.0937 462.316 75.2774 462.47 75.4076 462.67C75.5397 462.87 75.6058 463.098 75.6058 463.352H74.7313C74.7313 463.158 74.67 463.007 74.5476 462.901C74.4252 462.792 74.2532 462.737 74.0316 462.737C73.8179 462.737 73.6517 462.783 73.5331 462.874C73.4146 462.964 73.3553 463.082 73.3553 463.23C73.3553 463.368 73.4243 463.484 73.5623 463.577C73.7022 463.67 73.9073 463.758 74.1774 463.839C74.6749 463.989 75.0373 464.174 75.2647 464.396C75.4921 464.618 75.6058 464.894 75.6058 465.224C75.6058 465.591 75.4668 465.88 75.1889 466.09C74.911 466.298 74.5369 466.402 74.0666 466.402C73.7401 466.402 73.4428 466.342 73.1746 466.224C72.9064 466.103 72.7014 465.939 72.5595 465.731C72.4196 465.523 72.3496 465.282 72.3496 465.008H73.2271C73.2271 465.477 73.5069 465.711 74.0666 465.711C74.2746 465.711 74.4368 465.669 74.5534 465.585C74.67 465.5 74.7283 465.381 74.7283 465.23ZM79.1272 464.504H77.4481V465.641H79.4188V466.343H76.5736V462.099H79.4129V462.807H77.4481V463.819H79.1272V464.504ZM81.1795 465.641H83.0364V466.343H80.305V462.099H81.1795V465.641ZM86.4675 464.504H84.7884V465.641H86.759V466.343H83.9139V462.099H86.7532V462.807H84.7884V463.819H86.4675V464.504ZM90.9772 464.929C90.9441 465.386 90.7751 465.746 90.4699 466.008C90.1668 466.27 89.7664 466.402 89.2689 466.402C88.7248 466.402 88.2962 466.219 87.9834 465.854C87.6724 465.486 87.5169 464.983 87.5169 464.344V464.084C87.5169 463.676 87.5888 463.316 87.7327 463.005C87.8765 462.695 88.0815 462.456 88.3477 462.291C88.6159 462.124 88.9269 462.041 89.2806 462.041C89.7703 462.041 90.1648 462.172 90.4641 462.434C90.7634 462.696 90.9364 463.065 90.983 463.539H90.1085C90.0871 463.265 90.0103 463.067 89.8782 462.944C89.748 462.82 89.5488 462.758 89.2806 462.758C88.9891 462.758 88.7704 462.863 88.6247 463.073C88.4809 463.28 88.407 463.604 88.4031 464.043V464.364C88.4031 464.823 88.4721 465.158 88.6101 465.37C88.75 465.581 88.9696 465.687 89.2689 465.687C89.5391 465.687 89.7402 465.626 89.8723 465.504C90.0064 465.379 90.0832 465.188 90.1026 464.929H90.9772ZM95.0321 462.807H93.732V466.343H92.8574V462.807H91.5748V462.099H95.0321V462.807ZM100.612 462.807H99.3115V466.343H98.4369V462.807H97.1543V462.099H100.612V462.807ZM104.941 466.343H104.066V464.524H102.361V466.343H101.486V462.099H102.361V463.819H104.066V462.099H104.941V466.343ZM107.01 466.343H106.136V462.099H107.01V466.343ZM110.398 465.23C110.398 465.065 110.339 464.938 110.223 464.851C110.106 464.761 109.896 464.668 109.593 464.571C109.29 464.472 109.05 464.375 108.873 464.279C108.391 464.019 108.15 463.668 108.15 463.227C108.15 462.998 108.214 462.794 108.342 462.615C108.473 462.434 108.658 462.293 108.899 462.192C109.142 462.091 109.414 462.041 109.716 462.041C110.019 462.041 110.289 462.096 110.526 462.207C110.763 462.316 110.947 462.47 111.077 462.67C111.209 462.87 111.275 463.098 111.275 463.352H110.401C110.401 463.158 110.339 463.007 110.217 462.901C110.094 462.792 109.922 462.737 109.701 462.737C109.487 462.737 109.321 462.783 109.202 462.874C109.084 462.964 109.025 463.082 109.025 463.23C109.025 463.368 109.094 463.484 109.232 463.577C109.372 463.67 109.577 463.758 109.847 463.839C110.344 463.989 110.707 464.174 110.934 464.396C111.161 464.618 111.275 464.894 111.275 465.224C111.275 465.591 111.136 465.88 110.858 466.09C110.58 466.298 110.206 466.402 109.736 466.402C109.409 466.402 109.112 466.342 108.844 466.224C108.576 466.103 108.371 465.939 108.229 465.731C108.089 465.523 108.019 465.282 108.019 465.008H108.896C108.896 465.477 109.176 465.711 109.736 465.711C109.944 465.711 110.106 465.669 110.223 465.585C110.339 465.5 110.398 465.381 110.398 465.23ZM116.304 465.23C116.304 465.065 116.245 464.938 116.129 464.851C116.012 464.761 115.802 464.668 115.499 464.571C115.196 464.472 114.956 464.375 114.779 464.279C114.297 464.019 114.056 463.668 114.056 463.227C114.056 462.998 114.12 462.794 114.249 462.615C114.379 462.434 114.564 462.293 114.805 462.192C115.048 462.091 115.32 462.041 115.622 462.041C115.925 462.041 116.195 462.096 116.432 462.207C116.669 462.316 116.853 462.47 116.983 462.67C117.115 462.87 117.181 463.098 117.181 463.352H116.307C116.307 463.158 116.245 463.007 116.123 462.901C116 462.792 115.829 462.737 115.607 462.737C115.393 462.737 115.227 462.783 115.108 462.874C114.99 462.964 114.931 463.082 114.931 463.23C114.931 463.368 115 463.484 115.138 463.577C115.278 463.67 115.483 463.758 115.753 463.839C116.25 463.989 116.613 464.174 116.84 464.396C117.067 464.618 117.181 464.894 117.181 465.224C117.181 465.591 117.042 465.88 116.764 466.09C116.486 466.298 116.112 466.402 115.642 466.402C115.315 466.402 115.018 466.342 114.75 466.224C114.482 466.103 114.277 465.939 114.135 465.731C113.995 465.523 113.925 465.282 113.925 465.008H114.802C114.802 465.477 115.082 465.711 115.642 465.711C115.85 465.711 116.012 465.669 116.129 465.585C116.245 465.5 116.304 465.381 116.304 465.23ZM119.079 466.343H118.204V462.099H119.079V466.343ZM121.192 465.641H123.332V466.343H120.099V465.83L122.198 462.807H120.102V462.099H123.285V462.6L121.192 465.641ZM126.813 464.504H125.134V465.641H127.104V466.343H124.259V462.099H127.098V462.807H125.134V463.819H126.813V464.504Z" fill="white"/>
</g>
<path d="M63.6549 186.668L64.5381 184.756H65.4943L64.1009 187.461V189H63.2118V187.461L61.8183 184.756H62.7774L63.6549 186.668ZM69.281 186.974C69.281 187.392 69.2072 187.758 69.0595 188.073C68.9118 188.388 68.6999 188.631 68.424 188.802C68.15 188.973 67.8351 189.058 67.4795 189.058C67.1277 189.058 66.8139 188.974 66.5379 188.805C66.2619 188.636 66.0482 188.395 65.8966 188.082C65.745 187.767 65.6682 187.405 65.6663 186.997V186.787C65.6663 186.37 65.7411 186.002 65.8907 185.686C66.0423 185.367 66.2551 185.123 66.5292 184.954C66.8051 184.783 67.1199 184.697 67.4736 184.697C67.8273 184.697 68.1412 184.783 68.4152 184.954C68.6912 185.123 68.904 185.367 69.0536 185.686C69.2052 186.002 69.281 186.369 69.281 186.785V186.974ZM68.3948 186.782C68.3948 186.337 68.3151 185.998 68.1558 185.767C67.9964 185.536 67.769 185.42 67.4736 185.42C67.1802 185.42 66.9538 185.535 66.7944 185.764C66.6351 185.992 66.5544 186.326 66.5525 186.767V186.974C66.5525 187.407 66.6322 187.744 66.7915 187.983C66.9509 188.222 67.1802 188.341 67.4795 188.341C67.7729 188.341 67.9984 188.227 68.1558 187.997C68.3132 187.766 68.3929 187.43 68.3948 186.989V186.782ZM73.129 184.756V187.551C73.129 188.016 72.9832 188.383 72.6917 188.653C72.4021 188.923 72.0057 189.058 71.5023 189.058C71.0068 189.058 70.6132 188.927 70.3217 188.665C70.0302 188.402 69.8815 188.042 69.8757 187.583V184.756H70.7502V187.557C70.7502 187.835 70.8163 188.038 70.9485 188.166C71.0826 188.293 71.2672 188.356 71.5023 188.356C71.994 188.356 72.2437 188.097 72.2515 187.58V184.756H73.129ZM75.4173 187.446H74.7206V189H73.8461V184.756H75.4232C75.9246 184.756 76.3113 184.867 76.5834 185.091C76.8554 185.314 76.9915 185.63 76.9915 186.038C76.9915 186.328 76.9283 186.57 76.802 186.764C76.6776 186.957 76.4881 187.11 76.2336 187.225L77.1518 188.959V189H76.2132L75.4173 187.446ZM74.7206 186.738H75.4261C75.6457 186.738 75.8157 186.682 75.9362 186.572C76.0567 186.459 76.117 186.304 76.117 186.108C76.117 185.908 76.0596 185.751 75.945 185.636C75.8322 185.521 75.6583 185.464 75.4232 185.464H74.7206V186.738ZM80.717 187.446H80.0203V189H79.1458V184.756H80.7228C81.2242 184.756 81.611 184.867 81.883 185.091C82.1551 185.314 82.2912 185.63 82.2912 186.038C82.2912 186.328 82.228 186.57 82.1017 186.764C81.9773 186.957 81.7878 187.11 81.5332 187.225L82.4515 188.959V189H81.5128L80.717 187.446ZM80.0203 186.738H80.7257C80.9454 186.738 81.1154 186.682 81.2359 186.572C81.3564 186.459 81.4166 186.304 81.4166 186.108C81.4166 185.908 81.3593 185.751 81.2446 185.636C81.1319 185.521 80.958 185.464 80.7228 185.464H80.0203V186.738ZM85.5124 187.161H83.8333V188.297H85.8039V189H82.9587V184.756H85.798V185.464H83.8333V186.476H85.5124V187.161ZM89.6489 187.586C89.6159 188.043 89.4468 188.402 89.1417 188.665C88.8385 188.927 88.4382 189.058 87.9406 189.058C87.3965 189.058 86.968 188.876 86.6551 188.51C86.3441 188.143 86.1887 187.64 86.1887 187V186.741C86.1887 186.333 86.2606 185.973 86.4044 185.662C86.5482 185.351 86.7532 185.113 87.0195 184.948C87.2877 184.781 87.5986 184.697 87.9523 184.697C88.442 184.697 88.8366 184.828 89.1358 185.091C89.4351 185.353 89.6081 185.721 89.6547 186.196H88.7802C88.7588 185.922 88.6821 185.723 88.5499 185.601C88.4197 185.477 88.2205 185.414 87.9523 185.414C87.6608 185.414 87.4422 185.519 87.2964 185.729C87.1526 185.937 87.0787 186.261 87.0749 186.7V187.021C87.0749 187.479 87.1438 187.815 87.2818 188.026C87.4218 188.238 87.6414 188.344 87.9406 188.344C88.2108 188.344 88.4119 188.283 88.5441 188.16C88.6782 188.036 88.7549 187.845 88.7744 187.586H89.6489ZM93.7097 186.974C93.7097 187.392 93.6358 187.758 93.4881 188.073C93.3404 188.388 93.1286 188.631 92.8526 188.802C92.5786 188.973 92.2638 189.058 91.9081 189.058C91.5564 189.058 91.2425 188.974 90.9665 188.805C90.6906 188.636 90.4768 188.395 90.3252 188.082C90.1736 187.767 90.0969 187.405 90.0949 186.997V186.787C90.0949 186.37 90.1697 186.002 90.3194 185.686C90.471 185.367 90.6838 185.123 90.9578 184.954C91.2338 184.783 91.5486 184.697 91.9023 184.697C92.256 184.697 92.5698 184.783 92.8439 184.954C93.1198 185.123 93.3326 185.367 93.4823 185.686C93.6339 186.002 93.7097 186.369 93.7097 186.785V186.974ZM92.8235 186.782C92.8235 186.337 92.7438 185.998 92.5844 185.767C92.4251 185.536 92.1977 185.42 91.9023 185.42C91.6088 185.42 91.3824 185.535 91.2231 185.764C91.0637 185.992 90.9831 186.326 90.9811 186.767V186.974C90.9811 187.407 91.0608 187.744 91.2201 187.983C91.3795 188.222 91.6088 188.341 91.9081 188.341C92.2016 188.341 92.427 188.227 92.5844 187.997C92.7418 187.766 92.8215 187.43 92.8235 186.989V186.782ZM95.4879 184.756L96.5781 187.834L97.6625 184.756H98.8111V189H97.9336V187.84L98.0211 185.837L96.8755 189H96.275L95.1322 185.84L95.2197 187.84V189H94.3451V184.756H95.4879ZM100.718 184.756L101.808 187.834L102.892 184.756H104.041V189H103.163V187.84L103.251 185.837L102.105 189H101.505L100.362 185.84L100.449 187.84V189H99.5749V184.756H100.718ZM107.358 187.161H105.679V188.297H107.65V189H104.805V184.756H107.644V185.464H105.679V186.476H107.358V187.161ZM111.614 189H110.74L109.037 186.207V189H108.163V184.756H109.037L110.743 187.554V184.756H111.614V189ZM112.378 189V184.756H113.684C114.057 184.756 114.39 184.84 114.684 185.009C114.979 185.176 115.21 185.415 115.375 185.726C115.54 186.035 115.623 186.387 115.623 186.782V186.977C115.623 187.371 115.541 187.722 115.378 188.029C115.216 188.336 114.988 188.574 114.693 188.743C114.397 188.913 114.064 188.998 113.693 189H112.378ZM113.253 185.464V188.297H113.675C114.017 188.297 114.279 188.186 114.459 187.962C114.64 187.739 114.732 187.419 114.736 187.003V186.779C114.736 186.347 114.647 186.021 114.468 185.799C114.289 185.576 114.028 185.464 113.684 185.464H113.253ZM118.815 187.161H117.135V188.297H119.106V189H116.261V184.756H119.1V185.464H117.135V186.476H118.815V187.161ZM119.619 189V184.756H120.925C121.298 184.756 121.632 184.84 121.925 185.009C122.22 185.176 122.451 185.415 122.616 185.726C122.781 186.035 122.864 186.387 122.864 186.782V186.977C122.864 187.371 122.782 187.722 122.619 188.029C122.458 188.336 122.229 188.574 121.934 188.743C121.638 188.913 121.305 188.998 120.934 189H119.619ZM120.494 185.464V188.297H120.916C121.258 188.297 121.52 188.186 121.701 187.962C121.881 187.739 121.974 187.419 121.977 187.003V186.779C121.977 186.347 121.888 186.021 121.709 185.799C121.531 185.576 121.269 185.464 120.925 185.464H120.494ZM127.19 187.886C127.19 187.721 127.131 187.595 127.015 187.507C126.898 187.418 126.688 187.325 126.385 187.228C126.082 187.128 125.842 187.031 125.665 186.936C125.183 186.676 124.942 186.325 124.942 185.884C124.942 185.654 125.006 185.45 125.135 185.272C125.265 185.091 125.45 184.95 125.691 184.849C125.934 184.748 126.206 184.697 126.508 184.697C126.811 184.697 127.081 184.753 127.318 184.863C127.555 184.972 127.739 185.127 127.869 185.327C128.001 185.527 128.067 185.755 128.067 186.009H127.193C127.193 185.815 127.131 185.664 127.009 185.557C126.887 185.448 126.715 185.394 126.493 185.394C126.279 185.394 126.113 185.44 125.995 185.531C125.876 185.62 125.817 185.739 125.817 185.887C125.817 186.025 125.886 186.14 126.024 186.234C126.164 186.327 126.369 186.414 126.639 186.496C127.136 186.646 127.499 186.831 127.726 187.053C127.953 187.274 128.067 187.55 128.067 187.881C128.067 188.248 127.928 188.536 127.65 188.746C127.372 188.954 126.998 189.058 126.528 189.058C126.201 189.058 125.904 188.999 125.636 188.88C125.368 188.76 125.163 188.596 125.021 188.388C124.881 188.18 124.811 187.939 124.811 187.665H125.688C125.688 188.133 125.968 188.367 126.528 188.367C126.736 188.367 126.898 188.326 127.015 188.242C127.131 188.157 127.19 188.038 127.19 187.886ZM129.592 189H128.717V184.756H129.592V189ZM131.332 188.297H133.472V189H130.239V188.487L132.338 185.464H130.242V184.756H133.425V185.257L131.332 188.297ZM136.579 187.161H134.9V188.297H136.871V189H134.026V184.756H136.865V185.464H134.9V186.476H136.579V187.161Z" fill="#1D252D"/>
<rect x="7.18359" y="138.695" width="184.213" height="362.89"/>
</g>
<defs>
<filter id="filter0_i" x="131.256" y="0" width="697.443" height="484.375" filterUnits="userSpaceOnUse" color-interpolation-filters="sRGB">
<feFlood flood-opacity="0" result="BackgroundImageFix"/>
<feBlend mode="normal" in="SourceGraphic" in2="BackgroundImageFix" result="shape"/>
<feColorMatrix in="SourceAlpha" type="matrix" values="0 0 0 0 0 0 0 0 0 0 0 0 0 0 0 0 0 0 127 0" result="hardAlpha"/>
<feOffset/>
<feGaussianBlur stdDeviation="0.5"/>
<feComposite in2="hardAlpha" operator="arithmetic" k2="-1" k3="1"/>
<feColorMatrix type="matrix" values="0 0 0 0 0.257004 0 0 0 0 0.261685 0 0 0 0 0.271046 0 0 0 1 0"/>
<feBlend mode="normal" in2="shape" result="effect1_innerShadow"/>
</filter>
<filter id="filter1_i" x="134.807" y="3.55115" width="690.341" height="477.273" filterUnits="userSpaceOnUse" color-interpolation-filters="sRGB">
<feFlood flood-opacity="0" result="BackgroundImageFix"/>
<feBlend mode="normal" in="SourceGraphic" in2="BackgroundImageFix" result="shape"/>
<feColorMatrix in="SourceAlpha" type="matrix" values="0 0 0 0 0 0 0 0 0 0 0 0 0 0 0 0 0 0 127 0" result="hardAlpha"/>
<feOffset/>
<feGaussianBlur stdDeviation="1.5"/>
<feComposite in2="hardAlpha" operator="arithmetic" k2="-1" k3="1"/>
<feColorMatrix type="matrix" values="0 0 0 0 0.708679 0 0 0 0 0.708679 0 0 0 0 0.708679 0 0 0 1 0"/>
<feBlend mode="normal" in2="shape" result="effect1_innerShadow"/>
</filter>
<filter id="filter2_i" x="138.592" y="453.835" width="682.771" height="23.017" filterUnits="userSpaceOnUse" color-interpolation-filters="sRGB">
<feFlood flood-opacity="0" result="BackgroundImageFix"/>
<feBlend mode="normal" in="SourceGraphic" in2="BackgroundImageFix" result="shape"/>
<feColorMatrix in="SourceAlpha" type="matrix" values="0 0 0 0 0 0 0 0 0 0 0 0 0 0 0 0 0 0 127 0" result="hardAlpha"/>
<feOffset dy="1"/>
<feGaussianBlur stdDeviation="0.5"/>
<feComposite in2="hardAlpha" operator="arithmetic" k2="-1" k3="1"/>
<feColorMatrix type="matrix" values="0 0 0 0 1 0 0 0 0 1 0 0 0 0 1 0 0 0 0.03 0"/>
<feBlend mode="normal" in2="shape" result="effect1_innerShadow"/>
</filter>
<filter id="filter3_d" x="301" y="43" width="374" height="394" filterUnits="userSpaceOnUse" color-interpolation-filters="sRGB">
<feFlood flood-opacity="0" result="BackgroundImageFix"/>
<feColorMatrix in="SourceAlpha" type="matrix" values="0 0 0 0 0 0 0 0 0 0 0 0 0 0 0 0 0 0 127 0"/>
<feOffset dy="2"/>
<feGaussianBlur stdDeviation="12"/>
<feColorMatrix type="matrix" values="0 0 0 0 0 0 0 0 0 0 0 0 0 0 0 0 0 0 0.2 0"/>
<feBlend mode="normal" in2="BackgroundImageFix" result="effect1_dropShadow"/>
<feBlend mode="normal" in="SourceGraphic" in2="effect1_dropShadow" result="shape"/>
</filter>
<filter id="filter4_d" x="405.852" y="361" width="164" height="36.3881" filterUnits="userSpaceOnUse" color-interpolation-filters="sRGB">
<feFlood flood-opacity="0" result="BackgroundImageFix"/>
<feColorMatrix in="SourceAlpha" type="matrix" values="0 0 0 0 0 0 0 0 0 0 0 0 0 0 0 0 0 0 127 0"/>
<feOffset dy="2"/>
<feGaussianBlur stdDeviation="3.5"/>
<feColorMatrix type="matrix" values="0 0 0 0 0.113725 0 0 0 0 0.145098 0 0 0 0 0.176471 0 0 0 0.300098 0"/>
<feBlend mode="normal" in2="BackgroundImageFix" result="effect1_dropShadow"/>
<feBlend mode="normal" in="SourceGraphic" in2="effect1_dropShadow" result="shape"/>
</filter>
<filter id="filter5_di" x="408.664" y="468.04" width="144.002" height="12.6534" filterUnits="userSpaceOnUse" color-interpolation-filters="sRGB">
<feFlood flood-opacity="0" result="BackgroundImageFix"/>
<feColorMatrix in="SourceAlpha" type="matrix" values="0 0 0 0 0 0 0 0 0 0 0 0 0 0 0 0 0 0 127 0"/>
<feOffset dy="1"/>
<feGaussianBlur stdDeviation="0.5"/>
<feColorMatrix type="matrix" values="0 0 0 0 1 0 0 0 0 1 0 0 0 0 1 0 0 0 0.242584 0"/>
<feBlend mode="normal" in2="BackgroundImageFix" result="effect1_dropShadow"/>
<feBlend mode="normal" in="SourceGraphic" in2="effect1_dropShadow" result="shape"/>
<feColorMatrix in="SourceAlpha" type="matrix" values="0 0 0 0 0 0 0 0 0 0 0 0 0 0 0 0 0 0 127 0" result="hardAlpha"/>
<feOffset/>
<feGaussianBlur stdDeviation="4"/>
<feComposite in2="hardAlpha" operator="arithmetic" k2="-1" k3="1"/>
<feColorMatrix type="matrix" values="0 0 0 0 0 0 0 0 0 0 0 0 0 0 0 0 0 0 0.434471 0"/>
<feBlend mode="normal" in2="shape" result="effect2_innerShadow"/>
</filter>
<filter id="filter6_d" x="0.183594" y="126.695" width="212.213" height="390.89" filterUnits="userSpaceOnUse" color-interpolation-filters="sRGB">
<feFlood flood-opacity="0" result="BackgroundImageFix"/>
<feColorMatrix in="SourceAlpha" type="matrix" values="0 0 0 0 0 0 0 0 0 0 0 0 0 0 0 0 0 0 127 0"/>
<feOffset dx="7" dy="2"/>
<feGaussianBlur stdDeviation="7"/>
<feColorMatrix type="matrix" values="0 0 0 0 0 0 0 0 0 0 0 0 0 0 0 0 0 0 0.3 0"/>
<feBlend mode="normal" in2="BackgroundImageFix" result="effect1_dropShadow"/>
<feBlend mode="normal" in="SourceGraphic" in2="effect1_dropShadow" result="shape"/>
</filter>
<filter id="filter7_d" x="31.1934" y="451" width="137" height="30.6567" filterUnits="userSpaceOnUse" color-interpolation-filters="sRGB">
<feFlood flood-opacity="0" result="BackgroundImageFix"/>
<feColorMatrix in="SourceAlpha" type="matrix" values="0 0 0 0 0 0 0 0 0 0 0 0 0 0 0 0 0 0 127 0"/>
<feOffset dy="2"/>
<feGaussianBlur stdDeviation="3"/>
<feColorMatrix type="matrix" values="0 0 0 0 0.113725 0 0 0 0 0.145098 0 0 0 0 0.176471 0 0 0 0.300098 0"/>
<feBlend mode="normal" in2="BackgroundImageFix" result="effect1_dropShadow"/>
<feBlend mode="normal" in="SourceGraphic" in2="effect1_dropShadow" result="shape"/>
</filter>
<linearGradient id="paint0_linear" x1="143.987" y1="0" x2="143.987" y2="466.691" gradientUnits="userSpaceOnUse">
<stop stop-color="#4B4D4C"/>
<stop offset="1" stop-color="#636466"/>
</linearGradient>
<linearGradient id="paint1_linear" x1="257.894" y1="461.598" x2="257.894" y2="475.852" gradientUnits="userSpaceOnUse">
<stop stop-color="#1D1D1D"/>
<stop offset="1" stop-color="#0D0D0D"/>
</linearGradient>
<linearGradient id="paint2_linear" x1="908.955" y1="499.651" x2="908.955" y2="483.665" gradientUnits="userSpaceOnUse">
<stop stop-color="#F6F6F6"/>
<stop offset="0.146616" stop-color="#F8F8F9"/>
<stop offset="0.444686" stop-color="#E7E7E8"/>
<stop offset="0.825674" stop-color="#C6C7CD"/>
<stop offset="1" stop-color="#B8B9BD"/>
</linearGradient>
<linearGradient id="paint3_linear" x1="51" y1="499.651" x2="908.955" y2="499.651" gradientUnits="userSpaceOnUse">
<stop stop-color="#27282C"/>
<stop offset="0.00827815" stop-color="#ABACB0"/>
<stop offset="0.0252192" stop-color="#3E3F43"/>
<stop offset="0.132007" stop-color="#88898D"/>
<stop offset="0.505746" stop-color="#A2A3A7"/>
<stop offset="0.876216" stop-color="#88898D"/>
<stop offset="0.974884" stop-color="#3E3F43"/>
<stop offset="0.991722" stop-color="#ABACB0"/>
<stop offset="1" stop-color="#27282C"/>
</linearGradient>
<linearGradient id="paint4_linear" x1="51" y1="483.665" x2="51" y2="499.651" gradientUnits="userSpaceOnUse">
<stop/>
<stop offset="1" stop-opacity="0.01"/>
</linearGradient>
<linearGradient id="paint5_linear" x1="51" y1="483.665" x2="908.955" y2="483.665" gradientUnits="userSpaceOnUse">
<stop stop-color="#27282C"/>
<stop offset="0.00827815" stop-color="#ABACB0"/>
<stop offset="0.0252192" stop-color="#3E3F43"/>
<stop offset="0.132007" stop-color="#88898D"/>
<stop offset="0.505746" stop-color="#A2A3A7"/>
<stop offset="0.876216" stop-color="#88898D"/>
<stop offset="0.974884" stop-color="#3E3F43"/>
<stop offset="0.991722" stop-color="#ABACB0"/>
<stop offset="1" stop-color="#27282C"/>
</linearGradient>
<linearGradient id="paint6_linear" x1="409.664" y1="478.693" x2="551.666" y2="478.693" gradientUnits="userSpaceOnUse">
<stop stop-color="#4E5457"/>
<stop offset="0.15112" stop-color="#83888B"/>
<stop offset="0.505746" stop-color="#9D9FA4"/>
<stop offset="0.849955" stop-color="#83888B"/>
<stop offset="1" stop-color="#4E5457"/>
</linearGradient>
<clipPath id="clip0">
<rect x="412.852" y="366" width="150" height="23" fill="white"/>
</clipPath>
<clipPath id="clip1">
<rect x="458.189" y="183.5" width="58" height="22" fill="white"/>
</clipPath>
<clipPath id="clip2">
<rect x="470.314" y="102.567" width="36" height="41" fill="white"/>
</clipPath>
<clipPath id="clip3">
<rect x="430.016" y="110.179" width="32" height="27" fill="white"/>
</clipPath>
<clipPath id="clip4">
<rect x="515.09" y="110.179" width="32" height="27" fill="white"/>
</clipPath>
<clipPath id="clip5">
<rect x="75.4902" y="284.417" width="48" height="19" fill="white"/>
</clipPath>
<clipPath id="clip6">
<rect x="84.7617" y="196.806" width="30" height="35" fill="white"/>
</clipPath>
<clipPath id="clip7">
<rect x="51.1797" y="203.149" width="27" height="23" fill="white"/>
</clipPath>
<clipPath id="clip8">
<rect x="122.076" y="203.149" width="27" height="23" fill="white"/>
</clipPath>
<clipPath id="clip9">
<rect x="37.1934" y="455" width="125" height="19" fill="white"/>
</clipPath>
</defs>
</svg>
