<svg width="453" height="429" viewBox="0 0 453 429" fill="none" xmlns="http://www.w3.org/2000/svg">
<path fill-rule="evenodd" clip-rule="evenodd" d="M316.271 86.2654L307.72 45.735C307.312 42.0683 304.4 39.0509 300.581 38.6565C297.593 38.3481 294.824 39.7269 293.209 42.0196C290.053 39.8816 286.246 38.6317 282.146 38.6317C272.55 38.6317 264.558 45.4781 262.774 54.5523L257.386 49.8027L237.04 73.0605L237.098 73.0977C234.635 75.4782 232.737 78.5061 231.737 82.0391C228.719 92.7021 234.917 103.793 245.581 106.81C245.789 106.869 245.997 106.901 246.205 106.954L243.494 115.033L282.936 102.715C283.222 108.531 287.702 113.431 293.673 114.047C300.263 114.726 306.155 109.935 306.835 103.345C307.049 101.272 306.721 99.2697 305.966 97.4765C306.007 97.4813 306.047 97.4908 306.088 97.4946C311.254 98.0275 315.876 94.271 316.409 89.1032C316.508 88.1302 316.456 87.1763 316.271 86.2654Z" fill="#1D252D"/>
<path fill-rule="evenodd" clip-rule="evenodd" d="M332.088 302.25H221.323L246.182 112.852L323.789 115.702L332.088 302.25Z" fill="#0090D6"/>
<path fill-rule="evenodd" clip-rule="evenodd" d="M290.82 113.21L281.607 115.033L272.895 113.123L272.383 68.4277L291.91 70.4109L290.82 113.21Z" fill="#977556"/>
<path fill-rule="evenodd" clip-rule="evenodd" d="M282.189 92.4664C272.527 92.4664 264.696 84.6336 264.696 74.9723L264.611 61.1992C264.611 51.5379 299.682 50.5028 299.682 60.1642V74.9723C299.682 84.6336 291.85 92.4664 282.189 92.4664Z" fill="#B28B67"/>
<path fill-rule="evenodd" clip-rule="evenodd" d="M286.754 406.243C287.121 406.941 287.147 407.77 286.822 408.49L277.996 428.086C275.938 427.159 274.612 425.115 274.605 422.856C274.598 420.656 275.46 410.043 275.779 406.958C275.908 405.72 275.267 402.576 275.267 402.576L281.444 396.146L286.754 406.243Z" fill="#102257"/>
<path fill-rule="evenodd" clip-rule="evenodd" d="M288.141 414.225H295.936L296.531 419.98C296.78 420.134 300.415 421.203 301.835 422.258C303.681 423.628 304.779 425.787 304.779 428.086H300.209C298.212 428.086 293.933 427.766 291.971 427.398L288.149 426.681L288.141 414.225Z" fill="#102257"/>
<path fill-rule="evenodd" clip-rule="evenodd" d="M279.645 218.384C279.647 218.353 246.183 228.033 246.183 228.033C246.183 228.033 246.135 318.492 247.595 332.576C250.224 357.96 275.267 402.577 275.267 402.577L281.445 396.146L271.576 327.646L278.005 270.396L278.233 268.712C279.192 264.913 282.521 260.755 283.414 264.569L288.141 414.225H295.937C302.53 360.797 316.308 298.354 313.721 244.583L311.626 227.206L279.645 218.384Z" fill="#B28B67"/>
<path fill-rule="evenodd" clip-rule="evenodd" d="M311.369 190.106L313.256 240.731L247.782 229.971L252.307 186.46L248.649 142.361L237.273 130.124C237.344 111.712 244.794 101.661 258.907 101.715L306.241 101.69C320.353 101.744 326.697 116.55 326.627 134.962L312.052 140.498L311.369 190.106Z" fill="#B28B67"/>
<path fill-rule="evenodd" clip-rule="evenodd" d="M330.423 188.287L305.127 122.483L323.789 115.702L342.061 175.197C345.403 185.207 330.423 188.287 330.423 188.287Z" fill="#B28B67"/>
<path fill-rule="evenodd" clip-rule="evenodd" d="M227.421 174.441L227.5 176.59L257.305 128.351L239.883 114.278L216.705 157.154C214.517 167.478 217.84 172.41 227.421 174.441Z" fill="#B28B67"/>
<path fill-rule="evenodd" clip-rule="evenodd" d="M239.2 208.914C239.108 210.523 239.385 212.131 240.014 213.615L242.771 219.271C243.14 220.14 245.138 221.959 247.302 221.825C249.913 221.662 251.19 219.884 251.27 218.518L250.553 209.426C252.449 210.332 253.363 208.292 253.153 207.606L249.56 195.865L240.234 195.251L239.2 208.914Z" fill="#B28B67"/>
<path fill-rule="evenodd" clip-rule="evenodd" d="M220.407 151.615L249.692 195.967L242.07 199.909L219.026 177.067C212.227 171.106 211.984 162.266 220.407 151.615Z" fill="#B28B67"/>
<path fill-rule="evenodd" clip-rule="evenodd" d="M275.5 61.3949C273.372 61.0789 271.28 61.2842 269.182 61.7511C267.982 62.0175 268.187 63.4995 269.403 63.3123C271.628 62.9695 273.505 63.1347 275.474 63.4269C276.691 63.6074 276.706 61.5735 275.5 61.3949Z" fill="#102257"/>
<path fill-rule="evenodd" clip-rule="evenodd" d="M250.851 169.553H311.6L312 140.511L326.575 134.975C326.644 116.562 320.3 101.757 306.187 101.703L281.838 106.328L258.854 101.727C244.742 101.674 237.292 111.724 237.221 130.137L248.597 142.373L250.851 169.553Z" fill="#DDE3E9"/>
<path fill-rule="evenodd" clip-rule="evenodd" d="M313.133 283.785L246.183 288.444L242.673 257.266C241.687 238.666 243.283 219.465 247.841 202.66L251.871 190.651L311.369 190.106C319.472 218.806 320.479 249.047 314.308 278.224L313.133 283.785Z" fill="#DDE3E9"/>
<path fill-rule="evenodd" clip-rule="evenodd" d="M256.206 101.833C263.381 108.628 273.391 112.853 284.474 112.853C295.117 112.853 304.769 108.955 311.873 102.628C310.143 102.028 308.258 101.698 306.201 101.691L258.868 101.715C257.952 101.711 257.065 101.752 256.206 101.833Z" fill="#B28B67"/>
<path fill-rule="evenodd" clip-rule="evenodd" d="M237.274 315.491L221.323 302.251L243.194 219.901L249.56 195.865L241.168 154.846L229.599 133.301L239.734 114.278C241.107 111.519 243.212 107.257 246.227 105.032C249.098 102.915 252.654 101.45 256.412 101.45H259.349H272.761L237.274 315.491Z" fill="#0090D6"/>
<path fill-rule="evenodd" clip-rule="evenodd" d="M292.838 160.145L284.157 161.328C282.628 161.536 281.219 160.465 281.011 158.936L277.741 134.934C277.533 133.406 278.605 131.996 280.133 131.788L288.814 130.606C290.344 130.398 291.752 131.468 291.96 132.998L295.23 156.999C295.439 158.528 294.368 159.937 292.838 160.145Z" fill="#102257"/>
<path fill-rule="evenodd" clip-rule="evenodd" d="M317.775 316.083L344.461 302.25L320.521 145.434L330.258 136.764L323.774 114.278C321.734 106.844 314.86 101.494 307.153 101.494H304.215L291.117 101.513L317.775 316.083Z" fill="#0090D6"/>
<path fill-rule="evenodd" clip-rule="evenodd" d="M283.12 155.854C281.938 154.76 281.024 153.406 280.447 151.902L278.515 145.914C278.177 145.032 278.357 142.336 280.009 140.933C282.004 139.24 284.156 139.636 285.162 140.566L293.752 146.246C294.491 144.278 296.563 145.115 296.888 145.755L299.632 158.079L293.336 164.985L283.12 155.854Z" fill="#B28B67"/>
<path fill-rule="evenodd" clip-rule="evenodd" d="M342.485 177.136L338.179 175.622L299.632 158.079L293.065 164.674L322.908 186.059C331.716 191.879 341.954 187.681 342.485 177.136Z" fill="#B28B67"/>
<path fill-rule="evenodd" clip-rule="evenodd" d="M297.551 38.0235C297.224 31.6182 291.767 26.6892 285.362 27.0158C283.554 27.1074 281.871 27.6202 280.383 28.4357C280.379 28.429 258.824 36.6475 258.824 36.6475C257.7 36.9015 256.64 37.3102 255.664 37.8526C251.781 40.0144 249.251 44.2254 249.491 48.9462C249.632 51.744 250.731 54.262 252.442 56.2185L238.985 73.5169L257.101 78.1347L289.09 53.415L281.602 52.6693L287.741 50.0883C293.552 49.1897 297.855 44.0229 297.551 38.0235Z" fill="#1D252D"/>
<path fill-rule="evenodd" clip-rule="evenodd" d="M250.747 201.136H311.873V195.251H250.747V201.136Z" fill="#0090D6"/>
<rect x="104" y="392" width="103" height="20" rx="2" fill="#E0E4EE"/>
<path d="M118.416 398.1C119.444 398.1 120.23 398.338 120.774 398.814C121.322 399.29 121.596 399.948 121.596 400.788C121.596 401.456 121.392 402.012 120.984 402.456C120.576 402.896 119.998 403.176 119.25 403.296L121.662 406.5H119.274L117.06 403.356H116.766V406.5H114.762V398.1H118.416ZM116.766 399.918V401.67H118.392C118.764 401.67 119.05 401.596 119.25 401.448C119.454 401.3 119.556 401.08 119.556 400.788C119.556 400.496 119.454 400.278 119.25 400.134C119.046 399.99 118.76 399.918 118.392 399.918H116.766ZM130.28 406.5H123.848V398.1H130.256V399.906H125.852V401.358H129.998V403.158H125.852V404.694H130.28V406.5ZM136.621 397.944C137.429 397.944 138.163 398.122 138.823 398.478C139.483 398.834 139.993 399.33 140.353 399.966L138.595 400.974C138.143 400.234 137.477 399.864 136.597 399.864C135.929 399.864 135.377 400.092 134.941 400.548C134.505 401 134.287 401.584 134.287 402.3C134.287 403.052 134.509 403.646 134.953 404.082C135.401 404.518 135.951 404.736 136.603 404.736C137.463 404.736 138.139 404.368 138.631 403.632L140.275 404.796C139.887 405.38 139.377 405.836 138.745 406.164C138.117 406.492 137.409 406.656 136.621 406.656C135.981 406.656 135.387 406.548 134.839 406.332C134.291 406.116 133.823 405.818 133.435 405.438C133.051 405.054 132.749 404.592 132.529 404.052C132.309 403.512 132.199 402.928 132.199 402.3C132.199 401.672 132.309 401.088 132.529 400.548C132.749 400.008 133.051 399.548 133.435 399.168C133.823 398.784 134.291 398.484 134.839 398.268C135.387 398.052 135.981 397.944 136.621 397.944ZM148.96 399.96H146.476V406.5H144.472V399.96H141.982V398.1H148.96V399.96ZM158.117 406.5H155.981L155.345 404.736H152.009L151.373 406.5H149.279L152.501 398.1H154.895L158.117 406.5ZM152.657 402.924H154.697L153.677 400.092L152.657 402.924ZM167.704 406.5H165.778L161.95 401.376V406.5H159.946V398.1H161.866L165.694 403.224V398.1H167.704V406.5ZM174.349 397.944C175.653 397.944 176.695 398.35 177.475 399.162L176.047 400.566C175.587 400.074 174.989 399.828 174.253 399.828C173.577 399.828 173.023 400.058 172.591 400.518C172.159 400.978 171.943 401.572 171.943 402.3C171.943 403.076 172.165 403.69 172.609 404.142C173.057 404.594 173.607 404.82 174.259 404.82C175.439 404.82 176.147 404.314 176.383 403.302H174.337V401.754H178.369C178.397 401.962 178.411 402.172 178.411 402.384C178.411 403.036 178.299 403.634 178.075 404.178C177.855 404.722 177.557 405.172 177.181 405.528C176.805 405.884 176.371 406.16 175.879 406.356C175.391 406.552 174.875 406.65 174.331 406.65C173.711 406.65 173.127 406.546 172.579 406.338C172.035 406.126 171.563 405.834 171.163 405.462C170.767 405.086 170.453 404.626 170.221 404.082C169.993 403.534 169.879 402.94 169.879 402.3C169.879 401.46 170.069 400.71 170.449 400.05C170.829 399.386 171.359 398.87 172.039 398.502C172.719 398.13 173.489 397.944 174.349 397.944ZM186.818 406.5H180.59V398.1H182.594V404.64H186.818V406.5ZM195.159 406.5H188.727V398.1H195.135V399.906H190.731V401.358H194.877V403.158H190.731V404.694H195.159V406.5Z" fill="#737E85"/>
<path d="M122.075 419C122.915 419 123.567 419.162 124.03 419.485C124.497 419.805 124.73 420.29 124.73 420.94C124.73 421.283 124.635 421.59 124.445 421.86C124.255 422.13 124.012 422.318 123.715 422.425C124.048 422.538 124.325 422.737 124.545 423.02C124.768 423.303 124.88 423.628 124.88 423.995C124.88 424.658 124.653 425.158 124.2 425.495C123.747 425.832 123.095 426 122.245 426H119.215V419H122.075ZM120.61 423.09V424.77L122.175 424.775C122.592 424.775 122.905 424.713 123.115 424.59C123.325 424.463 123.43 424.242 123.43 423.925C123.43 423.612 123.325 423.395 123.115 423.275C122.905 423.152 122.592 423.09 122.175 423.09H120.61ZM120.61 420.23V421.865H122.04C122.433 421.865 122.737 421.807 122.95 421.69C123.167 421.57 123.275 421.353 123.275 421.04C123.275 420.883 123.243 420.75 123.18 420.64C123.12 420.53 123.03 420.447 122.91 420.39C122.793 420.33 122.665 420.288 122.525 420.265C122.385 420.242 122.222 420.23 122.035 420.23H120.61ZM130.312 418.87C131.019 418.87 131.652 419.027 132.212 419.34C132.775 419.65 133.212 420.082 133.522 420.635C133.835 421.188 133.992 421.81 133.992 422.5C133.992 423.19 133.835 423.812 133.522 424.365C133.212 424.918 132.775 425.352 132.212 425.665C131.652 425.975 131.019 426.13 130.312 426.13C129.779 426.13 129.284 426.038 128.827 425.855C128.37 425.672 127.982 425.422 127.662 425.105C127.342 424.785 127.09 424.4 126.907 423.95C126.727 423.5 126.637 423.017 126.637 422.5C126.637 421.983 126.727 421.5 126.907 421.05C127.09 420.6 127.342 420.217 127.662 419.9C127.982 419.58 128.37 419.328 128.827 419.145C129.284 418.962 129.779 418.87 130.312 418.87ZM130.312 420.21C129.665 420.21 129.134 420.423 128.717 420.85C128.3 421.273 128.092 421.823 128.092 422.5C128.092 423.177 128.3 423.728 128.717 424.155C129.134 424.578 129.665 424.79 130.312 424.79C130.962 424.79 131.494 424.578 131.907 424.155C132.324 423.728 132.532 423.177 132.532 422.5C132.532 421.823 132.324 421.273 131.907 420.85C131.494 420.423 130.962 420.21 130.312 420.21ZM138.962 419C140.055 419 140.934 419.32 141.597 419.96C142.264 420.6 142.597 421.447 142.597 422.5C142.597 423.553 142.264 424.4 141.597 425.04C140.934 425.68 140.055 426 138.962 426H136.077V419H138.962ZM137.472 420.305V424.695H138.947C139.66 424.695 140.204 424.495 140.577 424.095C140.95 423.692 141.137 423.16 141.137 422.5C141.137 421.833 140.95 421.302 140.577 420.905C140.204 420.505 139.66 420.305 138.947 420.305H137.472ZM147.491 423.24V426H146.096V423.235L143.401 419H145.041L146.801 421.97L148.561 419H150.151L147.491 423.24ZM159.645 420.765C158.999 420.368 158.337 420.17 157.66 420.17C157.264 420.17 156.94 420.245 156.69 420.395C156.444 420.545 156.32 420.75 156.32 421.01C156.32 421.133 156.354 421.24 156.42 421.33C156.487 421.42 156.59 421.497 156.73 421.56C156.874 421.62 157.022 421.67 157.175 421.71C157.332 421.747 157.529 421.783 157.765 421.82L158.16 421.885C159.647 422.122 160.39 422.775 160.39 423.845C160.39 424.218 160.312 424.553 160.155 424.85C159.999 425.143 159.787 425.382 159.52 425.565C159.254 425.748 158.95 425.888 158.61 425.985C158.27 426.078 157.909 426.125 157.525 426.125C156.975 426.125 156.437 426.047 155.91 425.89C155.387 425.73 154.942 425.503 154.575 425.21L155.3 424.085C155.577 424.302 155.91 424.482 156.3 424.625C156.694 424.768 157.104 424.84 157.53 424.84C157.934 424.84 158.264 424.765 158.52 424.615C158.777 424.465 158.905 424.258 158.905 423.995C158.905 423.765 158.789 423.593 158.555 423.48C158.325 423.363 157.947 423.262 157.42 423.175L156.975 423.105C156.652 423.052 156.365 422.978 156.115 422.885C155.869 422.788 155.647 422.663 155.45 422.51C155.254 422.353 155.102 422.157 154.995 421.92C154.892 421.683 154.84 421.41 154.84 421.1C154.84 420.747 154.915 420.427 155.065 420.14C155.215 419.853 155.419 419.62 155.675 419.44C155.935 419.26 156.232 419.122 156.565 419.025C156.899 418.928 157.254 418.88 157.63 418.88C158.124 418.88 158.582 418.94 159.005 419.06C159.432 419.177 159.865 419.365 160.305 419.625L159.645 420.765ZM163.891 421.82H167.261V419H168.656V426H167.261V423.12H163.891V426H162.496V419H163.891V421.82ZM177.543 426H176.053L175.443 424.37H172.458L171.848 426H170.393L173.118 419H174.818L177.543 426ZM172.938 423.085H174.963L173.953 420.38L172.938 423.085ZM180.675 423.44V426H179.28V419H182.135C182.958 419 183.59 419.198 184.03 419.595C184.473 419.992 184.695 420.535 184.695 421.225C184.695 421.908 184.473 422.448 184.03 422.845C183.59 423.242 182.962 423.44 182.145 423.44H180.675ZM180.675 420.285V422.165H182.11C182.88 422.165 183.265 421.852 183.265 421.225C183.265 420.598 182.88 420.285 182.11 420.285H180.675ZM191.945 426H186.715V419H191.905V420.28H188.11V421.83H191.73V423.11H188.11V424.72H191.945V426Z" fill="#737E85"/>
<path d="M414.219 28H139.109" stroke="url(#paint0_linear)" stroke-width="2"/>
<rect x="156" y="18" width="73" height="20" rx="2" fill="#E0E4EE"/>
<path d="M168.766 27.334H172.3V24.1H174.304V32.5H172.3V29.188H168.766V32.5H166.762V24.1H168.766V27.334ZM183.264 32.5H176.832V24.1H183.24V25.906H178.836V27.358H182.982V29.158H178.836V30.694H183.264V32.5ZM187.641 32.5H185.637V24.1H187.641V32.5ZM194.286 23.944C195.59 23.944 196.632 24.35 197.412 25.162L195.984 26.566C195.524 26.074 194.926 25.828 194.19 25.828C193.514 25.828 192.96 26.058 192.528 26.518C192.096 26.978 191.88 27.572 191.88 28.3C191.88 29.076 192.102 29.69 192.546 30.142C192.994 30.594 193.544 30.82 194.196 30.82C195.376 30.82 196.084 30.314 196.32 29.302H194.274V27.754H198.306C198.334 27.962 198.348 28.172 198.348 28.384C198.348 29.036 198.236 29.634 198.012 30.178C197.792 30.722 197.494 31.172 197.118 31.528C196.742 31.884 196.308 32.16 195.816 32.356C195.328 32.552 194.812 32.65 194.268 32.65C193.648 32.65 193.064 32.546 192.516 32.338C191.972 32.126 191.5 31.834 191.1 31.462C190.704 31.086 190.39 30.626 190.158 30.082C189.93 29.534 189.816 28.94 189.816 28.3C189.816 27.46 190.006 26.71 190.386 26.05C190.766 25.386 191.296 24.87 191.976 24.502C192.656 24.13 193.426 23.944 194.286 23.944ZM202.532 27.334H206.066V24.1H208.07V32.5H206.066V29.188H202.532V32.5H200.528V24.1H202.532V27.334ZM216.964 25.96H214.48V32.5H212.476V25.96H209.986V24.1H216.964V25.96Z" fill="#737E85"/>
<path d="M87.345 21.47H79.125L79.035 24.77H81.105C83.485 24.77 85.33 25.35 86.64 26.51C87.95 27.66 88.605 29.19 88.605 31.1C88.605 33.32 87.855 35.09 86.355 36.41C84.865 37.73 82.955 38.39 80.625 38.39C79.075 38.39 77.64 38.125 76.32 37.595C75 37.065 73.905 36.355 73.035 35.465L75.45 31.895C76.03 32.445 76.795 32.925 77.745 33.335C78.695 33.745 79.645 33.95 80.595 33.95C81.555 33.95 82.29 33.725 82.8 33.275C83.31 32.825 83.565 32.21 83.565 31.43C83.565 29.85 82.33 29.06 79.86 29.06H74.67L74.94 17H87.345V21.47ZM96.1983 16.4L93.7983 26.15H89.8833L91.0683 16.4H96.1983ZM112.855 20.81L104.575 38H98.7851L107.065 21.515H97.6601V17H112.855V20.81ZM127.573 16.4L125.173 26.15H121.258L122.443 16.4H127.573ZM120.403 16.4L118.003 26.15H114.088L115.273 16.4H120.403Z" fill="#1D252D"/>
<path opacity="0.5" fill-rule="evenodd" clip-rule="evenodd" d="M413 27H453V429H413V27Z" fill="url(#paint1_linear)"/>
<path d="M413 427H432C432.552 427 433 427.448 433 428C433 428.552 432.552 429 432 429H413V427Z" fill="#455A64"/>
<path opacity="0.5" d="M413 417H422C422.552 417 423 417.448 423 418C423 418.552 422.552 419 422 419H413V417Z" fill="#455A64"/>
<path opacity="0.5" d="M413 407H422C422.552 407 423 407.448 423 408C423 408.552 422.552 409 422 409H413V407Z" fill="#455A64"/>
<path opacity="0.5" d="M413 397H422C422.552 397 423 397.448 423 398C423 398.552 422.552 399 422 399H413V397Z" fill="#455A64"/>
<path opacity="0.5" d="M413 387H422C422.552 387 423 387.448 423 388C423 388.552 422.552 389 422 389H413V387Z" fill="#455A64"/>
<path d="M413 377H432C432.552 377 433 377.448 433 378C433 378.552 432.552 379 432 379H413V377Z" fill="#455A64"/>
<path d="M413 377H432C432.552 377 433 377.448 433 378C433 378.552 432.552 379 432 379H413V377Z" fill="#455A64"/>
<path opacity="0.5" d="M413 367H422C422.552 367 423 367.448 423 368C423 368.552 422.552 369 422 369H413V367Z" fill="#455A64"/>
<path opacity="0.5" d="M413 357H422C422.552 357 423 357.448 423 358C423 358.552 422.552 359 422 359H413V357Z" fill="#455A64"/>
<path opacity="0.5" d="M413 347H422C422.552 347 423 347.448 423 348C423 348.552 422.552 349 422 349H413V347Z" fill="#455A64"/>
<path opacity="0.5" d="M413 337H422C422.552 337 423 337.448 423 338C423 338.552 422.552 339 422 339H413V337Z" fill="#455A64"/>
<path d="M413 327H432C432.552 327 433 327.448 433 328C433 328.552 432.552 329 432 329H413V327Z" fill="#455A64"/>
<path d="M413 327H432C432.552 327 433 327.448 433 328C433 328.552 432.552 329 432 329H413V327Z" fill="#455A64"/>
<path opacity="0.5" d="M413 317H422C422.552 317 423 317.448 423 318C423 318.552 422.552 319 422 319H413V317Z" fill="#455A64"/>
<path opacity="0.5" d="M413 307H422C422.552 307 423 307.448 423 308C423 308.552 422.552 309 422 309H413V307Z" fill="#455A64"/>
<path opacity="0.5" d="M413 297H422C422.552 297 423 297.448 423 298C423 298.552 422.552 299 422 299H413V297Z" fill="#455A64"/>
<path opacity="0.5" d="M413 287H422C422.552 287 423 287.448 423 288C423 288.552 422.552 289 422 289H413V287Z" fill="#455A64"/>
<path d="M413 277H432C432.552 277 433 277.448 433 278C433 278.552 432.552 279 432 279H413V277Z" fill="#455A64"/>
<path d="M413 277H432C432.552 277 433 277.448 433 278C433 278.552 432.552 279 432 279H413V277Z" fill="#455A64"/>
<path opacity="0.5" d="M413 267H422C422.552 267 423 267.448 423 268C423 268.552 422.552 269 422 269H413V267Z" fill="#455A64"/>
<path opacity="0.5" d="M413 257H422C422.552 257 423 257.448 423 258C423 258.552 422.552 259 422 259H413V257Z" fill="#455A64"/>
<path opacity="0.5" d="M413 247H422C422.552 247 423 247.448 423 248C423 248.552 422.552 249 422 249H413V247Z" fill="#455A64"/>
<path opacity="0.5" d="M413 237H422C422.552 237 423 237.448 423 238C423 238.552 422.552 239 422 239H413V237Z" fill="#455A64"/>
<path d="M413 227H432C432.552 227 433 227.448 433 228C433 228.552 432.552 229 432 229H413V227Z" fill="#455A64"/>
<path d="M413 227H432C432.552 227 433 227.448 433 228C433 228.552 432.552 229 432 229H413V227Z" fill="#455A64"/>
<path opacity="0.5" d="M413 217H422C422.552 217 423 217.448 423 218C423 218.552 422.552 219 422 219H413V217Z" fill="#455A64"/>
<path opacity="0.5" d="M413 207H422C422.552 207 423 207.448 423 208C423 208.552 422.552 209 422 209H413V207Z" fill="#455A64"/>
<path opacity="0.5" d="M413 197H422C422.552 197 423 197.448 423 198C423 198.552 422.552 199 422 199H413V197Z" fill="#455A64"/>
<path opacity="0.5" d="M413 187H422C422.552 187 423 187.448 423 188C423 188.552 422.552 189 422 189H413V187Z" fill="#455A64"/>
<path d="M413 177H432C432.552 177 433 177.448 433 178C433 178.552 432.552 179 432 179H413V177Z" fill="#455A64"/>
<path d="M413 177H432C432.552 177 433 177.448 433 178C433 178.552 432.552 179 432 179H413V177Z" fill="#455A64"/>
<path opacity="0.5" d="M413 167H422C422.552 167 423 167.448 423 168C423 168.552 422.552 169 422 169H413V167Z" fill="#455A64"/>
<path opacity="0.5" d="M413 157H422C422.552 157 423 157.448 423 158C423 158.552 422.552 159 422 159H413V157Z" fill="#455A64"/>
<path opacity="0.5" d="M413 147H422C422.552 147 423 147.448 423 148C423 148.552 422.552 149 422 149H413V147Z" fill="#455A64"/>
<path opacity="0.5" d="M413 137H422C422.552 137 423 137.448 423 138C423 138.552 422.552 139 422 139H413V137Z" fill="#455A64"/>
<path d="M413 127H432C432.552 127 433 127.448 433 128C433 128.552 432.552 129 432 129H413V127Z" fill="#455A64"/>
<path d="M413 127H432C432.552 127 433 127.448 433 128C433 128.552 432.552 129 432 129H413V127Z" fill="#455A64"/>
<path opacity="0.5" d="M413 117H422C422.552 117 423 117.448 423 118C423 118.552 422.552 119 422 119H413V117Z" fill="#455A64"/>
<path opacity="0.5" d="M413 107H422C422.552 107 423 107.448 423 108C423 108.552 422.552 109 422 109H413V107Z" fill="#455A64"/>
<path opacity="0.5" d="M413 97H422C422.552 97 423 97.4477 423 98C423 98.5523 422.552 99 422 99H413V97Z" fill="#455A64"/>
<path opacity="0.5" d="M413 87H422C422.552 87 423 87.4477 423 88C423 88.5523 422.552 89 422 89H413V87Z" fill="#455A64"/>
<path d="M413 77H432C432.552 77 433 77.4477 433 78C433 78.5523 432.552 79 432 79H413V77Z" fill="#455A64"/>
<path d="M413 77H432C432.552 77 433 77.4477 433 78C433 78.5523 432.552 79 432 79H413V77Z" fill="#455A64"/>
<path opacity="0.5" d="M413 67H422C422.552 67 423 67.4477 423 68C423 68.5523 422.552 69 422 69H413V67Z" fill="#455A64"/>
<path opacity="0.5" d="M413 57H422C422.552 57 423 57.4477 423 58C423 58.5523 422.552 59 422 59H413V57Z" fill="#455A64"/>
<path opacity="0.5" d="M413 47H422C422.552 47 423 47.4477 423 48C423 48.5523 422.552 49 422 49H413V47Z" fill="#455A64"/>
<path opacity="0.5" d="M413 37H422C422.552 37 423 37.4477 423 38C423 38.5523 422.552 39 422 39H413V37Z" fill="#455A64"/>
<path d="M413 27H432C432.552 27 433 27.4477 433 28C433 28.5523 432.552 29 432 29H413V27Z" fill="#455A64"/>
<g clip-path="url(#clip0)">
<path d="M88.325 212.625C90.615 212.625 92.48 213.18 93.92 214.29C95.36 215.4 96.08 216.865 96.08 218.685C96.08 219.775 95.815 220.725 95.285 221.535C94.765 222.335 94.015 222.965 93.035 223.425C94.155 223.885 95.015 224.52 95.615 225.33C96.215 226.13 96.515 227.08 96.515 228.18C96.515 229 96.365 229.755 96.065 230.445C95.775 231.125 95.375 231.705 94.865 232.185C94.365 232.665 93.77 233.07 93.08 233.4C92.39 233.73 91.655 233.975 90.875 234.135C90.095 234.295 89.285 234.375 88.445 234.375C85.195 234.375 82.71 233.35 80.99 231.3L83.765 228.135C84.995 229.395 86.475 230.025 88.205 230.025C89.155 230.025 89.935 229.835 90.545 229.455C91.155 229.065 91.46 228.505 91.46 227.775C91.46 227.065 91.11 226.515 90.41 226.125C89.72 225.735 88.855 225.54 87.815 225.54H85.445V221.265H87.845C88.785 221.265 89.555 221.075 90.155 220.695C90.765 220.315 91.07 219.78 91.07 219.09C91.07 218.42 90.795 217.9 90.245 217.53C89.705 217.16 88.995 216.975 88.115 216.975C86.355 216.975 84.94 217.64 83.87 218.97L81.08 215.805C82.87 213.685 85.285 212.625 88.325 212.625ZM111.623 225.9H114.263V230.415H111.623V234H106.763V230.415H97.5083V227.01L104.363 213.015H109.703L103.313 225.9H106.763V223.74L108.383 220.38H111.623V225.9ZM128.232 212.4L125.832 222.15H121.917L123.102 212.4H128.232ZM121.062 212.4L118.662 222.15H114.747L115.932 212.4H121.062Z" fill="#1D252D"/>
<path d="M280.219 224H138" stroke="url(#paint2_linear)" stroke-width="2"/>
<rect x="154" y="214" width="53" height="20" rx="2" fill="#E0E4EE"/>
<path d="M166.766 223.334H170.3V220.1H172.304V228.5H170.3V225.188H166.766V228.5H164.762V220.1H166.766V223.334ZM176.836 228.5H174.832V220.1H176.836V228.5ZM181.364 225.662V228.5H179.36V220.1H182.96C183.98 220.1 184.764 220.352 185.312 220.856C185.86 221.36 186.134 222.042 186.134 222.902C186.134 223.746 185.86 224.418 185.312 224.918C184.764 225.414 183.986 225.662 182.978 225.662H181.364ZM181.364 221.918V223.874H182.93C183.298 223.874 183.584 223.792 183.788 223.628C183.992 223.46 184.094 223.218 184.094 222.902C184.094 222.582 183.992 222.338 183.788 222.17C183.584 222.002 183.298 221.918 182.93 221.918H181.364ZM194.162 222.482C193.354 222.01 192.552 221.774 191.756 221.774C191.36 221.774 191.04 221.84 190.796 221.972C190.556 222.104 190.436 222.29 190.436 222.53C190.436 222.614 190.454 222.69 190.49 222.758C190.526 222.826 190.59 222.888 190.682 222.944C190.778 222.996 190.862 223.04 190.934 223.076C191.01 223.108 191.134 223.144 191.306 223.184C191.482 223.22 191.614 223.246 191.702 223.262C191.79 223.278 191.944 223.306 192.164 223.346L192.512 223.406C193.36 223.554 194.014 223.828 194.474 224.228C194.938 224.628 195.17 225.16 195.17 225.824C195.17 226.212 195.104 226.566 194.972 226.886C194.844 227.202 194.67 227.468 194.45 227.684C194.23 227.9 193.968 228.082 193.664 228.23C193.364 228.378 193.044 228.486 192.704 228.554C192.368 228.622 192.016 228.656 191.648 228.656C190.936 228.656 190.254 228.564 189.602 228.38C188.954 228.196 188.404 227.932 187.952 227.588L188.954 225.956C189.822 226.544 190.726 226.838 191.666 226.838C192.058 226.838 192.378 226.772 192.626 226.64C192.874 226.504 192.998 226.31 192.998 226.058C192.998 225.958 192.974 225.87 192.926 225.794C192.878 225.718 192.814 225.654 192.734 225.602C192.654 225.55 192.538 225.502 192.386 225.458C192.238 225.414 192.088 225.378 191.936 225.35C191.784 225.318 191.584 225.282 191.336 225.242L190.916 225.176C190.032 225.036 189.368 224.76 188.924 224.348C188.48 223.932 188.266 223.354 188.282 222.614C188.298 221.806 188.618 221.16 189.242 220.676C189.866 220.192 190.674 219.95 191.666 219.95C192.274 219.95 192.838 220.014 193.358 220.142C193.882 220.27 194.448 220.502 195.056 220.838L194.162 222.482Z" fill="#737E85"/>
<path d="M280 229C282.761 229 285 226.761 285 224C285 221.239 282.761 219 280 219C277.239 219 275 221.239 275 224C275 226.761 277.239 229 280 229Z" fill="white" stroke="#DDE3E9" stroke-width="2"/>
</g>
<g clip-path="url(#clip1)">
<path d="M8.325 113.625C10.615 113.625 12.48 114.18 13.92 115.29C15.36 116.4 16.08 117.865 16.08 119.685C16.08 120.775 15.815 121.725 15.285 122.535C14.765 123.335 14.015 123.965 13.035 124.425C14.155 124.885 15.015 125.52 15.615 126.33C16.215 127.13 16.515 128.08 16.515 129.18C16.515 130 16.365 130.755 16.065 131.445C15.775 132.125 15.375 132.705 14.865 133.185C14.365 133.665 13.77 134.07 13.08 134.4C12.39 134.73 11.655 134.975 10.875 135.135C10.095 135.295 9.285 135.375 8.445 135.375C5.195 135.375 2.71 134.35 0.99 132.3L3.765 129.135C4.995 130.395 6.475 131.025 8.205 131.025C9.155 131.025 9.935 130.835 10.545 130.455C11.155 130.065 11.46 129.505 11.46 128.775C11.46 128.065 11.11 127.515 10.41 127.125C9.72 126.735 8.855 126.54 7.815 126.54H5.445V122.265H7.845C8.785 122.265 9.555 122.075 10.155 121.695C10.765 121.315 11.07 120.78 11.07 120.09C11.07 119.42 10.795 118.9 10.245 118.53C9.705 118.16 8.995 117.975 8.115 117.975C6.355 117.975 4.94 118.64 3.87 119.97L1.08 116.805C2.87 114.685 5.285 113.625 8.325 113.625ZM25.1883 113.625C27.4783 113.625 29.3433 114.18 30.7833 115.29C32.2233 116.4 32.9433 117.865 32.9433 119.685C32.9433 120.775 32.6783 121.725 32.1483 122.535C31.6283 123.335 30.8783 123.965 29.8983 124.425C31.0183 124.885 31.8783 125.52 32.4783 126.33C33.0783 127.13 33.3783 128.08 33.3783 129.18C33.3783 130 33.2283 130.755 32.9283 131.445C32.6383 132.125 32.2383 132.705 31.7283 133.185C31.2283 133.665 30.6333 134.07 29.9433 134.4C29.2533 134.73 28.5183 134.975 27.7383 135.135C26.9583 135.295 26.1483 135.375 25.3083 135.375C22.0583 135.375 19.5733 134.35 17.8533 132.3L20.6283 129.135C21.8583 130.395 23.3383 131.025 25.0683 131.025C26.0183 131.025 26.7983 130.835 27.4083 130.455C28.0183 130.065 28.3233 129.505 28.3233 128.775C28.3233 128.065 27.9733 127.515 27.2733 127.125C26.5833 126.735 25.7183 126.54 24.6783 126.54H22.3083V122.265H24.7083C25.6483 122.265 26.4183 122.075 27.0183 121.695C27.6283 121.315 27.9333 120.78 27.9333 120.09C27.9333 119.42 27.6583 118.9 27.1083 118.53C26.5683 118.16 25.8583 117.975 24.9783 117.975C23.2183 117.975 21.8033 118.64 20.7333 119.97L17.9433 116.805C19.7333 114.685 22.1483 113.625 25.1883 113.625ZM48.2316 113.4L45.8316 123.15H41.9166L43.1016 113.4H48.2316ZM41.0616 113.4L38.6616 123.15H34.7466L35.9316 113.4H41.0616Z" fill="#1D252D"/>
<path d="M280.219 125H58" stroke="url(#paint3_linear)" stroke-width="2"/>
<rect x="101" y="115" width="67" height="20" rx="2" fill="#E0E4EE"/>
<path d="M115.836 120.944C116.644 120.944 117.378 121.122 118.038 121.478C118.698 121.834 119.208 122.33 119.568 122.966L117.81 123.974C117.358 123.234 116.692 122.864 115.812 122.864C115.144 122.864 114.592 123.092 114.156 123.548C113.72 124 113.502 124.584 113.502 125.3C113.502 126.052 113.724 126.646 114.168 127.082C114.616 127.518 115.166 127.736 115.818 127.736C116.678 127.736 117.354 127.368 117.846 126.632L119.49 127.796C119.102 128.38 118.592 128.836 117.96 129.164C117.332 129.492 116.624 129.656 115.836 129.656C115.196 129.656 114.602 129.548 114.054 129.332C113.506 129.116 113.038 128.818 112.65 128.438C112.266 128.054 111.964 127.592 111.744 127.052C111.524 126.512 111.414 125.928 111.414 125.3C111.414 124.672 111.524 124.088 111.744 123.548C111.964 123.008 112.266 122.548 112.65 122.168C113.038 121.784 113.506 121.484 114.054 121.268C114.602 121.052 115.196 120.944 115.836 120.944ZM123.696 124.334H127.23V121.1H129.234V129.5H127.23V126.188H123.696V129.5H121.692V121.1H123.696V124.334ZM138.194 129.5H131.762V121.1H138.17V122.906H133.766V124.358H137.912V126.158H133.766V127.694H138.194V129.5ZM146.424 123.482C145.616 123.01 144.814 122.774 144.018 122.774C143.622 122.774 143.302 122.84 143.058 122.972C142.818 123.104 142.698 123.29 142.698 123.53C142.698 123.614 142.716 123.69 142.752 123.758C142.788 123.826 142.852 123.888 142.944 123.944C143.04 123.996 143.124 124.04 143.196 124.076C143.272 124.108 143.396 124.144 143.568 124.184C143.744 124.22 143.876 124.246 143.964 124.262C144.052 124.278 144.206 124.306 144.426 124.346L144.774 124.406C145.622 124.554 146.276 124.828 146.736 125.228C147.2 125.628 147.432 126.16 147.432 126.824C147.432 127.212 147.366 127.566 147.234 127.886C147.106 128.202 146.932 128.468 146.712 128.684C146.492 128.9 146.23 129.082 145.926 129.23C145.626 129.378 145.306 129.486 144.966 129.554C144.63 129.622 144.278 129.656 143.91 129.656C143.198 129.656 142.516 129.564 141.864 129.38C141.216 129.196 140.666 128.932 140.214 128.588L141.216 126.956C142.084 127.544 142.988 127.838 143.928 127.838C144.32 127.838 144.64 127.772 144.888 127.64C145.136 127.504 145.26 127.31 145.26 127.058C145.26 126.958 145.236 126.87 145.188 126.794C145.14 126.718 145.076 126.654 144.996 126.602C144.916 126.55 144.8 126.502 144.648 126.458C144.5 126.414 144.35 126.378 144.198 126.35C144.046 126.318 143.846 126.282 143.598 126.242L143.178 126.176C142.294 126.036 141.63 125.76 141.186 125.348C140.742 124.932 140.528 124.354 140.544 123.614C140.56 122.806 140.88 122.16 141.504 121.676C142.128 121.192 142.936 120.95 143.928 120.95C144.536 120.95 145.1 121.014 145.62 121.142C146.144 121.27 146.71 121.502 147.318 121.838L146.424 123.482ZM155.937 122.96H153.453V129.5H151.449V122.96H148.959V121.1H155.937V122.96Z" fill="#737E85"/>
<path d="M280 130C282.761 130 285 127.761 285 125C285 122.239 282.761 120 280 120C277.239 120 275 122.239 275 125C275 127.761 277.239 130 280 130Z" fill="white" stroke="#DDE3E9" stroke-width="2"/>
</g>
<g clip-path="url(#clip2)">
<path d="M41.11 171.315C43.13 168.855 45.685 167.625 48.775 167.625C50.985 167.625 52.75 168.245 54.07 169.485C55.4 170.725 56.065 172.365 56.065 174.405C56.065 175.615 55.825 176.68 55.345 177.6C54.865 178.51 54.055 179.535 52.915 180.675L49.105 184.485H56.53V189H42.19V185.19L49.465 178.065C50.495 177.055 51.01 176 51.01 174.9C51.01 174.12 50.755 173.49 50.245 173.01C49.735 172.52 49.075 172.275 48.265 172.275C47.395 172.275 46.63 172.48 45.97 172.89C45.32 173.3 44.66 173.875 43.99 174.615L41.11 171.315ZM72.2083 172.47H63.9883L63.8983 175.77H65.9683C68.3483 175.77 70.1933 176.35 71.5033 177.51C72.8133 178.66 73.4683 180.19 73.4683 182.1C73.4683 184.32 72.7183 186.09 71.2183 187.41C69.7283 188.73 67.8183 189.39 65.4883 189.39C63.9383 189.39 62.5033 189.125 61.1833 188.595C59.8633 188.065 58.7683 187.355 57.8983 186.465L60.3133 182.895C60.8933 183.445 61.6583 183.925 62.6083 184.335C63.5583 184.745 64.5083 184.95 65.4583 184.95C66.4183 184.95 67.1533 184.725 67.6633 184.275C68.1733 183.825 68.4283 183.21 68.4283 182.43C68.4283 180.85 67.1933 180.06 64.7233 180.06H59.5333L59.8033 168H72.2083V172.47ZM88.2316 167.4L85.8316 177.15H81.9166L83.1016 167.4H88.2316ZM81.0616 167.4L78.6616 177.15H74.7466L75.9316 167.4H81.0616Z" fill="#1D252D"/>
<path d="M280.219 179H98" stroke="url(#paint4_linear)" stroke-width="2"/>
<rect x="121" y="167" width="66" height="20" rx="2" fill="#E0E4EE"/>
<path d="M141.506 181.5H139.118L137.534 176.082L135.95 181.5H133.562L131.114 173.1H133.184L134.786 179.118L136.466 173.1H138.632L140.312 179.13L141.914 173.1H143.954L141.506 181.5ZM153.203 181.5H151.067L150.431 179.736H147.095L146.459 181.5H144.365L147.587 173.1H149.981L153.203 181.5ZM147.743 177.924H149.783L148.763 175.092L147.743 177.924ZM157.036 181.5H155.032V173.1H157.036V181.5ZM165.463 175.482C164.655 175.01 163.853 174.774 163.057 174.774C162.661 174.774 162.341 174.84 162.097 174.972C161.857 175.104 161.737 175.29 161.737 175.53C161.737 175.614 161.755 175.69 161.791 175.758C161.827 175.826 161.891 175.888 161.983 175.944C162.079 175.996 162.163 176.04 162.235 176.076C162.311 176.108 162.435 176.144 162.607 176.184C162.783 176.22 162.915 176.246 163.003 176.262C163.091 176.278 163.245 176.306 163.465 176.346L163.813 176.406C164.661 176.554 165.315 176.828 165.775 177.228C166.239 177.628 166.471 178.16 166.471 178.824C166.471 179.212 166.405 179.566 166.273 179.886C166.145 180.202 165.971 180.468 165.751 180.684C165.531 180.9 165.269 181.082 164.965 181.23C164.665 181.378 164.345 181.486 164.005 181.554C163.669 181.622 163.317 181.656 162.949 181.656C162.237 181.656 161.555 181.564 160.903 181.38C160.255 181.196 159.705 180.932 159.253 180.588L160.255 178.956C161.123 179.544 162.027 179.838 162.967 179.838C163.359 179.838 163.679 179.772 163.927 179.64C164.175 179.504 164.299 179.31 164.299 179.058C164.299 178.958 164.275 178.87 164.227 178.794C164.179 178.718 164.115 178.654 164.035 178.602C163.955 178.55 163.839 178.502 163.687 178.458C163.539 178.414 163.389 178.378 163.237 178.35C163.085 178.318 162.885 178.282 162.637 178.242L162.217 178.176C161.333 178.036 160.669 177.76 160.225 177.348C159.781 176.932 159.567 176.354 159.583 175.614C159.599 174.806 159.919 174.16 160.543 173.676C161.167 173.192 161.975 172.95 162.967 172.95C163.575 172.95 164.139 173.014 164.659 173.142C165.183 173.27 165.749 173.502 166.357 173.838L165.463 175.482ZM174.976 174.96H172.492V181.5H170.488V174.96H167.998V173.1H174.976V174.96Z" fill="#737E85"/>
<path d="M280 184C282.761 184 285 181.761 285 179C285 176.239 282.761 174 280 174C277.239 174 275 176.239 275 179C275 181.761 277.239 184 280 184Z" fill="white" stroke="#B28B67" stroke-width="2"/>
</g>
<defs>
<linearGradient id="paint0_linear" x1="139.109" y1="28.5" x2="414.219" y2="28.5" gradientUnits="userSpaceOnUse">
<stop stop-color="#C9CFE0"/>
<stop offset="1" stop-color="white"/>
</linearGradient>
<linearGradient id="paint1_linear" x1="413" y1="429" x2="453" y2="429" gradientUnits="userSpaceOnUse">
<stop stop-color="#E0E3EB"/>
<stop offset="1" stop-color="#E0E3EB" stop-opacity="0.01"/>
</linearGradient>
<linearGradient id="paint2_linear" x1="138" y1="224.5" x2="280.219" y2="224.5" gradientUnits="userSpaceOnUse">
<stop stop-color="#C9CFE0"/>
<stop offset="1" stop-color="white"/>
</linearGradient>
<linearGradient id="paint3_linear" x1="58" y1="125.5" x2="280.219" y2="125.5" gradientUnits="userSpaceOnUse">
<stop stop-color="#C9CFE0"/>
<stop offset="1" stop-color="white"/>
</linearGradient>
<linearGradient id="paint4_linear" x1="98" y1="179.5" x2="280.219" y2="179.5" gradientUnits="userSpaceOnUse">
<stop stop-color="#C9CFE0"/>
<stop offset="1" stop-color="white"/>
</linearGradient>
<clipPath id="clip0">
<rect x="80" y="196" width="204" height="54" fill="white"/>
</clipPath>
<clipPath id="clip1">
<rect y="97" width="284" height="54" fill="white"/>
</clipPath>
<clipPath id="clip2">
<rect x="40" y="151" width="244" height="54" fill="white"/>
</clipPath>
</defs>
</svg>
