<svg width="116" height="190" viewBox="0 0 116 190" fill="none" xmlns="http://www.w3.org/2000/svg">
<g clip-path="url(#clip0)">
<path fill-rule="evenodd" clip-rule="evenodd" d="M18.2893 89.8646C18.8603 87.1784 20.6465 84.9098 23.1237 83.7246L58.7247 66.6915C61.137 65.5373 64.024 66.1509 65.7583 68.1865L91.3534 98.2273C93.1344 100.318 93.8435 103.117 93.2725 105.803L77.6269 179.41C76.6112 184.188 71.9143 187.238 67.136 186.223L9.45655 173.962C4.67823 172.947 1.628 168.25 2.64366 163.472L18.2893 89.8646ZM54.8474 102.225C59.6258 103.241 64.3227 100.191 65.3384 95.4125C66.354 90.6342 63.3038 85.9372 58.5255 84.9215C53.7472 83.9059 49.0502 86.9561 48.0346 91.7344C47.0189 96.5128 50.0691 101.21 54.8474 102.225Z" fill="#1D252D"/>
<path d="M36.1365 52.8303C37.7933 52.8303 39.1365 51.4871 39.1365 49.8303C39.1365 48.1734 37.7933 46.8303 36.1365 46.8303C34.4796 46.8303 33.1365 48.1734 33.1365 49.8303C33.1365 51.4871 34.4796 52.8303 36.1365 52.8303Z" fill="#DEDEDE"/>
<path d="M34.0432 58.2371L35.0343 58.3702L34.0432 58.2371ZM36.9876 50.4825L37.7818 51.0901L38.3894 50.2959L37.5952 49.6883L36.9876 50.4825ZM35.4797 61.9285L36.1556 61.1915L35.4797 61.9285ZM40.2398 64.6312L40.6286 63.7099H40.6286L40.2398 64.6312ZM42.0523 65.3715L41.6793 66.2993L42.0523 65.3715ZM45.9962 67.0797L46.4463 66.1868H46.4463L45.9962 67.0797ZM50.1486 70.7145L50.5669 71.6228L51.4752 71.2045L51.0569 70.2962L50.1486 70.7145ZM48.332 71.5512L47.4237 71.9695L47.8421 72.8778L48.7504 72.4595L48.332 71.5512ZM45.0959 68.8656L45.546 67.9727H45.546L45.0959 68.8656ZM41.4095 67.2695L41.7823 66.3415L41.7823 66.3415L41.4095 67.2695ZM39.4623 66.4739L39.8511 65.5526L39.8511 65.5526L39.4623 66.4739ZM34.1277 63.4023L34.8037 62.6654H34.8037L34.1277 63.4023ZM32.061 57.9709L31.0699 57.8378L32.061 57.9709ZM35.3991 49.2673L36.0067 48.473L35.2125 47.8654L34.6049 48.6596L35.3991 49.2673ZM43.4244 46.1639L42.4667 46.4517L42.7545 47.4094L43.7122 47.1216L43.4244 46.1639ZM45.3947 46.0089L45.3574 47.0082L45.3947 46.0089ZM42.8487 44.2485L42.5609 43.2909L41.6032 43.5787L41.891 44.5364L42.8487 44.2485ZM45.4694 44.0103L45.5068 43.011L45.4694 44.0103ZM48.8607 44.4021L49.0326 43.417L48.8607 44.4021ZM57.1444 46.5496L57.4573 45.5999L57.1444 46.5496ZM65.5001 49.9159L65.0573 50.8125L65.5001 49.9159ZM71.568 53.8909L70.8588 54.596L71.568 53.8909ZM78.7621 79.1773L77.8248 78.8288L78.7621 79.1773ZM58.2732 96.8058L57.956 95.8574L58.2732 96.8058ZM56.2047 97.2253L56.1932 96.2253H56.1932L56.2047 97.2253ZM54.5214 96.6749L55.1761 95.919H55.1761L54.5214 96.6749ZM53.7367 95.2403L54.7143 95.0298V95.0298L53.7367 95.2403ZM53.6174 93.6353L54.6173 93.6489V93.6489L53.6174 93.6353ZM53.68 92.0647L54.6787 92.1166L53.68 92.0647ZM53.1152 85.3456L52.8048 84.395L51.8542 84.7054L52.1646 85.656L53.1152 85.3456ZM55.0164 84.7248L55.967 84.4143L55.6566 83.4637L54.706 83.7741L55.0164 84.7248ZM55.6731 92.3455L56.6717 92.3998L55.6731 92.3455ZM55.6172 93.6626L56.6171 93.6762V93.6762L55.6172 93.6626ZM55.6919 94.8193L54.7143 95.0298L54.7143 95.0298L55.6919 94.8193ZM55.8309 95.1632L55.176 95.9189L55.1762 95.919L55.8309 95.1632ZM55.8971 95.1949L55.6033 96.1507L55.6033 96.1508L55.8971 95.1949ZM56.1817 95.2254L56.1932 96.2253L56.1817 95.2254ZM57.6388 94.909L57.956 95.8574L57.6388 94.909ZM76.8874 78.4803L75.9501 78.1318L76.8874 78.4803ZM70.1497 55.3011L70.8588 54.596L70.1497 55.3011ZM64.6145 51.7091L65.0573 50.8125L64.6145 51.7091ZM56.5185 48.4492L56.8314 47.4994L56.5185 48.4492ZM48.5167 46.3723L48.3448 47.3574L48.5167 46.3723ZM35.0343 58.3702C35.4746 55.0914 36.5038 52.7606 37.7818 51.0901L36.1933 49.8749C34.6732 51.8619 33.5316 54.5334 33.0521 58.104L35.0343 58.3702ZM36.1556 61.1915C35.257 60.3672 34.8783 59.5315 35.0343 58.3702L33.0521 58.104C32.7926 60.0363 33.5222 61.49 34.8037 62.6654L36.1556 61.1915ZM40.6286 63.7099C38.6994 62.8959 37.158 62.111 36.1556 61.1915L34.8037 62.6654C36.0842 63.8399 37.9141 64.7353 39.8511 65.5526L40.6286 63.7099ZM42.4253 64.4437C41.8061 64.1947 41.2032 63.9523 40.6286 63.7099L39.8511 65.5526C40.4441 65.8028 41.0632 66.0516 41.6793 66.2993L42.4253 64.4437ZM46.4463 66.1868C45.1993 65.5582 43.7709 64.9846 42.4253 64.4437L41.6793 66.2993C43.0437 66.8478 44.389 67.3895 45.546 67.9727L46.4463 66.1868ZM51.0569 70.2962C50.1486 68.324 48.2164 67.079 46.4463 66.1868L45.546 67.9727C47.2575 68.8354 48.6365 69.8217 49.2403 71.1329L51.0569 70.2962ZM48.7504 72.4595L50.5669 71.6228L49.7303 69.8063L47.9137 70.6429L48.7504 72.4595ZM44.6458 69.7586C46.3009 70.5929 47.1249 71.3206 47.4237 71.9695L49.2403 71.1329C48.6364 69.8216 47.2573 68.8353 45.546 67.9727L44.6458 69.7586ZM41.0368 68.1974C42.3556 68.7272 43.5647 69.2137 44.6458 69.7586L45.546 67.9727C44.375 67.3824 43.0831 66.8641 41.7823 66.3415L41.0368 68.1974ZM39.0736 67.3953C39.741 67.6768 40.4004 67.9417 41.0368 68.1974L41.7823 66.3415C41.1436 66.085 40.5 65.8264 39.8511 65.5526L39.0736 67.3953ZM33.4518 64.1393C35.0096 65.5682 37.1268 66.5739 39.0736 67.3953L39.8511 65.5526C37.914 64.7353 36.0841 63.8399 34.8037 62.6654L33.4518 64.1393ZM31.0699 57.8378C30.7062 60.5459 31.7917 62.6166 33.4518 64.1393L34.8037 62.6654C33.5226 61.4903 32.7925 60.0368 33.0521 58.104L31.0699 57.8378ZM34.6049 48.6596C32.8424 50.9634 31.5886 53.9756 31.0699 57.8378L33.0521 58.104C33.5316 54.5334 34.6732 51.8619 36.1933 49.8749L34.6049 48.6596ZM37.5952 49.6883L36.0067 48.473L34.7915 50.0615L36.3799 51.2767L37.5952 49.6883ZM43.7122 47.1216C43.9727 47.0433 44.4997 46.9762 45.3574 47.0082L45.4321 45.0096C44.4896 44.9744 43.7069 45.0348 43.1366 45.2062L43.7122 47.1216ZM41.891 44.5364L42.4667 46.4517L44.3821 45.8761L43.8064 43.9607L41.891 44.5364ZM45.5068 43.011C44.4784 42.9726 43.4404 43.0265 42.5609 43.2909L43.1366 45.2062C43.7069 45.0348 44.4896 44.9744 45.4321 45.0096L45.5068 43.011ZM49.0326 43.417C47.7641 43.1955 46.5669 43.0506 45.5068 43.011L45.4321 45.0096C46.3749 45.0449 47.4778 45.1758 48.6887 45.3872L49.0326 43.417ZM57.4573 45.5999C54.521 44.6323 51.5714 43.8602 49.0326 43.417L48.6887 45.3872C51.1105 45.81 53.964 46.5546 56.8314 47.4994L57.4573 45.5999ZM65.9429 49.0192C63.3662 47.7468 60.3955 46.568 57.4573 45.5999L56.8314 47.4994C59.6988 48.4442 62.5801 49.5891 65.0573 50.8125L65.9429 49.0192ZM72.2771 53.1859C70.7897 51.6898 68.478 50.2712 65.9429 49.0192L65.0573 50.8125C67.5344 52.0358 69.6076 53.3375 70.8588 54.596L72.2771 53.1859ZM79.6994 79.5258C82.7955 71.1989 80.7726 61.7306 72.2771 53.1859L70.8588 54.596C78.9067 62.6906 80.6017 71.3603 77.8248 78.8288L79.6994 79.5258ZM58.5903 97.7542C68.8302 94.3297 76.6544 87.7152 79.6994 79.5258L77.8248 78.8288C75.0477 86.2976 67.7984 92.5659 57.956 95.8574L58.5903 97.7542ZM56.2161 98.2252C56.9657 98.2166 57.7673 98.0294 58.5903 97.7542L57.956 95.8574C57.2231 96.1025 56.646 96.2201 56.1932 96.2253L56.2161 98.2252ZM53.8667 97.4307C54.5792 98.0479 55.4376 98.2341 56.2161 98.2252L56.1932 96.2253C55.739 96.2305 55.4112 96.1227 55.1761 95.919L53.8667 97.4307ZM52.7591 95.4508C52.8911 96.0637 53.1791 96.8352 53.8667 97.4307L55.1761 95.919C54.9406 95.715 54.7971 95.414 54.7143 95.0298L52.7591 95.4508ZM52.6175 93.6216C52.6096 94.1965 52.6282 94.8427 52.7591 95.4508L54.7143 95.0298C54.6317 94.6462 54.61 94.1806 54.6173 93.6489L52.6175 93.6216ZM52.6814 92.0127C52.653 92.5573 52.6245 93.1022 52.6175 93.6216L54.6173 93.6489C54.6237 93.1748 54.6499 92.6697 54.6787 92.1166L52.6814 92.0127ZM52.1646 85.656C52.8882 87.8719 52.7858 90.0046 52.6814 92.0127L54.6787 92.1166C54.7817 90.1363 54.9197 87.6502 54.0658 85.0352L52.1646 85.656ZM54.706 83.7741L52.8048 84.395L53.4256 86.2962L55.3268 85.6754L54.706 83.7741ZM56.6717 92.3998C56.7801 90.4054 56.9505 87.4263 55.967 84.4143L54.0658 85.0352C54.9185 87.6467 54.7843 90.2721 54.6746 92.2912L56.6717 92.3998ZM56.6171 93.6762C56.622 93.3169 56.6447 92.8962 56.6717 92.3998L54.6746 92.2912C54.6483 92.7755 54.6228 93.2405 54.6173 93.6489L56.6171 93.6762ZM56.6695 94.6088C56.6354 94.4504 56.6104 94.1664 56.6171 93.6762L54.6173 93.6489C54.61 94.1805 54.6317 94.6461 54.7143 95.0298L56.6695 94.6088ZM56.4857 94.4074C56.5311 94.4467 56.5715 94.4894 56.6057 94.5338C56.6376 94.5753 56.6579 94.6104 56.6697 94.6334C56.6921 94.6774 56.6849 94.6802 56.6695 94.6088L54.7143 95.0298C54.7977 95.417 54.9422 95.7164 55.176 95.9189L56.4857 94.4074ZM56.1909 94.239C56.2214 94.2484 56.2701 94.2661 56.3283 94.2979C56.3579 94.314 56.3881 94.3328 56.4184 94.3544C56.4501 94.3771 56.4739 94.3972 56.4856 94.4073L55.1762 95.919C55.2934 96.0206 55.4343 96.0988 55.6033 96.1507L56.1909 94.239ZM56.1702 94.2255C56.138 94.2258 56.1255 94.224 56.1294 94.2245C56.1332 94.2249 56.1551 94.228 56.1908 94.239L55.6033 96.1508C55.7714 96.2024 55.9667 96.2279 56.1932 96.2253L56.1702 94.2255ZM57.3217 93.9607C56.6782 94.1759 56.3258 94.2237 56.1702 94.2255L56.1932 96.2253C56.6461 96.2201 57.2232 96.1025 57.956 95.8574L57.3217 93.9607ZM75.9501 78.1318C73.4408 84.8807 66.7657 90.8024 57.3217 93.9607L57.956 95.8574C67.7984 92.5659 75.0477 86.2976 77.8247 78.8288L75.9501 78.1318ZM69.4405 56.0061C77.0396 63.6493 78.4085 71.5202 75.9501 78.1318L77.8247 78.8288C80.6017 71.3603 78.9068 62.6906 70.8588 54.596L69.4405 56.0061ZM64.1717 52.6057C66.5913 53.8006 68.4257 54.9855 69.4405 56.0061L70.8588 54.596C69.6076 53.3375 67.5344 52.0358 65.0573 50.8125L64.1717 52.6057ZM56.2056 49.399C59.0022 50.3204 61.794 51.4315 64.1717 52.6057L65.0573 50.8125C62.5801 49.5891 59.6988 48.4442 56.8314 47.4994L56.2056 49.399ZM48.3448 47.3574C50.6496 47.7597 53.4071 48.4769 56.2056 49.399L56.8314 47.4994C53.964 46.5546 51.1105 45.81 48.6887 45.3872L48.3448 47.3574ZM45.3574 47.0082C46.1828 47.0391 47.1915 47.1561 48.3448 47.3574L48.6887 45.3872C47.4778 45.1758 46.3749 45.0449 45.4321 45.0096L45.3574 47.0082Z" fill="#99A2BD"/>
</g>
<defs>
<clipPath id="clip0">
<rect x="37.271" y="0.563049" width="80" height="176" transform="rotate(12 37.271 0.563049)" fill="white"/>
</clipPath>
</defs>
</svg>
