<svg width="382" height="196" viewBox="0 0 382 196" fill="none" xmlns="http://www.w3.org/2000/svg">
<g opacity="0.398251">
<path fill-rule="evenodd" clip-rule="evenodd" d="M282.715 23.3996L373.002 -53.6364L385.797 3.54359L282.715 23.3996Z" stroke="black" stroke-width="0.5"/>
<path fill-rule="evenodd" clip-rule="evenodd" d="M322.273 -92.012L282.713 23.4L385.795 3.54404L322.273 -92.012Z" stroke="black"/>
<path fill-rule="evenodd" clip-rule="evenodd" d="M445.061 107.676C441.958 107.676 282.316 172.938 282.714 171.076C283.112 169.215 282.714 23.3999 282.714 23.3999L445.061 107.676Z" stroke="black"/>
<path fill-rule="evenodd" clip-rule="evenodd" d="M385.797 3.54358L471.122 -59.1254L380.758 -116.831L385.797 3.54358Z" stroke="black"/>
<path fill-rule="evenodd" clip-rule="evenodd" d="M339.782 97.2575L385.797 3.54346L282.715 23.3995L339.782 97.2575Z" stroke="black" stroke-width="0.5"/>
<path fill-rule="evenodd" clip-rule="evenodd" d="M99.0847 7.39417L74.5977 11.5392L94.5917 28.0832L99.0847 7.39417Z" stroke="black"/>
<path fill-rule="evenodd" clip-rule="evenodd" d="M134.814 43.863L162.116 -30.583L201.207 19.931L134.814 43.863Z" stroke="black"/>
<path d="M282.714 23.3996L234.713 -38.0294L227.888 31.7756L182.592 -100.078L142.881 -127.69" stroke="black"/>
<path fill-rule="evenodd" clip-rule="evenodd" d="M385.796 3.54358L339.781 97.2576L445.061 107.676L385.796 3.54358Z" stroke="black" stroke-width="0.5"/>
<path fill-rule="evenodd" clip-rule="evenodd" d="M282.715 171.076L339.782 97.2573L445.062 107.676L282.715 171.076Z" stroke="black" stroke-width="0.5"/>
</g>
</svg>
