<svg width="420" height="177" viewBox="0 0 420 177" fill="none" xmlns="http://www.w3.org/2000/svg">
<g opacity="0.396508">
<path fill-rule="evenodd" clip-rule="evenodd" d="M387.49 92.1838C385.629 92.1838 271.459 121.347 271.459 121.347L326.682 236.759L445.196 133.757L387.49 92.1838Z" stroke="white"/>
<path fill-rule="evenodd" clip-rule="evenodd" d="M180.883 178.432L271.46 121.347L326.684 236.758L180.883 178.432Z" stroke="white"/>
<path fill-rule="evenodd" clip-rule="evenodd" d="M445.196 133.757L326.682 236.758L424.719 280.813L445.196 133.757Z" stroke="white" stroke-linecap="round" stroke-linejoin="round"/>
<path fill-rule="evenodd" clip-rule="evenodd" d="M271.46 121.347L286.352 193.945L180.883 178.432L271.46 121.347Z" stroke="white" stroke-linecap="round" stroke-linejoin="round"/>
<path fill-rule="evenodd" clip-rule="evenodd" d="M387.49 92.1838L286.35 193.945L326.682 236.759L387.49 92.1838Z" stroke="white" stroke-linecap="round" stroke-linejoin="round"/>
<path d="M-4.66016 66.7438L75.6448 26.4118L118.526 124.45L117.548 178.432H180.882" stroke="white"/>
<path fill-rule="evenodd" clip-rule="evenodd" d="M242.916 20.2067L209.834 126.932L320.167 37.5807L242.916 20.2067Z" stroke="white"/>
<path fill-rule="evenodd" clip-rule="evenodd" d="M123.16 26.4117L180.129 0.971741L141.888 92.1837L123.16 26.4117Z" stroke="white"/>
<path fill-rule="evenodd" clip-rule="evenodd" d="M1.54492 129.413L57.2859 85.9782L100.274 129.413H1.54492Z" stroke="white"/>
<path fill-rule="evenodd" clip-rule="evenodd" d="M-70.8242 32.6583L-30.1592 0.971313L1.20078 32.6583H-70.8242Z" stroke="white"/>
<path fill-rule="evenodd" clip-rule="evenodd" d="M-7.14258 220.316L51.2574 175.951L96.9494 211.318L-7.14258 220.316Z" stroke="white"/>
<path fill-rule="evenodd" clip-rule="evenodd" d="M209.834 126.931L271.459 121.347L265 96.6083L209.834 126.931Z" stroke="white" stroke-linecap="round" stroke-linejoin="round"/>
<path fill-rule="evenodd" clip-rule="evenodd" d="M271.459 121.347L338.543 171.251L387.49 92.1838L271.459 121.347Z" stroke="white" stroke-width="0.5"/>
<path fill-rule="evenodd" clip-rule="evenodd" d="M445.196 133.757L338.543 171.251L424.719 280.813L445.196 133.757Z" stroke="white" stroke-width="0.5"/>
<path fill-rule="evenodd" clip-rule="evenodd" d="M286.352 193.945L338.544 171.252L326.684 236.759L286.352 193.945Z" stroke="white" stroke-width="0.5"/>
</g>
</svg>
