<svg width="137" height="20" viewBox="0 0 137 20" fill="none" xmlns="http://www.w3.org/2000/svg">
<path fill-rule="evenodd" clip-rule="evenodd" d="M57.964 11.999C57.964 14.208 56.1475 15.997 53.9048 15.997H50.1607V4.003H53.9048C56.1475 4.003 57.964 5.792 57.964 8.001V11.999ZM54.2143 0.005V0H46.614C46.3349 0 46.1066 0.225 46.1066 0.4995V19.49L46.1117 19.5505C46.137 19.7955 46.3552 19.99 46.614 19.99H54.2143C58.6947 19.99 62.3226 16.417 62.3226 12.004V7.991C62.3226 3.5785 58.6947 0.005 54.2143 0.005ZM75.3961 16C75.9875 16 76.5446 16.2702 76.9161 16.7399L79.1789 19.5948C79.2619 19.6999 79.2473 19.8595 79.1446 19.9445C79.1007 19.98 79.0464 20 78.9878 20H66.326C66.0572 20 65.8372 19.7744 65.8372 19.4998V0.4998C65.8372 0.224662 66.0572 5e-05 66.326 5e-05H69.2534C69.5222 5e-05 69.7421 0.224662 69.7421 0.4998V16H75.3961ZM87.6044 16C84.2795 16 81.5779 13.3152 81.5779 10C81.5779 6.68489 84.2745 4.00005 87.6044 4.00005C90.9349 4.00005 93.6365 6.68489 93.631 10C93.631 13.3152 90.9349 16 87.6044 16ZM87.6044 5e-05C82.0558 5e-05 77.5582 4.48029 77.5582 10C77.5582 15.5253 82.0558 20 87.6044 20C93.1536 20 97.6512 15.5253 97.6512 10C97.6512 4.47479 93.1536 5e-05 87.6044 5e-05ZM103.345 10C103.345 13.3152 106.047 16 109.372 16C112.702 16 115.398 13.3152 115.398 10C115.398 6.68489 112.702 4.00005 109.372 4.00005C106.042 4.00005 103.345 6.68489 103.345 10ZM99.3256 10C99.3206 4.48029 103.823 5e-05 109.372 5e-05C114.921 5e-05 119.419 4.47479 119.419 10C119.419 15.5253 114.921 20 109.372 20C103.823 20 99.3256 15.5253 99.3256 10ZM129.299 9.0006L136.953 19.6001C137.033 19.7106 137.008 19.8701 136.899 19.9501C136.854 19.9801 136.804 20.0001 136.755 20.0001H132.783C132.465 20.0001 132.167 19.8451 131.977 19.5901L125.327 10.3801V19.5006C125.327 19.7756 125.103 20.0001 124.83 20.0001H121.853C121.579 20.0001 121.356 19.7756 121.356 19.5006V0.5096C121.356 0.2351 121.579 0.0101 121.853 0.0101H124.825V0.0051C125.098 0.0051 125.322 0.2301 125.322 0.5051V7.8761L131.977 0.3396C132.167 0.1251 132.435 0.0051 132.723 0.0051H136.69C136.829 0.0051 136.939 0.1151 136.939 0.2551C136.939 0.3151 136.919 0.3751 136.874 0.4201L129.299 9.0006ZM41.0755 10.2227C41.5377 10.4974 41.9281 10.8327 42.2465 11.233C42.5649 11.6333 42.8114 12.0881 42.9809 12.5985C43.1504 13.1084 43.2326 13.6433 43.2326 14.2087C43.2326 15.1739 43.0374 16.0191 42.6522 16.7491C42.267 17.4792 41.7483 18.0846 41.1012 18.5645C40.4541 19.0448 39.6888 19.4051 38.8157 19.6453C37.9426 19.88 37.0135 20 36.0377 20C34.2504 20 32.7148 19.6003 31.4257 18.7997C30.794 18.4099 30.2701 17.9045 29.849 17.2895C29.6281 16.9643 29.433 16.609 29.2686 16.2242C29.1967 16.0596 29.1145 15.8189 29.0221 15.5142C28.9399 15.249 29.094 14.9688 29.3662 14.8937L29.397 14.8837L32.8946 14.0886C33.1411 14.0336 33.3927 14.1587 33.4852 14.3888C33.7368 14.9943 33.9936 15.4091 34.2453 15.6288C34.7075 16.0291 35.3901 16.2292 36.2889 16.2292C37.2082 16.2292 37.8918 15.9991 38.3329 15.5342C38.7746 15.0689 38.9955 14.4739 38.9955 13.7439C38.9955 13.1984 38.8773 12.7731 38.6411 12.4734C38.4048 12.1732 38.1018 11.9485 37.7218 11.8034C37.3469 11.6583 36.9206 11.5732 36.4537 11.5432C35.9807 11.5177 35.5139 11.5032 35.0414 11.5032H34.5689C34.2859 11.5032 34.0553 11.278 34.0553 11.0028V8.45239C34.0553 8.17718 34.2859 7.95201 34.5689 7.95201H35.4368C35.8323 7.95201 36.2175 7.927 36.5919 7.87195C36.9668 7.81691 37.3114 7.71183 37.6242 7.55722C37.9323 7.4021 38.184 7.18194 38.374 6.90173C38.5641 6.62202 38.6565 6.25174 38.6565 5.7964C38.6565 5.21146 38.4151 4.7311 37.9375 4.34631C37.4598 3.96102 36.8692 3.77088 36.1764 3.77088C35.5185 3.77088 34.9741 3.94601 34.538 4.29127C34.3069 4.47641 34.0809 4.78614 33.855 5.22647C33.7522 5.43162 33.5211 5.54121 33.29 5.49667L29.5922 4.75662C29.3148 4.70108 29.1351 4.43638 29.1916 4.16617L29.207 4.10613C29.2994 3.84143 29.3765 3.63578 29.4484 3.49117C29.6179 3.1309 29.8182 2.80065 30.0441 2.50093C30.4961 1.91048 31.0302 1.43062 31.6517 1.06535C32.2731 0.700575 32.9613 0.430373 33.7266 0.260245C34.5072 0.0851138 35.313 5e-05 36.1558 5e-05C37.0387 5e-05 37.8918 0.105129 38.7079 0.315286C39.5245 0.525444 40.2435 0.850188 40.8649 1.30053C41.4864 1.74586 41.9794 2.30578 42.3441 2.98079C42.7087 3.65579 42.8936 4.45639 42.8936 5.38659C42.8936 6.4619 42.6009 7.38209 42.0205 8.14716C41.435 8.91223 40.5927 9.4026 39.4834 9.62277V9.70233C40.0843 9.77738 40.6184 9.94751 41.0755 10.2227Z" fill="#2253AA"/>
<path fill-rule="evenodd" clip-rule="evenodd" d="M13.6 10.59C13.9776 11.1928 14.6805 11.5622 15.4415 11.5622H18.8588L11.9603 0.127414C11.9342 0.0836636 11.8964 0.054497 11.8543 0.0297053C11.726 -0.0334892 11.5668 0.00588584 11.4922 0.127414L9.86853 2.81464C9.51227 3.40769 9.51706 4.13637 9.88983 4.72457L13.6 10.59ZM6.46493 8.33339L0.0306026 19.6275C0.0103738 19.6627 0 19.708 0 19.7483C0 19.8898 0.113593 20.0001 0.258825 20.0001L3.47313 19.9955C4.22523 19.9955 4.91457 19.6023 5.28284 18.9634L8.45047 13.447C8.81873 12.8127 8.79799 12.0328 8.40897 11.4141L6.46493 8.33339ZM20.9739 16.7187C21.1797 16.8854 21.3331 17.0562 21.6611 17.5794L22.9674 19.6576C23.0362 19.7687 22.9939 19.9122 22.8616 19.9724C22.8246 19.9909 22.7769 20.0002 22.7346 20.0002H9.21251L10.9791 17.4868C11.3225 16.996 11.4812 16.8345 11.6822 16.6817C11.8833 16.5284 12.105 16.4178 12.3642 16.3483C12.6182 16.2789 12.8563 16.2465 13.5171 16.2465H19.0808C19.7628 16.2465 20.0109 16.2835 20.2755 16.3576C20.54 16.4317 20.7675 16.552 20.9739 16.7187Z" fill="#2253AA"/>
</svg>
