<svg width="380" height="340" viewBox="0 0 380 340" fill="none" xmlns="http://www.w3.org/2000/svg">
<mask id="mask0" mask-type="alpha" maskUnits="userSpaceOnUse" x="0" y="0" width="381" height="340">
<path fill-rule="evenodd" clip-rule="evenodd" d="M0.000753732 20C0.000753732 8.9543 8.95506 0 20.0008 0H360.001C371.046 0 380.001 8.95431 380.001 20V240C380.001 295.228 335.239 340 280.011 340C252.866 340 221.947 340 189.541 340C116.465 340 51.4108 340 19.9667 340C8.92102 340 0.000753732 331.046 0.000753732 320V20Z" fill="white"/>
</mask>
<g mask="url(#mask0)">
<path fill-rule="evenodd" clip-rule="evenodd" d="M448.135 276.082C442.641 272.216 450.742 149.191 380 194.115C245.876 279.289 152.357 199.49 133.597 261.884C124.873 290.896 164.123 324.019 147.952 366.733C131.782 409.446 186.117 431.07 198.98 471.581C211.842 512.093 228.582 556.007 280.155 578.09C396.003 627.693 274.121 637.457 319.291 635.634C340.523 634.778 370.435 692.926 370.435 692.926C370.435 692.926 495.177 538.557 516.675 497.981C538.168 457.408 566.356 439.986 566.356 439.986L448.135 276.082Z" fill="#FD574C"/>
<path opacity="0.203023" fill-rule="evenodd" clip-rule="evenodd" d="M139.229 243.661L137.3 241.308C136.98 241.488 136.722 241.778 136.585 242.155C136.285 242.979 136.69 243.88 137.494 244.172C138.13 244.404 138.819 244.175 139.229 243.661V243.661ZM133.432 235.405C133.452 235.349 133.46 235.295 133.474 235.241L131.936 233.335C131.362 233.388 130.832 233.778 130.613 234.379C130.317 235.192 130.705 236.08 131.485 236.364C132.262 236.647 133.136 236.218 133.432 235.405V235.405ZM122.456 236.473C122.74 235.693 122.335 234.828 121.556 234.544C120.78 234.261 119.921 234.667 119.637 235.447C119.354 236.224 119.753 237.081 120.53 237.363C121.309 237.647 122.174 237.25 122.456 236.473V236.473ZM105.451 230.471C105.735 229.691 105.337 228.828 104.556 228.544C103.775 228.26 102.916 228.665 102.632 229.445C102.349 230.222 102.749 231.079 103.53 231.363C104.311 231.647 105.168 231.248 105.451 230.471V230.471ZM118.455 220.469C118.739 219.689 118.335 218.828 117.555 218.544C116.777 218.261 115.919 218.663 115.636 219.443C115.353 220.22 115.751 221.08 116.529 221.363C117.309 221.647 118.172 221.246 118.455 220.469V220.469ZM143.453 259.465C143.737 258.685 143.334 257.827 142.553 257.543C141.773 257.259 140.918 257.659 140.634 258.439C140.35 259.219 140.746 260.078 141.527 260.362C142.308 260.646 143.169 260.245 143.453 259.465V259.465ZM108.452 221.469C108.736 220.69 108.338 219.828 107.557 219.544C106.776 219.26 105.917 219.664 105.633 220.443C105.352 221.217 105.75 222.079 106.531 222.363C107.312 222.647 108.171 222.243 108.452 221.469V221.469ZM115.455 229.47C115.739 228.691 115.336 227.828 114.556 227.544C113.778 227.261 112.92 227.665 112.636 228.444C112.353 229.221 112.752 230.08 113.53 230.363C114.31 230.647 115.173 230.247 115.455 229.47V229.47ZM151.034 256.867C150.856 257.636 151.271 258.435 152.029 258.711C152.238 258.787 152.45 258.816 152.659 258.806L151.034 256.867ZM119.458 245.467C119.741 244.69 119.335 243.828 118.556 243.544C117.78 243.261 116.922 243.664 116.639 244.441C116.355 245.221 116.753 246.081 117.53 246.363C118.309 246.647 119.175 246.247 119.458 245.467V245.467ZM102.453 239.465C102.736 238.688 102.337 237.828 101.556 237.544C100.775 237.26 99.9167 237.662 99.6338 238.439C99.3499 239.219 99.7491 240.079 100.53 240.363C101.311 240.647 102.169 240.245 102.453 239.465V239.465ZM101.455 214.469C101.739 213.689 101.343 212.83 100.563 212.547C99.7827 212.263 98.9195 212.663 98.6356 213.443C98.3527 214.22 98.7566 215.082 99.5366 215.366C100.317 215.649 101.172 215.246 101.455 214.469V214.469ZM112.454 238.468C112.738 237.687 112.334 236.828 111.554 236.544C110.776 236.261 109.919 236.661 109.635 237.442C109.351 238.222 109.75 239.08 110.528 239.363C111.308 239.647 112.17 239.248 112.454 238.468V238.468ZM95.4542 231.468C95.7383 230.687 95.3416 229.83 94.5616 229.547C93.7817 229.263 92.9192 229.661 92.6351 230.442C92.3509 231.222 92.7556 232.082 93.5356 232.366C94.3156 232.649 95.17 232.248 95.4542 231.468V231.468ZM136.456 251.466C136.739 250.689 136.335 249.828 135.557 249.545C134.777 249.261 133.919 249.663 133.637 250.44C133.353 251.22 133.751 252.08 134.531 252.364C135.309 252.647 136.172 252.246 136.456 251.466V251.466ZM143.959 249.475C143.861 249.605 143.776 249.743 143.715 249.909C143.414 250.735 143.835 251.642 144.661 251.942C145.1 252.102 145.566 252.051 145.947 251.845L143.959 249.475ZM129.454 244.468C129.738 243.687 129.334 242.828 128.556 242.545C127.776 242.261 126.919 242.661 126.635 243.442C126.351 244.222 126.75 245.08 127.53 245.364C128.308 245.647 129.17 245.248 129.454 244.468V244.468ZM98.4552 223.47C98.7388 222.691 98.3436 221.83 97.5636 221.547C96.7837 221.263 95.9197 221.665 95.6361 222.444C95.3535 223.221 95.7576 224.082 96.5376 224.366C97.3176 224.649 98.1725 224.247 98.4552 223.47V223.47ZM76.4556 283.466C76.7386 282.689 76.3426 281.83 75.5626 281.547C74.7827 281.263 73.9195 281.663 73.6366 282.44C73.3527 283.22 73.7566 284.082 74.5366 284.366C75.3166 284.649 76.1718 284.246 76.4556 283.466V283.466ZM104.458 288.467C104.741 287.69 104.335 286.828 103.556 286.544C102.78 286.261 101.922 286.664 101.639 287.441C101.356 288.219 101.753 289.081 102.53 289.363C103.309 289.647 104.175 289.245 104.458 288.467V288.467ZM86.4529 282.465C86.7358 281.688 86.3366 280.828 85.5559 280.544C84.7752 280.26 83.9167 280.662 83.6338 281.439C83.3509 282.217 83.7491 283.079 84.5298 283.363C85.3106 283.647 86.17 283.243 86.4529 282.465V282.465ZM111.604 286.47C111.363 287.131 111.6 287.839 112.129 288.225L114.245 287.828C114.314 287.728 114.378 287.619 114.423 287.496C114.712 286.702 114.313 285.828 113.535 285.545C112.755 285.261 111.893 285.676 111.604 286.47V286.47ZM69.3294 276.42C69.6123 275.643 69.1824 274.772 68.367 274.475C67.7659 274.257 67.1335 274.409 66.7215 274.814L66.3 275.972C66.3555 276.547 66.7398 277.076 67.3409 277.294C68.1563 277.591 69.0464 277.198 69.3294 276.42V276.42ZM111.452 213.468C111.735 212.691 111.337 211.828 110.556 211.544C109.775 211.26 108.916 211.665 108.633 212.442C108.35 213.219 108.749 214.079 109.53 214.363C110.311 214.647 111.169 214.245 111.452 213.468V213.468ZM83.4529 290.465C83.7358 289.688 83.3366 288.828 82.5559 288.544C81.7752 288.26 80.9167 288.662 80.6338 289.439C80.3499 290.219 80.7491 291.079 81.5298 291.363C82.3106 291.647 83.169 291.245 83.4529 290.465V290.465ZM93.4556 289.466C93.7386 288.689 93.3346 287.828 92.5547 287.544C91.7773 287.261 90.9195 287.663 90.6366 288.44C90.3527 289.22 90.7513 290.08 91.5286 290.363C92.3086 290.647 93.1718 290.246 93.4556 289.466V289.466ZM73.4556 292.466C73.7386 291.689 73.3426 290.83 72.5626 290.547C71.7827 290.263 70.9195 290.663 70.6366 291.44C70.3527 292.22 70.7566 293.082 71.5366 293.366C72.3166 293.649 73.1718 293.246 73.4556 292.466V292.466ZM72.3294 267.42C72.6133 266.64 72.1824 265.772 71.367 265.475C70.7659 265.257 70.1335 265.409 69.7205 265.817L69.2991 266.975C69.3555 267.547 69.7398 268.076 70.3409 268.294C71.1563 268.591 72.0464 268.198 72.3294 267.42V267.42ZM104.455 205.469C104.739 204.689 104.343 203.83 103.563 203.547C102.783 203.263 101.919 203.663 101.636 204.443C101.353 205.22 101.757 206.082 102.537 206.366C103.317 206.649 104.172 206.246 104.455 205.469V205.469ZM94.3284 207.423C94.6113 206.646 94.1824 205.772 93.367 205.475C92.7659 205.257 92.1316 205.415 91.7196 205.819L91.2981 206.977C91.3546 207.55 91.7398 208.076 92.3409 208.294C93.1563 208.591 94.0455 208.2 94.3284 207.423V207.423ZM88.3274 224.426C88.6113 223.646 88.1824 222.772 87.367 222.475C86.7659 222.257 86.1316 222.415 85.7196 222.819L85.2991 223.975C85.3536 224.552 85.7398 225.076 86.3409 225.294C87.1563 225.591 88.0445 225.203 88.3274 224.426V224.426ZM91.3289 215.424C91.6125 214.645 91.1834 213.772 90.368 213.475C89.7669 213.257 89.1327 213.414 88.7209 213.819L88.2998 214.975C88.3554 215.55 88.7408 216.076 89.3419 216.294C90.1573 216.591 91.0472 216.198 91.3289 215.424V215.424ZM76.3284 258.423C76.6123 257.643 76.1824 256.772 75.367 256.475C74.7659 256.257 74.1326 256.412 73.7196 256.819L73.2991 257.975C73.3546 258.55 73.7398 259.076 74.3409 259.294C75.1563 259.591 76.0455 259.2 76.3284 258.423V258.423ZM79.3284 250.423C79.6123 249.643 79.1824 248.772 78.367 248.475C77.7659 248.257 77.1326 248.412 76.7205 248.817L76.3 249.972C76.3546 250.55 76.7398 251.076 77.3409 251.294C78.1563 251.591 79.0455 251.2 79.3284 250.423V250.423ZM85.3294 232.42C85.6123 231.643 85.1824 230.772 84.367 230.475C83.7659 230.257 83.1316 230.415 82.7205 230.817L82.2991 231.975C82.3546 232.55 82.7398 233.076 83.3409 233.294C84.1563 233.591 85.0455 233.2 85.3294 232.42V232.42ZM82.3294 241.42C82.6123 240.643 82.1824 239.772 81.367 239.475C80.7659 239.257 80.1326 239.412 79.7196 239.819L79.2991 240.975C79.3546 241.55 79.7398 242.076 80.3409 242.294C81.1563 242.591 82.0455 242.2 82.3294 241.42V241.42ZM66.3294 284.42C66.6123 283.643 66.1824 282.772 65.367 282.475C64.7659 282.257 64.1326 282.412 63.7215 282.814L63.3 283.972C63.3555 284.547 63.7398 285.076 64.3409 285.294C65.1563 285.591 66.0455 285.2 66.3294 284.42V284.42ZM131.313 283.842C131.232 284.065 131.203 284.284 131.222 284.505L134.333 283.958C134.196 283.483 133.846 283.075 133.344 282.893C132.519 282.592 131.614 283.016 131.313 283.842V283.842ZM110.457 271.47C110.741 270.69 110.335 269.828 109.556 269.544C108.78 269.261 107.922 269.664 107.638 270.444C107.355 271.221 107.753 272.081 108.53 272.363C109.309 272.647 110.175 272.247 110.457 271.47V271.47ZM117.456 278.466C117.74 277.686 117.335 276.828 116.557 276.545C115.777 276.261 114.92 276.66 114.637 277.44C114.353 278.22 114.751 279.08 115.531 279.364C116.309 279.647 117.172 279.246 117.456 278.466V278.466ZM141.434 283.231L141.431 283.239L144.143 282.761C143.966 282.553 143.745 282.38 143.469 282.279C142.648 281.981 141.734 282.405 141.434 283.231V283.231ZM103.455 263.469C103.739 262.689 103.335 261.828 102.555 261.544C101.777 261.261 100.919 261.663 100.636 262.443C100.352 263.223 100.751 264.08 101.529 264.363C102.309 264.647 103.171 264.249 103.455 263.469V263.469ZM82.4556 266.466C82.7395 265.686 82.3426 264.83 81.5626 264.547C80.7827 264.263 79.9204 264.66 79.6366 265.44C79.3527 266.22 79.7566 267.082 80.5366 267.366C81.3166 267.649 82.1718 267.246 82.4556 266.466V266.466ZM126.456 252.466C126.74 251.686 126.335 250.828 125.557 250.545C124.777 250.261 123.92 250.66 123.637 251.44C123.353 252.22 123.751 253.08 124.531 253.364C125.309 253.647 126.172 253.246 126.456 252.466V252.466ZM93.4519 265.468C93.7358 264.688 93.3366 263.828 92.5559 263.544C91.7752 263.26 90.9167 263.662 90.6329 264.442C90.3499 265.219 90.7491 266.079 91.5298 266.363C92.3106 266.647 93.169 266.245 93.4519 265.468V265.468ZM89.4529 273.465C89.7368 272.685 89.3366 271.828 88.5559 271.544C87.7752 271.26 86.9177 271.659 86.6338 272.439C86.3509 273.217 86.7491 274.079 87.5298 274.363C88.3106 274.647 89.17 274.243 89.4529 273.465V273.465ZM97.4571 281.465C97.7398 280.688 97.3356 279.828 96.5557 279.544C95.7783 279.261 94.9207 279.662 94.638 280.439C94.3544 281.218 94.7523 282.08 95.5296 282.363C96.3096 282.647 97.1735 282.244 97.4571 281.465V281.465ZM125.458 228.471C125.62 228.027 125.549 227.559 125.32 227.186L125.02 226.821C124.884 226.705 124.733 226.608 124.557 226.544C123.781 226.261 122.922 226.666 122.639 227.445C122.357 228.219 122.754 229.081 123.531 229.363C124.31 229.647 125.176 229.245 125.458 228.471V228.471ZM98.3274 198.426C98.6113 197.646 98.1824 196.772 97.367 196.475C96.7659 196.257 96.1316 196.415 95.7196 196.819L95.2991 197.975C95.3546 198.55 95.7398 199.076 96.3409 199.294C97.1563 199.591 98.0445 199.203 98.3274 198.426V198.426ZM100.456 272.466C100.74 271.686 100.335 270.828 99.5547 270.544C98.7773 270.261 97.9205 270.66 97.6366 271.44C97.3527 272.22 97.7513 273.08 98.5286 273.363C99.3086 273.647 100.172 273.246 100.456 272.466V272.466ZM63.3303 293.418C63.6133 292.64 63.1824 291.772 62.367 291.475C61.7659 291.257 61.1326 291.412 60.7205 291.817L60.3 292.972C60.3555 293.547 60.7398 294.076 61.3409 294.294C62.1563 294.591 63.0464 294.198 63.3303 293.418V293.418ZM121.469 285.626C121.311 286.06 121.351 286.512 121.537 286.892L124.408 286.325C124.505 285.604 124.12 284.902 123.438 284.654C122.648 284.366 121.77 284.8 121.469 285.626V285.626ZM107.458 279.467C107.742 278.687 107.335 277.828 106.556 277.544C105.78 277.261 104.923 277.661 104.639 278.441C104.356 279.219 104.753 280.081 105.53 280.363C106.309 280.647 107.175 280.245 107.458 279.467V279.467ZM79.4571 274.465C79.7398 273.688 79.3436 272.83 78.5636 272.547C77.7837 272.263 76.9207 272.662 76.6381 273.439C76.3544 274.218 76.7576 275.082 77.5376 275.366C78.3176 275.649 79.1735 275.244 79.4571 274.465V274.465ZM86.4547 257.469C86.7386 256.689 86.3426 255.83 85.5626 255.547C84.7827 255.263 83.9195 255.663 83.6356 256.443C83.3517 257.223 83.7566 258.082 84.5366 258.366C85.3166 258.649 86.1708 258.249 86.4547 257.469V257.469ZM127.455 277.469C127.739 276.689 127.335 275.828 126.557 275.545C125.777 275.261 124.919 275.663 124.636 276.443C124.353 277.22 124.751 278.08 125.531 278.364C126.309 278.647 127.172 278.246 127.455 277.469V277.469ZM99.4529 247.465C99.7358 246.688 99.3366 245.828 98.5559 245.544C97.7752 245.26 96.9167 245.662 96.6338 246.439C96.3499 247.219 96.7491 248.079 97.5298 248.363C98.3106 248.647 99.169 248.245 99.4529 247.465V247.465ZM116.458 254.467C116.741 253.69 116.335 252.828 115.556 252.544C114.78 252.261 113.922 252.664 113.639 253.441C113.355 254.221 113.753 255.081 114.53 255.363C115.309 255.647 116.175 255.247 116.458 254.467V254.467ZM167.455 277.469C167.739 276.689 167.337 275.828 166.557 275.545C165.78 275.262 164.919 275.663 164.636 276.443C164.353 277.22 164.754 278.081 165.531 278.364C166.311 278.648 167.172 278.246 167.455 277.469V277.469ZM157.456 274.468C157.74 273.688 157.338 272.828 156.558 272.545C155.784 272.263 154.921 272.662 154.637 273.442C154.353 274.221 154.758 275.082 155.532 275.364C156.312 275.648 157.173 275.247 157.456 274.468V274.468ZM133.456 260.466C133.739 259.689 133.335 258.828 132.557 258.545C131.777 258.261 130.919 258.663 130.637 259.44C130.353 260.22 130.751 261.08 131.531 261.364C132.309 261.647 133.172 261.246 133.456 260.466V260.466ZM92.4556 240.466C92.7395 239.686 92.3426 238.83 91.5626 238.547C90.7827 238.263 89.9205 238.66 89.6366 239.44C89.3527 240.22 89.7566 241.082 90.5366 241.366C91.3166 241.649 92.1718 241.246 92.4556 240.466V240.466ZM109.456 246.466C109.74 245.686 109.335 244.828 108.555 244.544C107.777 244.261 106.92 244.66 106.637 245.44C106.353 246.22 106.751 247.08 107.529 247.363C108.309 247.647 109.172 247.246 109.456 246.466V246.466ZM150.478 267.939C150.856 266.901 150.532 265.828 149.752 265.545C148.977 265.263 148.037 265.875 147.659 266.913C147.281 267.951 147.609 269.021 148.384 269.303C149.164 269.587 150.1 268.977 150.478 267.939V267.939ZM140.453 267.467C140.737 266.687 140.335 265.827 139.554 265.543C138.774 265.259 137.918 265.661 137.634 266.441C137.351 267.22 137.747 268.078 138.528 268.362C139.309 268.646 140.17 268.246 140.453 267.467V267.467ZM137.452 276.468C137.736 275.688 137.334 274.827 136.553 274.543C135.773 274.259 134.917 274.662 134.633 275.442C134.349 276.222 134.746 277.078 135.527 277.362C136.308 277.646 137.168 277.248 137.452 276.468V276.468ZM123.456 261.468C123.74 260.688 123.336 259.828 122.558 259.545C121.778 259.261 120.921 259.662 120.637 260.442C120.353 261.221 120.752 262.08 121.532 262.364C122.31 262.647 123.173 262.247 123.456 261.468V261.468ZM113.457 262.47C113.741 261.69 113.335 260.828 112.556 260.544C111.78 260.261 110.922 260.664 110.638 261.444C110.355 262.221 110.753 263.081 111.53 263.363C112.309 263.647 113.175 263.247 113.457 262.47V262.47ZM152.124 281.019L153.525 280.772C153.03 280.624 152.517 280.728 152.124 281.019V281.019ZM120.455 270.469C120.739 269.689 120.335 268.828 119.557 268.545C118.777 268.261 117.919 268.663 117.636 269.443C117.352 270.223 117.751 271.08 118.531 271.364C119.309 271.647 120.171 271.249 120.455 270.469V270.469ZM130.455 268.469C130.739 267.689 130.335 266.828 129.557 266.545C128.777 266.261 127.919 266.663 127.636 267.443C127.353 268.22 127.751 269.08 128.531 269.364C129.309 269.647 130.172 269.246 130.455 268.469V268.469ZM89.4562 248.468C89.7398 247.688 89.3436 246.83 88.5636 246.547C87.7837 246.263 86.9207 246.662 86.6371 247.442C86.3535 248.221 86.7576 249.082 87.5376 249.366C88.3176 249.649 89.1725 249.247 89.4562 248.468V248.468ZM106.456 255.468C106.74 254.688 106.336 253.828 105.556 253.544C104.778 253.261 103.921 253.662 103.637 254.442C103.353 255.221 103.752 256.08 104.53 256.363C105.31 256.647 106.173 256.247 106.456 255.468V255.468ZM96.4519 256.468C96.7358 255.688 96.3366 254.828 95.5559 254.544C94.7752 254.26 93.9167 254.662 93.6329 255.442C93.3499 256.219 93.7491 257.079 94.5298 257.363C95.3106 257.647 96.169 257.245 96.4519 256.468V256.468ZM147.455 275.469C147.739 274.689 147.337 273.828 146.557 273.545C145.783 273.263 144.919 273.663 144.636 274.443C144.353 275.22 144.757 276.082 145.531 276.364C146.311 276.648 147.172 276.246 147.455 275.469V275.469Z" fill="#1D252D"/>
<path fill-rule="evenodd" clip-rule="evenodd" d="M123 -187.5C123 -181.148 117.851 -176 111.499 -176C105.149 -176 100 -181.148 100 -187.5C100 -193.849 105.149 -199 111.499 -199C117.851 -199 123 -193.849 123 -187.5ZM133 -84C135.761 -84 138 -86.2381 138 -88.9988C138 -91.7595 135.761 -94 133 -94C130.239 -94 128 -91.7595 128 -88.9988C128 -86.2381 130.239 -84 133 -84ZM176.999 125C182.523 125 187 120.521 187 115C187 109.476 182.523 105 176.999 105C171.477 105 167 109.476 167 115C167 120.521 171.477 125 176.999 125ZM276.5 141C278.984 141 281 138.987 281 136.5C281 134.013 278.984 132 276.5 132C274.013 132 272 134.013 272 136.5C272 138.987 274.013 141 276.5 141ZM297 184.501C297 185.88 295.88 187 294.501 187C293.12 187 292 185.88 292 184.501C292 183.12 293.12 182 294.501 182C295.88 182 297 183.12 297 184.501ZM316.001 150C318.209 150 320 148.209 320 145.999C320 143.791 318.209 142 316.001 142C313.791 142 312 143.791 312 145.999C312 148.209 313.791 150 316.001 150ZM288 123C288 125.207 286.209 127 284.001 127C281.791 127 280 125.207 280 123C280 120.793 281.791 119 284.001 119C286.209 119 288 120.793 288 123ZM244.501 216C246.987 216 249 213.987 249 211.499C249 209.013 246.987 207 244.501 207C242.016 207 240 209.013 240 211.499C240 213.987 242.016 216 244.501 216ZM84 225.001C84 227.209 82.2088 229 80 229C77.7912 229 76 227.209 76 225.001C76 222.793 77.7912 221 80 221C82.2088 221 84 222.793 84 225.001ZM179.5 255C183.641 255 187 251.639 187 247.499C187 243.358 183.641 240 179.5 240C175.359 240 172 243.358 172 247.499C172 251.639 175.359 255 179.5 255ZM308 264.5C308 266.434 306.434 268 304.5 268C302.569 268 301 266.434 301 264.5C301 262.566 302.569 261 304.5 261C306.434 261 308 262.566 308 264.5ZM116 208C118.761 208 121 205.763 121 202.999C121 200.237 118.761 198 116 198C113.239 198 111 200.237 111 202.999C111 205.763 113.239 208 116 208Z" fill="white"/>
<path fill-rule="evenodd" clip-rule="evenodd" d="M32 67.5C32 73.8515 26.851 79 20.4988 79C14.149 79 9 73.8515 9 67.5C9 61.1509 14.149 56 20.4988 56C26.851 56 32 61.1509 32 67.5ZM42 171C44.7613 171 47 168.762 47 166.001C47 163.241 44.7613 161 42 161C39.2387 161 37 163.241 37 166.001C37 168.762 39.2387 171 42 171ZM-7 480.001C-7 482.209 -8.79117 484 -11 484C-13.2088 484 -15 482.209 -15 480.001C-15 477.793 -13.2088 476 -11 476C-8.79117 476 -7 477.793 -7 480.001ZM217 519.5C217 521.434 215.434 523 213.5 523C211.569 523 210 521.434 210 519.5C210 517.566 211.569 516 213.5 516C215.434 516 217 517.566 217 519.5ZM25 463C27.7607 463 30 460.763 30 457.999C30 455.237 27.7607 453 25 453C22.2393 453 20 455.237 20 457.999C20 460.763 22.2393 463 25 463Z" fill="#E8EBF0"/>
<path d="M49 299.999C49 297.238 51.2385 295 54 295V293C50.1343 293 47 296.133 47 299.999H49ZM54 305C51.2391 305 49 302.759 49 299.999H47C47 303.863 50.1337 307 54 307V305ZM59 299.999C59 302.759 56.7609 305 54 305V307C57.8663 307 61 303.863 61 299.999H59ZM54 295C56.7615 295 59 297.238 59 299.999H61C61 296.133 57.8657 293 54 293V295ZM-120 71.5C-120 69.0132 -117.985 67 -115.5 67V65C-119.088 65 -122 67.9079 -122 71.5H-120ZM-115.5 76C-117.985 76 -120 73.9868 -120 71.5H-122C-122 75.0921 -119.088 78 -115.5 78V76ZM-111 71.5C-111 73.9872 -113.013 76 -115.5 76V78C-111.908 78 -109 75.0918 -109 71.5H-111ZM-115.5 67C-113.013 67 -111 69.0128 -111 71.5H-109C-109 67.9082 -111.908 65 -115.5 65V67ZM13 64.5C13 58.7029 17.7007 54 23.5015 54V52C16.596 52 11 57.5984 11 64.5H13ZM23.5015 75C17.7005 75 13 70.2999 13 64.5H11C11 71.4047 16.5962 77 23.5015 77V75ZM34 64.5C34 70.3001 29.2993 75 23.5015 75V77C30.404 77 36 71.4046 36 64.5H34ZM23.5015 54C29.2992 54 34 58.7027 34 64.5H36C36 57.5985 30.4042 52 23.5015 52V54ZM-113.002 -21C-115.209 -21 -117 -19.2087 -117 -17.0016H-115C-115 -18.1042 -114.104 -19 -113.002 -19V-21ZM-109 -17.0016C-109 -19.2094 -110.792 -21 -113.002 -21V-19C-111.895 -19 -111 -18.1035 -111 -17.0016H-109ZM-113.002 -13C-110.791 -13 -109 -14.7913 -109 -17.0016H-111C-111 -15.8958 -111.896 -15 -113.002 -15V-13ZM-117 -17.0016C-117 -14.792 -115.209 -13 -113.002 -13V-15C-114.103 -15 -115 -15.8952 -115 -17.0016H-117ZM-141 27.5014C-141 25.5666 -139.433 24 -137.501 24V22C-140.538 22 -143 24.4628 -143 27.5014H-141ZM-137.501 31C-139.433 31 -141 29.433 -141 27.5014H-143C-143 30.5376 -140.538 33 -137.501 33V31ZM-134 27.5014C-134 29.4326 -135.567 31 -137.501 31V33C-134.463 33 -132 30.538 -132 27.5014H-134ZM-137.501 24C-135.567 24 -134 25.567 -134 27.5014H-132C-132 24.4624 -134.462 22 -137.501 22V24ZM-99.5015 49C-102.538 49 -105 51.466 -105 54.5H-103C-103 52.5694 -101.432 51 -99.5015 51V49ZM-94 54.5C-94 51.4655 -96.4629 49 -99.5015 49V51C-97.5677 51 -96 52.5698 -96 54.5H-94ZM-99.5015 60C-96.4629 60 -94 57.5345 -94 54.5H-96C-96 56.4302 -97.5677 58 -99.5015 58V60ZM-105 54.5C-105 57.534 -102.538 60 -99.5015 60V58C-101.432 58 -103 56.4306 -103 54.5H-105ZM-79 -47.4985C-79 -49.9872 -76.9866 -52 -74.5015 -52V-54C-78.0918 -54 -81 -51.0911 -81 -47.4985H-79ZM-74.5015 -43C-76.9869 -43 -79 -45.0131 -79 -47.4985H-81C-81 -43.9085 -78.0915 -41 -74.5015 -41V-43ZM-70 -47.4985C-70 -45.0138 -72.0154 -43 -74.5015 -43V-41C-70.9122 -41 -68 -43.9078 -68 -47.4985H-70ZM-74.5015 -52C-72.0157 -52 -70 -49.9865 -70 -47.4985H-68C-68 -51.0918 -70.9119 -54 -74.5015 -54V-52ZM-32.5 -69C-35.5369 -69 -38 -66.5382 -38 -63.5016H-36C-36 -65.433 -34.433 -67 -32.5 -67V-69ZM-27 -63.5016C-27 -66.5382 -29.4631 -69 -32.5 -69V-67C-30.567 -67 -29 -65.433 -29 -63.5016H-27ZM-32.5 -58C-29.4622 -58 -27 -60.4658 -27 -63.5016H-29C-29 -61.5692 -30.5679 -60 -32.5 -60V-58ZM-38 -63.5016C-38 -60.4658 -35.5378 -58 -32.5 -58V-60C-34.4321 -60 -36 -61.5692 -36 -63.5016H-38ZM-7 -89.4985C-7 -93.6392 -3.64099 -97 0.5 -97V-99C-4.74615 -99 -9 -94.7432 -9 -89.4985H-7ZM0.5 -82C-3.64146 -82 -7 -85.3582 -7 -89.4985H-9C-9 -84.2533 -4.74569 -80 0.5 -80V-82ZM8 -89.4985C8 -85.3582 4.64146 -82 0.5 -82V-80C5.74569 -80 10 -84.2533 10 -89.4985H8ZM0.5 -97C4.64099 -97 8 -93.6392 8 -89.4985H10C10 -94.7432 5.74615 -99 0.5 -99V-97ZM-117 -84C-119.763 -84 -122 -81.7626 -122 -79H-120C-120 -80.658 -118.658 -82 -117 -82V-84ZM-112 -79C-112 -81.7631 -114.241 -84 -117 -84V-82C-115.345 -82 -114 -80.6575 -114 -79H-112ZM-117 -74C-114.241 -74 -112 -76.2369 -112 -79H-114C-114 -77.3425 -115.345 -76 -117 -76V-74ZM-122 -79C-122 -76.2374 -119.763 -74 -117 -74V-76C-118.658 -76 -120 -77.342 -120 -79H-122ZM79.5014 206C71.4923 206 65 212.491 65 220.5H67C67 213.596 72.5967 208 79.5014 208V206ZM94 220.5C94 212.492 87.5078 206 79.5014 206V208C86.4032 208 92 213.596 92 220.5H94ZM79.5014 235C87.508 235 94 228.505 94 220.5H92C92 227.401 86.4031 233 79.5014 233V235ZM65 220.5C65 228.506 71.4922 235 79.5014 235V233C72.5968 233 67 227.401 67 220.5H65ZM69 -37.9986C69 -40.7626 71.2394 -43 74 -43V-45C70.1349 -45 67 -41.8674 67 -37.9986H69ZM74 -33C71.239 -33 69 -35.2377 69 -37.9986H67C67 -34.1323 70.1353 -31 74 -31V-33ZM79 -37.9986C79 -35.2377 76.761 -33 74 -33V-31C77.8647 -31 81 -34.1323 81 -37.9986H79ZM74 -43C76.7606 -43 79 -40.7626 79 -37.9986H81C81 -41.8674 77.8651 -45 74 -45V-43Z" fill="#FD574C"/>
<path fill-rule="evenodd" clip-rule="evenodd" d="M42.932 477.686C51.366 467.634 66.3192 466 88.332 471.499L89.8463 471.883C105.967 476.042 121.298 482.154 155.357 497.097L161.206 499.661C190.603 512.52 204.092 517.891 219.251 522.242C240.496 528.339 255.972 528.682 266.386 522.132L267.292 521.562L266.156 519.751L265.25 520.321C255.489 526.459 240.556 526.129 219.844 520.184L217.951 519.633C203.331 515.311 189.537 509.737 160.182 496.875L150.023 492.426C119.117 478.947 104.689 473.378 88.8533 469.422L87.4983 469.091C65.5034 463.819 50.2124 465.683 41.2941 476.312L40.6059 477.132L42.2438 478.507L42.932 477.686ZM245.147 427.717L246.939 426.552L243.395 421.126C242.459 419.7 241.478 418.215 240.37 416.544L229.131 399.669C210.554 371.692 202.595 358.516 196.007 343.764C186.76 323.06 185.754 308.066 194.156 298.029C201.008 289.862 212.198 287.267 227.934 289.534C240.903 291.402 256.414 296.386 277.171 304.883L280.152 306.112L280.968 304.136L277.974 302.902C257.07 294.345 241.42 289.317 228.238 287.418C211.844 285.056 199.932 287.819 192.518 296.656C183.451 307.486 184.51 323.264 194.055 344.636L194.703 346.073C201.306 360.558 209.479 373.96 227.943 401.744L239.727 419.446C241.121 421.552 242.334 423.4 243.575 425.302L245.147 427.717ZM379.103 344.641L378.06 344.399L378.534 342.317L380.238 342.709C400.425 347.276 414.295 345.362 422.268 335.869C430.674 325.85 429.645 310.852 420.351 290.122L420.137 289.646C413.556 275.068 405.532 261.852 387.082 234.132L378.049 220.601C361.524 195.773 354.006 183.571 347.385 170.058L346.478 168.191L348.402 167.266L348.87 168.229C355.69 182.295 363.322 194.662 380.951 221.107L387.651 231.137C406.624 259.591 414.942 273.154 421.651 287.817L422.302 289.255C431.896 310.653 432.979 326.437 423.909 337.247C415.208 347.608 400.348 349.561 379.103 344.641Z" fill="white"/>
<path fill-rule="evenodd" clip-rule="evenodd" d="M84.3921 478.755C62.7566 473.42 48.0399 475.088 39.7213 485.003C39.3425 485.454 38.6685 485.512 38.2159 485.132C37.7632 484.752 37.7034 484.078 38.0821 483.627C47.1504 472.819 62.867 471.136 85.5798 476.85C101.408 480.832 115.834 486.423 146.738 499.944L160.248 505.878C191.737 519.67 206.244 525.316 222.088 529.302L222.76 529.469C244.394 534.804 259.111 533.136 267.429 523.222C274.664 514.599 274.905 502.262 268.926 485.809L268.722 485.253C263.918 472.249 255.701 457.44 242.531 437.045L240.811 434.391C240.488 433.896 240.628 433.235 241.122 432.914C241.616 432.593 242.279 432.734 242.601 433.229C257.059 455.432 265.887 471.195 270.935 485.084C277.147 502.179 276.891 515.273 269.068 524.598C260 535.405 244.284 537.088 221.572 531.374L221.062 531.245C205.432 527.271 190.986 521.656 160.415 508.281L147.915 502.79C115.724 488.675 101.077 482.951 85.0635 478.922L84.3921 478.755ZM255.655 306.32L253.6 305.591C253.042 305.394 252.745 304.784 252.938 304.227C253.131 303.67 253.74 303.378 254.299 303.575C266.086 307.721 276.311 311.929 296.528 320.803L309.12 326.352C342.073 340.858 356.88 346.69 373.083 350.798L373.755 350.967C395.419 356.352 410.151 354.727 418.469 344.856C426.877 334.836 425.836 319.828 416.517 299.084L416.087 298.133C409.528 283.727 401.453 270.476 383.171 243.047L373.624 228.769C365.153 216.071 360.436 208.792 355.688 200.984L354.369 198.803C354.064 198.296 354.227 197.64 354.733 197.338C355.239 197.037 355.896 197.204 356.201 197.711C360.969 205.637 365.362 212.496 373.159 224.224L384.354 240.977C403.537 269.732 411.693 283.135 418.469 298.22L418.755 298.861C428.109 319.949 429.093 335.534 420.112 346.237C411.224 356.784 395.938 358.567 373.926 353.207L372.57 352.87C356.892 348.895 342.587 343.353 312.319 330.087L292.908 321.545C275.688 314.01 266.012 310.029 255.655 306.32Z" fill="#1D252D"/>
</g>
</svg>
