<svg width="300" height="600" viewBox="0 0 300 600" fill="none" xmlns="http://www.w3.org/2000/svg">
<mask id="mask0" mask-type="alpha" maskUnits="userSpaceOnUse" x="0" y="0" width="300" height="600">
<rect width="300" height="600" fill="white"/>
</mask>
<g mask="url(#mask0)">
<path fill-rule="evenodd" clip-rule="evenodd" d="M273.892 -59.7543C269.062 -49.3637 258.888 -7.22708 231.531 18.6772C204.765 44.0212 189.252 15.8821 132.909 14.2749C69.722 12.4725 93.2219 -26.7077 93.9726 -76.3405C94.7233 -125.973 98.7589 -104.65 161.965 -102.847C225.171 -101.044 295.219 -105.642 273.892 -59.7543Z" fill="url(#paint0_linear)"/>
<path opacity="0.500372" fill-rule="evenodd" clip-rule="evenodd" d="M-125.454 477.561C-116.155 469.758 -102.316 470.583 -83.2509 478.972L-82.6597 479.234C-68.5623 485.518 -56.0031 493.144 -28.6534 511.32L-17.067 519.03C5.79672 534.188 16.9241 540.994 29.6138 547.186C48.1801 556.246 62.3699 559.073 73.0193 554.735L73.946 554.358L73.1936 552.506L72.2669 552.883C62.4032 556.902 48.9155 554.285 31.1305 545.698L29.2529 544.779C16.7494 538.585 5.31352 531.501 -18.2691 515.83L-28.4183 509.074C-55.2655 491.247 -67.7588 483.685 -81.8428 477.408C-101.838 468.496 -116.602 467.524 -126.739 476.03L-127.505 476.673L-126.221 478.204L-125.454 477.561ZM68.7595 464.227L70.5982 463.445L68.486 458.5C67.5957 456.43 66.6586 454.271 65.5113 451.646L58.9769 436.745C46.1225 407.335 40.8618 393.785 37.1524 378.981C32.0014 358.424 33.5084 344.46 42.8719 336.586C50.5043 330.182 61.2259 329.609 75.3425 334.249C87.3469 338.195 101.303 345.633 119.875 357.446L120.718 357.982L121.79 356.296L120.947 355.76C102.245 343.865 88.1672 336.362 75.9663 332.351C61.259 327.516 49.8453 328.126 41.5868 335.056C31.483 343.553 29.8973 358.246 35.2144 379.467L35.5779 380.894C39.3454 395.456 44.7702 409.26 57.5534 438.476L65.261 456.074C66.2378 458.324 67.086 460.296 67.9686 462.367L68.7595 464.227ZM205.574 409.357L204.653 408.966L205.428 407.126L206.932 407.764C224.773 415.243 237.851 415.733 246.73 408.289C256.094 400.432 257.581 386.461 252.391 365.873L252.271 365.4C248.539 350.756 243.224 337.155 230.444 308.005L226.264 298.503C213.995 270.591 208.787 257.636 204.713 243.523L204.181 241.658L206.102 241.119L206.376 242.081C210.244 255.686 215.07 267.949 226.203 293.397L231.864 306.275C244.85 335.862 250.283 349.676 254.085 364.438L254.486 366.027C259.653 386.937 258.02 401.431 248.017 409.824C238.326 417.948 224.331 417.334 205.574 409.357Z" fill="#99A2BD"/>
<path fill-rule="evenodd" clip-rule="evenodd" d="M-41.6372 180.006C-31.2465 184.835 12.5738 192.266 38.4781 219.624C63.8221 246.389 27.9005 273.945 27.7641 324.181C27.5925 387.343 -33.5682 380.412 -57.3571 377.89C-81.146 375.369 -86.533 355.138 -84.73 291.932C-82.9271 228.726 -87.5243 158.679 -41.6372 180.006Z" fill="url(#paint1_linear)"/>
<path fill-rule="evenodd" clip-rule="evenodd" d="M394.137 295.626C400.721 305.004 434.955 333.35 443.71 369.994C452.276 405.846 407.389 411.749 382.153 455.187C350.423 509.801 300.922 473.218 281.581 459.14C262.24 445.062 267.69 424.848 300.854 371.011C334.019 317.174 365.061 254.213 394.137 295.626Z" fill="#FD574C"/>
<path opacity="0.493164" fill-rule="evenodd" clip-rule="evenodd" d="M114.27 518.906L113.236 516.061C112.877 516.116 112.542 516.293 112.289 516.594C111.739 517.249 111.823 518.222 112.479 518.772C112.998 519.208 113.717 519.237 114.27 518.906ZM110.601 509.189C110.639 509.144 110.664 509.096 110.695 509.05L109.843 506.702C109.275 506.543 108.638 506.715 108.231 507.2C107.681 507.855 107.763 508.83 108.419 509.381C109.072 509.929 110.051 509.844 110.601 509.189ZM100.648 506.825C101.199 506.168 101.113 505.185 100.457 504.635C99.8036 504.086 98.8273 504.177 98.2756 504.835C97.7257 505.49 97.8095 506.463 98.4629 507.011C99.1187 507.561 100.098 507.481 100.648 506.825ZM86.6295 495.063C87.1812 494.405 87.1013 493.428 86.4456 492.878C85.7898 492.328 84.8136 492.418 84.2618 493.076C83.712 493.731 83.7958 494.704 84.4515 495.254C85.1072 495.804 86.0797 495.718 86.6295 495.063ZM102.483 490.404C103.035 489.746 102.948 488.767 102.293 488.217C101.639 487.669 100.665 487.758 100.113 488.415C99.5633 489.07 99.6451 490.045 100.299 490.594C100.954 491.144 101.933 491.059 102.483 490.404ZM112.824 535C113.375 534.342 113.289 533.368 112.634 532.818C111.978 532.267 111.008 532.356 110.456 533.013C109.904 533.671 109.984 534.644 110.639 535.194C111.295 535.744 112.272 535.657 112.824 535ZM92.5252 488.037C93.0769 487.379 92.9969 486.402 92.3412 485.852C91.6855 485.301 90.7092 485.392 90.1575 486.05C89.6095 486.703 89.6895 487.68 90.3452 488.23C91.0009 488.781 91.9772 488.69 92.5252 488.037ZM96.5874 497.43C97.1391 496.772 97.0546 495.791 96.3989 495.241C95.7455 494.693 94.7692 494.784 94.2175 495.441C93.6676 496.097 93.7495 497.072 94.403 497.62C95.0587 498.17 96.0376 498.085 96.5874 497.43ZM120.301 535.538C119.881 536.184 119.993 537.054 120.595 537.559C120.761 537.698 120.946 537.796 121.14 537.856L120.301 535.538ZM94.754 513.849C95.3038 513.194 95.2152 512.213 94.5595 511.663C93.906 511.115 92.9316 511.204 92.3818 511.859C91.8301 512.516 91.912 513.491 92.5654 514.04C93.2211 514.59 94.2023 514.507 94.754 513.849ZM80.7358 502.087C81.2856 501.431 81.2037 500.456 80.548 499.906C79.8923 499.356 78.9179 499.445 78.3681 500.1C77.8164 500.757 77.8982 501.732 78.5539 502.283C79.2096 502.833 80.1841 502.744 80.7358 502.087ZM88.4648 478.641C89.0166 477.984 88.9369 477.01 88.2812 476.46C87.6255 475.91 86.6466 475.995 86.0949 476.652C85.5451 477.308 85.6314 478.286 86.2871 478.837C86.9428 479.387 87.915 479.296 88.4648 478.641ZM90.6917 504.456C91.2435 503.799 91.1552 502.822 90.4995 502.272C89.8461 501.723 88.8735 501.81 88.3218 502.467C87.7701 503.125 87.8539 504.098 88.5073 504.646C89.163 505.196 90.14 505.114 90.6917 504.456ZM76.6736 492.693C77.2253 492.036 77.1437 491.065 76.488 490.515C75.8323 489.965 74.8553 490.047 74.3036 490.705C73.7519 491.362 73.8401 492.339 74.4958 492.889C75.1515 493.439 76.1218 493.351 76.6736 492.693ZM108.765 525.606C109.315 524.951 109.229 523.972 108.575 523.424C107.92 522.874 106.945 522.962 106.396 523.618C105.844 524.275 105.926 525.25 106.581 525.8C107.235 526.349 108.214 526.264 108.765 525.606ZM116.721 525.67C116.587 525.756 116.463 525.855 116.351 525.987C115.8 526.645 115.881 527.615 116.537 528.166C116.886 528.459 117.329 528.567 117.748 528.505L116.721 525.67ZM104.705 516.215C105.257 515.557 105.169 514.581 104.515 514.033C103.86 513.482 102.887 513.569 102.336 514.226C101.784 514.884 101.868 515.857 102.523 516.407C103.177 516.955 104.154 516.872 104.705 516.215ZM82.5692 485.667C83.1209 485.01 83.0432 484.034 82.3875 483.484C81.7317 482.934 80.751 483.021 80.1993 483.679C79.6494 484.334 79.7358 485.313 80.3915 485.863C81.0472 486.413 82.0194 486.322 82.5692 485.667ZM41.2997 534.85C41.8495 534.195 41.7699 533.222 41.1142 532.672C40.4585 532.121 39.4796 532.206 38.9298 532.862C38.3781 533.519 38.4644 534.498 39.1201 535.048C39.7758 535.598 40.748 535.508 41.2997 534.85ZM65.2739 548.982C65.8237 548.327 65.7351 547.346 65.0794 546.796C64.426 546.248 63.4515 546.337 62.9017 546.992C62.3519 547.647 62.4319 548.624 63.0853 549.173C63.741 549.723 64.724 549.638 65.2739 548.982ZM51.2557 537.22C51.8055 536.564 51.7236 535.589 51.0679 535.039C50.4122 534.489 49.4378 534.578 48.888 535.233C48.3382 535.888 48.4181 536.865 49.0738 537.416C49.7295 537.966 50.7058 537.875 51.2557 537.22ZM72.8573 549.357C72.3998 549.902 72.3864 550.664 72.7646 551.222L74.9418 551.599C75.0437 551.528 75.1425 551.447 75.2273 551.346C75.7771 550.69 75.6907 549.712 75.0373 549.163C74.3816 548.613 73.4072 548.702 72.8573 549.357ZM37.2442 525.463C37.794 524.807 37.7099 523.83 37.0542 523.28C36.5708 522.875 35.9222 522.816 35.3877 523.071L34.5686 524.047C34.4101 524.618 34.5767 525.251 35.0601 525.657C35.7158 526.207 36.6944 526.118 37.2442 525.463ZM98.4227 481.008C98.9725 480.353 98.8925 479.376 98.2368 478.825C97.5811 478.275 96.6048 478.366 96.055 479.021C95.5052 479.677 95.587 480.652 96.2427 481.202C96.8984 481.752 97.8729 481.663 98.4227 481.008ZM45.36 544.246C45.9099 543.591 45.828 542.616 45.1723 542.065C44.5166 541.515 43.5422 541.604 42.9923 542.259C42.4406 542.917 42.5225 543.892 43.1782 544.442C43.8339 544.992 44.8083 544.903 45.36 544.246ZM55.3179 546.613C55.8677 545.958 55.7814 544.979 55.1257 544.429C54.4722 543.88 53.4978 543.969 52.948 544.624C52.3962 545.282 52.4781 546.257 53.1316 546.805C53.7873 547.355 54.7662 547.27 55.3179 546.613ZM35.4041 541.876C35.9539 541.221 35.8743 540.248 35.2186 539.698C34.5628 539.148 33.584 539.233 33.0341 539.888C32.4824 540.545 32.5688 541.524 33.2245 542.074C33.8802 542.624 34.8523 542.534 35.4041 541.876ZM43.1398 518.436C43.6916 517.779 43.6056 516.804 42.9499 516.254C42.4665 515.849 41.8178 515.79 41.2815 516.047L40.4624 517.023C40.3058 517.592 40.4724 518.225 40.9558 518.631C41.6115 519.181 42.59 519.092 43.1398 518.436ZM94.3605 471.615C94.9122 470.957 94.8326 469.984 94.1769 469.434C93.5211 468.884 92.5423 468.969 91.9905 469.626C91.4407 470.282 91.5271 471.26 92.1828 471.811C92.8385 472.361 93.8106 472.27 94.3605 471.615ZM84.4112 469.251C84.9611 468.596 84.8788 467.617 84.2231 467.067C83.7397 466.661 83.0873 466.607 82.5528 466.862L81.7337 467.838C81.5771 468.407 81.7456 469.037 82.229 469.443C82.8847 469.993 83.8614 469.906 84.4112 469.251ZM72.6181 483.306C73.1698 482.648 73.0875 481.669 72.4318 481.119C71.9484 480.713 71.296 480.659 70.7616 480.914L69.9443 481.888C69.784 482.461 69.9544 483.09 70.4377 483.495C71.0934 484.046 72.0682 483.961 72.6181 483.306ZM78.5137 476.28C79.0654 475.622 78.9832 474.643 78.3275 474.093C77.8441 473.687 77.1916 473.633 76.6572 473.888L75.8381 474.864C75.6796 475.435 75.8481 476.066 76.3315 476.471C76.9872 477.022 77.9657 476.933 78.5137 476.28ZM49.0355 511.41C49.5872 510.753 49.5031 509.776 48.8474 509.226C48.364 508.82 47.7134 508.764 47.1771 509.021L46.3599 509.995C46.2014 510.566 46.3699 511.197 46.8533 511.602C47.509 512.152 48.4857 512.066 49.0355 511.41ZM54.9311 504.384C55.4828 503.727 55.3987 502.75 54.743 502.2C54.2596 501.794 53.6091 501.738 53.0746 501.993L52.2574 502.967C52.097 503.54 52.2655 504.17 52.7489 504.576C53.4046 505.126 54.3813 505.039 54.9311 504.384ZM66.7243 490.33C67.2741 489.674 67.19 488.697 66.5343 488.147C66.0509 487.742 65.3985 487.687 64.8659 487.94L64.0468 488.917C63.8883 489.487 64.0568 490.118 64.5402 490.524C65.1959 491.074 66.1726 490.987 66.7243 490.33ZM60.8287 497.356C61.3785 496.7 61.2944 495.724 60.6387 495.173C60.1553 494.768 59.5047 494.711 58.9684 494.969L58.1512 495.943C57.9927 496.513 58.1612 497.144 58.6446 497.55C59.3003 498.1 60.2769 498.013 60.8287 497.356ZM31.3486 532.489C31.8984 531.833 31.8143 530.857 31.1586 530.306C30.6752 529.901 30.0246 529.844 29.4921 530.097L28.673 531.073C28.5145 531.644 28.6811 532.277 29.1645 532.683C29.8202 533.233 30.7968 533.146 31.3486 532.489ZM92.7689 554.092C92.6202 554.269 92.5204 554.461 92.4636 554.669L95.495 555.201C95.5284 554.721 95.345 554.23 94.9466 553.896C94.2909 553.346 93.3206 553.434 92.7689 554.092ZM77.0652 534.93C77.6169 534.272 77.5283 533.292 76.8726 532.742C76.2191 532.193 75.2447 532.282 74.693 532.94C74.1432 533.595 74.225 534.57 74.8785 535.118C75.5342 535.668 76.5153 535.585 77.0652 534.93ZM81.1229 544.32C81.6746 543.662 81.5864 542.686 80.9329 542.137C80.2772 541.587 79.3047 541.673 78.753 542.331C78.2013 542.988 78.2831 543.963 78.9388 544.514C79.5923 545.062 80.5712 544.977 81.1229 544.32ZM102.72 556.457L102.715 556.464L105.358 556.927C105.266 556.678 105.122 556.445 104.902 556.261C104.251 555.715 103.272 555.8 102.72 556.457ZM73.0048 525.534C73.5565 524.877 73.4702 523.898 72.8145 523.348C72.161 522.8 71.1866 522.888 70.6349 523.546C70.0832 524.203 70.1669 525.176 70.8204 525.724C71.4761 526.275 72.4531 526.192 73.0048 525.534ZM53.091 520.798C53.6427 520.14 53.5612 519.17 52.9055 518.619C52.2498 518.069 51.2728 518.152 50.7211 518.809C50.1693 519.467 50.2557 520.446 50.9114 520.996C51.5671 521.546 52.5393 521.455 53.091 520.798ZM98.8098 523.241C99.3615 522.584 99.2733 521.607 98.6198 521.059C97.9641 520.509 96.9916 520.595 96.4399 521.252C95.8882 521.91 95.9701 522.885 96.6258 523.435C97.2792 523.984 98.2581 523.899 98.8098 523.241ZM63.047 523.167C63.5987 522.51 63.5168 521.535 62.8611 520.985C62.2054 520.434 61.231 520.523 60.6793 521.181C60.1294 521.836 60.2113 522.811 60.867 523.361C61.5227 523.911 62.4971 523.823 63.047 523.167ZM57.1513 530.193C57.703 529.536 57.6193 528.563 56.9636 528.013C56.3079 527.463 55.3353 527.549 54.7836 528.207C54.2338 528.862 54.3138 529.839 54.9695 530.389C55.6252 530.94 56.6015 530.849 57.1513 530.193ZM61.2135 539.587C61.7634 538.932 61.677 537.953 61.0213 537.403C60.3679 536.854 59.3934 536.943 58.8436 537.598C58.2919 538.256 58.3719 539.233 59.0253 539.781C59.681 540.331 60.6618 540.244 61.2135 539.587ZM106.543 499.799C106.858 499.424 106.956 498.944 106.866 498.502L106.703 498.041C106.613 497.88 106.5 497.733 106.353 497.609C105.699 497.06 104.723 497.151 104.171 497.809C103.623 498.462 103.703 499.439 104.357 499.987C105.012 500.538 105.995 500.452 106.543 499.799ZM90.305 462.227C90.8567 461.57 90.7745 460.591 90.1188 460.04C89.6354 459.635 88.9829 459.581 88.4485 459.836L87.6313 460.81C87.4728 461.38 87.6413 462.011 88.1247 462.417C88.7804 462.967 89.7551 462.883 90.305 462.227ZM67.1092 532.561C67.6609 531.903 67.5727 530.927 66.917 530.376C66.2635 529.828 65.291 529.915 64.7392 530.572C64.1875 531.23 64.2694 532.205 64.9229 532.753C65.5786 533.303 66.5575 533.218 67.1092 532.561ZM25.4548 539.513C26.0046 538.857 25.9186 537.883 25.2629 537.333C24.7795 536.927 24.129 536.871 23.5945 537.126L22.7773 538.1C22.6188 538.67 22.7855 539.303 23.2688 539.709C23.9245 540.259 24.9031 540.17 25.4548 539.513ZM82.8111 551.725C82.5211 552.07 82.4131 552.503 82.4657 552.922L85.3703 553.428C85.6958 552.795 85.5572 552.006 84.991 551.531C84.3353 550.981 83.3628 551.067 82.8111 551.725ZM71.1695 541.956C71.7212 541.299 71.6308 540.32 70.9751 539.77C70.3216 539.222 69.3491 539.308 68.7973 539.966C68.2475 540.621 68.3275 541.598 68.981 542.147C69.6367 542.697 70.6197 542.611 71.1695 541.956ZM47.1953 527.824C47.7452 527.169 47.6655 526.196 47.0098 525.646C46.3541 525.095 45.3752 525.18 44.8254 525.836C44.2737 526.493 44.3582 527.474 45.0139 528.024C45.6696 528.574 46.6436 528.482 47.1953 527.824ZM58.9866 513.772C59.5383 513.114 59.4587 512.141 58.803 511.591C58.1473 511.041 57.1684 511.126 56.6167 511.783C56.065 512.441 56.1532 513.417 56.8089 513.967C57.4646 514.518 58.4349 514.429 58.9866 513.772ZM91.0766 546.687C91.6284 546.03 91.542 545.051 90.8885 544.502C90.2328 543.952 89.2584 544.041 88.7067 544.698C88.1569 545.354 88.2387 546.329 88.8945 546.879C89.5479 547.427 90.5268 547.342 91.0766 546.687ZM74.8401 509.113C75.39 508.458 75.3081 507.483 74.6524 506.932C73.9967 506.382 73.0223 506.471 72.4724 507.126C71.9207 507.784 72.0026 508.759 72.6583 509.309C73.314 509.859 74.2884 509.77 74.8401 509.113ZM88.8583 520.875C89.4082 520.22 89.3196 519.24 88.6639 518.689C88.0104 518.141 87.036 518.23 86.4862 518.885C85.9344 519.542 86.0163 520.517 86.6698 521.066C87.3255 521.616 88.3066 521.533 88.8583 520.875ZM128.263 560.181C128.815 559.523 128.73 558.546 128.075 557.996C127.421 557.448 126.445 557.535 125.893 558.192C125.343 558.847 125.427 559.824 126.081 560.373C126.736 560.923 127.713 560.836 128.263 560.181ZM120.942 553.785C121.493 553.128 121.409 552.151 120.754 551.6C120.102 551.054 119.123 551.139 118.572 551.796C118.02 552.454 118.106 553.433 118.758 553.979C119.413 554.529 120.39 554.443 120.942 553.785ZM102.87 532.632C103.42 531.977 103.333 530.998 102.68 530.45C102.024 529.9 101.05 529.989 100.5 530.644C99.9482 531.301 100.03 532.276 100.686 532.827C101.339 533.375 102.318 533.29 102.87 532.632ZM70.7779 499.72C71.3296 499.062 71.2481 498.091 70.5924 497.541C69.9367 496.991 68.9597 497.073 68.408 497.731C67.8563 498.388 67.9426 499.367 68.5983 499.917C69.254 500.468 70.2262 500.377 70.7779 499.72ZM84.7961 511.482C85.3478 510.825 85.2596 509.848 84.6039 509.298C83.9504 508.75 82.9779 508.836 82.4262 509.494C81.8745 510.151 81.9563 511.126 82.6098 511.674C83.2655 512.225 84.2444 512.14 84.7961 511.482ZM116.106 545.318C116.757 544.542 116.756 543.466 116.1 542.916C115.449 542.369 114.387 542.553 113.736 543.33C113.084 544.106 113.09 545.181 113.741 545.728C114.397 546.278 115.454 546.095 116.106 545.318ZM106.928 542.026C107.48 541.369 107.396 540.392 106.74 539.842C106.084 539.291 105.112 539.382 104.56 540.039C104.008 540.697 104.088 541.67 104.744 542.22C105.4 542.77 106.376 542.684 106.928 542.026ZM101.032 549.052C101.584 548.395 101.5 547.418 100.844 546.868C100.188 546.317 99.2163 546.408 98.6646 547.066C98.1129 547.723 98.1944 548.694 98.8501 549.244C99.5058 549.794 100.481 549.71 101.032 549.052ZM92.9142 530.267C93.4659 529.61 93.3796 528.631 92.7261 528.083C92.0704 527.532 91.096 527.621 90.5443 528.279C89.9925 528.936 90.0744 529.911 90.7301 530.461C91.3836 531.01 92.3625 530.925 92.9142 530.267ZM82.9608 527.904C83.5125 527.246 83.4239 526.266 82.7682 525.715C82.1148 525.167 81.1403 525.256 80.5886 525.913C80.0388 526.569 80.1207 527.544 80.7741 528.092C81.4298 528.642 82.411 528.559 82.9608 527.904ZM113.413 558.336L114.779 558.575C114.375 558.275 113.87 558.199 113.413 558.336ZM87.0185 537.293C87.5703 536.636 87.4839 535.657 86.8304 535.109C86.1747 534.559 85.2003 534.647 84.6486 535.305C84.0969 535.962 84.1807 536.935 84.8364 537.485C85.4898 538.034 86.4668 537.951 87.0185 537.293ZM96.9723 539.661C97.524 539.003 97.4377 538.025 96.7842 537.476C96.1285 536.926 95.1541 537.015 94.6024 537.672C94.0525 538.328 94.1344 539.303 94.7901 539.853C95.4436 540.401 96.4225 540.316 96.9723 539.661ZM64.8823 506.746C65.434 506.088 65.3543 505.115 64.6986 504.565C64.0429 504.015 63.0641 504.1 62.5123 504.757C61.9606 505.415 62.047 506.393 62.7027 506.944C63.3584 507.494 64.3306 507.403 64.8823 506.746ZM78.9005 518.508C79.4522 517.851 79.3658 516.872 78.7101 516.322C78.0567 515.774 77.0822 515.862 76.5305 516.52C75.9788 517.177 76.0607 518.152 76.7142 518.701C77.3699 519.251 78.3487 519.166 78.9005 518.508ZM68.9426 516.141C69.4943 515.484 69.4124 514.509 68.7567 513.958C68.101 513.408 67.1266 513.497 66.5749 514.154C66.0251 514.81 66.1069 515.785 66.7627 516.335C67.4184 516.885 68.3928 516.796 68.9426 516.141ZM110.986 551.42C111.538 550.762 111.454 549.785 110.798 549.235C110.147 548.689 109.168 548.774 108.616 549.431C108.066 550.086 108.153 551.065 108.804 551.612C109.46 552.162 110.436 552.075 110.986 551.42Z" fill="#819CB6"/>
</g>
<path fill-rule="evenodd" clip-rule="evenodd" d="M108 441.5C108 445.642 104.642 449 100.499 449C96.358 449 93 445.642 93 441.5C93 437.359 96.358 434 100.499 434C104.642 434 108 437.359 108 441.5ZM193 458C194.656 458 196 456.658 196 455C196 453.342 194.656 452 193 452C191.342 452 190 453.342 190 455C190 456.658 191.342 458 193 458ZM144.499 493C148.09 493 151 490.089 151 486.5C151 482.91 148.09 480 144.499 480C140.91 480 138 482.91 138 486.5C138 490.089 140.91 493 144.499 493ZM193 504.501C193 505.328 192.328 506 191.501 506C190.672 506 190 505.328 190 504.501C190 503.672 190.672 503 191.501 503C192.328 503 193 503.672 193 504.501ZM205.501 482C206.881 482 208 480.881 208 479.499C208 478.119 206.881 477 205.501 477C204.119 477 203 478.119 203 479.499C203 480.881 204.119 482 205.501 482ZM182 482.5C182 483.879 180.88 485 179.501 485C178.12 485 177 483.879 177 482.5C177 481.121 178.12 480 179.501 480C180.88 480 182 481.121 182 482.5ZM170.001 525C171.658 525 173 523.658 173 521.999C173 520.342 171.658 519 170.001 519C168.344 519 167 520.342 167 521.999C167 523.658 168.344 525 170.001 525ZM149 530.501C149 531.881 147.881 533 146.5 533C145.119 533 144 531.881 144 530.501C144 529.121 145.119 528 146.5 528C147.881 528 149 529.121 149 530.501ZM223 506C225.761 506 228 503.76 228 500.999C228 498.239 225.761 496 223 496C220.239 496 218 498.239 218 500.999C218 503.76 220.239 506 223 506ZM196 539C196 540.105 195.105 541 194 541C192.896 541 192 540.105 192 539C192 537.895 192.896 537 194 537C195.105 537 196 537.895 196 539ZM165.5 470C167.433 470 169 468.433 169 466.501C169 464.568 167.433 463 165.5 463C163.567 463 162 464.568 162 466.501C162 468.433 163.567 470 165.5 470ZM86.5 520C88.4325 520 90 518.434 90 516.499C90 514.566 88.4325 513 86.5 513C84.5675 513 83 514.566 83 516.499C83 518.434 84.5675 520 86.5 520Z" fill="white"/>
<path fill-rule="evenodd" clip-rule="evenodd" d="M129.354 277.607C129.354 277.607 132.762 281.233 133.636 282.151C134.51 283.068 134.991 283.331 135.208 283.331C135.427 283.331 135.667 283.112 135.383 282.555C135.07 281.94 133.975 280.502 134.073 280.469C134.327 280.384 134.646 280.587 135.22 280.786C135.853 281.004 136.738 281.616 137.349 282.14C137.961 282.665 138.649 283.331 139.01 283.331C139.217 283.331 139.927 282.893 139.491 281.976C139.053 281.058 138.092 278.393 136.826 277.607C135.558 276.821 132.631 276.646 131.888 276.296C131.146 275.947 129.878 274.986 129.878 274.986L128.568 276.777L129.354 277.607Z" fill="#D2BDA7"/>
<path fill-rule="evenodd" clip-rule="evenodd" d="M68.5194 388.573C68.4204 388.391 68.3464 388.147 68.2914 387.871C68.2724 387.18 68.2884 386.145 68.4014 384.635C68.6634 381.14 69.7114 370.655 69.7114 370.655L61.5854 370.218C61.5854 370.218 63.6824 386.645 63.6824 388.131V389.162C63.4214 389.422 63.1524 389.673 62.8764 389.905C60.6054 391.828 56.6234 398.06 56.3334 399.542C56.0834 400.82 56.3574 401.266 56.9194 401.738C57.3484 402.098 58.6024 401.949 59.3154 401.506C60.1894 400.963 68.2864 393.467 68.9134 392.767C69.5404 392.068 69.8004 391.545 69.6844 390.903C69.5684 390.262 69.0434 389.535 68.5194 388.573Z" fill="#D2BDA7"/>
<path fill-rule="evenodd" clip-rule="evenodd" d="M69.6844 390.904C69.5684 390.263 69.0434 389.536 68.5194 388.574C68.4654 388.475 68.4204 388.355 68.3804 388.224C66.9084 389.873 64.2194 391.813 60.9134 393.472C60.3734 393.743 59.8394 393.99 59.3114 394.225C57.7964 396.428 56.4944 398.719 56.3334 399.543C56.0834 400.821 56.3574 401.267 56.9194 401.739C57.3484 402.099 58.6024 401.95 59.3154 401.507C60.1894 400.964 68.2864 393.467 68.9134 392.768C69.5394 392.069 69.8004 391.546 69.6844 390.904Z" fill="#2253AA"/>
<path fill-rule="evenodd" clip-rule="evenodd" d="M149.657 383.802C149.394 381.531 149.045 378.21 148.172 376.725C147.622 375.79 145.933 375.34 144.755 375.135C143.937 374.361 142.653 373.005 141.9 371.5C140.735 369.17 135.26 358.102 135.26 358.102L128.851 364.51L141.619 377.509L141.618 377.511C141.618 377.511 142.754 379.957 144.064 383.982C145.375 388.006 147.618 392.336 148.346 392.89C148.752 393.198 150.094 393.006 150.181 392.016C150.26 391.128 149.919 386.074 149.657 383.802Z" fill="#D2BDA7"/>
<path fill-rule="evenodd" clip-rule="evenodd" d="M149.657 383.802C149.394 381.531 149.045 378.21 148.172 376.725C147.635 375.812 146.011 375.363 144.838 375.151C145.543 376.609 146.067 379.035 146.186 381.807C146.292 384.251 146.058 386.454 145.607 387.98C146.71 390.484 147.862 392.522 148.346 392.89C148.752 393.198 150.094 393.006 150.181 392.016C150.26 391.128 149.919 386.074 149.657 383.802Z" fill="#2253AA"/>
<path fill-rule="evenodd" clip-rule="evenodd" d="M77.9774 242.08C77.9774 242.08 82.1134 237.478 82.6964 236.488C83.2784 235.498 82.9284 233.459 82.6964 232.643C82.4624 231.828 81.4724 228.799 81.7064 226.702C81.9384 224.604 82.6964 223.207 83.4534 222.508C84.2104 221.809 85.8994 220.877 87.2974 220.469C88.6964 220.061 90.0934 218.779 91.4334 218.313C92.7734 217.848 94.8714 217.673 95.7444 217.905C96.6184 218.139 97.8414 218.604 98.9484 220.003C100.054 221.4 99.9974 221.983 100.171 222.974C100.346 223.964 100.462 227.575 100.171 228.565C99.8794 229.557 99.9974 231.245 100.113 231.887C100.229 232.527 101.278 233.983 102.559 234.391L103.841 234.799C103.841 234.799 112.229 234.74 113.744 234.857C115.258 234.974 117.531 235.73 118.579 237.245C119.627 238.76 120.035 239.168 120.501 240.391C120.967 241.614 121.2 243.944 121.258 244.993C121.317 246.042 121.142 247.905 120.676 249.013C120.209 250.119 118.987 251.634 118.229 252.449C117.472 253.265 113.802 256.527 113.802 256.527L77.9774 242.08Z" fill="url(#paint2_linear)"/>
<path fill-rule="evenodd" clip-rule="evenodd" d="M86.744 230.888C86.744 230.888 86.569 233.117 85.958 234.994C85.347 236.873 83.468 240.063 83.468 240.063C83.468 240.063 84.516 241.723 85.106 242.029C85.696 242.334 88.754 242.553 88.754 242.553L90.327 241.942L90.851 240.849C90.851 240.849 90.589 238.621 90.589 237.573C90.589 236.524 90.633 233.378 90.633 233.378L86.744 230.888Z" fill="#D2BDA7"/>
<path fill-rule="evenodd" clip-rule="evenodd" d="M90.2176 222.521C88.1386 222.521 86.4056 224.716 86.0186 227.625C85.8106 227.532 85.5926 227.499 85.3806 227.544C84.7206 227.686 84.3896 228.465 84.6416 229.634C84.8846 230.767 85.8496 231.576 86.5106 231.496C87.5036 233.783 89.6126 235.474 91.3526 235.474C93.7166 235.474 94.7826 231.788 94.7826 228.29C94.7826 224.791 92.5826 222.521 90.2176 222.521Z" fill="#F4E4D4"/>
<path fill-rule="evenodd" clip-rule="evenodd" d="M117.098 318.252C114.082 309.676 108.571 289.008 107.982 286.547C107.393 284.086 106.804 281.2 106.804 281.2H87.1655V281.208L69.0755 281.625C69.0755 281.625 64.1105 295.796 61.7535 307.336C59.3985 318.877 58.5855 333.044 58.5565 342.976C58.5215 354.943 60.6595 371.487 60.6595 371.487H71.0105C71.0105 371.487 74.7645 346.285 75.3535 342.467C75.9425 338.648 79.4935 327.447 81.3455 321.592C82.8835 316.728 86.3135 308.439 87.8895 304.436C89.2315 308.877 91.1205 316.049 95.7695 324.404C100.346 332.629 106.604 340.26 112.662 347.643C118.721 355.025 128.744 365.489 128.744 365.489L136.813 359.607C136.813 359.607 118.887 323.339 117.098 318.252Z" fill="url(#paint3_linear)"/>
<path fill-rule="evenodd" clip-rule="evenodd" d="M44.6953 247.133C44.6953 247.133 42.9133 245.866 41.3833 244.483C39.8153 243.064 39.8793 242.299 40.1493 240.838C40.4433 239.253 40.7963 238.309 40.9693 237.871C41.4713 236.604 42.1413 236.939 42.4033 237.696C42.5573 238.141 43.4963 241.279 43.8453 241.628C44.1943 241.978 44.7183 242.111 44.7183 242.111C44.7183 242.111 45.0223 239.426 45.0393 239.269C45.0833 238.862 45.4623 238.687 45.7673 239.051C46.1563 239.513 46.5683 243.013 46.6563 243.566C46.7473 244.141 47.2093 245.866 47.2093 245.866L45.1753 247.92L44.6953 247.133Z" fill="#D2BDA7"/>
<path fill-rule="evenodd" clip-rule="evenodd" d="M88.044 238.835C86.558 238.853 85.059 238.964 83.557 239.158C80.865 239.504 78.047 240.321 75.693 241.689C70.684 244.602 65.907 250.427 64.16 251.359C62.412 252.291 59.732 251.883 58.334 251.358C56.644 250.725 55.061 249.381 53.584 248.373C51.955 247.262 48.375 244.861 47.684 245.315C46.734 245.94 44.942 246.775 43.835 247.511C42.695 248.269 47.732 258.65 48.767 260.17C51.708 264.49 55.805 267.168 60.956 267.961C63.228 268.311 65.849 268.048 67.684 267.437C69.087 266.969 70.898 266.194 71.674 265.856C71.85 265.779 72.041 265.916 72.03 266.107L71.703 272.242C70.612 279.332 62.748 281.866 69.759 286.801C70.725 287.48 72.002 284.826 73.189 284.563C73.976 284.388 75.023 284.476 75.636 284.825C76.247 285.175 80.354 287.01 81.228 287.097C82.102 287.185 84.111 286.485 84.723 286.048C85.334 285.611 86.995 284.65 88.83 284.825C90.664 285 91.801 286.223 93.198 286.572C94.597 286.922 95.994 286.835 96.868 286.311C98.748 285.183 101.727 284.286 103.627 285.714C105.477 287.105 110.545 283.701 108.535 280.817C106.607 278.052 104.293 266.316 104.089 264.067C104.065 263.801 104.354 263.627 104.577 263.772C108.072 266.057 127.246 278.57 127.801 278.533C128.767 278.47 131.815 275.484 132.708 274.59C132.85 274.447 132.857 274.228 132.724 274.076C130.655 271.728 115.402 254.403 114.344 253.019C111.565 249.386 107.502 246.202 103.849 243.519C99.169 240.08 93.703 238.77 88.044 238.835Z" fill="#FD574C"/>
<path fill-rule="evenodd" clip-rule="evenodd" d="M250.132 364.583C251.004 363.19 251.992 361.825 252.804 360.403C253.426 359.313 253.775 358.442 254.367 357.332C254.683 356.741 255.077 355.804 255.561 355.972C255.889 356.086 255.636 357.09 255.56 357.475C255.482 357.87 255.502 358.77 255.502 358.77C255.648 358.721 256.123 358.174 256.6 357.788C257.056 357.419 257.53 357.071 258.031 356.765C258.443 356.513 259.031 356.12 259.524 356.075C259.93 356.039 260.085 356.428 260.212 356.758C260.343 357.1 260.26 358.086 260.178 358.502C260.063 359.088 259.609 360.825 258.942 361.327C258.46 361.689 255.1 363.004 254.867 363.125C254.634 363.247 253.841 364.551 253.841 364.551L253.19 365.225L250.333 365.11C250.333 365.11 250.054 364.708 250.132 364.583Z" fill="#D2BDA7"/>
<path fill-rule="evenodd" clip-rule="evenodd" d="M255.587 534.369C254.998 533.058 252.242 530.263 251.813 529.913C251.79 529.894 251.755 529.871 251.717 529.847C251.172 527.572 250.583 525.112 250.262 523.777C249.564 520.864 248.631 517.369 248.631 517.369C248.631 517.369 239.701 518.36 241.059 519.816C243.957 522.926 247.112 530.488 247.112 530.488C247.052 531.086 246.551 533.489 246.844 534.632C247.295 536.391 248.542 538.115 249.458 539.639C250.687 541.68 252.026 543.947 253.916 545.386C254.738 546.012 255.938 546.231 256.269 544.973C257.19 541.486 257.077 537.689 255.587 534.369Z" fill="#D2BDA7"/>
<path fill-rule="evenodd" clip-rule="evenodd" d="M255.587 534.368C254.998 533.057 252.242 530.262 251.813 529.912C251.749 529.86 251.813 529.912 251.701 529.778C251.8 530.107 251.754 530.314 251.903 530.637C253.972 535.103 255.257 537.467 254.074 538.014C252.893 538.562 250.257 537.086 248.189 532.619C247.887 531.968 247.334 531.326 247.092 530.702C247.016 531.524 246.578 533.594 246.844 534.631C247.295 536.39 248.542 538.114 249.458 539.638C250.687 541.679 252.026 543.946 253.916 545.385C254.738 546.011 255.938 546.23 256.269 544.972C257.19 541.485 257.077 537.688 255.587 534.368Z" fill="#2253AA"/>
<path fill-rule="evenodd" clip-rule="evenodd" d="M212.083 537.175C211.778 535.905 211.372 533.959 211.336 532.481C211.277 530.092 211.002 522.636 211.002 522.636L202.54 523.626C202.54 523.626 206.269 532.83 207.092 535.976C207.134 536.136 207.168 536.548 207.195 537.017L207.146 537.059C207.146 537.059 202.865 538.108 201.379 538.806C199.894 539.505 197.447 540.99 196.486 542.214C195.525 543.438 195.612 544.311 195.962 544.835C196.312 545.36 197.709 545.534 198.496 545.36C199.282 545.185 204.525 543.787 206.186 543.263C207.846 542.738 210.292 542.564 211.341 542.301C212.389 542.039 212.477 541.69 212.563 540.117C212.638 538.791 212.218 537.539 212.083 537.175Z" fill="#D2BDA7"/>
<path fill-rule="evenodd" clip-rule="evenodd" d="M212.065 537.125C211.403 538.297 208.55 539.179 205.131 539.179C203.766 539.179 202.496 539.035 201.415 538.792C201.404 538.797 201.389 538.802 201.378 538.807C199.893 539.506 197.447 540.991 196.486 542.215C195.525 543.438 195.612 544.312 195.961 544.836C196.311 545.36 197.71 545.535 198.496 545.36C199.282 545.186 204.525 543.788 206.185 543.264C207.845 542.739 210.292 542.564 211.34 542.302C212.388 542.04 212.476 541.69 212.563 540.118C212.64 538.736 212.178 537.425 212.065 537.125Z" fill="#2253AA"/>
<path fill-rule="evenodd" clip-rule="evenodd" d="M222.087 367.182C222.213 364.386 220.048 362.017 217.252 361.891C214.456 361.765 212.087 363.929 211.961 366.725C211.932 367.375 212.037 367.998 212.234 368.58C209.614 368.7 207.608 369.891 206.792 372.239C205.675 375.452 207.659 381.363 211.352 382.647C215.043 383.93 219.019 380.667 220.136 377.453C220.786 375.584 220.076 373.276 218.872 371.664C220.677 370.954 221.993 369.244 222.087 367.182Z" fill="url(#paint4_linear)"/>
<path fill-rule="evenodd" clip-rule="evenodd" d="M211.219 382.459C211.219 382.459 211.626 385.662 211.219 387.294C210.811 388.925 210.52 392.012 210.52 392.012C210.52 392.012 212.5 392.361 212.734 392.42C212.966 392.479 217.394 391.605 217.394 391.605L217.976 389.624C217.976 389.624 216.636 387.41 216.52 386.827C216.404 386.245 215.704 383.974 215.53 382.459C215.355 380.944 215.18 379.196 215.18 379.196L211.219 382.459Z" fill="#D2BDA7"/>
<path fill-rule="evenodd" clip-rule="evenodd" d="M216.059 376.062C215.705 375.909 215.353 376.093 215.021 376.494C214.611 373.442 212.961 371.158 210.986 371.158C208.702 371.158 206.567 373.643 206.567 377.407C206.567 381.17 207.568 384.79 209.852 384.79C211.599 384.79 213.75 383.002 214.669 380.48C215.268 380.592 216.081 379.665 216.545 378.594C217.038 377.458 216.664 376.325 216.059 376.062Z" fill="#F4E4D4"/>
<path fill-rule="evenodd" clip-rule="evenodd" d="M177.527 363.275C176.775 361.813 175.904 360.37 175.215 358.886C174.687 357.747 174.413 356.85 173.916 355.694C173.65 355.079 173.336 354.112 172.84 354.239C172.504 354.325 172.672 355.346 172.715 355.736C172.759 356.136 172.664 357.031 172.664 357.031C172.522 356.97 172.094 356.385 171.652 355.961C171.229 355.554 170.785 355.169 170.311 354.821C169.923 354.536 169.369 354.095 168.882 354.009C168.48 353.938 168.293 354.313 168.139 354.631C167.98 354.962 167.98 355.951 168.027 356.372C168.092 356.965 168.399 358.735 169.021 359.291C169.471 359.693 172.709 361.284 172.931 361.425C173.153 361.566 173.835 362.931 173.835 362.931L174.426 363.657L177.282 363.783C177.282 363.783 177.594 363.406 177.527 363.275Z" fill="#D2BDA7"/>
<path fill-rule="evenodd" clip-rule="evenodd" d="M212.942 390.602L211.777 389.963C211.777 389.963 204.088 389.498 201.292 388.449C198.496 387.4 193.952 383.789 190.457 378.663C186.962 373.536 178.922 361.885 178.922 361.885L172.681 363.901C172.681 363.901 174.182 372.48 175.878 379.012C177.916 386.862 182.056 393.961 184.166 399.4C186.379 405.109 190.689 419.206 191.388 422.468C192.088 425.73 193.602 432.604 193.893 433.419C194.184 434.235 195.117 434.964 195.932 435.05C196.41 435.101 197.679 435.05 197.679 435.05C197.679 435.05 198.029 430.274 198.496 429.341C198.962 428.41 202.107 427.594 203.854 427.594C205.602 427.594 224.709 425.963 225.757 425.963C226.806 425.963 232.398 425.614 233.097 426.196C233.796 426.779 234.962 428.759 234.962 430.04V432.604C234.962 432.604 237.874 431.789 239.272 431.089C240.67 430.39 243.233 429.109 243.349 426.663C243.466 424.215 244.165 412.681 245.097 408.837C246.029 404.993 249.99 391.944 250.806 388.565C251.622 385.186 253.652 379.695 254.585 375.384C255.516 371.074 255.932 364.915 255.932 364.915L248.876 362.701C248.876 362.701 247.474 365.971 246.379 368.06C244.099 372.41 239.703 379.197 236.557 382.274C233.907 384.867 230.184 386.185 227.854 386.883C225.524 387.582 218.534 388.565 218.534 388.565L217.29 389.902C216.171 391.103 214.38 391.391 212.942 390.602Z" fill="#0090D6"/>
<path fill-rule="evenodd" clip-rule="evenodd" d="M199.727 427.264C198.736 427.792 197.887 428.56 197.687 429.533C196.522 435.184 192.761 453.764 192.021 458.357C191.147 463.775 190.273 473.036 190.273 477.231C190.273 481.425 191.671 492.435 192.895 497.852C194.118 503.27 201.807 524.59 201.807 524.59L202.236 525.762L212.118 524.59C212.118 524.59 211.943 505.367 212.118 499.076C212.292 492.785 214.43 467.372 214.608 465.304C214.827 462.77 216.312 456.435 216.312 456.435C216.312 456.435 217.71 460.454 218.933 464.124C220.157 467.794 226.306 492.688 231.439 503.678C233.26 507.577 240.013 521.27 240.013 521.27L250.214 518.648C250.214 518.648 245.322 480.027 244.797 476.706C244.273 473.386 237.108 438.959 236.409 436.338C235.71 433.716 234.279 427.31 232.848 426.003C232.3 425.504 220.244 423.838 208.797 425.154C207.082 425.35 202.025 426.04 199.727 427.264Z" fill="url(#paint5_linear)"/>
<defs>
<linearGradient id="paint0_linear" x1="-22.2525" y1="-110.917" x2="120.482" y2="269.04" gradientUnits="userSpaceOnUse">
<stop stop-color="#FB2059"/>
<stop offset="0.520756" stop-color="#8138E9"/>
<stop offset="1" stop-color="#12CAF9"/>
</linearGradient>
<linearGradient id="paint1_linear" x1="71.5567" y1="343.844" x2="60.7668" y2="142.54" gradientUnits="userSpaceOnUse">
<stop stop-color="#4649CD"/>
<stop offset="1" stop-color="#0090D6"/>
</linearGradient>
<linearGradient id="paint2_linear" x1="127.892" y1="231.968" x2="97.9287" y2="199.43" gradientUnits="userSpaceOnUse">
<stop stop-color="#4649CD"/>
<stop offset="1" stop-color="#0090D6"/>
</linearGradient>
<linearGradient id="paint3_linear" x1="135.733" y1="416.631" x2="233.295" y2="249.84" gradientUnits="userSpaceOnUse">
<stop stop-color="#FB2059"/>
<stop offset="0.520756" stop-color="#8138E9"/>
<stop offset="1" stop-color="#12CAF9"/>
</linearGradient>
<linearGradient id="paint4_linear" x1="224.48" y1="369.585" x2="208.98" y2="358.418" gradientUnits="userSpaceOnUse">
<stop stop-color="#4649CD"/>
<stop offset="1" stop-color="#0090D6"/>
</linearGradient>
<linearGradient id="paint5_linear" x1="249.387" y1="576.314" x2="373.207" y2="431.522" gradientUnits="userSpaceOnUse">
<stop stop-color="#FB2059"/>
<stop offset="0.520756" stop-color="#8138E9"/>
<stop offset="1" stop-color="#12CAF9"/>
</linearGradient>
</defs>
</svg>
