<svg width="930" height="476" viewBox="0 0 930 476" fill="none" xmlns="http://www.w3.org/2000/svg">
<path fill-rule="evenodd" clip-rule="evenodd" d="M1010.81 736.438C1022.66 725.211 1281.4 744.59 1220.88 589.751C1113.59 315.243 1261.2 151.643 1191.91 111.102C1135.15 77.894 969.008 188.083 901.856 140.221C834.703 92.3601 761.353 229.511 658.123 258.431C554.893 287.352 441.685 324.253 364.586 428.442C309.689 502.628 426.86 542.569 284.89 619.388C230.647 648.739 179.701 471.9 168.266 533.017C151.525 622.498 46.8059 617.218 46.8059 617.218C46.8059 617.218 358.948 851.799 446.27 891.054C533.589 930.3 562.221 984.774 562.221 984.774L1010.81 736.438Z" fill="white"/>
<path fill-rule="evenodd" clip-rule="evenodd" d="M944.444 258.339L940.415 248.209C939.145 248.357 937.972 248.939 937.11 249.966C935.233 252.203 935.651 255.634 938.053 257.649C939.954 259.245 942.517 259.437 944.444 258.339ZM931.612 223.543C931.752 223.376 931.845 223.2 931.962 223.028L929.054 214.536C927.011 213.998 924.693 214.675 923.186 216.472C921.147 218.901 921.371 222.448 923.702 224.404C926.026 226.354 929.574 225.972 931.612 223.543ZM896.445 214.742C898.401 212.41 898.09 208.922 895.761 206.968C893.44 205.02 889.975 205.34 888.019 207.671C886.069 209.994 886.369 213.447 888.691 215.394C891.02 217.349 894.495 217.065 896.445 214.742ZM845.445 172.742C847.401 170.41 847.111 166.939 844.777 164.981C842.443 163.023 838.975 163.34 837.019 165.671C835.069 167.995 835.373 171.45 837.706 173.408C840.04 175.366 843.495 175.065 845.445 172.742ZM902.452 156.734C904.408 154.402 904.097 150.927 901.765 148.971C899.442 147.022 895.981 147.332 894.025 149.663C892.076 151.987 892.371 155.448 894.694 157.398C897.026 159.354 900.502 159.057 902.452 156.734ZM939.458 315.726C941.415 313.394 941.103 309.933 938.769 307.975C936.436 306.016 932.988 306.324 931.032 308.655C929.076 310.987 929.365 314.443 931.698 316.401C934.032 318.359 937.502 318.057 939.458 315.726ZM867.448 147.738C869.403 145.409 869.111 141.939 866.777 139.981C864.443 138.023 860.976 138.338 859.022 140.667C857.081 142.98 857.373 146.45 859.706 148.408C862.04 150.366 865.507 150.051 867.448 147.738ZM881.448 181.738C883.403 179.409 883.097 175.927 880.765 173.971C878.442 172.022 874.976 172.338 873.022 174.667C871.074 176.988 871.371 180.448 873.694 182.398C876.026 184.354 879.501 184.059 881.448 181.738ZM966.437 317.571C965.004 319.776 965.393 322.752 967.453 324.481C968.02 324.957 968.653 325.292 969.317 325.496L966.437 317.571ZM874.458 239.726C876.408 237.402 876.09 233.922 873.761 231.968C871.44 230.02 867.981 230.332 866.032 232.655C864.076 234.987 864.369 238.447 866.691 240.394C869.02 242.349 872.502 242.057 874.458 239.726ZM824.458 197.726C826.408 195.402 826.111 191.939 823.777 189.981C821.443 188.023 817.981 188.332 816.032 190.655C814.076 192.987 814.373 196.45 816.706 198.408C819.04 200.366 822.502 200.057 824.458 197.726ZM852.452 114.734C854.408 112.402 854.12 108.948 851.789 106.991C849.458 105.035 845.981 105.332 844.025 107.663C842.076 109.987 842.387 113.461 844.718 115.418C847.05 117.374 850.502 117.057 852.452 114.734ZM860.455 206.73C862.413 204.396 862.097 200.927 859.765 198.971C857.442 197.022 853.987 197.325 852.029 199.659C850.07 201.993 850.371 205.448 852.694 207.398C855.026 209.354 858.497 209.063 860.455 206.73ZM810.455 164.73C812.413 162.396 812.12 158.948 809.789 156.991C807.458 155.035 803.987 155.326 802.029 157.659C800.07 159.993 800.387 163.461 802.718 165.418C805.05 167.374 808.497 167.063 810.455 164.73ZM924.458 281.726C926.408 279.402 926.097 275.927 923.773 273.978C921.442 272.022 917.981 272.332 916.032 274.655C914.076 276.987 914.371 280.448 916.702 282.404C919.026 284.354 922.502 284.057 924.458 281.726ZM953.652 282.257C953.195 282.552 952.77 282.888 952.391 283.34C950.508 285.584 950.791 288.903 953.035 290.786C954.23 291.789 955.746 292.16 957.176 291.95L953.652 282.257ZM910.455 248.73C912.413 246.396 912.097 242.927 909.773 240.978C907.442 239.022 903.987 239.325 902.029 241.659C900.07 243.993 900.371 247.448 902.702 249.404C905.026 251.354 908.497 251.063 910.455 248.73ZM831.448 139.738C833.403 137.409 833.12 133.948 830.789 131.991C828.458 130.035 824.976 130.338 823.022 132.667C821.074 134.988 821.387 138.461 823.718 140.418C826.05 142.374 829.501 142.059 831.448 139.738ZM684.458 314.726C686.408 312.402 686.12 308.947 683.789 306.991C681.458 305.035 677.981 305.332 676.032 307.655C674.076 309.987 674.387 313.461 676.718 315.418C679.05 317.374 682.502 317.057 684.458 314.726ZM769.458 364.726C771.408 362.402 771.09 358.922 768.761 356.968C766.44 355.02 762.981 355.332 761.032 357.655C759.082 359.979 759.369 363.447 761.691 365.394C764.02 367.349 767.509 367.049 769.458 364.726ZM719.458 323.726C721.408 321.402 721.111 317.939 718.777 315.981C716.443 314.023 712.981 314.332 711.032 316.655C709.082 318.979 709.373 322.45 711.706 324.408C714.04 326.366 717.509 326.049 719.458 323.726ZM796.957 366.744C795.3 368.719 795.228 371.455 796.565 373.45L804.353 374.736C804.72 374.477 805.077 374.181 805.383 373.815C807.374 371.442 807.097 367.927 804.773 365.978C802.442 364.022 798.948 364.372 796.957 366.744ZM669.458 281.726C671.408 279.402 671.019 275.862 668.582 273.817C666.785 272.31 664.415 272.043 662.487 272.92L659.583 276.382C659.053 278.432 659.714 280.736 661.511 282.244C663.948 284.289 667.509 284.049 669.458 281.726ZM888.452 122.734C890.401 120.41 890.111 116.939 887.777 114.981C885.443 113.023 881.975 113.34 880.025 115.663C878.076 117.987 878.373 121.45 880.706 123.408C883.04 125.366 886.502 125.057 888.452 122.734ZM698.458 348.726C700.408 346.402 700.111 342.939 697.777 340.981C695.443 339.023 691.981 339.332 690.032 341.655C688.076 343.987 688.373 347.45 690.706 349.408C693.04 351.366 696.502 351.057 698.458 348.726ZM734.458 356.726C736.408 354.402 736.097 350.927 733.765 348.971C731.442 347.022 727.981 347.332 726.032 349.655C724.076 351.987 724.371 355.448 726.694 357.398C729.026 359.354 732.502 359.057 734.458 356.726ZM663.458 339.726C665.408 337.402 665.12 333.947 662.789 331.991C660.458 330.035 656.981 330.332 655.032 332.655C653.076 334.987 653.387 338.461 655.718 340.418C658.05 342.374 661.502 342.057 663.458 339.726ZM690.458 256.726C692.415 254.394 692.019 250.862 689.582 248.817C687.785 247.31 685.415 247.043 683.481 247.928L680.576 251.39C680.053 253.432 680.714 255.736 682.511 257.244C684.948 259.289 688.509 259.049 690.458 256.726ZM873.452 88.7338C875.408 86.4023 875.12 82.9475 872.789 80.9912C870.458 79.0349 866.981 79.3317 865.025 81.6631C863.076 83.9865 863.387 87.4614 865.718 89.4177C868.05 91.374 871.502 91.0572 873.452 88.7338ZM838.452 80.7338C840.401 78.4103 840.019 74.8623 837.582 72.8172C835.785 71.3095 833.401 71.0586 831.474 71.9364L828.57 75.3977C828.047 77.4402 828.714 79.736 830.511 81.2437C832.948 83.2888 836.502 83.0572 838.452 80.7338ZM796.445 130.742C798.401 128.41 798.019 124.862 795.582 122.817C793.785 121.31 791.401 121.059 789.474 121.936L786.576 125.39C786.04 127.448 786.714 129.736 788.511 131.244C790.948 133.289 794.495 133.065 796.445 130.742ZM817.448 105.738C819.403 103.409 819.019 99.8623 816.582 97.8172C814.785 96.3095 812.402 96.0577 810.476 96.9341L807.574 100.392C807.046 102.441 807.714 104.736 809.511 106.244C811.948 108.289 815.507 108.051 817.448 105.738ZM712.452 231.734C714.408 229.402 714.019 225.862 711.582 223.817C709.785 222.31 707.408 222.051 705.474 222.936L702.576 226.39C702.047 228.44 702.714 230.736 704.511 232.244C706.948 234.289 710.502 234.057 712.452 231.734ZM733.452 206.734C735.408 204.402 735.019 200.862 732.582 198.817C730.785 197.31 728.408 197.051 726.481 197.928L723.583 201.382C723.047 203.44 723.714 205.736 725.511 207.244C727.948 209.289 731.502 209.057 733.452 206.734ZM775.458 155.726C777.408 153.402 777.019 149.862 774.582 147.817C772.785 146.31 770.401 146.059 768.481 146.928L765.576 150.39C765.047 152.44 765.714 154.736 767.511 156.244C769.948 158.289 773.502 158.057 775.458 155.726ZM754.458 180.726C756.408 178.402 756.019 174.862 753.582 172.817C751.785 171.31 749.408 171.051 747.474 171.936L744.576 175.39C744.047 177.44 744.714 179.736 746.511 181.244C748.948 183.289 752.502 183.057 754.458 180.726ZM648.458 306.726C650.408 304.402 650.019 300.862 647.582 298.817C645.785 297.31 643.408 297.051 641.487 297.92L638.583 301.382C638.053 303.432 638.714 305.736 640.511 307.244C642.948 309.289 646.502 309.057 648.458 306.726ZM868.069 383.803C867.561 384.409 867.221 385.063 867.028 385.776L877.395 387.608C877.507 385.966 876.878 384.289 875.514 383.145C873.27 381.262 869.952 381.559 868.069 383.803ZM811.452 314.734C813.408 312.402 813.09 308.922 810.761 306.968C808.44 305.02 804.981 305.332 803.025 307.663C801.076 309.987 801.369 313.447 803.691 315.394C806.02 317.349 809.502 317.057 811.452 314.734ZM826.458 348.726C828.415 346.394 828.097 342.927 825.773 340.978C823.442 339.022 819.988 339.324 818.032 341.655C816.076 343.987 816.371 347.448 818.702 349.404C821.026 351.354 824.502 351.057 826.458 348.726ZM904.003 392.158L903.984 392.181L913.024 393.775C912.708 392.922 912.213 392.128 911.462 391.498C909.233 389.628 905.886 389.913 904.003 392.158ZM797.452 281.734C799.408 279.402 799.097 275.927 796.765 273.971C794.442 272.022 790.981 272.332 789.025 274.663C787.069 276.994 787.371 280.448 789.694 282.398C792.026 284.354 795.495 284.065 797.452 281.734ZM726.458 264.726C728.415 262.394 728.12 258.948 725.789 256.991C723.458 255.035 719.988 255.324 718.032 257.655C716.076 259.987 716.387 263.461 718.718 265.418C721.05 267.374 724.502 267.057 726.458 264.726ZM889.458 273.726C891.415 271.394 891.097 267.927 888.773 265.978C886.442 264.022 882.988 264.324 881.032 266.655C879.076 268.987 879.371 272.448 881.702 274.404C884.026 276.354 887.502 276.057 889.458 273.726ZM761.452 272.734C763.408 270.402 763.111 266.939 760.777 264.981C758.443 263.023 754.981 263.332 753.025 265.663C751.076 267.987 751.373 271.45 753.706 273.408C756.04 275.366 759.502 275.057 761.452 272.734ZM740.458 297.726C742.415 295.394 742.111 291.939 739.777 289.981C737.443 288.023 733.988 288.324 732.032 290.655C730.082 292.979 730.373 296.45 732.706 298.408C735.04 300.366 738.509 300.049 740.458 297.726ZM755.462 331.722C757.409 329.401 757.097 325.927 754.765 323.971C752.442 322.022 748.983 322.33 747.035 324.651C745.081 326.98 745.371 330.448 747.694 332.398C750.026 334.354 753.507 334.051 755.462 331.722ZM917.448 189.738C918.562 188.41 918.907 186.708 918.585 185.138L918.008 183.501C917.685 182.933 917.286 182.408 916.761 181.968C914.44 180.02 910.976 180.338 909.022 182.667C907.081 184.98 907.369 188.447 909.691 190.394C912.02 192.349 915.507 192.051 917.448 189.738ZM859.445 55.7417C861.401 53.4103 861.019 49.8623 858.582 47.8172C856.785 46.3095 854.401 46.0586 852.474 46.9364L849.576 50.3898C849.047 52.4402 849.714 54.736 851.511 56.2437C853.948 58.2888 857.495 58.0652 859.445 55.7417ZM776.458 306.726C778.415 304.394 778.097 300.927 775.765 298.971C773.442 297.022 769.988 297.324 768.032 299.655C766.076 301.987 766.371 305.448 768.694 307.398C771.026 309.354 774.502 309.057 776.458 306.726ZM627.465 331.718C629.415 329.394 629.019 325.862 626.582 323.817C624.785 322.31 622.408 322.051 620.481 322.928L617.583 326.382C617.053 328.432 617.714 330.736 619.511 332.244C621.948 334.289 625.509 334.049 627.465 331.718ZM832.079 375.195C831.089 376.375 830.748 377.877 830.972 379.345L841.251 381.377C842.339 379.197 841.779 376.429 839.74 374.719C837.38 372.738 833.962 372.951 832.079 375.195ZM790.458 339.726C792.415 337.394 792.09 333.922 789.761 331.968C787.44 330.02 783.988 330.324 782.032 332.655C780.082 334.979 780.369 338.447 782.691 340.394C785.02 342.349 788.509 342.049 790.458 339.726ZM705.462 289.722C707.409 287.401 707.12 283.947 704.789 281.991C702.458 280.035 698.983 280.33 697.035 282.651C695.081 284.98 695.387 288.461 697.718 290.418C700.05 292.374 703.507 292.051 705.462 289.722ZM747.452 239.734C749.408 237.402 749.12 233.948 746.789 231.991C744.458 230.035 740.981 230.332 739.025 232.663C737.069 234.995 737.387 238.461 739.718 240.418C742.05 242.374 745.495 242.065 747.452 239.734ZM861.452 356.734C863.408 354.402 863.097 350.927 860.773 348.978C858.442 347.022 854.981 347.332 853.025 349.663C851.076 351.987 851.371 355.448 853.702 357.404C856.026 359.354 859.502 359.057 861.452 356.734ZM803.458 222.726C805.408 220.402 805.111 216.939 802.777 214.981C800.443 213.023 796.981 213.332 795.032 215.655C793.076 217.987 793.373 221.45 795.706 223.408C798.04 225.366 801.502 225.057 803.458 222.726ZM853.458 264.726C855.408 262.402 855.09 258.922 852.761 256.968C850.44 255.02 846.981 255.332 845.032 257.655C843.076 259.987 843.369 263.447 845.691 265.394C848.02 267.349 851.502 267.057 853.458 264.726ZM994.452 404.734C996.408 402.402 996.105 398.934 993.773 396.978C991.45 395.028 987.981 395.332 986.025 397.663C984.076 399.987 984.379 403.455 986.702 405.404C989.034 407.361 992.502 407.057 994.452 404.734ZM968.455 382.73C970.409 380.401 970.105 376.934 967.773 374.978C965.458 373.035 961.983 373.33 960.029 375.659C958.074 377.988 958.387 381.461 960.702 383.404C963.034 385.361 966.501 385.059 968.455 382.73ZM903.458 306.726C905.408 304.402 905.097 300.927 902.773 298.978C900.442 297.022 896.981 297.332 895.032 299.655C893.076 301.987 893.371 305.448 895.702 307.404C898.026 309.354 901.502 309.057 903.458 306.726ZM789.458 189.726C791.415 187.394 791.12 183.948 788.789 181.991C786.458 180.035 782.988 180.324 781.032 182.655C779.076 184.987 779.387 188.461 781.718 190.418C784.05 192.374 787.502 192.057 789.458 189.726ZM839.458 231.726C841.415 229.394 841.097 225.927 838.765 223.971C836.442 222.022 832.988 222.324 831.032 224.655C829.076 226.987 829.371 230.448 831.694 232.398C834.026 234.354 837.502 234.057 839.458 231.726ZM951.452 351.734C953.759 348.984 953.747 345.168 951.416 343.212C949.1 341.269 945.333 341.913 943.025 344.663C940.718 347.413 940.744 351.227 943.06 353.17C945.391 355.127 949.144 354.484 951.452 351.734ZM918.455 340.73C920.409 338.401 920.103 334.933 917.769 332.975C915.436 331.016 911.983 331.33 910.029 333.659C908.074 335.988 908.365 339.443 910.698 341.401C913.032 343.359 916.501 343.059 918.455 340.73ZM897.452 365.734C899.408 363.402 899.103 359.933 896.769 357.975C894.436 356.016 890.981 356.332 889.025 358.663C887.069 360.995 887.365 364.443 889.698 366.401C892.032 368.359 895.495 368.065 897.452 365.734ZM868.455 298.73C870.409 296.401 870.097 292.927 867.773 290.978C865.442 289.022 861.983 289.33 860.029 291.659C858.074 293.988 858.371 297.448 860.702 299.404C863.026 301.354 866.501 301.059 868.455 298.73ZM832.452 289.734C834.408 287.402 834.09 283.922 831.761 281.968C829.44 280.02 825.981 280.332 824.025 282.663C822.076 284.987 822.369 288.447 824.691 290.394C827.02 292.349 830.502 292.057 832.452 289.734ZM941.406 398.281L946.078 399.108C944.696 398.079 942.969 397.818 941.406 398.281ZM847.452 323.734C849.408 321.402 849.097 317.927 846.773 315.978C844.442 314.022 840.981 314.332 839.025 316.663C837.069 318.994 837.371 322.448 839.702 324.404C842.026 326.354 845.495 326.065 847.452 323.734ZM882.452 331.734C884.408 329.402 884.097 325.927 881.773 323.978C879.442 322.022 875.981 322.332 874.025 324.663C872.076 326.987 872.371 330.448 874.702 332.404C877.026 334.354 880.502 334.057 882.452 331.734ZM768.455 214.73C770.409 212.401 770.12 208.948 767.789 206.991C765.458 205.035 761.983 205.33 760.029 207.659C758.074 209.988 758.387 213.461 760.718 215.418C763.05 217.374 766.501 217.059 768.455 214.73ZM818.455 256.73C820.409 254.401 820.097 250.927 817.765 248.971C815.442 247.022 811.983 247.33 810.029 249.659C808.074 251.988 808.371 255.448 810.694 257.398C813.026 259.354 816.501 259.059 818.455 256.73ZM782.452 247.734C784.408 245.402 784.111 241.939 781.777 239.981C779.443 238.023 775.981 238.332 774.025 240.663C772.076 242.987 772.373 246.45 774.706 248.408C777.04 250.366 780.502 250.057 782.452 247.734ZM932.452 373.734C934.408 371.402 934.105 367.934 931.773 365.978C929.458 364.035 925.981 364.332 924.025 366.663C922.076 368.987 922.387 372.461 924.702 374.404C927.034 376.361 930.502 376.057 932.452 373.734Z" fill="#FD574C"/>
</svg>
