<svg width="300" height="600" viewBox="0 0 300 600" fill="none" xmlns="http://www.w3.org/2000/svg">
<mask id="mask0" mask-type="alpha" maskUnits="userSpaceOnUse" x="0" y="0" width="300" height="600">
<rect width="300" height="600" fill="white"/>
</mask>
<g mask="url(#mask0)">
<path fill-rule="evenodd" clip-rule="evenodd" d="M290.062 -62.5852C285.232 -52.1945 275.058 -10.0579 247.701 15.8464C220.935 41.1904 205.422 13.0513 149.079 11.4441C85.8921 9.6417 109.392 -29.5385 110.143 -79.1714C110.893 -128.804 114.929 -107.481 178.135 -105.678C241.341 -103.875 311.389 -108.472 290.062 -62.5852Z" fill="#0090D6"/>
<path opacity="0.500372" fill-rule="evenodd" clip-rule="evenodd" d="M-125.454 477.561C-116.155 469.758 -102.316 470.583 -83.2509 478.972L-82.6597 479.234C-68.5623 485.518 -56.0031 493.144 -28.6534 511.32L-17.067 519.03C5.79672 534.188 16.9241 540.994 29.6138 547.186C48.1801 556.246 62.3699 559.073 73.0193 554.735L73.946 554.358L73.1936 552.506L72.2669 552.883C62.4032 556.902 48.9155 554.285 31.1305 545.698L29.2529 544.779C16.7494 538.585 5.31352 531.501 -18.2691 515.83L-28.4183 509.074C-55.2655 491.247 -67.7588 483.685 -81.8428 477.408C-101.838 468.496 -116.602 467.524 -126.739 476.03L-127.505 476.673L-126.221 478.204L-125.454 477.561ZM68.7595 464.227L70.5982 463.445L68.486 458.5C67.5957 456.43 66.6586 454.271 65.5113 451.646L58.9769 436.745C46.1225 407.335 40.8618 393.785 37.1524 378.981C32.0014 358.424 33.5084 344.46 42.8719 336.586C50.5043 330.182 61.2259 329.609 75.3425 334.249C87.3469 338.195 101.303 345.633 119.875 357.446L120.718 357.982L121.79 356.296L120.947 355.76C102.245 343.865 88.1672 336.362 75.9663 332.351C61.259 327.516 49.8453 328.126 41.5868 335.056C31.483 343.553 29.8973 358.246 35.2144 379.467L35.5779 380.894C39.3454 395.456 44.7702 409.26 57.5534 438.476L65.261 456.074C66.2378 458.324 67.086 460.296 67.9686 462.367L68.7595 464.227ZM205.574 409.357L204.653 408.966L205.428 407.126L206.932 407.764C224.773 415.243 237.851 415.733 246.73 408.289C256.094 400.432 257.581 386.461 252.391 365.873L252.271 365.4C248.539 350.756 243.224 337.155 230.444 308.005L226.264 298.503C213.995 270.591 208.787 257.636 204.713 243.523L204.181 241.658L206.102 241.119L206.376 242.081C210.244 255.686 215.07 267.949 226.203 293.397L231.864 306.275C244.85 335.862 250.283 349.676 254.085 364.438L254.486 366.027C259.653 386.937 258.02 401.431 248.017 409.824C238.326 417.948 224.331 417.334 205.574 409.357Z" fill="#99A2BD"/>
<path fill-rule="evenodd" clip-rule="evenodd" d="M-41.6372 170.005C-31.2465 174.835 12.5738 182.266 38.478 209.623C63.822 236.389 27.9005 263.944 27.764 314.181C27.5924 377.343 -33.5683 370.411 -57.3572 367.89C-81.1461 365.369 -86.5331 345.138 -84.7301 281.932C-82.9272 218.726 -87.5244 148.678 -41.6372 170.005Z" fill="#2253AA"/>
<path fill-rule="evenodd" clip-rule="evenodd" d="M394.137 295.626C400.721 305.004 434.955 333.35 443.71 369.994C452.276 405.846 407.389 411.749 382.153 455.186C350.423 509.8 300.922 473.217 281.581 459.139C262.24 445.061 267.69 424.848 300.854 371.011C334.019 317.174 365.061 254.213 394.137 295.626Z" fill="#FD574C"/>
<path opacity="0.493164" fill-rule="evenodd" clip-rule="evenodd" d="M114.27 518.906L113.236 516.061C112.877 516.116 112.542 516.293 112.289 516.594C111.739 517.249 111.823 518.222 112.479 518.772C112.998 519.208 113.717 519.237 114.27 518.906ZM110.601 509.189C110.639 509.144 110.664 509.096 110.695 509.05L109.843 506.702C109.275 506.543 108.638 506.715 108.231 507.2C107.681 507.855 107.763 508.83 108.419 509.381C109.072 509.929 110.051 509.844 110.601 509.189ZM100.648 506.825C101.199 506.168 101.113 505.185 100.457 504.635C99.8036 504.086 98.8273 504.177 98.2756 504.835C97.7257 505.49 97.8095 506.463 98.4629 507.011C99.1187 507.561 100.098 507.481 100.648 506.825ZM86.6295 495.063C87.1812 494.405 87.1013 493.428 86.4456 492.878C85.7898 492.328 84.8136 492.418 84.2618 493.076C83.712 493.731 83.7958 494.704 84.4515 495.254C85.1072 495.804 86.0797 495.718 86.6295 495.063ZM102.483 490.404C103.035 489.746 102.948 488.767 102.293 488.217C101.639 487.669 100.665 487.758 100.113 488.415C99.5633 489.07 99.6451 490.045 100.299 490.594C100.954 491.144 101.933 491.059 102.483 490.404ZM112.824 535C113.375 534.342 113.289 533.368 112.634 532.818C111.978 532.267 111.008 532.356 110.456 533.013C109.904 533.671 109.984 534.644 110.639 535.194C111.295 535.744 112.272 535.657 112.824 535ZM92.5252 488.037C93.0769 487.379 92.9969 486.402 92.3412 485.852C91.6855 485.301 90.7092 485.392 90.1575 486.05C89.6095 486.703 89.6895 487.68 90.3452 488.23C91.0009 488.781 91.9772 488.69 92.5252 488.037ZM96.5874 497.43C97.1391 496.772 97.0546 495.791 96.3989 495.241C95.7455 494.693 94.7692 494.784 94.2175 495.441C93.6676 496.097 93.7495 497.072 94.403 497.62C95.0587 498.17 96.0376 498.085 96.5874 497.43ZM120.301 535.538C119.881 536.184 119.993 537.054 120.595 537.559C120.761 537.698 120.946 537.796 121.14 537.856L120.301 535.538ZM94.754 513.849C95.3038 513.194 95.2152 512.213 94.5595 511.663C93.906 511.115 92.9316 511.204 92.3818 511.859C91.8301 512.516 91.912 513.491 92.5654 514.04C93.2211 514.59 94.2023 514.507 94.754 513.849ZM80.7358 502.087C81.2856 501.431 81.2037 500.456 80.548 499.906C79.8923 499.356 78.9179 499.445 78.3681 500.1C77.8164 500.757 77.8982 501.732 78.5539 502.283C79.2096 502.833 80.1841 502.744 80.7358 502.087ZM88.4648 478.641C89.0166 477.984 88.9369 477.01 88.2812 476.46C87.6255 475.91 86.6466 475.995 86.0949 476.652C85.5451 477.308 85.6314 478.286 86.2871 478.837C86.9428 479.387 87.915 479.296 88.4648 478.641ZM90.6917 504.456C91.2435 503.799 91.1552 502.822 90.4995 502.272C89.8461 501.723 88.8735 501.81 88.3218 502.467C87.7701 503.125 87.8539 504.098 88.5073 504.646C89.163 505.196 90.14 505.114 90.6917 504.456ZM76.6736 492.693C77.2253 492.036 77.1437 491.065 76.488 490.515C75.8323 489.965 74.8553 490.047 74.3036 490.705C73.7519 491.362 73.8401 492.339 74.4958 492.889C75.1515 493.439 76.1218 493.351 76.6736 492.693ZM108.765 525.606C109.315 524.951 109.229 523.972 108.575 523.424C107.92 522.874 106.945 522.962 106.396 523.618C105.844 524.275 105.926 525.25 106.581 525.8C107.235 526.349 108.214 526.264 108.765 525.606ZM116.721 525.67C116.587 525.756 116.463 525.855 116.351 525.987C115.8 526.645 115.881 527.615 116.537 528.166C116.886 528.459 117.329 528.567 117.748 528.505L116.721 525.67ZM104.705 516.215C105.257 515.557 105.169 514.581 104.515 514.033C103.86 513.482 102.887 513.569 102.336 514.226C101.784 514.884 101.868 515.857 102.523 516.407C103.177 516.955 104.154 516.872 104.705 516.215ZM82.5692 485.667C83.1209 485.01 83.0432 484.034 82.3875 483.484C81.7317 482.934 80.751 483.021 80.1993 483.679C79.6494 484.334 79.7358 485.313 80.3915 485.863C81.0472 486.413 82.0194 486.322 82.5692 485.667ZM41.2997 534.85C41.8495 534.195 41.7699 533.222 41.1142 532.672C40.4585 532.121 39.4796 532.206 38.9298 532.862C38.3781 533.519 38.4644 534.498 39.1201 535.048C39.7758 535.598 40.748 535.508 41.2997 534.85ZM65.2739 548.982C65.8237 548.327 65.7351 547.346 65.0794 546.796C64.426 546.248 63.4515 546.337 62.9017 546.992C62.3519 547.647 62.4319 548.624 63.0853 549.173C63.741 549.723 64.724 549.638 65.2739 548.982ZM51.2557 537.22C51.8055 536.564 51.7236 535.589 51.0679 535.039C50.4122 534.489 49.4378 534.578 48.888 535.233C48.3382 535.888 48.4181 536.865 49.0738 537.416C49.7295 537.966 50.7058 537.875 51.2557 537.22ZM72.8573 549.357C72.3998 549.902 72.3864 550.664 72.7646 551.222L74.9418 551.599C75.0437 551.528 75.1425 551.447 75.2273 551.346C75.7771 550.69 75.6907 549.712 75.0373 549.163C74.3816 548.613 73.4072 548.702 72.8573 549.357ZM37.2442 525.463C37.794 524.807 37.7099 523.83 37.0542 523.28C36.5708 522.875 35.9222 522.816 35.3877 523.071L34.5686 524.047C34.4101 524.618 34.5767 525.251 35.0601 525.657C35.7158 526.207 36.6944 526.118 37.2442 525.463ZM98.4227 481.008C98.9725 480.353 98.8925 479.376 98.2368 478.825C97.5811 478.275 96.6048 478.366 96.055 479.021C95.5052 479.677 95.587 480.652 96.2427 481.202C96.8985 481.752 97.8729 481.663 98.4227 481.008ZM45.36 544.246C45.9099 543.591 45.828 542.616 45.1723 542.065C44.5166 541.515 43.5422 541.604 42.9923 542.259C42.4406 542.917 42.5225 543.892 43.1782 544.442C43.8339 544.992 44.8083 544.903 45.36 544.246ZM55.3179 546.613C55.8677 545.958 55.7814 544.979 55.1257 544.429C54.4722 543.88 53.4978 543.969 52.948 544.624C52.3962 545.282 52.4781 546.257 53.1316 546.805C53.7873 547.355 54.7662 547.27 55.3179 546.613ZM35.4041 541.876C35.9539 541.221 35.8743 540.248 35.2186 539.698C34.5628 539.148 33.584 539.233 33.0341 539.888C32.4824 540.545 32.5688 541.524 33.2245 542.074C33.8802 542.624 34.8523 542.534 35.4041 541.876ZM43.1398 518.436C43.6916 517.779 43.6056 516.804 42.9499 516.254C42.4665 515.849 41.8178 515.79 41.2815 516.047L40.4624 517.023C40.3058 517.592 40.4724 518.225 40.9558 518.631C41.6115 519.181 42.59 519.092 43.1398 518.436ZM94.3605 471.615C94.9122 470.957 94.8326 469.984 94.1769 469.434C93.5211 468.884 92.5423 468.969 91.9905 469.626C91.4407 470.282 91.5271 471.26 92.1828 471.811C92.8385 472.361 93.8106 472.27 94.3605 471.615ZM84.4112 469.251C84.9611 468.596 84.8788 467.617 84.2231 467.067C83.7397 466.661 83.0873 466.607 82.5528 466.862L81.7337 467.838C81.5771 468.407 81.7456 469.037 82.229 469.443C82.8847 469.993 83.8614 469.906 84.4112 469.251ZM72.6181 483.306C73.1698 482.648 73.0875 481.669 72.4318 481.119C71.9484 480.713 71.296 480.659 70.7615 480.914L69.9443 481.888C69.784 482.461 69.9544 483.09 70.4377 483.495C71.0934 484.046 72.0682 483.961 72.6181 483.306ZM78.5137 476.28C79.0654 475.622 78.9832 474.643 78.3275 474.093C77.8441 473.687 77.1916 473.633 76.6572 473.888L75.8381 474.864C75.6796 475.435 75.8481 476.066 76.3315 476.471C76.9872 477.022 77.9657 476.933 78.5137 476.28ZM49.0355 511.41C49.5872 510.753 49.5031 509.776 48.8474 509.226C48.364 508.82 47.7134 508.764 47.1771 509.021L46.3599 509.995C46.2014 510.566 46.3699 511.197 46.8533 511.602C47.509 512.152 48.4857 512.066 49.0355 511.41ZM54.9311 504.384C55.4828 503.727 55.3987 502.75 54.743 502.2C54.2596 501.794 53.6091 501.738 53.0746 501.993L52.2574 502.967C52.097 503.54 52.2655 504.17 52.7489 504.576C53.4046 505.126 54.3813 505.039 54.9311 504.384ZM66.7243 490.33C67.2741 489.674 67.19 488.697 66.5343 488.147C66.0509 487.742 65.3985 487.687 64.8659 487.94L64.0468 488.917C63.8883 489.487 64.0568 490.118 64.5402 490.524C65.1959 491.074 66.1726 490.987 66.7243 490.33ZM60.8287 497.356C61.3785 496.7 61.2944 495.724 60.6387 495.173C60.1553 494.768 59.5047 494.711 58.9684 494.969L58.1512 495.943C57.9927 496.513 58.1612 497.144 58.6446 497.55C59.3003 498.1 60.2769 498.013 60.8287 497.356ZM31.3486 532.489C31.8984 531.833 31.8143 530.857 31.1586 530.306C30.6752 529.901 30.0246 529.844 29.4921 530.097L28.673 531.073C28.5145 531.644 28.6811 532.277 29.1645 532.683C29.8202 533.233 30.7968 533.146 31.3486 532.489ZM92.7689 554.092C92.6202 554.269 92.5204 554.461 92.4636 554.669L95.495 555.201C95.5284 554.721 95.345 554.23 94.9466 553.896C94.2909 553.346 93.3206 553.434 92.7689 554.092ZM77.0652 534.93C77.6169 534.272 77.5283 533.292 76.8726 532.742C76.2191 532.193 75.2447 532.282 74.693 532.94C74.1432 533.595 74.225 534.57 74.8785 535.118C75.5342 535.668 76.5153 535.585 77.0652 534.93ZM81.1229 544.32C81.6746 543.662 81.5864 542.686 80.9329 542.137C80.2772 541.587 79.3047 541.673 78.753 542.331C78.2013 542.988 78.2831 543.963 78.9388 544.514C79.5923 545.062 80.5712 544.977 81.1229 544.32ZM102.72 556.457L102.715 556.464L105.358 556.927C105.266 556.678 105.122 556.445 104.902 556.261C104.251 555.715 103.272 555.8 102.72 556.457ZM73.0048 525.534C73.5565 524.877 73.4702 523.898 72.8145 523.348C72.161 522.8 71.1866 522.888 70.6349 523.546C70.0832 524.203 70.1669 525.176 70.8204 525.724C71.4761 526.275 72.4531 526.192 73.0048 525.534ZM53.091 520.798C53.6427 520.14 53.5612 519.17 52.9055 518.619C52.2498 518.069 51.2728 518.152 50.7211 518.809C50.1693 519.467 50.2557 520.446 50.9114 520.996C51.5671 521.546 52.5393 521.455 53.091 520.798ZM98.8098 523.241C99.3615 522.584 99.2733 521.607 98.6198 521.059C97.9641 520.509 96.9916 520.595 96.4399 521.252C95.8882 521.91 95.9701 522.885 96.6258 523.435C97.2792 523.984 98.2581 523.899 98.8098 523.241ZM63.047 523.167C63.5987 522.51 63.5168 521.535 62.8611 520.985C62.2054 520.434 61.231 520.523 60.6793 521.181C60.1294 521.836 60.2113 522.811 60.867 523.361C61.5227 523.911 62.4971 523.823 63.047 523.167ZM57.1513 530.193C57.703 529.536 57.6193 528.563 56.9636 528.013C56.3079 527.463 55.3353 527.549 54.7836 528.207C54.2338 528.862 54.3138 529.839 54.9695 530.389C55.6252 530.94 56.6015 530.849 57.1513 530.193ZM61.2135 539.587C61.7634 538.932 61.677 537.953 61.0213 537.403C60.3679 536.854 59.3934 536.943 58.8436 537.598C58.2919 538.256 58.3719 539.233 59.0253 539.781C59.681 540.331 60.6618 540.244 61.2135 539.587ZM106.543 499.799C106.858 499.424 106.956 498.944 106.866 498.502L106.703 498.041C106.613 497.88 106.5 497.733 106.353 497.609C105.699 497.06 104.723 497.151 104.171 497.809C103.623 498.462 103.703 499.439 104.357 499.987C105.012 500.538 105.995 500.452 106.543 499.799ZM90.305 462.227C90.8567 461.57 90.7745 460.591 90.1188 460.04C89.6354 459.635 88.9829 459.581 88.4485 459.836L87.6313 460.81C87.4728 461.38 87.6413 462.011 88.1247 462.417C88.7804 462.967 89.7551 462.883 90.305 462.227ZM67.1092 532.561C67.6609 531.903 67.5727 530.927 66.917 530.376C66.2635 529.828 65.291 529.915 64.7392 530.572C64.1875 531.23 64.2694 532.205 64.9229 532.753C65.5786 533.303 66.5575 533.218 67.1092 532.561ZM25.4548 539.513C26.0046 538.857 25.9186 537.883 25.2629 537.333C24.7795 536.927 24.129 536.871 23.5945 537.126L22.7773 538.1C22.6188 538.67 22.7855 539.303 23.2688 539.709C23.9245 540.259 24.9031 540.17 25.4548 539.513ZM82.8111 551.725C82.5211 552.07 82.4131 552.503 82.4657 552.922L85.3703 553.428C85.6958 552.795 85.5572 552.006 84.991 551.531C84.3353 550.981 83.3628 551.067 82.8111 551.725ZM71.1695 541.956C71.7212 541.299 71.6308 540.32 70.9751 539.77C70.3216 539.222 69.3491 539.308 68.7973 539.966C68.2475 540.621 68.3275 541.598 68.981 542.147C69.6367 542.697 70.6197 542.611 71.1695 541.956ZM47.1953 527.824C47.7452 527.169 47.6655 526.196 47.0098 525.646C46.3541 525.095 45.3752 525.18 44.8254 525.836C44.2737 526.493 44.3582 527.474 45.0139 528.024C45.6696 528.574 46.6436 528.482 47.1953 527.824ZM58.9866 513.772C59.5383 513.114 59.4587 512.141 58.803 511.591C58.1473 511.041 57.1684 511.126 56.6167 511.783C56.065 512.441 56.1532 513.417 56.8089 513.967C57.4646 514.518 58.4349 514.429 58.9866 513.772ZM91.0766 546.687C91.6284 546.03 91.542 545.051 90.8885 544.502C90.2328 543.952 89.2584 544.041 88.7067 544.698C88.1569 545.354 88.2387 546.329 88.8945 546.879C89.5479 547.427 90.5268 547.342 91.0766 546.687ZM74.8401 509.113C75.39 508.458 75.3081 507.483 74.6524 506.932C73.9967 506.382 73.0223 506.471 72.4724 507.126C71.9207 507.784 72.0026 508.759 72.6583 509.309C73.314 509.859 74.2884 509.77 74.8401 509.113ZM88.8583 520.875C89.4082 520.22 89.3196 519.24 88.6639 518.689C88.0104 518.141 87.036 518.23 86.4862 518.885C85.9344 519.542 86.0163 520.517 86.6698 521.066C87.3255 521.616 88.3066 521.533 88.8583 520.875ZM128.263 560.181C128.815 559.523 128.73 558.546 128.075 557.996C127.421 557.448 126.445 557.535 125.893 558.192C125.343 558.847 125.427 559.824 126.081 560.373C126.736 560.923 127.713 560.836 128.263 560.181ZM120.942 553.785C121.493 553.128 121.409 552.151 120.754 551.6C120.102 551.054 119.123 551.139 118.572 551.796C118.02 552.454 118.106 553.433 118.758 553.979C119.413 554.529 120.39 554.443 120.942 553.785ZM102.87 532.632C103.42 531.977 103.333 530.998 102.68 530.45C102.024 529.9 101.05 529.989 100.5 530.644C99.9482 531.301 100.03 532.276 100.686 532.827C101.339 533.375 102.318 533.29 102.87 532.632ZM70.7779 499.72C71.3296 499.062 71.2481 498.091 70.5924 497.541C69.9367 496.991 68.9597 497.073 68.408 497.731C67.8563 498.388 67.9426 499.367 68.5983 499.917C69.254 500.468 70.2262 500.377 70.7779 499.72ZM84.7961 511.482C85.3478 510.825 85.2596 509.848 84.6039 509.298C83.9504 508.75 82.9779 508.836 82.4262 509.494C81.8745 510.151 81.9563 511.126 82.6098 511.674C83.2655 512.225 84.2444 512.14 84.7961 511.482ZM116.106 545.318C116.757 544.542 116.756 543.466 116.1 542.916C115.449 542.369 114.387 542.553 113.736 543.33C113.084 544.106 113.09 545.181 113.741 545.728C114.397 546.278 115.454 546.095 116.106 545.318ZM106.928 542.026C107.48 541.369 107.396 540.392 106.74 539.842C106.084 539.291 105.112 539.382 104.56 540.039C104.008 540.697 104.088 541.67 104.744 542.22C105.4 542.77 106.376 542.684 106.928 542.026ZM101.032 549.052C101.584 548.395 101.5 547.418 100.844 546.868C100.188 546.317 99.2163 546.408 98.6646 547.066C98.1129 547.723 98.1944 548.694 98.8501 549.244C99.5058 549.794 100.481 549.71 101.032 549.052ZM92.9142 530.267C93.4659 529.61 93.3796 528.631 92.7261 528.083C92.0704 527.532 91.096 527.621 90.5443 528.279C89.9925 528.936 90.0744 529.911 90.7301 530.461C91.3836 531.01 92.3625 530.925 92.9142 530.267ZM82.9608 527.904C83.5125 527.246 83.4239 526.266 82.7682 525.715C82.1148 525.167 81.1403 525.256 80.5886 525.913C80.0388 526.569 80.1207 527.544 80.7741 528.092C81.4298 528.642 82.411 528.559 82.9608 527.904ZM113.413 558.336L114.779 558.575C114.375 558.275 113.87 558.199 113.413 558.336ZM87.0185 537.293C87.5703 536.636 87.4839 535.657 86.8304 535.109C86.1747 534.559 85.2003 534.647 84.6486 535.305C84.0969 535.962 84.1807 536.935 84.8364 537.485C85.4898 538.034 86.4668 537.951 87.0185 537.293ZM96.9723 539.661C97.524 539.003 97.4377 538.025 96.7842 537.476C96.1285 536.926 95.1541 537.015 94.6024 537.672C94.0525 538.328 94.1344 539.303 94.7901 539.853C95.4436 540.401 96.4225 540.316 96.9723 539.661ZM64.8823 506.746C65.434 506.088 65.3543 505.115 64.6986 504.565C64.0429 504.015 63.0641 504.1 62.5123 504.757C61.9606 505.415 62.047 506.393 62.7027 506.944C63.3584 507.494 64.3306 507.403 64.8823 506.746ZM78.9005 518.508C79.4522 517.851 79.3658 516.872 78.7101 516.322C78.0567 515.774 77.0822 515.862 76.5305 516.52C75.9788 517.177 76.0607 518.152 76.7142 518.701C77.3699 519.251 78.3487 519.166 78.9005 518.508ZM68.9426 516.141C69.4943 515.484 69.4124 514.509 68.7567 513.958C68.101 513.408 67.1266 513.497 66.5749 514.154C66.0251 514.81 66.1069 515.785 66.7627 516.335C67.4184 516.885 68.3928 516.796 68.9426 516.141ZM110.986 551.42C111.538 550.762 111.454 549.785 110.798 549.235C110.147 548.689 109.168 548.774 108.616 549.431C108.066 550.086 108.153 551.065 108.804 551.612C109.46 552.162 110.436 552.075 110.986 551.42Z" fill="#819CB6"/>
</g>
<path fill-rule="evenodd" clip-rule="evenodd" d="M85.3985 426.083C85.3985 426.083 83.5925 427.831 82.6025 428.413C81.6125 428.996 79.1075 428.879 78.0585 430.103C77.0105 431.326 76.0275 434.905 76.0275 434.905C76.0275 434.905 76.3185 435.604 76.9015 435.197C77.4835 434.789 80.6805 431.559 80.9135 431.501C81.1465 431.442 81.2625 431.967 81.2045 432.258C81.1465 432.549 80.7965 434.319 80.9135 434.425C81.0295 434.53 81.2045 434.588 81.7285 433.947C82.2525 433.307 83.0685 432.142 83.7675 431.326C84.4665 430.511 86.5635 428.53 86.5635 428.53L87.2625 427.831L85.3985 426.083Z" fill="#D2BDA7"/>
<path fill-rule="evenodd" clip-rule="evenodd" d="M169.694 361.205C169.285 360.726 168.461 361.007 167.858 362.893C167.558 363.833 166.306 366.167 166.306 366.167C166.306 366.167 165.988 365.487 165.98 364.671C165.968 363.562 165.516 362.718 165.262 362.983C164.519 363.758 164.835 367.712 164.647 369.436C164.628 369.61 164.635 370.136 164.635 370.136L167.102 370.276L168.393 368.74C168.393 368.74 170.375 366.59 170.543 365.375C170.733 363.999 170.103 361.684 169.694 361.205Z" fill="#D2BDA7"/>
<mask id="mask1" mask-type="alpha" maskUnits="userSpaceOnUse" x="37" y="469" width="31" height="25">
<path fill-rule="evenodd" clip-rule="evenodd" d="M37 469.815H67.1846V493.051H37V469.815Z" fill="white"/>
</mask>
<g mask="url(#mask1)">
<path fill-rule="evenodd" clip-rule="evenodd" d="M56.6826 479.392C55.5016 478.663 53.6076 477.345 52.8966 476.847C52.9246 476.557 52.9536 476.283 52.9766 476.109C53.0906 475.26 53.0206 472.966 51.7966 472.529C50.5736 472.092 38.5996 469.703 37.7286 469.82C36.9356 469.927 36.5936 471.481 37.7286 472.354C38.8656 473.228 45.4306 476.207 45.6806 476.287C46.0736 476.41 48.2146 477.334 48.7386 477.947C48.7716 477.985 48.8156 478.019 48.8706 478.05C50.1016 479.205 52.9606 481.892 53.3196 482.288C53.7786 482.792 58.7946 487.661 60.0696 488.83C61.3446 489.999 65.3286 493.051 65.3286 493.051L67.1846 484.954C67.1846 484.954 58.2596 480.365 56.6826 479.392Z" fill="#D2BDA7"/>
</g>
<mask id="mask2" mask-type="alpha" maskUnits="userSpaceOnUse" x="146" y="522" width="15" height="34">
<path fill-rule="evenodd" clip-rule="evenodd" d="M146.79 522.948H160.341V555.434H146.79V522.948Z" fill="white"/>
</mask>
<g mask="url(#mask2)">
<path fill-rule="evenodd" clip-rule="evenodd" d="M160.166 552.777C159.729 551.728 155.885 546.835 155.885 546.835C155.885 546.835 153.858 544.216 153.89 543.353C153.891 543.326 153.884 543.303 153.884 543.277C153.999 539.987 154.317 531.59 154.637 529.006C155.027 525.859 154.637 522.948 154.637 522.948L146.79 523.414V524.113C146.79 524.113 148.253 535.997 148.386 538.21C148.428 538.908 148.444 539.675 148.445 540.399C148.207 540.694 146.335 543.087 146.951 544.905C147.375 546.158 150.992 549.544 150.992 549.544C150.992 549.544 156.08 554.498 157.362 555.051C158.123 555.38 158.768 555.573 159.467 555.311C160.166 555.048 160.603 553.826 160.166 552.777Z" fill="#D2BDA7"/>
</g>
<path fill-rule="evenodd" clip-rule="evenodd" d="M131.894 392.72C131.894 392.72 134.744 393.72 136.744 391.72C138.744 389.72 140.894 385.72 138.894 382.72C136.894 379.72 136.894 380.72 135.894 377.72C134.894 374.72 134.744 372.72 131.744 371.72C128.744 370.72 124.894 372.97 122.894 374.97C120.894 376.97 118.894 377.72 115.894 375.72C112.894 373.72 110.744 372.869 106.744 373.869C102.744 374.869 99.8936 378.72 98.8936 381.72C97.1906 386.828 98.7406 391.101 99.8936 392.72C100.714 393.871 103.144 396.52 106.144 397.52C109.144 398.52 110.894 397.72 110.894 397.72L131.894 392.72Z" fill="#1D252D"/>
<path fill-rule="evenodd" clip-rule="evenodd" d="M124.812 394.684L130.812 396.684L131.812 393.684C131.812 393.684 130.738 390.288 130.275 386.828C130.15 385.897 126.139 384.307 126.092 385.167C125.75 391.446 124.812 394.684 124.812 394.684Z" fill="#D2BDA7"/>
<path fill-rule="evenodd" clip-rule="evenodd" d="M134.614 382.526C134.09 378.974 131.921 376.39 129.463 376.753C127.468 377.047 125.994 379.192 125.789 381.887C125.498 381.73 125.187 381.679 124.89 381.75C124.083 381.939 123.686 382.932 124.002 384.277C124.318 385.621 125.678 386.556 126.485 386.367C126.553 386.35 126.607 386.317 126.663 386.286C127.884 388.497 130.217 389.886 132.062 389.614C134.52 389.251 135.138 386.077 134.614 382.526Z" fill="#F4E4D4"/>
<path fill-rule="evenodd" clip-rule="evenodd" d="M129.894 392.77C124.894 392.77 118.894 390.77 113.894 393.77C108.894 396.77 94.8936 412.77 94.8936 412.77L82.8936 425.77L86.8936 430.77L110.894 414.77C109.979 417.667 108.924 420.524 108.15 423.462C107.486 425.983 106.605 430.171 105.79 433.667C105.195 435.54 106.477 436.138 107.299 437.772C106.939 437.058 108.427 433.149 108.717 432.273C108.778 432.087 108.846 431.892 108.995 431.765C109.103 431.672 109.243 431.626 109.379 431.582C115.029 429.772 120.957 428.808 126.883 428.624C132.398 428.452 139.287 428.498 144.438 430.747C146.226 431.528 147.003 432.966 147.701 434.692C148.054 435.564 148.372 436.738 148.906 437.418C150.127 433.651 150.705 435.18 149.887 431.395C148.599 425.431 146.136 413.733 144.894 407.77C144.894 407.77 151.894 406.77 155.894 403.77C159.894 400.77 163.894 394.77 165.894 386.77C167.894 378.77 168.894 370.77 168.894 370.77L162.894 368.77C162.894 368.77 158.894 379.77 156.894 382.77C154.894 385.77 147.894 389.77 142.894 390.77C137.894 391.77 134.894 392.77 129.894 392.77Z" fill="#0090D6"/>
<path fill-rule="evenodd" clip-rule="evenodd" d="M108.733 431.886L98.3509 464.617C98.3509 464.617 94.6589 474.887 93.4569 478.018C92.4209 480.719 90.2359 484.89 86.2169 485.064C82.4409 485.229 67.6709 483.643 65.8959 483.437C65.7879 483.424 65.6889 483.483 65.6419 483.581L62.6719 489.858C62.6439 489.924 62.6149 489.99 62.5869 490.056L61.9779 491.627C61.9339 491.743 61.9729 491.871 62.0809 491.934C63.4849 492.75 72.5739 498.508 76.6049 500.443C80.9739 502.54 87.7899 504.987 94.4299 504.637C101.071 504.287 105.79 501.841 108.76 499.394C111.731 496.948 116.712 490.654 120.295 483.142C122.044 479.473 128.881 459.55 128.881 459.55C128.97 459.354 129.73 459.106 129.955 459.897C131.598 465.677 138.927 491.085 139.542 492.928C140.241 495.026 142.139 504.113 142.488 506.559C142.806 508.785 145.44 524.468 145.911 527.276C145.954 527.528 146.171 527.705 146.426 527.705H155.217C155.477 527.705 155.697 527.519 155.734 527.262C156.136 524.508 158.299 509.668 159.09 504.287C159.964 498.346 161.087 488.708 159.59 477.375C158.367 468.111 152.095 446.693 151.422 444.081C150.483 440.433 148.488 434.377 147.492 431.764C146.783 429.903 139.912 428.596 137.77 428.468C128.566 427.916 119.446 429.192 116.824 429.541C115.254 429.751 109.076 430.537 108.733 431.886Z" fill="#1D252D"/>
<mask id="mask3" mask-type="alpha" maskUnits="userSpaceOnUse" x="146" y="540" width="15" height="16">
<path fill-rule="evenodd" clip-rule="evenodd" d="M146.808 540.363H160.322V555.434H146.808V540.363Z" fill="white"/>
</mask>
<g mask="url(#mask3)">
<path fill-rule="evenodd" clip-rule="evenodd" d="M160.147 552.778C159.929 552.253 158.856 550.765 157.84 549.41C156.482 548.887 154.741 547.809 153.003 546.318C150.382 544.069 148.642 541.646 148.617 540.363C148.519 540.366 148.451 540.37 148.451 540.37C148.451 540.37 146.275 542.965 146.932 544.906C147.356 546.159 150.973 549.545 150.973 549.545C150.973 549.545 156.061 554.499 157.343 555.052C158.104 555.381 158.749 555.574 159.448 555.312C160.147 555.049 160.584 553.827 160.147 552.778Z" fill="#243437"/>
</g>
<mask id="mask4" mask-type="alpha" maskUnits="userSpaceOnUse" x="37" y="469" width="17" height="8">
<path fill-rule="evenodd" clip-rule="evenodd" d="M37 469.815H53.0151V476.722H37V469.815Z" fill="white"/>
</mask>
<g mask="url(#mask4)">
<path fill-rule="evenodd" clip-rule="evenodd" d="M47.6709 474.367C50.0039 474.967 51.9399 475.87 52.9079 476.722C52.9329 476.479 52.9569 476.258 52.9769 476.108C53.0899 475.26 53.0209 472.966 51.7969 472.528C50.5739 472.092 38.5999 469.702 37.7289 469.819C36.9359 469.927 36.5929 471.48 37.7289 472.353C38.2069 472.721 39.6459 473.461 41.1709 474.201C42.1379 473.582 44.7489 473.617 47.6709 474.367Z" fill="#243437"/>
</g>
<path fill-rule="evenodd" clip-rule="evenodd" d="M280.504 329.101C280.061 328.777 273.797 327.38 271.955 327.011C270.113 326.642 266.314 325.895 265.014 326.091C263.714 326.288 263.057 328.867 263.057 328.867L262.59 330.546C261.985 331.057 261.318 331.598 260.743 332.009L250.395 337.906L248.981 338.97L254.031 346.102C254.031 346.102 257.419 341.834 260.952 338.684C263.074 336.791 266.398 334.11 267.527 333.204C268.11 333.05 268.698 332.913 269.132 332.82C270.142 332.602 278.786 332.596 279.692 332.196C280.598 331.795 281.275 331.319 281.501 330.635C281.727 329.951 280.947 329.426 280.504 329.101Z" fill="#D2BDA7"/>
<path fill-rule="evenodd" clip-rule="evenodd" d="M280.504 329.101C280.061 328.777 273.797 327.38 271.955 327.011C270.113 326.642 266.314 325.895 265.014 326.091C263.714 326.288 263.057 328.867 263.057 328.867L262.472 330.974C263.964 330.329 266.215 330.007 268.707 330.191C271.802 330.419 274.415 331.361 275.611 332.535C277.574 332.461 279.314 332.363 279.692 332.196C280.598 331.795 281.275 331.319 281.501 330.635C281.727 329.951 280.947 329.426 280.504 329.101Z" fill="#243437"/>
<path fill-rule="evenodd" clip-rule="evenodd" d="M247.985 331.856C247.547 331.525 241.302 330.041 239.466 329.645C237.63 329.25 233.84 328.449 232.539 328.627C231.237 328.805 230.543 331.376 230.543 331.376L230.052 333.048C229.441 333.549 228.765 334.082 228.185 334.485L217.755 340.234L216.325 341.278L221.275 348.481C221.275 348.481 224.722 344.261 228.299 341.161C230.448 339.299 233.809 336.665 234.952 335.775C235.537 335.629 236.127 335.501 236.562 335.413C237.574 335.21 246.218 335.327 247.13 334.939C248.041 334.551 248.724 334.085 248.96 333.404C249.195 332.722 248.423 332.187 247.985 331.856Z" fill="#D2BDA7"/>
<path fill-rule="evenodd" clip-rule="evenodd" d="M247.985 331.856C247.547 331.525 241.302 330.041 239.466 329.645C237.63 329.25 233.84 328.449 232.539 328.627C231.237 328.805 230.543 331.376 230.543 331.376L229.927 333.473C231.428 332.849 233.684 332.56 236.173 332.779C239.264 333.051 241.864 334.03 243.044 335.22C245.008 335.174 246.748 335.101 247.13 334.939C248.041 334.551 248.725 334.085 248.96 333.404C249.195 332.722 248.423 332.187 247.985 331.856Z" fill="#243437"/>
<path fill-rule="evenodd" clip-rule="evenodd" d="M245.872 240.749C245.872 240.749 249.811 238.571 249.919 238.456L250.026 238.341C250.026 238.341 250.415 235.996 251.375 235.02C252.442 233.937 254.312 233.461 255.33 233.155C256.727 232.736 256.483 233.271 256.328 233.555C256.106 233.96 255.856 234.384 255.255 235.082C254.653 235.78 254.193 236.404 254.193 236.404C254.193 236.404 253.672 237.186 254.34 237.163C255.008 237.141 256.063 236.701 256.624 236.778C256.925 236.819 257.017 237.176 256.584 237.507C256.259 237.755 252.626 239.786 252.268 240.082C251.909 240.377 247.742 244.164 247.742 244.164L245.312 240.356" fill="#D2BDA7"/>
<path fill-rule="evenodd" clip-rule="evenodd" d="M150.185 284.133C150.185 284.133 147.732 285.568 146.901 285.782C146.069 285.997 142.541 285.372 141.382 285.727C140.224 286.081 138.121 287.275 137.367 287.915C136.681 288.498 137.103 288.844 137.45 288.891C137.797 288.937 139.675 288.526 140.956 288.514C142.236 288.502 143 288.587 143.018 288.753C143.036 288.918 142.603 289.132 141.769 289.724C140.935 290.316 140.041 290.482 140.302 290.97C140.507 291.355 142.536 290.632 143.692 290.257C144.849 289.881 146.574 289.501 147.312 289.212C148.05 288.924 149.035 288.149 149.2 288.089C149.364 288.029 152.53 287.271 152.53 287.271L151.003 283.794" fill="#D2BDA7"/>
<path fill-rule="evenodd" clip-rule="evenodd" d="M241.652 253.104C240.341 249.084 232.914 242.094 230.205 240.609C227.497 239.124 224.875 238.424 222.254 238.25C219.632 238.075 216.19 239.589 214.739 240.434C213.616 241.087 210.894 243.143 209.584 243.318C208.273 243.493 207.05 242.532 205.739 241.308L205.688 241.284C206.768 240.583 207.486 239.372 207.486 237.988C207.486 235.816 205.726 234.056 203.555 234.056C201.383 234.056 199.623 235.816 199.623 237.988C199.623 238.489 199.725 238.964 199.897 239.405C199.141 239.503 198.27 239.738 197.526 240.259C195.778 241.483 194.948 245.019 194.948 245.019C194.948 245.019 203.817 262.192 204.691 264.289C205.564 266.385 227.933 277.919 229.943 277.833C231.953 277.745 233.014 277.332 234.312 276.609C235.884 275.733 238.509 272.833 239.904 270.143C241.447 267.167 241.832 265.816 242.525 263.153C243.109 260.914 242.963 257.124 241.652 253.104Z" fill="#1D252D"/>
<path fill-rule="evenodd" clip-rule="evenodd" d="M198.211 252.413C198.211 252.413 198.822 257.481 198.211 259.054C197.599 260.627 197.337 261.413 198.211 262.025C199.085 262.637 199.434 263.073 201.094 262.637C202.754 262.2 203.483 261.501 204.168 260.627C204.852 259.753 205.376 257.613 205.376 257.613C205.376 257.613 202.842 255.384 202.667 254.248C202.492 253.112 202.056 249.617 202.056 249.617L198.211 252.413Z" fill="#D2BDA7"/>
<path fill-rule="evenodd" clip-rule="evenodd" d="M204.26 246.614C203.975 246.55 203.679 246.644 203.407 246.849C202.886 244.059 201.21 242.016 199.098 242.016C196.54 242.016 194.467 244.759 194.467 248.451C194.467 252.142 195.59 255.385 198.148 255.385C200.183 255.385 202.413 253.487 203.241 250.852C203.26 250.858 203.277 250.871 203.296 250.875C204.015 251.038 204.814 250.216 205.08 249.039C205.346 247.862 204.979 246.776 204.26 246.614Z" fill="#F4E4D4"/>
<path fill-rule="evenodd" clip-rule="evenodd" d="M199.199 258.44C199.199 258.44 188.714 261.236 178.753 267.003C168.791 272.77 149.044 282.906 149.044 282.906L151.855 289.465C151.855 289.465 158.907 286.897 162.151 285.703C167.131 283.868 177.005 283.255 178.928 283.43C180.85 283.605 180.982 284.704 181.199 287.45C181.437 290.458 180.749 296.952 181.52 299.757C181.914 301.189 182.772 301.43 183.471 301.78C184.17 302.129 184.93 298.441 185.568 297.411C186.691 295.597 188.539 294.898 196.228 293.85C203.918 292.801 216.567 291.886 219.537 292.844C220.776 293.244 220.869 293.741 220.869 293.741V297.099C220.869 297.777 221.447 298.305 222.124 298.251C223.298 298.156 225.053 297.814 226.462 296.886C229.215 295.073 230.305 288.673 230.131 285.353C229.957 282.033 229.808 272.246 230.144 268.925C230.48 265.605 231.005 264.469 233.452 261.324C235.898 258.178 240.551 252.998 243.588 250.052C246.706 247.028 250.591 243.036 250.591 243.036L247.601 238.204C247.601 238.204 227.639 246.493 225.16 247.955C223.113 249.162 206.063 257.043 206.063 257.043L199.199 258.44Z" fill="#FD574C"/>
<path fill-rule="evenodd" clip-rule="evenodd" d="M200.326 345.144C200.326 344.185 200.995 338.8 201.779 332.325C202.004 336.044 202.472 340.454 202.803 342.883C203.021 344.48 203.061 345.204 203.636 347.461C202.135 348.103 202.296 348.097 201.977 348.125C200.055 348.3 200.326 347.242 200.326 345.144ZM250.249 336.281C250.249 336.281 234.259 345.592 227.357 345.33C224.829 345.234 224.823 339.758 224.823 339.738C224.816 330.747 224.486 321.752 223.687 312.795C223.314 308.62 222.721 304.591 221.959 300.488C221.506 298.049 221.44 295.564 220.626 293.199C219.918 291.142 209.991 291.886 207.302 291.857C199.375 291.772 186.515 294.548 185.127 296.706C184.345 297.922 183.555 305.711 183.364 306.839C181.164 319.807 179.536 333.409 180.11 346.61C180.416 353.651 182.552 361.511 188.92 365.127C196.363 369.353 204.038 366.156 210.883 362.146C213.191 364.324 215.973 365.677 219.575 366.007C227.463 366.732 233.681 361.697 240.288 357.825C245.583 354.723 257.852 344.408 257.852 344.408L250.249 336.281Z" fill="#1D252D"/>
</svg>
