<svg width="1180" height="240" viewBox="0 0 1180 240" fill="none" xmlns="http://www.w3.org/2000/svg">
<mask id="mask0" mask-type="alpha" maskUnits="userSpaceOnUse" x="0" y="0" width="1180" height="240">
<rect width="1180" height="240" fill="white"/>
</mask>
<g mask="url(#mask0)">
<path opacity="0.502023" fill-rule="evenodd" clip-rule="evenodd" d="M960.063 268.533C953.994 258.02 940.707 254.062 919.922 255.425L919.277 255.468C903.881 256.551 889.471 259.423 857.554 267.148L844.029 270.43C817.36 276.854 804.576 279.443 790.534 280.922C769.988 283.086 755.688 280.889 747.164 273.171L746.422 272.499L747.763 271.016L748.504 271.688C756.399 278.837 769.968 280.992 789.618 279.005L791.696 278.784C805.564 277.24 818.733 274.495 846.253 267.834L858.101 264.957C889.427 257.387 903.753 254.554 919.134 253.473C940.972 251.937 955.177 256.073 961.794 267.533L962.294 268.4L960.564 269.399L960.063 268.533ZM782.123 189.578L780.662 188.214L784.339 184.289C785.883 182.649 787.502 180.941 789.478 178.866L800.715 167.099C822.853 143.859 832.431 132.925 840.979 120.283C852.851 102.727 856.211 89.0903 850.105 78.4885C845.123 69.8599 835.244 65.6545 820.392 65.1868C807.762 64.7892 792.104 67.0054 770.611 71.7541L769.636 71.9696L769.205 70.0188L770.18 69.8032C791.823 65.0214 807.618 62.7857 820.455 63.1899C835.929 63.6771 846.445 68.154 851.836 77.4904C858.424 88.9304 854.889 103.28 842.634 121.402L841.805 122.619C833.284 135.015 823.465 146.131 801.46 169.212L788.199 183.113C786.511 184.893 785.04 186.457 783.502 188.101L782.123 189.578ZM672.326 91.2237L673.325 91.1707L673.226 89.177L671.594 89.262C652.271 90.1885 639.814 86.1756 634.017 76.1441C627.905 65.5581 631.286 51.9206 643.205 34.3499L643.479 33.9466C651.994 21.462 661.641 10.4986 683.62 -12.5224L690.798 -20.0215C711.874 -42.0543 721.198 -52.4466 729.853 -64.3147L730.991 -65.8853L729.37 -67.0495L728.784 -66.2386C720.496 -54.7774 711.767 -44.9047 692.602 -24.799L682.877 -14.6333C660.555 8.72829 650.725 19.8504 642.104 32.4218L641.183 33.778C629.176 51.6594 625.754 65.8381 632.282 77.146C638.61 88.0946 651.971 92.3043 672.326 91.2237Z" fill="#99A2BD"/>
<path fill-rule="evenodd" clip-rule="evenodd" d="M920.46 264.897C941.241 263.498 954.517 267.422 960.565 277.898C960.84 278.375 961.451 278.538 961.93 278.262C962.408 277.986 962.572 277.375 962.297 276.898C955.704 265.478 941.51 261.378 919.676 262.951C904.297 264.059 889.969 266.912 858.639 274.521L850.313 276.554C816.224 284.887 801.39 287.927 785.51 289.071L784.865 289.116C764.085 290.514 750.809 286.591 744.761 276.116C739.501 267.004 741.281 255.61 749.455 241.437L749.733 240.959C756.266 229.769 766.232 217.473 781.665 200.839L783.679 198.676C784.056 198.273 784.035 197.641 783.632 197.266C783.229 196.89 782.597 196.912 782.22 197.316C765.765 214.915 755.206 227.77 748.291 239.472L747.723 240.444C739.231 255.17 737.341 267.264 743.029 277.116C749.49 288.306 763.251 292.468 784.348 291.149L785.649 291.062C801.028 289.954 815.355 287.101 846.685 279.492L857.074 276.955C889.706 269.003 904.259 266.063 919.815 264.942L920.46 264.897ZM790.048 78.4285L792.857 77.9533C793.403 77.8631 793.775 77.3493 793.688 76.8057C793.601 76.2621 793.087 75.8945 792.541 75.9846C781.29 77.8426 771.4 79.9966 752.273 84.6467L738.383 88.0507C706.377 95.8866 691.735 98.8921 676.512 100.095L674.893 100.215C654.078 101.655 640.781 97.7687 634.726 87.3329C628.613 76.7453 632.007 63.1016 643.951 45.5211L644.225 45.1176C652.851 32.4902 662.642 21.4079 685.159 -2.12836L690.999 -8.21961C702.838 -20.5652 709.012 -27.1385 715.083 -34.0116L717.431 -36.6905C717.794 -37.108 717.751 -37.738 717.334 -38.0976C716.917 -38.4572 716.285 -38.4103 715.922 -37.9928C710.247 -31.472 705.09 -25.8715 696.01 -16.3431L682.279 -1.99956C660.457 20.8466 650.888 31.7605 642.295 44.4091L641.927 44.9523C629.895 62.8435 626.46 77.0281 632.99 88.3376C639.591 99.7153 653.806 103.775 675.675 102.159L676.167 102.122C691.386 100.959 705.763 98.0629 736.812 90.4866L749.17 87.455C768.918 82.6259 779.273 80.2965 790.048 78.4285Z" fill="white"/>
<path opacity="0.500372" fill-rule="evenodd" clip-rule="evenodd" d="M1298.86 62.6291C1291.06 71.9281 1277.29 73.5191 1257.06 68.5676L1256.43 68.4123C1241.46 64.6724 1227.76 59.3425 1197.67 46.1921L1184.92 40.6111C1159.77 29.6536 1147.63 24.8839 1134.06 20.989C1114.2 15.2903 1099.74 14.9704 1090.01 21.0918L1089.16 21.6245L1090.22 23.3175L1091.07 22.7848C1100.08 17.1149 1113.82 17.3496 1132.83 22.7178L1134.84 23.297C1148.23 27.2251 1160.72 32.2157 1186.66 43.5538L1197.83 48.4453C1227.37 61.339 1240.98 66.6167 1255.94 70.3531C1277.18 75.6576 1291.89 74.0507 1300.4 63.9137L1301.04 63.147L1299.51 61.8625L1298.86 62.6291ZM1109.92 109.486L1108.24 110.574L1111.18 115.078C1112.42 116.962 1113.72 118.925 1115.3 121.312L1124.32 134.851C1142.09 161.582 1149.62 174.013 1155.85 187.948C1164.49 207.298 1165.43 221.311 1157.58 230.692C1151.17 238.324 1140.71 240.75 1126 238.632C1113.5 236.83 1098.46 231.929 1078.12 223.52L1077.2 223.138L1076.43 224.985L1077.36 225.366C1097.84 233.834 1113.01 238.778 1125.72 240.609C1141.04 242.817 1152.18 240.234 1159.11 231.975C1167.58 221.853 1166.59 207.107 1157.67 187.133L1157.07 185.79C1150.83 172.103 1143.09 159.451 1125.42 132.899L1114.78 116.907C1113.43 114.861 1112.25 113.066 1111.02 111.179L1109.92 109.486ZM984.709 187.279L985.684 187.505L985.241 189.451L983.649 189.084C964.78 184.816 951.815 186.605 944.364 195.477C936.507 204.841 937.468 218.859 946.155 238.232L946.355 238.677C952.573 252.45 960.169 264.922 977.816 291.41L983.583 300.042C1000.51 325.4 1007.89 337.253 1014.35 350.444L1015.2 352.188L1013.4 353.053L1012.97 352.153C1006.8 339.427 999.913 328.188 984.53 305.06L976.718 293.36C958.793 266.477 951.043 253.817 944.736 239.94L944.064 238.444C935.345 218.749 934.437 204.192 942.83 194.19C950.963 184.506 964.852 182.681 984.709 187.279Z" fill="#99A2BD"/>
<path fill-rule="evenodd" clip-rule="evenodd" d="M1259.23 59.3324C1279.45 64.3182 1293.21 62.7593 1300.99 53.493C1301.34 53.071 1301.97 53.0168 1302.39 53.3718C1302.82 53.7268 1302.87 54.3566 1302.52 54.7785C1294.04 64.8799 1279.35 66.4528 1258.12 61.1124C1243.17 57.3508 1229.55 52.0533 1200.02 39.1193L1192.18 35.6712C1160.05 21.5461 1145.97 15.9759 1130.53 12.0919L1129.9 11.9356C1109.68 6.94983 1095.93 8.50863 1088.15 17.7745C1081.39 25.834 1081.16 37.3642 1086.75 52.7408L1086.94 53.2607C1091.43 65.4144 1099.11 79.2548 1111.42 98.3158L1113.03 100.796C1113.33 101.258 1113.2 101.877 1112.74 102.176C1112.28 102.476 1111.66 102.344 1111.36 101.882C1098.21 81.6921 1090.04 67.1994 1085.26 54.4745L1084.87 53.4181C1079.07 37.4414 1079.31 25.2035 1086.62 16.4889C1094.92 6.59004 1109.2 4.88153 1129.75 9.84345L1131.01 10.1556C1145.97 13.9171 1159.58 19.2145 1189.11 32.1483L1198.9 36.4505C1229.66 49.9483 1243.48 55.3712 1258.6 59.1761L1259.23 59.3324ZM1098.42 220.322L1101.11 221.278C1101.63 221.462 1101.9 222.032 1101.72 222.552C1101.54 223.073 1100.97 223.345 1100.45 223.162C1089.69 219.378 1080.33 215.54 1062.3 207.639L1049.21 201.875C1019.05 188.6 1005.16 183.098 990.372 179.27L988.799 178.87C968.55 173.838 954.78 175.356 947.005 184.582C939.146 193.947 940.12 207.973 948.829 227.36L949.03 227.805C955.332 241.739 963.049 254.353 981.137 281.441L985.831 288.454C995.346 302.668 1000.29 310.214 1005.07 318.037L1006.92 321.082C1007.2 321.557 1007.05 322.17 1006.58 322.451C1006.1 322.733 1005.49 322.577 1005.2 322.103C1000.75 314.696 996.642 308.285 989.355 297.325L978.323 280.814C960.8 254.526 953.271 242.116 947.005 228.168L946.738 227.569C937.995 207.86 937.076 193.295 945.47 183.291C953.947 173.232 968.651 171.703 989.907 177.092L990.384 177.213C1005.17 181.001 1018.83 186.35 1048.09 199.203L1059.73 204.334C1078.34 212.519 1088.13 216.611 1098.42 220.322Z" fill="white"/>
<path fill-rule="evenodd" clip-rule="evenodd" d="M-32.137 298.936C-20.7061 282.579 9.51604 213.411 64.2754 177.247C117.85 141.866 135.914 194.778 232.024 214.509C339.809 236.637 287.637 296.721 271.297 381.578C254.958 466.436 254.506 428.666 146.688 406.532C38.8698 384.397 -82.6179 371.173 -32.137 298.936Z" fill="#FD574C"/>
<path fill-rule="evenodd" clip-rule="evenodd" d="M1218.67 156.848C1210.75 153.957 1177.64 150.004 1159.51 130.141C1141.78 110.707 1166.24 94.9188 1173.5 48.2043C1181.64 -4.1844 1210.94 11.0893 1251.13 6.46569C1291.32 1.84207 1273.6 7.4287 1265.45 59.8336C1257.31 112.238 1253.64 169.619 1218.67 156.848Z" fill="#2253AA"/>
<path fill-rule="evenodd" clip-rule="evenodd" d="M102.27 170.906L101.236 168.061C100.877 168.116 100.542 168.293 100.289 168.594C99.7394 169.249 99.8232 170.222 100.479 170.772C100.998 171.208 101.717 171.237 102.27 170.906ZM98.6011 161.189C98.6388 161.144 98.6637 161.096 98.695 161.049L97.843 158.702C97.2749 158.542 96.6379 158.715 96.2312 159.2C95.6813 159.855 95.7632 160.83 96.4189 161.381C97.0724 161.929 98.0513 161.844 98.6011 161.189ZM88.6477 158.825C89.1994 158.168 89.1127 157.185 88.457 156.635C87.8036 156.086 86.8273 156.177 86.2756 156.835C85.7257 157.49 85.8095 158.463 86.4629 159.011C87.1187 159.561 88.0979 159.481 88.6477 158.825ZM74.6295 147.063C75.1812 146.405 75.1013 145.428 74.4456 144.878C73.7898 144.327 72.8136 144.418 72.2618 145.076C71.712 145.731 71.7958 146.704 72.4515 147.254C73.1072 147.804 74.0797 147.718 74.6295 147.063ZM90.483 142.404C91.0347 141.746 90.9484 140.767 90.2927 140.217C89.6392 139.669 88.6648 139.757 88.1131 140.415C87.5633 141.07 87.6451 142.045 88.2986 142.594C88.9543 143.144 89.9332 143.059 90.483 142.404ZM100.824 187C101.375 186.342 101.289 185.368 100.634 184.818C99.9779 184.267 99.0076 184.356 98.4559 185.013C97.9041 185.671 97.9838 186.644 98.6395 187.194C99.2952 187.744 100.272 187.657 100.824 187ZM80.5252 140.036C81.0769 139.379 80.9969 138.402 80.3412 137.851C79.6855 137.301 78.7092 137.392 78.1575 138.05C77.6095 138.703 77.6895 139.68 78.3452 140.23C79.0009 140.78 79.9772 140.689 80.5252 140.036ZM84.5874 149.43C85.1391 148.772 85.0546 147.791 84.3989 147.241C83.7455 146.693 82.7692 146.784 82.2175 147.441C81.6676 148.096 81.7495 149.071 82.403 149.62C83.0587 150.17 84.0376 150.085 84.5874 149.43ZM108.301 187.538C107.881 188.184 107.993 189.054 108.595 189.559C108.761 189.698 108.946 189.796 109.14 189.856L108.301 187.538ZM82.754 165.849C83.3038 165.194 83.2152 164.213 82.5595 163.663C81.906 163.115 80.9316 163.203 80.3818 163.859C79.8301 164.516 79.912 165.491 80.5654 166.04C81.2211 166.59 82.2023 166.507 82.754 165.849ZM68.7358 154.087C69.2856 153.431 69.2037 152.456 68.548 151.906C67.8923 151.356 66.9179 151.445 66.3681 152.1C65.8164 152.757 65.8982 153.732 66.5539 154.283C67.2096 154.833 68.1841 154.744 68.7358 154.087ZM76.4648 130.641C77.0166 129.983 76.9369 129.01 76.2812 128.46C75.6255 127.91 74.6466 127.995 74.0949 128.652C73.5451 129.308 73.6314 130.286 74.2871 130.837C74.9428 131.387 75.915 131.296 76.4648 130.641ZM78.6917 156.456C79.2435 155.798 79.1552 154.822 78.4995 154.272C77.8461 153.723 76.8735 153.81 76.3218 154.467C75.7701 155.125 75.8539 156.098 76.5073 156.646C77.163 157.196 78.14 157.113 78.6917 156.456ZM64.6736 144.693C65.2253 144.036 65.1437 143.065 64.488 142.515C63.8323 141.964 62.8553 142.047 62.3036 142.705C61.7519 143.362 61.8401 144.339 62.4958 144.889C63.1515 145.439 64.1218 145.351 64.6736 144.693ZM96.7655 177.606C97.3153 176.951 97.2289 175.972 96.5755 175.424C95.9198 174.874 94.9453 174.962 94.3955 175.618C93.8438 176.275 93.9257 177.25 94.5814 177.8C95.2348 178.349 96.2137 178.264 96.7655 177.606ZM104.721 177.67C104.587 177.756 104.463 177.855 104.351 177.987C103.8 178.644 103.881 179.615 104.537 180.166C104.886 180.459 105.329 180.567 105.748 180.504L104.721 177.67ZM92.7055 168.215C93.2572 167.557 93.169 166.581 92.5155 166.032C91.8598 165.482 90.8872 165.569 90.3355 166.226C89.7838 166.884 89.8676 167.856 90.5233 168.407C91.1767 168.955 92.1538 168.872 92.7055 168.215ZM70.5692 137.667C71.1209 137.01 71.0432 136.034 70.3875 135.484C69.7317 134.934 68.751 135.021 68.1993 135.678C67.6494 136.334 67.7358 137.312 68.3915 137.863C69.0472 138.413 70.0194 138.322 70.5692 137.667ZM29.2997 186.85C29.8495 186.195 29.7699 185.222 29.1142 184.672C28.4585 184.121 27.4796 184.206 26.9298 184.862C26.3781 185.519 26.4644 186.498 27.1201 187.048C27.7758 187.598 28.748 187.508 29.2997 186.85ZM53.2739 200.982C53.8237 200.327 53.7351 199.346 53.0794 198.796C52.426 198.248 51.4515 198.336 50.9017 198.992C50.3519 199.647 50.4319 200.624 51.0853 201.173C51.741 201.723 52.724 201.637 53.2739 200.982ZM39.2557 189.22C39.8055 188.564 39.7236 187.589 39.0679 187.039C38.4122 186.489 37.4378 186.578 36.888 187.233C36.3382 187.888 36.4181 188.865 37.0738 189.416C37.7295 189.966 38.7058 189.875 39.2557 189.22ZM60.8573 201.357C60.3998 201.902 60.3864 202.664 60.7646 203.222L62.9418 203.599C63.0437 203.528 63.1425 203.447 63.2273 203.346C63.7771 202.69 63.6907 201.712 63.0373 201.163C62.3816 200.613 61.4072 200.702 60.8573 201.357ZM25.2442 177.462C25.794 176.807 25.7099 175.83 25.0542 175.28C24.5708 174.875 23.9222 174.816 23.3877 175.071L22.5686 176.047C22.4101 176.618 22.5767 177.251 23.0601 177.657C23.7158 178.207 24.6944 178.118 25.2442 177.462ZM86.4227 133.008C86.9725 132.353 86.8925 131.376 86.2368 130.825C85.5811 130.275 84.6048 130.366 84.055 131.021C83.5052 131.677 83.587 132.652 84.2427 133.202C84.8984 133.752 85.8729 133.663 86.4227 133.008ZM33.36 196.246C33.9099 195.59 33.828 194.615 33.1723 194.065C32.5166 193.515 31.5422 193.604 30.9923 194.259C30.4406 194.916 30.5225 195.891 31.1782 196.442C31.8339 196.992 32.8083 196.903 33.36 196.246ZM43.3179 198.613C43.8677 197.958 43.7814 196.979 43.1257 196.429C42.4722 195.88 41.4978 195.969 40.948 196.624C40.3962 197.282 40.4781 198.257 41.1316 198.805C41.7873 199.355 42.7662 199.27 43.3179 198.613ZM23.4041 193.876C23.9539 193.221 23.8743 192.248 23.2186 191.698C22.5628 191.148 21.584 191.232 21.0341 191.888C20.4824 192.545 20.5688 193.524 21.2245 194.074C21.8802 194.624 22.8523 194.534 23.4041 193.876ZM31.1398 170.436C31.6916 169.779 31.6056 168.804 30.9499 168.254C30.4665 167.848 29.8178 167.79 29.2815 168.047L28.4624 169.023C28.3058 169.592 28.4724 170.225 28.9558 170.63C29.6115 171.181 30.59 171.092 31.1398 170.436ZM82.3605 123.615C82.9122 122.957 82.8326 121.984 82.1769 121.434C81.5211 120.884 80.5423 120.969 79.9905 121.626C79.4407 122.281 79.5271 123.26 80.1828 123.81C80.8385 124.361 81.8106 124.27 82.3605 123.615ZM72.4112 121.251C72.9611 120.596 72.8788 119.617 72.2231 119.066C71.7397 118.661 71.0873 118.607 70.5528 118.862L69.7337 119.838C69.5771 120.406 69.7456 121.037 70.229 121.443C70.8847 121.993 71.8614 121.906 72.4112 121.251ZM60.6181 135.306C61.1698 134.648 61.0875 133.669 60.4318 133.119C59.9484 132.713 59.296 132.659 58.7615 132.914L57.9443 133.888C57.784 134.461 57.9544 135.09 58.4377 135.495C59.0934 136.045 60.0682 135.961 60.6181 135.306ZM66.5137 128.279C67.0654 127.622 66.9832 126.643 66.3275 126.093C65.8441 125.687 65.1916 125.633 64.6572 125.888L63.8381 126.864C63.6796 127.435 63.8481 128.066 64.3315 128.471C64.9872 129.021 65.9657 128.932 66.5137 128.279ZM37.0355 163.41C37.5872 162.753 37.5031 161.776 36.8474 161.226C36.364 160.82 35.7134 160.764 35.1771 161.021L34.3599 161.995C34.2014 162.566 34.3699 163.196 34.8533 163.602C35.509 164.152 36.4857 164.065 37.0355 163.41ZM42.9311 156.384C43.4828 155.727 43.3987 154.75 42.743 154.199C42.2596 153.794 41.6091 153.737 41.0746 153.993L40.2574 154.967C40.097 155.539 40.2655 156.17 40.7489 156.576C41.4046 157.126 42.3813 157.039 42.9311 156.384ZM54.7243 142.329C55.2741 141.674 55.19 140.697 54.5343 140.147C54.0509 139.742 53.3985 139.687 52.8659 139.94L52.0468 140.916C51.8883 141.487 52.0568 142.118 52.5402 142.524C53.1959 143.074 54.1726 142.987 54.7243 142.329ZM48.8287 149.356C49.3785 148.7 49.2944 147.723 48.6387 147.173C48.1553 146.768 47.5047 146.711 46.9684 146.969L46.1512 147.943C45.9927 148.513 46.1612 149.144 46.6446 149.55C47.3003 150.1 48.2769 150.013 48.8287 149.356ZM19.3486 184.489C19.8984 183.833 19.8143 182.856 19.1586 182.306C18.6752 181.901 18.0246 181.844 17.4921 182.097L16.673 183.073C16.5145 183.644 16.6811 184.277 17.1645 184.683C17.8202 185.233 18.7968 185.146 19.3486 184.489ZM80.7689 206.092C80.6202 206.269 80.5204 206.46 80.4636 206.669L83.495 207.201C83.5284 206.721 83.345 206.23 82.9466 205.896C82.2909 205.346 81.3206 205.434 80.7689 206.092ZM65.0652 186.93C65.6169 186.272 65.5283 185.292 64.8726 184.742C64.2191 184.193 63.2447 184.282 62.693 184.939C62.1432 185.595 62.225 186.57 62.8785 187.118C63.5342 187.668 64.5153 187.585 65.0652 186.93ZM69.1229 196.319C69.6746 195.662 69.5864 194.685 68.9329 194.137C68.2772 193.587 67.3047 193.673 66.753 194.331C66.2013 194.988 66.2831 195.963 66.9388 196.514C67.5923 197.062 68.5712 196.977 69.1229 196.319ZM90.7204 208.457L90.7148 208.464L93.3582 208.927C93.2661 208.677 93.1216 208.445 92.9023 208.261C92.251 207.715 91.2721 207.8 90.7204 208.457ZM61.0048 177.534C61.5565 176.877 61.4702 175.898 60.8145 175.348C60.161 174.8 59.1866 174.888 58.6349 175.546C58.0832 176.203 58.1669 177.176 58.8204 177.724C59.4761 178.275 60.4531 178.192 61.0048 177.534ZM41.091 172.798C41.6427 172.14 41.5612 171.169 40.9055 170.619C40.2498 170.069 39.2728 170.152 38.7211 170.809C38.1693 171.467 38.2557 172.446 38.9114 172.996C39.5671 173.546 40.5393 173.455 41.091 172.798ZM86.8098 175.241C87.3615 174.583 87.2733 173.607 86.6198 173.059C85.9641 172.508 84.9916 172.595 84.4399 173.252C83.8882 173.91 83.9701 174.885 84.6258 175.435C85.2792 175.983 86.2581 175.898 86.8098 175.241ZM51.047 175.167C51.5987 174.51 51.5168 173.535 50.8611 172.985C50.2054 172.434 49.231 172.523 48.6793 173.18C48.1294 173.836 48.2113 174.811 48.867 175.361C49.5227 175.911 50.4971 175.822 51.047 175.167ZM45.1513 182.193C45.703 181.536 45.6193 180.563 44.9636 180.013C44.3079 179.463 43.3353 179.549 42.7836 180.207C42.2338 180.862 42.3138 181.839 42.9695 182.389C43.6252 182.94 44.6015 182.849 45.1513 182.193ZM49.2135 191.587C49.7634 190.931 49.677 189.953 49.0213 189.402C48.3679 188.854 47.3934 188.943 46.8436 189.598C46.2919 190.256 46.3719 191.233 47.0253 191.781C47.681 192.331 48.6618 192.244 49.2135 191.587ZM94.5434 151.799C94.8578 151.424 94.9556 150.944 94.8656 150.502L94.7034 150.04C94.6128 149.88 94.5004 149.732 94.3527 149.609C93.6992 149.06 92.7229 149.151 92.1712 149.809C91.6232 150.462 91.7032 151.439 92.3567 151.987C93.0124 152.537 93.9954 152.452 94.5434 151.799ZM78.305 114.227C78.8567 113.57 78.7745 112.59 78.1188 112.04C77.6354 111.635 76.9829 111.581 76.4485 111.836L75.6313 112.81C75.4728 113.38 75.6413 114.011 76.1247 114.417C76.7804 114.967 77.7551 114.882 78.305 114.227ZM55.1092 184.561C55.6609 183.903 55.5727 182.926 54.917 182.376C54.2635 181.828 53.291 181.914 52.7392 182.572C52.1875 183.229 52.2694 184.204 52.9229 184.753C53.5786 185.303 54.5575 185.218 55.1092 184.561ZM13.4548 191.513C14.0046 190.857 13.9186 189.883 13.2629 189.332C12.7795 188.927 12.129 188.87 11.5945 189.126L10.7773 190.1C10.6188 190.67 10.7855 191.303 11.2688 191.709C11.9245 192.259 12.9031 192.17 13.4548 191.513ZM70.8111 203.724C70.5211 204.07 70.4131 204.503 70.4657 204.922L73.3703 205.428C73.6958 204.795 73.5572 204.006 72.991 203.531C72.3353 202.981 71.3628 203.067 70.8111 203.724ZM59.1695 193.956C59.7212 193.299 59.6308 192.32 58.9751 191.77C58.3216 191.222 57.3491 191.308 56.7973 191.966C56.2475 192.621 56.3275 193.598 56.981 194.146C57.6367 194.697 58.6197 194.611 59.1695 193.956ZM35.1953 179.824C35.7452 179.169 35.6655 178.196 35.0098 177.645C34.3541 177.095 33.3752 177.18 32.8254 177.835C32.2737 178.493 32.3582 179.474 33.0139 180.024C33.6696 180.574 34.6436 180.481 35.1953 179.824ZM46.9866 165.772C47.5383 165.114 47.4587 164.141 46.803 163.591C46.1473 163.041 45.1684 163.126 44.6167 163.783C44.065 164.441 44.1532 165.417 44.8089 165.967C45.4646 166.518 46.4349 166.429 46.9866 165.772ZM79.0766 198.687C79.6284 198.029 79.542 197.051 78.8885 196.502C78.2328 195.952 77.2584 196.041 76.7067 196.698C76.1569 197.354 76.2387 198.329 76.8945 198.879C77.5479 199.427 78.5268 199.342 79.0766 198.687ZM62.8401 161.113C63.39 160.457 63.3081 159.482 62.6524 158.932C61.9967 158.382 61.0223 158.471 60.4724 159.126C59.9207 159.783 60.0026 160.758 60.6583 161.309C61.314 161.859 62.2884 161.77 62.8401 161.113ZM76.8583 172.875C77.4082 172.22 77.3196 171.239 76.6639 170.689C76.0104 170.141 75.036 170.23 74.4862 170.885C73.9344 171.542 74.0163 172.517 74.6698 173.066C75.3255 173.616 76.3066 173.533 76.8583 172.875ZM116.263 212.181C116.815 211.523 116.73 210.546 116.075 209.996C115.421 209.448 114.445 209.534 113.893 210.192C113.343 210.847 113.427 211.824 114.081 212.372C114.736 212.923 115.713 212.836 116.263 212.181ZM108.942 205.785C109.493 205.127 109.409 204.151 108.754 203.6C108.102 203.054 107.123 203.139 106.572 203.796C106.02 204.454 106.106 205.433 106.758 205.979C107.413 206.529 108.39 206.442 108.942 205.785ZM90.8698 184.632C91.4196 183.977 91.3333 182.998 90.6798 182.45C90.0241 181.9 89.0497 181.988 88.4999 182.644C87.9482 183.301 88.03 184.276 88.6857 184.826C89.3392 185.375 90.3181 185.29 90.8698 184.632ZM58.7779 151.719C59.3296 151.062 59.2481 150.091 58.5924 149.541C57.9367 148.991 56.9597 149.073 56.408 149.731C55.8563 150.388 55.9426 151.367 56.5983 151.917C57.254 152.467 58.2262 152.377 58.7779 151.719ZM72.7961 163.482C73.3478 162.825 73.2596 161.848 72.6039 161.298C71.9504 160.749 70.9779 160.836 70.4262 161.493C69.8745 162.151 69.9563 163.126 70.6098 163.674C71.2655 164.224 72.2444 164.14 72.7961 163.482ZM104.106 197.318C104.757 196.542 104.756 195.466 104.1 194.916C103.449 194.369 102.387 194.553 101.736 195.329C101.084 196.106 101.09 197.181 101.741 197.728C102.397 198.278 103.454 198.095 104.106 197.318ZM94.9279 194.026C95.4796 193.369 95.3955 192.392 94.7398 191.841C94.0841 191.291 93.1119 191.382 92.5602 192.039C92.0085 192.697 92.0881 193.67 92.7438 194.22C93.3995 194.77 94.3762 194.684 94.9279 194.026ZM89.0323 201.052C89.584 200.395 89.4999 199.418 88.8442 198.868C88.1885 198.317 87.2163 198.408 86.6646 199.065C86.1129 199.723 86.1944 200.694 86.8501 201.244C87.5058 201.794 88.4805 201.71 89.0323 201.052ZM80.9142 182.267C81.4659 181.61 81.3796 180.631 80.7261 180.083C80.0704 179.532 79.096 179.621 78.5443 180.278C77.9925 180.936 78.0744 181.911 78.7301 182.461C79.3836 183.01 80.3625 182.925 80.9142 182.267ZM70.9608 179.904C71.5125 179.246 71.4239 178.266 70.7682 177.715C70.1148 177.167 69.1403 177.256 68.5886 177.913C68.0388 178.569 68.1207 179.544 68.7741 180.092C69.4298 180.642 70.411 180.559 70.9608 179.904ZM101.413 210.335L102.779 210.575C102.375 210.275 101.87 210.199 101.413 210.335ZM75.0185 189.293C75.5703 188.636 75.4839 187.657 74.8304 187.109C74.1747 186.558 73.2003 186.647 72.6486 187.305C72.0969 187.962 72.1807 188.935 72.8364 189.485C73.4898 190.033 74.4668 189.951 75.0185 189.293ZM84.9723 191.661C85.524 191.003 85.4377 190.024 84.7842 189.476C84.1285 188.926 83.1541 189.015 82.6024 189.672C82.0525 190.327 82.1344 191.302 82.7901 191.853C83.4436 192.401 84.4225 192.316 84.9723 191.661ZM52.8823 158.746C53.434 158.088 53.3543 157.115 52.6986 156.565C52.0429 156.014 51.0641 156.099 50.5123 156.757C49.9606 157.414 50.047 158.393 50.7027 158.943C51.3584 159.494 52.3306 159.403 52.8823 158.746ZM66.9005 170.508C67.4522 169.851 67.3658 168.872 66.7101 168.322C66.0567 167.773 65.0822 167.862 64.5305 168.52C63.9788 169.177 64.0607 170.152 64.7142 170.7C65.3699 171.251 66.3487 171.166 66.9005 170.508ZM56.9426 168.141C57.4943 167.484 57.4124 166.509 56.7567 165.958C56.101 165.408 55.1266 165.497 54.5749 166.154C54.0251 166.81 54.1069 167.785 54.7627 168.335C55.4184 168.885 56.3928 168.796 56.9426 168.141ZM98.986 203.42C99.5377 202.762 99.4536 201.785 98.7979 201.235C98.1467 200.689 97.1678 200.774 96.6161 201.431C96.0662 202.086 96.1526 203.065 96.8038 203.612C97.4595 204.162 98.4362 204.075 98.986 203.42Z" fill="#99A2BD"/>
<path fill-rule="evenodd" clip-rule="evenodd" d="M876.131 -46.9596C870.415 -37.0294 856.607 4.06011 827.096 27.4815C798.223 50.3962 785.221 21.0121 729.233 14.5005C666.444 7.19783 693.269 -29.7851 698.343 -79.1637C703.416 -128.542 705.578 -106.948 768.387 -99.6436C831.195 -92.3387 901.377 -90.8134 876.131 -46.9596Z" fill="#0090D6"/>
<mask id="mask1" mask-type="alpha" maskUnits="userSpaceOnUse" x="1007" y="26" width="11" height="10">
<path fill-rule="evenodd" clip-rule="evenodd" d="M1007.6 26H1017.13V35.782H1007.6V26Z" fill="white"/>
</mask>
<g mask="url(#mask1)">
<path fill-rule="evenodd" clip-rule="evenodd" d="M1017.13 35.274C1016.37 33.812 1015.5 32.369 1014.81 30.885C1014.29 29.746 1014.01 28.849 1013.51 27.693C1013.25 27.078 1012.93 26.111 1012.44 26.238C1012.1 26.324 1012.27 27.345 1012.31 27.735C1012.36 28.135 1012.26 29.03 1012.26 29.03C1012.12 28.969 1011.69 28.384 1011.25 27.96C1010.83 27.553 1010.38 27.168 1009.91 26.82C1009.52 26.535 1008.97 26.094 1008.48 26.008C1008.08 25.937 1007.89 26.312 1007.74 26.63C1007.58 26.961 1007.58 27.95 1007.63 28.371C1007.69 28.964 1008 30.734 1008.62 31.29C1009.07 31.692 1012.31 33.283 1012.53 33.424C1012.75 33.565 1013.43 34.93 1013.43 34.93L1014.02 35.656L1016.88 35.782C1016.88 35.782 1017.19 35.405 1017.13 35.274Z" fill="#D2BDA7"/>
</g>
<path fill-rule="evenodd" clip-rule="evenodd" d="M1090.46 36.5826C1091.34 35.1896 1092.32 33.8246 1093.14 32.4026C1093.76 31.3126 1094.11 30.4416 1094.7 29.3316C1095.01 28.7406 1095.41 27.8036 1095.89 27.9716C1096.22 28.0856 1095.97 29.0896 1095.89 29.4746C1095.81 29.8696 1095.83 30.7696 1095.83 30.7696C1095.98 30.7206 1096.45 30.1736 1096.93 29.7876C1097.39 29.4186 1097.86 29.0706 1098.36 28.7646C1098.77 28.5126 1099.36 28.1196 1099.86 28.0746C1100.26 28.0386 1100.42 28.4276 1100.54 28.7576C1100.67 29.0996 1100.59 30.0856 1100.51 30.5016C1100.39 31.0876 1099.94 32.8246 1099.27 33.3266C1098.79 33.6886 1095.43 35.0036 1095.2 35.1246C1094.97 35.2466 1094.17 36.5506 1094.17 36.5506L1093.52 37.2246L1090.66 37.1096C1090.66 37.1096 1090.39 36.7076 1090.46 36.5826Z" fill="#D2BDA7"/>
<path fill-rule="evenodd" clip-rule="evenodd" d="M1095.92 206.368C1095.33 205.057 1092.57 202.262 1092.14 201.912C1092.12 201.893 1092.09 201.87 1092.05 201.846C1091.5 199.571 1090.91 197.111 1090.59 195.776C1089.89 192.863 1088.96 189.368 1088.96 189.368C1088.96 189.368 1080.03 190.359 1081.39 191.815C1084.29 194.925 1087.44 202.487 1087.44 202.487C1087.38 203.085 1086.88 205.488 1087.17 206.631C1087.63 208.39 1088.87 210.114 1089.79 211.638C1091.02 213.679 1092.36 215.946 1094.25 217.385C1095.07 218.011 1096.27 218.23 1096.6 216.972C1097.52 213.485 1097.41 209.688 1095.92 206.368Z" fill="#D2BDA7"/>
<path fill-rule="evenodd" clip-rule="evenodd" d="M1095.92 206.368C1095.33 205.057 1092.57 202.262 1092.14 201.912C1092.08 201.86 1092.14 201.912 1092.03 201.778C1092.13 202.107 1092.08 202.314 1092.23 202.637C1094.3 207.103 1095.59 209.467 1094.4 210.014C1093.22 210.562 1090.59 209.086 1088.52 204.619C1088.22 203.968 1087.66 203.326 1087.42 202.702C1087.35 203.524 1086.91 205.594 1087.17 206.631C1087.63 208.39 1088.87 210.114 1089.79 211.638C1091.02 213.679 1092.36 215.946 1094.25 217.385C1095.07 218.011 1096.27 218.23 1096.6 216.972C1097.52 213.485 1097.41 209.688 1095.92 206.368Z" fill="#243437"/>
<path fill-rule="evenodd" clip-rule="evenodd" d="M1052.41 209.174C1052.11 207.904 1051.7 205.958 1051.67 204.48C1051.61 202.091 1051.33 194.635 1051.33 194.635L1042.87 195.625C1042.87 195.625 1046.6 204.829 1047.42 207.975C1047.46 208.135 1047.5 208.547 1047.53 209.016L1047.48 209.058C1047.48 209.058 1043.2 210.107 1041.71 210.805C1040.22 211.504 1037.78 212.989 1036.82 214.213C1035.86 215.437 1035.94 216.31 1036.29 216.834C1036.64 217.359 1038.04 217.533 1038.83 217.359C1039.61 217.184 1044.86 215.786 1046.52 215.262C1048.18 214.737 1050.62 214.563 1051.67 214.3C1052.72 214.038 1052.81 213.689 1052.89 212.116C1052.97 210.79 1052.55 209.538 1052.41 209.174Z" fill="#D2BDA7"/>
<path fill-rule="evenodd" clip-rule="evenodd" d="M1052.4 209.124C1051.73 210.296 1048.88 211.178 1045.46 211.178C1044.1 211.178 1042.83 211.034 1041.75 210.791C1041.73 210.796 1041.72 210.801 1041.71 210.806C1040.22 211.505 1037.78 212.99 1036.82 214.214C1035.86 215.437 1035.94 216.311 1036.29 216.835C1036.64 217.359 1038.04 217.534 1038.83 217.359C1039.61 217.185 1044.86 215.787 1046.52 215.263C1048.18 214.738 1050.62 214.563 1051.67 214.301C1052.72 214.039 1052.81 213.689 1052.89 212.117C1052.97 210.735 1052.51 209.424 1052.4 209.124Z" fill="#243437"/>
<path fill-rule="evenodd" clip-rule="evenodd" d="M1062.42 39.1812C1062.54 36.3852 1060.38 34.0162 1057.58 33.8902C1054.79 33.7642 1052.42 35.9282 1052.29 38.7242C1052.26 39.3742 1052.37 39.9972 1052.56 40.5792C1049.94 40.6992 1047.94 41.8902 1047.12 44.2382C1046.01 47.4512 1047.99 53.3622 1051.68 54.6462C1055.37 55.9292 1059.35 52.6662 1060.47 49.4522C1061.12 47.5832 1060.41 45.2752 1059.2 43.6632C1061.01 42.9532 1062.32 41.2432 1062.42 39.1812Z" fill="#1D252D"/>
<path fill-rule="evenodd" clip-rule="evenodd" d="M921.15 131.846C920.707 131.522 914.443 130.125 912.601 129.756C910.759 129.387 906.96 128.64 905.66 128.836C904.36 129.033 903.703 131.612 903.703 131.612L903.236 133.291C902.631 133.802 901.964 134.343 901.389 134.754L891.041 140.651L889.627 141.715L894.677 148.847C894.677 148.847 898.065 144.579 901.598 141.429C903.72 139.536 907.044 136.855 908.173 135.949C908.756 135.795 909.344 135.658 909.778 135.565C910.788 135.347 919.432 135.341 920.338 134.941C921.244 134.54 921.921 134.064 922.147 133.38C922.373 132.696 921.593 132.171 921.15 131.846Z" fill="#D2BDA7"/>
<path fill-rule="evenodd" clip-rule="evenodd" d="M921.15 131.846C920.707 131.522 914.443 130.125 912.601 129.756C910.759 129.387 906.96 128.64 905.66 128.836C904.36 129.033 903.703 131.612 903.703 131.612L903.118 133.719C904.61 133.074 906.861 132.752 909.353 132.936C912.448 133.164 915.061 134.106 916.257 135.28C918.22 135.206 919.96 135.108 920.338 134.941C921.244 134.54 921.921 134.064 922.147 133.38C922.373 132.696 921.593 132.171 921.15 131.846Z" fill="#243437"/>
<path fill-rule="evenodd" clip-rule="evenodd" d="M888.631 134.601C888.193 134.27 881.948 132.786 880.112 132.39C878.276 131.995 874.486 131.194 873.185 131.372C871.883 131.55 871.189 134.121 871.189 134.121L870.698 135.793C870.087 136.294 869.411 136.827 868.831 137.23L858.401 142.979L856.971 144.023L861.921 151.226C861.921 151.226 865.368 147.006 868.945 143.906C871.094 142.044 874.455 139.41 875.598 138.52C876.183 138.374 876.773 138.246 877.208 138.158C878.22 137.955 886.864 138.072 887.776 137.684C888.687 137.296 889.37 136.83 889.606 136.149C889.841 135.467 889.069 134.932 888.631 134.601Z" fill="#D2BDA7"/>
<path fill-rule="evenodd" clip-rule="evenodd" d="M888.631 134.601C888.193 134.27 881.948 132.786 880.112 132.39C878.276 131.995 874.486 131.194 873.185 131.372C871.883 131.55 871.189 134.121 871.189 134.121L870.573 136.218C872.074 135.594 874.33 135.305 876.819 135.524C879.91 135.796 882.51 136.775 883.69 137.965C885.654 137.919 887.394 137.846 887.776 137.684C888.687 137.296 889.371 136.83 889.606 136.149C889.841 135.467 889.069 134.932 888.631 134.601Z" fill="#243437"/>
<path fill-rule="evenodd" clip-rule="evenodd" d="M886.518 43.4937C886.518 43.4937 890.457 41.3157 890.565 41.2007L890.672 41.0857C890.672 41.0857 891.061 38.7407 892.021 37.7647C893.088 36.6817 894.958 36.2057 895.976 35.8997C897.373 35.4807 897.129 36.0157 896.974 36.2997C896.752 36.7047 896.502 37.1287 895.901 37.8267C895.299 38.5247 894.839 39.1487 894.839 39.1487C894.839 39.1487 894.318 39.9307 894.986 39.9077C895.654 39.8857 896.709 39.4457 897.27 39.5227C897.571 39.5637 897.663 39.9207 897.23 40.2517C896.905 40.4997 893.272 42.5307 892.914 42.8267C892.555 43.1217 888.388 46.9087 888.388 46.9087L885.958 43.1007" fill="#D2BDA7"/>
<path fill-rule="evenodd" clip-rule="evenodd" d="M791.832 86.8785C791.832 86.8785 789.379 88.3135 788.548 88.5275C787.716 88.7425 784.188 88.1175 783.029 88.4725C781.871 88.8265 779.768 90.0205 779.014 90.6605C778.328 91.2435 778.75 91.5895 779.097 91.6365C779.444 91.6825 781.322 91.2715 782.603 91.2595C783.883 91.2475 784.647 91.3325 784.665 91.4985C784.683 91.6635 784.25 91.8775 783.416 92.4695C782.582 93.0615 781.688 93.2275 781.949 93.7155C782.154 94.1005 784.183 93.3775 785.339 93.0025C786.496 92.6265 788.221 92.2465 788.959 91.9575C789.697 91.6695 790.682 90.8945 790.847 90.8345C791.011 90.7745 794.177 90.0165 794.177 90.0165L792.65 86.5395" fill="#D2BDA7"/>
<path fill-rule="evenodd" clip-rule="evenodd" d="M695.398 95.1246C695.398 95.1246 693.592 96.8726 692.602 97.4546C691.612 98.0376 689.107 97.9206 688.058 99.1446C687.01 100.368 686.027 103.947 686.027 103.947C686.027 103.947 686.318 104.646 686.901 104.239C687.483 103.831 690.68 100.601 690.913 100.543C691.146 100.484 691.262 101.009 691.204 101.3C691.146 101.591 690.796 103.361 690.913 103.467C691.029 103.572 691.204 103.63 691.728 102.989C692.252 102.349 693.068 101.184 693.767 100.368C694.466 99.5526 696.563 97.5716 696.563 97.5716L697.262 96.8726L695.398 95.1246Z" fill="#D2BDA7"/>
<path fill-rule="evenodd" clip-rule="evenodd" d="M779.694 30.2466C779.285 29.7676 778.461 30.0486 777.858 31.9346C777.558 32.8746 776.306 35.2086 776.306 35.2086C776.306 35.2086 775.988 34.5286 775.98 33.7126C775.968 32.6036 775.516 31.7596 775.262 32.0246C774.519 32.7996 774.835 36.7536 774.647 38.4776C774.628 38.6516 774.635 39.1776 774.635 39.1776L777.102 39.3176L778.393 37.7816C778.393 37.7816 780.375 35.6316 780.543 34.4166C780.733 33.0406 780.103 30.7256 779.694 30.2466Z" fill="#D2BDA7"/>
<mask id="mask2" mask-type="alpha" maskUnits="userSpaceOnUse" x="647" y="138" width="31" height="25">
<path fill-rule="evenodd" clip-rule="evenodd" d="M647 138.857H677.185V162.092H647V138.857Z" fill="white"/>
</mask>
<g mask="url(#mask2)">
<path fill-rule="evenodd" clip-rule="evenodd" d="M666.683 148.433C665.502 147.704 663.608 146.386 662.897 145.888C662.925 145.598 662.954 145.324 662.977 145.15C663.091 144.301 663.021 142.007 661.797 141.57C660.574 141.133 648.6 138.744 647.729 138.861C646.936 138.968 646.594 140.522 647.729 141.395C648.866 142.269 655.431 145.248 655.681 145.328C656.074 145.451 658.215 146.375 658.739 146.988C658.772 147.026 658.816 147.06 658.871 147.091C660.102 148.246 662.961 150.933 663.32 151.329C663.779 151.833 668.795 156.702 670.07 157.871C671.345 159.04 675.329 162.092 675.329 162.092L677.185 153.995C677.185 153.995 668.26 149.406 666.683 148.433Z" fill="#D2BDA7"/>
</g>
<mask id="mask3" mask-type="alpha" maskUnits="userSpaceOnUse" x="756" y="191" width="15" height="34">
<path fill-rule="evenodd" clip-rule="evenodd" d="M756.79 191.99H770.341V224.475H756.79V191.99Z" fill="white"/>
</mask>
<g mask="url(#mask3)">
<path fill-rule="evenodd" clip-rule="evenodd" d="M770.166 221.819C769.729 220.77 765.885 215.877 765.885 215.877C765.885 215.877 763.858 213.258 763.89 212.395C763.891 212.368 763.884 212.345 763.884 212.319C763.999 209.029 764.317 200.632 764.637 198.048C765.027 194.901 764.637 191.99 764.637 191.99L756.79 192.456V193.155C756.79 193.155 758.253 205.039 758.386 207.252C758.428 207.95 758.444 208.717 758.445 209.441C758.207 209.736 756.335 212.129 756.951 213.947C757.375 215.2 760.992 218.586 760.992 218.586C760.992 218.586 766.08 223.54 767.362 224.093C768.123 224.422 768.768 224.615 769.467 224.353C770.166 224.09 770.603 222.868 770.166 221.819Z" fill="#D2BDA7"/>
</g>
<path fill-rule="evenodd" clip-rule="evenodd" d="M741.894 61.7613C741.894 61.7613 744.744 62.7613 746.744 60.7613C748.744 58.7613 750.894 54.7613 748.894 51.7613C746.894 48.7613 746.894 49.7613 745.894 46.7613C744.894 43.7613 744.744 41.7613 741.744 40.7613C738.744 39.7613 734.894 42.0113 732.894 44.0113C730.894 46.0113 728.894 46.7613 725.894 44.7613C722.894 42.7613 720.744 41.9103 716.744 42.9103C712.744 43.9103 709.894 47.7613 708.894 50.7613C707.191 55.8693 708.741 60.1423 709.894 61.7613C710.714 62.9123 713.144 65.5613 716.144 66.5613C719.144 67.5613 720.894 66.7613 720.894 66.7613L741.894 61.7613Z" fill="#1D252D"/>
<path fill-rule="evenodd" clip-rule="evenodd" d="M734.812 63.7251L740.812 65.7251L741.812 62.7251C741.812 62.7251 740.738 59.3291 740.275 55.8691C740.15 54.9381 736.139 53.3481 736.092 54.2081C735.75 60.4871 734.812 63.7251 734.812 63.7251Z" fill="#D2BDA7"/>
<path fill-rule="evenodd" clip-rule="evenodd" d="M744.614 51.5679C744.09 48.0159 741.921 45.4319 739.463 45.7949C737.468 46.0889 735.994 48.2339 735.789 50.9289C735.498 50.7719 735.187 50.7209 734.89 50.7919C734.083 50.9809 733.686 51.9739 734.002 53.3189C734.318 54.6629 735.678 55.5979 736.485 55.4089C736.553 55.3919 736.607 55.3589 736.663 55.3279C737.884 57.5389 740.217 58.9279 742.062 58.6559C744.52 58.2929 745.138 55.1189 744.614 51.5679Z" fill="#F4E4D4"/>
<path fill-rule="evenodd" clip-rule="evenodd" d="M739.894 61.8111C734.894 61.8111 728.894 59.8111 723.894 62.8111C718.894 65.8111 704.894 81.8111 704.894 81.8111L692.894 94.8111L696.894 99.8111L720.894 83.8111C719.979 86.7081 718.924 89.5651 718.15 92.5031C717.486 95.0241 716.605 99.2121 715.79 102.708C715.195 104.581 716.477 105.179 717.299 106.813C716.939 106.099 718.427 102.19 718.717 101.314C718.778 101.128 718.846 100.933 718.995 100.806C719.103 100.713 719.243 100.667 719.379 100.623C725.029 98.8131 730.957 97.8491 736.883 97.6651C742.398 97.4931 749.287 97.5391 754.438 99.7881C756.226 100.569 757.003 102.007 757.701 103.733C758.054 104.605 758.372 105.779 758.906 106.459C760.127 102.692 760.705 104.221 759.887 100.436C758.599 94.4721 756.136 82.7741 754.894 76.8111C754.894 76.8111 761.894 75.8111 765.894 72.8111C769.894 69.8111 773.894 63.8111 775.894 55.8111C777.894 47.8111 778.894 39.8111 778.894 39.8111L772.894 37.8111C772.894 37.8111 768.894 48.8111 766.894 51.8111C764.894 54.8111 757.894 58.8111 752.894 59.8111C747.894 60.8111 744.894 61.8111 739.894 61.8111Z" fill="#0090D6"/>
<path fill-rule="evenodd" clip-rule="evenodd" d="M718.733 100.927L708.351 133.658C708.351 133.658 704.659 143.928 703.457 147.059C702.421 149.76 700.236 153.931 696.217 154.105C692.441 154.27 677.671 152.684 675.896 152.478C675.788 152.465 675.689 152.524 675.642 152.622L672.672 158.899C672.644 158.965 672.615 159.031 672.587 159.097L671.978 160.668C671.934 160.784 671.973 160.912 672.081 160.975C673.485 161.791 682.574 167.549 686.605 169.484C690.974 171.581 697.79 174.028 704.43 173.678C711.071 173.328 715.79 170.882 718.76 168.435C721.731 165.989 726.712 159.695 730.295 152.183C732.044 148.514 738.881 128.591 738.881 128.591C738.97 128.395 739.73 128.147 739.955 128.938C741.598 134.718 748.927 160.126 749.542 161.969C750.241 164.067 752.139 173.154 752.488 175.6C752.806 177.826 755.44 193.509 755.911 196.317C755.954 196.569 756.171 196.746 756.426 196.746H765.217C765.477 196.746 765.697 196.56 765.734 196.303C766.136 193.549 768.299 178.709 769.09 173.328C769.964 167.387 771.087 157.749 769.59 146.416C768.367 137.152 762.095 115.734 761.422 113.122C760.483 109.474 758.488 103.418 757.492 100.805C756.783 98.9443 749.912 97.6373 747.77 97.5093C738.566 96.9573 729.446 98.2333 726.824 98.5823C725.254 98.7923 719.076 99.5783 718.733 100.927Z" fill="#1D252D"/>
<mask id="mask4" mask-type="alpha" maskUnits="userSpaceOnUse" x="756" y="209" width="15" height="16">
<path fill-rule="evenodd" clip-rule="evenodd" d="M756.808 209.404H770.322V224.475H756.808V209.404Z" fill="white"/>
</mask>
<g mask="url(#mask4)">
<path fill-rule="evenodd" clip-rule="evenodd" d="M770.147 221.819C769.929 221.294 768.856 219.806 767.84 218.451C766.482 217.928 764.741 216.85 763.003 215.359C760.382 213.11 758.642 210.687 758.617 209.404C758.519 209.407 758.451 209.411 758.451 209.411C758.451 209.411 756.275 212.006 756.932 213.947C757.356 215.2 760.973 218.586 760.973 218.586C760.973 218.586 766.061 223.54 767.343 224.093C768.104 224.422 768.749 224.615 769.448 224.353C770.147 224.09 770.584 222.868 770.147 221.819Z" fill="#1A1919"/>
</g>
<mask id="mask5" mask-type="alpha" maskUnits="userSpaceOnUse" x="647" y="138" width="17" height="8">
<path fill-rule="evenodd" clip-rule="evenodd" d="M647 138.857H663.015V145.764H647V138.857Z" fill="white"/>
</mask>
<g mask="url(#mask5)">
<path fill-rule="evenodd" clip-rule="evenodd" d="M657.671 143.409C660.004 144.009 661.94 144.912 662.908 145.764C662.933 145.521 662.957 145.3 662.977 145.15C663.09 144.302 663.021 142.008 661.797 141.57C660.574 141.134 648.6 138.744 647.729 138.861C646.936 138.969 646.593 140.522 647.729 141.395C648.207 141.763 649.646 142.503 651.171 143.243C652.138 142.624 654.749 142.659 657.671 143.409Z" fill="#243437"/>
</g>
<path fill-rule="evenodd" clip-rule="evenodd" d="M882.298 55.8492C880.987 51.8292 873.56 44.8392 870.851 43.3542C868.143 41.8692 865.521 41.1692 862.9 40.9952C860.278 40.8202 856.836 42.3342 855.385 43.1792C854.262 43.8322 851.54 45.8882 850.23 46.0632C848.919 46.2382 847.696 45.2772 846.385 44.0532L846.334 44.0292C847.414 43.3282 848.132 42.1172 848.132 40.7332C848.132 38.5612 846.372 36.8012 844.201 36.8012C842.029 36.8012 840.269 38.5612 840.269 40.7332C840.269 41.2342 840.371 41.7092 840.543 42.1502C839.787 42.2482 838.916 42.4832 838.172 43.0042C836.424 44.2282 835.594 47.7642 835.594 47.7642C835.594 47.7642 844.463 64.9372 845.337 67.0342C846.21 69.1302 868.579 80.6642 870.589 80.5782C872.599 80.4902 873.66 80.0772 874.958 79.3542C876.53 78.4782 879.155 75.5782 880.55 72.8882C882.093 69.9122 882.478 68.5612 883.171 65.8982C883.755 63.6592 883.609 59.8692 882.298 55.8492Z" fill="#1D252D"/>
<path fill-rule="evenodd" clip-rule="evenodd" d="M838.857 55.1587C838.857 55.1587 839.468 60.2267 838.857 61.7997C838.245 63.3727 837.983 64.1587 838.857 64.7707C839.731 65.3827 840.08 65.8187 841.74 65.3827C843.4 64.9457 844.129 64.2467 844.814 63.3727C845.498 62.4987 846.022 60.3587 846.022 60.3587C846.022 60.3587 843.488 58.1297 843.313 56.9937C843.138 55.8577 842.702 52.3627 842.702 52.3627L838.857 55.1587Z" fill="#D2BDA7"/>
<path fill-rule="evenodd" clip-rule="evenodd" d="M844.907 49.3589C844.622 49.2949 844.326 49.3889 844.054 49.5939C843.533 46.8039 841.857 44.7609 839.745 44.7609C837.187 44.7609 835.114 47.5039 835.114 51.1959C835.114 54.8869 836.237 58.1299 838.795 58.1299C840.83 58.1299 843.06 56.2319 843.888 53.5969C843.907 53.6029 843.924 53.6159 843.943 53.6199C844.662 53.7829 845.461 52.9609 845.727 51.7839C845.993 50.6069 845.626 49.5209 844.907 49.3589Z" fill="#F4E4D4"/>
<path fill-rule="evenodd" clip-rule="evenodd" d="M839.845 61.1851C839.845 61.1851 829.36 63.9811 819.399 69.7481C809.437 75.5151 789.69 85.6511 789.69 85.6511L792.501 92.2101C792.501 92.2101 799.553 89.6421 802.797 88.4481C807.777 86.6131 817.651 86.0001 819.574 86.1751C821.496 86.3501 821.628 87.4491 821.845 90.1951C822.083 93.2031 821.395 99.6971 822.166 102.502C822.56 103.934 823.418 104.175 824.117 104.525C824.816 104.874 825.576 101.186 826.214 100.156C827.337 98.3421 829.185 97.6431 836.874 96.5951C844.564 95.5461 857.213 94.6311 860.183 95.5891C861.422 95.9891 861.515 96.4861 861.515 96.4861V99.8441C861.515 100.522 862.093 101.05 862.77 100.996C863.944 100.901 865.699 100.559 867.108 99.6311C869.861 97.8181 870.951 91.4181 870.777 88.0981C870.603 84.7781 870.454 74.9911 870.79 71.6701C871.126 68.3501 871.651 67.2141 874.098 64.0691C876.544 60.9231 881.197 55.7431 884.234 52.7971C887.352 49.7731 891.237 45.7811 891.237 45.7811L888.247 40.9491C888.247 40.9491 868.285 49.2381 865.806 50.7001C863.759 51.9071 846.709 59.7881 846.709 59.7881L839.845 61.1851Z" fill="#FD574C"/>
<path fill-rule="evenodd" clip-rule="evenodd" d="M840.973 147.889C840.973 146.93 841.642 141.545 842.426 135.07C842.651 138.789 843.119 143.199 843.45 145.628C843.668 147.225 843.708 147.949 844.283 150.206C842.782 150.848 842.943 150.842 842.624 150.87C840.702 151.045 840.973 149.987 840.973 147.889ZM890.896 139.026C890.896 139.026 874.906 148.337 868.004 148.075C865.476 147.979 865.47 142.503 865.47 142.483C865.463 133.492 865.133 124.497 864.334 115.54C863.961 111.365 863.368 107.336 862.606 103.233C862.153 100.794 862.087 98.3092 861.273 95.9442C860.565 93.8872 850.638 94.6312 847.949 94.6022C840.022 94.5172 827.162 97.2932 825.774 99.4512C824.992 100.667 824.202 108.456 824.011 109.584C821.811 122.552 820.183 136.154 820.757 149.355C821.063 156.396 823.199 164.256 829.567 167.872C837.01 172.098 844.685 168.901 851.53 164.891C853.838 167.069 856.62 168.422 860.222 168.752C868.11 169.477 874.328 164.442 880.935 160.57C886.23 157.468 898.499 147.153 898.499 147.153L890.896 139.026Z" fill="#1D252D"/>
<path fill-rule="evenodd" clip-rule="evenodd" d="M915.609 68.6079C915.609 68.6079 913.827 67.3409 912.297 65.9579C910.729 64.5389 910.793 63.7739 911.063 62.3129C911.357 60.7279 911.71 59.7839 911.883 59.3459C912.385 58.0789 913.055 58.4139 913.317 59.1709C913.471 59.6159 914.41 62.7539 914.759 63.1029C915.108 63.4529 915.632 63.5859 915.632 63.5859C915.632 63.5859 915.936 60.9009 915.953 60.7439C915.997 60.3369 916.376 60.1619 916.681 60.5259C917.07 60.9879 917.482 64.4879 917.57 65.0409C917.661 65.6159 918.123 67.3409 918.123 67.3409L916.089 69.3949L915.609 68.6079Z" fill="#D2BDA7"/>
<path fill-rule="evenodd" clip-rule="evenodd" d="M1000.62 99.0825C1000.62 99.0825 1004.03 102.708 1004.9 103.626C1005.78 104.543 1006.26 104.806 1006.48 104.806C1006.69 104.806 1006.93 104.587 1006.65 104.03C1006.34 103.415 1005.24 101.977 1005.34 101.944C1005.59 101.859 1005.91 102.062 1006.49 102.261C1007.12 102.479 1008.01 103.091 1008.62 103.615C1009.23 104.14 1009.92 104.806 1010.28 104.806C1010.48 104.806 1011.19 104.368 1010.76 103.451C1010.32 102.533 1009.36 99.8685 1008.09 99.0825C1006.83 98.2965 1003.9 98.1215 1003.16 97.7715C1002.41 97.4225 1001.15 96.4615 1001.15 96.4615L999.836 98.2525L1000.62 99.0825Z" fill="#D2BDA7"/>
<path fill-rule="evenodd" clip-rule="evenodd" d="M939.787 210.048C939.688 209.866 939.614 209.622 939.559 209.346C939.54 208.655 939.556 207.62 939.669 206.11C939.931 202.615 940.979 192.13 940.979 192.13L932.853 191.693C932.853 191.693 934.95 208.12 934.95 209.606V210.637C934.689 210.897 934.42 211.148 934.144 211.38C931.873 213.303 927.891 219.535 927.601 221.017C927.351 222.295 927.625 222.741 928.187 223.213C928.616 223.573 929.87 223.424 930.583 222.981C931.457 222.438 939.554 214.942 940.181 214.242C940.808 213.543 941.068 213.02 940.952 212.378C940.836 211.737 940.311 211.01 939.787 210.048Z" fill="#D2BDA7"/>
<path fill-rule="evenodd" clip-rule="evenodd" d="M940.952 212.378C940.836 211.737 940.311 211.01 939.787 210.048C939.733 209.949 939.688 209.829 939.648 209.698C938.176 211.347 935.487 213.287 932.181 214.946C931.641 215.217 931.107 215.464 930.579 215.699C929.064 217.902 927.762 220.193 927.601 221.017C927.351 222.295 927.625 222.741 928.187 223.213C928.616 223.573 929.87 223.424 930.583 222.981C931.457 222.438 939.554 214.941 940.181 214.242C940.807 213.543 941.068 213.02 940.952 212.378Z" fill="#243437"/>
<path fill-rule="evenodd" clip-rule="evenodd" d="M1020.92 205.277C1020.66 203.006 1020.31 199.685 1019.44 198.2C1018.89 197.265 1017.2 196.815 1016.02 196.61C1015.2 195.836 1013.92 194.48 1013.17 192.975C1012 190.645 1006.53 179.577 1006.53 179.577L1000.12 185.985L1012.89 198.984L1012.89 198.986C1012.89 198.986 1014.02 201.432 1015.33 205.457C1016.64 209.481 1018.89 213.811 1019.61 214.365C1020.02 214.673 1021.36 214.481 1021.45 213.491C1021.53 212.603 1021.19 207.549 1020.92 205.277Z" fill="#D2BDA7"/>
<path fill-rule="evenodd" clip-rule="evenodd" d="M1020.92 205.277C1020.66 203.006 1020.31 199.685 1019.44 198.2C1018.9 197.287 1017.28 196.838 1016.11 196.626C1016.81 198.084 1017.33 200.51 1017.45 203.282C1017.56 205.726 1017.33 207.929 1016.87 209.455C1017.98 211.959 1019.13 213.997 1019.61 214.365C1020.02 214.673 1021.36 214.481 1021.45 213.491C1021.53 212.603 1021.19 207.549 1020.92 205.277Z" fill="#243437"/>
<path fill-rule="evenodd" clip-rule="evenodd" d="M949.245 63.5552C949.245 63.5552 953.381 58.9532 953.964 57.9632C954.546 56.9732 954.196 54.9342 953.964 54.1182C953.73 53.3032 952.74 50.2742 952.974 48.1772C953.206 46.0792 953.964 44.6822 954.721 43.9832C955.478 43.2842 957.167 42.3522 958.565 41.9442C959.964 41.5362 961.361 40.2542 962.701 39.7882C964.041 39.3232 966.139 39.1482 967.012 39.3802C967.886 39.6142 969.109 40.0792 970.216 41.4782C971.322 42.8752 971.265 43.4582 971.439 44.4492C971.614 45.4392 971.73 49.0502 971.439 50.0402C971.147 51.0322 971.265 52.7202 971.381 53.3622C971.497 54.0022 972.546 55.4582 973.827 55.8662L975.109 56.2742C975.109 56.2742 983.497 56.2152 985.012 56.3322C986.526 56.4492 988.799 57.2052 989.847 58.7202C990.895 60.2352 991.303 60.6432 991.769 61.8662C992.235 63.0892 992.468 65.4192 992.526 66.4682C992.585 67.5172 992.41 69.3802 991.944 70.4882C991.477 71.5942 990.255 73.1092 989.497 73.9242C988.74 74.7402 985.07 78.0022 985.07 78.0022L949.245 63.5552Z" fill="#1D252D"/>
<path fill-rule="evenodd" clip-rule="evenodd" d="M958.011 52.3628C958.011 52.3628 957.836 54.5918 957.225 56.4688C956.614 58.3478 954.735 61.5378 954.735 61.5378C954.735 61.5378 955.783 63.1978 956.373 63.5038C956.963 63.8088 960.021 64.0278 960.021 64.0278L961.594 63.4168L962.118 62.3238C962.118 62.3238 961.856 60.0958 961.856 59.0478C961.856 57.9988 961.9 54.8528 961.9 54.8528L958.011 52.3628Z" fill="#D2BDA7"/>
<path fill-rule="evenodd" clip-rule="evenodd" d="M961.485 43.9966C959.406 43.9966 957.673 46.1916 957.286 49.1006C957.078 49.0076 956.86 48.9746 956.648 49.0196C955.988 49.1616 955.657 49.9406 955.909 51.1096C956.152 52.2426 957.117 53.0516 957.778 52.9716C958.771 55.2586 960.88 56.9496 962.62 56.9496C964.984 56.9496 966.05 53.2636 966.05 49.7656C966.05 46.2666 963.85 43.9966 961.485 43.9966Z" fill="#F4E4D4"/>
<path fill-rule="evenodd" clip-rule="evenodd" d="M988.365 139.727C985.349 131.151 979.838 110.483 979.249 108.022C978.66 105.561 978.071 102.675 978.071 102.675H958.433V102.683L940.343 103.1C940.343 103.1 935.378 117.271 933.021 128.811C930.666 140.352 929.853 154.519 929.824 164.451C929.789 176.418 931.927 192.962 931.927 192.962H942.278C942.278 192.962 946.032 167.76 946.621 163.942C947.21 160.123 950.761 148.922 952.613 143.067C954.151 138.203 957.581 129.914 959.157 125.911C960.499 130.352 962.388 137.524 967.037 145.879C971.613 154.104 977.871 161.735 983.929 169.118C989.988 176.5 1000.01 186.964 1000.01 186.964L1008.08 181.082C1008.08 181.082 990.154 144.814 988.365 139.727Z" fill="#1D252D"/>
<path fill-rule="evenodd" clip-rule="evenodd" d="M958.958 60.3101C957.472 60.3281 955.973 60.4391 954.471 60.6331C951.779 60.9791 948.961 61.7961 946.607 63.1641C941.598 66.0771 936.821 71.9021 935.074 72.8341C933.326 73.7661 930.646 73.3581 929.248 72.8331C927.558 72.2001 925.975 70.8561 924.498 69.8481C922.869 68.7371 919.289 66.3361 918.598 66.7901C917.648 67.4151 915.856 68.2501 914.749 68.9861C913.609 69.7441 918.646 80.1251 919.681 81.6451C922.622 85.9651 926.719 88.6431 931.87 89.4361C934.142 89.7861 936.763 89.5231 938.598 88.9121C940.001 88.4441 941.812 87.6691 942.588 87.3311C942.764 87.2541 942.955 87.3911 942.944 87.5821L942.617 93.7171C941.526 100.807 933.662 103.341 940.673 108.276C941.639 108.955 942.916 106.301 944.103 106.038C944.89 105.863 945.937 105.951 946.55 106.3C947.161 106.65 951.268 108.485 952.142 108.572C953.016 108.66 955.025 107.96 955.637 107.523C956.248 107.086 957.909 106.125 959.744 106.3C961.578 106.475 962.715 107.698 964.112 108.047C965.511 108.397 966.908 108.31 967.782 107.786C969.662 106.658 972.641 105.761 974.541 107.189C976.391 108.58 981.459 105.176 979.449 102.292C977.521 99.5271 975.207 87.7911 975.003 85.5421C974.979 85.2761 975.268 85.1021 975.491 85.2471C978.986 87.5321 998.16 100.045 998.715 100.008C999.681 99.9451 1002.73 96.9591 1003.62 96.0651C1003.76 95.9221 1003.77 95.7031 1003.64 95.5511C1001.57 93.2031 986.316 75.8781 985.258 74.4941C982.479 70.8611 978.416 67.6771 974.763 64.9941C970.083 61.5551 964.617 60.2451 958.958 60.3101Z" fill="#0090D6"/>
<path fill-rule="evenodd" clip-rule="evenodd" d="M1051.55 54.4585C1051.55 54.4585 1051.96 57.6615 1051.55 59.2935C1051.14 60.9245 1050.85 64.0115 1050.85 64.0115C1050.85 64.0115 1052.83 64.3605 1053.07 64.4195C1053.3 64.4785 1057.73 63.6045 1057.73 63.6045L1058.31 61.6235C1058.31 61.6235 1056.97 59.4095 1056.85 58.8265C1056.74 58.2445 1056.04 55.9735 1055.86 54.4585C1055.69 52.9435 1055.51 51.1955 1055.51 51.1955L1051.55 54.4585Z" fill="#D2BDA7"/>
<path fill-rule="evenodd" clip-rule="evenodd" d="M1056.39 48.0611C1056.04 47.9081 1055.68 48.0921 1055.35 48.4931C1054.94 45.4411 1053.29 43.1571 1051.32 43.1571C1049.03 43.1571 1046.9 45.6421 1046.9 49.4061C1046.9 53.1691 1047.9 56.7891 1050.18 56.7891C1051.93 56.7891 1054.08 55.0011 1055 52.4791C1055.6 52.5911 1056.41 51.6641 1056.88 50.5931C1057.37 49.4571 1057 48.3241 1056.39 48.0611Z" fill="#F4E4D4"/>
<path fill-rule="evenodd" clip-rule="evenodd" d="M1052.54 62.6011L1051.38 61.9621C1051.38 61.9621 1043.69 61.4971 1040.89 60.4481C1038.09 59.3991 1033.55 55.7881 1030.06 50.6621C1026.56 45.5351 1018.52 33.8841 1018.52 33.8841L1012.28 35.9001C1012.28 35.9001 1013.78 44.4791 1015.48 51.0111C1017.51 58.8611 1021.65 65.9601 1023.76 71.3991C1025.98 77.1081 1030.29 91.2051 1030.99 94.4671C1031.69 97.7291 1033.2 104.603 1033.49 105.418C1033.78 106.234 1034.72 106.963 1035.53 107.049C1036.01 107.1 1037.28 107.049 1037.28 107.049C1037.28 107.049 1037.63 102.273 1038.09 101.34C1038.56 100.409 1041.71 99.5931 1043.45 99.5931C1045.2 99.5931 1064.31 97.9621 1065.36 97.9621C1066.4 97.9621 1072 97.6131 1072.7 98.1951C1073.39 98.7781 1074.56 100.758 1074.56 102.039V104.603C1074.56 104.603 1077.47 103.788 1078.87 103.088C1080.27 102.389 1082.83 101.108 1082.95 98.6621C1083.06 96.2141 1083.76 84.6801 1084.7 80.8361C1085.63 76.9921 1089.59 63.9431 1090.4 60.5641C1091.22 57.1851 1093.25 51.6941 1094.18 47.3831C1095.11 43.0731 1095.53 36.9141 1095.53 36.9141L1088.47 34.7001C1088.47 34.7001 1087.07 37.9701 1085.98 40.0591C1083.7 44.4091 1079.3 51.1961 1076.16 54.2731C1073.51 56.8661 1069.78 58.1841 1067.45 58.8821C1065.12 59.5811 1058.13 60.5641 1058.13 60.5641L1056.89 61.9011C1055.77 63.1021 1053.98 63.3901 1052.54 62.6011Z" fill="#FD574C"/>
<path fill-rule="evenodd" clip-rule="evenodd" d="M1040.06 99.2632C1039.07 99.7912 1038.22 100.559 1038.02 101.532C1036.85 107.183 1033.09 125.763 1032.35 130.356C1031.48 135.774 1030.6 145.035 1030.6 149.23C1030.6 153.424 1032 164.434 1033.23 169.851C1034.45 175.269 1042.14 196.589 1042.14 196.589L1042.57 197.761L1052.45 196.589C1052.45 196.589 1052.27 177.366 1052.45 171.075C1052.62 164.784 1054.76 139.371 1054.94 137.303C1055.16 134.769 1056.64 128.434 1056.64 128.434C1056.64 128.434 1058.04 132.453 1059.26 136.123C1060.49 139.793 1066.64 164.687 1071.77 175.677C1073.59 179.576 1080.34 193.269 1080.34 193.269L1090.55 190.647C1090.55 190.647 1085.65 152.026 1085.13 148.705C1084.6 145.385 1077.44 110.958 1076.74 108.337C1076.04 105.715 1074.61 99.3092 1073.18 98.0022C1072.63 97.5032 1060.58 95.8372 1049.13 97.1532C1047.41 97.3492 1042.36 98.0392 1040.06 99.2632Z" fill="#1D252D"/>
<path fill-rule="evenodd" clip-rule="evenodd" d="M1007 60.5C1007 64.6423 1003.64 68 999.499 68C995.358 68 992 64.6423 992 60.5C992 56.3593 995.358 53 999.499 53C1003.64 53 1007 56.3593 1007 60.5ZM1092 77C1093.66 77 1095 75.6579 1095 74C1095 72.3421 1093.66 71 1092 71C1090.34 71 1089 72.3421 1089 74C1089 75.6579 1090.34 77 1092 77ZM1043.5 112C1047.09 112 1050 109.089 1050 105.5C1050 101.91 1047.09 99 1043.5 99C1039.91 99 1037 101.91 1037 105.5C1037 109.089 1039.91 112 1043.5 112ZM1092 123.501C1092 124.328 1091.33 125 1090.5 125C1089.67 125 1089 124.328 1089 123.501C1089 122.672 1089.67 122 1090.5 122C1091.33 122 1092 122.672 1092 123.501ZM1104.5 101C1105.88 101 1107 99.8807 1107 98.4992C1107 97.1193 1105.88 96 1104.5 96C1103.12 96 1102 97.1193 1102 98.4992C1102 99.8807 1103.12 101 1104.5 101ZM1081 101.5C1081 102.879 1079.88 104 1078.5 104C1077.12 104 1076 102.879 1076 101.5C1076 100.121 1077.12 99 1078.5 99C1079.88 99 1081 100.121 1081 101.5ZM1069 144C1070.66 144 1072 142.658 1072 140.999C1072 139.342 1070.66 138 1069 138C1067.34 138 1066 139.342 1066 140.999C1066 142.658 1067.34 144 1069 144ZM1048 149.501C1048 150.881 1046.88 152 1045.5 152C1044.12 152 1043 150.881 1043 149.501C1043 148.121 1044.12 147 1045.5 147C1046.88 147 1048 148.121 1048 149.501ZM1122 125C1124.76 125 1127 122.76 1127 119.999C1127 117.239 1124.76 115 1122 115C1119.24 115 1117 117.239 1117 119.999C1117 122.76 1119.24 125 1122 125ZM1095 158C1095 159.105 1094.11 160 1093 160C1091.9 160 1091 159.105 1091 158C1091 156.895 1091.9 156 1093 156C1094.11 156 1095 156.895 1095 158ZM1064.5 89C1066.43 89 1068 87.4333 1068 85.5008C1068 83.5684 1066.43 82 1064.5 82C1062.57 82 1061 83.5684 1061 85.5008C1061 87.4333 1062.57 89 1064.5 89ZM985.5 139C987.432 139 989 137.434 989 135.499C989 133.566 987.432 132 985.5 132C983.568 132 982 133.566 982 135.499C982 137.434 983.568 139 985.5 139Z" fill="white"/>
</g>
</svg>
