<svg width="375" height="860" viewBox="0 0 375 860" fill="none" xmlns="http://www.w3.org/2000/svg">
<g clip-path="url(#clip0)">
<path fill-rule="evenodd" clip-rule="evenodd" d="M0 30.8236C0 30.8236 91.5082 0 186 0C280.492 0 375 30.8236 375 30.8236V828.844C375 828.844 279.013 860 186 860C92.9867 860 0 828.844 0 828.844V30.8236Z" fill="url(#paint0_linear)"/>
<path d="M-95.5 59.5C-95.5 55.0817 -99.0811 51.5 -103.498 51.5V49.5C-97.9761 49.5 -93.5 53.9775 -93.5 59.5H-95.5ZM-103.498 67.5C-99.0811 67.5 -95.5 63.9183 -95.5 59.5H-93.5C-93.5 65.0225 -97.9761 69.5 -103.498 69.5V67.5ZM-111.5 59.5C-111.5 63.9177 -107.915 67.5 -103.498 67.5V69.5C-109.019 69.5 -113.5 65.0231 -113.5 59.5H-111.5ZM-103.498 51.5C-107.915 51.5 -111.5 55.0823 -111.5 59.5H-113.5C-113.5 53.9769 -109.019 49.5 -103.498 49.5V51.5ZM230 85.5C239.662 85.5 247.5 93.3342 247.5 102.998H245.5C245.5 94.4392 238.558 87.5 230 87.5V85.5ZM212.5 102.998C212.5 93.3344 220.334 85.5 230 85.5V87.5C221.438 87.5 214.5 94.4391 214.5 102.998H212.5ZM230 120.5C220.333 120.5 212.5 112.665 212.5 102.998H214.5C214.5 111.561 221.438 118.5 230 118.5V120.5ZM247.5 102.998C247.5 112.666 239.662 120.5 230 120.5V118.5C238.558 118.5 245.5 111.561 245.5 102.998H247.5ZM237 423.5C241.144 423.5 244.5 426.856 244.5 431H242.5C242.5 427.96 240.04 425.5 237 425.5V423.5ZM229.5 431C229.5 426.856 232.856 423.5 237 423.5V425.5C233.96 425.5 231.5 427.96 231.5 431H229.5ZM237 438.5C232.855 438.5 229.5 435.14 229.5 431H231.5C231.5 434.037 233.961 436.5 237 436.5V438.5ZM244.5 431C244.5 435.14 241.145 438.5 237 438.5V436.5C240.039 436.5 242.5 434.037 242.5 431H244.5ZM349.5 297.002C349.5 295.067 347.932 293.5 346.002 293.5V291.5C349.038 291.5 351.5 293.964 351.5 297.002H349.5ZM346.002 300.5C347.932 300.5 349.5 298.932 349.5 297.002H351.5C351.5 300.037 349.037 302.5 346.002 302.5V300.5ZM342.5 297.002C342.5 298.932 344.067 300.5 346.002 300.5V302.5C342.964 302.5 340.5 300.038 340.5 297.002H342.5ZM346.002 293.5C344.068 293.5 342.5 295.068 342.5 297.002H340.5C340.5 293.963 342.963 291.5 346.002 291.5V293.5ZM300.998 456.5C305.142 456.5 308.5 459.858 308.5 464.002H306.5C306.5 460.962 304.038 458.5 300.998 458.5V456.5ZM293.5 464.002C293.5 459.858 296.857 456.5 300.998 456.5V458.5C297.963 458.5 295.5 460.962 295.5 464.002H293.5ZM300.998 471.5C296.858 471.5 293.5 468.142 293.5 464.002H295.5C295.5 467.038 297.962 469.5 300.998 469.5V471.5ZM308.5 464.002C308.5 468.143 305.142 471.5 300.998 471.5V469.5C304.038 469.5 306.5 467.037 306.5 464.002H308.5ZM263.5 408.502C263.5 406.292 261.706 404.5 259.5 404.5V402.5C262.81 402.5 265.5 405.187 265.5 408.502H263.5ZM259.5 412.5C261.706 412.5 263.5 410.708 263.5 408.502H265.5C265.5 411.814 262.81 414.5 259.5 414.5V412.5ZM255.5 408.502C255.5 410.708 257.294 412.5 259.5 412.5V414.5C256.19 414.5 253.5 411.814 253.5 408.502H255.5ZM259.5 404.5C257.294 404.5 255.5 406.292 255.5 408.502H253.5C253.5 405.187 256.19 402.5 259.5 402.5V404.5ZM389.498 232.5C394.473 232.5 398.5 236.532 398.5 241.502H396.5C396.5 237.636 393.368 234.5 389.498 234.5V232.5ZM380.5 241.502C380.5 236.532 384.526 232.5 389.498 232.5V234.5C385.632 234.5 382.5 237.635 382.5 241.502H380.5ZM389.498 250.5C384.527 250.5 380.5 246.473 380.5 241.502H382.5C382.5 245.368 385.632 248.5 389.498 248.5V250.5ZM398.5 241.502C398.5 246.473 394.473 250.5 389.498 250.5V248.5C393.369 248.5 396.5 245.368 396.5 241.502H398.5ZM416.5 182C416.5 178.963 414.038 176.5 411.002 176.5V174.5C415.143 174.5 418.5 177.859 418.5 182H416.5ZM411.002 187.5C414.038 187.5 416.5 185.037 416.5 182H418.5C418.5 186.141 415.143 189.5 411.002 189.5V187.5ZM405.5 182C405.5 185.036 407.966 187.5 411.002 187.5V189.5C406.862 189.5 403.5 186.142 403.5 182H405.5ZM411.002 176.5C407.966 176.5 405.5 178.964 405.5 182H403.5C403.5 177.858 406.862 174.5 411.002 174.5V176.5ZM448.498 122.5C455.675 122.5 461.5 128.321 461.5 135.5H459.5C459.5 129.426 454.571 124.5 448.498 124.5V122.5ZM435.5 135.5C435.5 128.322 441.32 122.5 448.498 122.5V124.5C442.425 124.5 437.5 129.426 437.5 135.5H435.5ZM448.498 148.5C441.32 148.5 435.5 142.678 435.5 135.5H437.5C437.5 141.574 442.425 146.5 448.498 146.5V148.5ZM461.5 135.5C461.5 142.679 455.675 148.5 448.498 148.5V146.5C454.571 146.5 459.5 141.574 459.5 135.5H461.5ZM9.5 3.5C20.5461 3.5 29.5 12.4547 29.5 23.498H27.5C27.5 13.5594 19.4416 5.5 9.5 5.5V3.5ZM-10.5 23.498C-10.5 12.4546 -1.54195 3.5 9.5 3.5V5.5C-0.437729 5.5 -8.5 13.5595 -8.5 23.498H-10.5ZM9.5 43.5C-1.54208 43.5 -10.5 34.5453 -10.5 23.498H-8.5C-8.5 33.4406 -0.437591 41.5 9.5 41.5L9.5 43.5ZM29.5 23.498C29.5 34.5451 20.5463 43.5 9.5 43.5L9.5 41.5C19.4415 41.5 27.5 33.4408 27.5 23.498H29.5ZM383.5 31.5C383.5 27.0829 379.92 23.5 375.498 23.5V21.5C381.025 21.5 385.5 25.9785 385.5 31.5H383.5ZM375.498 39.5C379.92 39.5 383.5 35.9171 383.5 31.5H385.5C385.5 37.0215 381.025 41.5 375.498 41.5V39.5ZM367.5 31.5C367.5 35.9174 371.08 39.5 375.498 39.5V41.5C369.975 41.5 365.5 37.0212 365.5 31.5H367.5ZM375.498 23.5C371.08 23.5 367.5 27.0826 367.5 31.5H365.5C365.5 25.9788 369.975 21.5 375.498 21.5V23.5Z" fill="white" fill-opacity="0.504234"/>
</g>
<defs>
<linearGradient id="paint0_linear" x1="213.005" y1="1139.66" x2="744.971" y2="939.34" gradientUnits="userSpaceOnUse">
<stop stop-color="#FB2059"/>
<stop offset="0.602402" stop-color="#8138E9"/>
<stop offset="1" stop-color="#12CAF9"/>
</linearGradient>
<clipPath id="clip0">
<rect x="-113" width="723" height="860" fill="white"/>
</clipPath>
</defs>
</svg>
