<svg width="524" height="630" viewBox="0 0 524 630" fill="none" xmlns="http://www.w3.org/2000/svg">
<g filter="url(#filter0_d)">
<path fill-rule="evenodd" clip-rule="evenodd" d="M-169.749 480.319C-151.149 453.704 -101.974 341.161 -12.8744 282.318C74.2985 224.748 103.69 310.841 260.073 342.947C435.452 378.951 350.561 476.716 323.975 614.789C297.389 752.861 296.653 691.406 121.22 655.39C-54.2124 619.374 -251.887 597.857 -169.749 480.319Z" fill="#1D252D"/>
<path fill-rule="evenodd" clip-rule="evenodd" d="M327.547 164.036C328.302 166.111 330.596 167.182 332.674 166.426C334.751 165.67 335.82 163.375 335.064 161.299C334.308 159.222 332.015 158.153 329.938 158.909C327.86 159.665 326.791 161.958 327.547 164.036ZM125.113 285.93C126.625 290.083 131.216 292.223 135.367 290.712C139.52 289.201 141.66 284.611 140.148 280.458C138.637 276.307 134.047 274.166 129.895 275.677C125.744 277.188 123.602 281.779 125.113 285.93ZM-42.288 423.106C-43.5839 423.577 -44.9424 423.119 -45.3197 422.082C-45.6977 421.043 -44.952 419.819 -43.6561 419.347C-42.3578 418.874 -40.9993 419.333 -40.6212 420.372C-40.2439 421.408 -40.9897 422.633 -42.288 423.106ZM338.755 304.713C339.321 306.269 341.043 307.072 342.601 306.505C344.157 305.939 344.959 304.217 344.393 302.661C343.826 301.103 342.105 300.301 340.548 300.867C338.991 301.434 338.188 303.156 338.755 304.713ZM351.285 274.528C349.729 275.094 348.006 274.291 347.44 272.736C346.873 271.178 347.677 269.456 349.232 268.89C350.787 268.324 352.511 269.126 353.078 270.684C353.644 272.239 352.84 273.962 351.285 274.528ZM72.2296 363.934C72.9852 366.01 75.279 367.079 77.3571 366.323C79.4331 365.568 80.5027 363.274 79.7471 361.198C78.9915 359.122 76.6969 358.05 74.6209 358.806C72.5428 359.562 71.474 361.858 72.2296 363.934ZM51.9671 225.56C50.4109 226.127 48.6895 225.324 48.1229 223.767C47.5563 222.21 48.3588 220.489 49.915 219.922C51.4712 219.356 53.1945 220.158 53.7611 221.715C54.3277 223.272 53.5233 224.994 51.9671 225.56ZM-5.50523 354.204C-4.37208 357.317 -0.716132 358.846 2.65599 357.619C6.02812 356.391 7.84394 352.871 6.71079 349.758C5.57764 346.645 1.92388 345.115 -1.44825 346.342C-4.82037 347.57 -6.63836 351.091 -5.50523 354.204ZM-135.454 354.104C-137.012 354.671 -138.733 353.869 -139.3 352.311C-139.866 350.756 -139.064 349.033 -137.506 348.466C-135.949 347.899 -134.228 348.704 -133.661 350.259C-133.094 351.817 -133.897 353.537 -135.454 354.104ZM128.933 223.747C129.782 226.082 132.364 227.286 134.699 226.436C137.034 225.587 138.24 223.004 137.39 220.668C136.54 218.333 133.956 217.129 131.621 217.979C129.286 218.829 128.083 221.411 128.933 223.747ZM216.593 43.153C211.663 44.9475 206.212 42.4052 204.417 37.4741C202.623 32.545 205.165 27.0934 210.095 25.2988C215.024 23.505 220.477 26.0467 222.271 30.9758C224.066 35.9068 221.522 41.3591 216.593 43.153ZM41.5643 261.806C42.4141 264.141 44.9957 265.346 47.333 264.496C49.6684 263.646 50.8714 261.063 50.0216 258.728C49.1718 256.393 46.5902 255.188 44.2548 256.038C41.9175 256.889 40.7146 259.472 41.5643 261.806ZM41.2647 276.147C39.3503 275.042 36.9048 275.699 35.8006 277.611C34.6954 279.525 35.3503 281.97 37.2647 283.075C39.1791 284.18 41.6236 283.525 42.7288 281.611C43.833 279.699 43.1791 277.252 41.2647 276.147ZM6.33601 355.612C8.54579 351.784 13.4395 350.474 17.2647 352.683C21.0917 354.892 22.4022 359.784 20.1924 363.612C17.9837 367.438 13.0917 368.749 9.26472 366.539C5.43952 364.331 4.12724 359.438 6.33601 355.612ZM12.2636 244.378C11.0693 243.689 9.6518 243.905 9.10018 244.86C8.54751 245.817 9.06928 247.153 10.2636 247.842C11.4602 248.533 12.8776 248.317 13.4303 247.36C13.9819 246.405 13.4602 245.069 12.2636 244.378ZM45.6671 246.11C46.4951 244.676 48.3298 244.185 49.7655 245.013C51.1996 245.841 51.6912 247.676 50.8633 249.11C50.0344 250.546 48.1996 251.038 46.7655 250.21C45.3298 249.381 44.8382 247.546 45.6671 246.11ZM52.7647 278.013C51.3316 277.186 49.4949 277.676 48.6672 279.11C47.8384 280.546 48.3316 282.382 49.7647 283.209C51.1979 284.037 53.0346 283.546 53.8633 282.11C54.691 280.676 54.1979 278.84 52.7647 278.013ZM-32.1988 269.61C-31.0942 267.697 -28.6495 267.042 -26.7343 268.147C-24.8211 269.252 -24.166 271.697 -25.2706 273.61C-26.3753 275.523 -28.8211 276.18 -30.7343 275.076C-32.6495 273.97 -33.3035 271.523 -32.1988 269.61ZM-105.236 381.012C-106.67 380.184 -108.505 380.676 -109.333 382.111C-110.162 383.546 -109.67 385.381 -108.236 386.209C-106.802 387.037 -104.965 386.546 -104.137 385.111C-103.309 383.676 -103.802 381.84 -105.236 381.012ZM-87.3644 299.861C-85.7079 296.992 -81.842 296.121 -78.7343 297.915C-75.6265 299.71 -74.4495 303.492 -76.1061 306.361C-77.7627 309.23 -81.6265 310.102 -84.7343 308.308C-87.842 306.514 -89.021 302.73 -87.3644 299.861ZM-40.2353 203.013C-41.6709 202.184 -43.5045 202.675 -44.3334 204.111C-45.1611 205.545 -44.6709 207.38 -43.2353 208.209C-41.7997 209.038 -39.9649 208.545 -39.1372 207.111C-38.3083 205.675 -38.7997 203.842 -40.2353 203.013ZM136.868 473.861C138.11 471.709 140.862 470.971 143.014 472.213C145.166 473.456 145.904 476.209 144.662 478.361C143.419 480.513 140.666 481.25 138.514 480.008C136.362 478.765 135.625 476.013 136.868 473.861ZM207.515 522.884C202.971 520.26 197.161 521.817 194.537 526.362C191.914 530.905 193.471 536.715 198.015 539.338C202.557 541.961 208.369 540.405 210.991 535.862C213.615 531.317 212.057 525.506 207.515 522.884ZM-80.1324 364.861C-78.8901 362.709 -76.1384 361.971 -73.9844 363.214C-71.8321 364.457 -71.0958 367.209 -72.3382 369.361C-73.5805 371.513 -76.3321 372.251 -78.4844 371.009C-80.6384 369.765 -81.3747 367.013 -80.1324 364.861Z" fill="white"/>
</g>
<defs>
<filter id="filter0_d" x="-256.455" y="-47.7148" width="780.455" height="931.167" filterUnits="userSpaceOnUse" color-interpolation-filters="sRGB">
<feFlood flood-opacity="0" result="BackgroundImageFix"/>
<feColorMatrix in="SourceAlpha" type="matrix" values="0 0 0 0 0 0 0 0 0 0 0 0 0 0 0 0 0 0 127 0"/>
<feOffset dy="4"/>
<feGaussianBlur stdDeviation="2"/>
<feColorMatrix type="matrix" values="0 0 0 0 0 0 0 0 0 0 0 0 0 0 0 0 0 0 0.25 0"/>
<feBlend mode="normal" in2="BackgroundImageFix" result="effect1_dropShadow"/>
<feBlend mode="normal" in="SourceGraphic" in2="effect1_dropShadow" result="shape"/>
</filter>
</defs>
</svg>
