<svg width="709" height="691" viewBox="0 0 709 691" fill="none" xmlns="http://www.w3.org/2000/svg">
<g opacity="0.15">
<path fill-rule="evenodd" clip-rule="evenodd" d="M329.309 446.994C282.595 438.757 340.782 365.321 318.735 328.695C282.272 268.108 211.026 299.428 215.752 272.625C222.017 237.092 242.425 216.319 270.638 206.084C298.854 195.848 334.874 196.15 372.374 202.762C447.371 215.986 505.418 242.3 492.887 313.369C486.621 348.903 464.475 385.615 434.523 411.792C404.57 437.968 366.809 453.606 329.309 446.994Z" stroke="url(#paint0_linear)"/>
<path fill-rule="evenodd" clip-rule="evenodd" d="M436.909 415.562C401.236 445.602 370.954 463.476 330.152 456.282C280.944 447.605 330.886 375.508 307.892 336.783C272.544 277.252 205.285 303.191 210.298 274.76C217.684 232.868 239.703 215.789 274.053 201.694C302.836 189.885 340.054 192.62 377.633 201.05C397.101 205.463 415.416 210.592 431.243 216.829C472.424 233.056 500.316 252.176 503.032 293.936C503.463 301.058 502.944 308.583 501.457 316.561C494.471 353.531 467.427 389.863 436.909 415.562Z" stroke="url(#paint1_linear)"/>
<path fill-rule="evenodd" clip-rule="evenodd" d="M436.684 417.79C395.333 451.729 372.655 471.899 328.694 464.148C277.163 455.062 318.764 384.222 294.936 343.377C260.818 284.893 197.771 305.495 203.076 275.409C211.592 227.109 235.215 213.825 275.535 195.694C304.936 182.473 343.117 187.348 380.623 197.656C400.154 203.023 418.472 209.074 433.907 215.795C476.553 234.368 505.07 250.091 508.785 294.749C509.405 302.204 508.859 309.961 507.268 318.079C499.558 356.523 467.558 392.45 436.684 417.79Z" stroke="url(#paint2_linear)"/>
<path fill-rule="evenodd" clip-rule="evenodd" d="M438.068 420.409C390.768 458.11 375.639 480.549 328.234 472.19C274.046 462.635 307.451 393.222 282.598 350.281C249.38 292.889 190.217 308.023 195.806 276.329C205.439 221.697 230.87 212.368 277.309 190.179C307.585 175.713 346.876 182.722 384.562 194.892C404.281 201.259 422.719 208.264 437.879 215.444C482.28 236.474 511.518 248.727 516.424 296.232C517.226 304.009 516.705 311.993 514.986 320.233C506.672 360.104 469.369 395.456 438.068 420.409Z" stroke="url(#paint3_linear)"/>
<path fill-rule="evenodd" clip-rule="evenodd" d="M439.647 422.883C386.435 464.449 378.963 489.258 328.257 480.318C271.579 470.324 296.711 402.158 270.959 357.039C238.776 300.658 183.706 310.397 189.591 277.017C200.366 215.913 227.62 210.586 279.998 184.154C311.131 168.444 351.347 177.512 389.09 191.532C408.928 198.901 427.408 206.886 442.253 214.495C488.235 238.061 518.098 246.764 524.157 297.223C525.132 305.339 524.609 313.564 522.78 321.95C513.755 363.332 471.247 398.199 439.647 422.883Z" stroke="url(#paint4_linear)"/>
<path fill-rule="evenodd" clip-rule="evenodd" d="M440.257 426.245C381.225 471.641 381.454 498.837 327.6 489.341C268.603 478.938 285.423 412.085 258.877 364.829C227.808 309.525 177.004 313.853 183.183 278.81C195.093 211.262 224.16 210.012 282.257 179.252C314.206 162.336 355.181 173.415 392.869 189.256C412.769 197.621 431.219 206.597 445.722 214.597C493.104 240.74 523.532 245.795 530.714 299.171C531.851 307.618 531.329 316.078 529.393 324.602C519.663 367.467 472.034 401.81 440.257 426.245Z" stroke="url(#paint5_linear)"/>
<path fill-rule="evenodd" clip-rule="evenodd" d="M441.75 428.034C376.593 476.974 384.623 506.503 327.315 496.398C265.659 485.527 274.134 420.233 246.591 370.953C216.359 316.862 169.573 315.684 176.023 279.105C189.026 205.361 220.129 208.293 284.144 173.344C317.087 155.358 359.03 168.454 396.896 186.117C416.976 195.482 435.497 205.464 449.765 213.834C498.797 242.597 530.001 243.98 538.445 300.106C539.763 308.86 539.25 317.525 537.213 326.16C526.786 370.346 473.804 403.958 441.75 428.034Z" stroke="url(#paint6_linear)"/>
<path fill-rule="evenodd" clip-rule="evenodd" d="M443.133 431.593C371.913 484.222 387.772 516.198 327.16 505.51C263.017 494.2 263.153 430.277 234.745 378.866C205.465 325.878 162.852 319.246 169.591 281.027C183.722 200.888 216.849 208.03 286.591 168.696C320.484 149.58 363.243 164.67 401.174 184.156C421.371 194.53 439.89 205.539 453.892 214.269C504.363 245.737 536.302 243.371 545.946 302.383C547.432 311.465 546.923 320.359 544.783 329.127C533.637 374.761 475.382 407.763 443.133 431.593Z" stroke="url(#paint7_linear)"/>
<path fill-rule="evenodd" clip-rule="evenodd" d="M442.941 433.876C365.772 490.172 389.439 524.615 325.691 513.374C259.229 501.655 251.049 439.133 221.888 385.612C193.636 333.761 155.315 321.683 162.341 281.834C177.597 195.313 212.714 206.693 287.957 162.909C322.742 142.668 366.176 159.723 404.075 181.008C424.33 192.382 442.78 204.417 456.498 213.488C508.201 247.678 540.852 241.5 551.654 303.38C553.298 312.786 552.791 321.907 550.549 330.807C538.689 377.878 475.293 410.273 442.941 433.876Z" stroke="url(#paint8_linear)"/>
<path fill-rule="evenodd" clip-rule="evenodd" d="M445.378 435.909C361.912 495.568 393.603 532.457 326.39 520.606C257.271 508.418 240.635 447.446 210.522 391.919C183.074 341.302 148.855 323.768 156.148 282.407C172.482 189.77 209.827 205.434 290.826 157.393C326.658 136.14 370.984 155.165 409.069 178.236C429.494 190.607 447.971 203.667 461.496 213.063C514.664 249.995 548.234 240.032 560.343 304.626C562.163 314.333 561.671 323.654 559.331 332.659C546.757 381.021 477.946 412.629 445.378 435.909Z" stroke="url(#paint9_linear)"/>
<path fill-rule="evenodd" clip-rule="evenodd" d="M446.81 439.233C357.09 502.628 396.76 542.153 326.243 529.718C254.633 517.092 229.619 457.384 198.718 399.603C172.19 350.004 142.197 326.969 149.796 283.876C167.296 184.628 206.818 204.645 293.416 151.959C330.256 129.547 375.331 150.574 413.491 175.495C434.021 188.904 452.453 203.033 465.757 212.777C520.149 252.607 554.641 238.725 567.955 306.343C569.934 316.398 569.418 325.962 566.997 335.128C553.53 385.011 479.541 416.104 446.81 439.233Z" stroke="url(#paint10_linear)"/>
<path fill-rule="evenodd" clip-rule="evenodd" d="M446.628 441.554C350.829 508.474 398.417 550.568 324.77 537.582C250.842 524.547 217.498 466.283 185.899 406.398C160.339 357.956 134.65 329.463 142.533 284.755C161.153 179.156 202.795 203.508 294.734 146.289C332.505 122.783 378.206 145.758 416.355 172.467C436.938 186.877 455.27 202.048 468.339 212.111C523.751 254.771 559.152 236.967 573.644 307.428C575.778 317.804 575.27 327.591 572.748 336.887C558.575 388.19 479.433 418.637 446.628 441.554Z" stroke="url(#paint11_linear)"/>
<path fill-rule="evenodd" clip-rule="evenodd" d="M448.301 443.496C346.228 513.652 401.911 558.292 324.965 544.725C248.548 531.25 206.747 474.538 174.356 412.664C149.648 365.471 128.184 331.578 136.332 285.37C156.022 173.703 199.932 202.384 297.321 140.827C336.092 116.319 382.524 141.221 420.777 169.68C441.469 185.075 459.745 201.265 472.628 211.629C529.145 257.086 565.429 235.42 581.35 308.558C583.628 319.233 583.156 329.218 580.535 338.618C565.67 391.205 481.229 420.863 448.301 443.496Z" stroke="url(#paint12_linear)"/>
<path fill-rule="evenodd" clip-rule="evenodd" d="M449.474 446.783C340.801 520.512 404.753 567.932 324.334 553.752C245.258 539.809 194.888 484.397 161.684 420.251C137.79 374.094 120.535 334.649 128.987 286.717C149.842 168.439 196.148 201.59 299.206 135.335C339.086 109.696 386.278 136.654 424.767 166.944C445.575 183.407 463.846 200.666 476.583 211.373C534.24 259.845 571.766 234.168 588.927 310.331C591.379 321.353 590.911 331.584 588.181 341.135C572.562 395.265 482.604 424.306 449.474 446.783Z" stroke="url(#paint13_linear)"/>
<path fill-rule="evenodd" clip-rule="evenodd" d="M450.407 448.617C335.56 525.515 407.561 575.535 324.017 560.804C242.623 546.452 183.722 492.634 150.019 426.484C126.926 381.603 114.067 336.776 122.783 287.349C144.704 163.028 193.238 200.513 301.482 129.866C342.301 103.224 390.119 132.055 428.603 164.09C449.479 181.513 467.618 199.791 480.163 210.792C538.64 262.07 577.316 232.487 595.649 311.311C598.265 322.628 597.803 333.059 594.978 342.714C578.679 398.126 483.589 426.401 450.407 448.617Z" stroke="url(#paint14_linear)"/>
<path fill-rule="evenodd" clip-rule="evenodd" d="M323.861 569.916C186.207 545.644 93.3298 419.83 116.416 288.903C139.502 157.976 190.381 199.959 304.043 124.544C368.695 81.6455 449.239 178.472 484.39 210.642C543.727 264.948 583.718 231.295 603.228 313.126C622.159 392.52 490.877 426.084 451.83 451.959C330.481 532.372 410.705 585.229 323.861 569.916Z" stroke="url(#paint15_linear)"/>
</g>
<path fill-rule="evenodd" clip-rule="evenodd" d="M138.915 220.522C140.472 221.089 142.194 220.286 142.761 218.729C143.327 217.172 142.524 215.451 140.968 214.884C139.411 214.317 137.689 215.12 137.122 216.677C136.556 218.234 137.358 219.955 138.915 220.522Z" fill="#0090D6"/>
<path fill-rule="evenodd" clip-rule="evenodd" d="M219.937 416.023C221.494 416.59 223.215 415.787 223.782 414.23C224.349 412.673 223.546 410.952 221.989 410.385C220.432 409.818 218.711 410.621 218.144 412.178C217.577 413.735 218.38 415.456 219.937 416.023Z" fill="#0090D6"/>
<path fill-rule="evenodd" clip-rule="evenodd" d="M543.132 298.473C545.467 299.323 548.05 298.119 548.9 295.784C549.75 293.448 548.545 290.866 546.21 290.016C543.875 289.166 541.292 290.37 540.442 292.706C539.592 295.041 540.796 297.623 543.132 298.473Z" fill="#0090D6"/>
<path fill-rule="evenodd" clip-rule="evenodd" d="M124.634 413.261C126.969 414.111 129.552 412.907 130.402 410.572C131.252 408.236 130.047 405.654 127.712 404.804C125.377 403.954 122.794 405.158 121.944 407.493C121.094 409.829 122.298 412.411 124.634 413.261Z" fill="#0090D6"/>
<path fill-rule="evenodd" clip-rule="evenodd" d="M224.462 424.055C225.5 424.433 226.648 423.898 227.026 422.86C227.404 421.822 226.869 420.674 225.831 420.297C224.793 419.919 223.645 420.454 223.267 421.492C222.889 422.53 223.425 423.678 224.462 424.055Z" fill="#0090D6"/>
<path fill-rule="evenodd" clip-rule="evenodd" d="M358.828 508.078C360.385 508.645 362.107 507.842 362.674 506.285C363.24 504.728 362.438 503.007 360.881 502.44C359.324 501.874 357.602 502.676 357.035 504.233C356.469 505.79 357.272 507.512 358.828 508.078Z" fill="#0090D6"/>
<path fill-rule="evenodd" clip-rule="evenodd" d="M541.342 282.924C542.121 283.207 542.982 282.805 543.265 282.027C543.548 281.249 543.147 280.388 542.369 280.104C541.59 279.821 540.729 280.223 540.446 281.001C540.163 281.779 540.564 282.64 541.342 282.924Z" fill="#0090D6"/>
<path fill-rule="evenodd" clip-rule="evenodd" d="M357.004 175.391C357.782 175.674 358.643 175.273 358.926 174.494C359.21 173.716 358.808 172.855 358.03 172.572C357.251 172.289 356.39 172.69 356.107 173.468C355.824 174.247 356.225 175.108 357.004 175.391Z" fill="#0090D6"/>
<path fill-rule="evenodd" clip-rule="evenodd" d="M401.608 152.251C402.387 152.534 403.247 152.133 403.531 151.355C403.814 150.576 403.413 149.715 402.634 149.432C401.856 149.149 400.995 149.55 400.712 150.328C400.428 151.107 400.83 151.968 401.608 152.251Z" fill="#0090D6"/>
<path fill-rule="evenodd" clip-rule="evenodd" d="M276.135 188.524C277.692 189.091 279.414 188.288 279.98 186.731C280.547 185.174 279.744 183.453 278.187 182.886C276.63 182.319 274.909 183.122 274.342 184.679C273.775 186.236 274.578 187.958 276.135 188.524Z" fill="#0090D6"/>
<path fill-rule="evenodd" clip-rule="evenodd" d="M133.136 264.178C133.915 264.462 134.776 264.06 135.059 263.282C135.342 262.503 134.941 261.642 134.162 261.359C133.384 261.076 132.523 261.477 132.24 262.256C131.957 263.034 132.358 263.895 133.136 264.178Z" fill="#0090D6"/>
<defs>
<linearGradient id="paint0_linear" x1="138.479" y1="260.601" x2="232.751" y2="529.676" gradientUnits="userSpaceOnUse">
<stop stop-color="#FB2059"/>
<stop offset="0.602402" stop-color="#8138E9"/>
<stop offset="1" stop-color="#12CAF9"/>
</linearGradient>
<linearGradient id="paint1_linear" x1="129.405" y1="260.75" x2="228.09" y2="543.012" gradientUnits="userSpaceOnUse">
<stop stop-color="#FB2059"/>
<stop offset="0.602402" stop-color="#8138E9"/>
<stop offset="1" stop-color="#12CAF9"/>
</linearGradient>
<linearGradient id="paint2_linear" x1="118.917" y1="259.017" x2="223.096" y2="554.755" gradientUnits="userSpaceOnUse">
<stop stop-color="#FB2059"/>
<stop offset="0.602402" stop-color="#8138E9"/>
<stop offset="1" stop-color="#12CAF9"/>
</linearGradient>
<linearGradient id="paint3_linear" x1="107.879" y1="257.187" x2="216.893" y2="567.152" gradientUnits="userSpaceOnUse">
<stop stop-color="#FB2059"/>
<stop offset="0.602402" stop-color="#8138E9"/>
<stop offset="1" stop-color="#12CAF9"/>
</linearGradient>
<linearGradient id="paint4_linear" x1="98.2049" y1="254.982" x2="213.138" y2="579.452" gradientUnits="userSpaceOnUse">
<stop stop-color="#FB2059"/>
<stop offset="0.602402" stop-color="#8138E9"/>
<stop offset="1" stop-color="#12CAF9"/>
</linearGradient>
<linearGradient id="paint5_linear" x1="88.6326" y1="253.811" x2="209.818" y2="592.393" gradientUnits="userSpaceOnUse">
<stop stop-color="#FB2059"/>
<stop offset="0.602402" stop-color="#8138E9"/>
<stop offset="1" stop-color="#12CAF9"/>
</linearGradient>
<linearGradient id="paint6_linear" x1="77.7682" y1="250.996" x2="203.788" y2="603.81" gradientUnits="userSpaceOnUse">
<stop stop-color="#FB2059"/>
<stop offset="0.602402" stop-color="#8138E9"/>
<stop offset="1" stop-color="#12CAF9"/>
</linearGradient>
<linearGradient id="paint7_linear" x1="67.9205" y1="249.776" x2="199.862" y2="617.08" gradientUnits="userSpaceOnUse">
<stop stop-color="#FB2059"/>
<stop offset="0.602402" stop-color="#8138E9"/>
<stop offset="1" stop-color="#12CAF9"/>
</linearGradient>
<linearGradient id="paint8_linear" x1="57.5377" y1="247.446" x2="195.736" y2="628.841" gradientUnits="userSpaceOnUse">
<stop stop-color="#FB2059"/>
<stop offset="0.602402" stop-color="#8138E9"/>
<stop offset="1" stop-color="#12CAF9"/>
</linearGradient>
<linearGradient id="paint9_linear" x1="47.6577" y1="244.805" x2="190.689" y2="640.436" gradientUnits="userSpaceOnUse">
<stop stop-color="#FB2059"/>
<stop offset="0.602402" stop-color="#8138E9"/>
<stop offset="1" stop-color="#12CAF9"/>
</linearGradient>
<linearGradient id="paint10_linear" x1="37.9155" y1="242.988" x2="187.629" y2="653.734" gradientUnits="userSpaceOnUse">
<stop stop-color="#FB2059"/>
<stop offset="0.602402" stop-color="#8138E9"/>
<stop offset="1" stop-color="#12CAF9"/>
</linearGradient>
<linearGradient id="paint11_linear" x1="27.5327" y1="240.658" x2="183.506" y2="665.473" gradientUnits="userSpaceOnUse">
<stop stop-color="#FB2059"/>
<stop offset="0.602402" stop-color="#8138E9"/>
<stop offset="1" stop-color="#12CAF9"/>
</linearGradient>
<linearGradient id="paint12_linear" x1="17.9272" y1="238.065" x2="179.068" y2="676.719" gradientUnits="userSpaceOnUse">
<stop stop-color="#FB2059"/>
<stop offset="0.602402" stop-color="#8138E9"/>
<stop offset="1" stop-color="#12CAF9"/>
</linearGradient>
<linearGradient id="paint13_linear" x1="6.92618" y1="236.026" x2="174.416" y2="690.178" gradientUnits="userSpaceOnUse">
<stop stop-color="#FB2059"/>
<stop offset="0.602402" stop-color="#8138E9"/>
<stop offset="1" stop-color="#12CAF9"/>
</linearGradient>
<linearGradient id="paint14_linear" x1="-2.40393" y1="233.482" x2="170.59" y2="701.064" gradientUnits="userSpaceOnUse">
<stop stop-color="#FB2059"/>
<stop offset="0.602402" stop-color="#8138E9"/>
<stop offset="1" stop-color="#12CAF9"/>
</linearGradient>
<linearGradient id="paint15_linear" x1="-12.1461" y1="231.664" x2="167.535" y2="714.327" gradientUnits="userSpaceOnUse">
<stop stop-color="#FB2059"/>
<stop offset="0.602402" stop-color="#8138E9"/>
<stop offset="1" stop-color="#12CAF9"/>
</linearGradient>
</defs>
</svg>
