<svg width="60" height="42" viewBox="0 0 60 42" fill="none" xmlns="http://www.w3.org/2000/svg">
<path fill-rule="evenodd" clip-rule="evenodd" d="M43.7594 41.9652C51.9256 42.4646 56.6589 37.2293 56.6589 31.672C56.6589 26.6893 53.6727 22.6056 49.8664 21.4768L49.572 21.3929L49.2526 21.3097C47.2415 20.8125 45.4416 20.8822 42.6402 21.3698L42.6154 21.3741L42.6632 21.144L42.7664 20.7267C43.0637 19.6213 43.5362 18.5737 44.1855 17.5802C45.2378 15.9698 46.5433 14.561 48.1055 13.3507C49.6857 12.1265 51.4455 11.1053 53.3873 10.2866C55.3573 9.45601 57.3041 8.81522 59.2279 8.36358C59.8638 8.21432 60.1882 7.50555 59.8856 6.92676L56.5451 0.536766L56.4785 0.427177C56.2602 0.114532 55.8789 -0.0500565 55.4954 0.0135078C52.6 0.493309 49.6891 1.41111 46.7639 2.76468C43.8267 4.12377 41.1644 5.88377 38.7799 8.04297C36.3784 10.2175 34.427 12.795 32.9286 15.77C31.4133 18.7785 30.6565 22.1083 30.6565 25.7468C30.6565 35.681 36.9729 41.5501 43.7594 41.9652ZM13.1022 41.9652C21.2684 42.4646 26.0017 37.2293 26.0017 31.672C26.0017 26.6893 23.0156 22.6056 19.2092 21.4768L18.9149 21.3929L18.5954 21.3097C16.5844 20.8125 14.7845 20.8822 11.9831 21.3698L11.9584 21.3741L12.0061 21.144L12.1093 20.7267C12.4065 19.6213 12.8791 18.5737 13.5284 17.5802C14.5806 15.9698 15.8861 14.561 17.4484 13.3507C19.0285 12.1265 20.7884 11.1053 22.7302 10.2866C24.7002 9.45601 26.647 8.81522 28.5708 8.36358C29.2066 8.21432 29.531 7.50555 29.2284 6.92676L25.8879 0.536766L25.8214 0.427177C25.6031 0.114532 25.2218 -0.0500565 24.8382 0.0135078C21.9429 0.493309 19.032 1.41111 16.1067 2.76468C13.1695 4.12377 10.5073 5.88377 8.12274 8.04297C5.72125 10.2175 3.76986 12.795 2.27143 15.77C0.75613 18.7785 -0.000617981 22.1083 -0.000617981 25.7468C-0.000617981 35.681 6.31573 41.5501 13.1022 41.9652ZM13.2243 39.9689C20.1601 40.3931 24.0017 36.144 24.0017 31.672C24.0017 27.567 21.5901 24.2689 18.6406 23.3943C16.6473 22.8032 14.9667 22.8584 11.9252 23.4115L10.9581 23.5927C10.3096 23.7145 9.72299 23.1858 9.77686 22.5282C9.95546 20.3481 10.6497 18.3293 11.8541 16.4861C13.0289 14.6884 14.4865 13.1153 16.2235 11.7696C17.9427 10.4377 19.8533 9.32901 21.9532 8.44369C23.3343 7.8614 24.7073 7.36689 26.0723 6.96035L26.7541 6.7644L26.8714 6.73405L24.4564 2.11506L23.911 2.22354C22.0502 2.61813 20.1774 3.20643 18.292 3.98917L17.5844 4.29181L16.9466 4.57978C14.1925 5.85416 11.6997 7.50212 9.46517 9.52549C7.24763 11.5335 5.44612 13.913 4.05766 16.6697C2.68606 19.3929 1.99938 22.4143 1.99938 25.7468C1.99938 34.5606 7.43905 39.6151 13.2243 39.9689ZM54.6589 31.672C54.6589 36.144 50.8173 40.3931 43.8815 39.9689C38.0962 39.6151 32.6565 34.5606 32.6565 25.7468C32.6565 22.4143 33.3432 19.3929 34.7148 16.6697C36.1033 13.913 37.9048 11.5335 40.1223 9.52549C42.3568 7.50212 44.8496 5.85416 47.6037 4.57978L48.2416 4.29181L48.9492 3.98917C50.8345 3.20643 52.7074 2.61813 54.5681 2.22354L55.1134 2.11506L57.5284 6.73405L57.4112 6.7644L56.7294 6.96035C55.3645 7.36689 53.9914 7.8614 52.6103 8.44369C50.5105 9.32901 48.5999 10.4377 46.8807 11.7696C45.1437 13.1153 43.686 14.6884 42.5113 16.4861C41.3068 18.3293 40.6126 20.3481 40.434 22.5282C40.3801 23.1858 40.9667 23.7145 41.6153 23.5927L42.5824 23.4115C45.6238 22.8584 47.3044 22.8032 49.2978 23.3943C52.2473 24.2689 54.6589 27.567 54.6589 31.672Z" fill="#FD574C"/>
</svg>
