<svg width="375" height="1219" viewBox="0 0 375 1219" fill="none" xmlns="http://www.w3.org/2000/svg">
<mask id="mask0" mask-type="alpha" maskUnits="userSpaceOnUse" x="0" y="0" width="376" height="1219">
<rect x="0.200195" width="375" height="1219" fill="white"/>
</mask>
<g mask="url(#mask0)">
<path fill-rule="evenodd" clip-rule="evenodd" d="M488.812 1635.47C500.656 1624.24 759.398 1643.62 698.879 1488.78C591.587 1214.27 739.197 1050.67 669.907 1010.13C613.148 976.923 447.007 1087.11 379.855 1039.25C312.702 991.389 239.352 1128.54 136.122 1157.46C32.8924 1186.38 -80.316 1223.28 -157.415 1327.47C-212.312 1401.66 -95.1407 1441.6 -237.111 1518.42C-291.354 1547.77 -342.3 1370.93 -353.735 1432.05C-370.476 1521.53 -475.195 1516.25 -475.195 1516.25C-475.195 1516.25 -163.053 1750.83 -75.7307 1790.08C11.5879 1829.33 40.2197 1883.8 40.2197 1883.8L488.812 1635.47Z" fill="#1D252D"/>
<path fill-rule="evenodd" clip-rule="evenodd" d="M261.826 772.585C261.07 774.661 258.776 775.732 256.699 774.976C254.622 774.22 253.553 771.924 254.308 769.849C255.064 767.772 257.358 766.702 259.435 767.459C261.512 768.215 262.582 770.508 261.826 772.585ZM464.26 894.48C462.748 898.633 458.156 900.773 454.005 899.262C449.853 897.751 447.713 893.161 449.224 889.008C450.735 884.856 455.325 882.716 459.478 884.227C463.628 885.738 465.77 890.329 464.26 894.48ZM631.661 1031.66C632.956 1032.13 634.315 1031.67 634.692 1030.63C635.07 1029.59 634.325 1028.37 633.029 1027.9C631.73 1027.42 630.372 1027.88 629.994 1028.92C629.616 1029.96 630.362 1031.18 631.661 1031.66ZM250.618 913.263C250.051 914.819 248.33 915.622 246.772 915.055C245.216 914.489 244.413 912.767 244.98 911.211C245.547 909.653 247.268 908.851 248.824 909.417C250.382 909.984 251.185 911.705 250.618 913.263ZM238.088 883.078C239.643 883.644 241.367 882.841 241.933 881.286C242.5 879.728 241.695 878.005 240.14 877.439C238.585 876.873 236.862 877.676 236.295 879.233C235.728 880.789 236.533 882.512 238.088 883.078ZM517.143 972.484C516.387 974.56 514.094 975.629 512.015 974.873C509.939 974.117 508.87 971.823 509.625 969.747C510.381 967.671 512.676 966.6 514.752 967.355C516.83 968.112 517.899 970.408 517.143 972.484ZM537.405 834.11C538.962 834.677 540.683 833.874 541.25 832.317C541.816 830.76 541.014 829.038 539.458 828.472C537.901 827.906 536.178 828.708 535.611 830.265C535.045 831.821 535.849 833.544 537.405 834.11ZM594.878 962.754C593.745 965.867 590.089 967.396 586.717 966.169C583.344 964.941 581.529 961.421 582.662 958.308C583.795 955.194 587.449 953.665 590.821 954.892C594.193 956.12 596.011 959.641 594.878 962.754ZM724.827 962.654C726.385 963.221 728.105 962.419 728.672 960.861C729.238 959.306 728.437 957.583 726.879 957.016C725.321 956.449 723.6 957.254 723.034 958.809C722.467 960.367 723.269 962.087 724.827 962.654ZM460.44 832.296C459.59 834.632 457.008 835.836 454.673 834.986C452.339 834.136 451.133 831.553 451.983 829.218C452.833 826.883 455.417 825.679 457.752 826.529C460.086 827.379 461.29 829.961 460.44 832.296ZM372.779 651.703C377.71 653.497 383.161 650.955 384.956 646.024C386.75 641.095 384.208 635.643 379.278 633.849C374.349 632.055 368.896 634.596 367.102 639.526C365.307 644.457 367.851 649.909 372.779 651.703ZM547.808 870.356C546.958 872.691 544.377 873.896 542.04 873.045C539.704 872.195 538.501 869.613 539.351 867.278C540.201 864.943 542.782 863.738 545.118 864.588C547.455 865.439 548.658 868.021 547.808 870.356ZM548.108 884.697C550.022 883.591 552.468 884.248 553.572 886.161C554.677 888.075 554.022 890.52 552.108 891.625C550.193 892.73 547.749 892.075 546.644 890.161C545.54 888.248 546.193 885.802 548.108 884.697ZM583.037 964.162C580.827 960.334 575.933 959.024 572.108 961.233C568.281 963.442 566.97 968.334 569.18 972.162C571.389 975.987 576.281 977.299 580.108 975.089C583.933 972.881 585.245 967.987 583.037 964.162ZM577.109 852.928C578.303 852.239 579.721 852.455 580.272 853.41C580.825 854.367 580.303 855.703 579.109 856.392C577.912 857.083 576.495 856.867 575.942 855.91C575.391 854.955 575.912 853.619 577.109 852.928ZM543.705 854.66C542.877 853.226 541.043 852.734 539.607 853.563C538.173 854.391 537.681 856.226 538.509 857.66C539.338 859.096 541.173 859.587 542.607 858.759C544.043 857.93 544.534 856.096 543.705 854.66ZM536.608 886.563C538.041 885.735 539.878 886.226 540.705 887.66C541.534 889.095 541.041 890.931 539.608 891.759C538.175 892.586 536.338 892.095 535.509 890.66C534.682 889.226 535.175 887.39 536.608 886.563ZM621.571 878.16C620.467 876.247 618.022 875.592 616.107 876.697C614.194 877.802 613.539 880.247 614.643 882.16C615.748 884.073 618.194 884.73 620.107 883.625C622.022 882.52 622.676 880.073 621.571 878.16ZM694.609 989.562C696.043 988.734 697.878 989.226 698.706 990.661C699.534 992.096 699.043 993.93 697.609 994.758C696.175 995.586 694.338 995.096 693.51 993.661C692.681 992.226 693.175 990.39 694.609 989.562ZM676.737 908.411C675.08 905.542 671.215 904.671 668.107 906.465C664.999 908.26 663.822 912.042 665.479 914.911C667.135 917.78 670.999 918.652 674.107 916.858C677.215 915.063 678.394 911.28 676.737 908.411ZM629.608 811.563C631.043 810.734 632.877 811.225 633.706 812.661C634.534 814.094 634.043 815.93 632.608 816.759C631.172 817.588 629.337 817.094 628.51 815.661C627.681 814.225 628.172 812.392 629.608 811.563ZM452.505 1082.41C451.262 1080.26 448.511 1079.52 446.359 1080.76C444.207 1082.01 443.468 1084.76 444.711 1086.91C445.953 1089.06 448.707 1089.8 450.859 1088.56C453.011 1087.32 453.748 1084.56 452.505 1082.41ZM381.858 1131.43C386.402 1128.81 392.212 1130.37 394.836 1134.91C397.458 1139.45 395.902 1145.26 391.358 1147.89C386.816 1150.51 381.004 1148.95 378.381 1144.41C375.757 1139.87 377.316 1134.06 381.858 1131.43ZM669.505 973.411C668.263 971.259 665.511 970.521 663.357 971.764C661.205 973.007 660.468 975.759 661.711 977.911C662.953 980.063 665.705 980.801 667.857 979.558C670.011 978.315 670.747 975.563 669.505 973.411Z" fill="white"/>
</g>
</svg>
