<svg width="380" height="618" viewBox="0 30 380 618" fill="none" xmlns="http://www.w3.org/2000/svg">
<mask id="mask0" mask-type="alpha" maskUnits="userSpaceOnUse" x="0" y="30" width="380" height="618">
<path d="M0 60C0 43.4315 13.4315 30 30 30H350C366.569 30 380 43.4315 380 60V628C380 639.046 371.046 648 360 648H20C8.9543 648 0 639.046 0 628V60Z" fill="white"/>
</mask>
<g mask="url(#mask0)">
<path opacity="0.195917" fill-rule="evenodd" clip-rule="evenodd" d="M548.791 78.4683C543.297 74.6027 551.398 -48.4219 480.656 -3.49812C346.532 81.6757 253.014 1.87678 234.253 64.2707C225.53 93.2823 264.779 126.406 248.609 169.119C232.438 211.833 286.774 233.457 299.636 273.968C312.498 314.479 329.238 358.394 380.811 380.476C496.659 430.08 374.777 439.843 419.948 438.021C441.179 437.165 471.091 495.313 471.091 495.313C471.091 495.313 595.833 340.943 617.331 300.368C638.824 259.795 667.012 242.373 667.012 242.373L548.791 78.4683Z" fill="#99A2BD"/>
<path opacity="0.499" fill-rule="evenodd" clip-rule="evenodd" d="M323 136.5C323 138.433 321.433 140 319.5 140C317.567 140 316 138.433 316 136.5C316 134.568 317.567 133 319.5 133C321.433 133 323 134.568 323 136.5ZM325.5 166C326.328 166 327 165.329 327 164.5C327 163.672 326.328 163 325.5 163C324.672 163 324 163.672 324 164.5C324 165.329 324.672 166 325.5 166ZM311 256C311 256.552 310.552 257 310 257C309.448 257 309 256.552 309 256C309 255.448 309.448 255 310 255C310.552 255 311 255.448 311 256ZM376 267C376 267.553 375.553 268 375 268C374.448 268 374 267.553 374 267C374 266.447 374.448 266 375 266C375.553 266 376 266.447 376 267ZM320.5 251C321.328 251 322 250.329 322 249.5C322 248.671 321.328 248 320.5 248C319.672 248 319 248.671 319 249.5C319 250.329 319.672 251 320.5 251Z" fill="#99A2BD"/>
<path fill-rule="evenodd" clip-rule="evenodd" d="M109.23 481.661L107.3 479.308C106.98 479.488 106.722 479.778 106.585 480.156C106.285 480.979 106.69 481.88 107.494 482.172C108.13 482.404 108.819 482.175 109.23 481.661V481.661ZM103.432 473.405C103.452 473.349 103.46 473.295 103.474 473.241L101.937 471.335C101.363 471.388 100.832 471.778 100.613 472.379C100.317 473.192 100.705 474.08 101.485 474.364C102.263 474.647 103.136 474.218 103.432 473.405V473.405ZM92.4567 474.473C92.7406 473.693 92.3356 472.828 91.5564 472.544C90.7798 472.262 89.9215 472.667 89.6376 473.447C89.3547 474.224 89.7537 475.081 90.5303 475.363C91.3095 475.647 92.1738 475.25 92.4567 474.473V474.473ZM75.4512 468.471C75.7351 467.691 75.3369 466.828 74.5562 466.544C73.7755 466.26 72.916 466.665 72.6322 467.445C72.3492 468.222 72.7494 469.079 73.5301 469.363C74.3108 469.647 75.1683 469.248 75.4512 468.471V468.471ZM88.4549 458.469C88.7388 457.689 88.3349 456.828 87.5549 456.544C86.7776 456.261 85.9198 456.663 85.6359 457.443C85.353 458.22 85.7516 459.08 86.5289 459.363C87.3088 459.647 88.172 459.246 88.4549 458.469V458.469ZM113.453 497.465C113.737 496.685 113.334 495.827 112.554 495.543C111.773 495.259 110.918 495.659 110.634 496.439C110.35 497.219 110.747 498.078 111.527 498.362C112.308 498.646 113.169 498.245 113.453 497.465V497.465ZM78.4527 459.469C78.7363 458.69 78.3379 457.828 77.5572 457.544C76.7765 457.26 75.9173 457.664 75.6336 458.443C75.352 459.217 75.7504 460.079 76.5311 460.363C77.3118 460.647 78.171 460.243 78.4527 459.469V459.469ZM85.4555 467.47C85.7391 466.691 85.3359 465.828 84.5559 465.544C83.7786 465.261 82.92 465.665 82.6364 466.444C82.3537 467.221 82.7526 468.08 83.5299 468.363C84.3098 468.647 85.1728 468.247 85.4555 467.47V467.47ZM121.034 494.867C120.856 495.636 121.271 496.435 122.029 496.711C122.238 496.787 122.451 496.816 122.659 496.806L121.034 494.867ZM89.4587 483.467C89.7416 482.69 89.3356 481.828 88.5564 481.544C87.7798 481.262 86.9225 481.664 86.6396 482.441C86.3557 483.221 86.7537 484.081 87.5303 484.363C88.3095 484.647 89.1748 484.247 89.4587 483.467V483.467ZM72.4532 477.465C72.7361 476.688 72.3369 475.828 71.5562 475.544C70.7755 475.26 69.917 475.662 69.6341 476.439C69.3502 477.219 69.7494 478.079 70.5301 478.363C71.3108 478.647 72.1693 478.245 72.4532 477.465V477.465ZM71.455 452.469C71.7388 451.689 71.3429 450.83 70.5629 450.547C69.7829 450.263 68.9198 450.663 68.6359 451.443C68.353 452.22 68.7569 453.082 69.5369 453.366C70.3168 453.65 71.172 453.246 71.455 452.469V452.469ZM82.4544 476.468C82.7386 475.687 82.3339 474.828 81.5539 474.544C80.7766 474.261 79.9195 474.661 79.6354 475.442C79.3512 476.222 79.7506 477.08 80.5279 477.363C81.3078 477.647 82.1703 477.248 82.4544 476.468V476.468ZM65.4544 469.468C65.7386 468.687 65.3419 467.83 64.5619 467.547C63.7819 467.263 62.9195 467.661 62.6354 468.442C62.3512 469.222 62.7559 470.082 63.5359 470.366C64.3158 470.65 65.1703 470.248 65.4544 469.468V469.468ZM106.456 489.466C106.739 488.689 106.335 487.828 105.558 487.545C104.778 487.261 103.92 487.663 103.637 488.44C103.353 489.22 103.752 490.08 104.532 490.364C105.309 490.647 106.172 490.246 106.456 489.466V489.466ZM113.96 487.475C113.861 487.605 113.776 487.743 113.715 487.909C113.415 488.735 113.835 489.642 114.661 489.942C115.101 490.102 115.566 490.052 115.948 489.846L113.96 487.475ZM99.4544 482.468C99.7386 481.687 99.3339 480.828 98.5566 480.545C97.7766 480.261 96.9195 480.661 96.6354 481.442C96.3512 482.222 96.7506 483.08 97.5305 483.364C98.3078 483.647 99.1703 483.248 99.4544 482.468V482.468ZM68.4555 461.47C68.7391 460.691 68.3439 459.83 67.5639 459.547C66.784 459.263 65.92 459.665 65.6364 460.444C65.3537 461.221 65.7579 462.082 66.5379 462.366C67.3178 462.65 68.1728 462.247 68.4555 461.47V461.47ZM46.4559 521.466C46.7388 520.689 46.3429 519.83 45.5629 519.547C44.783 519.263 43.9198 519.663 43.6368 520.44C43.353 521.22 43.7569 522.082 44.5369 522.366C45.3168 522.65 46.172 522.246 46.4559 521.466V521.466ZM74.4587 526.467C74.7416 525.69 74.3356 524.828 73.5564 524.544C72.7798 524.262 71.9225 524.664 71.6396 525.441C71.3567 526.219 71.7537 527.081 72.5303 527.363C73.3095 527.647 74.1757 527.245 74.4587 526.467V526.467ZM56.4532 520.465C56.7361 519.688 56.3369 518.828 55.5562 518.544C54.7755 518.26 53.917 518.662 53.6341 519.439C53.3512 520.217 53.7494 521.079 54.5301 521.363C55.3108 521.647 56.1703 521.243 56.4532 520.465V520.465ZM81.6039 524.47C81.3635 525.131 81.6002 525.839 82.1288 526.225L84.2448 525.829C84.3146 525.728 84.3785 525.619 84.423 525.496C84.7119 524.702 84.3129 523.828 83.5356 523.545C82.7556 523.261 81.8928 523.676 81.6039 524.47V524.47ZM39.3296 514.42C39.6126 513.643 39.1826 512.772 38.3672 512.475C37.7661 512.257 37.1338 512.409 36.7218 512.814L36.3003 513.972C36.3558 514.547 36.7401 515.076 37.3412 515.294C38.1566 515.591 39.0467 515.198 39.3296 514.42V514.42ZM81.4522 451.468C81.7351 450.691 81.3369 449.828 80.5562 449.544C79.7755 449.26 78.916 449.665 78.6331 450.442C78.3502 451.219 78.7494 452.079 79.5301 452.363C80.3108 452.647 81.1693 452.245 81.4522 451.468V451.468ZM53.4532 528.465C53.7361 527.688 53.3369 526.828 52.5562 526.544C51.7755 526.26 50.917 526.662 50.6341 527.439C50.3502 528.219 50.7494 529.079 51.5301 529.363C52.3108 529.647 53.1693 529.245 53.4532 528.465V528.465ZM63.4559 527.466C63.7388 526.689 63.3349 525.828 62.5549 525.544C61.7776 525.261 60.9198 525.663 60.6368 526.44C60.353 527.22 60.7516 528.08 61.5289 528.363C62.3088 528.647 63.172 528.246 63.4559 527.466V527.466ZM43.4559 530.466C43.7388 529.689 43.3429 528.83 42.5629 528.547C41.7829 528.263 40.9198 528.663 40.6368 529.44C40.353 530.22 40.7569 531.082 41.5369 531.366C42.3168 531.65 43.172 531.246 43.4559 530.466V530.466ZM42.3296 505.42C42.6135 504.64 42.1826 503.772 41.3672 503.475C40.7661 503.257 40.1338 503.409 39.7208 503.817L39.2993 504.975C39.3558 505.547 39.7401 506.076 40.3412 506.294C41.1566 506.591 42.0467 506.198 42.3296 505.42V505.42ZM74.455 443.469C74.7388 442.689 74.3429 441.83 73.5629 441.547C72.7829 441.263 71.9198 441.663 71.6359 442.443C71.353 443.22 71.7569 444.082 72.5369 444.366C73.3168 444.65 74.172 444.246 74.455 443.469V443.469ZM64.3287 445.423C64.6116 444.646 64.1826 443.772 63.3673 443.475C62.7661 443.257 62.1319 443.415 61.7198 443.819L61.2984 444.977C61.3548 445.55 61.7401 446.076 62.3412 446.294C63.1566 446.591 64.0458 446.2 64.3287 445.423V445.423ZM58.3277 462.426C58.6116 461.646 58.1826 460.772 57.3673 460.475C56.7661 460.257 56.1319 460.415 55.7198 460.819L55.2993 461.975C55.3539 462.552 55.7401 463.076 56.3412 463.294C57.1566 463.591 58.0448 463.203 58.3277 462.426V462.426ZM61.3292 453.424C61.6128 452.645 61.1836 451.772 60.3683 451.475C59.7671 451.257 59.133 451.414 58.7211 451.819L58.3001 452.975C58.3557 453.55 58.7411 454.076 59.3422 454.294C60.1576 454.591 61.0475 454.198 61.3292 453.424V453.424ZM46.3287 496.423C46.6126 495.643 46.1826 494.772 45.3672 494.475C44.7661 494.257 44.1329 494.412 43.7198 494.819L43.2993 495.975C43.3548 496.55 43.7401 497.076 44.3412 497.294C45.1566 497.591 46.0458 497.2 46.3287 496.423V496.423ZM49.3287 488.423C49.6126 487.643 49.1826 486.772 48.3672 486.475C47.7661 486.257 47.1329 486.412 46.7208 486.817L46.3003 487.972C46.3548 488.55 46.7401 489.076 47.3412 489.294C48.1566 489.591 49.0458 489.2 49.3287 488.423V488.423ZM55.3296 470.42C55.6126 469.643 55.1826 468.772 54.3673 468.475C53.7661 468.257 53.1319 468.415 52.7208 468.817L52.2993 469.975C52.3548 470.55 52.7401 471.076 53.3412 471.294C54.1566 471.591 55.0458 471.2 55.3296 470.42V470.42ZM52.3296 479.42C52.6126 478.643 52.1826 477.772 51.3673 477.475C50.7661 477.257 50.1329 477.412 49.7198 477.819L49.2993 478.975C49.3548 479.55 49.7401 480.076 50.3412 480.294C51.1566 480.591 52.0458 480.2 52.3296 479.42V479.42ZM36.3296 522.42C36.6126 521.643 36.1826 520.772 35.3672 520.475C34.7661 520.257 34.1329 520.412 33.7218 520.814L33.3003 521.972C33.3558 522.547 33.7401 523.076 34.3412 523.294C35.1566 523.591 36.0458 523.2 36.3296 522.42V522.42ZM101.314 521.842C101.232 522.065 101.204 522.284 101.222 522.505L104.333 521.958C104.196 521.483 103.847 521.075 103.345 520.893C102.519 520.592 101.614 521.016 101.314 521.842V521.842ZM80.4577 509.47C80.7416 508.69 80.3356 507.828 79.5564 507.544C78.7798 507.262 77.9225 507.664 77.6386 508.444C77.3557 509.221 77.7537 510.081 78.5303 510.363C79.3095 510.647 80.1748 510.247 80.4577 509.47V509.47ZM87.4559 516.466C87.7398 515.686 87.3349 514.828 86.5576 514.545C85.7776 514.261 84.9207 514.66 84.6368 515.44C84.353 516.22 84.7516 517.08 85.5315 517.364C86.3088 517.647 87.172 517.246 87.4559 516.466V516.466ZM111.434 521.231L111.431 521.239L114.143 520.761C113.966 520.553 113.745 520.38 113.469 520.279C112.649 519.981 111.735 520.405 111.434 521.231V521.231ZM73.455 501.469C73.7388 500.689 73.3349 499.828 72.5549 499.544C71.7776 499.261 70.9198 499.663 70.6359 500.443C70.352 501.223 70.7516 502.08 71.5289 502.363C72.3088 502.647 73.1711 502.249 73.455 501.469V501.469ZM52.4559 504.466C52.7398 503.686 52.3429 502.83 51.5629 502.547C50.7829 502.263 49.9207 502.66 49.6368 503.44C49.353 504.22 49.7569 505.082 50.5369 505.366C51.3168 505.65 52.172 505.246 52.4559 504.466V504.466ZM96.4559 490.466C96.7398 489.686 96.3349 488.828 95.5576 488.545C94.7776 488.261 93.9207 488.66 93.6368 489.44C93.353 490.22 93.7516 491.08 94.5315 491.364C95.3088 491.647 96.172 491.246 96.4559 490.466V490.466ZM63.4522 503.468C63.7361 502.688 63.3369 501.828 62.5562 501.544C61.7755 501.26 60.917 501.662 60.6331 502.442C60.3502 503.219 60.7494 504.079 61.5301 504.363C62.3108 504.647 63.1693 504.245 63.4522 503.468V503.468ZM59.4532 511.465C59.7371 510.685 59.3369 509.828 58.5562 509.544C57.7755 509.26 56.918 509.659 56.6341 510.439C56.3512 511.217 56.7494 512.079 57.5301 512.363C58.3108 512.647 59.1703 512.243 59.4532 511.465V511.465ZM67.4574 519.465C67.7401 518.688 67.3359 517.828 66.5559 517.544C65.7786 517.261 64.921 517.662 64.6383 518.439C64.3547 519.218 64.7526 520.08 65.5299 520.363C66.3098 520.647 67.1738 520.244 67.4574 519.465V519.465ZM95.4582 466.471C95.6199 466.027 95.5494 465.559 95.3205 465.186L95.0198 464.821C94.8842 464.705 94.7329 464.608 94.5574 464.544C93.7808 464.262 92.9228 464.666 92.6391 465.445C92.3575 466.219 92.7547 467.081 93.5313 467.363C94.3105 467.647 95.1765 467.245 95.4582 466.471V466.471ZM68.3277 436.426C68.6116 435.646 68.1826 434.772 67.3673 434.475C66.7661 434.257 66.1319 434.415 65.7198 434.819L65.2993 435.975C65.3548 436.55 65.7401 437.076 66.3412 437.294C67.1566 437.591 68.0448 437.203 68.3277 436.426V436.426ZM70.4559 510.466C70.7398 509.686 70.3349 508.828 69.5549 508.544C68.7776 508.261 67.9207 508.66 67.6368 509.44C67.353 510.22 67.7516 511.08 68.5289 511.363C69.3088 511.647 70.172 511.246 70.4559 510.466V510.466ZM33.3306 531.418C33.6135 530.64 33.1826 529.772 32.3672 529.475C31.7661 529.257 31.1329 529.412 30.7208 529.817L30.3003 530.972C30.3558 531.547 30.7401 532.076 31.3412 532.294C32.1566 532.591 33.0467 532.198 33.3306 531.418V531.418ZM91.4697 523.626C91.3117 524.06 91.3517 524.512 91.5368 524.892L94.4078 524.325C94.5055 523.604 94.1201 522.902 93.4382 522.654C92.6486 522.366 91.7704 522.8 91.4697 523.626V523.626ZM77.4587 517.467C77.7426 516.687 77.3356 515.828 76.5564 515.544C75.7798 515.262 74.9235 515.661 74.6396 516.441C74.3567 517.219 74.7537 518.081 75.5303 518.363C76.3095 518.647 77.1757 518.245 77.4587 517.467V517.467ZM49.4574 512.465C49.7401 511.688 49.3439 510.83 48.5639 510.547C47.784 510.263 46.921 510.662 46.6383 511.439C46.3547 512.218 46.7579 513.082 47.5379 513.366C48.3178 513.65 49.1738 513.244 49.4574 512.465V512.465ZM56.455 495.469C56.7388 494.689 56.3429 493.83 55.5629 493.547C54.783 493.263 53.9198 493.663 53.6359 494.443C53.352 495.223 53.7569 496.082 54.5369 496.366C55.3168 496.65 56.1711 496.249 56.455 495.469V495.469ZM97.455 515.469C97.7388 514.689 97.3349 513.828 96.5576 513.545C95.7776 513.261 94.9198 513.663 94.6359 514.443C94.353 515.22 94.7516 516.08 95.5315 516.364C96.3088 516.647 97.172 516.246 97.455 515.469V515.469ZM69.4532 485.465C69.7361 484.688 69.3369 483.828 68.5562 483.544C67.7755 483.26 66.917 483.662 66.6341 484.439C66.3502 485.219 66.7494 486.079 67.5301 486.363C68.3108 486.647 69.1693 486.245 69.4532 485.465V485.465ZM86.4587 492.467C86.7416 491.69 86.3356 490.828 85.5564 490.544C84.7798 490.262 83.9225 490.664 83.6396 491.441C83.3557 492.221 83.7537 493.081 84.5303 493.363C85.3095 493.647 86.1748 493.247 86.4587 492.467V492.467ZM137.455 515.469C137.739 514.689 137.338 513.829 136.558 513.545C135.78 513.262 134.92 513.663 134.636 514.443C134.353 515.22 134.754 516.081 135.532 516.364C136.312 516.648 137.172 516.246 137.455 515.469V515.469ZM127.456 512.468C127.74 511.688 127.339 510.829 126.559 510.545C125.784 510.263 124.921 510.662 124.637 511.442C124.354 512.221 124.758 513.082 125.533 513.364C126.313 513.648 127.173 513.247 127.456 512.468V512.468ZM103.456 498.466C103.739 497.689 103.335 496.828 102.558 496.545C101.778 496.261 100.92 496.663 100.637 497.44C100.353 498.22 100.752 499.08 101.532 499.364C102.309 499.647 103.172 499.246 103.456 498.466V498.466ZM62.4559 478.466C62.7398 477.686 62.3429 476.83 61.5629 476.547C60.7829 476.263 59.9207 476.66 59.6368 477.44C59.353 478.22 59.7569 479.082 60.5369 479.366C61.3168 479.65 62.172 479.246 62.4559 478.466V478.466ZM79.4559 484.466C79.7398 483.686 79.3349 482.828 78.5549 482.544C77.7776 482.261 76.9207 482.66 76.6368 483.44C76.353 484.22 76.7516 485.08 77.5289 485.363C78.3088 485.647 79.172 485.246 79.4559 484.466V484.466ZM120.478 505.939C120.856 504.901 120.532 503.829 119.752 503.545C118.977 503.263 118.037 503.875 117.659 504.913C117.281 505.951 117.609 507.021 118.384 507.303C119.164 507.587 120.1 506.977 120.478 505.939V505.939ZM110.454 505.467C110.737 504.687 110.335 503.827 109.555 503.543C108.774 503.259 107.918 503.661 107.635 504.441C107.351 505.22 107.748 506.078 108.528 506.362C109.309 506.646 110.17 506.246 110.454 505.467V505.467ZM107.452 514.468C107.736 513.688 107.334 512.827 106.554 512.543C105.773 512.259 104.917 512.662 104.633 513.442C104.349 514.222 104.747 515.078 105.527 515.362C106.308 515.646 107.168 515.248 107.452 514.468V514.468ZM93.4564 499.468C93.7401 498.688 93.3359 497.828 92.5586 497.545C91.7786 497.261 90.921 497.662 90.6374 498.442C90.3537 499.221 90.7526 500.08 91.5325 500.364C92.3098 500.647 93.1728 500.247 93.4564 499.468V499.468ZM83.4577 500.47C83.7416 499.69 83.3356 498.828 82.5564 498.544C81.7798 498.262 80.9225 498.664 80.6386 499.444C80.3557 500.221 80.7537 501.081 81.5303 501.363C82.3095 501.647 83.1748 501.247 83.4577 500.47V500.47ZM122.124 519.019L123.526 518.773C123.031 518.624 122.517 518.728 122.124 519.019V519.019ZM90.455 508.469C90.7388 507.689 90.3349 506.828 89.5576 506.545C88.7776 506.261 87.9198 506.663 87.6359 507.443C87.352 508.223 87.7516 509.08 88.5315 509.364C89.3088 509.647 90.1711 509.249 90.455 508.469V508.469ZM100.455 506.469C100.739 505.689 100.335 504.828 99.5576 504.545C98.7776 504.261 97.9198 504.663 97.6359 505.443C97.353 506.22 97.7516 507.08 98.5315 507.364C99.3088 507.647 100.172 507.246 100.455 506.469V506.469ZM59.4564 486.468C59.7401 485.688 59.3439 484.83 58.5639 484.547C57.784 484.263 56.921 484.662 56.6374 485.442C56.3537 486.221 56.7579 487.082 57.5379 487.366C58.3178 487.65 59.1728 487.247 59.4564 486.468V486.468ZM76.4564 493.468C76.7401 492.688 76.3359 491.828 75.5559 491.544C74.7786 491.261 73.921 491.662 73.6374 492.442C73.3537 493.221 73.7526 494.08 74.5299 494.363C75.3098 494.647 76.1728 494.247 76.4564 493.468V493.468ZM66.4522 494.468C66.7361 493.688 66.3369 492.828 65.5562 492.544C64.7755 492.26 63.917 492.662 63.6331 493.442C63.3502 494.219 63.7494 495.079 64.5301 495.363C65.3108 495.647 66.1693 495.245 66.4522 494.468V494.468ZM117.455 513.469C117.739 512.689 117.338 511.829 116.558 511.545C115.783 511.263 114.92 511.663 114.636 512.443C114.353 513.22 114.757 514.082 115.532 514.364C116.312 514.648 117.172 514.246 117.455 513.469V513.469Z" fill="#99A2BD"/>
<path opacity="0.498675" fill-rule="evenodd" clip-rule="evenodd" d="M307 -190.5C307 -184.148 301.851 -179 295.499 -179C289.149 -179 284 -184.148 284 -190.5C284 -196.849 289.149 -202 295.499 -202C301.851 -202 307 -196.849 307 -190.5ZM317 -87C319.761 -87 322 -89.2381 322 -91.9988C322 -94.7595 319.761 -97 317 -97C314.239 -97 312 -94.7595 312 -91.9988C312 -89.2381 314.239 -87 317 -87ZM392.999 111C398.523 111 403 106.521 403 101C403 95.4762 398.523 91 392.999 91C387.477 91 383 95.4762 383 101C383 106.521 387.477 111 392.999 111ZM460.5 138C462.984 138 465 135.987 465 133.5C465 131.013 462.984 129 460.5 129C458.013 129 456 131.013 456 133.5C456 135.987 458.013 138 460.5 138ZM481 181.501C481 182.88 479.88 184 478.501 184C477.12 184 476 182.88 476 181.501C476 180.12 477.12 179 478.501 179C479.88 179 481 180.12 481 181.501ZM500.001 147C502.209 147 504 145.209 504 142.999C504 140.791 502.209 139 500.001 139C497.791 139 496 140.791 496 142.999C496 145.209 497.791 147 500.001 147ZM472 120C472 122.207 470.209 124 468.001 124C465.791 124 464 122.207 464 120C464 117.793 465.791 116 468.001 116C470.209 116 472 117.793 472 120ZM428.501 213C430.987 213 433 210.987 433 208.499C433 206.013 430.987 204 428.501 204C426.016 204 424 206.013 424 208.499C424 210.987 426.016 213 428.501 213ZM268 222.001C268 224.209 266.209 226 264 226C261.791 226 260 224.209 260 222.001C260 219.793 261.791 218 264 218C266.209 218 268 219.793 268 222.001ZM363.5 252C367.641 252 371 248.639 371 244.499C371 240.358 367.641 237 363.5 237C359.359 237 356 240.358 356 244.499C356 248.639 359.359 252 363.5 252ZM492 261.5C492 263.434 490.434 265 488.5 265C486.569 265 485 263.434 485 261.5C485 259.566 486.569 258 488.5 258C490.434 258 492 259.566 492 261.5ZM300 205C302.761 205 305 202.763 305 199.999C305 197.237 302.761 195 300 195C297.239 195 295 197.237 295 199.999C295 202.763 297.239 205 300 205Z" fill="#99A2BD"/>
<path opacity="0.499721" d="M239 330.499C239 328.567 240.567 327 242.5 327V325C239.463 325 237 327.462 237 330.499H239ZM242.5 334C240.567 334 239 332.432 239 330.499H237C237 333.535 239.462 336 242.5 336V334ZM246 330.499C246 332.432 244.433 334 242.5 334V336C245.538 336 248 333.535 248 330.499H246ZM242.5 327C244.433 327 246 328.567 246 330.499H248C248 327.462 245.537 325 242.5 325V327ZM112 159C112 157.342 113.344 156 115 156V154C112.24 154 110 156.237 110 159H112ZM115 162C113.344 162 112 160.658 112 159H110C110 161.763 112.24 164 115 164V162ZM118 159C118 160.658 116.658 162 115 162V164C117.763 164 120 161.763 120 159H118ZM115 156C116.658 156 118 157.342 118 159H120C120 156.237 117.763 154 115 154V156ZM212 153.5C212 149.359 215.358 146 219.501 146V144C214.253 144 210 148.255 210 153.5H212ZM219.501 161C215.357 161 212 157.643 212 153.5H210C210 158.748 214.253 163 219.501 163V161ZM227 153.5C227 157.643 223.642 161 219.501 161V163C224.747 163 229 158.747 229 153.5H227ZM219.501 146C223.642 146 227 149.359 227 153.5H229C229 148.255 224.747 144 219.501 144V146ZM116.499 88C114.567 88 113 89.5674 113 91.4987H115C115 90.6719 115.672 90 116.499 90V88ZM120 91.4987C120 89.5667 118.432 88 116.499 88V90C117.329 90 118 90.6726 118 91.4987H120ZM116.499 95C118.433 95 120 93.4326 120 91.4987H118C118 92.3281 117.328 93 116.499 93V95ZM113 91.4987C113 93.4319 114.567 95 116.499 95V93C115.673 93 115 92.3288 115 91.4987H113ZM96 125.501C96 124.119 97.1197 123 98.4989 123V121C96.0143 121 94 123.015 94 125.501H96ZM98.4989 128C97.1193 128 96 126.881 96 125.501H94C94 127.985 96.0147 130 98.4989 130V128ZM101 125.501C101 126.88 99.8811 128 98.4989 128V130C100.985 130 103 127.986 103 125.501H101ZM98.4989 123C99.8807 123 101 124.119 101 125.501H103C103 123.015 100.985 121 98.4989 121V123ZM127.499 141C125.015 141 123 143.018 123 145.5H125C125 144.121 126.12 143 127.499 143V141ZM132 145.5C132 143.017 129.985 141 127.499 141V143C128.88 143 130 144.121 130 145.5H132ZM127.499 150C129.985 150 132 147.983 132 145.5H130C130 146.879 128.88 148 127.499 148V150ZM123 145.5C123 147.982 125.015 150 127.499 150V148C126.12 148 125 146.879 125 145.5H123ZM143 69.0011C143 67.3416 144.342 66 145.999 66V64C143.237 64 141 66.2377 141 69.0011H143ZM145.999 72C144.342 72 143 70.6581 143 69.0011H141C141 71.7626 143.237 74 145.999 74V72ZM149 69.0011C149 70.6573 147.657 72 145.999 72V74C148.76 74 151 71.7633 151 69.0011H149ZM145.999 66C147.656 66 149 67.3423 149 69.0011H151C151 66.237 148.76 64 145.999 64V66ZM177.5 52C175.015 52 173 54.0141 173 56.4988H175C175 55.1193 176.119 54 177.5 54V52ZM182 56.4988C182 54.0141 179.985 52 177.5 52V54C178.881 54 180 55.1193 180 56.4988H182ZM177.5 61C179.986 61 182 58.9825 182 56.4988H180C180 57.8791 178.88 59 177.5 59V61ZM173 56.4988C173 58.9825 175.014 61 177.5 61V59C176.12 59 175 57.8791 175 56.4988H173ZM197 37.5012C197 34.4646 199.463 32 202.5 32V30C198.358 30 195 33.3607 195 37.5012H197ZM202.5 43C199.463 43 197 40.5373 197 37.5012H195C195 41.6422 198.359 45 202.5 45V43ZM208 37.5012C208 40.5373 205.537 43 202.5 43V45C206.641 45 210 41.6422 210 37.5012H208ZM202.5 32C205.537 32 208 34.4646 208 37.5012H210C210 33.3607 206.642 30 202.5 30V32ZM114 41C111.79 41 110 42.79 110 45H112C112 43.8946 112.895 43 114 43V41ZM118 45C118 42.7895 116.207 41 114 41V43C115.104 43 116 43.8951 116 45H118ZM114 49C116.207 49 118 47.2105 118 45H116C116 46.1049 115.104 47 114 47V49ZM110 45C110 47.21 111.79 49 114 49V47C112.895 47 112 46.1054 112 45H110ZM262.001 260C255.925 260 251 264.925 251 271H253C253 266.029 257.03 262 262.001 262V260ZM273 271C273 264.925 268.075 260 262.001 260V262C266.97 262 271 266.029 271 271H273ZM262.001 282C268.075 282 273 277.073 273 271H271C271 275.969 266.97 280 262.001 280V282ZM251 271C251 277.073 255.925 282 262.001 282V280C257.03 280 253 275.969 253 271H251ZM254 76.501C254 74.5661 255.568 73 257.5 73V71C254.463 71 252 73.4614 252 76.501H254ZM257.5 80C255.567 80 254 78.4336 254 76.501H252C252 79.5389 254.463 82 257.5 82V80ZM261 76.501C261 78.4336 259.433 80 257.5 80V82C260.537 82 263 79.5389 263 76.501H261ZM257.5 73C259.432 73 261 74.5661 261 76.501H263C263 73.4614 260.537 71 257.5 71V73Z" fill="#99A2BD"/>
</g>
</svg>
