<svg width="60" height="60" viewBox="0 0 60 60" fill="none" xmlns="http://www.w3.org/2000/svg">
<path fill-rule="evenodd" clip-rule="evenodd" d="M19.557 13.48H57.776L57.775 11.853H19.557V13.48ZM45.405 2.224C43.522 2.224 41.743 2.826 40.251 3.968C40.589 4.382 40.9 4.83 41.178 5.303C42.379 4.367 43.873 3.851 45.405 3.851C48.76 3.851 51.657 6.327 52.198 9.628H53.848C53.295 5.395 49.693 2.224 45.405 2.224ZM49.938 9.628C49.428 7.558 47.551 6.076 45.405 6.076C44.169 6.076 43.01 6.551 42.132 7.418C42.369 8.15 42.528 8.892 42.604 9.628H49.938ZM31.926 2.224C27.637 2.224 24.037 5.395 23.485 9.628H25.134C25.674 6.327 28.571 3.851 31.926 3.851C35.281 3.851 38.177 6.327 38.717 9.628H40.366C39.814 5.395 36.214 2.224 31.926 2.224ZM36.457 9.628C35.949 7.558 34.072 6.076 31.926 6.076C29.78 6.076 27.903 7.558 27.394 9.628H36.457ZM38.666 57.774C43.362 57.774 47.183 53.954 47.183 49.256C47.183 44.56 43.362 40.741 38.666 40.741C33.969 40.741 30.149 44.56 30.149 49.256C30.149 53.954 33.969 57.774 38.666 57.774ZM22.594 15.706L35.37 32.739H41.962L54.737 15.706H22.594ZM41.405 38.88V34.964H35.927V38.879C36.835 38.639 37.755 38.516 38.666 38.516C39.575 38.516 40.496 38.639 41.405 38.88ZM56.086 9.628H57.924C59.069 9.628 60 10.559 60 11.704V13.629C60 14.774 59.069 15.706 57.924 15.706H57.518L43.63 34.221V39.744C47.196 41.612 49.407 45.249 49.407 49.256C49.407 55.18 44.589 60 38.666 60H0V13.48H2.224V57.774H32.14C29.491 55.74 27.924 52.588 27.924 49.256C27.924 45.249 30.136 41.611 33.702 39.744V34.221L19.814 15.706H19.407C18.263 15.706 17.332 14.774 17.332 13.629V11.704C17.332 10.559 18.263 9.628 19.407 9.628H21.247C21.807 4.218 26.471 0 31.926 0C34.372 0 36.759 0.845 38.663 2.381C40.586 0.823 42.915 0 45.405 0C50.86 0 55.525 4.218 56.086 9.628ZM3.8516 15.7045H13.7786V13.4795H3.8516V15.7045ZM13.7786 19.5575H3.8516V17.3315H13.7786V19.5575ZM11.5546 23.4085H13.7796V21.1835H11.5546V23.4085ZM9.9276 23.4095H7.7026V21.1845H9.9276V23.4095ZM15.4066 34.6645H13.7786V31.1115H15.4066V34.6645ZM13.4796 28.8865V25.0345H15.7046V28.8865H17.6306V36.8895H15.7046V46.5185H13.4796V36.8895H11.5546V28.8865H13.4796ZM7.7036 50.0705H6.0766V46.5185H7.7036V50.0705ZM8.0016 56.1475H5.7776V52.2965H3.8516V44.2945H5.7776V34.6645H8.0016V44.2945H9.9266V52.2965H8.0016V56.1475ZM3.8516 23.4095H6.0766V21.1845H3.8516V23.4095ZM21.4836 45.2555H23.1106V36.8895H21.4836V45.2555ZM21.1846 29.8505V34.6645H19.2586V47.4805H21.1846V51.3325H23.4086V47.4805H25.3336V34.6645H23.4086V29.8505H21.1846ZM37.5543 44.2946V42.3686H39.7793V44.2986C41.3853 44.3756 42.6673 45.7066 42.6673 47.3316V47.4806H40.4423V47.3316C40.4423 46.8826 40.0773 46.5176 39.6293 46.5176H36.8893V47.3316C36.8893 47.7806 37.2553 48.1446 37.7033 48.1446H39.6293C41.3043 48.1446 42.6673 49.5086 42.6673 51.1826V54.2216H39.7793V56.1476H37.5543V54.2176C35.9483 54.1396 34.6653 52.8076 34.6653 51.1826V51.0336H36.8893V51.1826C36.8893 51.6326 37.2553 51.9966 37.7033 51.9966H40.4423V51.1826C40.4423 50.7346 40.0773 50.3696 39.6293 50.3696H37.7033C36.0283 50.3696 34.6653 49.0066 34.6653 47.3316V44.2946H37.5543ZM28.8736 17.6645L27.0946 18.9995L33.7726 27.9045L35.5536 26.5705L28.8736 17.6645ZM36.6617 31.7582L35.0387 29.5932L36.8177 28.2592L38.4417 30.4242L36.6617 31.7582Z" fill="url(#paint0_linear)"/>
<defs>
<linearGradient id="paint0_linear" x1="29.4978" y1="77.7343" x2="81.6115" y2="38.8263" gradientUnits="userSpaceOnUse">
<stop stop-color="#FB2059"/>
<stop offset="0.602402" stop-color="#8138E9"/>
<stop offset="1" stop-color="#12CAF9"/>
</linearGradient>
</defs>
</svg>
