<svg width="50" height="50" viewBox="0 0 50 50" fill="none" xmlns="http://www.w3.org/2000/svg">
<path fill-rule="evenodd" clip-rule="evenodd" d="M24.767 0.0415573C25.4233 0.215988 25.814 0.889447 25.6396 1.54577C25.4651 2.20209 24.7917 2.59274 24.1354 2.41831C23.479 2.24388 23.0884 1.57042 23.2628 0.914099C23.4372 0.257776 24.1107 -0.132874 24.767 0.0415573ZM18.5206 27.1527C18.8077 26.8711 18.812 26.41 18.5304 26.123C18.3942 25.9841 18.2504 25.8489 18.103 25.7207C15.9629 23.8619 14.7281 21.1719 14.7151 18.3407C14.6906 12.9689 19.0384 8.53743 24.4074 8.46228C26.4703 8.43344 28.4551 9.03655 30.1436 10.207C30.4741 10.4363 30.9277 10.354 31.1569 10.0233C31.3859 9.69286 31.3038 9.23927 30.9732 9.01005C29.034 7.66578 26.7559 6.97374 24.387 7.00607C18.2227 7.09238 13.2307 12.1799 13.2588 18.3472C13.2737 21.5978 14.6913 24.6861 17.148 26.82C17.4064 27.0892 17.9805 27.663 18.5206 27.1527ZM32.3945 11.187C32.7101 10.938 33.1681 10.9919 33.4171 11.3078C35.0011 13.3159 35.8383 15.7319 35.8383 18.2948C35.8383 21.5869 34.4055 24.7074 31.9074 26.8563C30.649 27.9388 29.9272 29.5342 29.9272 31.2333V31.9212H30.5191C30.9214 31.9212 31.2473 32.2471 31.2473 32.6494C31.2473 33.0516 30.9214 33.3775 30.5191 33.3775H29.9272V35.1351H30.5191C30.9214 35.1351 31.2473 35.461 31.2473 35.8633C31.2473 36.2655 30.9214 36.5914 30.5191 36.5914H29.9272V37.6376C29.9272 39.0682 28.796 40.2394 27.3813 40.3044V41.2266C27.3813 42.7885 26.1105 44.0593 24.5485 44.0593C22.9866 44.0593 21.7159 42.7885 21.7159 41.2266V40.3044C20.3011 40.2394 19.1699 39.0682 19.1699 37.6376V36.5914H18.5781C18.1759 36.5914 17.8499 36.2655 17.8499 35.8633C17.8499 35.461 18.1759 35.1351 18.5781 35.1351H19.1699V33.3775H18.5781C18.1759 33.3775 17.8499 33.0516 17.8499 32.6494C17.8499 32.2471 18.1759 31.9212 18.5781 31.9212H19.1699V31.2329C19.1699 30.6672 19.0874 30.1057 18.9245 29.5636C18.8087 29.1785 19.0271 28.7725 19.4122 28.6567C19.7972 28.541 20.2033 28.7593 20.3191 29.1445C20.5229 29.8226 20.6262 30.5252 20.6262 31.2329V31.9212H23.8781V23.1064L20.7666 19.9949C20.4822 19.7105 20.4822 19.2496 20.7666 18.9651C21.0509 18.6808 21.5119 18.6808 21.7963 18.9651L24.6062 21.775L26.1048 20.2764C26.3891 19.9921 26.8501 19.9921 27.1346 20.2764C27.4189 20.5607 27.4189 21.0217 27.1346 21.3062L25.3343 23.1065V31.9212H28.4708V31.2333C28.4708 29.1095 29.3772 27.1117 30.9577 25.7523C33.134 23.8802 34.382 21.1622 34.382 18.2948C34.382 16.0625 33.653 13.9583 32.2737 12.2097C32.0246 11.8939 32.0786 11.4361 32.3945 11.187ZM23.1721 41.2265C23.1721 41.9855 23.7895 42.6029 24.5484 42.6029C25.3075 42.6029 25.9249 41.9854 25.9249 41.2265V40.3074H23.1721V41.2265ZM28.4708 37.6375C28.4708 38.3067 27.9264 38.8511 27.2572 38.8511H21.8398C21.1706 38.8511 20.6262 38.3067 20.6262 37.6375V36.5913H28.4708V37.6375ZM20.6262 33.3774V35.135H28.4708V33.3774H20.6262ZM24.4423 49.7217C25.121 49.7217 25.6713 49.1715 25.6713 48.4928C25.6713 47.814 25.121 47.2638 24.4423 47.2638C23.7636 47.2638 23.2134 47.814 23.2134 48.4928C23.2134 49.1715 23.7636 49.7217 24.4423 49.7217ZM20.8016 1.77364C20.8016 2.45236 20.2513 3.00257 19.5726 3.00257C18.8939 3.00257 18.3437 2.45236 18.3437 1.77364C18.3437 1.09492 18.8939 0.544707 19.5726 0.544707C20.2513 0.544707 20.8016 1.09492 20.8016 1.77364ZM14.9219 4.53704C15.6007 4.53704 16.1509 3.98683 16.1509 3.30811C16.1509 2.62938 15.6007 2.07917 14.9219 2.07917C14.2432 2.07917 13.693 2.62938 13.693 3.30811C13.693 3.98683 14.2432 4.53704 14.9219 4.53704ZM11.9183 5.77422C11.9183 6.45294 11.3681 7.00315 10.6894 7.00315C10.0107 7.00315 9.46049 6.45294 9.46049 5.77422C9.46049 5.0955 10.0107 4.54529 10.6894 4.54529C11.3681 4.54529 11.9183 5.0955 11.9183 5.77422ZM6.24126 9.97985C6.74563 10.434 7.52272 10.3933 7.97689 9.88888C8.43107 9.38451 8.39029 8.60743 7.88592 8.15325C7.38155 7.69908 6.60447 7.73985 6.15029 8.24422C5.69612 8.74859 5.73689 9.52568 6.24126 9.97985ZM5.42961 13.0406C5.42961 13.7194 4.8794 14.2696 4.20068 14.2696C3.52196 14.2696 2.97175 13.7194 2.97175 13.0406C2.97175 12.3619 3.52196 11.8117 4.20068 11.8117C4.8794 11.8117 5.42961 12.3619 5.42961 13.0406ZM2.22699 18.7523C2.90566 18.7523 3.45583 18.2021 3.45583 17.5234C3.45583 16.8448 2.90566 16.2946 2.22699 16.2946C1.54832 16.2946 0.998155 16.8448 0.998155 17.5234C0.998155 18.2021 1.54832 18.7523 2.22699 18.7523ZM2.45767 22.3182C2.45767 22.9969 1.9075 23.547 1.22883 23.547C0.550168 23.547 0 22.9969 0 22.3182C0 21.6395 0.550168 21.0894 1.22883 21.0894C1.9075 21.0894 2.45767 21.6395 2.45767 22.3182ZM4.29903 37.6991C4.97775 37.6991 5.52796 37.1489 5.52796 36.4701C5.52796 35.7914 4.97775 35.2412 4.29903 35.2412C3.62031 35.2412 3.0701 35.7914 3.0701 36.4701C3.0701 37.1489 3.62031 37.6991 4.29903 37.6991ZM8.4235 40.4206C8.4235 41.0993 7.87328 41.6496 7.19456 41.6496C6.51584 41.6496 5.96563 41.0993 5.96563 40.4206C5.96563 39.7419 6.51584 39.1917 7.19456 39.1917C7.87328 39.1917 8.4235 39.7419 8.4235 40.4206ZM11.971 44.1983C12.2615 43.5847 11.9996 42.8518 11.386 42.5613C10.7725 42.2708 10.0396 42.5327 9.7491 43.1463C9.45861 43.7599 9.72051 44.4927 10.3341 44.7832C10.9476 45.0737 11.6805 44.8118 11.971 44.1983ZM16.2925 45.8576C16.4262 46.5228 15.9954 47.1704 15.3302 47.3041C14.6651 47.4378 14.0175 47.007 13.8838 46.3418C13.7501 45.6767 14.1809 45.0291 14.846 44.8954C15.5112 44.7617 16.1588 45.1925 16.2925 45.8576ZM20.0203 46.4062C19.3564 46.2651 18.7038 46.6889 18.5627 47.3528C18.4217 48.0166 18.8454 48.6693 19.5093 48.8103C20.1732 48.9515 20.8258 48.5276 20.9669 47.8637C21.108 47.1999 20.6842 46.5472 20.0203 46.4062ZM30.735 47.5667C30.735 48.2455 30.1847 48.7957 29.506 48.7957C28.8273 48.7957 28.2771 48.2455 28.2771 47.5667C28.2771 46.888 28.8273 46.3378 29.506 46.3378C30.1847 46.3378 30.735 46.888 30.735 47.5667ZM33.6591 44.9118C33.039 45.1879 32.7602 45.9143 33.0363 46.5343C33.3123 47.1544 34.0388 47.4333 34.6589 47.1571C35.2789 46.881 35.5579 46.1546 35.2817 45.5346C35.0056 44.9146 34.2792 44.6358 33.6591 44.9118ZM39.6184 43.5697C39.6184 44.2484 39.0682 44.7986 38.3895 44.7986C37.7108 44.7986 37.1606 44.2484 37.1606 43.5697C37.1606 42.8909 37.7108 42.3407 38.3895 42.3407C39.0682 42.3407 39.6184 42.8909 39.6184 43.5697ZM47.2324 30.649C46.5869 30.4393 45.8936 30.7925 45.6839 31.438C45.4742 32.0835 45.8274 32.7768 46.4729 32.9866C47.1184 33.1963 47.8117 32.8431 48.0215 32.1975C48.2313 31.552 47.878 30.8587 47.2324 30.649ZM46.6288 26.8941C46.6998 26.2191 47.3045 25.7294 47.9795 25.8003C48.6546 25.8713 49.1443 26.476 49.0733 27.151C49.0023 27.8261 48.3977 28.3158 47.7226 28.2448C47.0476 28.1738 46.5579 27.5692 46.6288 26.8941ZM47.7021 20.9024C47.0271 20.9733 46.5375 21.578 46.6083 22.2531C46.6793 22.9281 47.284 23.4177 47.959 23.3468C48.6341 23.2759 49.1237 22.6712 49.0528 21.9962C48.9818 21.3211 48.3772 20.8314 47.7021 20.9024ZM47.9611 16.9581C48.1708 17.6035 47.8176 18.2969 47.172 18.5066C46.5265 18.7165 45.8332 18.3631 45.6235 17.7176C45.4138 17.0722 45.7671 16.3788 46.4125 16.1691C47.058 15.9594 47.7514 16.3127 47.9611 16.9581ZM38.2322 6.88791C38.911 6.88791 39.4612 6.3377 39.4612 5.65898C39.4612 4.98026 38.911 4.43005 38.2322 4.43005C37.5535 4.43005 37.0033 4.98026 37.0033 5.65898C37.0033 6.3377 37.5535 6.88791 38.2322 6.88791ZM34.5306 2.11163C35.1401 2.41095 35.3916 3.14768 35.0922 3.75717C34.7929 4.36666 34.0562 4.61811 33.4467 4.3188C32.8372 4.01948 32.5858 3.28275 32.8851 2.67326C33.1844 2.06376 33.9211 1.81232 34.5306 2.11163ZM30.5238 1.96225C30.6481 1.29507 30.2079 0.653524 29.5407 0.529318C28.8735 0.405112 28.232 0.845281 28.1078 1.51246C27.9836 2.17965 28.4237 2.82119 29.0909 2.9454C29.7581 3.0696 30.3996 2.62943 30.5238 1.96225ZM39.4292 10.4494C39.5402 11.1035 39.8803 11.5488 40.4307 12.0968C40.9397 12.6036 42.5097 14.1054 43.1614 14.7278C43.4767 15.0055 44.0393 15.1664 44.5684 14.7242C45.2521 14.0651 46.8871 12.487 47.3012 12.0711C47.8036 11.5665 48.3175 10.9171 48.3188 9.92888C48.3208 8.73383 47.5623 7.67228 46.4317 7.28713H46.4315C46.1438 7.18917 45.8428 7.13937 45.5375 7.13898H45.533C44.9192 7.13898 44.3318 7.33811 43.8493 7.70519C43.3601 7.33626 42.7632 7.13976 42.144 7.14636C41.3325 7.15539 40.5684 7.51791 40.0478 8.14131C39.5143 8.78005 39.2887 9.62141 39.4292 10.4494ZM41.1656 9.07471C41.3438 8.86141 41.7262 8.61296 42.175 8.60247C42.5149 8.60247 42.8376 8.73005 43.0853 8.96286C43.5175 9.3684 44.1903 9.36791 44.6171 8.96141C44.8653 8.7251 45.1906 8.59519 45.5334 8.59519C46.1205 8.55082 46.8931 9.1984 46.8626 9.92665C46.862 10.3166 46.7123 10.5985 46.2692 11.0436C45.9141 11.4003 44.5757 12.6936 43.8616 13.3827C43.1191 12.6727 41.8906 11.4954 41.4582 11.0649C40.7086 10.3814 40.6834 9.82587 41.1656 9.07471ZM44.5559 33.9052L42.49 33.605L41.566 31.733C41.3603 31.3159 40.9436 31.0568 40.4785 31.0567H40.4783C40.0134 31.0567 39.5966 31.3158 39.3907 31.7329L38.8083 32.9128C38.6304 33.2734 38.7784 33.71 39.139 33.888C39.4998 34.066 39.9363 33.9179 40.1143 33.5573L40.4783 32.8196L41.2407 34.364C41.4173 34.7222 41.7587 34.9702 42.154 35.0277L43.8585 35.2754L42.625 36.4778C42.3393 36.7565 42.2089 37.1577 42.2763 37.5514L42.5675 39.2491L41.0428 38.4475C40.6892 38.2616 40.2674 38.2617 39.914 38.4475L38.3894 39.2491L38.6805 37.5516C38.7481 37.1581 38.6178 36.7566 38.3317 36.4778L36.8988 35.081C37.0365 34.8213 37.0078 34.4928 36.8021 34.259C36.5365 33.957 36.0764 33.9275 35.7745 34.1931C35.5212 34.4159 35.3709 34.738 35.3622 35.077C35.3535 35.4166 35.4837 35.7352 35.7285 35.9738L37.2235 37.4311L36.8706 39.4887C36.7918 39.947 36.9767 40.4016 37.353 40.675C37.3954 40.6956 37.4356 40.7163 37.4748 40.7364L37.4749 40.7364C37.7781 40.8923 38.0124 41.0127 38.6305 40.7674L40.4783 39.796L42.3261 40.7674C42.7379 40.9838 43.2272 40.9484 43.6034 40.6751C43.9797 40.4018 44.1646 39.9472 44.086 39.4888L43.7331 37.4312L45.2281 35.9738C45.5612 35.6492 45.6787 35.1727 45.5349 34.7303C45.3913 34.2882 45.0161 33.972 44.5559 33.9052ZM11.6483 28.2068C11.6483 27.8138 11.5332 27.5047 11.3927 27.2735C11.4668 27.0736 11.5058 26.86 11.5058 26.6435C11.5058 26.0437 11.2113 25.484 10.7198 25.1456C10.4233 24.9418 10.0781 24.8345 9.72116 24.8345H9.7134C9.2433 24.8365 8.36466 24.8384 7.83408 24.8394C7.84971 24.7155 7.8633 24.5906 7.87505 24.4659C7.93359 23.8164 7.93942 22.9718 7.4567 22.1887C6.89786 21.2827 5.94505 20.9345 4.96981 21.2798C4.52408 21.4377 4.28816 21.8073 4.33981 22.2657C4.40029 22.8235 4.44612 23.2916 4.47728 23.7666C4.47922 23.7958 4.47534 23.8212 4.4734 23.8329C4.19835 24.3654 3.91456 24.9056 3.63951 25.4274C3.47961 25.7307 3.32058 26.034 3.16165 26.3373C2.42825 26.3373 1.62369 26.3364 1.3067 26.3325H1.29107C0.633786 26.3325 0.0993204 26.8669 0.0993204 27.5242V31.4408C0.0993204 31.7617 0.225146 32.0631 0.453301 32.2883C0.677573 32.5106 0.975049 32.6326 1.29398 32.6326H1.30864C1.62951 32.6277 2.48864 32.6267 3.10699 32.6267C3.99738 32.6267 4.8566 32.6287 4.8566 32.6287C4.88291 32.6277 4.90922 32.6267 4.93563 32.6248C6.24243 32.6356 7.5668 32.6345 8.87272 32.6209C9.34379 32.617 9.79437 32.4102 10.1093 32.0533C10.398 31.7267 10.5491 31.3043 10.5336 30.8782C11.0515 30.4705 11.2094 29.8678 11.1821 29.3441C11.4308 29.0835 11.6483 28.7033 11.6483 28.2068ZM10.0635 28.3833C9.70757 28.5345 9.56223 28.9002 9.69388 29.266C9.81676 29.6861 9.56917 29.774 9.47552 29.8072L9.47544 29.8072C9.1234 29.9321 8.92252 30.3027 9.00825 30.6655C9.01519 30.6955 9.02318 30.7254 9.03106 30.7551L9.03109 30.7552L9.04039 30.7903C9.05311 30.8352 9.06767 30.8908 9.07058 30.9162C9.07738 30.9747 9.05592 31.0362 9.01301 31.0849C8.98379 31.1181 8.93301 31.157 8.85796 31.158C7.53359 31.1717 6.18971 31.1727 4.86534 31.1609H4.85854C4.83126 31.1609 4.80388 31.1629 4.77757 31.1658C4.54058 31.1648 3.83447 31.1638 3.10699 31.1638C2.61544 31.1638 1.97282 31.1638 1.56223 31.1667V27.7973C2.06641 27.8002 2.92951 27.8012 3.60631 27.8002C3.87942 27.8002 4.12903 27.6481 4.25485 27.4053C4.44977 27.029 4.64696 26.6541 4.84439 26.2788L4.93359 26.1092C5.21252 25.5797 5.50116 25.0315 5.78204 24.4873C5.94291 24.1713 5.94786 23.8388 5.93612 23.67C5.91466 23.3297 5.88544 22.9952 5.84932 22.6324C5.96932 22.6714 6.09408 22.766 6.21214 22.9571C6.41689 23.2887 6.47641 23.6876 6.41796 24.3333C6.39585 24.5775 6.36137 24.8265 6.32495 25.0895L6.3234 25.1007C6.30583 25.2236 6.28825 25.3494 6.27175 25.4762C6.24447 25.6849 6.30884 25.8955 6.44728 26.0535C6.5867 26.2115 6.7867 26.3023 6.99728 26.3023H7.64097C8.12369 26.3023 9.18379 26.2994 9.71922 26.2974C9.78165 26.3003 9.83816 26.316 9.8899 26.3511C10.0283 26.4457 10.043 26.5871 10.043 26.6436C10.043 26.7041 10.0274 26.7938 9.95524 26.8767C9.80602 27.0445 9.71437 27.2551 9.75534 27.4766C9.79534 27.6931 9.90262 27.8628 10.0928 27.9681C10.125 27.9973 10.1854 28.0715 10.1854 28.207C10.1853 28.2995 10.0947 28.3638 10.0635 28.3833Z" fill="url(#paint0_linear)"/>
<defs>
<linearGradient id="paint0_linear" x1="24.1293" y1="64.4181" x2="67.1532" y2="32.7109" gradientUnits="userSpaceOnUse">
<stop stop-color="#FB2059"/>
<stop offset="0.602402" stop-color="#8138E9"/>
<stop offset="1" stop-color="#12CAF9"/>
</linearGradient>
</defs>
</svg>
