<svg width="36" height="50" viewBox="0 0 36 50" fill="none" xmlns="http://www.w3.org/2000/svg">
<path fill-rule="evenodd" clip-rule="evenodd" d="M36 41.8663C36 42.2771 35.6664 42.6105 35.2553 42.6105C34.8443 42.6105 34.5107 42.2771 34.5111 41.8663V14.1911C34.5111 13.2587 33.7523 12.5004 32.8194 12.5004H24.9816V13.5353H26.2606C26.6717 13.5353 27.0049 13.8683 27.0049 14.2796C27.0049 14.6904 26.6717 15.0234 26.2606 15.0234H24.9816V16.6019H31.3748C32.787 16.6019 33.9362 17.7509 33.9362 19.1628V42.1688C33.9362 43.581 32.7874 44.7296 31.3748 44.7296H15.6444C14.2314 44.7296 13.0822 43.581 13.0822 42.1688V38.9874H12.5074V46.8212C12.5074 47.7535 13.2662 48.5119 14.199 48.5119H32.8194C33.7519 48.5119 34.5107 47.7535 34.5107 46.8212V44.8429C34.5107 44.4321 34.8443 44.099 35.2553 44.099C35.6664 44.099 36 44.4321 36 44.8429V46.8212C36 48.5741 34.5729 50 32.8194 50H14.199C12.4452 50 11.0184 48.5741 11.0184 46.8212V38.9874H3.18019C1.42673 38.9874 0 37.5614 0 35.8086V3.17841C0 1.42593 1.42673 0 3.18019 0H21.801C23.5548 0 24.9812 1.42593 24.9812 3.17841V11.0123H32.8194C34.5729 11.0123 36 12.4382 36 14.1911V41.8663ZM23.509 47.9336C22.848 47.9336 22.3102 47.3957 22.3102 46.735C22.3102 46.0739 22.848 45.5364 23.509 45.5364C24.1705 45.5364 24.7083 46.0739 24.7083 46.735C24.7083 47.3957 24.1705 47.9336 23.509 47.9336ZM1.48895 35.8086V3.17841C1.48895 2.24648 2.24773 1.48811 3.18019 1.48811H21.801C22.7334 1.48811 23.4922 2.24648 23.4922 3.17841V35.8086C23.4922 36.7409 22.7334 37.4989 21.801 37.4989H3.18019C2.24773 37.4989 1.48895 36.7409 1.48895 35.8086ZM13.6898 35.7224C13.6898 36.3834 13.1517 36.9209 12.4906 36.9209C11.8295 36.9209 11.2913 36.3834 11.2913 35.7224C11.2913 35.0616 11.8295 34.5238 12.4906 34.5238C13.1517 34.5238 13.6898 35.0616 13.6898 35.7224ZM31.3748 18.0904C31.966 18.0904 32.4469 18.5715 32.4469 19.1628V42.1688C32.4469 42.7601 31.966 43.2415 31.3748 43.2415H15.6441C15.0525 43.2415 14.5711 42.7601 14.5711 42.1688V38.9874H21.801C23.5548 38.9874 24.9812 37.5614 24.9812 35.8086V18.0904H31.3748ZM15.2421 4.01077H9.73942C9.32796 4.01077 8.99475 3.67775 8.99475 3.26653C8.99475 2.85568 9.32796 2.52266 9.73942 2.52266H15.2421C15.6532 2.52266 15.9864 2.85568 15.9864 3.26653C15.9864 3.67775 15.6532 4.01077 15.2421 4.01077ZM7.04053 3.55148C7.15924 3.83148 7.44092 4.01802 7.74665 4.01039C8.05047 4.00238 8.32757 3.80402 8.42948 3.51753C8.53368 3.2238 8.44131 2.88963 8.20047 2.69165C7.95085 2.48604 7.58443 2.46811 7.31573 2.6474C7.02145 2.84348 6.91038 3.22533 7.04053 3.55148ZM22.9174 8.15048V31.1565C22.9174 32.5684 21.7686 33.7173 20.3563 33.7173H4.62562C3.21301 33.7173 2.06338 32.5684 2.06338 31.1565V8.15048C2.06338 6.73828 3.21301 5.58968 4.62562 5.58968H8.70734C9.11842 5.58968 9.45163 5.9227 9.45163 6.33354C9.45163 6.74477 9.11842 7.07779 8.70734 7.07779H4.62562C4.03401 7.07779 3.55271 7.5592 3.55271 8.15048V31.1565C3.55271 31.7478 4.03401 32.2289 4.62562 32.2289H20.3563C20.9475 32.2289 21.4285 31.7478 21.4285 31.1565V8.15048C21.4285 7.5592 20.9475 7.07779 20.3563 7.07779H11.6856C11.2742 7.07779 10.941 6.74477 10.941 6.33354C10.941 5.9227 11.2742 5.58968 11.6856 5.58968H20.3563C21.7686 5.58968 22.9174 6.73828 22.9174 8.15048Z" fill="url(#paint0_linear)"/>
<defs>
<linearGradient id="paint0_linear" x1="17.6987" y1="64.7786" x2="55.4791" y2="44.4697" gradientUnits="userSpaceOnUse">
<stop stop-color="#FB2059"/>
<stop offset="0.602402" stop-color="#8138E9"/>
<stop offset="1" stop-color="#12CAF9"/>
</linearGradient>
</defs>
</svg>
