<svg width="47" height="50" viewBox="0 0 47 50" fill="none" xmlns="http://www.w3.org/2000/svg">
<path fill-rule="evenodd" clip-rule="evenodd" d="M17.0903 5.26006C16.7176 5.42227 16.1519 5.53799 15.0727 5.67275C14.6707 5.72266 14.3055 5.43818 14.2553 5.03682C14.2051 4.63545 14.49 4.26943 14.8914 4.21924L14.8945 4.21885C15.2168 4.17851 16.1826 4.05765 16.5062 3.9168C17.7316 3.38428 18.8919 2.14834 18.739 0.815918C18.7152 0.608496 18.7811 0.400781 18.9201 0.244922C19.059 0.0890625 19.2579 0 19.4667 0H27.2131C27.4217 0 27.6207 0.0890625 27.7597 0.244922C27.8987 0.400781 27.9646 0.608496 27.9408 0.815918C27.788 2.14834 28.9481 3.38428 30.1732 3.9166C30.5619 4.08576 31.7375 4.21798 32.9829 4.35805L32.9869 4.3585C36.1346 4.7123 40.4458 5.19697 42.4893 7.10645C44.4298 8.91846 44.4829 11.7535 44.3803 14.2688C44.3538 14.909 44.4341 15.9429 44.525 16.9648C44.5608 17.3678 44.2631 17.7235 43.8602 17.7593C43.8382 17.7611 43.8163 17.7621 43.7946 17.7621C43.4194 17.7622 43.0998 17.4753 43.0659 17.0945C42.9708 16.0232 42.8868 14.9321 42.9168 14.2085C43.006 12.0188 42.9767 9.56572 41.4894 8.17686C39.8001 6.59844 35.6015 6.12646 32.8233 5.81416L32.8215 5.81396C31.2878 5.6415 30.1795 5.51689 29.589 5.25986C28.1405 4.63047 26.6798 3.22422 26.4838 1.46484H20.1946C20.0031 3.15098 18.6416 4.58594 17.0903 5.26006ZM12.3271 28.8178C12.7255 29.8803 13.3031 33.3888 13.278 34.5935C13.2482 36.0449 12.8619 38.394 12.4883 40.6659L12.488 40.6677C12.4223 41.0668 12.6926 41.4436 13.0918 41.5092C13.4903 41.5754 13.8678 41.3045 13.9334 40.9053C14.3331 38.4752 14.7106 36.1798 14.7425 34.6237C14.7719 33.2148 14.1671 29.5526 13.6988 28.3037C13.5588 27.9301 13.4074 27.5399 13.2504 27.1354C12.283 24.6426 11.1053 21.608 11.1053 18.5815C11.1053 17.8227 10.0856 17.5666 9.72721 18.2358C8.37379 20.7633 7.86754 24.5406 7.4608 27.5758C7.3782 28.1922 7.30694 28.6647 7.24852 29.0521C7.01775 30.5823 6.98731 30.7841 7.24938 33.2766C7.33825 34.1214 7.43004 34.9951 7.40211 35.5211C7.16618 39.9886 5.95202 46.5525 5.57018 48.5352H1.9611C1.81002 46.3045 1.36334 39.0455 1.56461 33.9188C1.70708 30.3101 2.32139 27.7765 2.71242 26.1639C2.89581 25.4075 3.03008 24.8537 3.04352 24.4866C3.12331 22.3468 3.31872 20.2622 3.49127 18.423L3.49138 18.4219C3.66428 16.5785 3.80084 15.1226 3.76295 14.209C3.6736 12.0188 3.70289 9.56572 5.19049 8.17676C6.58678 6.87207 9.71813 6.33262 11.9519 6.04043C12.3531 5.98799 12.6357 5.62031 12.5832 5.21924C12.5307 4.81816 12.1631 4.53604 11.762 4.58799C9.12204 4.9333 5.87565 5.53164 4.19059 7.10625C2.24997 8.91836 2.19684 11.7534 2.29938 14.2691C2.33317 15.0845 2.19403 16.568 2.03291 18.2859L2.03288 18.2863L2.03255 18.2897C1.85841 20.1472 1.66105 22.2524 1.57975 24.4325C1.57122 24.6664 1.46542 25.0975 1.31344 25.7168C0.929773 27.2802 0.251749 30.0431 0.100942 33.8612C-0.141636 40.0388 0.540981 49.2305 0.547914 49.3226C0.576625 49.7047 0.895082 50.0001 1.27829 50.0001H6.17311C6.52174 50.0001 6.82213 49.7543 6.89108 49.4125C6.95993 49.0714 8.57975 40.9964 8.86491 35.5985C8.89899 34.9571 8.80534 34.0665 8.70612 33.1234C8.46486 30.8276 8.48052 30.723 8.70342 29.2328C8.76004 28.8543 8.83002 28.3864 8.91256 27.7705C9.16735 25.869 9.46276 23.6647 9.9775 21.725C10.4155 23.8808 11.2041 25.912 11.8796 27.652C12.0368 28.0571 12.188 28.4464 12.3271 28.8178ZM46.5787 33.8609C46.4262 29.9999 45.7553 27.2903 45.3714 25.7399C45.2169 25.1162 45.1089 24.68 45.0999 24.432C45.0383 22.7805 44.9062 21.1634 44.8122 20.0906C44.7769 19.6877 44.4214 19.3899 44.0186 19.425C43.6156 19.4604 43.3176 19.8156 43.3529 20.2187C43.4456 21.2756 43.5757 22.8681 43.636 24.4862C43.6495 24.8531 43.7837 25.407 43.9671 26.1634L43.9671 26.1635C44.3582 27.7768 44.9726 30.3116 45.115 33.9186C45.3163 39.0441 44.8696 46.3041 44.7185 48.5352H41.1094C40.7275 46.5524 39.5135 39.9898 39.2774 35.521C39.2495 34.9957 39.3412 34.1235 39.4298 33.2796L39.4301 33.2766C39.6922 30.784 39.6623 30.5857 39.4315 29.0554L39.4314 29.0551C39.3729 28.6673 39.3015 28.1938 39.2187 27.5758L39.2185 27.5743C38.8117 24.5394 38.3055 20.7629 36.9523 18.2358C36.5944 17.5672 35.5742 17.8218 35.5742 18.5815C35.5742 21.5884 34.4163 24.5811 33.4322 27.1247C33.2756 27.5296 33.1233 27.9231 32.9808 28.3035C32.5125 29.5526 31.9076 33.2148 31.937 34.6235C31.969 36.1815 32.3452 38.4682 32.7808 41.1157L32.7815 41.1201L32.7816 41.1204L32.7816 41.1207C33.1613 43.4286 33.5867 46.0143 33.8483 48.5352H24.0722V26.0407C24.0722 25.6361 23.7443 25.3083 23.3398 25.3083C22.9353 25.3083 22.6074 25.6361 22.6074 26.0407V48.5352H12.8312C12.9677 47.2191 13.1626 45.7548 13.434 44.0002C13.4958 43.6004 13.2218 43.2262 12.822 43.1644C12.4228 43.1029 12.0481 43.3765 11.9863 43.7763C11.6541 45.925 11.4343 47.6491 11.295 49.2022C11.2566 49.6299 11.5936 50.0001 12.0245 50.0001H34.6553C35.0865 50.0001 35.4232 49.6297 35.3848 49.2022C35.1314 46.3785 34.6507 43.4562 34.2264 40.8781L34.2262 40.8769L34.2262 40.8766C33.7998 38.285 33.4316 36.0467 33.4017 34.5934C33.3766 33.3888 33.9542 29.8804 34.3527 28.8177C34.4931 28.4428 34.6453 28.0508 34.8033 27.6435L34.8034 27.6435C35.4797 25.9008 36.2647 23.8784 36.702 21.7251C37.2168 23.6647 37.5122 25.8691 37.767 27.7705C37.8495 28.3865 37.9195 28.8544 37.9761 29.233L37.9762 29.2332C38.199 30.7231 38.2147 30.8279 37.9734 33.1234C37.8742 34.0664 37.7806 34.957 37.8145 35.5984C38.0998 40.9964 39.7196 49.0714 39.7884 49.4125C39.8575 49.7543 40.1578 50.0001 40.5064 50.0001H45.4012C45.7844 50.0001 46.1029 49.7048 46.1316 49.3226C46.1386 49.2304 46.8213 40.0387 46.5787 33.8609ZM19.6873 11.783C19.6757 11.831 18.5004 16.6203 15.0563 19.9922C14.7673 20.2752 14.7624 20.7389 15.0454 21.0279C15.3283 21.3169 15.7921 21.3219 16.0811 21.0389C19.8357 17.3629 21.062 12.334 21.1124 12.1217C21.2057 11.7283 20.9626 11.3341 20.5693 11.2404C20.1757 11.1471 19.7813 11.3899 19.6873 11.783ZM26.8358 11.2399C27.2292 11.1472 27.6238 11.3898 27.7174 11.783C27.7298 11.8346 28.9056 16.6216 32.3482 19.9922C32.6373 20.2752 32.6422 20.7389 32.3591 21.0279C32.0761 21.317 31.6124 21.3218 31.3234 21.0389C27.5689 17.3629 26.3426 12.334 26.2922 12.1217C26.1989 11.7281 26.4422 11.3334 26.8358 11.2399Z" fill="url(#paint0_linear)"/>
<defs>
<linearGradient id="paint0_linear" x1="22.9499" y1="64.7787" x2="65.4163" y2="35.2408" gradientUnits="userSpaceOnUse">
<stop stop-color="#FB2059"/>
<stop offset="0.602402" stop-color="#8138E9"/>
<stop offset="1" stop-color="#12CAF9"/>
</linearGradient>
</defs>
</svg>
