<svg width="50" height="36" viewBox="0 0 50 36" fill="none" xmlns="http://www.w3.org/2000/svg">
<path fill-rule="evenodd" clip-rule="evenodd" d="M48.3553 18.7592C47.3234 18.085 46.0326 17.9785 44.9028 18.4742C43.1162 19.258 41.1264 19.9123 38.9925 20.4278V12.6338C38.9925 10.9337 37.1195 9.46073 33.5709 8.36425C33.5709 8.36425 33.5695 4.19862 33.5669 4.17362C33.4835 2.32733 30.3912 1.32196 27.7895 0.802722C27.4544 0.735828 27.115 0.913953 26.9756 1.22635C26.8047 1.59296 26.9634 2.0287 27.3301 2.1996C27.4326 2.24735 27.5396 2.26923 27.6463 2.26835C31.2817 3.01425 32.106 3.9701 32.106 4.24969C32.106 4.48895 31.5025 5.26581 28.7473 5.97753C26.2854 6.61346 22.9998 6.96366 19.4961 6.96366C15.9924 6.96366 12.7068 6.61346 10.2449 5.97753C7.48965 5.26581 6.88623 4.48895 6.88623 4.24969C6.88623 4.01044 7.48965 3.23358 10.2449 2.52186C12.7068 1.88593 15.9924 1.53573 19.4961 1.53573C21.0867 1.53573 22.6425 1.60848 24.1199 1.75194C24.5225 1.79071 24.8806 1.49628 24.9196 1.09374C24.9587 0.691101 24.6641 0.333093 24.2614 0.294031C22.7372 0.145984 21.1339 0.0709839 19.4961 0.0709839C15.8723 0.0709839 12.4566 0.437683 9.87852 1.1037C6.921 1.86766 5.42139 2.92616 5.42139 4.24979V8.36464C1.87266 9.46093 0 10.9329 0 12.6338V24.7844C0 25.227 0.10918 25.6643 0.315625 26.0488C1.28828 27.8601 3.01455 29.5145 5.44629 30.9659C5.56396 31.0361 5.69326 31.0695 5.821 31.0695C6.07041 31.0695 6.31348 30.9421 6.45059 30.7124C6.65791 30.365 6.54434 29.9154 6.19697 29.7081C5.74814 29.4402 5.32568 29.1629 4.92822 28.8784V22.6237C4.92822 22.2192 4.60039 21.8913 4.1958 21.8913C3.79121 21.8913 3.46338 22.2192 3.46338 22.6237V27.6861C2.66162 26.9364 2.03389 26.1524 1.60605 25.3557C1.51377 25.1836 1.46484 24.986 1.46484 24.7844V12.6338C1.46484 11.9243 2.52373 10.8631 5.42158 9.90243V11.3816C5.42158 12.7053 6.92109 13.7639 9.87871 14.5277C12.4568 15.1936 15.8725 15.5604 19.4963 15.5604C23.1201 15.5604 26.5357 15.1937 29.1139 14.5277C32.0714 13.7638 33.571 12.7053 33.571 11.3816V9.90253C36.4704 10.864 37.5277 11.9265 37.5277 12.6338C37.5277 13.8717 34.7589 15.0714 32.3879 15.7225C31.9979 15.8297 31.7685 16.2328 31.8756 16.6228C31.9649 16.948 32.2599 17.1615 32.5815 17.1615C32.6457 17.1615 32.7109 17.153 32.7759 17.1351C34.8886 16.5549 36.4824 15.8558 37.5277 15.062V20.7551C36.7215 20.921 35.8976 21.0678 35.0587 21.195V19.873C35.0587 19.4685 34.7309 19.1406 34.3263 19.1406C33.9217 19.1406 33.5938 19.4685 33.5938 19.873V21.3956C32.3651 21.5455 31.1091 21.6539 29.8341 21.7199V20.8252C29.8341 20.4207 29.5063 20.0928 29.1017 20.0928C28.6971 20.0928 28.3692 20.4207 28.3692 20.8252V21.7766C27.879 21.7891 27.3868 21.7964 26.8926 21.7964C26.1606 21.7964 25.4317 21.7816 24.7071 21.7535V21.4111C24.7071 21.0066 24.3793 20.6787 23.9747 20.6787C23.5701 20.6787 23.2423 21.0066 23.2423 21.4111V21.6775C18.2946 21.3553 13.6207 20.3832 9.80293 18.86C9.45225 18.7202 9.49248 18.4226 9.52607 18.3013C9.56065 18.1765 9.68262 17.8929 10.065 17.9546C12.925 18.417 16.1863 18.6614 19.4964 18.6614C23.0686 18.6614 26.5523 18.3794 29.5711 17.8457C29.9694 17.7753 30.2353 17.3953 30.1648 16.997C30.0944 16.5986 29.7145 16.3331 29.3161 16.4032C26.3802 16.9222 22.9846 17.1966 19.4964 17.1966C16.2633 17.1966 13.0828 16.9586 10.2988 16.5085C9.28594 16.3445 8.38799 16.9214 8.11436 17.9106C8.10818 17.933 8.10336 17.9554 8.09854 17.9777L8.0916 18.0092C6.99844 17.3791 5.63437 16.4172 4.80303 15.185C4.57686 14.8496 4.12148 14.7613 3.78623 14.9876C3.45088 15.2139 3.3625 15.6691 3.58887 16.0044C5.38203 18.6621 9.06094 20.1421 9.25898 20.2201L9.26006 20.2206C14.1751 22.1813 20.4371 23.2611 26.8926 23.2611C31.7205 23.2611 36.3904 22.6664 40.4924 21.5546V32.6458C38.502 33.2067 36.3575 33.6414 34.1085 33.9377V28.0869C34.1085 27.6824 33.7807 27.3545 33.3761 27.3545C32.9715 27.3545 32.6437 27.6824 32.6437 28.0869V34.1095C30.7787 34.3018 28.8529 34.4019 26.8926 34.4019C26.8661 34.4019 26.8398 34.4016 26.8134 34.4016V28.3799C26.8134 27.9754 26.4855 27.6474 26.081 27.6474C25.6764 27.6474 25.3485 27.9754 25.3485 28.3799V34.3802C23.3589 34.3263 21.4047 34.1686 19.5185 33.913V27.7018C19.5185 27.2974 19.1906 26.9694 18.786 26.9694C18.3814 26.9694 18.0536 27.2974 18.0536 27.7018V33.6926C16.0004 33.352 14.0424 32.8924 12.2234 32.3221V26.0417C12.2234 25.6372 11.8956 25.3093 11.491 25.3093C11.0864 25.3093 10.7586 25.6372 10.7586 26.0417V31.8276C10.2156 31.6308 9.68662 31.4239 9.17461 31.206C8.80244 31.0478 8.37227 31.2211 8.21387 31.5933C8.05547 31.9655 8.22881 32.3956 8.60107 32.554C13.6222 34.6902 20.1183 35.8668 26.8926 35.8668C35.2156 35.8668 42.9811 34.1107 48.1979 31.0489C49.3095 30.3964 50 29.1936 50 27.91V21.7992C50 20.5684 49.3852 19.432 48.3553 18.7592ZM30.1758 12.6713V11.118C30.1758 10.7135 29.8479 10.3855 29.4434 10.3855C29.0388 10.3855 28.7109 10.7135 28.7109 11.118V13.1184C27.6717 13.3849 26.4869 13.6003 25.2021 13.7606V11.6514C25.2021 11.2469 24.8743 10.9189 24.4697 10.9189C24.0651 10.9189 23.7373 11.2469 23.7373 11.6514V13.9154C22.6163 14.0138 21.4387 14.0731 20.2286 14.0901V11.5603C20.2286 11.1558 19.9008 10.8279 19.4962 10.8279C19.0916 10.8279 18.7638 11.1558 18.7638 11.5603V14.0901C17.5536 14.0731 16.3761 14.0138 15.255 13.9154V11.1571C15.255 10.7526 14.9271 10.4247 14.5226 10.4247C14.118 10.4247 13.7901 10.7526 13.7901 11.1571V13.7606C12.5055 13.6003 11.3207 13.3849 10.2814 13.1184V10.1296C10.2814 9.72509 9.95361 9.39716 9.54902 9.39716C9.14443 9.39716 8.8166 9.72509 8.8166 10.1296V12.6714C7.27012 12.1035 6.88623 11.5723 6.88623 11.3817V6.25487C7.61465 6.68749 8.6125 7.06864 9.87852 7.39559C12.4566 8.06151 15.8723 8.42831 19.4961 8.42831C23.1199 8.42831 26.5355 8.06151 29.1137 7.39559C30.3796 7.06864 31.3775 6.68749 32.106 6.25487V11.3816C32.1062 11.5722 31.7223 12.1035 30.1758 12.6713ZM47.4563 29.7855C48.1218 29.395 48.5352 28.6763 48.5352 27.91H48.5351V21.7992C48.5351 21.0539 48.1775 20.3929 47.5541 19.9855C46.9285 19.5769 46.1766 19.515 45.4912 19.8157C44.3827 20.302 43.2004 20.7405 41.957 21.1288V32.2013C44.0032 31.5331 45.8579 30.7236 47.4563 29.7855ZM43.208 25.4482C43.208 23.6583 44.0843 22.3085 45.2461 22.3085C46.408 22.3085 47.2842 23.6583 47.2842 25.4482C47.2842 27.2381 46.4079 28.5879 45.2461 28.5879C44.0843 28.5879 43.208 27.2382 43.208 25.4482ZM44.6729 25.4482C44.6729 26.5357 45.1137 27.101 45.2475 27.1231C45.3786 27.1011 45.8193 26.5357 45.8193 25.4482C45.8193 24.3607 45.3785 23.7954 45.2447 23.7732C45.1137 23.7954 44.6729 24.3607 44.6729 25.4482ZM13.1993 2.78407C11.2849 3.06639 10.0098 3.45282 10.0098 4.42137C10.0098 5.38993 11.2849 5.77635 13.1993 6.05868C14.887 6.30751 17.1233 6.44462 19.4962 6.44462C21.869 6.44462 24.1054 6.3076 25.7931 6.05868C27.7075 5.77635 28.9826 5.38993 28.9826 4.42137C28.9826 3.45282 27.7075 3.06639 25.7931 2.78407C24.1054 2.53524 21.869 2.39813 19.4962 2.39813C17.1233 2.39813 14.887 2.53524 13.1993 2.78407ZM26.6304 4.42137C25.3571 4.69794 22.9548 4.97977 19.4962 4.97977C16.0376 4.97977 13.6353 4.69794 12.362 4.42137C13.6353 4.14471 16.0376 3.86298 19.4962 3.86298C22.9548 3.86298 25.3571 4.14481 26.6304 4.42137Z" fill="url(#paint0_linear)"/>
<defs>
<linearGradient id="paint0_linear" x1="24.5815" y1="46.447" x2="56.9808" y2="12.6591" gradientUnits="userSpaceOnUse">
<stop stop-color="#FB2059"/>
<stop offset="0.602402" stop-color="#8138E9"/>
<stop offset="1" stop-color="#12CAF9"/>
</linearGradient>
</defs>
</svg>
