<svg width="43" height="50" viewBox="0 0 43 50" fill="none" xmlns="http://www.w3.org/2000/svg">
<path fill-rule="evenodd" clip-rule="evenodd" d="M41.7704 21.7856C42.1932 21.7856 42.5357 21.4431 42.5357 21.0203V16.4366C42.5357 15.4643 41.745 14.6731 40.773 14.6731H30.7973V11.1225C30.7973 10.6997 30.4547 10.3571 30.0319 10.3571C29.6092 10.3571 29.2666 10.6997 29.2666 11.1225V14.6731H17.8708V8.64961L22.5343 10.6598C23.1192 10.9123 23.7228 10.8028 24.0829 10.3947C24.3354 10.1086 24.444 9.70801 24.3889 9.2665L23.6198 3.11953H29.0348C29.1604 3.11953 29.2668 3.22617 29.2668 3.35234V8.06113C29.2668 8.48389 29.6094 8.82646 30.0321 8.82646C30.4549 8.82646 30.7975 8.48389 30.7975 8.06113V3.35244C30.7975 2.38008 30.0067 1.58896 29.0348 1.58896H23.4248C23.2756 0.692578 22.4701 0 21.5564 0H9.27773C8.36426 0 7.55664 0.692871 7.40586 1.58896H1.7626C0.790723 1.58896 0 2.38008 0 3.35244V35.1522C0 36.1246 0.790723 36.9157 1.7626 36.9157H5.96172C6.38437 36.9157 6.72705 36.5731 6.72705 36.1504C6.72705 35.7276 6.38437 35.3851 5.96172 35.3851H1.7626C1.63691 35.3851 1.53066 35.2784 1.53066 35.1522V3.35244C1.53066 3.22617 1.63691 3.11963 1.7626 3.11963H7.20508L6.4126 9.26406C6.35557 9.70625 6.46299 10.1075 6.71514 10.3942C6.94404 10.6546 7.26963 10.7979 7.63184 10.7979C7.83809 10.7979 8.05049 10.7516 8.26289 10.6599L12.9264 8.64971V14.7714C12.236 15.0104 11.7382 15.6659 11.7382 16.4367V35.3852H9.1249C8.70225 35.3852 8.35957 35.7277 8.35957 36.1505C8.35957 36.5732 8.70225 36.9158 9.1249 36.9158H11.7382V48.2363C11.7382 49.2087 12.529 49.9998 13.5009 49.9998H40.7729C41.7449 49.9998 42.5356 49.2087 42.5356 48.2363V23.7755C42.5356 23.3527 42.1931 23.0102 41.7703 23.0102C41.3476 23.0102 41.005 23.3527 41.005 23.7755V26.4187H13.2688V16.4366C13.2688 16.3104 13.3752 16.2038 13.5009 16.2038H17.8101C18.0732 18.3307 19.0588 20.2958 20.635 21.7987C22.3947 23.4767 24.7039 24.4009 27.1369 24.4009C29.57 24.4009 31.8792 23.4767 33.639 21.7987C35.2149 20.2958 36.2006 18.3307 36.4639 16.2038H40.773C40.8987 16.2038 41.0051 16.3104 41.0051 16.4366V21.0203C41.0051 21.4431 41.3477 21.7856 41.7704 21.7856ZM7.9749 9.11738L8.91172 1.85322C8.93262 1.69043 9.11397 1.53076 9.27773 1.53076H21.5565C21.719 1.53076 21.8982 1.68936 21.9184 1.85098L22.8278 9.11973L18.4254 7.22197L20.8647 3.64053C21.0243 3.40615 21.0413 3.10264 20.9087 2.85195C20.7762 2.60127 20.5158 2.44443 20.2321 2.44443H10.5648C10.2812 2.44443 10.0209 2.60127 9.88828 2.85195C9.75576 3.10264 9.77266 3.40615 9.93223 3.64062L12.3716 7.22207L7.9749 9.11738ZM41.0051 48.2365C41.0051 48.3628 40.8987 48.4693 40.773 48.4693H13.501C13.3752 48.4693 13.2689 48.3627 13.2689 48.2365V44.6363H41.0051V48.2365ZM41.0051 43.1056H13.2688V41.5372H20.4515C20.8741 41.5372 21.2168 41.1946 21.2168 40.7719C21.2168 40.3492 20.8741 40.0065 20.4515 40.0065H13.2688V37.8422H41.005V40.0065H23.4106C22.9879 40.0065 22.6453 40.3492 22.6453 40.7719C22.6453 41.1946 22.9879 41.5372 23.4106 41.5372H41.0051V43.1056ZM41.005 33.2125H13.2688V31.0482H41.005V33.2125ZM41.005 34.7432V36.3116H13.2688V34.7432H41.005ZM41.0051 27.9493V29.5177H13.2688V27.9493H41.0051ZM16.3402 14.6731H16.3401H14.4569V10.283L14.7661 10.7369C14.9087 10.9461 15.1455 11.0713 15.3986 11.0713C15.6518 11.0713 15.8887 10.946 16.0312 10.7368L16.3401 10.2832V14.6731H16.3402ZM15.3986 8.94678L12.0122 3.975H18.785L15.3986 8.94678ZM26.1031 16.2038H28.1709V17.0541H26.1031V16.2038ZM24.5725 16.2038V17.3203C24.5725 18.0175 25.1395 18.5847 25.8365 18.5847H28.4374C29.1344 18.5847 29.7014 18.0174 29.7014 17.3203V16.2038H32.484C31.9501 18.6614 29.7424 20.4864 27.1369 20.4864C24.5314 20.4864 22.3236 18.6614 21.7897 16.2038H24.5725ZM32.5827 20.6908C31.109 22.0962 29.175 22.8701 27.137 22.8701C25.099 22.8701 23.165 22.0961 21.6913 20.6908C20.4199 19.4784 19.6071 17.9077 19.3535 16.2037H20.2318C20.7863 19.516 23.6897 22.017 27.1369 22.017C30.5841 22.017 33.4873 19.5161 34.0418 16.2037H34.9205C34.6669 17.9077 33.8541 19.4785 32.5827 20.6908Z" fill="url(#paint0_linear)"/>
<defs>
<linearGradient id="paint0_linear" x1="20.9119" y1="64.7784" x2="61.9109" y2="38.738" gradientUnits="userSpaceOnUse">
<stop stop-color="#FB2059"/>
<stop offset="0.602402" stop-color="#8138E9"/>
<stop offset="1" stop-color="#12CAF9"/>
</linearGradient>
</defs>
</svg>
