<svg width="50" height="46" viewBox="0 0 50 46" fill="none" xmlns="http://www.w3.org/2000/svg">
<path fill-rule="evenodd" clip-rule="evenodd" d="M34.5761 27.3205C34.1715 27.3205 33.8437 27.6483 33.8437 28.0529V31.4834C33.8437 32.126 33.3209 32.6488 32.6783 32.6488H23.0725C22.6679 32.6488 22.34 32.9766 22.34 33.3812C22.34 33.7858 22.6679 34.1136 23.0725 34.1136H32.6783C34.1286 34.1136 35.3085 32.9337 35.3085 31.4834V28.0529C35.3085 27.6483 34.9806 27.3205 34.5761 27.3205ZM32.7173 16.0303V12.861C32.7173 11.3283 32.2664 9.84565 31.4133 8.57339C31.1879 8.23745 30.7329 8.14771 30.3971 8.3729C30.0611 8.59819 29.9714 9.05317 30.1966 9.38911C30.8873 10.4193 31.2524 11.6198 31.2524 12.861V16.0293H29.3963V12.861C29.3963 10.4369 27.4241 8.4647 24.9999 8.4647C22.5757 8.4647 20.6035 10.4368 20.6035 12.861V16.0293H18.7474V12.861C18.7474 9.41333 21.5522 6.60854 24.9998 6.60854C26.0314 6.60854 27.055 6.86675 27.9597 7.35522C28.3157 7.54731 28.7599 7.4146 28.9521 7.05874C29.1443 6.70278 29.0115 6.25845 28.6557 6.06626C27.5379 5.46274 26.2737 5.1438 24.9998 5.1438C20.7444 5.1438 17.2825 8.60571 17.2825 12.8611V16.0304C15.8503 16.0514 14.6914 17.2224 14.6914 18.6595V31.4834C14.6914 32.9337 15.8713 34.1136 17.3216 34.1136H19.7009C20.1055 34.1136 20.4333 33.7858 20.4333 33.3812C20.4333 32.9766 20.1055 32.6488 19.7009 32.6488H17.3216C16.679 32.6488 16.1562 32.126 16.1562 31.4834V22.2655H33.8435V24.6814C33.8435 25.086 34.1713 25.4138 34.5759 25.4138C34.9805 25.4138 35.3083 25.086 35.3083 24.6814V18.6594C35.3085 17.2223 34.1496 16.0513 32.7173 16.0303ZM22.0685 12.8609C22.0685 11.2445 23.3835 9.92944 25 9.92944C26.6165 9.92944 27.9315 11.2445 27.9315 12.8609V16.0292H22.0686V12.8609H22.0685ZM16.1563 18.6594V20.8006H33.8437V18.6594C33.8437 18.0168 33.3209 17.4941 32.6783 17.4941H17.3217C16.6791 17.4941 16.1563 18.0168 16.1563 18.6594ZM25.7324 30.1789C25.7324 30.5834 25.4046 30.9113 25 30.9113C24.5954 30.9113 24.2676 30.5834 24.2676 30.1789V28.8079C23.2862 28.4965 22.573 27.5772 22.573 26.4942C22.573 25.1559 23.6617 24.0672 25 24.0672C26.3383 24.0672 27.427 25.156 27.427 26.4942C27.427 27.5772 26.7138 28.4965 25.7324 28.8079V30.1789ZM25.9621 26.4942C25.9621 25.9636 25.5306 25.5321 25 25.5321C24.4694 25.5321 24.0379 25.9636 24.0379 26.4942C24.0379 27.0248 24.4694 27.4563 25 27.4563C25.5306 27.4563 25.9621 27.0248 25.9621 26.4942ZM43.2536 16.6176C43.3911 16.4802 43.5773 16.4031 43.7716 16.4031H45.5007C45.8077 15.4877 46.673 14.826 47.6904 14.826C48.9639 14.826 49.9999 15.8621 49.9999 17.1355C49.9999 18.4089 48.9639 19.445 47.6904 19.445C46.673 19.445 45.8077 18.7833 45.5007 17.8679H44.0749L41.1172 20.8258C40.9797 20.9631 40.7935 21.0403 40.5992 21.0403H37.6424C37.2378 21.0403 36.91 20.7125 36.91 20.3079C36.91 19.9033 37.2378 19.5754 37.6424 19.5754H40.2959L43.2536 16.6176ZM48.5352 17.1354C48.5352 16.6697 48.1563 16.2908 47.6905 16.2908C47.2247 16.2908 46.8459 16.6697 46.8459 17.1354C46.8459 17.6011 47.2248 17.98 47.6905 17.98C48.1562 17.98 48.5352 17.6011 48.5352 17.1354ZM45.5008 27.8811C45.8078 26.9658 46.673 26.3041 47.6905 26.3041C48.964 26.3041 50.0001 27.3401 50.0001 28.6135C50.0001 29.887 48.9641 30.923 47.6906 30.923C46.6732 30.923 45.8079 30.2614 45.5009 29.3459H43.7717C43.5773 29.3459 43.3911 29.2688 43.2537 29.1314L40.296 26.1736H37.6425C37.2379 26.1736 36.9101 25.8458 36.9101 25.4412C36.9101 25.0366 37.2379 24.7087 37.6425 24.7087H40.5993C40.7937 24.7087 40.9799 24.7859 41.1173 24.9232L44.075 27.8811H45.5008ZM46.8459 28.6135C46.8459 29.0792 47.2247 29.4582 47.6905 29.4582C48.1562 29.4582 48.5352 29.0792 48.5352 28.6135C48.5352 28.1478 48.1562 27.7689 47.6905 27.7689C47.2248 27.7689 46.8459 28.1478 46.8459 28.6135ZM12.3576 24.7087H9.40078C9.20654 24.7087 9.02031 24.7859 8.88281 24.9233L5.9251 27.8811H2.30947C1.90488 27.8811 1.57705 28.2089 1.57705 28.6135C1.57705 29.0181 1.90488 29.3459 2.30947 29.3459H6.22842C6.42266 29.3459 6.60889 29.2688 6.74639 29.1314L9.7041 26.1736H12.3576C12.7622 26.1736 13.09 25.8458 13.09 25.4412C13.09 25.0366 12.7622 24.7087 12.3576 24.7087ZM3.675 12.8323H8.88184L11.8396 15.7902C11.9827 15.9332 12.1702 16.0046 12.3576 16.0046C12.545 16.0046 12.7325 15.9332 12.8756 15.7902C13.1616 15.5041 13.1616 15.0404 12.8756 14.7543L9.70312 11.582C9.56572 11.4447 9.37949 11.3675 9.18516 11.3675H3.675C3.27041 11.3675 2.94258 11.6954 2.94258 12.1C2.94258 12.5045 3.27041 12.8323 3.675 12.8323ZM12.3576 21.0514H4.49932C4.19229 21.9668 3.32695 22.6286 2.30947 22.6285C1.03604 22.6285 0 21.5924 0 20.319C0 19.0456 1.03604 18.0096 2.30957 18.0096C3.32705 18.0096 4.19229 18.6711 4.49932 19.5866H12.3576C12.7622 19.5866 13.09 19.9144 13.09 20.319C13.09 20.7236 12.7622 21.0514 12.3576 21.0514ZM2.30947 19.4745C1.84375 19.4745 1.46484 19.8533 1.46484 20.319C1.46484 20.7848 1.84375 21.1636 2.30947 21.1636C2.7752 21.1636 3.1541 20.7848 3.1541 20.319C3.1541 19.8534 2.7752 19.4745 2.30947 19.4745ZM11.1598 35.7626L13.0237 33.8986C13.3099 33.6126 13.7735 33.6126 14.0597 33.8986C14.3457 34.1846 14.3457 34.6483 14.0597 34.9344L12.4102 36.5838V40.9746C13.3255 41.2816 13.9871 42.1468 13.9871 43.1643C13.9871 44.4377 12.9512 45.4738 11.6777 45.4738C10.4043 45.4738 9.36826 44.4377 9.36826 43.1643C9.36826 42.1469 10.0299 41.2816 10.9453 40.9746V36.2805C10.9453 36.0862 11.0225 35.9 11.1598 35.7626ZM10.8331 43.1643C10.8331 43.63 11.2119 44.0089 11.6777 44.0089C12.1435 44.0089 12.5223 43.63 12.5223 43.1643C12.5223 42.6986 12.1435 42.3197 11.6777 42.3197C11.212 42.3197 10.8331 42.6986 10.8331 43.1643ZM37.3344 33.8986C37.0482 33.6126 36.5846 33.6126 36.2985 33.8986C36.0125 34.1847 36.0125 34.6484 36.2985 34.9344L37.948 36.5838V43.1643C37.948 43.5689 38.2759 43.8967 38.6805 43.8967C39.0851 43.8967 39.4129 43.5689 39.4129 43.1643V36.2805C39.4129 36.0863 39.3357 35.9001 39.1984 35.7626L37.3344 33.8986ZM37.3344 10.2004C37.1913 10.3434 37.0038 10.4149 36.8164 10.4149C36.629 10.4149 36.4415 10.3434 36.2984 10.2004C36.0124 9.9144 36.0124 9.45073 36.2984 9.1646L37.9479 7.51519V4.53315C37.0326 4.22612 36.3709 3.36089 36.3709 2.34341C36.3709 1.06997 37.4069 0.0339355 38.6804 0.0339355C39.9538 0.0339355 40.9898 1.06997 40.9898 2.34341C40.9898 3.36079 40.3282 4.22612 39.4128 4.53315V7.81851C39.4128 8.01284 39.3356 8.19907 39.1983 8.33647L37.3344 10.2004ZM39.525 2.34341C39.525 1.87769 39.1462 1.49878 38.6804 1.49878C38.2146 1.49878 37.8357 1.87769 37.8357 2.34341C37.8357 2.80913 38.2146 3.18804 38.6804 3.18804C39.1461 3.18804 39.525 2.80913 39.525 2.34341ZM12.4102 7.51519V2.05044C12.4102 1.64585 12.0823 1.31802 11.6777 1.31802C11.2731 1.31802 10.9453 1.64585 10.9453 2.05044V7.81851C10.9453 8.01274 11.0225 8.19897 11.1598 8.33647L13.0237 10.2004C13.1668 10.3434 13.3543 10.4149 13.5417 10.4149C13.7291 10.4149 13.9166 10.3434 14.0597 10.2004C14.3457 9.91431 14.3457 9.45063 14.0597 9.1646L12.4102 7.51519ZM36.8164 13.5396C36.4118 13.5396 36.084 13.8674 36.084 14.272C36.084 14.6766 36.4118 15.0044 36.8164 15.0044H40.0937C40.2879 15.0044 40.4741 14.9273 40.6116 14.79L45.3021 10.0995C45.4395 9.96206 45.5166 9.77583 45.5166 9.58149V5.87603C45.5166 5.47144 45.1888 5.1436 44.7842 5.1436C44.3796 5.1436 44.0518 5.47144 44.0518 5.87603V9.27817L39.7902 13.5397H36.8164V13.5396ZM46.1134 33.8486H43.4177L38.7016 29.1324C38.4154 28.8464 37.9518 28.8464 37.6657 29.1324C37.3797 29.4185 37.3797 29.8822 37.6657 30.1682L42.5964 35.0989C42.7338 35.2362 42.92 35.3133 43.1144 35.3133H46.1135C46.5181 35.3133 46.8459 34.9855 46.8459 34.5809C46.8459 34.1763 46.518 33.8486 46.1134 33.8486ZM12.3576 31.1694H9.97471L5.72695 35.417C5.89102 35.7341 5.98438 36.0936 5.98438 36.4747C5.98438 37.7481 4.94834 38.784 3.6749 38.784C2.40146 38.784 1.36543 37.7481 1.36543 36.4747C1.36543 35.2012 2.40146 34.1652 3.6749 34.1652C4.03408 34.1652 4.37432 34.2477 4.67773 34.3946L9.15332 29.919C9.29082 29.7817 9.47705 29.7045 9.67129 29.7045H12.3576C12.7622 29.7045 13.09 30.0324 13.09 30.437C13.09 30.8416 12.7622 31.1694 12.3576 31.1694ZM2.83037 36.4748C2.83037 36.9404 3.20918 37.3193 3.675 37.3193C4.14072 37.3193 4.51963 36.9405 4.51963 36.4748C4.51963 36.009 4.14072 35.6301 3.675 35.6301C3.20928 35.6301 2.83037 36.0089 2.83037 36.4748ZM20.8037 36.8276H29.1963C30.499 36.8276 31.5587 37.8875 31.5587 39.1902C31.5587 40.4928 30.4989 41.5527 29.1962 41.5527H20.8037C19.501 41.5527 18.4412 40.4927 18.4412 39.1901C18.4412 37.8875 19.501 36.8276 20.8037 36.8276ZM20.8037 40.0878H29.1963C29.6912 40.0878 30.0938 39.6851 30.0938 39.1902C30.0938 38.6953 29.6911 38.2925 29.1962 38.2925H20.8037C20.3088 38.2925 19.9061 38.6953 19.9061 39.1902C19.9061 39.6851 20.3088 40.0878 20.8037 40.0878Z" fill="url(#paint0_linear)"/>
<defs>
<linearGradient id="paint0_linear" x1="24.5816" y1="58.9045" x2="64.9632" y2="25.7299" gradientUnits="userSpaceOnUse">
<stop stop-color="#FB2059"/>
<stop offset="0.602402" stop-color="#8138E9"/>
<stop offset="1" stop-color="#12CAF9"/>
</linearGradient>
</defs>
</svg>
