<svg width="58" height="58" viewBox="0 0 58 58" fill="none" xmlns="http://www.w3.org/2000/svg">
<path fill-rule="evenodd" clip-rule="evenodd" d="M48.5387 30.2682L57.2552 38.986C58.2486 39.9807 58.2481 41.5976 57.2547 42.5906C56.7733 43.0721 56.133 43.3376 55.452 43.3376C54.7714 43.3376 54.1311 43.0721 53.6492 42.5906L44.9345 33.8746C42.6556 35.6097 40.0692 36.7557 37.3836 37.3133V50.711C37.3836 51.1805 37.0031 51.5611 36.534 51.5611C36.0645 51.5611 35.6844 51.1805 35.6844 50.711V37.5868C35.0255 37.662 34.364 37.7023 33.7015 37.7089V53.2108C33.7015 53.6803 33.3214 54.0608 32.8519 54.0608H26.0551C25.586 54.0608 25.2055 53.6803 25.2055 53.2108V35.788C24.3868 35.3866 23.5917 34.922 22.8266 34.395V53.2108C22.8266 53.6803 22.4465 54.0608 21.977 54.0608H15.1801C14.7106 54.0608 14.3305 53.6803 14.3305 53.2108V28.0587C14.3305 27.5892 14.7106 27.2087 15.1801 27.2087H16.6089C15.4934 24.9444 14.8602 22.5009 14.7071 20.0326H5.89061C5.42156 20.0326 5.04101 19.652 5.04101 19.183C5.04101 18.7135 5.42156 18.3329 5.89061 18.3329H14.6774C14.6964 17.6386 14.7535 16.9452 14.8487 16.2562H5.89061C5.42156 16.2562 5.04101 15.8757 5.04101 15.4066C5.04101 14.9371 5.42156 14.557 5.89061 14.557H15.1628C15.3257 13.8556 15.5288 13.1622 15.7726 12.4799H5.89061C5.42156 12.4799 5.04101 12.0998 5.04101 11.6303C5.04101 11.1608 5.42156 10.7807 5.89061 10.7807H16.4758C16.9435 9.79077 17.5019 8.83407 18.1511 7.92207H1.69922V10.8298C1.69922 11.2993 1.3191 11.6798 0.849608 11.6798C0.380553 11.6798 0 11.2993 0 10.8298V7.07202C0 6.60296 0.380553 6.2224 0.849608 6.2224H19.514C19.7304 5.98257 19.9538 5.74715 20.1848 5.51617C27.5392 -1.83872 39.505 -1.83872 46.8594 5.51617L46.9081 5.56528C47.2386 5.89805 47.2369 6.43614 46.9037 6.76669C46.5709 7.09768 46.0333 7.09547 45.7023 6.7627L45.6558 6.7158C38.9665 0.0255547 28.0782 0.0255547 21.3867 6.71801C14.6947 13.4105 14.6947 24.3001 21.3867 30.9925C28.0782 37.685 38.966 37.685 45.658 30.9925C51.3876 25.2625 52.3199 16.1969 47.875 9.43721C47.617 9.04515 47.7258 8.51812 48.1179 8.26014C48.5095 8.00216 49.0365 8.11102 49.2945 8.50308C51.6433 12.0754 52.7093 16.3996 52.2965 20.6795C51.9593 24.1669 50.6446 27.4932 48.5387 30.2682ZM35.6844 54.3745C35.6844 53.905 36.065 53.5249 36.534 53.5249C37.0035 53.5249 37.3836 53.905 37.3836 54.3745V57.1504C37.3836 57.6199 37.0035 58 36.534 58H0.849608C0.380553 58 0 57.6199 0 57.1504V14.5123C0 14.0428 0.380553 13.6627 0.849608 13.6627C1.3191 13.6627 1.69922 14.0428 1.69922 14.5123V56.3008H35.6844V54.3745ZM21.1274 52.3611H16.0297V28.9083H17.5603C18.2953 30.0752 19.1697 31.1788 20.1848 32.1944C20.491 32.5006 20.8061 32.7931 21.1274 33.0737V52.3611ZM3.68163 34.8561V53.2108C3.68163 53.6798 4.06219 54.0604 4.53124 54.0604H11.3285C11.7976 54.0604 12.1782 53.6798 12.1782 53.2108V34.8561C12.1782 34.387 11.7976 34.0065 11.3285 34.0065H4.53124C4.06219 34.0065 3.68163 34.387 3.68163 34.8561ZM5.38085 35.7061H10.4789V52.3607H5.38085V35.7061ZM26.9051 52.3611V36.519C28.553 37.1336 30.2699 37.5098 32.0028 37.6487V52.3611H26.9051ZM13.0933 22.9597C13.0933 23.4292 12.7131 23.8098 12.2436 23.8098H5.89061C5.42156 23.8098 5.04101 23.4292 5.04101 22.9597C5.04101 22.4907 5.42156 22.1101 5.89061 22.1101H12.2436C12.7131 22.1101 13.0933 22.4907 13.0933 22.9597ZM56.0538 41.3888C55.8931 41.5494 55.6794 41.6379 55.4524 41.6379C55.2254 41.6379 55.0117 41.5494 54.8515 41.3888L46.2443 32.7812C46.4527 32.5904 46.6581 32.3957 46.8594 32.1944C47.0603 31.9935 47.2559 31.7886 47.4466 31.5793L56.0529 40.1874C56.3843 40.5188 56.3848 41.0582 56.0538 41.3888ZM33.5223 3.39701C29.3876 3.39701 25.5042 5.0033 22.5881 7.91986C19.672 10.8364 18.0657 14.7203 18.0657 18.8555C18.0657 22.9907 19.672 26.8746 22.5881 29.7911C25.5046 32.7077 29.3876 34.314 33.5223 34.314C37.6571 34.314 41.5401 32.7077 44.4566 29.7911C47.3727 26.8746 48.9786 22.9907 48.9786 18.8555C48.9786 14.7203 47.3727 10.8364 44.4566 7.91986C41.5401 5.0033 37.6571 3.39701 33.5223 3.39701ZM43.2548 28.5893C40.6595 31.185 37.2031 32.6143 33.5223 32.6143C29.8411 32.6143 26.3852 31.185 23.7899 28.5893C21.1942 25.9936 19.7649 22.5367 19.7649 18.8555C19.7649 15.1739 21.1942 11.717 23.7899 9.12126C26.4728 6.43791 29.9978 5.09579 33.5223 5.09579C37.0469 5.09579 40.5719 6.43791 43.2548 9.12126C45.8501 11.717 47.2793 15.1739 47.2793 18.8555C47.2793 22.5367 45.8501 25.9936 43.2548 28.5893Z" fill="url(#paint0_linear)"/>
<defs>
<linearGradient id="paint0_linear" x1="28.5146" y1="75.1432" x2="78.8911" y2="37.5321" gradientUnits="userSpaceOnUse">
<stop stop-color="#FB2059"/>
<stop offset="0.602402" stop-color="#8138E9"/>
<stop offset="1" stop-color="#12CAF9"/>
</linearGradient>
</defs>
</svg>
