<svg width="60" height="60" viewBox="0 0 60 60" fill="none" xmlns="http://www.w3.org/2000/svg">
<path fill-rule="evenodd" clip-rule="evenodd" d="M50.072 42.519C50.072 43.498 49.275 44.294 48.295 44.294C47.316 44.294 46.52 43.498 46.52 42.519V40.742H50.072V42.519ZM46.52 55.458C46.52 55.09 46.473 54.719 46.383 54.356L44.246 45.808C43.926 44.534 43.071 43.469 41.889 42.872L41.981 42.507C42.242 41.467 43.172 40.742 44.243 40.742H44.295V42.519C44.295 44.725 46.089 46.519 48.295 46.519C50.501 46.519 52.297 44.725 52.297 42.519V40.742H52.347C53.419 40.742 54.349 41.467 54.61 42.507L57.711 54.91C57.754 55.082 57.776 55.262 57.776 55.445C57.776 56.73 56.729 57.776 55.444 57.776H45.88C46.3 57.074 46.52 56.278 46.52 55.458ZM2.224 4.964C2.224 3.453 3.453 2.225 4.964 2.225H30C31.373 2.225 32.544 3.279 32.706 4.642C31.229 5.44 29.915 6.47 28.799 7.704H5.926C4.782 7.704 3.852 8.634 3.852 9.778V50.221C3.852 51.366 4.782 52.296 5.926 52.296H25.687L25.172 54.357C25.082 54.722 25.036 55.092 25.036 55.458C25.036 56.278 25.256 57.074 25.674 57.776H4.964C3.453 57.776 2.224 56.547 2.224 55.037V4.964ZM27.329 54.895L29.466 46.346C29.645 45.633 30.141 45.06 30.813 44.778V47.331C30.813 50.069 33.04 52.296 35.778 52.296C38.515 52.296 40.741 50.069 40.741 47.331V44.778C41.413 45.061 41.91 45.634 42.089 46.346L44.224 54.895C44.271 55.079 44.295 55.269 44.295 55.458C44.295 56.736 43.255 57.776 41.977 57.776H29.578C28.3 57.776 27.26 56.736 27.26 55.458C27.26 55.272 27.283 55.082 27.329 54.895ZM6.076 9.928H27.147C26.199 11.485 25.563 13.17 25.257 14.942C24.746 17.893 25.135 20.877 26.382 23.577L24.241 29.352C24.129 29.647 24.073 29.957 24.073 30.274V30.395C24.073 31.853 25.259 33.039 26.717 33.039C27.16 33.039 27.603 32.924 27.995 32.707L28.888 32.214V43.357C28.11 43.975 27.551 44.843 27.308 45.807L26.242 50.072H6.076V9.928ZM31.112 30.985L32.516 30.21C32.5584 30.2324 32.6008 30.2535 32.6438 30.2749L32.676 30.291L32.739 30.324V42.37H31.715C31.511 42.37 31.309 42.383 31.112 42.41V30.985ZM51.903 19.049C51.233 24.537 46.754 29.036 41.253 29.747C38.383 30.119 35.574 29.51 33.122 27.986L32.568 27.643L26.922 30.762C26.798 30.83 26.645 30.825 26.511 30.746C26.377 30.666 26.298 30.536 26.298 30.395V30.274C26.298 30.224 26.306 30.176 26.324 30.129L28.799 23.453L28.582 23.019C27.382 20.63 26.989 17.968 27.449 15.32C28.372 9.987 32.769 5.825 38.142 5.199C38.635 5.143 39.127 5.114 39.614 5.114C42.918 5.114 46.058 6.404 48.401 8.762V8.763C51.094 11.472 52.37 15.221 51.903 19.049ZM38.518 47.331C38.518 48.842 37.288 50.072 35.778 50.072C34.267 50.072 33.038 48.842 33.038 47.331V44.593H38.518V47.331ZM59.867 54.372L56.767 41.969C56.26 39.937 54.443 38.517 52.347 38.517H44.243C42.148 38.517 40.331 39.936 39.825 41.968L39.724 42.37H34.964V31.299C37.077 32.022 39.286 32.244 41.537 31.951C48.03 31.114 53.318 25.801 54.11 19.318C54.662 14.808 53.156 10.389 49.98 7.195C46.801 3.999 42.387 2.466 37.884 2.991C36.851 3.111 35.813 3.352 34.796 3.71C34.229 1.551 32.239 0 30 0H4.964C2.227 0 0 2.227 0 4.964V55.037C0 57.774 2.227 60 4.964 60H55.444C57.956 60 60 57.957 60 55.445C60 55.083 59.955 54.722 59.867 54.372ZM37.5549 22.2968C37.5549 22.7448 37.1889 23.1098 36.7409 23.1098C36.2919 23.1098 35.9269 22.7448 35.9269 22.2968C35.9269 21.8488 36.2919 21.4828 36.7409 21.4828C37.1889 21.4828 37.5549 21.8488 37.5549 22.2968ZM47.0379 15.7048L45.6169 19.2578H37.6529L36.9429 15.7048H47.0379ZM46.3699 21.4828C46.8189 21.4828 47.1839 21.8488 47.1839 22.2968C47.1839 22.7448 46.8189 23.1098 46.3699 23.1098C45.9219 23.1098 45.5569 22.7448 45.5569 22.2968C45.5569 21.8488 45.9219 21.4828 46.3699 21.4828ZM35.7249 9.6298H30.8139V11.8528H33.9029L35.4429 19.5498C34.3819 20.0528 33.7029 21.1178 33.7029 22.2968C33.7029 23.9718 35.0659 25.3348 36.7409 25.3348C38.4159 25.3348 39.7789 23.9718 39.7789 22.2968C39.7789 22.0298 39.7389 21.7608 39.6579 21.4828H43.4529C43.3719 21.7608 43.3319 22.0288 43.3319 22.2968C43.3319 23.9718 44.6949 25.3348 46.3699 25.3348C48.0449 25.3348 49.4069 23.9718 49.4069 22.2968C49.4069 21.1988 48.8149 20.1998 47.8519 19.6598L49.3969 15.7968L49.4069 13.4808H36.4959L35.7249 9.6298ZM27.2592 40.7427H7.7032V38.5167H27.2592V40.7427ZM7.7032 48.4447H17.6312V46.2187H7.7032V48.4447ZM27.2592 44.5947H7.7032V42.3687H27.2592V44.5947ZM9.9272 17.3327H21.1842V13.7787H9.9272V17.3327ZM7.7032 19.5567H23.4082V11.5547H7.7032V19.5567ZM21.4842 48.4447H19.2592V46.2187H21.4842V48.4447ZM7.7032 23.4087H23.4082V21.1847H7.7032V23.4087ZM23.4082 27.2607H7.7032V25.0357H23.4082V27.2607ZM9.9272 34.6657H21.1842V31.1117H9.9272V34.6657ZM7.7032 36.8897H23.4082V28.8877H7.7032V36.8897ZM12.5172 6.0767H14.7422V3.8517H12.5172V6.0767ZM13.4802 56.1497H21.4822V53.9227H13.4802V56.1497ZM22.4452 6.0767H16.3682V3.8517H22.4452V6.0767ZM23.1102 48.4447H25.3342V46.2187H23.1102V48.4447Z" fill="white"/>
</svg>
