<svg width="152" height="152" viewBox="0 0 152 152" fill="none" xmlns="http://www.w3.org/2000/svg">
<path d="M117.3 102.855V101.855H116.3V102.855H117.3ZM126.18 102.855H127.18V101.855H126.18V102.855ZM116.958 136.89L117.928 136.649L117.928 136.647L116.958 136.89ZM111.615 115.52L112.585 115.277L112.585 115.276L111.615 115.52ZM105.723 108.18L104.753 107.936L104.557 108.712L105.272 109.073L105.723 108.18ZM105.953 107.268L106.922 107.512L106.922 107.511L105.953 107.268ZM111.738 102.855H112.738V101.855H111.738V102.855ZM131.743 102.855V101.855H130.743V102.855H131.743ZM137.525 107.268L138.495 107.025L138.495 107.024L137.525 107.268ZM145.277 138.275L144.307 138.518L145.277 138.275ZM115.7 145.44L114.842 144.927L113.936 146.44H115.7V145.44ZM82.765 12.605L83.2403 13.4848L83.8382 13.1618L83.758 12.487L82.765 12.605ZM72.9975 20.26V21.26H73.4414L73.7392 20.9308L72.9975 20.26ZM65.2175 131.74L66.1877 131.982L66.4981 130.74H65.2175V131.74ZM63.93 136.893L62.9598 136.65L62.9591 136.653L63.93 136.893ZM65.185 145.44V146.44H66.9443L66.0442 144.928L65.185 145.44ZM74.665 116.865L73.6951 116.621L73.6949 116.622L74.665 116.865ZM69.3225 138.238L68.3523 137.995L68.3514 137.999L69.3225 138.238ZM78.0325 112.945H79.0325V111.441L77.6455 112.023L78.0325 112.945ZM102.853 112.945L103.241 112.023L101.853 111.439V112.945H102.853ZM106.222 116.865L107.193 116.623L107.192 116.621L106.222 116.865ZM111.56 138.238L110.59 138.48L110.591 138.485L111.56 138.238ZM68.8675 25.82L69.7216 26.3401L70.6471 24.82H68.8675V25.82ZM16.19 25.82V24.82H15.19V25.82H16.19ZM64.1425 38.355L65.1278 38.5256L65.1279 38.5252L64.1425 38.355ZM66.955 59.9425L67.8926 60.2901L68.0371 59.9005L67.8629 59.5232L66.955 59.9425ZM61.6025 74.38L62.5374 74.735L62.5401 74.7276L61.6025 74.38ZM70.9875 82.7675L70.5042 81.8921L70.5032 81.8926L70.9875 82.7675ZM73.22 81.535H74.22V79.8407L72.7367 80.6596L73.22 81.535ZM73.22 109.393L73.842 110.176L74.22 109.875V109.393H73.22ZM69.27 115.518L68.3003 115.273L68.2999 115.275L69.27 115.518ZM66.605 126.18V127.18H67.3858L67.5752 126.422L66.605 126.18ZM16.19 126.18H15.19V127.18H16.19V126.18ZM82.29 76.525L82.7571 75.6408L82.2796 75.3885L81.8067 75.6495L82.29 76.525ZM78.78 78.4625L78.2967 77.587L77.78 77.8723V78.4625H78.78ZM82.6089 76.687L83.0561 75.7926L83.0548 75.792L82.6089 76.687ZM82.6093 76.6873L82.1621 77.5817L82.163 77.5822L82.6093 76.6873ZM82.69 76.7275L83.154 75.8417L83.1452 75.8371L83.1363 75.8326L82.69 76.7275ZM82.8475 76.81H83.8475V76.205L83.3115 75.9242L82.8475 76.81ZM82.8475 106.925V107.925H83.8475V106.925H82.8475ZM78.78 107.025H77.78V108.171L78.9158 108.016L78.78 107.025ZM104.132 75.3675L104.004 74.3757L104.004 74.3758L104.132 75.3675ZM130.757 48.6225L131.75 48.7437L131.75 48.7436L130.757 48.6225ZM83.805 70.965L84.3329 70.1157L84.3314 70.1148L83.805 70.965ZM82.42 70.1075L82.9464 69.2573L82.4488 68.9492L81.9365 69.2322L82.42 70.1075ZM68.305 77.905L68.7859 78.7818L68.7886 78.7803L68.305 77.905ZM67.2775 77.865L66.7649 78.7236L66.7697 78.7264L67.2775 77.865ZM66.81 76.3225L67.7439 76.6802L67.7476 76.6701L66.81 76.3225ZM72.9975 59.6325L73.9351 59.9801L74.086 59.5733L73.8919 59.1853L72.9975 59.6325ZM72.455 58.5475L73.3494 58.1003L73.3486 58.0986L72.455 58.5475ZM69.6225 39.3L70.6077 39.4712L70.6079 39.4705L69.6225 39.3ZM96.355 13.9975L96.2421 13.0039L96.2393 13.0042L96.355 13.9975ZM122.003 22.905H123.003V22.4927L122.712 22.2002L122.003 22.905ZM122.003 22.9075H121.003V23.32L121.293 23.6125L122.003 22.9075ZM83.595 112.482V111.482H82.595V112.482H83.595ZM97.295 112.482H98.295V111.482H97.295V112.482ZM142.917 105.923L141.947 106.165L141.947 106.165L142.917 105.923ZM150.667 136.93L149.697 137.172L149.698 137.174L150.667 136.93ZM100.562 105.92L101.532 106.164L101.533 106.162L100.562 105.92ZM100.31 106.925V107.925H101.09L101.28 107.169L100.31 106.925ZM88.41 106.925H87.41V107.925H88.41V106.925ZM88.41 79.2475L88.7337 78.3014L87.41 77.8484V79.2475H88.41ZM104.842 80.8775L104.715 79.8857L104.713 79.8859L104.842 80.8775ZM136.275 49.295L135.282 49.1735L135.282 49.1737L136.275 49.295ZM125.95 18.9875L126.659 18.2824L126.659 18.2823L125.95 18.9875ZM95.71 8.4775L95.8254 9.47082L95.8258 9.47077L95.71 8.4775ZM87.99 10.275L87.0228 10.529L87.2984 11.5786L88.322 11.2183L87.99 10.275ZM115.042 49.1445V50.1445H115.719L115.971 49.5158L115.042 49.1445ZM118.595 40.262L119.523 40.6333L120.072 39.262H118.595V40.262ZM95.1323 49.1445L94.1516 49.3405L94.3123 50.1445H95.1323V49.1445ZM93.3573 40.262V39.262H92.1376L92.3766 40.458L93.3573 40.262ZM78.0348 25.0745V24.0745H77.0348V25.0745H78.0348ZM90.3123 25.0745L91.2928 24.8782L91.1319 24.0745H90.3123V25.0745ZM78.0348 30.632H77.0348V31.632H78.0348V30.632ZM85.7572 30.632L86.7378 30.4358L86.577 29.632H85.7572V30.632ZM89.6073 49.8745L90.0356 50.7781L90.741 50.4437L90.5878 49.6783L89.6073 49.8745ZM100.145 54.707V53.707H98.8118L99.1847 54.9867L100.145 54.707ZM109.632 54.707L110.592 54.9867L110.965 53.707H109.632V54.707ZM120.63 50.1495L119.701 49.7781L119.375 50.5927L120.141 51.0217L120.63 50.1495ZM124.492 40.492L125.421 40.8633L125.491 40.6866L125.492 40.4963L124.492 40.492ZM124.517 34.702L125.517 34.7063L125.522 33.702H124.517V34.702ZM92.2398 34.702L91.2592 34.8983L91.4201 35.702H92.2398V34.702ZM20.258 102.857H19.258V103.857H20.258V102.857ZM69.148 102.857V103.857H70.148V102.857H69.148ZM20.258 97.2917V96.2917H19.258V97.2917H20.258ZM69.148 97.2917H70.148V96.2917H69.148V97.2917ZM45.078 122.112V123.112H46.078V122.112H45.078ZM20.258 122.112H19.258V123.112H20.258V122.112ZM45.078 116.547H46.078V115.547H45.078V116.547ZM20.258 116.547V115.547H19.258V116.547H20.258ZM20.258 112.487H19.258V113.487H20.258V112.487ZM69.148 112.487V113.487H70.148V112.487H69.148ZM20.258 106.922V105.922H19.258V106.922H20.258ZM69.148 106.922H70.148V105.922H69.148V106.922ZM53.9605 44.3317V45.3317H54.9605V44.3317H53.9605ZM25.818 44.3317H24.818V45.3317H25.818V44.3317ZM53.9605 35.4468H54.9605V34.4468H53.9605V35.4468ZM25.818 35.4468V34.4468H24.818V35.4468H25.818ZM59.5205 49.8917V50.8917H60.5205V49.8917H59.5205ZM20.258 49.8917H19.258V50.8917H20.258V49.8917ZM59.5205 29.8867H60.5205V28.8867H59.5205V29.8867ZM20.258 29.8867V28.8867H19.258V29.8867H20.258ZM49.148 122.112H48.148V123.112H49.148V122.112ZM54.7105 122.112V123.112H55.7105V122.112H54.7105ZM49.148 116.547V115.547H48.148V116.547H49.148ZM54.7105 116.547H55.7105V115.547H54.7105V116.547ZM59.5205 59.5218V60.5218H60.5205V59.5218H59.5205ZM20.258 59.5218H19.258V60.5218H20.258V59.5218ZM59.5205 53.9618H60.5205V52.9618H59.5205V53.9618ZM20.258 53.9618V52.9618H19.258V53.9618H20.258ZM20.258 69.1517H19.258V70.1517H20.258V69.1517ZM59.5205 69.1517V70.1517H60.5205V69.1517H59.5205ZM20.258 63.5892V62.5892H19.258V63.5892H20.258ZM59.5205 63.5892H60.5205V62.5892H59.5205V63.5892ZM53.9605 87.6643V88.6643H54.9605V87.6643H53.9605ZM25.818 87.6643H24.818V88.6643H25.818V87.6643ZM53.9605 78.7793H54.9605V77.7793H53.9605V78.7793ZM25.818 78.7793V77.7793H24.818V78.7793H25.818ZM59.5205 93.2243V94.2243H60.5205V93.2243H59.5205ZM20.258 93.2243H19.258V94.2243H20.258V93.2243ZM59.5205 73.2193H60.5205V72.2193H59.5205V73.2193ZM20.258 73.2193V72.2193H19.258V73.2193H20.258ZM37.8555 16.1917V17.1917H38.8555V16.1917H37.8555ZM32.293 16.1917H31.293V17.1917H32.293V16.1917ZM37.8555 10.6292H38.8555V9.62925H37.8555V10.6292ZM32.293 10.6292V9.62925H31.293V10.6292H32.293ZM54.7055 141.374V142.374H55.7055V141.374H54.7055ZM34.7005 141.374H33.7005V142.374H34.7005V141.374ZM54.7055 135.807H55.7055V134.807H54.7055V135.807ZM34.7005 135.807V134.807H33.7005V135.807H34.7005ZM41.9205 16.1917H40.9205V17.1917H41.9205V16.1917ZM57.113 16.1917V17.1917H58.113V16.1917H57.113ZM41.9205 10.6292V9.62925H40.9205V10.6292H41.9205ZM57.113 10.6292H58.113V9.62925H57.113V10.6292ZM64.3355 122.112V123.112H65.3355V122.112H64.3355ZM58.7755 122.112H57.7755V123.112H58.7755V122.112ZM64.3355 116.547H65.3355V115.547H64.3355V116.547ZM58.7755 116.547V115.547H57.7755V116.547H58.7755ZM121.738 110.735C120.897 110.735 120.128 110.433 119.53 109.93L118.243 111.461C119.187 112.255 120.408 112.735 121.738 112.735V110.735ZM119.105 109.505C118.602 108.907 118.3 108.138 118.3 107.298H116.3C116.3 108.627 116.78 109.848 117.574 110.792L119.105 109.505ZM118.3 107.298V105.323H116.3V107.298H118.3ZM118.3 104.829V102.855H116.3V104.829H118.3ZM117.3 103.855H121.247V101.855H117.3V103.855ZM122.233 103.855H126.18V101.855H122.233V103.855ZM125.18 102.855V104.829H127.18V102.855H125.18ZM125.18 105.323V107.298H127.18V105.323H125.18ZM125.18 107.298C125.18 108.138 124.878 108.907 124.374 109.506L125.904 110.794C126.699 109.849 127.18 108.628 127.18 107.298H125.18ZM123.948 109.93C123.349 110.433 122.579 110.735 121.738 110.735V112.735C123.067 112.735 124.288 112.256 125.234 111.463L123.948 109.93ZM117.928 136.647L115.553 127.15L113.613 127.635L115.987 137.133L117.928 136.647ZM114.96 124.775L112.585 115.277L110.645 115.763L113.019 125.26L114.96 124.775ZM112.585 115.276C112.197 113.734 111.521 112.303 110.607 111.047L108.99 112.224C109.755 113.275 110.321 114.472 110.645 115.764L112.585 115.276ZM109.871 110.132C108.844 108.974 107.595 108.005 106.173 107.287L105.272 109.073C106.468 109.677 107.515 110.489 108.374 111.458L109.871 110.132ZM106.692 108.424L106.794 108.019L104.855 107.53L104.753 107.936L106.692 108.424ZM106.82 107.917L106.922 107.512L104.983 107.023L104.881 107.429L106.82 107.917ZM106.922 107.511C107.163 106.554 107.674 105.728 108.363 105.104L107.02 103.622C106.045 104.506 105.321 105.676 104.983 107.024L106.922 107.511ZM108.923 104.667C109.696 104.151 110.622 103.855 111.608 103.855V101.855C110.218 101.855 108.907 102.273 107.812 103.004L108.923 104.667ZM111.608 103.855H111.665V101.855H111.608V103.855ZM111.68 103.855H111.738V101.855H111.68V103.855ZM110.738 102.855V104.829H112.738V102.855H110.738ZM110.738 105.323V107.298H112.738V105.323H110.738ZM110.738 107.298C110.738 109.987 111.708 112.454 113.314 114.366L114.845 113.079C113.529 111.513 112.738 109.497 112.738 107.298H110.738ZM114.669 115.721C116.581 117.327 119.048 118.298 121.738 118.298V116.298C119.538 116.298 117.522 115.506 115.956 114.19L114.669 115.721ZM121.738 118.298C124.426 118.298 126.895 117.327 128.808 115.721L127.521 114.19C125.954 115.506 123.937 116.298 121.738 116.298V118.298ZM130.163 114.367C131.771 112.455 132.743 109.987 132.743 107.298H130.743C130.743 109.497 129.95 111.513 128.632 113.079L130.163 114.367ZM132.743 107.298V105.323H130.743V107.298H132.743ZM132.743 104.829V102.855H130.743V104.829H132.743ZM131.743 103.855H131.798V101.855H131.743V103.855ZM131.812 103.855H131.868V101.855H131.812V103.855ZM131.868 103.855C132.854 103.855 133.78 104.15 134.553 104.667L135.664 103.003C134.569 102.272 133.258 101.855 131.868 101.855V103.855ZM135.114 105.104C135.803 105.728 136.315 106.554 136.555 107.511L138.495 107.024C138.156 105.675 137.432 104.505 136.457 103.622L135.114 105.104ZM136.555 107.51L140 121.291L141.941 120.806L138.495 107.025L136.555 107.51ZM140.862 124.736L144.307 138.518L146.248 138.032L142.802 124.251L140.862 124.736ZM144.307 138.518C144.346 138.674 144.377 138.834 144.399 138.998L146.381 138.731C146.35 138.495 146.305 138.262 146.248 138.032L144.307 138.518ZM144.414 139.12C144.431 139.282 144.44 139.446 144.44 139.613H146.44C146.44 139.376 146.427 139.14 146.403 138.907L144.414 139.12ZM144.44 139.613C144.44 140.791 144.015 141.872 143.308 142.713L144.839 144C145.836 142.814 146.44 141.282 146.44 139.613H144.44ZM142.712 143.309C141.87 144.016 140.789 144.44 139.61 144.44V146.44C141.279 146.44 142.811 145.837 143.998 144.84L142.712 143.309ZM139.61 144.44H128.983V146.44H139.61V144.44ZM126.327 144.44H115.7V146.44H126.327V144.44ZM116.558 145.953C117.066 145.105 117.466 144.205 117.755 143.271L115.844 142.681C115.603 143.462 115.268 144.215 114.842 144.927L116.558 145.953ZM117.951 142.561C118.182 141.612 118.3 140.635 118.3 139.645H116.3C116.3 140.475 116.201 141.294 116.008 142.087L117.951 142.561ZM118.3 139.645C118.3 139.196 118.274 138.747 118.224 138.3L116.237 138.522C116.279 138.897 116.3 139.272 116.3 139.645H118.3ZM118.183 137.966C118.121 137.524 118.036 137.084 117.928 136.649L115.987 137.131C116.078 137.499 116.15 137.87 116.202 138.242L118.183 137.966ZM13.41 5.5625C11.4914 5.5625 9.73 6.25448 8.36592 7.4001L9.65217 8.93162C10.6703 8.07654 11.9803 7.5625 13.41 7.5625V5.5625ZM7.39931 8.36616C6.25279 9.72974 5.56 11.4909 5.56 13.41H7.56C7.56 11.9804 8.07445 10.6709 8.93011 9.65327L7.39931 8.36616ZM5.56 13.41V69.0467H7.56V13.41H5.56ZM5.56 82.9558V138.592H7.56V82.9558H5.56ZM5.56 138.592C5.56 140.511 6.2531 142.272 7.39983 143.636L8.93059 142.349C8.07455 141.331 7.56 140.021 7.56 138.592H5.56ZM8.3663 144.602C9.73021 145.748 11.4914 146.44 13.41 146.44V144.44C11.9807 144.44 10.6709 143.926 9.65267 143.07L8.3663 144.602ZM13.41 146.44H36.4211V144.44H13.41V146.44ZM42.1739 146.44H65.185V144.44H42.1739V146.44ZM66.0442 144.928C65.6201 144.216 65.2858 143.462 65.0452 142.681L63.1338 143.269C63.4213 144.203 63.8206 145.103 64.3258 145.952L66.0442 144.928ZM64.8818 142.087C64.6888 141.294 64.59 140.475 64.59 139.645H62.59C62.59 140.634 62.7078 141.611 62.9384 142.56L64.8818 142.087ZM64.59 139.645C64.59 139.273 64.6109 138.898 64.6526 138.522L62.6648 138.302C62.6152 138.749 62.59 139.198 62.59 139.645H64.59ZM64.6875 138.242C64.7387 137.872 64.8099 137.501 64.9009 137.132L62.9591 136.653C62.8516 137.089 62.7672 137.528 62.7063 137.969L64.6875 138.242ZM64.9002 137.135L65.4724 134.845L63.5321 134.36L62.9598 136.65L64.9002 137.135ZM65.6154 134.272L66.1877 131.982L64.2473 131.498L63.6751 133.788L65.6154 134.272ZM65.2175 130.74H43.2608V132.74H65.2175V130.74ZM37.7717 130.74H15.815V132.74H37.7717V130.74ZM15.815 130.74C14.7917 130.74 13.8549 130.372 13.1263 129.76L11.8391 131.29C12.9138 132.194 14.3025 132.74 15.815 132.74V130.74ZM12.6095 129.242C11.9976 128.514 11.63 127.577 11.63 126.552H9.63C9.63 128.065 10.1753 129.454 11.0779 130.529L12.6095 129.242ZM11.63 126.552V81.6158H9.63V126.552H11.63ZM11.63 70.3817V25.445H9.63V70.3817H11.63ZM11.63 25.445C11.63 24.422 11.9977 23.4853 12.6099 22.7567L11.0787 21.47C10.1758 22.5446 9.63 23.9328 9.63 25.445H11.63ZM13.1267 22.2399C13.8553 21.6277 14.792 21.26 15.815 21.26V19.26C14.3028 19.26 12.9146 19.8058 11.84 20.7087L13.1267 22.2399ZM15.815 21.26H41.2294V19.26H15.815V21.26ZM47.5831 21.26H72.9975V19.26H47.5831V21.26ZM73.7392 20.9308C74.9479 19.5942 76.252 18.3563 77.644 17.2228L76.3812 15.6719C74.9104 16.8695 73.5326 18.1775 72.2558 19.5892L73.7392 20.9308ZM78.7049 16.392C80.1334 15.3164 81.6476 14.3454 83.2403 13.4848L82.2897 11.7252C80.6095 12.6329 79.0109 13.658 77.5019 14.7942L78.7049 16.392ZM83.758 12.487C83.5518 10.7523 82.7766 9.19547 81.6392 8.00142L80.1911 9.38089C81.0439 10.2762 81.6191 11.4367 81.772 12.723L83.758 12.487ZM80.7022 7.16192C79.3889 6.16054 77.7539 5.5625 76 5.5625V7.5625C77.2934 7.5625 78.5066 8.00281 79.4896 8.75234L80.7022 7.16192ZM76 5.5625H48.1822V7.5625H76V5.5625ZM41.2278 5.5625H13.41V7.5625H41.2278V5.5625ZM73.6949 116.622L71.3204 126.121L73.2607 126.606L75.6351 117.108L73.6949 116.622ZM70.7268 128.496L68.3524 137.995L70.2926 138.48L72.6671 128.981L70.7268 128.496ZM68.3514 137.999C68.2924 138.238 68.2464 138.48 68.2133 138.722L70.1948 138.993C70.2184 138.821 70.2513 138.648 70.2936 138.476L68.3514 137.999ZM68.1907 138.905C68.1636 139.152 68.15 139.399 68.15 139.645H70.15C70.15 139.473 70.1595 139.299 70.1788 139.124L68.1907 138.905ZM68.15 139.645C68.15 141.306 68.75 142.831 69.7422 144.011L71.2733 142.725C70.5716 141.89 70.15 140.816 70.15 139.645H68.15ZM70.5785 144.848C71.7591 145.84 73.2841 146.44 74.945 146.44V144.44C73.7737 144.44 72.7002 144.018 71.8653 143.317L70.5785 144.848ZM74.945 146.44H88.7217V144.44H74.945V146.44ZM92.1658 146.44H105.942V144.44H92.1658V146.44ZM105.942 146.44C107.603 146.44 109.128 145.84 110.309 144.848L109.022 143.317C108.187 144.018 107.114 144.44 105.942 144.44V146.44ZM111.145 144.011C112.138 142.831 112.738 141.306 112.738 139.645H110.738C110.738 140.816 110.316 141.89 109.614 142.725L111.145 144.011ZM112.738 139.645C112.738 139.397 112.723 139.149 112.696 138.903L110.708 139.126C110.728 139.299 110.738 139.472 110.738 139.645H112.738ZM112.673 138.718C112.638 138.473 112.59 138.23 112.529 137.99L110.591 138.485C110.634 138.653 110.668 138.824 110.692 138.996L112.673 138.718ZM112.53 137.995L110.158 128.496L108.218 128.981L110.59 138.48L112.53 137.995ZM109.565 126.122L107.193 116.623L105.252 117.107L107.625 126.606L109.565 126.122ZM107.192 116.621C106.96 115.698 106.545 114.852 105.981 114.124L104.4 115.348C104.795 115.859 105.088 116.454 105.253 117.109L107.192 116.621ZM105.525 113.594C104.888 112.927 104.113 112.391 103.241 112.023L102.464 113.867C103.085 114.128 103.631 114.507 104.079 114.976L105.525 113.594ZM101.853 112.945V115.782H103.853V112.945H101.853ZM101.853 116.491V119.327H103.853V116.491H101.853ZM101.853 119.327C101.853 122.116 100.849 124.673 99.1812 126.659L100.713 127.945C102.671 125.614 103.853 122.605 103.853 119.327H101.853ZM97.7743 128.066C95.7896 129.735 93.2333 130.74 90.445 130.74V132.74C93.723 132.74 96.731 131.557 99.0615 129.597L97.7743 128.066ZM90.445 130.74C87.6559 130.74 85.0987 129.735 83.1132 128.067L81.8265 129.598C84.1578 131.557 87.1665 132.74 90.445 132.74V130.74ZM81.7057 126.659C80.0371 124.674 79.0325 122.117 79.0325 119.327H77.0325C77.0325 122.606 78.2153 125.615 80.1745 127.946L81.7057 126.659ZM79.0325 119.327V116.491H77.0325V119.327H79.0325ZM79.0325 115.782V112.945H77.0325V115.782H79.0325ZM77.6455 112.023C76.7715 112.39 75.9967 112.926 75.3594 113.594L76.8064 114.975C77.2534 114.506 77.799 114.127 78.4195 113.867L77.6455 112.023ZM74.9036 114.124C74.3412 114.853 73.9268 115.698 73.6951 116.621L75.6349 117.108C75.7995 116.453 76.0922 115.857 76.4864 115.347L74.9036 114.124ZM68.8675 24.82H45.4553V26.82H68.8675V24.82ZM39.6022 24.82H16.19V26.82H39.6022V24.82ZM15.19 25.82V70.4244H17.19V25.82H15.19ZM15.19 81.5756V126.18H17.19V81.5756H15.19ZM16.19 127.18H38.5967V125.18H16.19V127.18ZM44.1983 127.18H66.605V125.18H44.1983V127.18ZM67.5752 126.422L68.7596 121.684L66.8193 121.199L65.6348 125.938L67.5752 126.422ZM69.0557 120.499L70.2402 115.76L68.2999 115.275L67.1154 120.014L69.0557 120.499ZM70.2397 115.762C70.4856 114.786 70.8738 113.853 71.3855 112.993L69.6666 111.97C69.0574 112.994 68.5942 114.107 68.3003 115.273L70.2397 115.762ZM71.793 112.361C72.3653 111.539 73.055 110.801 73.842 110.176L72.598 108.609C71.6562 109.358 70.8334 110.239 70.152 111.217L71.793 112.361ZM74.22 109.393V97.0114H72.22V109.393H74.22ZM74.22 93.9161V81.535H72.22V93.9161H74.22ZM72.7367 80.6596L71.7445 81.2073L72.7111 82.9582L73.7033 82.4105L72.7367 80.6596ZM71.4964 81.3443L70.5042 81.8921L71.4708 83.643L72.463 83.0952L71.4964 81.3443ZM70.5032 81.8926C70.1346 82.0966 69.7444 82.2584 69.3422 82.3752L69.9001 84.2958C70.444 84.1378 70.9721 83.919 71.4718 83.6424L70.5032 81.8926ZM69.0375 82.4546C68.6275 82.5493 68.2092 82.5975 67.7925 82.5975V84.5975C68.3633 84.5975 68.9325 84.5315 69.4875 84.4033L69.0375 82.4546ZM67.7925 82.5975C66.4217 82.5975 65.1655 82.1042 64.1889 81.2835L62.9022 82.8146C64.2245 83.9259 65.9322 84.5975 67.7925 84.5975V82.5975ZM63.4965 80.5911C62.6758 79.6145 62.1825 78.3583 62.1825 76.9875H60.1825C60.1825 78.8478 60.8541 80.5555 61.9654 81.8778L63.4965 80.5911ZM62.1825 76.9875V76.8531H60.1825V76.9875H62.1825ZM62.1825 76.8194V76.685H60.1825V76.8194H62.1825ZM62.1825 76.685C62.1825 76.3858 62.2059 76.0907 62.2525 75.801L60.2778 75.4836C60.2142 75.8798 60.1825 76.281 60.1825 76.685H62.1825ZM62.292 75.5834C62.3504 75.2954 62.4321 75.0122 62.5374 74.7349L60.6676 74.0251C60.5238 74.404 60.4118 74.7917 60.3319 75.1861L62.292 75.5834ZM62.5401 74.7276L64.919 68.311L63.0438 67.6157L60.6649 74.0324L62.5401 74.7276ZM65.5137 66.7068L67.8926 60.2901L66.0174 59.5949L63.6385 66.0116L65.5137 66.7068ZM67.8629 59.5232C66.5132 56.601 65.5773 53.5432 65.0634 50.4171L63.0899 50.7415C63.6331 54.0457 64.6222 57.2765 66.0471 60.3618L67.8629 59.5232ZM64.7562 48.0489C64.4561 44.905 64.5767 41.7084 65.1278 38.5256L63.1572 38.1844C62.5759 41.5411 62.4481 44.9164 62.7652 48.2389L64.7562 48.0489ZM65.1279 38.5252C65.4595 36.6051 65.9504 34.7275 66.5969 32.9007L64.7115 32.2335C64.0273 34.1667 63.5078 36.1537 63.1571 38.1848L65.1279 38.5252ZM67.1112 31.5396C67.8297 29.7524 68.701 28.0164 69.7216 26.3401L68.0134 25.2999C66.9365 27.0686 66.0157 28.9028 65.2555 30.7935L67.1112 31.5396ZM81.8067 75.6495L80.2467 76.5106L81.2133 78.2616L82.7733 77.4005L81.8067 75.6495ZM79.8567 76.7259L78.2967 77.587L79.2633 79.338L80.8233 78.4769L79.8567 76.7259ZM77.78 78.4625V91.1569H79.78V78.4625H77.78ZM77.78 94.3306V107.025H79.78V94.3306H77.78ZM78.9158 108.016C79.1146 107.988 79.3166 107.967 79.521 107.953L79.3754 105.958C79.1303 105.976 78.8863 106.001 78.6442 106.034L78.9158 108.016ZM79.6736 107.943C79.8763 107.931 80.0812 107.925 80.2875 107.925V105.925C80.0437 105.925 79.8003 105.932 79.5581 105.946L79.6736 107.943ZM80.2875 107.925H81.4253V105.925H80.2875V107.925ZM81.7097 107.925H82.8475V105.925H81.7097V107.925ZM83.8475 106.925V93.5406H81.8475V106.925H83.8475ZM83.8475 90.1945V76.81H81.8475V90.1945H83.8475ZM83.3115 75.9242L83.2415 75.8875L82.3135 77.6591L82.3835 77.6958L83.3115 75.9242ZM83.224 75.8784L83.154 75.8417L82.226 77.6133L82.296 77.65L83.224 75.8784ZM83.1363 75.8326L83.1004 75.8147L82.2079 77.6045L82.2437 77.6224L83.1363 75.8326ZM83.0915 75.8103L83.0556 75.7924L82.163 77.5822L82.1989 77.6L83.0915 75.8103ZM83.0565 75.7928L83.0564 75.7928L82.162 77.5816L82.1621 77.5817L83.0565 75.7928ZM83.0564 75.7928L83.0563 75.7927L82.1619 77.5816L82.162 77.5816L83.0564 75.7928ZM83.0563 75.7927L83.0562 75.7927L82.1618 77.5815L82.1619 77.5816L83.0563 75.7927ZM83.0562 75.7927L83.0561 75.7926L82.1617 77.5815L82.1618 77.5815L83.0562 75.7927ZM83.0548 75.792C83.0068 75.7681 82.9616 75.7455 82.9168 75.723L82.0166 77.5089C82.0663 77.5339 82.1157 77.5586 82.163 77.5821L83.0548 75.792ZM82.8837 75.7062C82.84 75.6841 82.7981 75.6624 82.7571 75.6408L81.8229 77.4092C81.876 77.4373 81.9281 77.4641 81.9787 77.4898L82.8837 75.7062ZM104.004 74.3758C100.92 74.7755 97.8695 74.7073 94.9133 74.1871L94.5667 76.1568C97.7262 76.7128 100.98 76.7844 104.261 76.3592L104.004 74.3758ZM92.6858 73.705C89.7759 72.9556 86.9709 71.7553 84.3329 70.1157L83.2771 71.8143C86.0844 73.5592 89.0768 74.8408 92.1869 75.6418L92.6858 73.705ZM84.3314 70.1148L83.7159 69.7337L82.663 71.4341L83.2786 71.8152L84.3314 70.1148ZM83.562 69.6384L82.9464 69.2573L81.8936 70.9577L82.5091 71.3388L83.562 69.6384ZM81.9365 69.2322L75.6631 72.6977L76.6302 74.4484L82.9036 70.9828L81.9365 69.2322ZM74.0948 73.5641L67.8214 77.0297L68.7886 78.7803L75.0619 75.3148L74.0948 73.5641ZM67.8242 77.0282C67.8272 77.0265 67.8307 77.0252 67.8339 77.0243C67.8371 77.0235 67.8388 77.0235 67.8384 77.0235L67.8547 79.0235C68.1757 79.0208 68.4954 78.9411 68.7859 78.7818L67.8242 77.0282ZM67.8357 77.0233C67.8303 77.0228 67.8127 77.0197 67.7854 77.0036L66.7697 78.7264C67.0309 78.8805 67.3194 78.9789 67.6187 79.0115L67.8357 77.0233ZM67.7901 77.0064C67.7583 76.9874 67.7451 76.9712 67.7416 76.9663L66.112 78.1257C66.2853 78.3693 66.5091 78.5709 66.7649 78.7236L67.7901 77.0064ZM67.7403 76.9642C67.7404 76.9644 67.7417 76.967 67.743 76.9718C67.7443 76.9768 67.745 76.9823 67.745 76.9875H65.745C65.745 77.3227 65.8315 77.6429 65.9865 77.9256L67.7403 76.9642ZM67.745 76.9875V76.8531H65.745V76.9875H67.745ZM67.745 76.8194V76.685H65.745V76.8194H67.745ZM67.745 76.685C67.745 76.677 67.7456 76.6739 67.7455 76.6743L65.7691 76.3677C65.7524 76.4758 65.745 76.5818 65.745 76.685H67.745ZM67.7454 76.6748C67.745 76.6765 67.7444 76.6786 67.7438 76.6802L65.8762 75.9648C65.8357 76.0706 65.805 76.1778 65.7835 76.2861L67.7454 76.6748ZM67.7476 76.6701L70.4976 69.2523L68.6224 68.5571L65.8724 75.9749L67.7476 76.6701ZM71.1851 67.3979L73.9351 59.9801L72.0599 59.2849L69.3099 66.7027L71.1851 67.3979ZM73.8919 59.1853L73.6508 58.7031L71.862 59.5975L72.1031 60.0797L73.8919 59.1853ZM73.5905 58.5825L73.3494 58.1003L71.5606 58.9947L71.8017 59.4769L73.5905 58.5825ZM73.3486 58.0986C72.0567 55.5267 71.1521 52.8261 70.6433 50.0574L68.6763 50.4188C69.2196 53.3755 70.1852 56.2565 71.5614 58.9964L73.3486 58.0986ZM70.3344 47.9531C70.0264 45.1616 70.1138 42.3144 70.6077 39.4712L68.6373 39.1288C68.1115 42.1554 68.0176 45.1917 68.3464 48.1725L70.3344 47.9531ZM70.6079 39.4705C71.5977 33.7513 74.2411 28.5858 78.0145 24.475L76.5411 23.1225C72.5187 27.5046 69.695 33.0176 68.6372 39.1295L70.6079 39.4705ZM81.0918 21.5616C85.4041 18.0178 90.7069 15.6623 96.4707 14.9908L96.2393 13.0042C90.079 13.7219 84.4189 16.2388 79.822 20.0164L81.0918 21.5616ZM96.4679 14.9911C96.9971 14.931 97.5254 14.8837 98.052 14.8497L97.9231 12.8539C97.3634 12.89 96.8028 12.9402 96.2421 13.0039L96.4679 14.9911ZM98.4485 14.8266C98.9797 14.799 99.5088 14.785 100.035 14.785V12.785C99.4733 12.785 98.9096 12.7999 98.3447 12.8293L98.4485 14.8266ZM100.035 14.785C103.591 14.785 107.067 15.4023 110.329 16.5886L111.012 14.709C107.531 13.4427 103.824 12.785 100.035 12.785V14.785ZM112.752 17.5935C115.888 19.0595 118.779 21.08 121.293 23.6098L122.712 22.2002C120.032 19.5034 116.947 17.3468 113.599 15.7817L112.752 17.5935ZM121.003 22.905V22.9061H123.003V22.905H121.003ZM121.003 22.9064V22.9075H123.003V22.9064H121.003ZM121.293 23.6125C124.194 26.5307 126.414 29.9457 127.886 33.6531L129.745 32.9153C128.174 28.9571 125.804 25.3132 122.712 22.2025L121.293 23.6125ZM128.856 36.5146C129.939 40.3353 130.265 44.3977 129.765 48.5014L131.75 48.7436C132.283 44.3774 131.936 40.0473 130.78 35.9692L128.856 36.5146ZM129.765 48.5013C129.046 54.3904 126.509 59.8166 122.737 64.182L124.25 65.4897C128.266 60.842 130.98 55.0498 131.75 48.7437L129.765 48.5013ZM119.658 67.2708C115.312 71.0518 109.897 73.6141 104.004 74.3757L104.261 76.3593C110.566 75.5443 116.344 72.8049 120.971 68.7797L119.658 67.2708ZM90.445 125.18C89.0156 125.18 87.7055 124.665 86.6872 123.809L85.4 125.34C86.764 126.487 88.5257 127.18 90.445 127.18V125.18ZM85.9652 123.086C85.1094 122.068 84.595 120.757 84.595 119.327H82.595C82.595 121.246 83.2876 123.008 84.4338 124.373L85.9652 123.086ZM84.595 119.327V116.285H82.595V119.327H84.595ZM84.595 115.525V112.482H82.595V115.525H84.595ZM83.595 113.482H89.6839V111.482H83.595V113.482ZM91.2061 113.482H97.295V111.482H91.2061V113.482ZM96.295 112.482V115.525H98.295V112.482H96.295ZM96.295 116.285V119.327H98.295V116.285H96.295ZM96.295 119.327C96.295 120.757 95.7803 122.067 94.9244 123.086L96.4557 124.372C97.6019 123.008 98.295 121.246 98.295 119.327H96.295ZM94.2023 123.808C93.1836 124.665 91.8735 125.18 90.445 125.18V127.18C92.3636 127.18 94.1254 126.486 95.4896 125.339L94.2023 123.808ZM143.888 105.68C143.277 103.231 141.964 101.106 140.195 99.5014L138.851 100.983C140.334 102.328 141.434 104.108 141.947 106.165L143.888 105.68ZM138.757 98.3785C136.772 97.0515 134.393 96.2925 131.867 96.2925V98.2925C133.988 98.2925 135.982 98.9291 137.645 100.041L138.757 98.3785ZM131.867 96.2925H122.863V98.2925H131.867V96.2925ZM120.612 96.2925H111.607V98.2925H120.612V96.2925ZM111.607 96.2925C109.083 96.2925 106.705 97.051 104.72 98.3776L105.832 100.04C107.495 98.9287 109.488 98.2925 111.607 98.2925V96.2925ZM103.283 99.5002C101.514 101.105 100.202 103.229 99.5921 105.678L101.533 106.162C102.045 104.105 103.145 102.326 104.626 100.981L103.283 99.5002ZM99.5926 105.676L99.4804 106.123L101.42 106.61L101.532 106.164L99.5926 105.676ZM99.4524 106.235L99.3401 106.681L101.28 107.169L101.392 106.722L99.4524 106.235ZM100.31 105.925H95.0211V107.925H100.31V105.925ZM93.6989 105.925H88.41V107.925H93.6989V105.925ZM89.41 106.925V94.6239H87.41V106.925H89.41ZM89.41 91.5486V79.2475H87.41V91.5486H89.41ZM88.0863 80.1936C90.5069 81.0219 92.9782 81.5946 95.4873 81.908L95.7351 79.9234C93.3639 79.6273 91.0264 79.0858 88.7337 78.3014L88.0863 80.1936ZM97.3811 82.0946C99.8844 82.2759 102.419 82.2014 104.972 81.8691L104.713 79.8859C102.291 80.2011 99.8918 80.2712 97.5256 80.0998L97.3811 82.0946ZM104.97 81.8693C112.378 80.9144 119.168 77.6954 124.605 72.9622L123.292 71.4537C118.135 75.9424 111.709 78.9841 104.715 79.8857L104.97 81.8693ZM128.458 69.0946C133.176 63.6321 136.362 56.8256 137.268 49.4163L135.282 49.1737C134.428 56.1665 131.418 62.6072 126.944 67.7873L128.458 69.0946ZM137.268 49.4165C137.895 44.2941 137.487 39.2138 136.129 34.4292L134.205 34.9752C135.49 39.5022 135.877 44.3143 135.282 49.1735L137.268 49.4165ZM134.913 30.847C133.069 26.2055 130.288 21.9317 126.659 18.2824L125.241 19.6926C128.678 23.1496 131.31 27.1948 133.055 31.5855L134.913 30.847ZM126.659 18.2823C123.03 14.634 118.773 11.8281 114.146 9.95566L113.395 11.8096C117.773 13.5811 121.803 16.2363 125.241 19.6927L126.659 18.2823ZM110.572 8.71669C105.792 7.32683 100.714 6.88731 95.5942 7.48423L95.8258 9.47077C100.681 8.90468 105.491 9.32203 110.014 10.6371L110.572 8.71669ZM95.5946 7.48418C94.4011 7.62282 93.2059 7.82413 92.0148 8.087L92.4459 10.04C93.5718 9.79149 94.7002 9.60153 95.8254 9.47082L95.5946 7.48418ZM91.1314 8.29347C89.9664 8.58094 88.8067 8.92735 87.658 9.33174L88.322 11.2183C89.4106 10.8351 90.5086 10.5071 91.6106 10.2352L91.1314 8.29347ZM88.9572 10.021C88.2761 7.42744 86.8372 5.16255 84.9229 3.4467L83.588 4.93601C85.2233 6.40172 86.4453 8.33012 87.0228 10.529L88.9572 10.021ZM83.3803 2.25131C81.2419 0.826683 78.6897 0 76 0V2C78.2767 2 80.4459 2.69956 82.2714 3.91575L83.3803 2.25131ZM76 0H48.1822V2H76V0ZM41.2278 0H13.41V2H41.2278V0ZM13.41 0C10.1324 0 7.1244 1.18292 4.79348 3.14189L6.08025 4.67298C8.06547 3.00454 10.622 2 13.41 2V0ZM3.14189 4.79348C1.18292 7.1244 0 10.1324 0 13.41H2C2 10.622 3.00454 8.06547 4.67297 6.08025L3.14189 4.79348ZM0 13.41V69.0467H2V13.41H0ZM0 82.9558V138.592H2V82.9558H0ZM0 138.592C0 141.87 1.18299 144.878 3.1421 147.208L4.673 145.921C3.00456 143.937 2 141.381 2 138.592H0ZM4.79384 148.859C7.12476 150.818 10.1327 152 13.41 152V150C10.622 150 8.0655 148.996 6.08034 147.328L4.79384 148.859ZM13.41 152H69.4989V150H13.41V152ZM83.5211 152H139.61V150H83.5211V152ZM139.61 152C142.638 152 145.417 150.908 147.571 149.098L146.284 147.567C144.477 149.086 142.149 150 139.61 150V152ZM149.097 147.573C150.907 145.42 152 142.641 152 139.613H150C150 142.151 149.085 144.479 147.566 146.286L149.097 147.573ZM152 139.613C152 139.174 151.976 138.736 151.928 138.301L149.94 138.52C149.98 138.883 150 139.247 150 139.613H152ZM151.887 137.975C151.828 137.541 151.744 137.111 151.637 136.686L149.698 137.174C149.787 137.528 149.856 137.887 149.906 138.248L151.887 137.975ZM151.638 136.688L148.193 122.906L146.253 123.391L149.697 137.172L151.638 136.688ZM147.332 119.461L143.888 105.68L141.947 106.165L145.392 119.946L147.332 119.461ZM92.8522 57.7745C92.5994 57.7745 92.369 57.6844 92.188 57.5326L90.9026 59.0648C91.4292 59.5066 92.1107 59.7745 92.8522 59.7745V57.7745ZM92.0594 57.4042C91.9072 57.2234 91.8173 56.9935 91.8173 56.742H89.8173C89.8173 57.484 90.0863 58.1659 90.5295 58.6923L92.0594 57.4042ZM91.8173 56.742C91.8173 56.4904 91.9073 56.2598 92.0599 56.0782L90.5288 54.7914C90.0861 55.3182 89.8173 56.0002 89.8173 56.742H91.8173ZM92.1886 55.9495C92.3698 55.7971 92.6001 55.707 92.8522 55.707V53.707C92.1098 53.707 91.4279 53.9761 90.9016 54.4186L92.1886 55.9495ZM92.8522 55.707C93.103 55.707 93.3335 55.797 93.5154 55.9499L94.8026 54.4192C94.2763 53.9766 93.5944 53.707 92.8522 53.707V55.707ZM93.6444 56.0789C93.7973 56.2607 93.8873 56.4912 93.8873 56.742H95.8873C95.8873 55.9998 95.6176 55.3179 95.1751 54.7917L93.6444 56.0789ZM93.8873 56.742C93.8873 56.9927 93.7974 57.2225 93.6448 57.4036L95.1744 58.6921C95.6175 58.1661 95.8873 57.4844 95.8873 56.742H93.8873ZM93.5159 57.5322C93.3344 57.6845 93.1037 57.7745 92.8522 57.7745V59.7745C93.5935 59.7745 94.2751 59.506 94.8016 59.0642L93.5159 57.5322ZM115.042 48.1445H106.193V50.1445H115.042V48.1445ZM103.981 48.1445H95.1323V50.1445H103.981V48.1445ZM96.1129 48.9485L95.324 45.0008L93.3628 45.3927L94.1516 49.3405L96.1129 48.9485ZM95.1268 44.0138L94.3379 40.066L92.3766 40.458L93.1655 44.4057L95.1268 44.0138ZM93.3573 41.262H104.574V39.262H93.3573V41.262ZM107.378 41.262H118.595V39.262H107.378V41.262ZM117.666 39.8907L116.087 43.8384L117.944 44.5811L119.523 40.6333L117.666 39.8907ZM115.693 44.8254L114.114 48.7732L115.971 49.5158L117.55 45.5681L115.693 44.8254ZM119.96 56.742C119.96 56.0002 119.691 55.3182 119.248 54.7914L117.717 56.0782C117.87 56.2598 117.96 56.4904 117.96 56.742H119.96ZM118.875 54.4186C118.349 53.9761 117.667 53.707 116.925 53.707V55.707C117.177 55.707 117.407 55.7971 117.588 55.9495L118.875 54.4186ZM116.925 53.707C116.182 53.707 115.501 53.9768 114.975 54.4199L116.263 55.9495C116.444 55.7969 116.674 55.707 116.925 55.707V53.707ZM114.603 54.7927C114.161 55.3192 113.892 56.0007 113.892 56.742H115.892C115.892 56.4906 115.982 56.2599 116.135 56.0783L114.603 54.7927ZM113.892 56.742C113.892 57.4835 114.161 58.1649 114.603 58.6911L116.134 57.4041C115.982 57.2233 115.892 56.9933 115.892 56.742H113.892ZM114.976 59.0636C115.502 59.5058 116.183 59.7745 116.925 59.7745V57.7745C116.673 57.7745 116.443 57.6846 116.263 57.5326L114.976 59.0636ZM116.925 59.7745C117.666 59.7745 118.348 59.5066 118.874 59.0648L117.589 57.5326C117.408 57.6844 117.178 57.7745 116.925 57.7745V59.7745ZM119.248 58.6923C119.691 58.1659 119.96 57.484 119.96 56.742H117.96C117.96 56.9935 117.87 57.2234 117.718 57.4042L119.248 58.6923ZM77.0348 25.0745V27.5445H79.0348V25.0745H77.0348ZM77.0348 28.162V30.632H79.0348V28.162H77.0348ZM78.0348 31.632H81.467V29.632H78.0348V31.632ZM82.325 31.632H85.7572V29.632H82.325V31.632ZM84.7767 30.8282L86.4878 39.3804L88.4489 38.988L86.7378 30.4358L84.7767 30.8282ZM86.9156 41.5185L88.6267 50.0707L90.5878 49.6783L88.8767 41.1261L86.9156 41.5185ZM89.1789 48.9709C87.8472 49.6022 86.7273 50.5475 85.894 51.6958L87.5127 52.8704C88.152 51.9895 89.0114 51.2637 90.0356 50.7781L89.1789 48.9709ZM85.3169 52.6062C84.6348 53.8481 84.2572 55.264 84.2572 56.742H86.2572C86.2572 55.6066 86.5469 54.5212 87.0699 53.5689L85.3169 52.6062ZM84.2572 56.742C84.2572 58.8428 85.0159 60.7713 86.2711 62.2649L87.8022 60.9782C86.8374 59.8302 86.2572 58.3532 86.2572 56.742H84.2572ZM87.3293 63.3231C88.8229 64.5784 90.7514 65.337 92.8522 65.337V63.337C91.241 63.337 89.764 62.7568 88.6161 61.792L87.3293 63.3231ZM92.8522 65.337C94.9531 65.337 96.8816 64.5784 98.3752 63.3231L97.0884 61.792C95.9405 62.7568 94.4635 63.337 92.8522 63.337V65.337ZM99.4334 62.2649C100.689 60.7713 101.447 58.8428 101.447 56.742H99.4473C99.4473 58.3532 98.8671 59.8302 97.9023 60.9782L99.4334 62.2649ZM101.447 56.742C101.447 56.393 101.423 56.0439 101.376 55.6933L99.3941 55.9614C99.4297 56.2248 99.4473 56.4843 99.4473 56.742H101.447ZM101.337 55.4349C101.281 55.0998 101.203 54.7643 101.105 54.4273L99.1847 54.9867C99.2622 55.2529 99.3218 55.5122 99.3645 55.7662L101.337 55.4349ZM100.145 55.707H104.361V53.707H100.145V55.707ZM105.416 55.707H109.632V53.707H105.416V55.707ZM108.672 54.4273C108.574 54.7644 108.496 55.0996 108.44 55.4348L110.412 55.7662C110.455 55.5125 110.515 55.2534 110.592 54.9867L108.672 54.4273ZM108.401 55.6933C108.353 56.0435 108.33 56.3924 108.33 56.742H110.33C110.33 56.4834 110.347 56.224 110.383 55.9613L108.401 55.6933ZM108.33 56.742C108.33 58.8428 109.088 60.7713 110.344 62.2649L111.875 60.9782C110.91 59.8302 110.33 58.3532 110.33 56.742H108.33ZM111.402 63.3231C112.895 64.5784 114.824 65.337 116.925 65.337V63.337C115.314 63.337 113.837 62.7568 112.689 61.792L111.402 63.3231ZM116.925 65.337C119.026 65.337 120.954 64.5783 122.447 63.3228L121.16 61.7921C120.012 62.7568 118.536 63.337 116.925 63.337V65.337ZM123.505 62.2645C124.759 60.7709 125.517 58.8425 125.517 56.742H123.517C123.517 58.3533 122.937 59.8303 121.973 60.9782L123.505 62.2645ZM125.517 56.742C125.517 55.3607 125.186 54.0327 124.578 52.8495L122.799 53.764C123.264 54.6677 123.517 55.6825 123.517 56.742H125.517ZM124.063 51.9803C123.322 50.8815 122.321 49.9515 121.119 49.2773L120.141 51.0217C121.07 51.5431 121.838 52.2586 122.405 53.0991L124.063 51.9803ZM121.558 50.5208L123.275 46.2286L121.418 45.4859L119.701 49.7781L121.558 50.5208ZM123.704 45.1556L125.421 40.8633L123.564 40.1206L121.847 44.4129L123.704 45.1556ZM125.492 40.4963L125.503 37.923L123.503 37.9143L123.492 40.4877L125.492 40.4963ZM125.506 37.2797L125.517 34.7063L123.517 34.6977L123.506 37.271L125.506 37.2797ZM124.517 33.702H110.172V35.702H124.517V33.702ZM106.585 33.702H92.2398V35.702H106.585V33.702ZM93.2203 34.5057L92.3636 30.2268L90.4025 30.6194L91.2592 34.8983L93.2203 34.5057ZM92.1495 29.1571L91.2928 24.8782L89.3317 25.2708L90.1884 29.5497L92.1495 29.1571ZM90.3123 24.0745H84.8556V26.0745H90.3123V24.0745ZM83.4914 24.0745H78.0348V26.0745H83.4914V24.0745ZM21.258 102.857V100.383H19.258V102.857H21.258ZM21.258 99.7651V97.2917H19.258V99.7651H21.258ZM20.258 98.2917H41.9869V96.2917H20.258V98.2917ZM47.4191 98.2917H69.148V96.2917H47.4191V98.2917ZM68.148 97.2917V99.7651H70.148V97.2917H68.148ZM68.148 100.383V102.857H70.148V100.383H68.148ZM69.148 101.857H47.4191V103.857H69.148V101.857ZM41.9869 101.857H20.258V103.857H41.9869V101.857ZM45.078 121.112H34.0469V123.112H45.078V121.112ZM31.2891 121.112H20.258V123.112H31.2891V121.112ZM21.258 122.112V119.638H19.258V122.112H21.258ZM21.258 119.02V116.547H19.258V119.02H21.258ZM20.258 117.547H31.2891V115.547H20.258V117.547ZM34.0469 117.547H45.078V115.547H34.0469V117.547ZM44.078 116.547V119.02H46.078V116.547H44.078ZM44.078 119.638V122.112H46.078V119.638H44.078ZM21.258 112.487V110.013H19.258V112.487H21.258ZM21.258 109.395V106.922H19.258V109.395H21.258ZM20.258 107.922H41.9869V105.922H20.258V107.922ZM47.4191 107.922H69.148V105.922H47.4191V107.922ZM68.148 106.922V109.395H70.148V106.922H68.148ZM68.148 110.013V112.487H70.148V110.013H68.148ZM69.148 111.487H47.4191V113.487H69.148V111.487ZM41.9869 111.487H20.258V113.487H41.9869V111.487ZM53.9605 43.3317H41.4527V45.3317H53.9605V43.3317ZM38.3258 43.3317H25.818V45.3317H38.3258V43.3317ZM26.818 44.3317V40.3829H24.818V44.3317H26.818ZM26.818 39.3956V35.4468H24.818V39.3956H26.818ZM25.818 36.4468H38.3258V34.4468H25.818V36.4468ZM41.4527 36.4468H53.9605V34.4468H41.4527V36.4468ZM52.9605 35.4468V39.3956H54.9605V35.4468H52.9605ZM52.9605 40.3829V44.3317H54.9605V40.3829H52.9605ZM59.5205 48.8917H42.0705V50.8917H59.5205V48.8917ZM37.708 48.8917H20.258V50.8917H37.708V48.8917ZM21.258 49.8917V41.0006H19.258V49.8917H21.258ZM21.258 38.7779V29.8867H19.258V38.7779H21.258ZM20.258 30.8867H37.708V28.8867H20.258V30.8867ZM42.0705 30.8867H59.5205V28.8867H42.0705V30.8867ZM58.5205 29.8867V38.7779H60.5205V29.8867H58.5205ZM58.5205 41.0006V49.8917H60.5205V41.0006H58.5205ZM50.148 122.112V119.638H48.148V122.112H50.148ZM50.148 119.02V116.547H48.148V119.02H50.148ZM49.148 117.547H51.6202V115.547H49.148V117.547ZM52.2383 117.547H54.7105V115.547H52.2383V117.547ZM53.7105 116.547V119.02H55.7105V116.547H53.7105ZM53.7105 119.638V122.112H55.7105V119.638H53.7105ZM54.7105 121.112H52.2383V123.112H54.7105V121.112ZM51.6202 121.112H49.148V123.112H51.6202V121.112ZM59.5205 58.5218H42.0705V60.5218H59.5205V58.5218ZM37.708 58.5218H20.258V60.5218H37.708V58.5218ZM21.258 59.5218V57.0506H19.258V59.5218H21.258ZM21.258 56.4329V53.9618H19.258V56.4329H21.258ZM20.258 54.9618H37.708V52.9618H20.258V54.9618ZM42.0705 54.9618H59.5205V52.9618H42.0705V54.9618ZM58.5205 53.9618V56.4329H60.5205V53.9618H58.5205ZM58.5205 57.0506V59.5218H60.5205V57.0506H58.5205ZM21.258 69.1517V66.6795H19.258V69.1517H21.258ZM21.258 66.0615V63.5892H19.258V66.0615H21.258ZM20.258 64.5892H37.708V62.5892H20.258V64.5892ZM42.0705 64.5892H59.5205V62.5892H42.0705V64.5892ZM58.5205 63.5892V66.0615H60.5205V63.5892H58.5205ZM58.5205 66.6795V69.1517H60.5205V66.6795H58.5205ZM59.5205 68.1517H42.0705V70.1517H59.5205V68.1517ZM37.708 68.1517H20.258V70.1517H37.708V68.1517ZM53.9605 86.6643H41.4527V88.6643H53.9605V86.6643ZM38.3258 86.6643H25.818V88.6643H38.3258V86.6643ZM26.818 87.6643V83.7154H24.818V87.6643H26.818ZM26.818 82.7281V78.7793H24.818V82.7281H26.818ZM25.818 79.7793H38.3258V77.7793H25.818V79.7793ZM41.4527 79.7793H53.9605V77.7793H41.4527V79.7793ZM52.9605 78.7793V82.7281H54.9605V78.7793H52.9605ZM52.9605 83.7154V87.6643H54.9605V83.7154H52.9605ZM59.5205 92.2243H42.0705V94.2243H59.5205V92.2243ZM37.708 92.2243H20.258V94.2243H37.708V92.2243ZM21.258 93.2243V84.3331H19.258V93.2243H21.258ZM21.258 82.1104V73.2193H19.258V82.1104H21.258ZM20.258 74.2193H37.708V72.2193H20.258V74.2193ZM42.0705 74.2193H59.5205V72.2193H42.0705V74.2193ZM58.5205 73.2193V82.1104H60.5205V73.2193H58.5205ZM58.5205 84.3331V93.2243H60.5205V84.3331H58.5205ZM37.8555 15.1917H35.3833V17.1917H37.8555V15.1917ZM34.7652 15.1917H32.293V17.1917H34.7652V15.1917ZM33.293 16.1917V13.7195H31.293V16.1917H33.293ZM33.293 13.1015V10.6292H31.293V13.1015H33.293ZM32.293 11.6292H34.7652V9.62925H32.293V11.6292ZM35.3833 11.6292H37.8555V9.62925H35.3833V11.6292ZM36.8555 10.6292V13.1015H38.8555V10.6292H36.8555ZM36.8555 13.7195V16.1917H38.8555V13.7195H36.8555ZM54.7055 140.374H45.8144V142.374H54.7055V140.374ZM43.5916 140.374H34.7005V142.374H43.5916V140.374ZM35.7005 141.374V138.9H33.7005V141.374H35.7005ZM35.7005 138.281V135.807H33.7005V138.281H35.7005ZM34.7005 136.807H43.5916V134.807H34.7005V136.807ZM45.8144 136.807H54.7055V134.807H45.8144V136.807ZM53.7055 135.807V138.281H55.7055V135.807H53.7055ZM53.7055 138.9V141.374H55.7055V138.9H53.7055ZM42.9205 16.1917V13.7195H40.9205V16.1917H42.9205ZM42.9205 13.1015V10.6292H40.9205V13.1015H42.9205ZM41.9205 11.6292H48.6727V9.62925H41.9205V11.6292ZM50.3608 11.6292H57.113V9.62925H50.3608V11.6292ZM56.113 10.6292V13.1015H58.113V10.6292H56.113ZM56.113 13.7195V16.1917H58.113V13.7195H56.113ZM57.113 15.1917H50.3608V17.1917H57.113V15.1917ZM48.6727 15.1917H41.9205V17.1917H48.6727V15.1917ZM64.3355 121.112H61.8644V123.112H64.3355V121.112ZM61.2466 121.112H58.7755V123.112H61.2466V121.112ZM59.7755 122.112V119.638H57.7755V122.112H59.7755ZM59.7755 119.02V116.547H57.7755V119.02H59.7755ZM58.7755 117.547H61.2466V115.547H58.7755V117.547ZM61.8644 117.547H64.3355V115.547H61.8644V117.547ZM63.3355 116.547V119.02H65.3355V116.547H63.3355ZM63.3355 119.638V122.112H65.3355V119.638H63.3355Z" fill="url(#paint0_linear)"/>
<defs>
<linearGradient id="paint0_linear" x1="74.7445" y1="195.336" x2="205.029" y2="98.0657" gradientUnits="userSpaceOnUse">
<stop stop-color="#FB2059"/>
<stop offset="0.602402" stop-color="#8138E9"/>
<stop offset="1" stop-color="#12CAF9"/>
</linearGradient>
</defs>
</svg>
