<svg width="26" height="24" viewBox="0 0 26 24" fill="none" xmlns="http://www.w3.org/2000/svg">
<path id="span-icon_app-store" fill-rule="evenodd" clip-rule="evenodd" d="M22.703 17.9935H21.314L22.44 19.9025C22.911 20.7015 22.631 21.7265 21.814 22.1885C21.551 22.3375 21.259 22.4135 20.963 22.4135C20.813 22.4135 20.664 22.3945 20.517 22.3565C20.076 22.2405 19.707 21.9635 19.479 21.5755L13.891 12.1025L15.833 8.70049L19.341 14.6465H22.703C23.645 14.6465 24.413 15.3975 24.413 16.3205C24.413 17.2435 23.645 17.9935 22.703 17.9935ZM3.308 18.0295C2.359 18.0295 1.588 17.2475 1.588 16.2875C1.588 15.3275 2.359 14.5455 3.308 14.5455H6.694L11.339 6.40648L10.08 4.20048C9.632 3.41448 9.859 2.41948 10.578 1.90648L10.711 1.82148C11.532 1.34148 12.587 1.62748 13.061 2.45848L13.327 2.92348L13.592 2.45848C14.066 1.62748 15.121 1.34148 15.943 1.82148C16.341 2.05448 16.626 2.42948 16.745 2.87848C16.864 3.32748 16.803 3.79748 16.573 4.20048L10.67 14.5455H13.49L15.544 18.0295H3.308ZM6.834 21.5205C6.529 22.0935 5.974 22.4135 5.405 22.4135C5.126 22.4135 4.843 22.3365 4.585 22.1745C3.798 21.6815 3.527 20.5875 3.981 19.7335L4.045 19.6155H7.848L6.834 21.5205ZM26 16.3205C26 14.5225 24.521 13.0595 22.703 13.0595H20.247L16.887 7.35948C16.84 7.28048 16.778 7.21448 16.72 7.14648L17.953 4.98548C18.391 4.21848 18.506 3.32648 18.28 2.47248C18.052 1.61548 17.508 0.898485 16.746 0.452485L16.745 0.451485C15.981 0.00448477 15.088 -0.115515 14.231 0.113485C13.907 0.200485 13.603 0.333485 13.326 0.506485C13.051 0.333485 12.746 0.200485 12.422 0.113485C11.566 -0.114515 10.674 0.00448474 9.851 0.487485L9.656 0.615485C8.259 1.61048 7.848 3.49048 8.701 4.98648L9.511 6.40648L5.772 12.9595H3.308C1.483 12.9595 0 14.4525 0 16.2875C0 17.7965 1.01 19.0595 2.381 19.4665C1.848 20.9665 2.385 22.6695 3.74 23.5175C4.242 23.8335 4.817 24.0005 5.405 24.0005C6.582 24.0005 7.668 23.3355 8.236 22.2655L9.511 19.8705C9.555 19.7895 9.578 19.7015 9.606 19.6155H16.381C16.427 19.6155 16.447 19.6105 16.474 19.6075L18.111 22.3825C18.554 23.1325 19.265 23.6685 20.113 23.8905C20.391 23.9625 20.677 24.0005 20.963 24.0005C21.532 24.0005 22.098 23.8515 22.597 23.5695C23.368 23.1335 23.918 22.4245 24.146 21.5735C24.349 20.8205 24.274 20.0375 23.939 19.3425C25.147 18.8585 26 17.6855 26 16.3205Z" fill="#1D252D"/>
</svg>
