<svg width="18" height="14" viewBox="0 0 18 14" fill="none" xmlns="http://www.w3.org/2000/svg">
<path fill-rule="evenodd" d="M1.00001 0H17C17.5523 0 18 0.447715 18 1V13C18 13.5523 17.5523 14 17 14H1.00001C0.447725 14 1.02312e-05 13.5523 1.02312e-05 13V2.00418C-3.40944e-06 2.00116 -3.41135e-06 1.99814 1.02312e-05 1.99511V1C1.02312e-05 0.447715 0.447725 0 1.00001 0ZM2.00001 4.23087L8.18828 9.74651C8.57915 10.0949 9.17258 10.0828 9.54892 9.71875L13.6953 5.70784C14.0922 5.32386 14.1027 4.69078 13.7188 4.29383C13.3348 3.89687 12.7017 3.88636 12.3047 4.27035L8.82581 7.63562L2.50293 2H16V12H2.00001V4.23087Z" fill="#000"/>
</svg>
