<svg width="7" height="14" viewBox="0 0 7 14" fill="none" xmlns="http://www.w3.org/2000/svg">
<path fill-rule="evenodd" clip-rule="evenodd" d="M4.36188 14.0001V7.43758H6.89587L7 5.08033H4.36188V3.35133C4.36188 3.02408 4.4205 2.76508 4.53862 2.57433C4.65587 2.38533 4.93675 2.29695 5.3795 2.31008H6.93787L7 0.10945C6.80575 0.0831998 6.60888 0.0665748 6.40763 0.0595748C6.20725 0.0543247 6.0235 0.0438247 5.85725 0.0306997C5.663 0.0184497 5.46962 0.0114497 5.27625 0.0114497C4.66637 -0.0279253 4.144 0.0341997 3.70738 0.1987C3.27075 0.36145 2.91112 0.5907 2.62762 0.885575C2.34325 1.18045 2.13238 1.51733 1.99413 1.89708C1.85588 2.2777 1.78675 2.66358 1.78675 3.05645V5.08033H0V7.43758H1.78675V14.0001H4.36188Z" fill="#000"/>
</svg>
