<svg width="21" height="23" viewBox="0 0 21 23" fill="none" xmlns="http://www.w3.org/2000/svg">
<path id="span-icon_google" fill-rule="evenodd" clip-rule="evenodd" d="M19.3857 11.5112C19.3857 11.8702 19.2007 12.1882 18.8927 12.3612L14.8667 14.6232L11.9487 11.5112L14.8667 8.40019L18.8927 10.6622C19.2007 10.8362 19.3857 11.1532 19.3857 11.5112ZM1.63172 5.70919C1.61072 4.27019 1.60072 3.53119 1.63672 2.87919C2.70772 4.02719 8.92172 10.6912 9.69472 11.4912C9.17772 12.0412 5.84872 15.6182 2.59372 19.1162C2.16772 19.5742 1.83472 19.9312 1.64672 20.1342C1.72572 12.0202 1.66672 8.07519 1.63172 5.70919ZM2.76672 1.71619C3.52272 1.95819 5.03572 2.82519 7.69272 4.34719C9.20572 5.21319 11.0837 6.28819 13.4107 7.58619C13.0537 7.96419 12.9277 8.10019 12.8147 8.22319C12.5987 8.45719 12.4277 8.64219 10.8267 10.3142L2.76672 1.71619ZM6.07972 17.8102C8.23272 15.5402 9.45172 14.2522 10.1337 13.5312C10.5407 13.1012 10.7627 12.8672 10.8757 12.7332L12.6467 14.6202C13.0587 15.0592 13.2867 15.3042 13.4217 15.4352C9.22072 17.7642 6.70372 19.2032 5.19472 20.0652C3.38072 21.1012 2.95872 21.3412 2.70072 21.3782L6.07972 17.8102ZM19.6777 9.24519C18.1717 8.47219 17.1387 7.84719 16.3847 7.39119C15.8857 7.09019 15.5247 6.87119 15.2477 6.74419C14.7977 6.42219 13.9667 5.96619 12.4587 5.13819C11.4097 4.56119 10.1037 3.84419 8.39872 2.88319L8.01272 2.66519C3.09572 -0.105814 2.19772 -0.609814 0.908723 0.662186C-0.0502774 1.08419 -0.0342774 2.94819 0.0207226 9.03419C0.0447226 11.7792 0.0777226 15.5382 0.0307226 20.4092V20.4102C0.0307226 21.0812 0.291723 21.7472 0.701723 22.1362C1.06072 22.6282 1.87372 23.0002 2.59472 23.0002C3.03072 23.0002 3.46172 22.8872 3.84372 22.6752L15.1067 16.3472C15.1297 16.3342 15.1447 16.3172 15.1387 16.3132C15.5057 16.1512 16.0347 15.8462 16.9127 15.3432C17.6147 14.9382 18.4877 14.4382 19.6567 13.7882L19.6817 13.7752C20.5067 13.3112 20.9987 12.4652 20.9997 11.5122C20.9997 10.5592 20.5067 9.71319 19.6777 9.24519Z" fill="#1D252D"/>
</svg>
