<svg width="15" height="15" viewBox="0 0 15 15" fill="none" xmlns="http://www.w3.org/2000/svg">
<path fill-rule="evenodd" clip-rule="evenodd" d="M0 1.78377C0 0.764474 0.832693 0 1.88451 0C2.93634 0 3.79094 0.764474 3.79094 1.78377C3.79094 2.78183 2.93634 3.54631 1.88451 3.54631C0.832693 3.54631 0 2.78183 0 1.78377ZM0.416346 15V4.48849H3.3746V15H0.416346ZM15 15V8.48074C15 5.93249 13.4442 4.2549 10.9242 4.2549C9.63132 4.2549 8.51376 4.70084 7.74681 5.44408V4.48849H5.0296V15H7.98785V8.86298C7.98785 7.65256 8.84246 6.82438 10.0477 6.82438C11.2529 6.82438 12.0637 7.65256 12.0637 8.86298V15H15Z" fill="#000"/>
</svg>
