<svg width="18" height="18" viewBox="0 0 18 18" fill="none" xmlns="http://www.w3.org/2000/svg">
<path fill-rule="evenodd" clip-rule="evenodd" d="M16 13C16 14.654 14.654 16 13 16H5C3.346 16 2 14.654 2 13V5C2 3.346 3.346 2 5 2H13C14.654 2 16 3.346 16 5V13ZM13 0H5C2.243 0 0 2.243 0 5V13C0 15.757 2.243 18 5 18H13C15.757 18 18 15.757 18 13V5C18 2.243 15.757 0 13 0ZM9 11.5C7.622 11.5 6.5 10.378 6.5 9C6.5 7.622 7.622 6.5 9 6.5C10.378 6.5 11.5 7.622 11.5 9C11.5 10.378 10.378 11.5 9 11.5ZM9 4.5C6.519 4.5 4.5 6.519 4.5 9C4.5 11.481 6.519 13.5 9 13.5C11.481 13.5 13.5 11.481 13.5 9C13.5 6.519 11.481 4.5 9 4.5ZM12.5 4.5C12.5 3.948 12.948 3.5 13.5 3.5C14.052 3.5 14.5 3.948 14.5 4.5C14.5 5.052 14.052 5.5 13.5 5.5C12.948 5.5 12.5 5.052 12.5 4.5Z" fill="#000"/>
</svg>
