<svg width="28" height="32" viewBox="0 0 28 32" fill="none" xmlns="http://www.w3.org/2000/svg">
<path fill-rule="evenodd" clip-rule="evenodd" d="M23.861 20.018C23.53 19.61 22.954 19.563 22.569 19.913C22.539 19.939 19.553 22.594 13.999 22.594C8.513 22.594 5.481 19.958 5.427 19.91C5.043 19.563 4.467 19.61 4.137 20.017C3.979 20.212 3.9 20.467 3.919 20.725C3.937 20.982 4.051 21.222 4.236 21.389C4.378 21.517 7.774 24.539 13.999 24.539C20.224 24.539 23.62 21.517 23.762 21.389C23.946 21.222 24.06 20.983 24.079 20.726C24.097 20.468 24.019 20.213 23.861 20.018ZM28 32C28 32 23.286 30.145 19.472 28.659H3.437C1.539 28.659 0 27.027 0 25.014V3.645C0 1.632 1.539 0 3.437 0H24.561C26.459 0 27.999 1.632 27.999 3.645V22.049H28V32Z" fill="#000"/>
</svg>
