<svg width="18" height="18" viewBox="0 0 18 18" fill="none" xmlns="http://www.w3.org/2000/svg">
<path fill-rule="evenodd" clip-rule="evenodd" d="M6.63158 13.2632C10.2941 13.2632 13.2632 10.2941 13.2632 6.63158C13.2632 2.96906 10.2941 0 6.63158 0C2.96906 0 0 2.96906 0 6.63158C0 10.2941 2.96906 13.2632 6.63158 13.2632ZM6.63158 11.3684C4.01549 11.3684 1.89474 9.24766 1.89474 6.63158C1.89474 4.01549 4.01549 1.89474 6.63158 1.89474C9.24766 1.89474 11.3684 4.01549 11.3684 6.63158C11.3684 9.24766 9.24766 11.3684 6.63158 11.3684ZM12.3158 13.5789L13.5789 12.3158L18 16.7368L16.7368 18L12.3158 13.5789Z" fill="#000"/>
</svg>
