<svg width="16" height="13" viewBox="0 0 16 13" fill="none" xmlns="http://www.w3.org/2000/svg">
<path fill-rule="evenodd" clip-rule="evenodd" d="M16 1.53833C15.4112 1.79942 14.7787 1.976 14.1141 2.05508C14.7925 1.64883 15.3131 1.00533 15.5573 0.239417C14.9237 0.615333 14.2208 0.888333 13.4731 1.03567C12.8747 0.397583 12.0213 0 11.0773 0C8.95893 0 7.40053 1.976 7.87947 4.02892C5.152 3.89242 2.7328 2.58592 1.1136 0.600167C0.253867 2.07458 0.667733 4.00508 2.13013 4.98225C1.59147 4.96492 1.08587 4.81758 0.6432 4.57167C0.606933 6.09158 1.69707 7.514 3.27573 7.83033C2.81387 7.956 2.3072 7.98525 1.79307 7.88667C2.2112 9.191 3.42293 10.14 4.85973 10.166C3.47947 11.2472 1.74187 11.7303 0 11.5256C1.4528 12.4562 3.17867 13 5.03147 13C11.1264 13 14.5696 7.85308 14.3616 3.237C15.0037 2.77442 15.5595 2.19592 16 1.53833Z" fill="#000"/>
</svg>
