<svg width="16" height="16" viewBox="0 0 16 16" fill="none" xmlns="http://www.w3.org/2000/svg">
<path d="M15.9537 0.904188C15.8736 0.734399 15.7028 0.626099 15.5151 0.626099H0.484924C0.297225 0.626099 0.126402 0.734399 0.0462919 0.904188C-0.0337534 1.07398 -0.00866648 1.27467 0.110755 1.4195L5.88856 8.42728V14.8891C5.88856 15.0569 5.97526 15.2127 6.11777 15.3012C6.19587 15.3496 6.28452 15.374 6.37348 15.374C6.447 15.374 6.52077 15.3573 6.58879 15.3236L9.83508 13.7146C10 13.6329 10.1044 13.4648 10.1046 13.2808L10.111 8.42747L15.8891 1.41944C16.0086 1.27467 16.0337 1.07391 15.9537 0.904188ZM9.2522 7.94462C9.18076 8.03126 9.14157 8.14007 9.14145 8.25245L9.13524 12.9791L6.85848 14.1075V8.25309C6.85848 8.14053 6.81936 8.03145 6.74772 7.94462L1.51323 1.59589H14.4867L9.2522 7.94462Z" fill="#3145B6"/>
</svg>
