<svg width="77" height="63" viewBox="0 0 77 63" fill="none" xmlns="http://www.w3.org/2000/svg">
<path d="M61.1032 63C54.6452 63 49.7602 60.3333 46.4484 55C43.6333 50.5 42.2258 45 42.2258 38.5C42.2258 30.1667 44.2957 22.6667 48.4355 16C52.7409 9.33334 59.1989 4.00001 67.8097 0L70.0452 4.5C64.9118 6.66666 60.4409 10.0833 56.6323 14.75C52.9893 19.4167 51.1677 24.1667 51.1677 29C51.1677 31 51.4161 32.75 51.9129 34.25C54.5624 32.0833 57.6258 31 61.1032 31C65.5742 31 69.3 32.5 72.2807 35.5C75.4269 38.3333 77 42.1667 77 47C77 51.5 75.4269 55.3333 72.2807 58.5C69.3 61.5 65.5742 63 61.1032 63ZM18.8774 63C12.4194 63 7.53441 60.3333 4.22258 55C1.40753 50.5 0 45 0 38.5C0 30.1667 2.06989 22.6667 6.20968 16C10.5151 9.33334 16.9731 4.00001 25.5839 0L27.8194 4.5C22.686 6.66666 18.2151 10.0833 14.4065 14.75C10.7634 19.4167 8.94194 24.1667 8.94194 29C8.94194 31 9.19032 32.75 9.6871 34.25C12.3366 32.0833 15.4 31 18.8774 31C23.3484 31 27.0742 32.5 30.0548 35.5C33.2011 38.3333 34.7742 42.1667 34.7742 47C34.7742 51.5 33.2011 55.3333 30.0548 58.5C27.0742 61.5 23.3484 63 18.8774 63Z" fill="#3145B6"/>
</svg>
