<svg width="22" height="22" fill="none" xmlns="http://www.w3.org/2000/svg"><path d="M16.483 0H5.5C2.48 0 0 2.48 0 5.517V16.5C0 19.52 2.48 22 5.5 22h10.983A5.53 5.53 0 0022 16.483V5.517A5.53 5.53 0 0016.483 0zm-6.077 4.522c.035-.541.542-.349.803-.384 3.283.105 6.112 3.056 6.077 6.233 0 .315.104.769-.367.769-.454 0-.332-.472-.384-.786-.437-3.37-2.008-4.959-5.43-5.483-.28-.034-.716.018-.699-.349zm4.907 5.99c-.524.069-.42-.385-.472-.682-.349-2.06-1.082-2.811-3.195-3.265-.314-.07-.803-.017-.716-.489.07-.454.507-.297.838-.262 2.113.245 3.841 2.043 3.824 4.016-.035.21.105.611-.28.681zm-1.31-1.083c0 .279-.035.54-.349.576-.227.035-.367-.157-.402-.384-.087-.838-.54-1.345-1.414-1.484-.262-.035-.506-.123-.384-.472.087-.227.297-.262.524-.262.943-.017 2.025 1.083 2.025 2.026zm3.318 6.442c-.367.996-1.607 2.008-2.672 1.99-.157-.034-.454-.086-.716-.191C9.254 15.697 5.85 12.45 3.93 7.805 3.283 6.25 3.963 4.924 5.587 4.4a1.25 1.25 0 01.873 0c.699.244 2.462 2.637 2.497 3.335.035.541-.35.838-.716 1.082-.716.472-.716 1.066-.401 1.746.68 1.502 1.85 2.55 3.37 3.213.54.245 1.082.227 1.449-.332.663-.995 1.484-.942 2.374-.331.454.314.908.61 1.327.943.576.471 1.31.855.96 1.815z" fill="url(#paint0_linear)"/><defs><linearGradient id="paint0_linear" x1="11" y1="0" x2="22" y2="0" gradientUnits="userSpaceOnUse"><stop stop-color="#029C99"/><stop offset="1" stop-color="#006C6A"/></linearGradient></defs></svg>