<svg width="22" height="22" fill="none" xmlns="http://www.w3.org/2000/svg"><path d="M18.777 0H3.223A3.227 3.227 0 000 3.223v15.554A3.226 3.226 0 003.223 22h15.554A3.226 3.226 0 0022 18.777V3.223A3.226 3.226 0 0018.777 0zm-7.734 16.758a5.807 5.807 0 01-5.8-5.801c0-3.199 2.601-5.8 5.8-5.8s5.8 2.601 5.8 5.8-2.601 5.8-5.8 5.8zm6.445-10.313a1.936 1.936 0 01-1.933-1.933c0-1.066.867-1.934 1.933-1.934s1.934.868 1.934 1.934a1.936 1.936 0 01-1.934 1.933z" fill="url(#paint0_linear)"/><path d="M17.488 3.867a.645.645 0 10.001 1.29.645.645 0 000-1.29z" fill="url(#paint1_linear)"/><path d="M11.043 6.445a4.517 4.517 0 00-4.512 4.512 4.517 4.517 0 004.512 4.512 4.517 4.517 0 004.512-4.512 4.517 4.517 0 00-4.512-4.512z" fill="url(#paint2_linear)"/><defs><linearGradient id="paint0_linear" x1="11" y1="0" x2="22" y2="0" gradientUnits="userSpaceOnUse"><stop stop-color="#029C99"/><stop offset="1" stop-color="#006C6A"/></linearGradient><linearGradient id="paint1_linear" x1="17.488" y1="3.867" x2="18.133" y2="3.867" gradientUnits="userSpaceOnUse"><stop stop-color="#029C99"/><stop offset="1" stop-color="#006C6A"/></linearGradient><linearGradient id="paint2_linear" x1="11.043" y1="6.445" x2="15.555" y2="6.445" gradientUnits="userSpaceOnUse"><stop stop-color="#029C99"/><stop offset="1" stop-color="#006C6A"/></linearGradient></defs></svg>