<svg width="22" height="22" fill="none" xmlns="http://www.w3.org/2000/svg"><path d="M20.067 2.621H1.934a1.91 1.91 0 00-.829.194l9.852 9.852 2.208-2.122 7.73-7.73a1.912 1.912 0 00-.828-.194z" fill="url(#paint0_linear)"/><path d="M21.806 3.727L14.532 11l7.274 7.274c.12-.252.194-.531.194-.829V4.555c0-.298-.073-.576-.194-.828z" fill="url(#paint1_linear)"/><path d="M.194 3.726c-.12.252-.194.531-.194.829v12.89c0 .298.073.576.194.828L7.468 11 .194 3.726z" fill="url(#paint2_linear)"/><path d="M13.62 11.912l-2.208 2.122a.643.643 0 01-.911 0L8.379 11.91l-7.275 7.274c.253.12.531.194.83.194h18.132c.298 0 .576-.073.828-.194l-7.273-7.273z" fill="url(#paint3_linear)"/><defs><linearGradient id="paint0_linear" x1="11" y1="2.621" x2="20.895" y2="2.621" gradientUnits="userSpaceOnUse"><stop stop-color="#029C99"/><stop offset="1" stop-color="#006C6A"/></linearGradient><linearGradient id="paint1_linear" x1="18.266" y1="3.727" x2="22" y2="3.727" gradientUnits="userSpaceOnUse"><stop stop-color="#029C99"/><stop offset="1" stop-color="#006C6A"/></linearGradient><linearGradient id="paint2_linear" x1="3.734" y1="3.726" x2="7.468" y2="3.726" gradientUnits="userSpaceOnUse"><stop stop-color="#029C99"/><stop offset="1" stop-color="#006C6A"/></linearGradient><linearGradient id="paint3_linear" x1="10.999" y1="11.911" x2="20.894" y2="11.911" gradientUnits="userSpaceOnUse"><stop stop-color="#029C99"/><stop offset="1" stop-color="#006C6A"/></linearGradient></defs></svg>