<svg width="407" height="60" fill="none" xmlns="http://www.w3.org/2000/svg"><g clip-path="url(#clip0)"><path d="M316.931 35.317l-4.36 7.343h1.126l.912-1.552h5.881l.913 1.552h1.125l-4.36-7.343h-1.239.002zm-1.845 4.98l2.464-4.168 2.464 4.168h-4.928zm-8.915-4.98h-.994v7.343h6.693v-.812h-5.7v-6.53h.001zm-56.894 7.343h.994v-3.377h5.769v-.812h-5.77V36.13h6.003v-.811h-6.996v7.342-.001zm15.617-7.423h-4.228c-1.988 0-2.616.892-2.616 2.748v2.008c0 1.855.629 2.747 2.616 2.747h4.228c1.988 0 2.616-.892 2.616-2.748v-2.007c0-1.856-.628-2.748-2.616-2.748zm1.623 5.132c0 1.276-.771 1.56-1.724 1.56h-4.025c-.954 0-1.725-.284-1.725-1.56V37.61c0-1.277.77-1.562 1.725-1.562h4.025c.953 0 1.724.285 1.724 1.562v2.759zm9.016-5.052h-5.871v7.343h.995v-2.9h4.847c.903 0 1.46.142 1.46 1.287v1.613h.933v-1.876c0-.67-.244-1.198-1.257-1.38v-.019c.761-.07 1.349-.356 1.349-1.39v-.599c0-1.379-.335-2.079-2.454-2.079h-.002zm1.461 2.566c0 .77-.467 1.066-1.572 1.066h-4.766v-2.82h4.522c1.46 0 1.816.264 1.816 1.085v.669zm8.975 3.59l-4.289-6.154h-1.551v7.342h.994v-6.45h.02l4.472 6.45h.71l4.471-6.45h.021v6.45h.993v-7.342h-1.55l-4.291 6.154zm15.812-.669c0 .71-.243 1.125-1.592 1.125h-3.448c-1.349 0-1.592-.415-1.592-1.125v-5.487h-.993v5.497c0 1.49.75 1.926 2.616 1.926h3.387c1.867 0 2.616-.436 2.616-1.926v-5.497h-.994v5.487zm32.051-5.567h-4.229c-1.987 0-2.616.893-2.616 2.748v2.008c0 1.857.629 2.748 2.616 2.748h4.229c1.988 0 2.616-.891 2.616-2.748v-2.008c0-1.855-.63-2.748-2.616-2.748zm1.623 5.132c0 1.277-.772 1.561-1.724 1.561h-4.025c-.954 0-1.724-.284-1.724-1.56v-2.76c0-1.277.77-1.562 1.724-1.562h4.025c.953 0 1.724.285 1.724 1.563v2.758zm52.496-5.05l-4.36 7.342h1.126l.912-1.552h5.882l.912 1.552h1.125l-4.36-7.342h-1.238.001zm-1.844 4.979l2.463-4.168 2.464 4.168h-4.927zm-9.921-1.014h5.973v-.81h-5.973V36.13h6.217v-.811h-7.209v7.342h7.25v-.81h-6.258v-2.568zm-11.013-3.154h3.711v6.53h.995v-6.53h3.71v-.811h-8.416v.81zm-18.369 5.051l-6.112-5.864h-2.09v7.343h.993v-6.45l6.723 6.45h1.481v-7.343h-.993v5.864h-.002zm58.398-5.864l-4.29 6.156-4.288-6.156h-1.553v7.343h.995v-6.45h.02l4.471 6.45h.711l4.472-6.45h.021v6.45h.993v-7.343h-1.552zm-54.068 3.966h5.972v-.812h-5.972V36.13h6.216v-.811h-7.209v7.342h7.249v-.811h-6.256v-2.566zm10.419-2.776l-.981-1.41h-.69v2.01h.368v-1.554l1.08 1.554h.241l1.079-1.554v1.554h.366v-2.01h-.484l-.978 1.41h-.001zm-4.26-1.089h.961v1.69h.367v-1.689h.961v-.322h-2.289v.321zM136.854 14.902h16.939v-4.534h-16.939v-4.23h17.638V1.603h-22.496v22.509h22.611V19.58h-17.754v-4.679h.001zm-89.86 0h16.94v-4.534h-16.94v-4.23h17.638V1.603H42.136v22.509h22.61V19.58H46.994v-4.679h.001zm-27.261 2.624L7.874 1.606H1.102v22.51h5.057V8.707l11.568 15.408h2.375L31.162 8.78v15.336h5.057V1.606H30.19l-10.457 15.92zM87.32 1.606H69.363v22.51h5.058v-8.03h12.808c2.386 0 3.088.49 3.088 2.777v5.252h4.882v-6.008c0-1.702-.79-2.977-1.866-3.844 1.016-.694 1.866-1.93 1.866-4.158V8.673c0-4.476-1.07-7.067-7.883-7.067h.004zm3.089 8.178c0 .916 0 1.953-3.41 1.953H74.426v-5.6h11.878c4.106 0 4.106.715 4.106 2.013v1.634zm32.069 7.658c0 1.904-.186 2.564-3.845 2.564h-9.98c-2.837 0-3.846-.884-3.846-3.379V9.285c0-2.495 1.006-3.38 3.846-3.38h9.893c2.762 0 3.73.218 3.73 2.652v.567h4.707v-1.41c0-2.892-1.337-6.34-7.709-6.34h-10.913c-6.035 0-8.611 2.687-8.611 8.988v5.189c0 6.3 2.575 8.798 8.611 8.798h10.768c5.846 0 8.232-2.023 8.232-6.982v-1.12h-4.882v1.196l-.001-.001zm113.168-6.927h-7.856c-4.137 0-4.477-.61-4.477-2.245 0-2.216.849-2.364 6.689-2.364h3.026c6.735 0 6.157.13 6.202 2.732h4.883v-.605c0-4.794-2.208-6.66-9.367-6.66h-6.14c-4.758 0-10.174.253-10.174 6.693 0 6.893 4.681 7.213 12.996 7.213h4.831c3.495 0 3.495.65 3.495 2.216 0 1.94-.173 2.51-4.253 2.51h-8.265c-3.553 0-3.915-.992-3.915-1.953v-1.404h-4.883v1.462c0 6.43 6.623 6.237 9.293 6.237h7.332c3.346 0 9.572.478 9.572-6.182v-1.368c0-5.633-5.13-6.284-8.99-6.284l.001.002zm-58.713-8.909h-17.76v22.51h17.671c8.517 0 10.183-3.788 10.183-11.16 0-8.918-2.358-11.352-10.095-11.352l.001.002zm5.039 14.216c0 2.78-1.329 3.765-4.281 3.765H164.23V6.143h13.46c3.07 0 4.281 1.06 4.281 3.88l.001 5.8zm14.92-.915h16.94v-4.534h-16.94V6.142h17.638V1.608h-22.496v22.51h22.611v-4.532h-17.753v-4.68zM354.275 1.614h-5.457c-.727 0-1.826.32-2.438.71l-14.755 9.412-14.755-9.412c-.612-.392-1.71-.71-2.438-.71h-7.44a1.324 1.324 0 00-1.323 1.322v19.86c0 .727.595 1.323 1.323 1.323h5.457a1.327 1.327 0 001.322-1.323V10.842c0-1.667 1.623-1.243 2.429-.73l11.164 7.122c.613.392 1.71.71 2.438.71h2.545c.728 0 1.825-.32 2.438-.71l11.164-7.122c.806-.513 1.547.003 1.547.73v11.954c0 .727.596 1.323 1.323 1.323h5.457a1.327 1.327 0 001.322-1.323V2.936a1.325 1.325 0 00-1.322-1.323h-.001zm15.034 5.31h36.366a1.327 1.327 0 001.323-1.322V2.937a1.326 1.326 0 00-1.323-1.323h-44.468a1.328 1.328 0 00-1.323 1.323v19.86c0 .727.595 1.323 1.323 1.323h44.468a1.327 1.327 0 001.323-1.323V11.82a1.326 1.326 0 00-1.323-1.323h-21.829a1.327 1.327 0 00-1.322 1.323v1.696c0 .726.595 1.322 1.322 1.322h13.725c.727 0 1.321.595 1.321 1.322v.736a1.325 1.325 0 01-1.321 1.323h-28.263a1.327 1.327 0 01-1.323-1.323V8.245c0-.729.596-1.324 1.323-1.324l.001.004zm-69.227-5.31h-33.623c-.728 0-1.687.47-2.132 1.047l-15.748 20.415c-.444.576-.213 1.047.515 1.047h7.123c.917 0 1.63-.4 2.13-1.047l3.054-3.96c.297-.385.936-.699 1.421-.699h29.598c.484 0 .881.397.881.882v3.5c0 .728.595 1.324 1.323 1.324h5.456a1.328 1.328 0 001.323-1.323V2.94a1.33 1.33 0 00-1.323-1.323l.002-.004zm-6.78 10.608a.884.884 0 01-.881.883h-25.503c-.484 0-.639-.313-.342-.698l3.689-4.783c.295-.384.935-.698 1.421-.698h20.735c.485 0 .882.397.882.881v4.417l-.001-.002zM19.107 35.553H1.104v22.51H6.16v-7.816h12.396c7.145 0 7.68-2.94 7.68-7.858 0-5.672-2.846-6.836-7.127-6.836h-.003zm2.072 8.266c0 .999-.528 1.894-2.29 1.894H6.158v-5.627h12.73c1.676 0 2.29.611 2.29 2.01v1.724zm35.496-3.732h10.65v17.975h5.058V40.087h10.651v-4.534h-26.36v4.534zm178.975 4.376h-7.857c-4.136 0-4.476-.61-4.476-2.244 0-2.216.849-2.365 6.688-2.365h3.027c6.735 0 6.156.131 6.202 2.732h4.882v-.606c0-4.792-2.207-6.66-9.366-6.66h-6.141c-4.758 0-10.173.252-10.173 6.693 0 6.894 4.681 7.214 12.995 7.214h4.831c3.495 0 3.495.65 3.495 2.216 0 1.94-.173 2.51-4.253 2.51h-8.265c-3.553 0-3.915-.993-3.915-1.953v-1.405h-4.883v1.463c0 6.428 6.623 6.237 9.293 6.237h7.332c3.346 0 9.572.477 9.572-6.183v-1.368c0-5.632-5.13-6.283-8.99-6.283l.002.002zM35.759 48.85h16.94v-4.534h-16.94v-4.23h17.639v-4.533H30.9v22.51h22.61V53.53H35.759v-4.68zM104.6 35.557H86.643v22.51H91.7v-8.029h12.808c2.386 0 3.089.49 3.089 2.778v5.25h4.882v-6.008c0-1.703-.791-2.977-1.867-3.843 1.016-.694 1.867-1.93 1.867-4.16v-1.43c0-4.476-1.071-7.068-7.883-7.068h.005zm3.088 8.178c0 .916 0 1.953-3.408 1.953H91.704V40.09h11.877c4.107 0 4.107.713 4.107 2.01v1.635zm89.878-8.178l-13.535 22.51h5.798l2.605-4.333h15.462l2.654 4.334h6.018l-13.534-22.511h-5.468zm-2.62 14.001l5.023-8.405h.441l5.039 8.405h-10.503zm-19.162 1.43l-16.646-15.431h-6.897v22.51h5.057V41.806l17.749 16.26h5.794V35.558h-5.057v15.431zm-37.835-15.664H126.21c-6.035 0-8.611 2.688-8.611 8.989v5.189c0 6.3 2.575 8.798 8.611 8.798h11.739c6.035 0 8.611-2.497 8.611-8.798v-5.19c0-6.3-2.575-8.988-8.611-8.988zm3.554 15.254c0 2.496-1.007 3.38-3.845 3.38H126.5c-2.835 0-3.844-.884-3.844-3.38v-7.343c0-2.493 1.006-3.378 3.844-3.378h11.157c2.836 0 3.845.883 3.845 3.378l.001 7.343z" fill="#2B2B2A"/><path d="M316.489 34.875l-4.36 7.34h1.124l.914-1.55h5.881l.912 1.55h1.126l-4.36-7.34h-1.238.001zm-1.846 4.979l2.464-4.168 2.464 4.168h-4.929.001zm-8.914-4.98h-.994v7.342h6.692v-.811h-5.7v-6.53h.002zm-56.895 7.342h.994v-3.377h5.77v-.81h-5.77v-2.342h6.003v-.811h-6.997v7.34zm15.617-7.422h-4.228c-1.987 0-2.615.892-2.615 2.748v2.007c0 1.856.628 2.748 2.615 2.748h4.228c1.988 0 2.616-.892 2.616-2.748v-2.007c0-1.855-.628-2.748-2.616-2.748zm1.623 5.13c0 1.277-.77 1.562-1.723 1.562h-4.027c-.953 0-1.723-.285-1.723-1.562v-2.758c0-1.277.77-1.562 1.723-1.562h4.027c.951 0 1.723.285 1.723 1.562v2.758zm9.017-5.05h-5.872v7.342h.993v-2.9h4.847c.903 0 1.463.141 1.463 1.288v1.612h.931V40.34c0-.669-.243-1.196-1.257-1.38v-.02c.761-.07 1.349-.354 1.349-1.39v-.598c0-1.38-.334-2.078-2.453-2.078h-.001zm1.46 2.566c0 .77-.467 1.065-1.572 1.065h-4.767v-2.818h4.523c1.461 0 1.817.263 1.817 1.085l-.001.669zm8.976 3.59l-4.289-6.154h-1.552v7.34h.995V35.77h.02l4.472 6.448h.71l4.472-6.448h.021v6.448h.993v-7.341h-1.551l-4.29 6.154h-.001zm15.812-.669c0 .71-.245 1.125-1.593 1.125h-3.447c-1.349 0-1.591-.416-1.591-1.125v-5.485h-.994v5.495c0 1.492.749 1.927 2.615 1.927h3.387c1.866 0 2.616-.436 2.616-1.927v-5.495h-.993v5.485zm32.051-5.566h-4.229c-1.988 0-2.616.892-2.616 2.748v2.008c0 1.855.63 2.747 2.616 2.747h4.228c1.988 0 2.617-.892 2.617-2.747v-2.008c0-1.855-.629-2.748-2.616-2.748zm1.622 5.13c0 1.277-.77 1.561-1.723 1.561h-4.026c-.953 0-1.723-.284-1.723-1.561v-2.758c0-1.278.769-1.562 1.723-1.562h4.026c.953 0 1.723.284 1.723 1.562v2.758zm52.498-5.05l-4.361 7.342h1.125l.913-1.55h5.881l.914 1.55h1.125l-4.361-7.341h-1.237.001zm-1.846 4.98l2.464-4.168 2.464 4.168h-4.929.001zm-9.919-1.015h5.973v-.81h-5.973v-2.342h6.217v-.812h-7.209v7.341h7.249v-.81h-6.256V38.84h-.001zm-11.015-3.153h3.712v6.529h.994v-6.53h3.712v-.81h-8.417v.81h-.001zm-18.369 5.637l-6.723-6.45h-1.48v7.342h.994v-6.448l6.723 6.448h1.481v-7.341h-.995v6.45zm58.398-6.45l-4.288 6.156-4.29-6.155h-1.552v7.34h.995v-6.447h.021l4.471 6.448h.71l4.472-6.448h.021v6.448h.994v-7.341h-1.554zm-54.068 3.965h5.974v-.81h-5.974v-2.342h6.216v-.811h-7.209v7.34h7.251v-.81h-6.258V38.84zm10.538-2.414l-1.064-1.527-.018-.024h-.486v2.01h.367V35.33l1.08 1.555h.241l1.078-1.555v1.555h.368v-2.01h-.485l-1.081 1.55v.001zm-4.157-1.23h.961v1.69h.367v-1.69h.961v-.32h-2.289v.32zm-221.32-21.179h16.939V9.483h-16.939V5.252h17.637V.718h-22.494v22.51h22.61v-4.534h-17.754v-4.68l.001.002zm-89.86 0h16.94V9.483h-16.94V5.252h17.64V.718H41.034v22.51h22.611v-4.534H45.892v-4.68.002zM17.75 16.641L5.89.721H0V23.23h5.057V7.823L16.623 23.23h2.375L30.06 7.895V23.23h5.055V.72h-6.027L17.745 16.641h.004zM86.212.721H68.256V23.23h5.056V15.2H86.12c2.387 0 3.088.49 3.088 2.777v5.252h4.883V17.22c0-1.703-.79-2.979-1.866-3.844 1.016-.695 1.866-1.93 1.866-4.159v-1.43C94.09 3.313 93.02.72 86.208.72h.004zm3.089 8.177c0 .916 0 1.954-3.409 1.954H73.317v-5.6h11.877c4.107 0 4.107.714 4.107 2.01v1.635zm32.07 7.658c0 1.906-.187 2.565-3.845 2.565h-9.982c-2.836 0-3.844-.885-3.844-3.38V8.399c0-2.494 1.006-3.378 3.844-3.378h9.894c2.762 0 3.728.218 3.728 2.652v.566h4.708v-1.41c0-2.892-1.337-6.34-7.709-6.34h-10.913c-6.035 0-8.61 2.687-8.61 8.988v5.19c0 6.3 2.575 8.797 8.61 8.797h10.767c5.847 0 8.233-2.023 8.233-6.981v-1.12h-4.883v1.195h.002zM234.538 9.63h-7.856c-4.136 0-4.476-.61-4.476-2.244 0-2.217.848-2.365 6.688-2.365h3.026c6.734 0 6.156.13 6.202 2.732h4.882v-.605c0-4.793-2.206-6.66-9.365-6.66h-6.141c-4.758 0-10.173.252-10.173 6.693 0 6.894 4.68 7.214 12.996 7.214h4.829c3.496 0 3.496.65 3.496 2.215 0 1.94-.172 2.51-4.253 2.51h-8.264c-3.554 0-3.916-.992-3.916-1.952v-1.405h-4.882v1.464c0 6.427 6.623 6.236 9.293 6.236h7.331c3.346 0 9.572.477 9.572-6.183v-1.368c0-5.632-5.13-6.283-8.989-6.283v.001zM175.825.72h-17.76v22.51h17.672c8.517 0 10.183-3.788 10.183-11.159 0-8.918-2.359-11.353-10.095-11.353V.72zm5.038 14.217c0 2.778-1.328 3.764-4.281 3.764h-13.459V5.258h13.458c3.072 0 4.281 1.06 4.281 3.88l.001 5.799zm14.922-.916h16.938V9.487h-16.938v-4.23h17.637V.723h-22.495v22.51h22.61v-4.534h-17.753v-4.68l.001.002zM353.167.729h-5.456c-.728 0-1.827.32-2.439.711l-15.748 10.044-15.746-10.045c-.613-.392-1.711-.711-2.439-.711h-5.456a1.327 1.327 0 00-1.324 1.323v19.86c0 .727.596 1.322 1.323 1.322h5.457a1.327 1.327 0 001.322-1.323V9.957c0-.727.741-1.244 1.548-.73l11.164 7.121c.613.391 1.71.712 2.438.712h3.427c.727 0 1.825-.32 2.439-.712l11.164-7.121c.806-.514 1.547.002 1.547.73V21.91c0 .728.595 1.323 1.323 1.323h5.456a1.328 1.328 0 001.323-1.323V2.05a1.33 1.33 0 00-1.323-1.322zm15.034 5.31h36.366a1.327 1.327 0 001.322-1.322V2.051a1.325 1.325 0 00-1.322-1.323h-44.469a1.327 1.327 0 00-1.322 1.323v19.86c0 .727.595 1.322 1.322 1.322h44.469a1.327 1.327 0 001.322-1.323V10.936a1.325 1.325 0 00-1.322-1.323h-21.83a1.326 1.326 0 00-1.323 1.323v1.694c0 .728.595 1.323 1.323 1.323h13.725c.727 0 1.323.595 1.323 1.323v.736a1.326 1.326 0 01-1.323 1.323h-28.261a1.328 1.328 0 01-1.323-1.323V7.357c0-.727.595-1.322 1.323-1.322v.005zM298.974.73H265.35c-.727 0-1.686.47-2.131 1.047L247.471 22.19c-.445.577-.212 1.048.516 1.048h7.122c.918 0 1.631-.4 2.132-1.048l3.054-3.96c.297-.384.935-.698 1.42-.698h29.597c.484 0 .883.397.883.882v3.501c0 .727.595 1.323 1.323 1.323h5.456a1.328 1.328 0 001.323-1.323V2.055a1.33 1.33 0 00-1.323-1.323V.729zm-6.779 10.609a.885.885 0 01-.883.882h-25.503c-.485 0-.64-.314-.343-.698l3.69-4.783c.295-.385.934-.7 1.421-.7h20.735c.485 0 .883.398.883.883v4.416z" fill="#BDBDBE"/><path d="M18.006 34.677H.002v22.509h5.056V49.37h12.397c7.145 0 7.679-2.938 7.679-7.858 0-5.672-2.845-6.836-7.126-6.836h-.002zm2.07 8.266c0 .999-.53 1.893-2.29 1.893H5.056v-5.628h12.728c1.677 0 2.29.613 2.29 2.01v1.726zm35.495-3.734h10.651v17.976h5.058V39.21h10.65v-4.532H55.571v4.532zm178.975 4.378h-7.856c-4.136 0-4.476-.612-4.476-2.245 0-2.216.849-2.365 6.688-2.365h3.026c6.734 0 6.156.13 6.202 2.733h4.882v-.605c0-4.793-2.206-6.66-9.365-6.66h-6.141c-4.758 0-10.173.252-10.173 6.692 0 6.894 4.679 7.214 12.996 7.214h4.83c3.495 0 3.495.648 3.495 2.216 0 1.94-.172 2.51-4.253 2.51h-8.264c-3.553 0-3.916-.994-3.916-1.952V49.72h-4.882v1.463c0 6.429 6.623 6.236 9.293 6.236h7.331c3.346 0 9.572.478 9.572-6.184V49.87c0-5.633-5.13-6.284-8.989-6.284zm-199.89 4.387h16.94v-4.533h-16.94v-4.23h17.639v-4.533H29.798v22.51h22.61v-4.534H34.656v-4.68h.002zm68.841-13.293H85.541V57.19h5.057v-8.03h12.808c2.386 0 3.088.49 3.088 2.778v5.25h4.883v-6.006c0-1.704-.791-2.979-1.867-3.844 1.017-.695 1.867-1.93 1.867-4.16v-1.43c0-4.477-1.072-7.07-7.883-7.07l.003.002zm3.089 8.177c0 .916 0 1.954-3.409 1.954H90.602v-5.6h11.878c4.107 0 4.107.714 4.107 2.012v1.633l-.001.001zm89.878-8.177L182.928 57.19h5.798l2.605-4.333h15.023l2.653 4.333h5.798L201.27 34.68h-4.806zm-2.619 14.002l5.022-8.406 5.041 8.406h-10.063zm-19.162 2.45L156.934 34.68h-5.795v22.51h5.058V40.929l17.748 16.26h5.795V34.682h-5.057v16.453zM136.848 34.45H125.11c-6.035 0-8.611 2.688-8.611 8.988v5.19c0 6.3 2.574 8.796 8.611 8.796h11.738c6.035 0 8.611-2.496 8.611-8.795v-5.191c0-6.301-2.575-8.988-8.611-8.988zm3.553 15.255c0 2.495-1.006 3.38-3.844 3.38H125.4c-2.836 0-3.845-.885-3.845-3.38V42.36c0-2.495 1.007-3.38 3.845-3.38h11.157c2.835 0 3.844.885 3.844 3.38v7.343z" fill="#2DA38E"/></g><defs><clipPath id="clip0"><path fill="#fff" d="M0 0h407v59.259H0z"/></clipPath></defs></svg>