<svg width="20" height="20" fill="none" xmlns="http://www.w3.org/2000/svg"><path d="M17.07 0H2.93A2.933 2.933 0 000 2.93v14.14A2.933 2.933 0 002.93 20h14.14A2.933 2.933 0 0020 17.07V2.93A2.933 2.933 0 0017.07 0zm-7.03 15.234a5.28 5.28 0 01-5.274-5.273 5.28 5.28 0 015.273-5.274 5.28 5.28 0 015.274 5.274 5.28 5.28 0 01-5.274 5.273zm5.858-9.375a1.76 1.76 0 01-1.757-1.757c0-.97.788-1.758 1.757-1.758.97 0 1.758.788 1.758 1.758a1.76 1.76 0 01-1.758 1.757z" fill="url(#paint0_linear)"/><path d="M15.898 3.516a.586.586 0 10.001 1.172.586.586 0 000-1.172z" fill="url(#paint1_linear)"/><path d="M10.04 5.86a4.107 4.107 0 00-4.102 4.1 4.107 4.107 0 004.101 4.102 4.107 4.107 0 004.102-4.101 4.107 4.107 0 00-4.102-4.102z" fill="url(#paint2_linear)"/><defs><linearGradient id="paint0_linear" x1="10" y1="0" x2="20" y2="0" gradientUnits="userSpaceOnUse"><stop stop-color="#029C99"/><stop offset="1" stop-color="#006C6A"/></linearGradient><linearGradient id="paint1_linear" x1="15.898" y1="3.516" x2="16.484" y2="3.516" gradientUnits="userSpaceOnUse"><stop stop-color="#029C99"/><stop offset="1" stop-color="#006C6A"/></linearGradient><linearGradient id="paint2_linear" x1="10.039" y1="5.859" x2="14.141" y2="5.859" gradientUnits="userSpaceOnUse"><stop stop-color="#029C99"/><stop offset="1" stop-color="#006C6A"/></linearGradient></defs></svg>