<svg width="20" height="20" fill="none" xmlns="http://www.w3.org/2000/svg"><path d="M18.241 2.383H1.757c-.27 0-.524.066-.753.176l8.956 8.956 2.007-1.929 7.028-7.027a1.737 1.737 0 00-.754-.176z" fill="url(#paint0_linear)"/><path d="M19.824 3.388L13.21 10l6.612 6.612a1.73 1.73 0 00.177-.753V4.141c0-.27-.067-.524-.176-.753z" fill="url(#paint1_linear)"/><path d="M.176 3.388C.066 3.617 0 3.87 0 4.14v11.718c0 .27.066.524.176.753L6.789 10 .176 3.388z" fill="url(#paint2_linear)"/><path d="M12.382 10.829l-2.007 1.929a.584.584 0 01-.829 0l-1.93-1.93-6.612 6.613c.23.11.483.176.753.176h16.485c.27 0 .523-.066.753-.176l-6.613-6.612z" fill="url(#paint3_linear)"/><defs><linearGradient id="paint0_linear" x1="9.999" y1="2.383" x2="18.995" y2="2.383" gradientUnits="userSpaceOnUse"><stop stop-color="#029C99"/><stop offset="1" stop-color="#006C6A"/></linearGradient><linearGradient id="paint1_linear" x1="16.605" y1="3.388" x2="20" y2="3.388" gradientUnits="userSpaceOnUse"><stop stop-color="#029C99"/><stop offset="1" stop-color="#006C6A"/></linearGradient><linearGradient id="paint2_linear" x1="3.394" y1="3.388" x2="6.789" y2="3.388" gradientUnits="userSpaceOnUse"><stop stop-color="#029C99"/><stop offset="1" stop-color="#006C6A"/></linearGradient><linearGradient id="paint3_linear" x1="9.999" y1="10.829" x2="18.995" y2="10.829" gradientUnits="userSpaceOnUse"><stop stop-color="#029C99"/><stop offset="1" stop-color="#006C6A"/></linearGradient></defs></svg>