<svg width="104" height="104" fill="none" xmlns="http://www.w3.org/2000/svg"><path d="M51.995 0C32.88 0 17.328 15.552 17.328 34.667A34.731 34.731 0 0021.49 51.14l28.61 51.742A2.163 2.163 0 0051.994 104c.789 0 1.515-.427 1.896-1.117l28.62-51.76a34.728 34.728 0 004.15-16.456C86.662 15.552 71.11 0 51.996 0zm0 52c-9.558 0-17.333-7.776-17.333-17.333 0-9.558 7.775-17.334 17.333-17.334 9.557 0 17.333 7.776 17.333 17.334C69.328 44.224 61.552 52 51.995 52z" fill="url(#paint0_linear)" opacity=".2"/><defs><linearGradient id="paint0_linear" x1="51.995" y1="0" x2="86.662" y2="0" gradientUnits="userSpaceOnUse"><stop stop-color="#029C99"/><stop offset="1" stop-color="#006C6A"/></linearGradient></defs></svg>