<svg width="69" height="106" fill="none" xmlns="http://www.w3.org/2000/svg"><g opacity=".2"><path d="M35.195 3.105A3.106 3.106 0 0032.09 0H3.105A3.106 3.106 0 000 3.105v9.248h35.195V3.105z" fill="url(#paint0_linear)"/><path d="M67.204 58.05L35.195 26.042v-7.478H0v78.12C0 101.82 4.18 106 9.316 106h49.48c5.138 0 9.317-4.179 9.317-9.316V60.246c0-.824-.327-1.613-.91-2.196zM34.057 88.807c-6.85 0-12.422-5.573-12.422-12.422 0-3.943 2.98-11.14 4.261-14.05 1.113-2.528 2.278-4.866 3.281-6.582 1.297-2.22 2.646-4.212 4.88-4.212 2.233 0 3.582 1.992 4.879 4.212 1.003 1.716 2.168 4.054 3.281 6.582 1.281 2.91 4.261 10.107 4.261 14.05 0 6.85-5.572 12.422-12.421 12.422z" fill="url(#paint1_linear)"/><path d="M34.047 59.739c-.834 1.526-1.883 3.668-2.995 6.3-2.222 5.262-3.216 8.988-3.216 10.346a6.218 6.218 0 006.21 6.21 6.218 6.218 0 006.212-6.21c0-1.358-.995-5.084-3.217-10.345-1.111-2.633-2.16-4.774-2.994-6.302z" fill="url(#paint2_linear)"/></g><defs><linearGradient id="paint0_linear" x1="17.598" y1="0" x2="35.195" y2="0" gradientUnits="userSpaceOnUse"><stop stop-color="#029C99"/><stop offset="1" stop-color="#006C6A"/></linearGradient><linearGradient id="paint1_linear" x1="34.057" y1="18.564" x2="68.113" y2="18.564" gradientUnits="userSpaceOnUse"><stop stop-color="#029C99"/><stop offset="1" stop-color="#006C6A"/></linearGradient><linearGradient id="paint2_linear" x1="34.047" y1="59.739" x2="40.258" y2="59.739" gradientUnits="userSpaceOnUse"><stop stop-color="#029C99"/><stop offset="1" stop-color="#006C6A"/></linearGradient></defs></svg>