<svg width="17" height="26" fill="none" xmlns="http://www.w3.org/2000/svg"><path d="M8.633.762A.762.762 0 007.87 0H.761A.762.762 0 000 .762V3.03h8.633V.762zm7.851 13.477L8.633 6.388V4.553H0v19.162A2.288 2.288 0 002.285 26h12.137a2.288 2.288 0 002.285-2.285v-8.938a.762.762 0 00-.223-.538zm-8.13 7.544a3.05 3.05 0 01-3.047-3.047c0-.967.73-2.732 1.045-3.446.273-.62.559-1.194.805-1.615.318-.544.649-1.033 1.197-1.033.547 0 .878.489 1.196 1.033.246.421.532.995.805 1.615.314.714 1.045 2.479 1.045 3.446a3.05 3.05 0 01-3.046 3.047z" fill="#029C99"/><path d="M8.352 14.653c-.205.374-.462.9-.735 1.545-.545 1.291-.789 2.205-.789 2.538a1.524 1.524 0 003.047 0c0-.333-.244-1.247-.789-2.538a17.59 17.59 0 00-.734-1.545z" fill="#029C99"/></svg>