<svg width="104" height="104" fill="none" xmlns="http://www.w3.org/2000/svg"><g opacity=".2"><path d="M60.38 52.82l-4.661 2.697V104l41.967-24.23V31.285L60.379 52.82z" fill="url(#paint0_linear)"/><path d="M67.975 9.343L51.835 0 8.703 24.9l16.161 9.342 43.11-24.9z" fill="url(#paint1_linear)"/><path d="M94.944 24.9l-18.6-10.595-43.11 24.9 2.46 1.273 16.14 9.321 16.053-9.257L94.944 24.9z" fill="url(#paint2_linear)"/><path d="M29.976 57.028l-7.724-3.97V40.714l-15.924-9.17v48.138l41.665 24.058V55.603L29.976 45.225v11.803z" fill="url(#paint3_linear)"/></g><defs><linearGradient id="paint0_linear" x1="76.702" y1="31.286" x2="97.686" y2="31.286" gradientUnits="userSpaceOnUse"><stop stop-color="#029C99"/><stop offset="1" stop-color="#006C6A"/></linearGradient><linearGradient id="paint1_linear" x1="38.339" y1="0" x2="67.975" y2="0" gradientUnits="userSpaceOnUse"><stop stop-color="#029C99"/><stop offset="1" stop-color="#006C6A"/></linearGradient><linearGradient id="paint2_linear" x1="64.089" y1="14.305" x2="94.944" y2="14.305" gradientUnits="userSpaceOnUse"><stop stop-color="#029C99"/><stop offset="1" stop-color="#006C6A"/></linearGradient><linearGradient id="paint3_linear" x1="27.16" y1="31.545" x2="47.993" y2="31.545" gradientUnits="userSpaceOnUse"><stop stop-color="#029C99"/><stop offset="1" stop-color="#006C6A"/></linearGradient></defs></svg>