<svg width="64" height="50" viewBox="0 0 64 50" fill="none" xmlns="http://www.w3.org/2000/svg">
<path fill-rule="evenodd" clip-rule="evenodd" d="M44.8003 6.4H19.2003V5.333C19.2003 3.566 20.6333 2.133 22.4003 2.133H41.6003C43.3673 2.133 44.8003 3.566 44.8003 5.333V6.4ZM44.8003 10.225L38.7133 16.313L40.2213 17.821L44.8003 13.242V23.466H41.6003V25.6H44.8003V35.825L40.2213 31.246L38.7133 32.754L44.8003 38.842V40.533H19.2003V38.842L25.2883 32.754L23.7793 31.246L19.2003 35.825V25.6H22.4003V23.466H19.2003V13.242L23.7793 17.821L25.2883 16.313L19.2003 10.225V8.533H44.8003V10.225ZM44.8003 43.733C44.8003 45.5 43.3673 46.934 41.6003 46.934H22.4003C20.6333 46.934 19.2003 45.5 19.2003 43.733V42.667H44.8003V43.733ZM49.8213 8.221L48.3133 6.712L46.9343 8.091V5.333C46.9303 2.389 44.5443 0.004 41.6003 0H22.4003C19.4563 0.004 17.0713 2.389 17.0673 5.333V8.091L15.6883 6.712L14.1793 8.221L17.0673 11.108V23.466H14.9333V25.6H17.0673V37.958L14.1793 40.846L15.6883 42.355L17.0673 40.975V43.733C17.0713 46.678 19.4563 49.063 22.4003 49.067H41.6003C44.5443 49.063 46.9303 46.678 46.9343 43.733V40.975L48.3133 42.355L49.8213 40.846L46.9343 37.958V25.6H49.0673V23.466H46.9343V11.108L49.8213 8.221ZM9.601 10.6662C10.189 10.6662 10.667 10.1892 10.667 9.6002V3.2002C10.667 2.6112 10.189 2.1332 9.601 2.1332H3.201C2.611 2.1332 2.134 2.6112 2.134 3.2002V9.6002C2.134 10.1892 2.611 10.6662 3.201 10.6662H9.601ZM3.201 0.0002H9.601C11.368 0.0002 12.8 1.4332 12.8 3.2002V9.6002C12.8 11.3672 11.368 12.8002 9.601 12.8002H3.201C1.433 12.8002 0 11.3672 0 9.6002V3.2002C0 1.4332 1.433 0.0002 3.201 0.0002ZM60.8007 10.6662C61.3887 10.6662 61.8667 10.1892 61.8667 9.6002V3.2002C61.8667 2.6112 61.3887 2.1332 60.8007 2.1332H54.4007C53.8107 2.1332 53.3337 2.6112 53.3337 3.2002V9.6002C53.3337 10.1892 53.8107 10.6662 54.4007 10.6662H60.8007ZM54.4007 0.0002H60.8007C62.5677 0.0002 64.0007 1.4332 64.0007 3.2002V9.6002C64.0007 11.3672 62.5677 12.8002 60.8007 12.8002H54.4007C52.6337 12.8002 51.2007 11.3672 51.2007 9.6002V3.2002C51.2007 1.4332 52.6337 0.0002 54.4007 0.0002ZM60.8007 28.7995C61.3887 28.7995 61.8667 28.3225 61.8667 27.7335V21.3335C61.8667 20.7445 61.3887 20.2665 60.8007 20.2665H54.4007C53.8107 20.2665 53.3337 20.7445 53.3337 21.3335V27.7335C53.3337 28.3225 53.8107 28.7995 54.4007 28.7995H60.8007ZM54.4007 18.1335H60.8007C62.5677 18.1335 64.0007 19.5665 64.0007 21.3335V27.7335C64.0007 29.5005 62.5677 30.9335 60.8007 30.9335H54.4007C52.6337 30.9335 51.2007 29.5005 51.2007 27.7335V21.3335C51.2007 19.5665 52.6337 18.1335 54.4007 18.1335ZM61.8667 45.8663C61.8667 46.4563 61.3887 46.9333 60.8007 46.9333H54.4007C53.8107 46.9333 53.3337 46.4563 53.3337 45.8663V39.4673C53.3337 38.8783 53.8107 38.3993 54.4007 38.3993H60.8007C61.3887 38.3993 61.8667 38.8783 61.8667 39.4673V45.8663ZM60.8007 36.2663H54.4007C52.6337 36.2663 51.2007 37.6993 51.2007 39.4673V45.8663C51.2007 47.6343 52.6337 49.0663 54.4007 49.0663H60.8007C62.5677 49.0663 64.0007 47.6343 64.0007 45.8663V39.4673C64.0007 37.6993 62.5677 36.2663 60.8007 36.2663ZM10.667 27.7335C10.667 28.3225 10.189 28.7995 9.601 28.7995H3.201C2.611 28.7995 2.134 28.3225 2.134 27.7335V21.3335C2.134 20.7445 2.611 20.2665 3.201 20.2665H9.601C10.189 20.2665 10.667 20.7445 10.667 21.3335V27.7335ZM9.601 18.1335H3.201C1.433 18.1335 0 19.5665 0 21.3335V27.7335C0 29.5005 1.433 30.9335 3.201 30.9335H9.601C11.368 30.9335 12.8 29.5005 12.8 27.7335V21.3335C12.8 19.5665 11.368 18.1335 9.601 18.1335ZM9.601 46.9333C10.189 46.9333 10.667 46.4563 10.667 45.8663V39.4673C10.667 38.8783 10.189 38.3993 9.601 38.3993H3.201C2.611 38.3993 2.134 38.8783 2.134 39.4673V45.8663C2.134 46.4563 2.611 46.9333 3.201 46.9333H9.601ZM3.201 36.2663H9.601C11.368 36.2663 12.8 37.6993 12.8 39.4673V45.8663C12.8 47.6343 11.368 49.0663 9.601 49.0663H3.201C1.433 49.0663 0 47.6343 0 45.8663V39.4673C0 37.6993 1.433 36.2663 3.201 36.2663ZM25.6005 5.3326H23.4675V3.1996H25.6005V5.3326ZM28.8005 45.8666V43.7336H35.2005V45.8666H28.8005ZM27.7335 5.3326H32.0005V3.1996H27.7335V5.3326Z" fill="url(#paint0_linear)"/>
<defs>
<linearGradient id="paint0_linear" x1="31.4647" y1="63.5699" x2="75.8995" y2="20.298" gradientUnits="userSpaceOnUse">
<stop stop-color="#FB2059"/>
<stop offset="0.602402" stop-color="#8138E9"/>
<stop offset="1" stop-color="#12CAF9"/>
</linearGradient>
</defs>
</svg>
