<svg width="945" height="501" viewBox="0 0 945 501" fill="none" xmlns="http://www.w3.org/2000/svg">
<path d="M78.9283 489.794H14.3223L18.7779 474.836L26.7343 449.375L30.5533 435.69L38.5097 410.23L42.6471 395.59H50.2852L54.7408 410.23L62.379 435.69L66.5163 449.375L74.1544 474.836L78.9283 489.794Z" fill="url(#paint0_linear)"/>
<path d="M93.2491 488.202H0V500.614H93.2491V488.202Z" fill="url(#paint1_linear)"/>
<path d="M62.3774 435.69H30.5518L38.5082 410.23H54.7392L62.3774 435.69Z" fill="#EBEBED"/>
<path d="M74.1549 474.836H18.7783L26.7347 449.375H66.5168L74.1549 474.836Z" fill="#EBEBED"/>
<path d="M929.928 489.794H865.322L869.778 474.836L877.734 449.375L881.553 436.008L889.51 410.23L893.647 395.59H901.285L905.741 410.23L913.379 436.008L917.516 449.375L925.154 474.836L929.928 489.794Z" fill="url(#paint2_linear)"/>
<path d="M944.249 488.202H851V500.614H944.249V488.202Z" fill="url(#paint3_linear)"/>
<path d="M913.377 436.008H881.552L889.508 410.23H905.739L913.377 436.008Z" fill="#EBEBED"/>
<path d="M925.155 474.836H869.778L877.735 449.375H917.517L925.155 474.836Z" fill="#EBEBED"/>
<path d="M373.436 258.742C407.808 266.699 336.837 279.429 282.097 267.335C216.536 253.014 145.565 253.65 136.972 265.744C128.379 277.838 239.132 277.52 265.229 286.749C289.099 295.024 188.848 301.389 211.444 318.575C240.087 340.216 397.942 337.67 435.496 324.94C519.834 296.297 607.037 315.392 639.18 321.439C706.969 334.169 873.417 318.575 748.979 298.524C687.237 288.659 698.058 278.474 745.796 272.746C823.451 263.516 753.116 247.922 698.058 252.696C683.418 253.969 671.324 258.106 643.318 259.379C618.494 260.652 590.487 258.106 586.668 253.969C577.439 244.103 663.05 236.783 655.411 227.872C643.954 215.141 536.384 212.914 528.427 225.962C519.834 240.284 485.144 246.33 430.404 241.557C389.349 238.056 355.614 239.647 343.202 246.012C330.472 251.741 359.751 255.56 373.436 258.742Z" fill="url(#paint4_linear)"/>
<path d="M258.551 31.5074H233.727V339.579H258.551V31.5074Z" fill="url(#paint5_linear)"/>
<path d="M695.836 31.5074H671.012V339.579H695.836V31.5074Z" fill="url(#paint6_linear)"/>
<path d="M276.692 329.395H215.905V343.399H276.692V329.395Z" fill="url(#paint7_linear)"/>
<path d="M713.977 329.395H653.19V343.399H713.977V329.395Z" fill="url(#paint8_linear)"/>
<path d="M735.618 31.5075H193.945V98.9778H735.618V31.5075Z" fill="url(#paint9_linear)"/>
<path d="M735.618 140.033H193.945V207.503H735.618V140.033Z" fill="url(#paint10_linear)"/>
<path d="M653.189 31.5074L671.967 65.2425L690.425 98.9777H731.799L713.022 65.2425L694.244 31.5074H653.189Z" fill="white"/>
<path d="M657.646 140.033L676.104 173.768L694.563 207.503H735.3L716.841 173.768L698.382 140.033H657.646Z" fill="white"/>
<path d="M531.297 31.5074L552.302 65.2425L573.307 98.9777H619.454L598.449 65.2425L577.444 31.5074H531.297Z" fill="white"/>
<path d="M542.119 140.033L561.533 173.768L580.628 207.503H622.956L603.861 173.768L584.447 140.033H542.119Z" fill="white"/>
<path d="M424.043 31.5074L443.775 65.2425L463.507 98.9777H507.108L487.376 65.2425L467.644 31.5074H424.043Z" fill="white"/>
<path d="M434.229 140.033L452.687 173.768L470.828 207.503H510.928L492.469 173.768L474.329 140.033H434.229Z" fill="white"/>
<path d="M317.748 31.5074L336.207 65.2425L354.347 98.9777H395.084L376.625 65.2425L358.167 31.5074H317.748Z" fill="white"/>
<path d="M318.065 140.033L337.161 173.768L356.574 207.503H398.584L379.489 173.768L360.075 140.033H318.065Z" fill="white"/>
<path d="M206.676 140.033L225.771 173.768L244.867 207.503H286.876L267.781 173.768L248.686 140.033H206.676Z" fill="white"/>
<path d="M208.583 31.5074L226.405 65.2425L243.909 98.9777H282.737L265.233 65.2425L247.41 31.5074H208.583Z" fill="white"/>
<path d="M588.582 187.771L482.921 11.139C478.465 3.81908 470.827 0 463.189 0C455.551 0 447.913 3.81908 443.457 11.139L338.114 187.771C328.885 203.048 340.024 222.461 357.846 222.461H569.168C586.672 222.143 597.811 203.048 588.582 187.771Z" fill="url(#paint11_linear)"/>
<path d="M567.262 211.322H359.759C354.667 211.322 349.893 208.776 347.347 204.002C344.801 199.547 344.801 194.136 347.665 189.681L451.417 16.231C453.963 11.7755 458.419 9.2294 463.511 9.2294C468.603 9.2294 473.058 11.7755 475.604 16.231L579.356 189.681C581.902 194.136 582.22 199.547 579.674 204.002C576.81 208.458 572.354 211.322 567.262 211.322ZM463.192 17.8223C461.283 17.8223 459.373 18.7771 458.419 20.6866L354.667 194.136C353.712 196.046 353.712 197.955 354.667 199.865C355.622 201.774 357.531 202.729 359.759 202.729H567.262C569.49 202.729 571.081 201.774 572.354 199.865C573.309 197.955 573.309 196.046 572.354 194.136L468.284 20.6866C467.011 18.7771 465.42 17.8223 463.192 17.8223Z" fill="white"/>
<path d="M462.236 53.7853C456.507 54.4218 452.051 59.5139 452.37 65.5608L457.143 147.353C457.143 150.535 460.008 153.081 463.19 153.081C466.373 153.081 468.919 150.535 469.237 147.353L474.011 65.2425C474.329 58.5591 468.919 53.1488 462.236 53.7853Z" fill="white"/>
<path d="M474.012 173.768C474.012 179.815 469.238 184.589 463.191 184.589C457.144 184.589 452.37 179.815 452.37 173.768C452.37 167.721 457.144 162.947 463.191 162.947C469.238 163.265 474.012 168.039 474.012 173.768Z" fill="white"/>
<path d="M196.17 353.583C196.17 356.447 175.801 358.357 150.659 358.357C125.517 358.357 105.148 356.129 105.148 353.583C105.148 350.718 125.517 348.809 150.659 348.809C175.801 348.491 196.17 350.718 196.17 353.583Z" fill="#CECECE"/>
<path d="M207.38 167.496L187.812 217.252L201.435 222.611L221.004 172.854L207.38 167.496Z" fill="url(#paint12_linear)"/>
<path d="M192.987 184.907L218.448 194.773C254.729 208.776 260.139 218.642 262.367 212.595C265.231 204.639 270.642 186.18 228.632 168.994L203.171 159.128C201.262 158.492 199.034 159.128 198.397 161.038L190.759 180.133C190.441 182.043 191.396 184.27 192.987 184.907Z" fill="url(#paint13_linear)"/>
<path d="M194.56 159.522L186.746 179.019L190.882 180.677L198.696 161.18L194.56 159.522Z" fill="url(#paint14_linear)"/>
<path d="M143.02 354.219L141.429 353.583C136.019 351.355 133.154 345.308 135.382 339.579L182.166 220.233C184.394 214.823 190.441 211.959 196.169 214.186L197.76 214.823C203.171 217.051 206.035 223.098 203.807 228.826L157.024 348.172C154.796 353.583 148.431 356.447 143.02 354.219Z" fill="url(#paint15_linear)"/>
<path d="M203.171 232.964L179.302 223.734C175.801 222.461 173.891 218.005 175.164 214.505L175.483 213.232C176.756 209.731 181.211 207.821 184.712 209.094L208.581 218.324C212.082 219.597 213.992 224.052 212.719 227.553L212.4 228.826C211.127 232.645 206.99 234.555 203.171 232.964Z" fill="url(#paint16_linear)"/>
<path d="M178.665 183.316L177.711 182.997C174.21 181.724 172.618 177.587 173.892 174.086L181.53 154.354C182.803 150.853 186.94 149.262 190.441 150.535L191.396 150.854C194.896 152.127 196.488 156.264 195.215 159.765L187.577 179.497C186.304 182.997 182.166 184.907 178.665 183.316Z" fill="url(#paint17_linear)"/>
<path d="M139.201 344.035C138.564 343.717 138.246 343.399 138.564 342.762L180.256 236.146C180.574 235.828 180.892 235.51 181.529 235.51C181.847 235.828 182.165 236.146 182.165 236.783L140.156 343.717C140.156 344.035 139.519 344.353 139.201 344.035Z" fill="white"/>
<path d="M145.25 346.581C144.613 346.263 144.295 345.945 144.613 345.308L186.305 238.692C186.623 238.374 186.941 238.056 187.578 238.056C187.896 238.374 188.214 238.692 188.214 239.329L146.523 345.945C146.204 346.263 145.568 346.581 145.25 346.581Z" fill="white"/>
<path d="M151.295 348.809C150.658 348.491 150.34 348.172 150.658 347.536L192.35 241.238C192.668 240.92 192.986 240.602 193.623 240.602C193.941 240.92 194.259 241.238 194.259 241.875L152.568 348.491C152.249 348.809 151.613 349.127 151.295 348.809Z" fill="white"/>
<path d="M839.047 391.455C839.047 394.001 818.997 396.229 794.491 396.229C769.667 396.229 749.936 394.001 749.936 391.455C749.936 388.909 769.986 386.681 794.491 386.681C818.997 386.363 839.047 388.591 839.047 391.455Z" fill="#CECECE"/>
<path d="M747.564 279.338L733.347 290.085L752.154 314.964L766.371 304.217L747.564 279.338Z" fill="url(#paint18_linear)"/>
<path d="M663.37 188.726L669.099 184.27C672.282 181.724 676.737 182.361 679.283 185.543L750.891 280.066C753.437 283.248 752.8 287.704 749.618 290.25L743.889 294.705C740.707 297.251 736.251 296.615 733.705 293.432L662.097 198.91C659.551 195.728 660.188 191.272 663.37 188.726Z" fill="url(#paint19_linear)"/>
<path d="M760.756 285.158L735.296 304.253C731.795 307.117 726.384 306.163 723.838 302.662L722.565 300.752C719.701 297.251 720.656 291.841 724.157 289.295L749.617 270.2C753.118 267.335 758.528 268.29 761.074 271.791L762.347 273.7C764.893 277.201 764.257 282.612 760.756 285.158Z" fill="url(#paint20_linear)"/>
<path d="M716.199 336.397L796.718 275.61C796.718 275.61 821.224 308.072 827.907 316.983C834.591 325.894 831.408 375.542 817.086 386.363C802.765 397.184 755.026 387.954 746.434 376.497C738.159 365.358 716.199 336.397 716.199 336.397Z" fill="url(#paint21_linear)"/>
<path d="M727.02 328.441L716.199 336.715C716.199 336.715 738.159 365.677 746.434 376.816C755.026 387.954 802.765 397.502 817.086 386.681C825.361 380.316 829.817 361.221 830.771 344.672C796.4 340.853 761.71 334.169 727.02 328.441Z" fill="url(#paint22_linear)"/>
<path d="M676.1 188.726C676.418 188.408 677.054 188.408 677.373 188.726L739.114 271.154C739.433 271.473 739.114 272.109 738.796 272.427C738.478 272.746 737.841 272.746 737.523 272.427L675.781 189.999C675.463 189.681 675.463 189.044 676.1 188.726Z" fill="white"/>
<path d="M671.006 192.545C671.324 192.227 671.961 192.227 672.279 192.545L734.02 274.973C734.339 275.292 734.021 275.928 733.702 276.246C733.384 276.565 732.747 276.565 732.429 276.246L670.687 193.818C670.369 193.5 670.687 192.863 671.006 192.545Z" fill="white"/>
<path d="M665.915 196.364C666.233 196.046 666.87 196.046 667.188 196.364L728.93 278.792C729.248 279.111 728.93 279.747 728.611 280.065C728.293 280.384 727.657 280.384 727.338 280.065L665.597 197.637C665.278 197.319 665.597 196.682 665.915 196.364Z" fill="white"/>
<defs>
<linearGradient id="paint0_linear" x1="43.1624" y1="480.368" x2="-2.87505" y2="505.497" gradientUnits="userSpaceOnUse">
<stop offset="0.0353535" stop-color="#1968B3"/>
<stop offset="1" stop-color="#4C97DD"/>
</linearGradient>
<linearGradient id="paint1_linear" x1="41.6264" y1="499.373" x2="39.2798" y2="513.404" gradientUnits="userSpaceOnUse">
<stop offset="0.0353535" stop-color="#1968B3"/>
<stop offset="1" stop-color="#4C97DD"/>
</linearGradient>
<linearGradient id="paint2_linear" x1="894.162" y1="480.368" x2="848.125" y2="505.497" gradientUnits="userSpaceOnUse">
<stop offset="0.0353535" stop-color="#1968B3"/>
<stop offset="1" stop-color="#4C97DD"/>
</linearGradient>
<linearGradient id="paint3_linear" x1="892.626" y1="499.372" x2="890.28" y2="513.404" gradientUnits="userSpaceOnUse">
<stop offset="0.0353535" stop-color="#1968B3"/>
<stop offset="1" stop-color="#4C97DD"/>
</linearGradient>
<linearGradient id="paint4_linear" x1="928.917" y1="21.5649" x2="872.173" y2="370.752" gradientUnits="userSpaceOnUse">
<stop offset="0.0353535" stop-color="#1968B3"/>
<stop offset="1" stop-color="#4C97DD"/>
</linearGradient>
<linearGradient id="paint5_linear" x1="265.733" y1="13.9041" x2="231.325" y2="15.4768" gradientUnits="userSpaceOnUse">
<stop offset="0.0353535" stop-color="#1968B3"/>
<stop offset="1" stop-color="#4C97DD"/>
</linearGradient>
<linearGradient id="paint6_linear" x1="703.018" y1="13.9041" x2="668.61" y2="15.4768" gradientUnits="userSpaceOnUse">
<stop offset="0.0353535" stop-color="#1968B3"/>
<stop offset="1" stop-color="#4C97DD"/>
</linearGradient>
<linearGradient id="paint7_linear" x1="243.041" y1="341.997" x2="238.695" y2="357.012" gradientUnits="userSpaceOnUse">
<stop offset="0.0353535" stop-color="#1968B3"/>
<stop offset="1" stop-color="#4C97DD"/>
</linearGradient>
<linearGradient id="paint8_linear" x1="680.326" y1="341.997" x2="675.98" y2="357.012" gradientUnits="userSpaceOnUse">
<stop offset="0.0353535" stop-color="#1968B3"/>
<stop offset="1" stop-color="#4C97DD"/>
</linearGradient>
<linearGradient id="paint9_linear" x1="846.869" y1="-80.8234" x2="823.857" y2="122.376" gradientUnits="userSpaceOnUse">
<stop offset="0.0353535" stop-color="#1968B3"/>
<stop offset="1" stop-color="#4C97DD"/>
</linearGradient>
<linearGradient id="paint10_linear" x1="846.869" y1="27.7019" x2="823.857" y2="230.901" gradientUnits="userSpaceOnUse">
<stop offset="0.0353535" stop-color="#1968B3"/>
<stop offset="1" stop-color="#4C97DD"/>
</linearGradient>
<linearGradient id="paint11_linear" x1="500.138" y1="120.659" x2="293.352" y2="314.005" gradientUnits="userSpaceOnUse">
<stop offset="0.671316" stop-color="#1968B3"/>
<stop offset="1" stop-color="#4C97DD"/>
</linearGradient>
<linearGradient id="paint12_linear" x1="212.264" y1="152.794" x2="234.183" y2="176.495" gradientUnits="userSpaceOnUse">
<stop offset="0.0353535" stop-color="#1968B3"/>
<stop offset="1" stop-color="#4C97DD"/>
</linearGradient>
<linearGradient id="paint13_linear" x1="223.547" y1="208.854" x2="191.334" y2="242.835" gradientUnits="userSpaceOnUse">
<stop offset="0.0353535" stop-color="#1968B3"/>
<stop offset="1" stop-color="#4C97DD"/>
</linearGradient>
<linearGradient id="paint14_linear" x1="226" y1="102" x2="251.437" y2="148.408" gradientUnits="userSpaceOnUse">
<stop offset="0.0353535" stop-color="#1968B3"/>
<stop offset="1" stop-color="#4C97DD"/>
</linearGradient>
<linearGradient id="paint15_linear" x1="165.846" y1="340.816" x2="109.819" y2="362.85" gradientUnits="userSpaceOnUse">
<stop offset="0.0353535" stop-color="#1968B3"/>
<stop offset="1" stop-color="#4C97DD"/>
</linearGradient>
<linearGradient id="paint16_linear" x1="224.209" y1="207.28" x2="194.075" y2="233.679" gradientUnits="userSpaceOnUse">
<stop offset="0.0353535" stop-color="#1968B3"/>
<stop offset="1" stop-color="#4C97DD"/>
</linearGradient>
<linearGradient id="paint17_linear" x1="183.363" y1="180.503" x2="167.243" y2="188.931" gradientUnits="userSpaceOnUse">
<stop offset="0.0353535" stop-color="#1968B3"/>
<stop offset="1" stop-color="#4C97DD"/>
</linearGradient>
<linearGradient id="paint18_linear" x1="780.5" y1="291.5" x2="773.344" y2="330.953" gradientUnits="userSpaceOnUse">
<stop offset="0.0353535" stop-color="#1968B3"/>
<stop offset="1" stop-color="#4C97DD"/>
</linearGradient>
<linearGradient id="paint19_linear" x1="701.566" y1="284.912" x2="641.476" y2="323.625" gradientUnits="userSpaceOnUse">
<stop offset="0.0353535" stop-color="#1968B3"/>
<stop offset="1" stop-color="#4C97DD"/>
</linearGradient>
<linearGradient id="paint20_linear" x1="776.342" y1="266.376" x2="734.416" y2="293.711" gradientUnits="userSpaceOnUse">
<stop offset="0.0353535" stop-color="#1968B3"/>
<stop offset="1" stop-color="#4C97DD"/>
</linearGradient>
<linearGradient id="paint21_linear" x1="767.56" y1="379.614" x2="702.189" y2="431.412" gradientUnits="userSpaceOnUse">
<stop offset="0.0353535" stop-color="#1968B3"/>
<stop offset="1" stop-color="#4C97DD"/>
</linearGradient>
<linearGradient id="paint22_linear" x1="767.344" y1="385.129" x2="733.113" y2="434.683" gradientUnits="userSpaceOnUse">
<stop offset="0.0353535" stop-color="#1968B3"/>
<stop offset="1" stop-color="#4C97DD"/>
</linearGradient>
</defs>
</svg>
