<svg width="74" height="74" viewBox="0 0 74 74" fill="none" xmlns="http://www.w3.org/2000/svg">
<g clip-path="url(#clip0)">
<circle cx="37.3274" cy="39.9468" r="24.885" fill="url(#paint0_linear)"/>
<path d="M70.739 33.8706L66.162 33.52C65.5489 33.4737 65.0266 33.0547 64.8567 32.4636C64.291 30.4944 63.5215 28.6121 62.5741 26.8382C62.2851 26.2968 62.3669 25.63 62.774 25.1705L65.856 21.6882C67.0947 20.2908 67.0286 18.172 65.7098 16.852L60.9871 12.1288C59.6812 10.8235 57.5918 10.7444 56.1922 11.9453L52.7076 14.9347C52.2401 15.3361 51.5734 15.4078 51.0348 15.1092C49.2761 14.1336 47.404 13.337 45.4438 12.7402C44.8561 12.5629 44.4439 12.0334 44.4067 11.4202L44.1249 6.78337C44.0115 4.92027 42.4673 3.46875 40.6009 3.46875H33.9208C32.0752 3.46875 30.5418 4.88866 30.4018 6.72974L30.0512 11.3067C30.0049 11.9182 29.5871 12.4421 28.9977 12.6104C26.8766 13.2178 24.8537 14.0619 22.9601 15.1109C22.4249 15.409 21.7582 15.3344 21.2924 14.9347L17.8078 11.9453C16.4082 10.7444 14.3182 10.8235 13.0129 12.1288L8.28966 16.852C6.97081 18.172 6.90701 20.2903 8.14343 21.6882L11.226 25.1699C11.6331 25.6295 11.7149 26.2962 11.4259 26.8382C10.4785 28.6121 9.70844 30.4944 9.1433 32.4636C8.97336 33.0542 8.45113 33.4737 7.838 33.52L3.26099 33.8706C1.41991 34.0106 0 35.5445 0 37.3896V44.0702C0 45.9361 1.45152 47.4802 3.31462 47.5937L7.95148 47.876C8.56461 47.9132 9.09418 48.3248 9.27145 48.9125C9.86821 50.8727 10.6648 52.7454 11.6404 54.5041C11.9391 55.0427 11.8674 55.7095 11.466 56.1764L8.47653 59.6609C7.27568 61.0605 7.35472 63.1506 8.66002 64.4559L13.3833 69.1791C14.7032 70.4979 16.8221 70.5634 18.2194 69.3253L21.7017 66.2433C22.1607 65.8357 22.828 65.7538 23.3695 66.0434C23.9109 66.3325 26.7738 66.4268 30.5034 66.4279C34.6717 66.4296 39.9239 66.3161 44.2283 66.2354C48.6918 66.1507 52.1363 66.0982 52.2989 66.2433L55.7806 69.3253C57.1785 70.5634 59.2968 70.4979 60.6173 69.1791L65.3405 64.4559C66.6458 63.1506 66.7249 61.0605 65.524 59.6609L62.534 56.1764C62.1332 55.7095 62.0615 55.0427 62.3596 54.5041C63.3352 52.7454 64.1318 50.8727 64.7285 48.9125C64.9058 48.3248 65.4354 47.9132 66.0491 47.876L70.6854 47.5937C72.5485 47.4802 74 45.9361 74 44.0702V37.3896C74 35.5445 72.5801 34.0106 70.739 33.8706ZM38.2263 64.0115C24.2389 64.7212 12.7475 53.2298 13.4578 39.2425C14.0636 27.265 23.7957 17.5323 35.7737 16.9265C49.7611 16.2163 61.2525 27.7082 60.5422 41.6967C59.9364 53.673 50.2043 63.4057 38.2263 64.0115Z" fill="url(#paint1_linear)"/>
<path d="M37 13.7147C22.2234 13.7147 10.2459 25.6927 10.2459 40.4688C10.2459 53.0046 18.8653 63.5266 30.5034 66.428C32.5828 66.9474 34.7592 67.2229 37 67.2229C39.5045 67.2229 41.9287 66.8785 44.2277 66.2355C55.4927 63.0817 63.7541 52.7404 63.7541 40.4688C63.7541 25.6927 51.7766 13.7147 37 13.7147ZM38.2263 64.0116C24.2389 64.7213 12.7475 53.2299 13.4578 39.2426C14.0636 27.2651 23.7957 17.5324 35.7737 16.9266C49.7611 16.2164 61.2525 27.7083 60.5422 41.6968C59.9364 53.6731 50.2043 63.4058 38.2263 64.0116Z" fill="url(#paint2_linear)"/>
<path d="M44.139 58.8812C44.5687 58.7367 44.952 58.5052 45.2699 58.2094C45.892 57.6273 46.2681 56.8036 46.2681 55.9121V53.2581H51.4909V55.9121C51.4909 56.7392 51.8127 57.5093 52.3587 58.0801C52.7008 58.438 53.1288 58.7175 53.6194 58.8818H44.139V58.8812Z" fill="url(#paint3_linear)"/>
<path d="M51.491 53.135V54.8016L50.302 55.5271C49.4274 56.0601 48.331 56.0601 47.4571 55.5271L46.2681 54.8016V53.135H51.491Z" fill="url(#paint4_linear)"/>
<path d="M53.9819 43.8307V50.1738C53.9819 51.1307 53.4839 52.0188 52.6692 52.5156L50.302 53.9592C49.4274 54.4922 48.331 54.4922 47.4571 53.9592L45.0892 52.5156C44.2734 52.0188 43.7766 51.1307 43.7766 50.1738V43.8307C43.7766 42.0856 45.1875 40.6714 46.9286 40.6714H50.8298C52.571 40.672 53.9819 42.0856 53.9819 43.8307Z" fill="url(#paint5_linear)"/>
<path d="M50.8298 40.672H48.8527C50.5933 40.672 52.0047 42.0857 52.0047 43.8308V50.1738C52.0047 51.1308 51.5062 52.0188 50.6921 52.5162L48.3242 53.9598C48.1848 54.0445 48.0397 54.1145 47.8907 54.1721C48.6754 54.4776 49.5669 54.4076 50.302 53.9598L52.6692 52.5162C53.4839 52.0188 53.9819 51.1308 53.9819 50.1738V43.8308C53.9819 42.0857 52.571 40.672 50.8298 40.672Z" fill="url(#paint6_linear)"/>
<path d="M53.9819 43.8307V46.7773L47.5835 44.7154C47.347 44.6392 47.0895 44.6612 46.8694 44.7764L43.7766 46.3922V43.8307C43.7766 42.0856 45.188 40.6714 46.9286 40.6714H50.8298C52.571 40.672 53.9819 42.0856 53.9819 43.8307Z" fill="url(#paint7_linear)"/>
<path d="M50.8298 40.672H48.8533C50.5944 40.672 52.0053 42.0857 52.0053 43.8308V46.1405L53.9819 46.7773V43.8308C53.9819 42.0857 52.571 40.672 50.8298 40.672Z" fill="url(#paint8_linear)"/>
<path d="M39.1115 70.4161C38.6248 70.4161 38.2308 70.0215 38.2308 69.5348V65.1057C38.2308 62.5764 39.8409 60.3294 42.2336 59.5232L44.1391 58.8813C44.5693 58.7367 44.952 58.5047 45.2693 58.2088C46.2923 58.5803 47.4966 58.831 48.8583 58.8022C50.1986 58.7729 51.3713 58.4781 52.3587 58.0807C52.6997 58.4386 53.1288 58.717 53.6194 58.8813L55.5254 59.5232C57.9164 60.3294 59.5282 62.5764 59.5282 65.1057V69.4253C59.5282 69.9729 59.0851 70.4161 58.538 70.4161H39.1115Z" fill="url(#paint9_linear)"/>
<path d="M48.7562 58.8191L46.5148 66.7452C46.4572 66.9501 46.508 67.1697 46.6497 67.3278L48.3175 69.1886C48.5552 69.454 48.9673 69.4642 49.218 69.2112L51.0737 67.3391C51.2352 67.1759 51.2939 66.9366 51.2251 66.7175L48.7562 58.8191Z" fill="url(#paint10_linear)"/>
<path d="M21.7457 56.2153C22.2747 56.0375 22.7467 55.7523 23.138 55.3888C23.9035 54.6718 24.3665 53.6572 24.3665 52.5602V49.2925H30.7964V52.5602C30.7964 53.5782 31.1933 54.5267 31.8652 55.2284C32.2858 55.6699 32.8131 56.0137 33.4172 56.2159H21.7457V56.2153Z" fill="url(#paint11_linear)"/>
<path d="M30.7965 49.1412V51.1923L29.3325 52.086C28.2564 52.7421 26.9065 52.7421 25.8305 52.086L24.3665 51.1923V49.1412H30.7965Z" fill="url(#paint12_linear)"/>
<path d="M33.8638 37.6859V45.4951C33.8638 46.6734 33.2501 47.767 32.2474 48.379L29.3325 50.1562C28.2564 50.8123 26.9065 50.8123 25.8304 50.1562L22.9155 48.379C21.9112 47.767 21.2992 46.6734 21.2992 45.4951V37.6859C21.2992 35.5377 23.0369 33.7971 25.1801 33.7971H29.9829C32.126 33.7971 33.8638 35.5377 33.8638 37.6859Z" fill="url(#paint13_linear)"/>
<path d="M29.9829 33.7971H27.5484C29.6916 33.7971 31.4293 35.5377 31.4293 37.6859V45.4951C31.4293 46.6734 30.8156 47.767 29.8129 48.379L26.898 50.1563C26.727 50.2607 26.5474 50.3471 26.364 50.4182C27.3305 50.7937 28.428 50.7078 29.3325 50.1563L32.2474 48.379C33.2501 47.767 33.8638 46.6734 33.8638 45.4951V37.6859C33.8638 35.5377 32.126 33.7971 29.9829 33.7971Z" fill="url(#paint14_linear)"/>
<path d="M33.8638 37.6859V41.3139L25.9868 38.7755C25.6949 38.6818 25.3782 38.7089 25.1067 38.8506L21.2992 40.8396V37.6859C21.2992 35.5377 23.0369 33.7971 25.1801 33.7971H29.9829C32.126 33.7971 33.8638 35.5377 33.8638 37.6859Z" fill="url(#paint15_linear)"/>
<path d="M29.9829 33.7971H27.5496C29.6927 33.7971 31.4305 35.5377 31.4305 37.6859V40.5297L33.8638 41.3139V37.6859C33.8638 35.5377 32.126 33.7971 29.9829 33.7971Z" fill="url(#paint16_linear)"/>
<path d="M15.1041 70.4161C14.7546 70.4161 14.4717 70.1333 14.4717 69.7838V63.8783C14.4717 60.7647 16.4545 57.9983 19.3999 57.0058L21.7457 56.2154C22.2753 56.0375 22.7462 55.7518 23.1374 55.3877C24.3964 55.845 25.879 56.1538 27.5558 56.1177C29.206 56.0816 30.6496 55.7197 31.8646 55.2296C32.2852 55.6705 32.8131 56.0132 33.4172 56.2159L35.7636 57.0063C38.7073 57.9989 40.6917 60.7647 40.6917 63.8783V70.4167H15.1041V70.4161Z" fill="url(#paint17_linear)"/>
<path d="M27.4293 56.1385L24.6708 65.8972C24.5997 66.149 24.6624 66.4195 24.8368 66.6142L26.8902 68.9053C27.1826 69.2322 27.6902 69.2446 27.999 68.9329L30.2833 66.6278C30.4826 66.4274 30.5543 66.1327 30.4696 65.8628L27.4293 56.1385Z" fill="url(#paint18_linear)"/>
</g>
<defs>
<linearGradient id="paint0_linear" x1="26.5727" y1="66.7509" x2="-5.83944" y2="81.0114" gradientUnits="userSpaceOnUse">
<stop offset="0.0353535" stop-color="#5FA4E6"/>
<stop offset="1" stop-color="#4C97DD"/>
</linearGradient>
<linearGradient id="paint1_linear" x1="33.0336" y1="63.5345" x2="-5.44588" y2="97.4894" gradientUnits="userSpaceOnUse">
<stop offset="0.0353535" stop-color="#1968B3"/>
<stop offset="1" stop-color="#4C97DD"/>
</linearGradient>
<linearGradient id="paint2_linear" x1="135.23" y1="-45.8406" x2="9.88621" y2="-0.377178" gradientUnits="userSpaceOnUse">
<stop offset="0.0353535" stop-color="#1968B3"/>
<stop offset="1" stop-color="#488CCD"/>
</linearGradient>
<linearGradient id="paint3_linear" x1="28.7862" y1="40.8121" x2="28.3685" y2="55.4155" gradientUnits="userSpaceOnUse">
<stop offset="0.0353535" stop-color="#1968B3"/>
<stop offset="1" stop-color="#8FC4F6"/>
</linearGradient>
<linearGradient id="paint4_linear" x1="37.8099" y1="46.9564" x2="37.6231" y2="54.2072" gradientUnits="userSpaceOnUse">
<stop offset="0.0353535" stop-color="#1968B3"/>
<stop offset="1" stop-color="#8FC4F6"/>
</linearGradient>
<linearGradient id="paint5_linear" x1="27.2498" y1="10.3793" x2="24.9589" y2="45.8033" gradientUnits="userSpaceOnUse">
<stop offset="0.0353535" stop-color="#1968B3"/>
<stop offset="1" stop-color="#8FC4F6"/>
</linearGradient>
<linearGradient id="paint6_linear" x1="38.0263" y1="10.3826" x2="34.2174" y2="45.5389" gradientUnits="userSpaceOnUse">
<stop offset="0.0353535" stop-color="#1968B3"/>
<stop offset="1" stop-color="#8FC4F6"/>
</linearGradient>
<linearGradient id="paint7_linear" x1="48.3322" y1="46.1663" x2="44.9242" y2="50.6999" gradientUnits="userSpaceOnUse">
<stop offset="0.0353535" stop-color="#1968B3"/>
<stop offset="1" stop-color="#4C97DD"/>
</linearGradient>
<linearGradient id="paint8_linear" x1="51.1427" y1="46.1664" x2="47.8645" y2="48.3581" gradientUnits="userSpaceOnUse">
<stop offset="0.0353535" stop-color="#1968B3"/>
<stop offset="1" stop-color="#4C97DD"/>
</linearGradient>
<linearGradient id="paint9_linear" x1="64.5044" y1="43.2213" x2="29.385" y2="99.3273" gradientUnits="userSpaceOnUse">
<stop offset="0.0353535" stop-color="#1968B3"/>
<stop offset="1" stop-color="#4C97DD"/>
</linearGradient>
<linearGradient id="paint10_linear" x1="48.6172" y1="68.3363" x2="44.7143" y2="69.7351" gradientUnits="userSpaceOnUse">
<stop offset="0.0353535" stop-color="#1968B3"/>
<stop offset="1" stop-color="#4C97DD"/>
</linearGradient>
<linearGradient id="paint11_linear" x1="2.84453" y1="33.9703" x2="2.33031" y2="51.9485" gradientUnits="userSpaceOnUse">
<stop offset="0.0353535" stop-color="#1968B3"/>
<stop offset="1" stop-color="#8FC4F6"/>
</linearGradient>
<linearGradient id="paint12_linear" x1="13.9536" y1="41.5351" x2="13.7236" y2="50.4611" gradientUnits="userSpaceOnUse">
<stop offset="0.0353535" stop-color="#1968B3"/>
<stop offset="1" stop-color="#8FC4F6"/>
</linearGradient>
<linearGradient id="paint13_linear" x1="0.951565" y1="-3.49632" x2="-1.86875" y2="40.1152" gradientUnits="userSpaceOnUse">
<stop offset="0.0353535" stop-color="#1968B3"/>
<stop offset="1" stop-color="#8FC4F6"/>
</linearGradient>
<linearGradient id="paint14_linear" x1="14.2185" y1="-3.49373" x2="9.52947" y2="39.7891" gradientUnits="userSpaceOnUse">
<stop offset="0.0353535" stop-color="#1968B3"/>
<stop offset="1" stop-color="#8FC4F6"/>
</linearGradient>
<linearGradient id="paint15_linear" x1="26.908" y1="40.5618" x2="22.7126" y2="46.1433" gradientUnits="userSpaceOnUse">
<stop offset="0.0353535" stop-color="#1968B3"/>
<stop offset="1" stop-color="#4C97DD"/>
</linearGradient>
<linearGradient id="paint16_linear" x1="30.3682" y1="40.5618" x2="26.3323" y2="43.2601" gradientUnits="userSpaceOnUse">
<stop offset="0.0353535" stop-color="#1968B3"/>
<stop offset="1" stop-color="#4C97DD"/>
</linearGradient>
<linearGradient id="paint17_linear" x1="53.0442" y1="10.8053" x2="22.0186" y2="82.0913" gradientUnits="userSpaceOnUse">
<stop offset="0.0353535" stop-color="#1968B3"/>
<stop offset="1" stop-color="#4C97DD"/>
</linearGradient>
<linearGradient id="paint18_linear" x1="27.2591" y1="67.856" x2="22.4539" y2="69.578" gradientUnits="userSpaceOnUse">
<stop offset="0.0353535" stop-color="#1968B3"/>
<stop offset="1" stop-color="#4C97DD"/>
</linearGradient>
<clipPath id="clip0">
<rect width="74" height="74" fill="white"/>
</clipPath>
</defs>
</svg>
