<svg width="61" height="60" viewBox="0 0 61 60" fill="none" xmlns="http://www.w3.org/2000/svg">
<mask id="path-1-inside-1" fill="white">
<path d="M37.8386 0.959743C44.9368 2.73698 51.1371 7.05486 55.2659 13.096C59.3946 19.1372 61.1653 26.4825 60.2428 33.7413C59.3203 41.0002 55.7685 47.669 50.2599 52.4854C44.7512 57.3017 37.6679 59.9314 30.3509 59.8766C23.0338 59.8218 15.9907 57.0863 10.5548 52.188C5.11889 47.2897 1.66742 40.5685 0.853706 33.2966C0.0399944 26.0247 1.92052 18.7068 6.1393 12.7281C10.3581 6.74946 16.6224 2.52493 23.7464 0.854204L24.7706 5.22169C18.7152 6.64181 13.3906 10.2327 9.80463 15.3145C6.21866 20.3964 4.62022 26.6166 5.31187 32.7977C6.00353 38.9788 8.93728 44.6919 13.5578 48.8554C18.1783 53.019 24.1649 55.3442 30.3845 55.3907C36.604 55.4373 42.6247 53.2021 47.3071 49.1082C51.9895 45.0143 55.0085 39.3458 55.7926 33.1758C56.5768 27.0057 55.0717 20.7623 51.5622 15.6273C48.0528 10.4923 42.7825 6.82206 36.7491 5.3114L37.8386 0.959743Z"/>
</mask>
<path d="M37.8386 0.959743C44.9368 2.73698 51.1371 7.05486 55.2659 13.096C59.3946 19.1372 61.1653 26.4825 60.2428 33.7413C59.3203 41.0002 55.7685 47.669 50.2599 52.4854C44.7512 57.3017 37.6679 59.9314 30.3509 59.8766C23.0338 59.8218 15.9907 57.0863 10.5548 52.188C5.11889 47.2897 1.66742 40.5685 0.853706 33.2966C0.0399944 26.0247 1.92052 18.7068 6.1393 12.7281C10.3581 6.74946 16.6224 2.52493 23.7464 0.854204L24.7706 5.22169C18.7152 6.64181 13.3906 10.2327 9.80463 15.3145C6.21866 20.3964 4.62022 26.6166 5.31187 32.7977C6.00353 38.9788 8.93728 44.6919 13.5578 48.8554C18.1783 53.019 24.1649 55.3442 30.3845 55.3907C36.604 55.4373 42.6247 53.2021 47.3071 49.1082C51.9895 45.0143 55.0085 39.3458 55.7926 33.1758C56.5768 27.0057 55.0717 20.7623 51.5622 15.6273C48.0528 10.4923 42.7825 6.82206 36.7491 5.3114L37.8386 0.959743Z" fill="white" stroke="white" stroke-width="9.20996" mask="url(#path-1-inside-1)"/>
</svg>
