<svg width="20" height="20" viewBox="0 0 20 20" fill="none" xmlns="http://www.w3.org/2000/svg">
<mask id="path-1-inside-1" fill="white">
<path d="M12.4288 0.299444C14.8023 0.893707 16.8755 2.33749 18.256 4.35751C19.6366 6.37752 20.2287 8.83358 19.9202 11.2608C19.6117 13.6879 18.4241 15.9178 16.5822 17.5283C14.7402 19.1388 12.3717 20.018 9.92511 19.9997C7.47847 19.9814 5.12344 19.0667 3.30582 17.4289C1.48819 15.791 0.334108 13.5436 0.0620242 11.112C-0.21006 8.68051 0.418738 6.2336 1.82939 4.23449C3.24004 2.23538 5.33466 0.822802 7.71674 0.264154L8.05923 1.72453C6.03446 2.19938 4.25404 3.40007 3.05498 5.09931C1.85593 6.79856 1.32145 8.87843 1.55272 10.9452C1.78399 13.012 2.76496 14.9223 4.30995 16.3145C5.85493 17.7067 7.8567 18.4842 9.93634 18.4998C12.016 18.5153 14.0292 17.7679 15.5948 16.399C17.1605 15.0301 18.17 13.1348 18.4322 11.0716C18.6944 9.00854 18.1911 6.92089 17.0176 5.20388C15.8442 3.48687 14.0819 2.25965 12.0645 1.75453L12.4288 0.299444Z"/>
</mask>
<path d="M12.4288 0.299444C14.8023 0.893707 16.8755 2.33749 18.256 4.35751C19.6366 6.37752 20.2287 8.83358 19.9202 11.2608C19.6117 13.6879 18.4241 15.9178 16.5822 17.5283C14.7402 19.1388 12.3717 20.018 9.92511 19.9997C7.47847 19.9814 5.12344 19.0667 3.30582 17.4289C1.48819 15.791 0.334108 13.5436 0.0620242 11.112C-0.21006 8.68051 0.418738 6.2336 1.82939 4.23449C3.24004 2.23538 5.33466 0.822802 7.71674 0.264154L8.05923 1.72453C6.03446 2.19938 4.25404 3.40007 3.05498 5.09931C1.85593 6.79856 1.32145 8.87843 1.55272 10.9452C1.78399 13.012 2.76496 14.9223 4.30995 16.3145C5.85493 17.7067 7.8567 18.4842 9.93634 18.4998C12.016 18.5153 14.0292 17.7679 15.5948 16.399C17.1605 15.0301 18.17 13.1348 18.4322 11.0716C18.6944 9.00854 18.1911 6.92089 17.0176 5.20388C15.8442 3.48687 14.0819 2.25965 12.0645 1.75453L12.4288 0.299444Z" fill="white" stroke="white" stroke-width="3.69549" mask="url(#path-1-inside-1)"/>
</svg>
