<svg width="8" height="14" viewBox="0 0 8 14" fill="none" xmlns="http://www.w3.org/2000/svg">
<path d="M7.49983 0.00291293L5.68436 0C3.64474 0 2.32666 1.35233 2.32666 3.44542V5.03399H0.501285C0.343551 5.03399 0.21582 5.16187 0.21582 5.3196V7.62126C0.21582 7.77899 0.343697 7.90672 0.501285 7.90672H2.32666V13.7145C2.32666 13.8723 2.45439 14 2.61212 14H4.99371C5.15144 14 5.27917 13.8721 5.27917 13.7145V7.90672H7.41346C7.57119 7.90672 7.69892 7.77899 7.69892 7.62126L7.6998 5.3196C7.6998 5.24386 7.66965 5.17133 7.6162 5.11773C7.56275 5.06414 7.48992 5.03399 7.41419 5.03399H5.27917V3.68734C5.27917 3.04008 5.43341 2.71151 6.27655 2.71151L7.49954 2.71107C7.65712 2.71107 7.78485 2.58319 7.78485 2.4256V0.288381C7.78485 0.130936 7.65727 0.00320423 7.49983 0.00291293Z" fill="#333333"/>
</svg>
