<svg width="10" height="16" viewBox="0 0 10 16" fill="none" xmlns="http://www.w3.org/2000/svg">
<path d="M8.99938 0.00332907L6.92456 0C4.59358 0 3.08719 1.54552 3.08719 3.93762V5.75313H1.00105C0.820783 5.75313 0.674805 5.89927 0.674805 6.07954V8.71001C0.674805 8.89028 0.820949 9.03625 1.00105 9.03625H3.08719V15.6738C3.08719 15.854 3.23317 16 3.41343 16H6.13525C6.31552 16 6.46149 15.8539 6.46149 15.6738V9.03625H8.90068C9.08095 9.03625 9.22692 8.89028 9.22692 8.71001L9.22792 6.07954C9.22792 5.99299 9.19347 5.91009 9.13238 5.84884C9.07129 5.78758 8.98806 5.75313 8.90151 5.75313H6.46149V4.2141C6.46149 3.47438 6.63777 3.09886 7.60136 3.09886L8.99905 3.09836C9.17915 3.09836 9.32513 2.95222 9.32513 2.77211V0.329578C9.32513 0.149642 9.17932 0.00366197 8.99938 0.00332907Z" fill="#3A559F"/>
</svg>
