<svg width="113" height="113" viewBox="0 0 113 113" fill="none" xmlns="http://www.w3.org/2000/svg">
<path d="M92.9161 33.3262L96.2266 15.1182L92.9161 0H55.1293L71.682 16.7734L55.1293 33.3262H92.9161Z" fill="url(#paint0_linear)"/>
<path d="M92.916 0H99.5371V59.8105H92.916V0Z" fill="url(#paint1_linear)"/>
<path d="M96.2266 0H99.5371V59.8105H96.2266V0Z" fill="url(#paint2_linear)"/>
<path d="M79.6738 53.1895V66.4316H53.1895V79.6738H26.7051V92.916H0V113H113V53.1895H79.6738Z" fill="url(#paint3_linear)"/>
<path d="M96.2266 53.1895H113V113H96.2266V53.1895Z" fill="url(#paint4_linear)"/>
<defs>
<linearGradient id="paint0_linear" x1="73.4751" y1="29.9917" x2="54.1147" y2="48.9936" gradientUnits="userSpaceOnUse">
<stop offset="0.0353535" stop-color="#1968B3"/>
<stop offset="1" stop-color="#4C97DD"/>
</linearGradient>
<linearGradient id="paint1_linear" x1="94.7958" y1="62.1168" x2="89.6614" y2="62.3669" gradientUnits="userSpaceOnUse">
<stop offset="0.0353535" stop-color="#5FA4E6"/>
<stop offset="1" stop-color="#4C97DD"/>
</linearGradient>
<linearGradient id="paint2_linear" x1="97.1665" y1="62.1168" x2="94.5947" y2="62.1795" gradientUnits="userSpaceOnUse">
<stop offset="0.0353535" stop-color="#5FA4E6"/>
<stop offset="1" stop-color="#4C97DD"/>
</linearGradient>
<linearGradient id="paint3_linear" x1="50.4432" y1="107.016" x2="18.3944" y2="155.207" gradientUnits="userSpaceOnUse">
<stop offset="0.0353535" stop-color="#1968B3"/>
<stop offset="1" stop-color="#4C97DD"/>
</linearGradient>
<linearGradient id="paint4_linear" x1="128" y1="53" x2="92.8821" y2="54.8514" gradientUnits="userSpaceOnUse">
<stop offset="0.0353535" stop-color="#1968B3"/>
<stop offset="1" stop-color="#4C97DD"/>
</linearGradient>
</defs>
</svg>
