<svg width="24" height="24" viewBox="0 0 24 24" fill="none" xmlns="http://www.w3.org/2000/svg">
<path opacity="0.2" d="M21.7009 10.5358C23.0804 16.7171 17.0106 20.5147 12.2306 20.9496C7.76125 21.3562 3.20164 19.3422 2.20316 13.5112C0.938682 6.12673 11.6737 3.84124 14.4589 3.0974C17.244 2.35357 20.6819 5.96987 21.7009 10.5358Z" fill="url(#paint0_linear)"/>
<path d="M5.41748 21H10.0745C10.382 21 10.6314 20.7506 10.6314 20.443V15.7332H13.3686V20.4431C13.3686 20.7506 13.6179 21 13.9255 21H18.5827C18.8902 21 19.1396 20.7507 19.1396 20.4431V12.686H20.4966C20.9007 12.686 21.2562 12.4425 21.4022 12.0657C21.5482 11.6888 21.4494 11.2694 21.1507 10.9971L12.654 3.25495C12.2812 2.91515 11.7188 2.91511 11.3459 3.25499L9.41378 5.01548V4.70571C9.41378 4.39816 9.16442 4.14879 8.85687 4.14879H5.00589C4.69834 4.14879 4.44897 4.39812 4.44897 4.70571V9.53934L2.84915 10.9971C2.55037 11.2693 2.45168 11.6888 2.59764 12.0656C2.74363 12.4425 3.09908 12.686 3.50324 12.686H4.86056V20.443C4.86056 20.7506 5.10993 21 5.41748 21Z" fill="url(#paint1_linear)"/>
<path d="M2.8496 10.997L4.44942 9.53932V4.7057C4.44942 4.39815 4.69875 4.14878 5.00634 4.14878H8.85729C9.16484 4.14878 9.41421 4.39811 9.41421 4.7057V5.01543L11.3463 3.25494C11.5328 3.08498 11.7667 3.00002 12.0005 3.00006V15.7332H10.6318V20.4431C10.6318 20.7506 10.3825 21 10.0749 21H5.41786C5.11031 21 4.86094 20.7506 4.86094 20.4431V12.686H3.50361C3.09948 12.686 2.744 12.4425 2.59801 12.0656C2.45213 11.6887 2.55081 11.2693 2.8496 10.997Z" fill="url(#paint2_linear)"/>
<defs>
<linearGradient id="paint0_linear" x1="26.4988" y1="-31.8382" x2="-4.99655" y2="5.22912" gradientUnits="userSpaceOnUse">
<stop offset="0.0353535" stop-color="#8CACFF"/>
<stop offset="1" stop-color="#5A7BD0"/>
</linearGradient>
<linearGradient id="paint1_linear" x1="21.7637" y1="-13.8012" x2="-9.57724" y2="22.0417" gradientUnits="userSpaceOnUse">
<stop offset="0.0353535" stop-color="#065CAD"/>
<stop offset="1" stop-color="#3B92E4"/>
</linearGradient>
<linearGradient id="paint2_linear" x1="-4.83324" y1="9.00009" x2="-15.0806" y2="26.2988" gradientUnits="userSpaceOnUse">
<stop offset="0.0353535" stop-color="#065CAD"/>
<stop offset="1" stop-color="#3B92E4"/>
</linearGradient>
</defs>
</svg>
