<svg width="14" height="15" viewBox="0 0 14 15" fill="none" xmlns="http://www.w3.org/2000/svg">
<g clip-path="url(#clip0)">
<path d="M3.63075 5.37476H0.5V14.9998H3.63075V5.37476Z" fill="#333333"/>
<path d="M11.7894 5.48812C11.7561 5.47762 11.7246 5.46624 11.6896 5.45662C11.6476 5.44699 11.6056 5.43912 11.5627 5.43212C11.3965 5.39887 11.2145 5.37524 11.001 5.37524C9.17573 5.37524 8.01811 6.70262 7.63661 7.21537V5.37524H4.50586V15.0002H7.63661V9.75024C7.63661 9.75024 10.0026 6.45499 11.001 8.87524C11.001 11.0356 11.001 15.0002 11.001 15.0002H14.1309V8.50512C14.1309 7.05087 13.1342 5.83899 11.7894 5.48812Z" fill="#333333"/>
<path d="M2.03125 3.62476C2.87694 3.62476 3.5625 2.93919 3.5625 2.09351C3.5625 1.24782 2.87694 0.562256 2.03125 0.562256C1.18556 0.562256 0.5 1.24782 0.5 2.09351C0.5 2.93919 1.18556 3.62476 2.03125 3.62476Z" fill="#333333"/>
</g>
<defs>
<clipPath id="clip0">
<rect width="14" height="15" fill="white"/>
</clipPath>
</defs>
</svg>
