<svg width="16" height="16" viewBox="0 0 16 16" fill="none" xmlns="http://www.w3.org/2000/svg">
<path d="M11 0H5C2.239 0 0 2.239 0 5V11C0 13.761 2.239 16 5 16H11C13.761 16 16 13.761 16 11V5C16 2.239 13.761 0 11 0ZM14.5 11C14.5 12.93 12.93 14.5 11 14.5H5C3.07 14.5 1.5 12.93 1.5 11V5C1.5 3.07 3.07 1.5 5 1.5H11C12.93 1.5 14.5 3.07 14.5 5V11Z" fill="url(#paint0_linear)"/>
<path d="M8 4C5.791 4 4 5.791 4 8C4 10.209 5.791 12 8 12C10.209 12 12 10.209 12 8C12 5.791 10.209 4 8 4ZM8 10.5C6.622 10.5 5.5 9.378 5.5 8C5.5 6.621 6.622 5.5 8 5.5C9.378 5.5 10.5 6.621 10.5 8C10.5 9.378 9.378 10.5 8 10.5Z" fill="url(#paint1_linear)"/>
<path d="M12.3001 4.23274C12.5945 4.23274 12.8331 3.99411 12.8331 3.69974C12.8331 3.40538 12.5945 3.16675 12.3001 3.16675C12.0057 3.16675 11.7671 3.40538 11.7671 3.69974C11.7671 3.99411 12.0057 4.23274 12.3001 4.23274Z" fill="url(#paint2_linear)"/>
<defs>
<linearGradient id="paint0_linear" x1="1.46465" y1="14.5355" x2="14.5353" y2="1.46455" gradientUnits="userSpaceOnUse">
<stop stop-color="#FFC107"/>
<stop offset="0.507" stop-color="#F44336"/>
<stop offset="0.99" stop-color="#9C27B0"/>
</linearGradient>
<linearGradient id="paint1_linear" x1="5.17165" y1="10.8283" x2="10.8283" y2="5.17165" gradientUnits="userSpaceOnUse">
<stop stop-color="#FFC107"/>
<stop offset="0.507" stop-color="#F44336"/>
<stop offset="0.99" stop-color="#9C27B0"/>
</linearGradient>
<linearGradient id="paint2_linear" x1="11.9232" y1="4.07669" x2="12.6769" y2="3.32289" gradientUnits="userSpaceOnUse">
<stop stop-color="#FFC107"/>
<stop offset="0.507" stop-color="#F44336"/>
<stop offset="0.99" stop-color="#9C27B0"/>
</linearGradient>
</defs>
</svg>
