<svg width="16" height="16" viewBox="0 0 16 16" fill="none" xmlns="http://www.w3.org/2000/svg">
<g clip-path="url(#clip0)">
<path d="M3.578 4.99976H0V15.9998H3.578V4.99976Z" fill="#1976D2"/>
<path d="M12.902 5.12924C12.864 5.11724 12.828 5.10424 12.788 5.09324C12.74 5.08224 12.692 5.07324 12.643 5.06524C12.453 5.02724 12.245 5.00024 12.001 5.00024C9.915 5.00024 8.592 6.51724 8.156 7.10324V5.00024H4.578V16.0002H8.156V10.0002C8.156 10.0002 10.86 6.23424 12.001 9.00024C12.001 11.4692 12.001 16.0002 12.001 16.0002H15.578V8.57724C15.578 6.91524 14.439 5.53024 12.902 5.12924Z" fill="#1976D2"/>
<path d="M1.75 2.99976C2.7165 2.99976 3.5 2.21625 3.5 1.24976C3.5 0.283258 2.7165 -0.500244 1.75 -0.500244C0.783502 -0.500244 0 0.283258 0 1.24976C0 2.21625 0.783502 2.99976 1.75 2.99976Z" fill="#1976D2"/>
</g>
<defs>
<clipPath id="clip0">
<rect width="16" height="16" fill="white"/>
</clipPath>
</defs>
</svg>
