<svg width="24" height="24" viewBox="0 0 24 24" fill="none" xmlns="http://www.w3.org/2000/svg">
<path opacity="0.2" d="M19.8391 19.3492C20.9538 22.0965 16.0489 23.7843 12.1863 23.9776C8.57468 24.1583 4.89014 23.2632 4.08328 20.6716C3.06148 17.3897 11.7363 16.3739 13.9869 16.0433C16.2375 15.7127 19.0156 17.3199 19.8391 19.3492Z" fill="url(#paint0_linear)"/>
<path d="M12 0C16.1376 0 19.5 3.3625 19.5 7.5C19.5 8.9 19.1124 10.2625 18.375 11.4375L12.5084 21.0381C12.4083 21.2006 12.2583 21.3007 12.0833 21.3257C11.8459 21.3631 11.5833 21.2632 11.4458 21.0257L5.56246 11.3375C4.86254 10.1875 4.5 8.85004 4.5 7.5C4.5 3.3625 7.86242 0 12 0ZM12 11.25C14.0999 11.25 15.75 9.55 15.75 7.5C15.75 5.43746 14.0625 3.75 12 3.75C9.93746 3.75 8.25 5.43746 8.25 7.5C8.25 9.5375 9.87504 11.25 12 11.25Z" fill="url(#paint1_linear)"/>
<path d="M12 0V3.75C9.93746 3.75 8.25 5.43746 8.25 7.5C8.25 9.5375 9.87504 11.25 12 11.25V21.333C11.7867 21.3379 11.5674 21.2357 11.4458 21.0257L5.5625 11.3375C4.86254 10.1875 4.5 8.85004 4.5 7.5C4.5 3.3625 7.86242 0 12 0Z" fill="url(#paint2_linear)"/>
<defs>
<linearGradient id="paint0_linear" x1="23.7162" y1="0.516338" x2="12.8353" y2="23.7996" gradientUnits="userSpaceOnUse">
<stop offset="0.0353535" stop-color="#8CACFF"/>
<stop offset="1" stop-color="#5A7BD0"/>
</linearGradient>
<linearGradient id="paint1_linear" x1="19.7336" y1="-19.9127" x2="-16.4321" y2="7.72906" gradientUnits="userSpaceOnUse">
<stop offset="0.0353535" stop-color="#065CAD"/>
<stop offset="1" stop-color="#3B92E4"/>
</linearGradient>
<linearGradient id="paint2_linear" x1="-1.33333" y1="7.11111" x2="-15.0815" y2="22.6214" gradientUnits="userSpaceOnUse">
<stop offset="0.0353535" stop-color="#065CAD"/>
<stop offset="1" stop-color="#3B92E4"/>
</linearGradient>
</defs>
</svg>
