<svg width="24" height="24" viewBox="0 0 24 24" fill="none" xmlns="http://www.w3.org/2000/svg">
<path d="M7.45436 16.5462C5.27953 14.3713 4.04612 12.1411 3.34752 10.2712C2.15966 7.09185 4.1472 3.71537 7.32895 3.09989C7.6356 3.04055 11.1745 5.32415 10.5236 7.79762C10.5236 7.79762 10.257 9.06242 9.44423 9.42399C9.083 9.58469 8.70197 9.70077 8.35482 9.70077C8.35482 9.70077 8.38736 11.2521 10.5679 13.4327C12.5206 15.3854 14.2997 15.6458 14.2997 15.6458C14.2997 15.2986 14.4158 14.9176 14.5764 14.5564C14.938 13.7437 16.2477 13.8909 16.2477 13.8909C18.1163 13.8448 20.9599 16.3648 20.9006 16.6714C20.2852 19.8533 16.9087 21.841 13.7293 20.6531C11.8594 19.9545 9.62923 18.721 7.45436 16.5462Z" fill="url(#paint0_linear)"/>
<path d="M20.0518 18.6842C18.7146 20.6095 16.1642 21.5622 13.7294 20.6525C11.8594 19.9538 9.62902 18.7205 7.45427 16.5457C5.27953 14.3709 4.04616 12.1406 3.34752 10.2705C2.43781 7.83571 3.39048 5.28532 5.31582 3.94803C4.35348 5.32928 4.0325 7.15739 4.6928 8.92521C5.3914 10.7953 6.62481 13.0257 8.79955 15.2004C10.9743 17.3752 13.2046 18.6086 15.0747 19.3072C16.8425 19.9675 18.6706 19.6465 20.0518 18.6842Z" fill="url(#paint1_linear)"/>
<path opacity="0.2" d="M19.8391 10.8612C20.9538 15.6688 16.0489 18.6225 12.1863 18.9608C8.57468 19.277 4.89014 17.7106 4.08328 13.1754C3.06148 7.43191 11.7363 5.6543 13.9869 5.07576C16.2375 4.49722 19.0156 7.3099 19.8391 10.8612Z" fill="url(#paint2_linear)"/>
<defs>
<linearGradient id="paint0_linear" x1="2.72121" y1="-13.6109" x2="34.0634" y2="20.4578" gradientUnits="userSpaceOnUse">
<stop offset="0.0353535" stop-color="#065CAD"/>
<stop offset="1" stop-color="#3B92E4"/>
</linearGradient>
<linearGradient id="paint1_linear" x1="33.3144" y1="9.63208" x2="39.6027" y2="29.8109" gradientUnits="userSpaceOnUse">
<stop offset="0.0353535" stop-color="#065CAD"/>
<stop offset="1" stop-color="#3B92E4"/>
</linearGradient>
<linearGradient id="paint2_linear" x1="23.7162" y1="-22.0964" x2="-0.612312" y2="7.65165" gradientUnits="userSpaceOnUse">
<stop offset="0.0353535" stop-color="#8CACFF"/>
<stop offset="1" stop-color="#5A7BD0"/>
</linearGradient>
</defs>
</svg>
