<svg width="386" height="264" viewBox="0 0 386 264" fill="none" xmlns="http://www.w3.org/2000/svg">
<path d="M229.289 51.4722C229.289 56.8217 231.128 60.6428 234.193 62.6298C238.331 65.3809 247.221 70.1191 247.221 70.1191C259.636 62.9354 284.159 38.022 284.159 25.6417C284.159 20.2922 272.51 16.1654 269.292 14.1784C265.153 11.5801 258.869 11.8858 251.819 16.0125C239.251 23.1962 229.289 39.0919 229.289 51.4722Z" fill="url(#paint0_linear)"/>
<path d="M277.466 55.7341C287.388 42.5788 289.344 27.3485 281.834 21.7163C274.325 16.0841 260.195 22.1827 250.273 35.338C240.351 48.4933 238.395 63.7235 245.904 69.3557C253.413 74.988 267.544 68.8893 277.466 55.7341Z" fill="url(#paint1_linear)"/>
<path d="M243.543 59.5721C243.543 64.9216 245.382 68.7427 248.447 70.7296C252.585 73.4808 261.475 78.2189 261.475 78.2189C273.89 71.0353 298.413 46.1218 298.413 33.7415C298.413 28.392 286.764 24.2652 283.546 22.2783C279.407 19.6799 273.123 19.9856 266.073 24.1124C253.658 31.296 243.543 47.1917 243.543 59.5721Z" fill="url(#paint2_linear)"/>
<path d="M291.867 63.8232C301.788 50.6679 303.744 35.4377 296.235 29.8054C288.726 24.1732 274.595 30.2719 264.673 43.4271C254.751 56.5824 252.796 71.8126 260.305 77.4449C267.814 83.0771 281.945 76.9784 291.867 63.8232Z" fill="url(#paint3_linear)"/>
<path d="M262.395 61.5598C262.395 69.8134 269.138 72.5645 277.415 67.8264C285.691 63.0883 292.435 52.5421 292.435 44.2885C292.435 36.035 285.691 33.2838 277.415 38.022C269.138 42.9129 262.395 53.4591 262.395 61.5598Z" fill="url(#paint4_linear)"/>
<path d="M287.211 60.3302C293.825 51.56 295.184 41.4477 290.246 37.7436C285.307 34.0395 275.942 38.1464 269.327 46.9166C262.712 55.6868 261.354 65.7991 266.292 69.5032C271.231 73.2073 280.596 69.1004 287.211 60.3302Z" fill="#D7D9DB"/>
<path d="M291.669 45.9693C291.669 53.3057 285.691 62.782 278.181 67.0616C270.824 71.3412 264.694 68.7429 264.694 61.4064C264.694 60.6422 264.847 59.7252 265 58.9609C266.073 52.083 271.591 44.1351 278.181 40.3141C278.794 40.0084 279.254 39.7027 279.714 39.5498C286.611 36.493 291.669 39.0913 291.669 45.9693Z" fill="url(#paint5_linear)"/>
<path d="M285.232 45.205C285.232 50.8602 280.633 58.0439 275.116 61.2536C274.043 61.8649 273.123 62.3235 272.204 62.4763C269.138 63.3934 266.533 62.3235 265.613 59.878C265.46 59.5723 265.307 59.2666 265.307 58.8081C265.46 57.7382 265.767 56.8211 266.073 55.7512C267.759 50.4017 271.744 44.8993 276.649 41.3839C277.262 40.9254 277.875 40.4669 278.488 40.1612C278.948 39.8555 279.407 39.7027 279.867 39.397C280.02 39.397 280.02 39.2441 280.174 39.2441C283.086 39.397 285.232 41.3839 285.232 45.205Z" fill="#E3E5E6"/>
<path d="M284.312 43.8294C284.312 49.3318 277.415 59.2666 271.897 62.6292C271.897 62.6292 271.897 62.6292 271.744 62.6292C271.744 62.6292 271.591 62.6292 271.437 62.4763C271.131 62.4763 270.978 62.3235 270.671 62.1706C270.518 62.1706 270.518 62.1706 270.365 62.0178C269.138 61.5593 267.146 60.795 265.307 59.7251C265.153 59.4195 265 59.1138 265 58.6552C265.153 57.5853 265.46 56.6683 265.766 55.5984C267.452 50.2489 271.437 44.7465 276.342 41.2311C276.955 40.7726 277.568 40.314 278.181 40.0084C278.641 39.7027 279.101 39.5498 279.561 39.2441C281.4 40.4669 282.779 41.9953 283.546 42.7595C284.159 43.5238 284.312 43.8294 284.312 43.8294Z" fill="url(#paint6_linear)"/>
<path d="M285.538 47.4984C285.538 52.3893 281.553 58.5031 276.802 61.2543C272.05 64.0054 268.065 62.3242 268.065 57.586C268.065 57.1275 268.066 56.5161 268.219 55.9047C268.985 51.4723 272.51 46.2756 276.802 43.8301C277.108 43.6773 277.568 43.3716 277.875 43.3716C282.166 41.2318 285.538 43.0659 285.538 47.4984Z" fill="#D9DBDD"/>
<path d="M281.4 50.4014C281.4 52.6941 279.561 55.751 277.108 57.1265C274.809 58.5021 272.817 57.7379 272.817 55.2924C272.817 54.9867 272.817 54.8339 272.817 54.5282C273.123 52.3884 274.963 49.7901 276.955 48.5673C277.108 48.4145 277.262 48.4145 277.415 48.2616C279.714 47.3446 281.4 48.1088 281.4 50.4014Z" fill="url(#paint7_linear)"/>
<path d="M277.721 50.8612C277.721 51.7783 276.955 53.001 276.035 53.6124C275.116 54.2238 274.349 53.7653 274.349 52.8482C274.349 52.6953 274.349 52.6953 274.349 52.5425C274.503 51.6254 275.116 50.7084 276.035 50.2499C276.035 50.2499 276.189 50.2499 276.189 50.097C277.108 49.6385 277.721 50.097 277.721 50.8612Z" fill="#E3E5E6"/>
<path d="M177.484 81.2764C177.484 86.6259 179.323 90.447 182.389 92.434C186.527 95.1852 195.416 99.9233 195.416 99.9233C207.831 92.7397 232.354 67.8262 232.354 55.4459C232.354 50.0964 220.706 45.9696 217.487 43.9826C213.349 41.3843 207.065 41.69 200.015 45.8167C187.6 53.0004 177.484 68.8961 177.484 81.2764Z" fill="url(#paint8_linear)"/>
<path d="M225.703 85.5822C235.625 72.4269 237.581 57.1967 230.071 51.5645C222.562 45.9323 208.432 52.0309 198.51 65.1862C188.588 78.3414 186.632 93.5717 194.141 99.2039C201.65 104.836 215.781 98.7375 225.703 85.5822Z" fill="#424852"/>
<path d="M191.891 89.377C191.891 94.7265 193.731 98.5476 196.796 100.535C200.934 103.286 209.824 108.024 209.824 108.024C222.238 100.84 246.761 75.9268 246.761 63.5465C246.761 58.1969 235.113 54.0702 231.894 52.0832C227.756 49.4849 221.472 49.7906 214.422 53.9173C202.007 61.101 191.891 76.9967 191.891 89.377Z" fill="url(#paint9_linear)"/>
<path d="M240.103 93.6706C250.025 80.5153 251.98 65.2851 244.471 59.6528C236.962 54.0206 222.831 60.1193 212.909 73.2745C202.988 86.4298 201.032 101.66 208.541 107.292C216.05 112.924 230.181 106.826 240.103 93.6706Z" fill="url(#paint10_linear)"/>
<path d="M210.743 91.365C210.743 99.6185 217.487 102.37 225.764 97.6316C234.04 92.8934 240.784 82.3472 240.784 74.0937C240.784 65.8402 234.04 63.089 225.764 67.8271C217.334 72.7181 210.743 83.1115 210.743 91.365Z" fill="url(#paint11_linear)"/>
<path d="M211.663 92.1284C211.663 100.382 218.407 103.133 226.683 98.395C234.96 93.6569 241.703 83.1107 241.703 74.8571C241.703 66.6036 234.96 63.8524 226.683 68.5906C218.253 73.3287 211.663 83.8749 211.663 92.1284Z" fill="#D7D9DB"/>
<path d="M240.017 75.7741C240.017 83.1106 234.04 92.5869 226.53 96.8665C219.173 101.146 213.042 98.5478 213.042 91.2113C213.042 90.4471 213.196 89.53 213.349 88.7658C214.422 81.8879 219.939 73.94 226.53 70.1189C227.143 69.8132 227.603 69.5076 228.063 69.3547C234.806 66.145 240.017 68.8962 240.017 75.7741Z" fill="url(#paint12_linear)"/>
<path d="M233.427 75.0102C233.427 80.6654 228.829 87.849 223.311 91.0587C222.238 91.6701 221.319 92.1287 220.399 92.2815C217.334 93.1986 214.728 92.1286 213.809 89.6832C213.655 89.3775 213.502 89.0718 213.502 88.6133C213.655 87.5434 213.962 86.6263 214.268 85.5564C215.954 80.2069 219.939 74.7045 224.844 71.1891C225.457 70.7306 226.07 70.2721 226.683 69.9664C227.143 69.6607 227.603 69.5078 228.063 69.2022C228.216 69.2022 228.216 69.0493 228.369 69.0493C231.281 69.2022 233.427 71.1891 233.427 75.0102Z" fill="#E3E5E6"/>
<path d="M232.507 73.6346C232.507 79.137 225.61 89.0718 220.093 92.4343C220.093 92.4343 220.093 92.4343 219.939 92.4343C219.939 92.4343 219.786 92.4343 219.633 92.2815C219.326 92.2815 219.173 92.1287 218.866 91.9758C218.713 91.9758 218.713 91.9758 218.56 91.823C217.334 91.3644 215.341 90.6002 213.502 89.5303C213.349 89.2246 213.195 88.9189 213.195 88.4604C213.349 87.3905 213.655 86.4735 213.962 85.4036C215.648 80.054 219.633 74.5517 224.537 71.0363C225.15 70.5777 225.763 70.1192 226.377 69.8135C226.836 69.5078 227.296 69.355 227.756 69.0493C229.595 70.2721 230.975 71.8005 231.741 72.5647C232.354 73.3289 232.507 73.6346 232.507 73.6346Z" fill="url(#paint13_linear)"/>
<path d="M233.887 77.3031C233.887 82.194 229.902 88.3078 225.15 91.059C220.399 93.8101 216.414 92.1289 216.414 87.3907C216.414 86.9322 216.414 86.3208 216.567 85.7094C217.334 81.277 220.859 76.0803 225.15 73.6348C225.457 73.482 225.917 73.1763 226.223 73.1763C230.515 71.0365 233.887 72.7178 233.887 77.3031Z" fill="#D9DBDD"/>
<path d="M229.749 80.2066C229.749 82.4993 227.909 85.5561 225.457 86.9317C223.158 88.3073 221.166 87.5431 221.166 85.0976C221.166 84.7919 221.166 84.6391 221.166 84.3334C221.472 82.1936 223.311 79.5952 225.304 78.3725C225.457 78.2196 225.61 78.2196 225.764 78.0668C228.063 77.1497 229.749 77.914 229.749 80.2066Z" fill="url(#paint14_linear)"/>
<path d="M226.07 80.6644C226.07 81.5815 225.304 82.8043 224.384 83.4156C223.464 84.027 222.698 83.5685 222.698 82.6514C222.698 82.4986 222.698 82.4986 222.698 82.3457C222.851 81.4287 223.464 80.5116 224.384 80.0531C224.384 80.0531 224.537 80.0531 224.537 79.9002C225.304 79.4417 226.07 79.9002 226.07 80.6644Z" fill="#E3E5E6"/>
<path d="M306.996 55.4467L303.47 57.5866V34.6601L306.996 32.6731V55.4467Z" fill="#725986"/>
<path d="M286.005 59.7072C291.652 52.2188 292.776 43.5569 288.514 40.3602C284.252 37.1635 276.219 40.6426 270.571 48.131C264.923 55.6194 263.799 64.2813 268.061 67.478C272.323 70.6747 280.357 67.1955 286.005 59.7072Z" fill="#ADD1B9"/>
<path d="M363.551 53.154L226.53 123.768L178.864 93.5047L293.968 27.1707L312.053 23.5024L363.551 53.154Z" fill="url(#paint15_linear)"/>
<path d="M363.551 53.154L341.787 57.5865L293.968 27.1707L312.053 23.5024L363.551 53.154Z" fill="url(#paint16_linear)"/>
<path d="M229.902 67.9801L285.845 35.8831L317.724 53.9186L261.935 86.1685L229.902 67.9801Z" fill="url(#paint17_linear)"/>
<path d="M276.495 69.3549C286.992 69.3549 295.5 63.812 295.5 56.9745C295.5 50.1371 286.992 44.5942 276.495 44.5942C265.999 44.5942 257.49 50.1371 257.49 56.9745C257.49 63.812 265.999 69.3549 276.495 69.3549Z" fill="url(#paint18_linear)"/>
<path d="M363.551 63.5469L226.53 142.414V123.767L341.787 57.586L363.551 53.1536V63.5469Z" fill="url(#paint19_linear)"/>
<path d="M261.935 86.1679L317.724 53.918L321.096 60.6431L258.563 96.5613L261.935 86.1679Z" fill="url(#paint20_linear)"/>
<path d="M305.31 95.4915C305.31 100.841 307.149 104.662 310.214 106.649C314.352 109.4 323.242 114.138 323.242 114.138C335.657 106.955 360.18 82.0413 360.18 69.661C360.18 64.3115 348.531 60.1847 345.313 58.1977C341.174 55.5994 334.89 55.9051 327.84 60.0318C315.272 67.2155 305.31 83.1112 305.31 95.4915Z" fill="url(#paint21_linear)"/>
<path d="M353.568 99.8761C363.49 86.7209 365.446 71.4906 357.937 65.8584C350.428 60.2262 336.297 66.3248 326.375 79.4801C316.453 92.6354 314.497 107.866 322.007 113.498C329.516 119.13 343.646 113.031 353.568 99.8761Z" fill="url(#paint22_linear)"/>
<path d="M319.717 103.592C319.717 108.942 321.556 112.763 324.621 114.75C328.76 117.501 337.649 122.239 337.649 122.239C350.064 115.055 374.587 90.1419 374.587 77.7616C374.587 72.412 362.938 68.2853 359.72 66.2983C355.582 63.7 349.298 64.0057 342.247 68.1324C329.679 75.3161 319.717 91.2118 319.717 103.592Z" fill="url(#paint23_linear)"/>
<path d="M367.967 107.963C377.889 94.8073 379.845 79.577 372.336 73.9448C364.827 68.3126 350.696 74.4113 340.774 87.5665C330.852 100.722 328.896 115.952 336.406 121.584C343.915 127.216 358.046 121.118 367.967 107.963Z" fill="url(#paint24_linear)"/>
<path d="M338.416 105.732C338.416 113.985 345.159 116.737 353.436 111.999C361.712 107.26 368.456 96.7142 368.456 88.4607C368.456 80.2071 361.712 77.4559 353.436 82.1941C345.159 86.9322 338.416 97.4784 338.416 105.732Z" fill="url(#paint25_linear)"/>
<path d="M363.313 104.472C369.928 95.7021 371.287 85.5897 366.348 81.8857C361.41 78.1816 352.044 82.2885 345.429 91.0587C338.815 99.8288 337.456 109.941 342.394 113.645C347.333 117.349 356.699 113.242 363.313 104.472Z" fill="url(#paint26_linear)"/>
<path d="M367.843 89.9883C367.843 97.3248 361.865 106.801 354.355 111.081C346.999 115.36 340.868 112.762 340.868 105.425C340.868 104.661 341.021 103.744 341.174 102.98C342.247 96.102 347.765 88.1542 354.355 84.3331C354.968 84.0274 355.428 83.7217 355.888 83.5689C362.632 80.512 367.843 83.1104 367.843 89.9883Z" fill="url(#paint27_linear)"/>
<path d="M361.252 89.225C361.252 94.8802 356.654 102.064 351.137 105.274C350.064 105.885 349.144 106.343 348.225 106.496C345.159 107.413 342.554 106.343 341.634 103.898C341.481 103.592 341.328 103.287 341.328 102.828C341.481 101.758 341.787 100.841 342.094 99.7712C343.78 94.4217 347.765 88.9194 352.669 85.404C353.282 84.9454 353.896 84.4869 354.509 84.1812C354.968 83.8755 355.428 83.7227 355.888 83.417C356.041 83.417 356.041 83.2642 356.195 83.2642C359.107 83.417 361.252 85.5568 361.252 89.225Z" fill="url(#paint28_linear)"/>
<path d="M360.333 87.8495C360.333 93.3518 353.436 103.287 347.918 106.649C347.918 106.649 347.918 106.649 347.765 106.649C347.765 106.649 347.612 106.649 347.458 106.496C347.152 106.496 346.999 106.343 346.692 106.191C346.539 106.191 346.539 106.191 346.385 106.038C345.159 105.579 343.167 104.815 341.328 103.745C341.174 103.439 341.021 103.134 341.021 102.675C341.174 101.605 341.481 100.688 341.787 99.6184C343.473 94.2689 347.458 88.7665 352.363 85.2511C352.976 84.7926 353.589 84.3341 354.202 84.0284C354.662 83.7227 355.122 83.5698 355.581 83.2642C357.421 84.4869 358.8 86.0153 359.566 86.7796C360.179 87.6966 360.333 87.8495 360.333 87.8495Z" fill="url(#paint29_linear)"/>
<path d="M361.559 91.5167C361.559 96.4077 357.574 102.521 352.823 105.273C348.071 108.024 344.086 106.342 344.086 101.604C344.086 101.146 344.086 100.534 344.24 99.923C345.006 95.4906 348.531 90.2939 352.823 87.8484C353.129 87.6956 353.589 87.3899 353.896 87.3899C358.187 85.2501 361.559 87.0842 361.559 91.5167Z" fill="url(#paint30_linear)"/>
<path d="M357.421 94.4209C357.421 96.7136 355.582 99.7704 353.129 101.146C350.83 102.522 348.838 101.757 348.838 99.3119C348.838 99.0062 348.838 98.8534 348.838 98.5477C349.144 96.4079 350.983 93.8095 352.976 92.5868C353.129 92.4339 353.282 92.4339 353.436 92.2811C355.888 91.364 357.421 92.2811 357.421 94.4209Z" fill="url(#paint31_linear)"/>
<path d="M353.742 95.0327C353.742 95.9498 352.976 97.1725 352.056 97.7839C351.137 98.3953 350.37 97.9367 350.37 97.0197C350.37 96.8668 350.37 96.8668 350.37 96.714C350.524 95.7969 351.137 94.8799 352.056 94.4214C352.056 94.4214 352.21 94.4214 352.21 94.2685C353.129 93.81 353.742 94.1157 353.742 95.0327Z" fill="url(#paint32_linear)"/>
<path d="M253.505 125.296C253.505 130.646 255.344 134.467 258.41 136.454C262.548 139.205 271.437 143.943 271.437 143.943C283.852 136.76 308.375 111.846 308.375 99.4659C308.375 94.1164 296.727 89.9896 293.508 88.0027C289.37 85.4043 283.086 85.71 276.035 89.8368C263.621 97.0204 253.505 112.916 253.505 125.296Z" fill="url(#paint33_linear)"/>
<path d="M301.898 129.603C311.82 116.448 313.775 101.217 306.266 95.5852C298.757 89.953 284.626 96.0517 274.705 109.207C264.783 122.362 262.827 137.592 270.336 143.225C277.845 148.857 291.976 142.758 301.898 129.603Z" fill="url(#paint34_linear)"/>
<path d="M267.912 133.397C267.912 138.747 269.752 142.568 272.817 144.555C276.955 147.306 285.845 152.044 285.845 152.044C298.259 144.86 322.782 119.947 322.782 107.566C322.782 102.217 311.134 98.0902 307.915 96.1032C303.777 93.5049 297.493 93.8106 290.443 97.9374C278.028 105.121 267.912 121.017 267.912 133.397Z" fill="url(#paint35_linear)"/>
<path d="M316.204 137.812C326.126 124.656 328.082 109.426 320.573 103.794C313.064 98.1617 298.933 104.26 289.011 117.416C279.089 130.571 277.133 145.801 284.642 151.433C292.152 157.066 306.282 150.967 316.204 137.812Z" fill="url(#paint36_linear)"/>
<path d="M286.764 135.537C286.764 143.79 293.508 146.542 301.785 141.803C310.061 137.065 316.805 126.519 316.805 118.266C316.805 110.012 310.061 107.261 301.785 111.999C293.508 116.737 286.764 127.283 286.764 135.537Z" fill="url(#paint37_linear)"/>
<path d="M287.684 136.148C287.684 144.402 294.428 147.153 302.704 142.415C310.981 137.677 317.724 127.131 317.724 118.877C317.724 110.624 310.981 107.872 302.704 112.611C294.428 117.349 287.684 127.895 287.684 136.148Z" fill="url(#paint38_linear)"/>
<path d="M316.038 119.793C316.038 127.13 310.061 136.606 302.551 140.886C295.194 145.165 289.063 142.567 289.063 135.23C289.063 134.466 289.217 133.549 289.37 132.785C290.443 125.907 295.96 117.959 302.551 114.138C303.164 113.832 303.624 113.527 304.084 113.374C310.827 110.317 316.038 112.915 316.038 119.793Z" fill="url(#paint39_linear)"/>
<path d="M309.448 119.03C309.448 124.685 304.85 131.869 299.332 135.079C298.259 135.69 297.34 136.148 296.42 136.301C293.355 137.218 290.749 136.148 289.83 133.703C289.676 133.397 289.523 133.092 289.523 132.633C289.676 131.563 289.983 130.646 290.289 129.576C291.975 124.227 295.96 118.724 300.865 115.209C301.478 114.75 302.091 114.292 302.704 113.986C303.164 113.68 303.624 113.528 304.084 113.222C304.237 113.222 304.237 113.069 304.39 113.069C307.302 113.222 309.448 115.209 309.448 119.03Z" fill="url(#paint40_linear)"/>
<path d="M308.528 117.654C308.528 123.157 301.631 133.092 296.114 136.454C296.114 136.454 296.114 136.454 295.96 136.454C295.96 136.454 295.807 136.454 295.654 136.301C295.347 136.301 295.194 136.148 294.887 135.996C294.734 135.996 294.734 135.996 294.581 135.843C293.355 135.384 291.362 134.62 289.523 133.55C289.37 133.244 289.216 132.939 289.216 132.48C289.37 131.41 289.676 130.493 289.983 129.423C291.669 124.074 295.654 118.571 300.558 115.056C301.171 114.598 301.784 114.139 302.398 113.833C302.857 113.528 303.317 113.375 303.777 113.069C305.616 114.292 306.996 115.82 307.762 116.584C308.375 117.349 308.528 117.654 308.528 117.654Z" fill="url(#paint41_linear)"/>
<path d="M309.908 121.322C309.908 126.213 305.923 132.326 301.171 135.077C296.42 137.829 292.435 136.147 292.435 131.409C292.435 130.951 292.435 130.339 292.588 129.728C293.355 125.296 296.88 120.099 301.171 117.653C301.478 117.501 301.938 117.195 302.244 117.195C306.536 115.055 309.908 116.889 309.908 121.322Z" fill="url(#paint42_linear)"/>
<path d="M305.769 124.226C305.769 126.518 303.93 129.575 301.478 130.951C299.179 132.327 297.186 131.562 297.186 129.117C297.186 128.811 297.186 128.658 297.186 128.353C297.493 126.213 299.332 123.614 301.325 122.392C301.478 122.239 301.631 122.239 301.784 122.086C304.083 121.169 305.769 122.086 305.769 124.226Z" fill="url(#paint43_linear)"/>
<path d="M302.091 124.837C302.091 125.754 301.325 126.977 300.405 127.588C299.485 128.199 298.719 127.741 298.719 126.824C298.719 126.671 298.719 126.671 298.719 126.518C298.872 125.601 299.485 124.684 300.405 124.226C300.405 124.226 300.558 124.226 300.558 124.073C301.478 123.614 302.091 123.92 302.091 124.837Z" fill="url(#paint44_linear)"/>
<path d="M229.902 67.9805L261.935 86.1688L258.563 96.5622L226.53 78.5267L229.902 67.9805Z" fill="url(#paint45_linear)"/>
<path d="M230.055 63.0889L234.347 84.0284V106.496L241.397 102.37V114.903L234.347 119.03L232.354 120.099L225.917 123.768V65.5344L230.055 63.0889Z" fill="url(#paint46_linear)"/>
<path d="M266.226 55.1404V60.6428C266.226 64.311 270.824 67.3679 276.495 67.3679C282.166 67.3679 286.764 64.311 286.764 60.6428V54.8347L266.226 55.1404Z" fill="url(#paint47_linear)"/>
<path d="M257.49 49.9446V52.3901C257.49 59.2681 266.073 64.7704 276.495 64.7704C286.917 64.7704 295.5 59.2681 295.5 52.3901V49.3333L257.49 49.9446Z" fill="url(#paint48_linear)"/>
<path d="M276.495 62.3246C286.992 62.3246 295.5 56.7817 295.5 49.9443C295.5 43.1068 286.992 37.564 276.495 37.564C265.999 37.564 257.49 43.1068 257.49 49.9443C257.49 56.7817 265.999 62.3246 276.495 62.3246Z" fill="url(#paint49_linear)"/>
<path d="M103.455 45.6638V112.304C103.455 114.138 105.754 115.819 108.819 115.819C111.731 115.819 114.184 114.29 114.184 112.304V45.511L103.455 45.6638Z" fill="url(#paint50_linear)"/>
<path d="M114.031 45.6646C114.031 47.4987 111.732 49.18 108.667 49.18C105.755 49.18 103.303 47.6515 103.303 45.6646C103.303 43.8304 105.602 42.1492 108.667 42.1492C111.732 42.1492 114.031 43.6776 114.031 45.6646Z" fill="url(#paint51_linear)"/>
<path d="M117.556 16.6232C117.863 20.4443 114.951 22.4313 114.951 22.4313L113.571 23.654C112.345 24.5711 111.579 26.0995 111.579 27.628V44.7464C111.272 45.6635 110.2 46.122 108.82 46.122C107.594 46.122 106.521 45.5106 106.061 44.7464V26.2524C106.061 23.5012 107.288 20.9029 109.433 19.2216L115.257 14.0249C115.257 14.0249 117.25 13.5664 117.556 16.6232Z" fill="url(#paint52_linear)"/>
<path d="M107.134 45.8171V27.1702C107.134 24.419 108.36 21.8207 110.506 20.1394L116.33 14.9427C116.33 14.9427 116.637 14.9427 116.943 14.9427C116.33 13.72 115.257 14.0257 115.257 14.0257L109.433 19.2223C107.287 20.9036 106.061 23.502 106.061 26.2531V44.9C106.215 45.3586 106.674 45.6642 107.134 45.8171C107.287 45.8171 107.287 45.8171 107.134 45.8171Z" fill="url(#paint53_linear)"/>
<path d="M116.637 20.5986L113.571 23.3498C111.426 25.0311 110.2 27.6294 110.2 30.3806V45.9706C110.966 45.6649 111.426 45.3592 111.579 44.7479V27.6294C111.579 26.101 112.345 24.5726 113.571 23.6555L114.951 22.4328C114.951 22.4328 115.87 21.8214 116.637 20.5986Z" fill="url(#paint54_linear)"/>
<path d="M52.7241 133.703V136.301C52.7241 139.205 56.4025 141.651 60.8473 141.651C65.2921 141.651 68.9705 139.358 68.9705 136.301V133.397L52.7241 133.703Z" fill="url(#paint55_linear)"/>
<path d="M51.8045 129.576V132.48C51.8045 135.69 55.7895 138.288 60.8473 138.288C65.9052 138.288 69.8902 135.69 69.8902 132.48V129.271L51.8045 129.576Z" fill="url(#paint56_linear)"/>
<path d="M69.8902 129.576C69.8902 132.785 65.9052 135.384 60.8473 135.384C55.7895 135.384 51.8045 132.785 51.8045 129.576C51.8045 126.366 55.7895 123.768 60.8473 123.768C65.9052 123.768 69.8902 126.366 69.8902 129.576Z" fill="#BFCCCC"/>
<path d="M52.7241 121.322V128.659C52.7241 131.563 56.4025 134.008 60.8473 134.008C65.2921 134.008 68.9705 131.715 68.9705 128.659V121.016L52.7241 121.322Z" fill="url(#paint57_linear)"/>
<path d="M51.8045 116.126V119.03C51.8045 122.239 55.7895 124.838 60.8473 124.838C65.9052 124.838 69.8902 122.239 69.8902 119.03V115.82L51.8045 116.126Z" fill="url(#paint58_linear)"/>
<path d="M69.8902 116.125C69.8902 119.335 65.9052 121.933 60.8473 121.933C55.7895 121.933 51.8045 119.335 51.8045 116.125C51.8045 112.915 55.7895 110.317 60.8473 110.317C65.9052 110.317 69.8902 112.763 69.8902 116.125Z" fill="url(#paint59_linear)"/>
<path d="M68.9382 116.126C68.9382 118.998 65.3727 121.322 60.8473 121.322C56.322 121.322 52.7565 118.998 52.7565 116.126C52.7565 113.254 56.322 110.929 60.8473 110.929C65.3727 110.929 68.9382 113.117 68.9382 116.126Z" fill="url(#paint60_linear)"/>
<path d="M22.9902 201.564C22.9902 209.053 29.1209 211.499 36.4778 207.219C43.9879 202.94 49.9653 189.795 49.9653 182.306C49.9653 174.816 43.8346 175.886 36.4778 180.319C38.7768 178.943 22.9902 205.996 22.9902 201.564Z" fill="#ADD1B9"/>
<path d="M75.8676 169.468C73.5686 156.935 68.5107 150.515 60.8473 150.362C60.3875 150.362 59.9277 150.362 59.4679 150.515C58.7016 149.14 50.4251 150.821 49.3522 151.585C48.7392 151.891 39.0833 164.424 22.5304 193.77L7.35684 185.211C10.2689 169.773 30.347 139.816 48.5859 139.816H48.7392C50.8849 139.816 53.1839 140.275 55.3297 141.345C57.9352 142.567 70.0434 147.917 72.1892 151.432C74.1816 154.795 74.7947 163.507 75.8676 169.468Z" fill="url(#paint61_linear)"/>
<path d="M21.764 182V185.363C21.764 185.974 21.4575 186.432 20.9977 186.738C20.5378 186.891 18.2388 188.725 17.779 188.419L10.1156 179.249C8.88949 178.485 8.12315 177.262 8.12315 175.733L4.13818 174.052C4.13818 173.594 6.59047 172.524 6.89701 172.218C6.89701 172.218 7.05027 172.218 7.05027 172.065C7.51008 171.76 7.96988 171.76 8.58295 172.065L19.7715 178.485C20.9977 179.249 21.764 180.472 21.764 182Z" fill="url(#paint62_linear)"/>
<path d="M19.0052 183.528V186.891C19.0052 188.114 17.779 188.725 16.7062 188.266L5.5176 181.847C4.29146 181.083 3.52512 179.86 3.52512 178.332V174.969C3.52512 173.746 4.75126 173.135 5.82413 173.593L17.0127 180.013C18.2388 180.777 19.0052 182.153 19.0052 183.528Z" fill="url(#paint63_linear)"/>
<path d="M10.4222 180.778C10.4222 181.237 10.2689 181.542 10.1156 181.848C9.65584 182.612 8.58297 182.765 7.35682 182.154C5.67088 181.237 4.44473 179.097 4.44473 177.568C4.44473 176.346 5.0578 175.734 6.13068 175.887C6.59048 175.887 6.89702 176.04 7.35682 176.346C9.19604 177.11 10.4222 179.097 10.4222 180.778Z" fill="#CF9219"/>
<path d="M17.0127 184.752C17.0127 185.211 16.8594 185.516 16.7062 185.822C16.2464 186.586 15.1735 186.739 13.9473 186.128C12.2614 185.211 11.0352 183.071 11.0352 181.542C11.0352 180.32 11.6483 179.708 12.7212 179.861C13.181 179.861 13.4875 180.014 13.9473 180.32C15.6333 181.084 17.0127 183.071 17.0127 184.752Z" fill="#CF9219"/>
<path d="M10.4222 180.779C10.4222 181.237 10.2689 181.543 10.1156 181.849C9.65585 181.849 9.34931 181.696 8.88951 181.39C7.20356 180.473 5.97742 178.333 5.97742 176.805C5.97742 176.346 6.13068 176.041 6.28395 175.735C6.74376 175.735 7.05029 175.888 7.5101 176.193C9.19604 177.11 10.4222 179.097 10.4222 180.779Z" fill="#EDBD51"/>
<path d="M17.0127 184.752C17.0127 185.211 16.8594 185.516 16.7061 185.822C16.2463 185.822 15.9398 185.669 15.48 185.363C13.794 184.446 12.5679 182.307 12.5679 180.778C12.5679 180.32 12.7212 180.014 12.8744 179.708C13.3342 179.708 13.6408 179.861 14.1006 180.167C15.6333 181.084 17.0127 183.071 17.0127 184.752Z" fill="#EDBD51"/>
<path d="M22.2238 194.993L176.718 98.3956V74.3992L22.2238 170.996V194.993Z" fill="#AE6800"/>
<path d="M66.9781 161.214L110.813 139.51V123.92L66.9781 149.139V161.214Z" fill="#74C7AC"/>
<path d="M111.732 149.751L176.718 112.457V87.8491L111.732 125.143V149.751Z" fill="#74C7AC"/>
<path d="M176.718 75.4695L114.644 111.235V118.113L176.718 82.3474V75.4695Z" fill="#74C7AC"/>
<path d="M228.369 44.136L190.359 96.867L114.644 111.234V47.0401C114.644 41.8434 119.396 30.9915 122.614 26.8648C134.416 11.2747 140.087 6.07806 152.348 0.27002L228.369 44.136Z" fill="url(#paint64_linear)"/>
<path d="M171.967 85.4032C171.967 80.2065 176.871 67.5205 179.783 63.0881C190.665 46.2753 199.708 40.773 211.97 34.9649V32.0609L164.456 7.45312C152.195 13.2612 142.539 24.8773 135.949 41.3843C133.956 46.2753 130.584 55.2931 130.584 60.6426L126.599 118.417L174.419 109.247L171.967 85.4032Z" fill="url(#paint65_linear)"/>
<path d="M171.967 82.4994C171.967 77.3027 176.871 64.6167 179.783 60.1843C190.665 43.3715 199.708 37.8691 211.97 32.0611L164.456 4.70215C152.195 10.5102 142.539 22.1263 135.949 38.6334C133.956 43.5243 130.584 52.5421 130.584 57.8916L126.599 115.666L174.419 106.496L171.967 82.4994Z" fill="url(#paint66_linear)"/>
<path d="M87.0562 242.526L229.902 159.227V143.484L87.0562 220.058V242.526Z" fill="url(#paint67_linear)"/>
<path d="M209.364 184.294L243.083 164.425C247.528 161.826 247.987 154.184 244.002 147.306C240.017 140.428 233.12 136.913 228.676 139.511L194.65 159.687L209.364 184.294Z" fill="url(#paint68_linear)"/>
<path d="M194.957 159.381C199.401 156.783 206.299 160.298 210.283 167.176C214.268 174.054 213.809 181.696 209.364 184.294C204.919 186.893 198.022 183.377 194.037 176.499C190.052 169.621 190.512 161.979 194.957 159.381Z" fill="url(#paint69_linear)"/>
<path d="M194.803 162.743C198.329 160.604 203.846 163.508 207.065 169.01C210.284 174.512 209.977 180.626 206.299 182.766C202.773 184.906 197.256 182.002 194.037 176.499C190.819 170.997 191.278 164.883 194.803 162.743Z" fill="url(#paint70_linear)"/>
<path d="M142.999 216.849L186.833 191.63V175.887L142.999 201.106V216.849Z" fill="url(#paint71_linear)"/>
<path d="M184.381 186.28V179.097L179.17 181.848V183.376V190.407L184.381 192.394V186.28Z" fill="url(#paint72_linear)"/>
<path d="M186.834 190.866L145.911 214.556L150.969 217.308L191.891 193.77L186.834 190.866Z" fill="url(#paint73_linear)"/>
<path d="M181.776 172.983L140.853 196.674L145.758 199.425L186.834 175.887L181.776 172.983Z" fill="url(#paint74_linear)"/>
<path d="M145.911 214.556V215.626L150.969 218.53V217.307L145.911 214.556Z" fill="#888888"/>
<path d="M191.891 194.993L150.969 218.53V217.308L191.891 193.77V194.993Z" fill="url(#paint75_linear)"/>
<path d="M179.323 183.376L138.401 207.067L143.459 209.818L184.381 186.28L179.323 183.376Z" fill="url(#paint76_linear)"/>
<path d="M184.381 187.503L143.459 211.041V209.818L184.381 186.28V187.503Z" fill="url(#paint77_linear)"/>
<path d="M149.13 193.922L190.665 170.079V90.1416L150.969 113.527L152.195 126.518L154.341 122.544L149.13 155.711V193.922Z" fill="url(#paint78_linear)"/>
<path d="M82.6114 221.74L149.13 193.922V155.711C133.956 147.611 82.6114 185.516 82.6114 185.516V221.74Z" fill="url(#paint79_linear)"/>
<path d="M161.085 218.53L148.823 211.805C147.903 206.762 146.524 202.635 144.685 199.578C145.145 199.578 145.604 199.425 146.064 199.425C153.728 199.578 158.785 205.997 161.085 218.53Z" fill="url(#paint80_linear)"/>
<path d="M98.8578 233.814C98.8578 239.164 100.697 242.985 103.762 244.972C107.901 247.723 116.79 252.461 116.79 252.461C129.205 245.277 153.728 220.364 153.728 207.983C153.728 202.634 142.079 198.507 138.861 196.52C134.722 193.922 128.438 194.228 121.388 198.354C108.82 205.538 98.8578 221.434 98.8578 233.814Z" fill="url(#paint81_linear)"/>
<path d="M147.151 238.183C157.073 225.028 159.029 209.798 151.52 204.165C144.011 198.533 129.88 204.632 119.958 217.787C110.036 230.942 108.08 246.173 115.59 251.805C123.099 257.437 137.23 251.338 147.151 238.183Z" fill="url(#paint82_linear)"/>
<path d="M117.71 235.955C117.71 244.208 124.453 246.96 132.73 242.221C141.006 237.483 147.75 226.937 147.75 218.684C147.75 210.43 141.006 207.679 132.73 212.417C124.3 217.155 117.71 227.701 117.71 235.955Z" fill="url(#paint83_linear)"/>
<path d="M142.497 234.691C149.112 225.921 150.47 215.808 145.532 212.104C140.593 208.4 131.228 212.507 124.613 221.277C117.999 230.047 116.64 240.16 121.578 243.864C126.517 247.568 135.882 243.461 142.497 234.691Z" fill="url(#paint84_linear)"/>
<path d="M146.984 220.211C146.984 227.548 141.006 237.024 133.496 241.304C126.139 245.583 120.009 242.985 120.009 235.649C120.009 234.884 120.162 233.967 120.315 233.203C121.388 226.325 126.906 218.377 133.496 214.556C134.109 214.251 134.569 213.945 135.029 213.792C141.773 210.735 146.984 213.333 146.984 220.211Z" fill="url(#paint85_linear)"/>
<path d="M140.393 219.447C140.393 225.102 135.795 232.286 130.278 235.496C129.205 236.107 128.285 236.566 127.366 236.719C124.3 237.636 121.695 236.566 120.775 234.12C120.622 233.814 120.469 233.509 120.469 233.05C120.622 231.98 120.928 231.063 121.235 229.993C122.921 224.644 126.906 219.142 131.81 215.626C132.423 215.168 133.036 214.709 133.65 214.403C134.109 214.098 134.569 213.945 135.029 213.639C135.182 213.639 135.182 213.486 135.336 213.486C138.248 213.639 140.393 215.626 140.393 219.447Z" fill="url(#paint86_linear)"/>
<path d="M139.474 218.072C139.474 223.574 132.577 233.509 127.059 236.871C127.059 236.871 127.059 236.871 126.906 236.871C126.906 236.871 126.753 236.871 126.599 236.719C126.293 236.719 126.139 236.566 125.833 236.413C125.68 236.413 125.68 236.413 125.526 236.26C124.3 235.801 122.308 235.037 120.469 233.967C120.315 233.662 120.162 233.356 120.162 232.897C120.315 231.828 120.622 230.91 120.928 229.841C122.614 224.491 126.599 218.989 131.504 215.473C132.117 215.015 132.73 214.556 133.343 214.251C133.803 213.945 134.263 213.792 134.722 213.486C136.562 214.709 137.941 216.238 138.707 217.002C139.321 217.766 139.474 218.072 139.474 218.072Z" fill="url(#paint87_linear)"/>
<path d="M140.7 221.74C140.7 226.631 136.715 232.744 131.964 235.495C127.212 238.247 123.227 236.565 123.227 231.827C123.227 231.369 123.227 230.757 123.381 230.146C124.147 225.714 127.672 220.517 131.964 218.071C132.27 217.918 132.73 217.613 133.037 217.613C137.328 215.473 140.7 217.307 140.7 221.74Z" fill="url(#paint88_linear)"/>
<path d="M136.562 224.644C136.562 226.937 134.722 229.994 132.27 231.369C129.971 232.745 127.979 231.981 127.979 229.535C127.979 229.229 127.979 229.077 127.979 228.771C128.285 226.631 130.124 224.033 132.117 222.81C132.27 222.657 132.423 222.657 132.577 222.504C135.029 221.587 136.562 222.504 136.562 224.644Z" fill="url(#paint89_linear)"/>
<path d="M133.037 225.255C133.037 226.172 132.27 227.395 131.351 228.006C130.431 228.617 129.665 228.159 129.665 227.242C129.665 227.089 129.665 227.089 129.665 226.936C129.818 226.019 130.431 225.102 131.351 224.644C131.351 224.644 131.504 224.644 131.504 224.491C132.27 224.032 133.037 224.338 133.037 225.255Z" fill="url(#paint90_linear)"/>
<path d="M156.64 147.917C155.72 147.917 154.801 147.458 154.188 146.694C153.574 145.93 153.421 145.013 153.574 144.096L156.793 122.392C157.406 119.335 159.399 116.584 162.004 115.055L173.039 108.024C173.653 107.719 174.266 107.413 174.879 107.413C176.871 107.413 178.404 108.942 178.404 110.928V130.492C178.404 133.702 176.718 136.759 173.806 138.44L158.019 147.611C157.713 147.764 157.1 147.917 156.64 147.917Z" fill="url(#paint91_linear)"/>
<path d="M157.559 146.542L173.346 137.371C175.798 135.996 177.331 133.244 177.331 130.34V110.929C177.331 108.942 175.185 107.719 173.499 108.789L162.464 115.82C160.012 117.349 158.326 119.794 157.713 122.545L154.494 144.249C154.187 146.083 156.027 147.459 157.559 146.542Z" fill="url(#paint92_linear)"/>
<path d="M157.406 176.957C155.72 176.957 154.494 175.582 154.494 174.053V159.075C154.494 157.546 155.26 156.171 156.64 155.406L162.617 151.891C163.077 151.585 163.537 151.432 163.997 151.432C165.683 151.432 166.909 152.808 166.909 154.336V169.315C166.909 170.843 166.142 172.219 164.763 172.983L158.786 176.499C158.479 176.804 157.866 176.957 157.406 176.957Z" fill="url(#paint93_linear)"/>
<path d="M164.456 172.218L158.479 175.734C157.253 176.498 155.567 175.581 155.567 174.052V159.074C155.567 157.851 156.18 156.781 157.253 156.323L163.23 152.807C164.456 152.043 166.142 152.96 166.142 154.488V169.467C165.989 170.537 165.376 171.607 164.456 172.218Z" fill="url(#paint94_linear)"/>
<path d="M228.369 141.497L190.665 163.2V99.7705C190.665 94.1153 191.738 87.543 193.884 82.3463C198.175 71.953 216.414 47.3452 228.369 44.1355V141.497Z" fill="url(#paint95_linear)"/>
<path d="M228.369 139.357L182.235 166.105V172.983L183.921 174.053L229.902 140.427L228.369 139.357Z" fill="url(#paint96_linear)"/>
<path d="M229.902 140.427L183.922 167.174V174.052L229.902 147.305V140.427Z" fill="url(#paint97_linear)"/>
<path d="M194.803 164.119V165.189C194.803 165.647 194.497 166.106 194.037 166.411L189.439 169.163C189.132 169.315 188.672 169.163 188.672 168.704V168.398L192.657 166.106C193.117 165.8 193.424 165.341 193.424 164.883V164.119L194.19 163.66C194.343 163.354 194.803 163.66 194.803 164.119Z" fill="#80898A"/>
<path d="M193.271 163.966V164.73C193.271 165.188 192.964 165.647 192.504 165.953L188.519 168.245V167.481C188.519 167.022 188.826 166.564 189.286 166.258L193.271 163.966Z" fill="#EAC72F"/>
<path d="M227.756 144.707V145.777C227.756 146.235 227.449 146.694 226.989 146.999L222.391 149.751C222.085 149.904 221.625 149.751 221.625 149.292V148.986L225.61 146.694C226.07 146.388 226.376 145.93 226.376 145.471V144.707L227.143 144.248C227.296 143.943 227.756 144.248 227.756 144.707Z" fill="#80898A"/>
<path d="M226.223 144.554V145.318C226.223 145.777 225.917 146.235 225.457 146.541L221.472 148.834V148.069C221.472 147.611 221.779 147.152 222.238 146.847L226.223 144.554Z" fill="#EAC72F"/>
<path d="M216.72 151.126V152.196C216.72 152.655 216.414 153.113 215.954 153.419L211.356 156.17C211.049 156.323 210.59 156.17 210.59 155.712V155.406L214.575 153.113C215.034 152.808 215.341 152.349 215.341 151.891V151.126L216.107 150.668C216.261 150.362 216.874 150.668 216.72 151.126Z" fill="#80898A"/>
<path d="M215.188 151.126V151.891C215.188 152.349 214.882 152.808 214.422 153.113L210.437 155.406V154.642C210.437 154.183 210.743 153.725 211.203 153.419L215.188 151.126Z" fill="#EAC72F"/>
<path d="M205.838 157.546V158.616C205.838 159.075 205.531 159.533 205.071 159.839L200.473 162.59C200.167 162.743 199.707 162.59 199.707 162.131V161.826L203.692 159.533C204.152 159.227 204.458 158.769 204.458 158.31V157.546L205.225 157.088C205.378 156.935 205.838 157.088 205.838 157.546Z" fill="#80898A"/>
<path d="M204.153 157.546V158.31C204.153 158.769 203.846 159.227 203.386 159.533L199.401 161.825V161.061C199.401 160.603 199.708 160.144 200.168 159.839L204.153 157.546Z" fill="#EAC72F"/>
<path d="M76.1741 74.5516C77.247 96.4082 158.019 139.51 152.195 118.418C150.509 112.151 190.665 91.3643 190.665 91.3643C190.665 91.3643 147.137 76.2328 114.644 47.3455C114.644 47.3455 75.5611 62.7826 76.1741 74.5516Z" fill="url(#paint98_linear)"/>
<path d="M173.959 84.3336C159.705 77.9142 138.554 68.4379 120.009 53.1536C106.368 59.8787 80.0058 74.0931 80.4656 82.8052C80.4656 83.8751 80.7722 85.0978 81.0787 86.3206C90.1215 97.9366 110.2 111.234 126.753 118.876C134.263 120.252 139.167 118.57 137.328 111.845C135.642 106.496 167.215 90.1416 173.959 84.3336Z" fill="url(#paint99_linear)"/>
<path d="M173.959 84.3339C159.705 77.9145 138.554 67.0626 120.009 51.9312C106.368 58.6563 80.0058 72.8707 80.4656 81.5828C80.4656 82.6527 80.7722 83.8754 81.0787 85.0982C90.1215 96.7142 110.2 110.012 126.753 117.654C134.263 119.029 139.167 117.348 137.328 110.623C135.642 105.121 166.296 88.4607 173.959 84.3339Z" fill="url(#paint100_linear)"/>
<path d="M148.363 155.864C133.036 160.144 87.8225 181.389 87.8225 181.389L29.2741 146.541C29.2741 146.541 50.7316 130.798 73.1088 111.998C89.8149 97.9366 145.758 152.502 148.976 155.711C148.67 155.711 148.517 155.864 148.363 155.864Z" fill="url(#paint101_linear)"/>
<path d="M132.73 147.917L76.1741 182.459L34.0255 150.668L87.6692 107.413L132.73 147.917Z" fill="url(#paint102_linear)"/>
<path d="M138.554 144.096L76.1741 180.32L34.0255 148.528L87.6692 105.273L138.554 144.096Z" fill="url(#paint103_linear)"/>
<path d="M133.19 132.174L70.5032 174.359L33.8722 157.699L95.6391 110.929L133.19 132.174Z" fill="url(#paint104_linear)"/>
<path d="M50.2408 161.683L59.8427 154.272C51.7895 148.869 41.4133 146.399 35.3734 145.472C32.276 145.009 29.1786 146.09 27.1653 148.56L23.6033 152.728L50.2408 161.683Z" fill="url(#paint105_linear)"/>
<path d="M90.5813 185.975V217.155L82.6114 221.74L81.232 186.739V185.363L50.1186 161.52L59.6212 154.183C66.365 157.087 78.933 168.398 85.83 174.817C88.129 176.957 89.6617 179.555 90.2748 182.459C90.4281 183.529 90.5813 184.752 90.5813 185.975Z" fill="url(#paint106_linear)"/>
<path d="M90.5813 185.975V217.155L82.6113 221.74L81.2319 186.739L90.1215 182.459C90.428 183.529 90.5813 184.752 90.5813 185.975Z" fill="url(#paint107_linear)"/>
<path d="M27.8948 151.28L35.2516 152.655C46.4402 156.476 56.8624 162.131 66.2117 169.468L79.6993 182.001C81.6918 183.835 82.7647 186.434 82.7647 189.032V240.387L22.3771 205.692V155.865C22.2239 152.961 24.9827 150.668 27.8948 151.28Z" fill="url(#paint108_linear)"/>
<path d="M3.37189 182.307L99.4709 237.636L105.448 236.719L108.36 238.4L101.463 242.68L0 184.294L3.37189 182.307Z" fill="url(#paint109_linear)"/>
<path d="M108.36 238.4L106.215 261.021L104.375 262.09C103.303 262.702 102.076 263.007 101.004 263.007C100.084 263.007 99.011 262.702 98.2447 262.243L2.29902 206.914C0.919607 206.15 0 204.621 0 203.093V184.293L98.2447 240.845C99.1643 241.304 100.084 241.609 101.004 241.609C102.23 241.762 103.303 241.304 104.375 240.692L108.36 238.4Z" fill="url(#paint110_linear)"/>
<path d="M108.36 238.4L106.215 261.021L104.375 262.091C103.303 262.702 102.076 263.008 101.004 263.008V241.762C102.23 241.915 103.303 241.457 104.375 240.845L108.36 238.4Z" fill="url(#paint111_linear)"/>
<path d="M106.215 257.506L104.375 258.575C102.536 259.798 100.084 259.798 98.0914 258.728L0 202.176V203.093C0 204.622 0.919607 206.15 2.14575 206.914L98.2447 262.244C100.237 263.314 102.536 263.314 104.529 262.091L106.368 261.021L106.674 257.353L106.215 257.506Z" fill="url(#paint112_linear)"/>
<path d="M16.7062 215.167L7.35684 209.818V206.455L16.7062 211.805V215.167Z" fill="#73AEE7"/>
<path d="M136.102 185.058V187.656C136.102 190.56 139.78 193.006 144.225 193.006C148.67 193.006 152.348 190.713 152.348 187.656V184.752L136.102 185.058Z" fill="url(#paint113_linear)"/>
<path d="M135.182 180.932V183.836C135.182 187.045 139.167 189.644 144.225 189.644C149.283 189.644 153.268 187.045 153.268 183.836V180.626L135.182 180.932Z" fill="url(#paint114_linear)"/>
<path d="M153.268 180.931C153.268 184.141 149.283 186.739 144.225 186.739C139.167 186.739 135.182 184.141 135.182 180.931C135.182 177.721 139.167 175.123 144.225 175.123C149.13 175.123 153.268 177.721 153.268 180.931Z" fill="url(#paint115_linear)"/>
<path d="M136.102 172.524V179.861C136.102 182.765 139.78 185.21 144.225 185.21C148.67 185.21 152.348 182.918 152.348 179.861V172.372L136.102 172.524Z" fill="url(#paint116_linear)"/>
<path d="M135.182 167.328V170.232C135.182 173.442 139.167 176.04 144.225 176.04C149.283 176.04 153.268 173.442 153.268 170.232V167.022L135.182 167.328Z" fill="url(#paint117_linear)"/>
<path d="M153.268 167.328C153.268 170.538 149.283 173.136 144.225 173.136C139.167 173.136 135.182 170.538 135.182 167.328C135.182 164.118 139.167 161.52 144.225 161.52C149.13 161.52 153.268 164.118 153.268 167.328Z" fill="url(#paint118_linear)"/>
<path d="M136.102 164.119V166.717C136.102 169.621 139.78 172.067 144.225 172.067C148.67 172.067 152.348 169.774 152.348 166.717V163.813L136.102 164.119Z" fill="url(#paint119_linear)"/>
<path d="M144.225 169.468C148.711 169.468 152.348 167.073 152.348 164.118C152.348 161.164 148.711 158.769 144.225 158.769C139.739 158.769 136.102 161.164 136.102 164.118C136.102 167.073 139.739 169.468 144.225 169.468Z" fill="url(#paint120_linear)"/>
<path d="M161.085 218.531C160.165 213.64 158.939 209.513 157.1 206.456C154.494 201.871 150.662 199.425 146.064 199.425C145.604 199.425 145.145 199.425 144.685 199.578C143.919 198.203 135.642 200.037 134.569 200.801C134.109 201.107 126.446 204.928 116.33 216.697C111.579 222.199 106.368 229.383 101.004 238.706L81.6918 228.007C82.9179 221.282 89.3552 213.181 97.7849 205.998C108.82 196.674 123.227 189.032 133.65 189.032H133.803C135.949 189.032 138.248 189.491 140.393 190.56C142.999 191.783 155.107 197.133 157.253 200.648C157.866 201.565 158.172 202.788 158.632 204.163C159.705 208.29 160.318 214.098 161.085 218.531Z" fill="url(#paint121_linear)"/>
<path d="M158.786 204.163C158.172 204.928 157.713 205.692 157.1 206.456C154.494 201.871 150.662 199.425 146.064 199.425C145.605 199.425 145.145 199.425 144.685 199.578C143.919 198.203 135.642 200.037 134.569 200.801C134.109 201.107 126.446 204.928 116.33 216.697L97.9382 205.998C108.974 196.674 123.381 189.032 133.803 189.032H133.956C136.102 189.032 138.401 189.491 140.547 190.56C143.152 191.783 155.26 197.133 157.406 200.648C158.019 201.565 158.479 202.788 158.786 204.163Z" fill="url(#paint122_linear)"/>
<path d="M164.916 217.918L161.085 218.529C158.786 205.996 153.728 199.576 146.064 199.424C145.605 199.424 145.145 199.424 144.685 199.576C129.052 200.952 108.054 223.114 105.448 236.717L101.004 238.704C103.762 224.337 124.454 199.576 141.926 196.061C143.305 195.755 144.685 195.603 145.911 195.603H146.064C149.589 195.603 153.881 196.672 157.406 200.494C160.625 204.009 163.384 209.358 164.916 217.918Z" fill="url(#paint123_linear)"/>
<path d="M154.341 122.545L149.13 155.712L106.061 135.078L101.617 132.938L100.85 132.633L73.1088 111.999L79.0862 77.3032L108.36 98.0899L112.652 100.688L154.341 122.545Z" fill="url(#paint124_linear)"/>
<path d="M152.195 123.309L147.29 152.043L106.061 132.174L101.617 130.187L101.463 130.034L75.8676 110.928L80.7722 82.1938L84.4506 84.3337L100.697 93.6571L108.36 98.0896L112.652 100.688L152.195 123.309Z" fill="url(#paint125_linear)"/>
<path d="M111.204 127.156L106.061 124.84L77.3042 103.034L76.4807 107.719L75.8676 110.929L101.463 130.034L101.617 130.187L106.061 132.174L147.29 152.044L148.67 144.249L111.204 127.156Z" fill="url(#paint126_linear)"/>
<path d="M100.697 93.6569C100.237 93.9626 99.9307 94.2683 99.4709 94.574L83.6843 103.745C82.1516 104.662 80.1591 103.286 80.6189 101.452L83.9908 86.3205C84.1441 85.5562 84.2974 84.9449 84.6039 84.3335L100.697 93.6569Z" fill="url(#paint127_linear)"/>
<path d="M130.891 193.159L127.059 195.451L123.84 193.617L127.825 191.477L130.891 193.159Z" fill="#CF9219"/>
<path d="M131.044 193.158V195.451L127.059 197.743V195.451L130.891 193.158H131.044Z" fill="#EAC72F"/>
<path d="M127.059 195.452V197.744L123.84 195.91V193.617L127.059 195.452Z" fill="#B06A00"/>
<path d="M100.544 227.243V230.605C100.544 231.217 100.237 231.675 99.7774 231.981C99.3176 232.134 97.0186 233.968 96.5588 233.662L88.8954 224.492C87.6692 223.728 86.9029 222.505 86.9029 220.976L82.9179 219.295C82.9179 218.837 85.3702 217.767 85.6768 217.461C85.6768 217.461 85.83 217.461 85.83 217.308C86.2898 217.002 86.7496 217.002 87.3627 217.308L98.5513 223.728C99.7774 224.492 100.544 225.867 100.544 227.243Z" fill="url(#paint128_linear)"/>
<path d="M97.7849 228.924V232.287C97.7849 233.509 96.5588 234.121 95.4859 233.662L84.2974 227.243C83.0712 226.479 82.3049 225.256 82.3049 223.728V220.365C82.3049 219.142 83.531 218.531 84.6039 218.989L95.7924 225.409C96.8653 226.173 97.7849 227.396 97.7849 228.924Z" fill="url(#paint129_linear)"/>
<path d="M89.0487 226.173C89.0487 226.631 88.8954 226.937 88.7422 227.243C88.2824 228.007 87.2095 228.16 85.9833 227.548C84.2974 226.631 83.0713 224.492 83.0713 222.963C83.0713 221.74 83.6843 221.129 84.7572 221.282C85.217 221.282 85.5235 221.435 85.9833 221.74C87.8226 222.352 89.0487 224.492 89.0487 226.173Z" fill="#CF9219"/>
<path d="M95.6392 229.994C95.6392 230.453 95.4859 230.758 95.3326 231.064C94.8728 231.828 93.8 231.981 92.5738 231.37C90.8879 230.453 89.6617 228.313 89.6617 226.784C89.6617 225.562 90.2748 224.95 91.3477 225.103C91.8075 225.103 92.114 225.256 92.5738 225.562C94.413 226.326 95.6392 228.466 95.6392 229.994Z" fill="#CF9219"/>
<path d="M89.0487 226.173C89.0487 226.632 88.8954 226.938 88.7421 227.243C88.2823 227.243 87.9758 227.091 87.516 226.785C85.83 225.868 84.6039 223.728 84.6039 222.2C84.6039 221.741 84.7572 221.435 84.9104 221.13C85.3702 221.13 85.6768 221.282 86.1366 221.588C87.8225 222.352 89.0487 224.492 89.0487 226.173Z" fill="#EDBD51"/>
<path d="M95.6392 229.994C95.6392 230.453 95.4859 230.758 95.3326 231.064C94.8728 231.064 94.5663 230.911 94.1065 230.605C92.4206 229.688 91.1944 227.549 91.1944 226.02C91.1944 225.562 91.3477 225.256 91.501 224.95C91.9608 224.95 92.2673 225.103 92.7271 225.409C94.413 226.326 95.6392 228.466 95.6392 229.994Z" fill="#EDBD51"/>
<path d="M112.652 100.688L106.061 132.174L105.448 134.772L100.85 132.633L101.617 130.187L108.36 98.0901L112.652 100.688Z" fill="url(#paint130_linear)"/>
<path d="M182.235 91.8228V166.716C182.235 168.55 184.534 170.231 187.6 170.231C190.512 170.231 192.964 168.703 192.964 166.716V91.6699L182.235 91.8228Z" fill="url(#paint131_linear)"/>
<path d="M192.964 91.8225C192.964 93.6567 190.665 95.3379 187.6 95.3379C184.688 95.3379 182.235 93.8095 182.235 91.8225C182.235 89.8356 184.534 88.3071 187.6 88.3071C190.512 88.46 192.964 89.9884 192.964 91.8225Z" fill="url(#paint132_linear)"/>
<path d="M196.336 62.9352C196.643 66.7562 193.731 68.7432 193.731 68.7432L192.351 69.9659C191.125 70.883 190.359 72.4114 190.359 73.9399V91.0583C190.052 91.8225 188.979 92.4339 187.6 92.4339C186.374 92.4339 185.301 91.8225 184.841 91.0583V72.5643C184.841 69.8131 186.067 67.2148 188.213 65.5335L194.037 60.3368C194.037 60.184 196.03 59.7255 196.336 62.9352Z" fill="url(#paint133_linear)"/>
<path d="M186.067 91.9765V73.4824C186.067 70.7313 187.293 68.1329 189.439 66.4516L195.263 61.255C195.263 61.255 195.57 61.255 195.876 61.255C195.263 60.0322 194.037 60.3379 194.037 60.3379L188.213 65.5346C186.067 67.2159 184.841 69.8142 184.841 72.5654V91.2123C185.148 91.5179 185.607 91.9765 186.067 91.9765C186.067 92.1293 186.067 91.9765 186.067 91.9765Z" fill="url(#paint134_linear)"/>
<path d="M195.417 66.7571L192.351 69.5083C190.206 71.1895 188.979 73.7879 188.979 76.5391V92.1291C189.746 91.8234 190.205 91.5177 190.359 90.9063V73.9407C190.359 72.4123 191.125 70.8838 192.351 69.9668L193.731 68.744C193.731 68.744 194.65 67.9798 195.417 66.7571Z" fill="url(#paint135_linear)"/>
<path d="M76.1741 74.552C76.1741 74.552 77.247 77.6089 78.3199 78.8316C92.114 95.6444 154.341 122.545 154.341 122.545L152.195 118.265C152.195 118.265 92.7271 91.2119 76.1741 74.552Z" fill="url(#paint136_linear)"/>
<path d="M102.383 70.1204L100.39 71.496C99.7774 71.8017 99.7774 72.4131 99.1643 72.1074L98.2447 71.3432C97.6316 71.0375 96.8653 69.6619 97.4783 69.2034L99.4708 67.8278C100.084 67.5221 102.23 66.4522 102.843 66.9107L103.149 67.0636C103.916 67.5221 102.996 69.8147 102.383 70.1204Z" fill="#AE9421"/>
<path d="M105.295 70.4246L102.076 72.5644C101.463 73.023 100.697 73.023 99.9306 72.5644L99.1643 72.1059C98.3979 71.6474 99.3176 68.7434 100.084 68.4377L102.383 68.2848C102.996 67.8263 103.916 66.9092 104.682 67.2149L105.295 67.6735C105.908 67.9791 106.061 69.9661 105.295 70.4246Z" fill="#C9B663"/>
<path d="M104.529 68.5907L102.536 69.9663C101.923 70.272 101.31 70.272 100.697 69.9663L100.39 69.8135C99.7774 69.5078 99.7774 68.5907 100.39 68.1322L102.383 66.7566C102.996 66.4509 103.609 66.4509 104.222 66.7566L104.529 66.9094C105.142 67.368 105.142 68.285 104.529 68.5907Z" fill="#EAC72F"/>
<path d="M121.235 80.9712L119.242 82.3468C118.629 82.6525 118.629 83.2639 118.016 82.9582L117.097 82.194C116.484 81.8883 115.717 80.5127 116.33 80.0542L118.323 78.6786C118.936 78.3729 121.082 77.303 121.695 77.7615L122.001 77.9144C122.614 78.3729 121.848 80.6656 121.235 80.9712Z" fill="#AE9421"/>
<path d="M124.147 81.2764L120.928 83.4162C120.315 83.8748 119.549 83.8748 118.783 83.4162L118.016 82.9577C117.25 82.4992 118.17 79.5952 118.936 79.2895L121.235 79.1366C121.848 78.6781 122.768 77.761 123.534 78.0667L124.147 78.5253C124.76 78.8309 124.76 80.8179 124.147 81.2764Z" fill="#C9B663"/>
<path d="M123.227 79.4425L121.235 80.8181C120.622 81.1238 120.009 81.1238 119.396 80.8181L119.089 80.6653C118.476 80.3596 118.476 79.4425 119.089 78.984L121.082 77.6084C121.695 77.3027 122.308 77.3027 122.921 77.6084L123.227 77.7613C123.84 78.2198 123.84 79.1369 123.227 79.4425Z" fill="#EAC72F"/>
<path d="M139.934 91.8233L137.941 93.1989C137.328 93.5046 137.328 94.116 136.715 93.8103L135.795 93.0461C135.182 92.7404 134.416 91.3648 135.029 90.9062L137.021 89.5307C137.635 89.225 139.78 88.1551 140.393 88.6136L140.7 88.7664C141.466 89.225 140.547 91.5176 139.934 91.8233Z" fill="#AE9421"/>
<path d="M142.846 92.1285L139.627 94.2683C139.014 94.7268 138.248 94.7268 137.481 94.2683L136.715 93.8098C135.949 93.3512 136.868 90.4472 137.635 90.1415L139.934 89.9887C140.547 89.5302 141.466 88.6131 142.233 88.9188L142.846 89.3773C143.459 89.683 143.612 91.67 142.846 92.1285Z" fill="#C9B663"/>
<path d="M142.079 90.2946L140.087 91.6702C139.474 91.9759 138.861 91.9759 138.248 91.6702L137.941 91.5173C137.328 91.2117 137.328 90.2946 137.941 89.8361L139.934 88.4605C140.547 88.1548 141.16 88.1548 141.773 88.4605L142.079 88.6133C142.692 89.0718 142.692 89.9889 142.079 90.2946Z" fill="#EAC72F"/>
<path d="M55.7895 167.48C55.7895 167.938 55.6363 168.244 55.483 168.397C54.7166 169.161 53.184 169.008 51.1915 168.091C48.5859 166.868 46.5934 164.423 46.5934 162.895C46.5934 161.672 47.6663 161.213 49.199 161.519C49.8121 161.672 50.4251 161.825 51.1915 162.283C53.6438 163.659 55.7895 165.951 55.7895 167.48Z" fill="url(#paint137_linear)"/>
<path d="M29.4274 194.382L73.8751 219.906C75.2545 220.671 77.0937 219.754 77.0937 218.072V190.561C77.0937 188.726 76.1741 187.045 74.4882 186.128L30.0405 160.603C28.6611 159.839 26.8219 160.756 26.8219 162.437V189.949C26.8219 191.783 27.8947 193.465 29.4274 194.382Z" fill="#6BB5FF"/>
<path d="M74.948 219.447L30.5003 193.922C28.8144 193.005 27.8947 191.324 27.8947 189.489V161.978C27.8947 161.366 28.2013 160.755 28.6611 160.449C27.7415 160.602 26.8219 161.366 26.8219 162.589V190.101C26.8219 191.935 27.7415 193.616 29.4274 194.533L73.8751 220.058C74.6415 220.517 75.7143 220.364 76.3274 219.752C75.8676 219.752 75.4078 219.752 74.948 219.447Z" fill="#6BB5FF"/>
<path d="M77.0937 214.251V216.544C66.8248 211.653 41.6888 198.661 26.9751 189.032V186.739C41.5356 196.368 66.8248 209.36 77.0937 214.251Z" fill="#6BB5FF"/>
<path d="M77.0937 209.971V212.264C66.8248 207.373 41.6888 194.228 26.9751 184.752V182.459C41.5356 192.088 66.8248 205.08 77.0937 209.971Z" fill="#6BB5FF"/>
<path d="M77.0937 205.692V207.985C66.8248 203.094 41.6888 190.102 26.9751 180.473V178.18C41.5356 187.656 66.8248 200.801 77.0937 205.692Z" fill="#6BB5FF"/>
<path d="M77.0937 201.259V203.552C66.8248 198.661 41.6888 185.669 26.9751 176.04V173.9C41.5356 183.376 66.8248 196.368 77.0937 201.259Z" fill="#6BB5FF"/>
<path d="M77.0937 215.473V217.766C65.7519 212.264 40.7692 199.119 26.9751 190.101V187.809C40.7692 196.826 65.7519 209.971 77.0937 215.473Z" fill="url(#paint138_linear)"/>
<path d="M77.0937 211.194V213.487C66.8248 208.596 41.6888 195.451 26.9751 185.975V183.682C41.5356 193.159 66.8248 206.303 77.0937 211.194Z" fill="url(#paint139_linear)"/>
<path d="M77.0937 206.914V209.207C65.7519 203.704 40.7692 190.56 26.9751 181.542V179.25C40.7692 188.114 65.7519 201.412 77.0937 206.914Z" fill="url(#paint140_linear)"/>
<path d="M77.0937 202.329V204.622C66.8248 199.731 41.6888 186.739 26.9751 177.11V174.817C41.5356 184.447 66.8248 197.438 77.0937 202.329Z" fill="url(#paint141_linear)"/>
<path d="M77.0937 196.674V198.967C66.8248 194.076 41.6888 181.084 26.9751 171.455V169.162C41.5356 178.791 66.8248 191.783 77.0937 196.674Z" fill="#6BB5FF"/>
<path d="M77.0937 192.394V194.687C66.8248 189.796 41.6888 176.651 26.9751 167.175V164.882C41.5356 174.511 66.8248 187.503 77.0937 192.394Z" fill="#6BB5FF"/>
<path d="M76.9405 190.255C66.6715 185.364 41.6888 172.372 26.9751 162.896C27.1284 162.59 27.2817 162.285 27.5882 161.979C27.8947 161.673 28.2013 161.521 28.5078 161.521C29.2741 161.979 35.7114 165.953 38.93 168.093C39.0833 168.093 39.0833 168.246 39.2366 168.246C44.2944 171.15 49.5055 174.054 54.4101 176.499C54.5633 176.499 54.7166 176.652 54.8699 176.652C61.4604 179.862 74.948 187.504 74.948 187.504C75.4078 187.81 75.8676 188.268 76.1741 188.727C76.4806 189.338 76.7872 189.797 76.9405 190.255Z" fill="#4888C8"/>
<path d="M77.0937 197.897V200.189C65.7519 194.687 40.7692 181.542 26.9751 172.525V170.232C40.7692 179.25 65.7519 192.394 77.0937 197.897Z" fill="url(#paint142_linear)"/>
<path d="M77.0937 193.617V195.909C66.8248 191.018 41.6888 177.874 26.9751 168.397V166.105C41.5356 175.581 66.8248 188.726 77.0937 193.617Z" fill="url(#paint143_linear)"/>
<path d="M77.0937 191.477C65.7519 186.127 40.7692 172.983 26.9751 163.965V163.506C26.9751 163.354 26.9751 163.201 27.1284 162.895C27.2817 162.589 27.4349 162.284 27.7415 161.978C31.4199 164.271 35.2516 166.869 39.2366 169.162C39.3898 169.162 39.3898 169.315 39.5431 169.315C44.6009 172.219 49.812 175.123 54.7166 177.568C54.8699 177.568 55.0231 177.721 55.1764 177.721C59.9277 180.166 72.6489 186.739 76.6339 188.726C76.9404 189.184 77.247 189.643 77.4002 190.101C76.9404 190.713 77.0937 191.018 77.0937 191.477Z" fill="url(#paint144_linear)"/>
<path d="M35.5581 226.019L26.2088 220.67V217.154L35.5581 222.657V226.019Z" fill="#73AEE7"/>
<path d="M54.4101 236.718L44.9075 231.368V228.006L54.4101 233.355V236.718Z" fill="#73AEE7"/>
<path d="M73.1087 247.57L63.7594 242.221V238.706L73.1087 244.208V247.57Z" fill="#73AEE7"/>
<path d="M91.9607 258.269L82.6114 252.92V249.557L91.9607 254.907V258.269Z" fill="#73AEE7"/>
<path d="M34.332 223.726C32.9526 222.962 31.8797 221.128 31.8797 219.599V211.957C31.8797 210.429 32.9526 209.97 34.332 210.734L52.7241 221.433C54.1035 222.198 55.1764 224.032 55.1764 225.56V233.202C55.1764 234.731 54.1035 235.189 52.7241 234.425L34.332 223.726Z" fill="url(#paint145_linear)"/>
<path d="M35.0983 222.504C33.7189 221.74 32.646 219.906 32.646 218.377V210.735C32.646 209.207 33.7189 208.748 35.0983 209.512L53.4905 220.211C54.8699 220.975 55.9427 222.81 55.9427 224.338V231.98C55.9427 233.509 54.8699 233.967 53.4905 233.203L35.0983 222.504Z" fill="url(#paint146_linear)"/>
<path d="M34.332 222.657C32.9526 221.892 31.8797 220.058 31.8797 218.53V210.888C31.8797 209.359 32.9526 208.901 34.332 209.665L52.7241 220.364C54.1035 221.128 55.1764 222.962 55.1764 224.491V232.133C55.1764 233.661 54.1035 234.12 52.7241 233.356L34.332 222.657Z" fill="url(#paint147_linear)"/>
<path d="M52.7241 232.897L34.332 222.198C33.2591 221.587 32.3395 220.058 32.3395 218.835V211.193C32.3395 209.971 33.2591 209.512 34.332 210.123L52.7241 220.822C53.797 221.434 54.7166 222.962 54.7166 224.185V231.827C54.7166 233.203 53.797 233.661 52.7241 232.897Z" fill="url(#paint148_linear)"/>
<path d="M54.7166 224.186C54.7166 222.963 53.797 221.435 52.7241 220.823L34.332 210.124C33.2591 209.513 32.3395 209.971 32.3395 211.041L54.7166 224.186Z" fill="url(#paint149_linear)"/>
<path d="M32.3395 218.836C32.3395 220.058 33.2591 221.587 34.332 222.198L52.7241 232.897C53.797 233.509 54.7166 233.05 54.7166 231.98L32.3395 218.836Z" fill="url(#paint150_linear)"/>
<path d="M206.145 129.423C204.459 129.423 203.233 128.047 203.233 126.519V95.95C203.233 94.4216 204 93.046 205.379 92.2818L211.356 88.7664C211.816 88.4607 212.276 88.3079 212.736 88.3079C214.422 88.3079 215.648 89.6835 215.648 91.2119V121.781C215.648 123.309 214.882 124.685 213.502 125.449L207.525 128.964C207.218 129.423 206.605 129.423 206.145 129.423Z" fill="url(#paint151_linear)"/>
<path d="M213.349 124.685L207.371 128.2C206.145 128.964 204.459 128.047 204.459 126.519V95.9502C204.459 94.7275 205.072 93.6576 206.145 93.199L212.123 89.6836C213.349 88.9194 215.035 89.8365 215.035 91.3649V121.934C215.035 123.156 214.268 124.226 213.349 124.685Z" fill="url(#paint152_linear)"/>
<path d="M103.149 180.778L101.31 181.542C100.85 181.695 100.544 182.153 100.544 182.765V183.529C100.544 184.14 101.157 184.599 101.77 184.446L103.609 183.682C104.069 183.529 104.375 183.07 104.375 182.459V181.848C104.375 181.084 103.762 180.625 103.149 180.778Z" fill="#ED8333"/>
<path d="M103.609 181.237L101.77 182.002C101.31 182.154 101.004 182.613 101.004 183.224V183.989C101.004 184.6 101.617 185.058 102.23 184.906L104.069 184.141C104.529 183.989 104.835 183.53 104.835 182.919V182.154C104.835 181.543 104.222 181.085 103.609 181.237Z" fill="#EDBD51"/>
<defs>
<linearGradient id="paint0_linear" x1="262.305" y1="-0.990336" x2="208.422" y2="52.0047" gradientUnits="userSpaceOnUse">
<stop offset="0.0353535" stop-color="#1968B3"/>
<stop offset="1" stop-color="#4C97DD"/>
</linearGradient>
<linearGradient id="paint1_linear" x1="247.556" y1="25.7124" x2="270.292" y2="76.4751" gradientUnits="userSpaceOnUse">
<stop offset="0.0353535" stop-color="#1968B3"/>
<stop offset="1" stop-color="#4C97DD"/>
</linearGradient>
<linearGradient id="paint2_linear" x1="276.559" y1="7.10951" x2="222.675" y2="60.1047" gradientUnits="userSpaceOnUse">
<stop offset="0.0353535" stop-color="#1968B3"/>
<stop offset="1" stop-color="#4C97DD"/>
</linearGradient>
<linearGradient id="paint3_linear" x1="261.956" y1="33.8015" x2="284.692" y2="84.5642" gradientUnits="userSpaceOnUse">
<stop offset="0.0353535" stop-color="#1968B3"/>
<stop offset="1" stop-color="#4C97DD"/>
</linearGradient>
<linearGradient id="paint4_linear" x1="284.936" y1="62.225" x2="269.925" y2="43.7684" gradientUnits="userSpaceOnUse">
<stop offset="0.1261" stop-color="#DBE0E3"/>
<stop offset="0.1272" stop-color="#E0E5E8"/>
<stop offset="0.4378" stop-color="#E0E5E8"/>
<stop offset="0.4407" stop-color="#C0C4C6"/>
<stop offset="0.8367" stop-color="#C0C4C6"/>
<stop offset="0.8387" stop-color="#A8ABAD"/>
</linearGradient>
<linearGradient id="paint5_linear" x1="287.057" y1="38.6173" x2="269.464" y2="69.1729" gradientUnits="userSpaceOnUse">
<stop offset="0.1613" stop-color="#797B7D"/>
<stop offset="0.1633" stop-color="#919496"/>
<stop offset="0.5593" stop-color="#919496"/>
<stop offset="0.5622" stop-color="#B1B5B8"/>
<stop offset="0.8728" stop-color="#B1B5B8"/>
<stop offset="0.8739" stop-color="#ACB0B3"/>
</linearGradient>
<linearGradient id="paint6_linear" x1="281.117" y1="40.4562" x2="268.811" y2="61.83" gradientUnits="userSpaceOnUse">
<stop offset="0.1613" stop-color="#797B7D"/>
<stop offset="0.1633" stop-color="#919496"/>
<stop offset="0.5593" stop-color="#919496"/>
<stop offset="0.5622" stop-color="#B1B5B8"/>
<stop offset="0.8728" stop-color="#B1B5B8"/>
<stop offset="0.8739" stop-color="#ACB0B3"/>
</linearGradient>
<linearGradient id="paint7_linear" x1="279.987" y1="47.9309" x2="274.369" y2="57.6897" gradientUnits="userSpaceOnUse">
<stop offset="0.1613" stop-color="#797B7D"/>
<stop offset="0.1633" stop-color="#919496"/>
<stop offset="0.5593" stop-color="#919496"/>
<stop offset="0.5622" stop-color="#B1B5B8"/>
<stop offset="0.8728" stop-color="#B1B5B8"/>
<stop offset="0.8739" stop-color="#ACB0B3"/>
</linearGradient>
<linearGradient id="paint8_linear" x1="217.908" y1="43.8313" x2="187.963" y2="95.8417" gradientUnits="userSpaceOnUse">
<stop offset="0.1261" stop-color="#68737B"/>
<stop offset="0.1272" stop-color="#6C7880"/>
<stop offset="0.4378" stop-color="#6C7880"/>
<stop offset="0.4407" stop-color="#50585E"/>
<stop offset="0.8367" stop-color="#50585E"/>
<stop offset="0.8387" stop-color="#3B4145"/>
</linearGradient>
<linearGradient id="paint9_linear" x1="224.908" y1="36.9144" x2="171.024" y2="89.9095" gradientUnits="userSpaceOnUse">
<stop offset="0.0353535" stop-color="#1968B3"/>
<stop offset="1" stop-color="#4C97DD"/>
</linearGradient>
<linearGradient id="paint10_linear" x1="210.192" y1="63.6489" x2="232.928" y2="114.412" gradientUnits="userSpaceOnUse">
<stop offset="0.0353535" stop-color="#1968B3"/>
<stop offset="1" stop-color="#4C97DD"/>
</linearGradient>
<linearGradient id="paint11_linear" x1="233.193" y1="92.0123" x2="218.182" y2="73.5556" gradientUnits="userSpaceOnUse">
<stop offset="0.1261" stop-color="#DBE0E3"/>
<stop offset="0.1272" stop-color="#E0E5E8"/>
<stop offset="0.4378" stop-color="#E0E5E8"/>
<stop offset="0.4407" stop-color="#C0C4C6"/>
<stop offset="0.8367" stop-color="#C0C4C6"/>
<stop offset="0.8387" stop-color="#A8ABAD"/>
</linearGradient>
<linearGradient id="paint12_linear" x1="235.314" y1="68.4043" x2="217.721" y2="98.9599" gradientUnits="userSpaceOnUse">
<stop offset="0.1613" stop-color="#797B7D"/>
<stop offset="0.1633" stop-color="#919496"/>
<stop offset="0.5593" stop-color="#919496"/>
<stop offset="0.5622" stop-color="#B1B5B8"/>
<stop offset="0.8728" stop-color="#B1B5B8"/>
<stop offset="0.8739" stop-color="#ACB0B3"/>
</linearGradient>
<linearGradient id="paint13_linear" x1="229.374" y1="70.2435" x2="217.068" y2="91.6173" gradientUnits="userSpaceOnUse">
<stop offset="0.1613" stop-color="#797B7D"/>
<stop offset="0.1633" stop-color="#919496"/>
<stop offset="0.5593" stop-color="#919496"/>
<stop offset="0.5622" stop-color="#B1B5B8"/>
<stop offset="0.8728" stop-color="#B1B5B8"/>
<stop offset="0.8739" stop-color="#ACB0B3"/>
</linearGradient>
<linearGradient id="paint14_linear" x1="228.245" y1="77.7182" x2="222.626" y2="87.4769" gradientUnits="userSpaceOnUse">
<stop offset="0.1613" stop-color="#797B7D"/>
<stop offset="0.1633" stop-color="#919496"/>
<stop offset="0.5593" stop-color="#919496"/>
<stop offset="0.5622" stop-color="#B1B5B8"/>
<stop offset="0.8728" stop-color="#B1B5B8"/>
<stop offset="0.8739" stop-color="#ACB0B3"/>
</linearGradient>
<linearGradient id="paint15_linear" x1="266.013" y1="60.0988" x2="282.177" y2="120.849" gradientUnits="userSpaceOnUse">
<stop offset="0.0353535" stop-color="#1968B3"/>
<stop offset="1" stop-color="#4C97DD"/>
</linearGradient>
<linearGradient id="paint16_linear" x1="333.429" y1="33.7185" x2="315.85" y2="60.0582" gradientUnits="userSpaceOnUse">
<stop offset="0.0353535" stop-color="#1968B3"/>
<stop offset="1" stop-color="#4C97DD"/>
</linearGradient>
<linearGradient id="paint17_linear" x1="343.134" y1="33.0097" x2="281.57" y2="93.9986" gradientUnits="userSpaceOnUse">
<stop offset="0.0353535" stop-color="#1968B3"/>
<stop offset="1" stop-color="#4C97DD"/>
</linearGradient>
<linearGradient id="paint18_linear" x1="259.736" y1="49.5375" x2="254.332" y2="76.3389" gradientUnits="userSpaceOnUse">
<stop offset="0.0353535" stop-color="#1968B3"/>
<stop offset="1" stop-color="#4C97DD"/>
</linearGradient>
<linearGradient id="paint19_linear" x1="234.627" y1="70.9736" x2="215.143" y2="167.591" gradientUnits="userSpaceOnUse">
<stop offset="0.0353535" stop-color="#1968B3"/>
<stop offset="1" stop-color="#4C97DD"/>
</linearGradient>
<linearGradient id="paint20_linear" x1="296.191" y1="43.9254" x2="259.504" y2="99.4793" gradientUnits="userSpaceOnUse">
<stop offset="0.0353535" stop-color="#1968B3"/>
<stop offset="1" stop-color="#4C97DD"/>
</linearGradient>
<linearGradient id="paint21_linear" x1="338.326" y1="43.029" x2="284.442" y2="96.024" gradientUnits="userSpaceOnUse">
<stop offset="0.0353535" stop-color="#1968B3"/>
<stop offset="1" stop-color="#4C97DD"/>
</linearGradient>
<linearGradient id="paint22_linear" x1="323.658" y1="69.8545" x2="346.394" y2="120.617" gradientUnits="userSpaceOnUse">
<stop offset="0.0353535" stop-color="#1968B3"/>
<stop offset="1" stop-color="#4C97DD"/>
</linearGradient>
<linearGradient id="paint23_linear" x1="352.734" y1="51.1295" x2="298.85" y2="104.125" gradientUnits="userSpaceOnUse">
<stop offset="0.0353535" stop-color="#1968B3"/>
<stop offset="1" stop-color="#4C97DD"/>
</linearGradient>
<linearGradient id="paint24_linear" x1="338.057" y1="77.9409" x2="360.793" y2="128.704" gradientUnits="userSpaceOnUse">
<stop offset="0.0353535" stop-color="#1968B3"/>
<stop offset="1" stop-color="#4C97DD"/>
</linearGradient>
<linearGradient id="paint25_linear" x1="356.492" y1="71.8095" x2="324.454" y2="100.67" gradientUnits="userSpaceOnUse">
<stop offset="0.0353535" stop-color="#1968B3"/>
<stop offset="1" stop-color="#4C97DD"/>
</linearGradient>
<linearGradient id="paint26_linear" x1="343.675" y1="84.6846" x2="358.866" y2="118.088" gradientUnits="userSpaceOnUse">
<stop offset="0.0353535" stop-color="#1968B3"/>
<stop offset="1" stop-color="#4C97DD"/>
</linearGradient>
<linearGradient id="paint27_linear" x1="419.662" y1="104.741" x2="407.301" y2="89.5684" gradientUnits="userSpaceOnUse">
<stop offset="0.0353535" stop-color="#1968B3"/>
<stop offset="1" stop-color="#4C97DD"/>
</linearGradient>
<linearGradient id="paint28_linear" x1="353.317" y1="77.744" x2="331.48" y2="96.8156" gradientUnits="userSpaceOnUse">
<stop offset="0.0353535" stop-color="#1968B3"/>
<stop offset="1" stop-color="#4C97DD"/>
</linearGradient>
<linearGradient id="paint29_linear" x1="346.504" y1="107.551" x2="333.243" y2="112.369" gradientUnits="userSpaceOnUse">
<stop offset="0.0353535" stop-color="#5FA4E6"/>
<stop offset="1" stop-color="#4C97DD"/>
</linearGradient>
<linearGradient id="paint30_linear" x1="354.6" y1="81.7866" x2="335.906" y2="98.5664" gradientUnits="userSpaceOnUse">
<stop offset="0.0353535" stop-color="#1968B3"/>
<stop offset="1" stop-color="#4C97DD"/>
</linearGradient>
<linearGradient id="paint31_linear" x1="354.002" y1="89.6075" x2="344.799" y2="97.8481" gradientUnits="userSpaceOnUse">
<stop offset="0.0353535" stop-color="#1968B3"/>
<stop offset="1" stop-color="#4C97DD"/>
</linearGradient>
<linearGradient id="paint32_linear" x1="352.399" y1="93.1195" x2="348.69" y2="96.345" gradientUnits="userSpaceOnUse">
<stop offset="0.0353535" stop-color="#1968B3"/>
<stop offset="1" stop-color="#4C97DD"/>
</linearGradient>
<linearGradient id="paint33_linear" x1="286.522" y1="72.8339" x2="232.638" y2="125.829" gradientUnits="userSpaceOnUse">
<stop offset="0.0353535" stop-color="#1968B3"/>
<stop offset="1" stop-color="#4C97DD"/>
</linearGradient>
<linearGradient id="paint34_linear" x1="271.988" y1="99.5813" x2="294.724" y2="150.344" gradientUnits="userSpaceOnUse">
<stop offset="0.0353535" stop-color="#1968B3"/>
<stop offset="1" stop-color="#4C97DD"/>
</linearGradient>
<linearGradient id="paint35_linear" x1="300.929" y1="80.9345" x2="247.045" y2="133.93" gradientUnits="userSpaceOnUse">
<stop offset="0.0353535" stop-color="#1968B3"/>
<stop offset="1" stop-color="#4C97DD"/>
</linearGradient>
<linearGradient id="paint36_linear" x1="286.294" y1="107.79" x2="309.03" y2="158.553" gradientUnits="userSpaceOnUse">
<stop offset="0.0353535" stop-color="#1968B3"/>
<stop offset="1" stop-color="#4C97DD"/>
</linearGradient>
<linearGradient id="paint37_linear" x1="304.84" y1="101.614" x2="272.803" y2="130.475" gradientUnits="userSpaceOnUse">
<stop offset="0.0353535" stop-color="#1968B3"/>
<stop offset="1" stop-color="#4C97DD"/>
</linearGradient>
<linearGradient id="paint38_linear" x1="305.76" y1="102.226" x2="273.722" y2="131.087" gradientUnits="userSpaceOnUse">
<stop offset="0.0353535" stop-color="#1968B3"/>
<stop offset="1" stop-color="#4C97DD"/>
</linearGradient>
<linearGradient id="paint39_linear" x1="367.858" y1="134.545" x2="355.496" y2="119.373" gradientUnits="userSpaceOnUse">
<stop offset="0.0353535" stop-color="#1968B3"/>
<stop offset="1" stop-color="#4C97DD"/>
</linearGradient>
<linearGradient id="paint40_linear" x1="301.512" y1="107.549" x2="279.676" y2="126.621" gradientUnits="userSpaceOnUse">
<stop offset="0.0353535" stop-color="#1968B3"/>
<stop offset="1" stop-color="#4C97DD"/>
</linearGradient>
<linearGradient id="paint41_linear" x1="294.699" y1="137.356" x2="281.439" y2="142.174" gradientUnits="userSpaceOnUse">
<stop offset="0.0353535" stop-color="#5FA4E6"/>
<stop offset="1" stop-color="#4C97DD"/>
</linearGradient>
<linearGradient id="paint42_linear" x1="302.949" y1="111.592" x2="284.255" y2="128.371" gradientUnits="userSpaceOnUse">
<stop offset="0.0353535" stop-color="#1968B3"/>
<stop offset="1" stop-color="#4C97DD"/>
</linearGradient>
<linearGradient id="paint43_linear" x1="302.351" y1="119.412" x2="293.148" y2="127.653" gradientUnits="userSpaceOnUse">
<stop offset="0.0353535" stop-color="#1968B3"/>
<stop offset="1" stop-color="#4C97DD"/>
</linearGradient>
<linearGradient id="paint44_linear" x1="300.748" y1="122.924" x2="297.038" y2="126.149" gradientUnits="userSpaceOnUse">
<stop offset="0.0353535" stop-color="#1968B3"/>
<stop offset="1" stop-color="#4C97DD"/>
</linearGradient>
<linearGradient id="paint45_linear" x1="249.298" y1="83.4826" x2="241.991" y2="95.1593" gradientUnits="userSpaceOnUse">
<stop offset="0.671316" stop-color="#1968B3"/>
<stop offset="1" stop-color="#4C97DD"/>
</linearGradient>
<linearGradient id="paint46_linear" x1="248.547" y1="69.5091" x2="215.878" y2="74.1252" gradientUnits="userSpaceOnUse">
<stop offset="0.0353535" stop-color="#1968B3"/>
<stop offset="1" stop-color="#4C97DD"/>
</linearGradient>
<linearGradient id="paint47_linear" x1="292.706" y1="54.1186" x2="277.402" y2="68.3438" gradientUnits="userSpaceOnUse">
<stop offset="0.0353535" stop-color="#1968B3"/>
<stop offset="1" stop-color="#4C97DD"/>
</linearGradient>
<linearGradient id="paint48_linear" x1="280.362" y1="45.7159" x2="270.524" y2="70.7283" gradientUnits="userSpaceOnUse">
<stop offset="0.0353535" stop-color="#1968B3"/>
<stop offset="1" stop-color="#4C97DD"/>
</linearGradient>
<linearGradient id="paint49_linear" x1="306.498" y1="36.1491" x2="276.471" y2="62.2962" gradientUnits="userSpaceOnUse">
<stop offset="0.0353535" stop-color="#1968B3"/>
<stop offset="1" stop-color="#4C97DD"/>
</linearGradient>
<linearGradient id="paint50_linear" x1="103.508" y1="80.6236" x2="114.118" y2="80.6236" gradientUnits="userSpaceOnUse">
<stop offset="0.1613" stop-color="#3783CB"/>
<stop offset="0.1633" stop-color="#3C88D0"/>
<stop offset="0.5" stop-color="#3C88D0"/>
<stop offset="0.5001" stop-color="#3179BD"/>
<stop offset="0.796875" stop-color="#2B77BF"/>
<stop offset="0.796975" stop-color="#2B77BF"/>
</linearGradient>
<linearGradient id="paint51_linear" x1="103.355" y1="45.6604" x2="113.966" y2="45.6604" gradientUnits="userSpaceOnUse">
<stop offset="0.1613" stop-color="#3783CB"/>
<stop offset="0.1633" stop-color="#3C88D0"/>
<stop offset="0.5" stop-color="#3C88D0"/>
<stop offset="0.5001" stop-color="#3179BD"/>
<stop offset="0.796875" stop-color="#2B77BF"/>
<stop offset="0.796975" stop-color="#2B77BF"/>
</linearGradient>
<linearGradient id="paint52_linear" x1="106.118" y1="30.0424" x2="117.509" y2="30.0424" gradientUnits="userSpaceOnUse">
<stop offset="0.1613" stop-color="#3783CB"/>
<stop offset="0.1633" stop-color="#3C88D0"/>
<stop offset="0.5" stop-color="#3C88D0"/>
<stop offset="0.5001" stop-color="#3179BD"/>
<stop offset="0.796875" stop-color="#2B77BF"/>
<stop offset="0.796975" stop-color="#2B77BF"/>
</linearGradient>
<linearGradient id="paint53_linear" x1="106.115" y1="29.8857" x2="116.877" y2="29.8857" gradientUnits="userSpaceOnUse">
<stop offset="0.1613" stop-color="#3783CB"/>
<stop offset="0.1633" stop-color="#3C88D0"/>
<stop offset="0.5" stop-color="#3C88D0"/>
<stop offset="0.5001" stop-color="#3179BD"/>
<stop offset="0.796875" stop-color="#2B77BF"/>
<stop offset="0.796975" stop-color="#2B77BF"/>
</linearGradient>
<linearGradient id="paint54_linear" x1="110.231" y1="33.2697" x2="116.597" y2="33.2697" gradientUnits="userSpaceOnUse">
<stop offset="0.1613" stop-color="#3783CB"/>
<stop offset="0.1633" stop-color="#3C88D0"/>
<stop offset="0.5" stop-color="#3C88D0"/>
<stop offset="0.5001" stop-color="#3179BD"/>
<stop offset="0.796875" stop-color="#2B77BF"/>
<stop offset="0.796975" stop-color="#2B77BF"/>
</linearGradient>
<linearGradient id="paint55_linear" x1="52.7327" y1="137.577" x2="68.9837" y2="137.577" gradientUnits="userSpaceOnUse">
<stop offset="0.1613" stop-color="#A7AAAC"/>
<stop offset="0.1633" stop-color="#BEC2C5"/>
<stop offset="0.5593" stop-color="#BEC2C5"/>
<stop offset="0.5622" stop-color="#DEE3E7"/>
<stop offset="0.8728" stop-color="#DEE3E7"/>
<stop offset="0.8739" stop-color="#D9DEE2"/>
</linearGradient>
<linearGradient id="paint56_linear" x1="51.8203" y1="133.834" x2="69.8961" y2="133.834" gradientUnits="userSpaceOnUse">
<stop offset="0.1613" stop-color="#BCC0C2"/>
<stop offset="0.1633" stop-color="#D3D7DB"/>
<stop offset="0.5593" stop-color="#D3D7DB"/>
<stop offset="0.5622" stop-color="#F3F8FD"/>
<stop offset="0.8728" stop-color="#F3F8FD"/>
<stop offset="0.8739" stop-color="#EEF3F8"/>
</linearGradient>
<linearGradient id="paint57_linear" x1="52.804" y1="127.505" x2="68.8712" y2="127.505" gradientUnits="userSpaceOnUse">
<stop offset="0.1613" stop-color="#3783CB"/>
<stop offset="0.1633" stop-color="#3C88D0"/>
<stop offset="0.5" stop-color="#3C88D0"/>
<stop offset="0.5001" stop-color="#3179BD"/>
<stop offset="0.796875" stop-color="#2B77BF"/>
<stop offset="0.796975" stop-color="#2B77BF"/>
</linearGradient>
<linearGradient id="paint58_linear" x1="51.8934" y1="120.323" x2="69.7796" y2="120.323" gradientUnits="userSpaceOnUse">
<stop offset="0.1613" stop-color="#3783CB"/>
<stop offset="0.1633" stop-color="#3C88D0"/>
<stop offset="0.5" stop-color="#3C88D0"/>
<stop offset="0.5001" stop-color="#3179BD"/>
<stop offset="0.796875" stop-color="#2B77BF"/>
<stop offset="0.796975" stop-color="#2B77BF"/>
</linearGradient>
<linearGradient id="paint59_linear" x1="51.8934" y1="116.118" x2="69.7796" y2="116.118" gradientUnits="userSpaceOnUse">
<stop offset="0.1613" stop-color="#3783CB"/>
<stop offset="0.1633" stop-color="#3C88D0"/>
<stop offset="0.5" stop-color="#3C88D0"/>
<stop offset="0.5001" stop-color="#3179BD"/>
<stop offset="0.796875" stop-color="#2B77BF"/>
<stop offset="0.796975" stop-color="#2B77BF"/>
</linearGradient>
<linearGradient id="paint60_linear" x1="71.603" y1="82.7524" x2="53.0364" y2="121.309" gradientUnits="userSpaceOnUse">
<stop offset="0.0353535" stop-color="#1968B3"/>
<stop offset="1" stop-color="#4C97DD"/>
</linearGradient>
<linearGradient id="paint61_linear" x1="46.2096" y1="155.988" x2="16.1508" y2="184.001" gradientUnits="userSpaceOnUse">
<stop offset="0.0353535" stop-color="#1968B3"/>
<stop offset="1" stop-color="#4C97DD"/>
</linearGradient>
<linearGradient id="paint62_linear" x1="14.1339" y1="176.817" x2="5.13639" y2="183.821" gradientUnits="userSpaceOnUse">
<stop offset="0.0353535" stop-color="#1968B3"/>
<stop offset="1" stop-color="#4C97DD"/>
</linearGradient>
<linearGradient id="paint63_linear" x1="22.6742" y1="160.654" x2="-4.7034" y2="175.46" gradientUnits="userSpaceOnUse">
<stop offset="0.0353535" stop-color="#1968B3"/>
<stop offset="1" stop-color="#4C97DD"/>
</linearGradient>
<linearGradient id="paint64_linear" x1="179.138" y1="33.5296" x2="119.595" y2="78.317" gradientUnits="userSpaceOnUse">
<stop offset="0.0353535" stop-color="#1968B3"/>
<stop offset="1" stop-color="#4C97DD"/>
</linearGradient>
<linearGradient id="paint65_linear" x1="232.402" y1="-207.314" x2="38.2964" y2="-42.6648" gradientUnits="userSpaceOnUse">
<stop offset="0.0353535" stop-color="#1968B3"/>
<stop offset="1" stop-color="#4C97DD"/>
</linearGradient>
<linearGradient id="paint66_linear" x1="236.669" y1="-1.63836" x2="137.062" y2="41.8303" gradientUnits="userSpaceOnUse">
<stop offset="0.0353535" stop-color="#1968B3"/>
<stop offset="1" stop-color="#4C97DD"/>
</linearGradient>
<linearGradient id="paint67_linear" x1="150.822" y1="232.616" x2="93.8179" y2="298.051" gradientUnits="userSpaceOnUse">
<stop offset="0.0353535" stop-color="#1968B3"/>
<stop offset="1" stop-color="#4C97DD"/>
</linearGradient>
<linearGradient id="paint68_linear" x1="230.269" y1="172.317" x2="215.688" y2="146.991" gradientUnits="userSpaceOnUse">
<stop offset="0.1633" stop-color="#4490D9"/>
<stop offset="0.1634" stop-color="#3783CB"/>
<stop offset="0.5593" stop-color="#3F90DD"/>
<stop offset="0.5594" stop-color="#4D9DE9"/>
<stop offset="0.8727" stop-color="#397EC0"/>
<stop offset="0.8728" stop-color="#4D9DE9"/>
</linearGradient>
<linearGradient id="paint69_linear" x1="221.071" y1="136.579" x2="177.789" y2="160.229" gradientUnits="userSpaceOnUse">
<stop offset="0.0353535" stop-color="#1968B3"/>
<stop offset="1" stop-color="#4C97DD"/>
</linearGradient>
<linearGradient id="paint70_linear" x1="202.349" y1="157.014" x2="182.603" y2="173.579" gradientUnits="userSpaceOnUse">
<stop offset="0.0353535" stop-color="#1968B3"/>
<stop offset="1" stop-color="#4C97DD"/>
</linearGradient>
<linearGradient id="paint71_linear" x1="162.567" y1="212.75" x2="139.069" y2="232.763" gradientUnits="userSpaceOnUse">
<stop offset="0.0353535" stop-color="#1968B3"/>
<stop offset="1" stop-color="#4C97DD"/>
</linearGradient>
<linearGradient id="paint72_linear" x1="186.201" y1="170.255" x2="180.231" y2="171.673" gradientUnits="userSpaceOnUse">
<stop offset="0.0353535" stop-color="#1968B3"/>
<stop offset="1" stop-color="#4C97DD"/>
</linearGradient>
<linearGradient id="paint73_linear" x1="207.946" y1="173.285" x2="181.574" y2="201.067" gradientUnits="userSpaceOnUse">
<stop offset="0.0353535" stop-color="#1968B3"/>
<stop offset="1" stop-color="#4C97DD"/>
</linearGradient>
<linearGradient id="paint74_linear" x1="202.888" y1="155.402" x2="176.516" y2="183.184" gradientUnits="userSpaceOnUse">
<stop offset="0.0353535" stop-color="#1968B3"/>
<stop offset="1" stop-color="#4C97DD"/>
</linearGradient>
<linearGradient id="paint75_linear" x1="169.237" y1="216.053" x2="155.374" y2="234.288" gradientUnits="userSpaceOnUse">
<stop offset="0.0353535" stop-color="#1968B3"/>
<stop offset="1" stop-color="#4C97DD"/>
</linearGradient>
<linearGradient id="paint76_linear" x1="200.436" y1="165.795" x2="174.064" y2="193.577" gradientUnits="userSpaceOnUse">
<stop offset="0.0353535" stop-color="#1968B3"/>
<stop offset="1" stop-color="#4C97DD"/>
</linearGradient>
<linearGradient id="paint77_linear" x1="161.727" y1="208.563" x2="147.864" y2="226.798" gradientUnits="userSpaceOnUse">
<stop offset="0.0353535" stop-color="#1968B3"/>
<stop offset="1" stop-color="#4C97DD"/>
</linearGradient>
<linearGradient id="paint78_linear" x1="209.851" y1="101.122" x2="124.631" y2="120.013" gradientUnits="userSpaceOnUse">
<stop offset="0.0353535" stop-color="#1968B3"/>
<stop offset="1" stop-color="#4C97DD"/>
</linearGradient>
<linearGradient id="paint79_linear" x1="105.166" y1="197.81" x2="101.655" y2="228.8" gradientUnits="userSpaceOnUse">
<stop offset="0.0353535" stop-color="#1968B3"/>
<stop offset="1" stop-color="#4C97DD"/>
</linearGradient>
<linearGradient id="paint80_linear" x1="152.006" y1="216.619" x2="159.954" y2="210.665" gradientUnits="userSpaceOnUse">
<stop offset="0.0353535" stop-color="#1968B3"/>
<stop offset="1" stop-color="#4C97DD"/>
</linearGradient>
<linearGradient id="paint81_linear" x1="131.875" y1="181.351" x2="77.9906" y2="234.347" gradientUnits="userSpaceOnUse">
<stop offset="0.0353535" stop-color="#1968B3"/>
<stop offset="1" stop-color="#4C97DD"/>
</linearGradient>
<linearGradient id="paint82_linear" x1="117.241" y1="208.161" x2="139.977" y2="258.924" gradientUnits="userSpaceOnUse">
<stop offset="0.0353535" stop-color="#1968B3"/>
<stop offset="1" stop-color="#4C97DD"/>
</linearGradient>
<linearGradient id="paint83_linear" x1="135.786" y1="202.032" x2="103.748" y2="230.893" gradientUnits="userSpaceOnUse">
<stop offset="0.0353535" stop-color="#1968B3"/>
<stop offset="1" stop-color="#4C97DD"/>
</linearGradient>
<linearGradient id="paint84_linear" x1="122.859" y1="214.903" x2="138.05" y2="248.307" gradientUnits="userSpaceOnUse">
<stop offset="0.0353535" stop-color="#1968B3"/>
<stop offset="1" stop-color="#4C97DD"/>
</linearGradient>
<linearGradient id="paint85_linear" x1="198.803" y1="234.964" x2="186.442" y2="219.792" gradientUnits="userSpaceOnUse">
<stop offset="0.0353535" stop-color="#1968B3"/>
<stop offset="1" stop-color="#4C97DD"/>
</linearGradient>
<linearGradient id="paint86_linear" x1="132.458" y1="207.966" x2="110.621" y2="227.038" gradientUnits="userSpaceOnUse">
<stop offset="0.0353535" stop-color="#1968B3"/>
<stop offset="1" stop-color="#4C97DD"/>
</linearGradient>
<linearGradient id="paint87_linear" x1="125.645" y1="237.773" x2="112.384" y2="242.591" gradientUnits="userSpaceOnUse">
<stop offset="0.0353535" stop-color="#5FA4E6"/>
<stop offset="1" stop-color="#4C97DD"/>
</linearGradient>
<linearGradient id="paint88_linear" x1="133.741" y1="212.01" x2="115.047" y2="228.789" gradientUnits="userSpaceOnUse">
<stop offset="0.0353535" stop-color="#1968B3"/>
<stop offset="1" stop-color="#4C97DD"/>
</linearGradient>
<linearGradient id="paint89_linear" x1="133.143" y1="219.831" x2="123.94" y2="228.071" gradientUnits="userSpaceOnUse">
<stop offset="0.0353535" stop-color="#1968B3"/>
<stop offset="1" stop-color="#4C97DD"/>
</linearGradient>
<linearGradient id="paint90_linear" x1="131.694" y1="223.342" x2="127.984" y2="226.567" gradientUnits="userSpaceOnUse">
<stop offset="0.0353535" stop-color="#1968B3"/>
<stop offset="1" stop-color="#4C97DD"/>
</linearGradient>
<linearGradient id="paint91_linear" x1="184.36" y1="29.0203" x2="117.67" y2="74.1949" gradientUnits="userSpaceOnUse">
<stop offset="0.0353535" stop-color="#C1E7FF"/>
<stop offset="1" stop-color="#66A9DF"/>
</linearGradient>
<linearGradient id="paint92_linear" x1="181.097" y1="4.17734" x2="95.5568" y2="72.0591" gradientUnits="userSpaceOnUse">
<stop offset="0.0353535" stop-color="#1968B3"/>
<stop offset="1" stop-color="#4C97DD"/>
</linearGradient>
<linearGradient id="paint93_linear" x1="169.88" y1="102.03" x2="132.183" y2="122.245" gradientUnits="userSpaceOnUse">
<stop offset="0.0353535" stop-color="#C1E7FF"/>
<stop offset="1" stop-color="#66A9DF"/>
</linearGradient>
<linearGradient id="paint94_linear" x1="167.884" y1="88.8879" x2="120.521" y2="117.347" gradientUnits="userSpaceOnUse">
<stop offset="0.0353535" stop-color="#1968B3"/>
<stop offset="1" stop-color="#4C97DD"/>
</linearGradient>
<linearGradient id="paint95_linear" x1="245.785" y1="56.7334" x2="167.048" y2="70.5429" gradientUnits="userSpaceOnUse">
<stop offset="0.0353535" stop-color="#1968B3"/>
<stop offset="1" stop-color="#4C97DD"/>
</linearGradient>
<linearGradient id="paint96_linear" x1="230.825" y1="84.4356" x2="179.813" y2="156.665" gradientUnits="userSpaceOnUse">
<stop offset="0.0353535" stop-color="#1968B3"/>
<stop offset="1" stop-color="#4C97DD"/>
</linearGradient>
<linearGradient id="paint97_linear" x1="204.447" y1="170.688" x2="184.979" y2="191.875" gradientUnits="userSpaceOnUse">
<stop offset="0.0353535" stop-color="#1968B3"/>
<stop offset="1" stop-color="#4C97DD"/>
</linearGradient>
<linearGradient id="paint98_linear" x1="141.1" y1="70.3437" x2="98.422" y2="117.083" gradientUnits="userSpaceOnUse">
<stop offset="0.0353535" stop-color="#1968B3"/>
<stop offset="1" stop-color="#4C97DD"/>
</linearGradient>
<linearGradient id="paint99_linear" x1="196.337" y1="-74.9087" x2="89.6812" y2="91.2617" gradientUnits="userSpaceOnUse">
<stop offset="0.0353535" stop-color="#1968B3"/>
<stop offset="1" stop-color="#4C97DD"/>
</linearGradient>
<linearGradient id="paint100_linear" x1="201.011" y1="48.1504" x2="121.943" y2="111.528" gradientUnits="userSpaceOnUse">
<stop offset="0.0353535" stop-color="#1968B3"/>
<stop offset="1" stop-color="#4C97DD"/>
</linearGradient>
<linearGradient id="paint101_linear" x1="97.1579" y1="131.178" x2="57.9239" y2="179.249" gradientUnits="userSpaceOnUse">
<stop offset="0.0353535" stop-color="#1968B3"/>
<stop offset="1" stop-color="#4C97DD"/>
</linearGradient>
<linearGradient id="paint102_linear" x1="156.354" y1="-37.8354" x2="31.9852" y2="142.515" gradientUnits="userSpaceOnUse">
<stop offset="0.0353535" stop-color="#1968B3"/>
<stop offset="1" stop-color="#4C97DD"/>
</linearGradient>
<linearGradient id="paint103_linear" x1="101.246" y1="145.977" x2="83.1156" y2="178.553" gradientUnits="userSpaceOnUse">
<stop offset="0.671316" stop-color="#1968B3"/>
<stop offset="1" stop-color="#4C97DD"/>
</linearGradient>
<linearGradient id="paint104_linear" x1="161.925" y1="107.304" x2="84.8082" y2="175.797" gradientUnits="userSpaceOnUse">
<stop offset="0.0353535" stop-color="#1968B3"/>
<stop offset="1" stop-color="#4C97DD"/>
</linearGradient>
<linearGradient id="paint105_linear" x1="46.9083" y1="154.217" x2="44.0225" y2="162.485" gradientUnits="userSpaceOnUse">
<stop offset="0.671316" stop-color="#1968B3"/>
<stop offset="1" stop-color="#4C97DD"/>
</linearGradient>
<linearGradient id="paint106_linear" x1="76.1395" y1="190.825" x2="57.5569" y2="205.182" gradientUnits="userSpaceOnUse">
<stop offset="0.671316" stop-color="#1968B3"/>
<stop offset="1" stop-color="#4C97DD"/>
</linearGradient>
<linearGradient id="paint107_linear" x1="93.8457" y1="156.342" x2="82.7628" y2="157.94" gradientUnits="userSpaceOnUse">
<stop offset="0.0353535" stop-color="#1968B3"/>
<stop offset="1" stop-color="#4C97DD"/>
</linearGradient>
<linearGradient id="paint108_linear" x1="100.238" y1="146.083" x2="27.1339" y2="174.156" gradientUnits="userSpaceOnUse">
<stop offset="0.0353535" stop-color="#1968B3"/>
<stop offset="1" stop-color="#4C97DD"/>
</linearGradient>
<linearGradient id="paint109_linear" x1="66.629" y1="206.181" x2="69.0011" y2="155.411" gradientUnits="userSpaceOnUse">
<stop offset="0.0353535" stop-color="#1968B3"/>
<stop offset="1" stop-color="#4C97DD"/>
</linearGradient>
<linearGradient id="paint110_linear" x1="139.712" y1="179.795" x2="46.2138" y2="252.806" gradientUnits="userSpaceOnUse">
<stop offset="0.0353535" stop-color="#1968B3"/>
<stop offset="1" stop-color="#4C97DD"/>
</linearGradient>
<linearGradient id="paint111_linear" x1="105.527" y1="248.131" x2="110.92" y2="228.905" gradientUnits="userSpaceOnUse">
<stop offset="0.0353535" stop-color="#1968B3"/>
<stop offset="1" stop-color="#4C97DD"/>
</linearGradient>
<linearGradient id="paint112_linear" x1="65.5923" y1="226.24" x2="68.0401" y2="175.073" gradientUnits="userSpaceOnUse">
<stop offset="0.0353535" stop-color="#1968B3"/>
<stop offset="1" stop-color="#4C97DD"/>
</linearGradient>
<linearGradient id="paint113_linear" x1="136.182" y1="188.874" x2="152.249" y2="188.874" gradientUnits="userSpaceOnUse">
<stop offset="0.1613" stop-color="#3783CB"/>
<stop offset="0.1633" stop-color="#3C88D0"/>
<stop offset="0.5" stop-color="#3C88D0"/>
<stop offset="0.5001" stop-color="#3179BD"/>
<stop offset="0.796875" stop-color="#2B77BF"/>
<stop offset="0.796975" stop-color="#2B77BF"/>
</linearGradient>
<linearGradient id="paint114_linear" x1="135.271" y1="185.13" x2="153.157" y2="185.13" gradientUnits="userSpaceOnUse">
<stop offset="0.1613" stop-color="#3783CB"/>
<stop offset="0.1633" stop-color="#3C88D0"/>
<stop offset="0.5" stop-color="#3C88D0"/>
<stop offset="0.5001" stop-color="#3179BD"/>
<stop offset="0.796875" stop-color="#2B77BF"/>
<stop offset="0.796975" stop-color="#2B77BF"/>
</linearGradient>
<linearGradient id="paint115_linear" x1="156.246" y1="143.631" x2="135.495" y2="186.724" gradientUnits="userSpaceOnUse">
<stop offset="0.0353535" stop-color="#1968B3"/>
<stop offset="1" stop-color="#4C97DD"/>
</linearGradient>
<linearGradient id="paint116_linear" x1="136.182" y1="178.783" x2="152.249" y2="178.783" gradientUnits="userSpaceOnUse">
<stop offset="0.1613" stop-color="#3783CB"/>
<stop offset="0.1633" stop-color="#3C88D0"/>
<stop offset="0.5" stop-color="#3C88D0"/>
<stop offset="0.5001" stop-color="#3179BD"/>
<stop offset="0.796875" stop-color="#2B77BF"/>
<stop offset="0.796975" stop-color="#2B77BF"/>
</linearGradient>
<linearGradient id="paint117_linear" x1="135.271" y1="171.526" x2="153.157" y2="171.526" gradientUnits="userSpaceOnUse">
<stop offset="0.1613" stop-color="#3783CB"/>
<stop offset="0.1633" stop-color="#3C88D0"/>
<stop offset="0.5" stop-color="#3C88D0"/>
<stop offset="0.5001" stop-color="#3179BD"/>
<stop offset="0.796875" stop-color="#2B77BF"/>
<stop offset="0.796975" stop-color="#2B77BF"/>
</linearGradient>
<linearGradient id="paint118_linear" x1="156.246" y1="130.028" x2="135.495" y2="173.121" gradientUnits="userSpaceOnUse">
<stop offset="0.0353535" stop-color="#1968B3"/>
<stop offset="1" stop-color="#4C97DD"/>
</linearGradient>
<linearGradient id="paint119_linear" x1="136.182" y1="167.935" x2="152.249" y2="167.935" gradientUnits="userSpaceOnUse">
<stop offset="0.1613" stop-color="#3783CB"/>
<stop offset="0.1633" stop-color="#3C88D0"/>
<stop offset="0.5" stop-color="#3C88D0"/>
<stop offset="0.5001" stop-color="#3179BD"/>
<stop offset="0.796875" stop-color="#2B77BF"/>
<stop offset="0.796975" stop-color="#2B77BF"/>
</linearGradient>
<linearGradient id="paint120_linear" x1="155.024" y1="129.763" x2="135.614" y2="169.075" gradientUnits="userSpaceOnUse">
<stop offset="0.0353535" stop-color="#1968B3"/>
<stop offset="1" stop-color="#4C97DD"/>
</linearGradient>
<linearGradient id="paint121_linear" x1="126.716" y1="203.921" x2="99.3219" y2="236.054" gradientUnits="userSpaceOnUse">
<stop offset="0.0353535" stop-color="#1968B3"/>
<stop offset="1" stop-color="#4C97DD"/>
</linearGradient>
<linearGradient id="paint122_linear" x1="132.445" y1="197.324" x2="118.611" y2="219.656" gradientUnits="userSpaceOnUse">
<stop offset="0.0353535" stop-color="#1968B3"/>
<stop offset="1" stop-color="#4C97DD"/>
</linearGradient>
<linearGradient id="paint123_linear" x1="129.534" y1="234.392" x2="104.83" y2="263.547" gradientUnits="userSpaceOnUse">
<stop offset="0.0353535" stop-color="#1968B3"/>
<stop offset="1" stop-color="#4C97DD"/>
</linearGradient>
<linearGradient id="paint124_linear" x1="126.178" y1="41.116" x2="70.0856" y2="121.067" gradientUnits="userSpaceOnUse">
<stop offset="0.0353535" stop-color="#1968B3"/>
<stop offset="1" stop-color="#4C97DD"/>
</linearGradient>
<linearGradient id="paint125_linear" x1="119.485" y1="56.9774" x2="65.6793" y2="147.393" gradientUnits="userSpaceOnUse">
<stop offset="0.0353535" stop-color="#1968B3"/>
<stop offset="1" stop-color="#4C97DD"/>
</linearGradient>
<linearGradient id="paint126_linear" x1="163.622" y1="26.592" x2="100.886" y2="133.304" gradientUnits="userSpaceOnUse">
<stop offset="0.0353535" stop-color="#1968B3"/>
<stop offset="1" stop-color="#4C97DD"/>
</linearGradient>
<linearGradient id="paint127_linear" x1="104.015" y1="30.9174" x2="61.0762" y2="89.4749" gradientUnits="userSpaceOnUse">
<stop offset="0.0353535" stop-color="#1968B3"/>
<stop offset="1" stop-color="#4C97DD"/>
</linearGradient>
<linearGradient id="paint128_linear" x1="92.9136" y1="222.06" x2="83.9162" y2="229.064" gradientUnits="userSpaceOnUse">
<stop offset="0.0353535" stop-color="#1968B3"/>
<stop offset="1" stop-color="#4C97DD"/>
</linearGradient>
<linearGradient id="paint129_linear" x1="101.454" y1="206.05" x2="74.0764" y2="220.856" gradientUnits="userSpaceOnUse">
<stop offset="0.0353535" stop-color="#1968B3"/>
<stop offset="1" stop-color="#4C97DD"/>
</linearGradient>
<linearGradient id="paint130_linear" x1="108.44" y1="117.986" x2="85.5507" y2="121.635" gradientUnits="userSpaceOnUse">
<stop stop-color="#1968B3"/>
<stop offset="1" stop-color="#4C97DD"/>
</linearGradient>
<linearGradient id="paint131_linear" x1="182.288" y1="130.904" x2="192.899" y2="130.904" gradientUnits="userSpaceOnUse">
<stop offset="0.1613" stop-color="#3783CB"/>
<stop offset="0.1633" stop-color="#3C88D0"/>
<stop offset="0.5" stop-color="#3C88D0"/>
<stop offset="0.5001" stop-color="#3179BD"/>
<stop offset="0.796875" stop-color="#2B77BF"/>
<stop offset="0.796975" stop-color="#2B77BF"/>
</linearGradient>
<linearGradient id="paint132_linear" x1="182.288" y1="91.8184" x2="192.899" y2="91.8184" gradientUnits="userSpaceOnUse">
<stop offset="0.1613" stop-color="#3783CB"/>
<stop offset="0.1633" stop-color="#3C88D0"/>
<stop offset="0.5" stop-color="#3C88D0"/>
<stop offset="0.5001" stop-color="#3179BD"/>
<stop offset="0.796875" stop-color="#2B77BF"/>
<stop offset="0.796975" stop-color="#2B77BF"/>
</linearGradient>
<linearGradient id="paint133_linear" x1="184.898" y1="76.3098" x2="196.288" y2="76.3098" gradientUnits="userSpaceOnUse">
<stop offset="0.1613" stop-color="#3783CB"/>
<stop offset="0.1633" stop-color="#3C88D0"/>
<stop offset="0.5" stop-color="#3C88D0"/>
<stop offset="0.5001" stop-color="#3179BD"/>
<stop offset="0.796875" stop-color="#2B77BF"/>
<stop offset="0.796975" stop-color="#2B77BF"/>
</linearGradient>
<linearGradient id="paint134_linear" x1="184.895" y1="76.1555" x2="195.809" y2="76.1555" gradientUnits="userSpaceOnUse">
<stop offset="0.1613" stop-color="#3783CB"/>
<stop offset="0.1633" stop-color="#3C88D0"/>
<stop offset="0.5" stop-color="#3C88D0"/>
<stop offset="0.5001" stop-color="#3179BD"/>
<stop offset="0.796875" stop-color="#2B77BF"/>
<stop offset="0.796975" stop-color="#2B77BF"/>
</linearGradient>
<linearGradient id="paint135_linear" x1="189.011" y1="79.4282" x2="195.377" y2="79.4282" gradientUnits="userSpaceOnUse">
<stop offset="0.1613" stop-color="#3783CB"/>
<stop offset="0.1633" stop-color="#3C88D0"/>
<stop offset="0.5" stop-color="#3C88D0"/>
<stop offset="0.5001" stop-color="#3179BD"/>
<stop offset="0.796875" stop-color="#2B77BF"/>
<stop offset="0.796975" stop-color="#2B77BF"/>
</linearGradient>
<linearGradient id="paint136_linear" x1="176.956" y1="71.8097" x2="118.381" y2="125.926" gradientUnits="userSpaceOnUse">
<stop offset="0.0353535" stop-color="#1968B3"/>
<stop offset="1" stop-color="#4C97DD"/>
</linearGradient>
<linearGradient id="paint137_linear" x1="52.5073" y1="165.473" x2="39.1899" y2="173.61" gradientUnits="userSpaceOnUse">
<stop stop-color="#1968B3"/>
<stop offset="1" stop-color="#4C97DD"/>
</linearGradient>
<linearGradient id="paint138_linear" x1="59.2056" y1="204.057" x2="0.135927" y2="253.032" gradientUnits="userSpaceOnUse">
<stop stop-color="#1968B3"/>
<stop offset="1" stop-color="#4C97DD"/>
</linearGradient>
<linearGradient id="paint139_linear" x1="59.2056" y1="199.848" x2="0.382446" y2="248.869" gradientUnits="userSpaceOnUse">
<stop stop-color="#1968B3"/>
<stop offset="1" stop-color="#4C97DD"/>
</linearGradient>
<linearGradient id="paint140_linear" x1="59.2056" y1="195.498" x2="0.136037" y2="244.473" gradientUnits="userSpaceOnUse">
<stop stop-color="#1968B3"/>
<stop offset="1" stop-color="#4C97DD"/>
</linearGradient>
<linearGradient id="paint141_linear" x1="59.2056" y1="190.983" x2="0.382446" y2="240.004" gradientUnits="userSpaceOnUse">
<stop stop-color="#1968B3"/>
<stop offset="1" stop-color="#4C97DD"/>
</linearGradient>
<linearGradient id="paint142_linear" x1="59.2056" y1="186.48" x2="0.136037" y2="235.455" gradientUnits="userSpaceOnUse">
<stop stop-color="#1968B3"/>
<stop offset="1" stop-color="#4C97DD"/>
</linearGradient>
<linearGradient id="paint143_linear" x1="59.2056" y1="182.27" x2="0.38239" y2="231.291" gradientUnits="userSpaceOnUse">
<stop stop-color="#1968B3"/>
<stop offset="1" stop-color="#4C97DD"/>
</linearGradient>
<linearGradient id="paint144_linear" x1="59.4027" y1="177.978" x2="1.01801" y2="227.438" gradientUnits="userSpaceOnUse">
<stop stop-color="#1968B3"/>
<stop offset="1" stop-color="#4C97DD"/>
</linearGradient>
<linearGradient id="paint145_linear" x1="38.0537" y1="242.346" x2="42.9446" y2="213.858" gradientUnits="userSpaceOnUse">
<stop offset="0.0353535" stop-color="#1968B3"/>
<stop offset="1" stop-color="#4C97DD"/>
</linearGradient>
<linearGradient id="paint146_linear" x1="46.9708" y1="218.805" x2="48.7656" y2="198.385" gradientUnits="userSpaceOnUse">
<stop offset="0.0353535" stop-color="#1968B3"/>
<stop offset="1" stop-color="#4C97DD"/>
</linearGradient>
<linearGradient id="paint147_linear" x1="38.0537" y1="241.277" x2="42.9446" y2="212.788" gradientUnits="userSpaceOnUse">
<stop offset="0.0353535" stop-color="#1968B3"/>
<stop offset="1" stop-color="#4C97DD"/>
</linearGradient>
<linearGradient id="paint148_linear" x1="51.6258" y1="227.032" x2="61.9073" y2="222.385" gradientUnits="userSpaceOnUse">
<stop offset="0.0353535" stop-color="#1968B3"/>
<stop offset="1" stop-color="#4C97DD"/>
</linearGradient>
<linearGradient id="paint149_linear" x1="61.1909" y1="209.031" x2="43.7687" y2="224.457" gradientUnits="userSpaceOnUse">
<stop offset="0.0353535" stop-color="#1968B3"/>
<stop offset="1" stop-color="#4C97DD"/>
</linearGradient>
<linearGradient id="paint150_linear" x1="61.1909" y1="218.017" x2="43.7687" y2="233.443" gradientUnits="userSpaceOnUse">
<stop offset="0.0353535" stop-color="#1968B3"/>
<stop offset="1" stop-color="#4C97DD"/>
</linearGradient>
<linearGradient id="paint151_linear" x1="218.619" y1="8.73177" x2="174.925" y2="23.2782" gradientUnits="userSpaceOnUse">
<stop offset="0.0353535" stop-color="#C1E7FF"/>
<stop offset="1" stop-color="#66A9DF"/>
</linearGradient>
<linearGradient id="paint152_linear" x1="219.92" y1="93.5424" x2="197.656" y2="96.8805" gradientUnits="userSpaceOnUse">
<stop offset="0.0353535" stop-color="#1968B3"/>
<stop offset="1" stop-color="#4C97DD"/>
</linearGradient>
</defs>
</svg>
