<svg width="98" height="80" viewBox="0 0 98 80" fill="none" xmlns="http://www.w3.org/2000/svg">
<path d="M20.2323 -6.79867e-06C28.4516 -6.08011e-06 34.6688 3.38622 38.8839 10.1587C42.4667 15.873 44.2581 22.8571 44.2581 31.1111C44.2581 41.6931 41.6237 51.2169 36.3548 59.6825C30.8753 68.1481 22.6559 74.9206 11.6968 80L8.85162 74.2857C15.3849 71.5344 21.0753 67.1958 25.9226 61.2698C30.5591 55.3439 32.8774 49.3122 32.8774 43.1746C32.8774 40.6349 32.5613 38.4127 31.929 36.5079C28.557 39.2592 24.6581 40.6349 20.2322 40.6349C14.5419 40.6349 9.8 38.7301 6.00645 34.9206C2.00215 31.3227 -2.94834e-06 26.455 -2.41178e-06 20.3174C-1.91222e-06 14.6032 2.00215 9.73543 6.00645 5.71427C9.8 1.90475 14.5419 -7.29614e-06 20.2323 -6.79867e-06ZM73.9742 -2.1004e-06C82.1936 -1.38184e-06 88.4108 3.38623 92.6258 10.1587C96.2086 15.873 98 22.8571 98 31.1111C98 41.6931 95.3656 51.2169 90.0968 59.6825C84.6172 68.1481 76.3978 74.9206 65.4387 80L62.5935 74.2857C69.1269 71.5344 74.8172 67.1958 79.6645 61.2698C84.3011 55.3439 86.6194 49.3122 86.6194 43.1746C86.6194 40.6349 86.3032 38.4127 85.671 36.5079C82.2989 39.2593 78.4 40.6349 73.9742 40.6349C68.2839 40.6349 63.5419 38.7301 59.7484 34.9206C55.7441 31.3227 53.7419 26.455 53.7419 20.3174C53.7419 14.6032 55.7441 9.73544 59.7484 5.71428C63.5419 1.90475 68.2839 -2.59787e-06 73.9742 -2.1004e-06Z" fill="#ECECEC"/>
</svg>
