<svg width="113" height="113" viewBox="0 0 113 113" fill="none" xmlns="http://www.w3.org/2000/svg">
<g clip-path="url(#clip0)">
<path d="M55.5 2L16 25C16 25 5.21286 68.3421 27.5 91C33.7089 97.3123 43.4072 110 55.5 110C68.0374 110 78.0536 97.7155 84.4999 91C106.59 67.9878 97.5 25 97.5 25L55.5 2Z" fill="url(#paint0_linear)"/>
<path d="M99.2903 22.8794L56.82 0.248996C56.1899 -0.0872745 55.4348 -0.0825552 54.8095 0.260794L13.5143 22.8912C12.837 23.2629 12.417 23.9732 12.417 24.746V54.3071C12.4418 78.607 26.8389 100.591 49.1035 110.326L54.8354 112.824C55.3711 113.058 55.9811 113.059 56.5179 112.826L62.9767 110.037C85.6543 100.513 100.408 78.3168 100.41 53.7207V24.746C100.41 23.9649 99.9794 23.2463 99.2903 22.8794ZM96.1813 53.7207C96.1766 76.6213 82.4367 97.2848 61.3213 106.147L61.3071 106.154L55.6826 108.582L50.7954 106.45C30.0706 97.3886 16.6682 76.9269 16.6446 54.3071V25.9979L55.8395 4.51668L96.1813 26.0132V53.7207Z" fill="url(#paint1_linear)"/>
<path d="M40.2398 52.936C39.4812 52.0475 38.1467 51.9425 37.2582 52.7012C36.3698 53.4587 36.2648 54.7943 37.0234 55.6816L48.1923 68.7608C48.938 69.6339 50.2442 69.7531 51.1338 69.0286L77.1458 47.866C78.0519 47.1297 78.1888 45.7976 77.4514 44.8915C76.7151 43.9865 75.383 43.8484 74.4769 44.5859L50.0672 64.4435L40.2398 52.936Z" fill="url(#paint2_linear)"/>
</g>
<defs>
<linearGradient id="paint0_linear" x1="119.927" y1="-207.029" x2="-69.9368" y2="-40.4111" gradientUnits="userSpaceOnUse">
<stop offset="0.0353535" stop-color="#1968B3"/>
<stop offset="1" stop-color="#4C97DD"/>
</linearGradient>
<linearGradient id="paint1_linear" x1="51.6971" y1="101.694" x2="-7.1019" y2="138.135" gradientUnits="userSpaceOnUse">
<stop offset="0.0353535" stop-color="#1968B3"/>
<stop offset="1" stop-color="#4C97DD"/>
</linearGradient>
<linearGradient id="paint2_linear" x1="78" y1="-6.5" x2="49.5" y2="64.2028" gradientUnits="userSpaceOnUse">
<stop offset="0.0353535" stop-color="#98BADA"/>
<stop offset="1" stop-color="#A3D2FF"/>
</linearGradient>
<clipPath id="clip0">
<rect width="113" height="113" fill="white"/>
</clipPath>
</defs>
</svg>
