<svg width="50" height="68" viewBox="0 0 50 68" fill="none" xmlns="http://www.w3.org/2000/svg">
<path d="M15.75 52.5H14.5938C13.9804 52.5 13.3922 52.7436 12.9586 53.1773C12.5249 53.611 12.2812 54.1992 12.2812 54.8125V59.4375C12.2812 60.0508 12.5249 60.639 12.9586 61.0727C13.3922 61.5064 13.9804 61.75 14.5938 61.75H35.4062C36.0196 61.75 36.6078 61.5064 37.0414 61.0727C37.4751 60.639 37.7188 60.0508 37.7188 59.4375V54.8125C37.7188 54.1992 37.4751 53.611 37.0414 53.1773C36.6078 52.7436 36.0196 52.5 35.4062 52.5H15.75Z" fill="url(#paint0_linear)"/>
<path d="M18.0625 65.2188C18.0625 65.8321 18.3061 66.4203 18.7398 66.8539C19.1735 67.2876 19.7617 67.5312 20.375 67.5312H29.625C30.2383 67.5312 30.8265 67.2876 31.2602 66.8539C31.6939 66.4203 31.9375 65.8321 31.9375 65.2188V61.75H18.0625V65.2188Z" fill="url(#paint1_linear)"/>
<path d="M41.1875 28.2188C41.1875 29.1387 40.822 30.021 40.1715 30.6715C39.521 31.322 38.6387 31.6875 37.7187 31.6875C36.7988 31.6875 35.9165 31.322 35.266 30.6715C34.6155 30.021 34.25 29.1387 34.25 28.2188C34.2481 27.3639 34.5656 26.5391 35.1403 25.9062H25V36.0466C24.3671 35.4718 23.5424 35.1543 22.6875 35.1562C21.7675 35.1562 20.8852 35.5217 20.2347 36.1722C19.5842 36.8227 19.2188 37.705 19.2188 38.625C19.2188 39.545 19.5842 40.4273 20.2347 41.0778C20.8852 41.7283 21.7675 42.0938 22.6875 42.0938C23.5424 42.0957 24.3671 41.7782 25 41.2034V52.5H34.25V51.4386C34.2587 50.2353 34.577 49.0544 35.1741 48.0097C35.7713 46.965 36.6273 46.0916 37.6598 45.4735C41.0424 43.4069 43.8669 40.5426 45.8859 37.1314C47.9049 33.7201 49.0568 29.8659 49.2408 25.9062H40.2972C40.8719 26.5391 41.1894 27.3639 41.1875 28.2188Z" fill="url(#paint2_linear)"/>
<path d="M25 41.2034C24.3671 41.7782 23.5424 42.0957 22.6875 42.0938C21.7675 42.0938 20.8852 41.7283 20.2347 41.0778C19.5842 40.4273 19.2187 39.545 19.2187 38.625C19.2187 37.705 19.5842 36.8227 20.2347 36.1722C20.8852 35.5217 21.7675 35.1562 22.6875 35.1562C23.5424 35.1543 24.3671 35.4718 25 36.0466V25.9062H14.8597C15.4344 25.2734 15.7519 24.4486 15.75 23.5938C15.75 22.6738 15.3845 21.7915 14.734 21.141C14.0835 20.4905 13.2012 20.125 12.2812 20.125C11.3613 20.125 10.479 20.4905 9.82846 21.141C9.17795 21.7915 8.81249 22.6738 8.81249 23.5938C8.81056 24.4486 9.12809 25.2734 9.7028 25.9062H0.756897C0.941516 29.8701 2.09594 33.7281 4.11891 37.1418C6.14188 40.5556 8.9716 43.4208 12.3599 45.4862C13.3886 46.1034 14.2409 46.9752 14.8347 48.0176C15.4285 49.06 15.7437 50.2378 15.75 51.4374V52.5H25V41.2034Z" fill="url(#paint3_linear)"/>
<path d="M27.3125 9.71875C28.2325 9.71875 29.1148 10.0842 29.7653 10.7347C30.4158 11.3852 30.7812 12.2675 30.7812 13.1875C30.7812 14.1075 30.4158 14.9898 29.7653 15.6403C29.1148 16.2908 28.2325 16.6562 27.3125 16.6562C26.4576 16.6582 25.6329 16.3407 25 15.7659V25.9062H35.1403C34.5656 26.5391 34.2481 27.3639 34.25 28.2188C34.25 29.1387 34.6155 30.021 35.266 30.6715C35.9165 31.322 36.7988 31.6875 37.7187 31.6875C38.6387 31.6875 39.521 31.322 40.1715 30.6715C40.822 30.021 41.1875 29.1387 41.1875 28.2188C41.1894 27.3639 40.8719 26.5391 40.2972 25.9062H49.2408C49.2778 25.12 49.2905 24.3268 49.2512 23.5232C48.9179 17.5503 46.404 11.9075 42.1865 7.66497C37.9689 3.42247 32.341 0.875413 26.3702 0.506906C25.9107 0.481469 25.454 0.46875 25 0.46875V10.6091C25.6329 10.0343 26.4576 9.71682 27.3125 9.71875Z" fill="url(#paint4_linear)"/>
<path d="M0.71875 24.75C0.71875 25.1385 0.738406 25.5224 0.756906 25.9062H9.70281C9.1281 25.2734 8.81057 24.4486 8.8125 23.5938C8.8125 22.6738 9.17796 21.7915 9.82847 21.141C10.479 20.4905 11.3613 20.125 12.2812 20.125C13.2012 20.125 14.0835 20.4905 14.734 21.141C15.3845 21.7915 15.75 22.6738 15.75 23.5938C15.7519 24.4486 15.4344 25.2734 14.8597 25.9062H25V15.7659C25.6329 16.3407 26.4576 16.6582 27.3125 16.6562C28.2325 16.6562 29.1148 16.2908 29.7653 15.6403C30.4158 14.9898 30.7812 14.1075 30.7812 13.1875C30.7812 12.2675 30.4158 11.3852 29.7653 10.7347C29.1148 10.0842 28.2325 9.71875 27.3125 9.71875C26.4576 9.71682 25.6329 10.0343 25 10.6091V0.46875C18.5602 0.46875 12.3842 3.02695 7.83056 7.58056C3.27694 12.1342 0.71875 18.3102 0.71875 24.75Z" fill="url(#paint5_linear)"/>
<path d="M41.1875 28.2188C41.1875 29.1387 40.822 30.021 40.1715 30.6715C39.521 31.322 38.6387 31.6875 37.7187 31.6875C36.7988 31.6875 35.9165 31.322 35.266 30.6715C34.6155 30.021 34.25 29.1387 34.25 28.2188C34.2481 27.3639 34.5656 26.5391 35.1403 25.9062H29.8875C28.3834 27.6659 26.7497 29.3104 25 30.8261V36.0466C24.3671 35.4718 23.5424 35.1543 22.6875 35.1562C21.7675 35.1562 20.8852 35.5217 20.2347 36.1722C19.5842 36.8227 19.2188 37.705 19.2188 38.625C19.2188 39.545 19.5842 40.4273 20.2347 41.0778C20.8852 41.7283 21.7675 42.0938 22.6875 42.0938C23.5424 42.0957 24.3671 41.7782 25 41.2034V52.5H34.25V51.4386C34.2587 50.2353 34.577 49.0544 35.1741 48.0097C35.7713 46.965 36.6273 46.0916 37.6598 45.4735C41.0424 43.4069 43.8669 40.5426 45.8859 37.1314C47.9049 33.7201 49.0568 29.8659 49.2408 25.9062H40.2972C40.8719 26.5391 41.1894 27.3639 41.1875 28.2188Z" fill="url(#paint6_linear)"/>
<path d="M22.6875 42.0937C21.7675 42.0937 20.8852 41.7282 20.2347 41.0777C19.5842 40.4272 19.2187 39.5449 19.2187 38.625C19.2187 37.705 19.5842 36.8227 20.2347 36.1722C20.8852 35.5217 21.7675 35.1562 22.6875 35.1562C23.5424 35.1543 24.3671 35.4718 25 36.0465V30.826C19.7253 35.3302 13.6816 38.8463 7.15906 41.2057C8.6866 42.8662 10.4378 44.306 12.3622 45.4838C13.3908 46.1015 14.2429 46.9738 14.8363 48.0166C15.4297 49.0594 15.7444 50.2375 15.75 51.4374V52.4999H25V41.2034C24.3671 41.7781 23.5424 42.0956 22.6875 42.0937Z" fill="url(#paint7_linear)"/>
<path d="M49.2512 23.5232C49.0501 19.8167 48.0046 16.2053 46.1944 12.9647C44.3842 9.72414 41.8574 6.94016 38.8068 4.82544C38.2148 12.6377 35.0823 20.0415 29.8875 25.9062H35.1403C34.5656 26.5391 34.2481 27.3638 34.25 28.2187C34.25 29.1387 34.6155 30.021 35.266 30.6715C35.9165 31.322 36.7988 31.6874 37.7188 31.6874C38.6387 31.6874 39.521 31.322 40.1715 30.6715C40.822 30.021 41.1875 29.1387 41.1875 28.2187C41.1894 27.3638 40.8719 26.5391 40.2972 25.9062H49.2408C49.2812 25.1199 49.2905 24.3268 49.2512 23.5232Z" fill="url(#paint8_linear)"/>
<defs>
<linearGradient id="paint0_linear" x1="18.0446" y1="57.1019" x2="6.80201" y2="66.8702" gradientUnits="userSpaceOnUse">
<stop offset="0.0353535" stop-color="#1968B3"/>
<stop offset="1" stop-color="#4C97DD"/>
</linearGradient>
<linearGradient id="paint1_linear" x1="21.2061" y1="64.6262" x2="14.3732" y2="69.8075" gradientUnits="userSpaceOnUse">
<stop offset="0.0353535" stop-color="#1968B3"/>
<stop offset="1" stop-color="#4C97DD"/>
</linearGradient>
<linearGradient id="paint2_linear" x1="13.5052" y1="19.0388" x2="41.5338" y2="58.9519" gradientUnits="userSpaceOnUse">
<stop offset="0.0353535" stop-color="#1968B3"/>
<stop offset="1" stop-color="#4C97DD"/>
</linearGradient>
<linearGradient id="paint3_linear" x1="-3.85687" y1="11.7647" x2="32.36" y2="45.9738" gradientUnits="userSpaceOnUse">
<stop offset="0.0353535" stop-color="#1968B3"/>
<stop offset="1" stop-color="#4C97DD"/>
</linearGradient>
<linearGradient id="paint4_linear" x1="30.5" y1="16" x2="12.7432" y2="20.3625" gradientUnits="userSpaceOnUse">
<stop offset="0.0353535" stop-color="#1968B3"/>
<stop offset="1" stop-color="#4C97DD"/>
</linearGradient>
<linearGradient id="paint5_linear" x1="-5.00252" y1="-6.10007" x2="21.3697" y2="33.2141" gradientUnits="userSpaceOnUse">
<stop offset="0.0353535" stop-color="#1968B3"/>
<stop offset="1" stop-color="#4C97DD"/>
</linearGradient>
<linearGradient id="paint6_linear" x1="86.7491" y1="38.9492" x2="30.9579" y2="12.615" gradientUnits="userSpaceOnUse">
<stop offset="0.0353535" stop-color="#1968B3"/>
<stop offset="1" stop-color="#4C97DD"/>
</linearGradient>
<linearGradient id="paint7_linear" x1="47.2897" y1="41.4561" x2="11.0421" y2="28.9807" gradientUnits="userSpaceOnUse">
<stop offset="0.0353535" stop-color="#1968B3"/>
<stop offset="1" stop-color="#4C97DD"/>
</linearGradient>
<linearGradient id="paint8_linear" x1="57.5" y1="10" x2="15.1992" y2="12.6404" gradientUnits="userSpaceOnUse">
<stop offset="0.0353535" stop-color="#1968B3"/>
<stop offset="1" stop-color="#4C97DD"/>
</linearGradient>
</defs>
</svg>
