<svg width="14" height="12" viewBox="0 0 14 12" fill="none" xmlns="http://www.w3.org/2000/svg">
<path d="M14 1.97163C13.4794 2.2 12.9246 2.35137 12.3462 2.42487C12.9412 2.06962 13.3954 1.51137 13.6089 0.8385C13.0541 1.16925 12.4416 1.40288 11.7889 1.53325C11.2621 0.972375 10.5114 0.625 9.69238 0.625C8.10337 0.625 6.82412 1.91475 6.82412 3.49588C6.82412 3.72338 6.84338 3.94212 6.89062 4.15037C4.5045 4.034 2.39313 2.89038 0.97475 1.14825C0.727125 1.57788 0.581875 2.06963 0.581875 2.599C0.581875 3.593 1.09375 4.47412 1.85675 4.98425C1.39562 4.9755 0.94325 4.84163 0.56 4.63075C0.56 4.6395 0.56 4.65088 0.56 4.66225C0.56 6.057 1.55487 7.2155 2.8595 7.48238C2.62587 7.54625 2.37125 7.57687 2.107 7.57687C1.92325 7.57687 1.73775 7.56637 1.56362 7.52787C1.9355 8.6645 2.99075 9.50012 4.2455 9.52725C3.269 10.2911 2.02912 10.7514 0.686875 10.7514C0.4515 10.7514 0.22575 10.7409 0 10.712C1.27137 11.5319 2.77813 12 4.403 12C9.6845 12 12.572 7.625 12.572 3.83275C12.572 3.70587 12.5676 3.58337 12.5615 3.46175C13.1311 3.0575 13.6097 2.55263 14 1.97163Z" fill="#333333"/>
</svg>
