<svg width="58" height="60" viewBox="0 0 58 60" fill="none" xmlns="http://www.w3.org/2000/svg">
<path d="M34.1669 30.1265C34.4692 25.5624 31.0143 21.6175 26.4503 21.3152C21.8862 21.013 17.9413 24.4679 17.639 29.032C17.3368 33.596 20.7917 37.5409 25.3557 37.8432C29.9198 38.1454 33.8647 34.6905 34.1669 30.1265Z" fill="#00A99D"/>
<path d="M36.5449 18.1701L47.0364 0C46.9761 0.0241463 43.7767 1.50914 40.4204 3.81511L34.3355 14.3429L32.2589 10.7451C31.3414 11.7109 30.46 12.7251 29.6149 13.7634L35.4704 23.9169V23.929C36.4483 25.583 37.0037 27.5026 37.0037 29.5671C37.0037 35.7123 32.0175 40.6985 25.8722 40.6985C23.1437 40.6985 20.6446 39.7085 18.7008 38.0787C18.4714 39.4912 18.2903 40.9159 18.1816 42.3646C20.4272 43.7168 23.0592 44.4895 25.8722 44.4895C34.1182 44.4895 40.8067 37.801 40.8067 29.555C40.8067 26.7299 40.0219 24.0859 38.6577 21.8403L36.5449 18.1701Z" fill="#00A99D"/>
<mask id="mask0" mask-type="alpha" maskUnits="userSpaceOnUse" x="10" y="0" width="38" height="43">
<path d="M14.778 29.5792C14.778 27.5267 15.3334 25.595 16.3113 23.941C16.3113 23.941 25.8732 7.38876 25.9094 7.31632L29.64 13.7754C30.4851 12.7372 31.3665 11.7351 32.284 10.7692L28.4327 4.09279C28.9881 3.89962 29.7366 3.82718 30.9439 3.82718H40.4334C42.0271 2.7406 43.6811 1.7506 45.3834 0.845119C45.9146 0.567437 46.47 0.277682 47.0495 0H30.8473C26.332 0.120731 25.1488 1.00207 23.4344 3.98413C23.4344 3.98413 13.0274 22.0214 13.0153 22.0335C11.7235 24.2429 10.9629 26.8386 10.9629 29.5792C10.9629 35.0121 13.8725 39.7689 18.2068 42.3767C18.3275 40.9279 18.4965 39.5033 18.7259 38.0907C16.3113 36.0504 14.778 32.9959 14.778 29.5792Z" fill="url(#paint0_linear)"/>
</mask>
<g mask="url(#mask0)">
<path d="M14.778 29.5792C14.778 27.5267 15.3334 25.595 16.3113 23.941C16.3113 23.941 25.8732 7.38876 25.9094 7.31632L29.64 13.7754C30.4851 12.7372 31.3665 11.7351 32.284 10.7692L28.4327 4.09279C28.9881 3.89962 29.7366 3.82718 30.9439 3.82718H40.4334C42.0271 2.7406 43.6811 1.7506 45.3834 0.845119C45.9146 0.567437 46.47 0.277682 47.0495 0H30.8473C26.332 0.120731 25.1488 1.00207 23.4344 3.98413C23.4344 3.98413 13.0274 22.0214 13.0153 22.0335C11.7235 24.2429 10.9629 26.8386 10.9629 29.5792C10.9629 35.0121 13.8725 39.7689 18.2068 42.3767C18.3275 40.9279 18.4965 39.5033 18.7259 38.0907C16.3113 36.0504 14.778 32.9959 14.778 29.5792Z" fill="url(#paint1_linear)"/>
</g>
<path d="M26.6578 54.5705V54.5464C26.6578 52.8924 25.4505 51.9265 23.5792 51.9265H20.6695C20.3919 51.9265 20.1504 52.1559 20.1504 52.4094V59.3515H22.2028V57.4802C22.2028 57.3594 22.3236 57.2266 22.4322 57.2266H23.1566L24.5933 59.3515H26.9717L25.2573 56.8644C26.1266 56.4419 26.6578 55.6692 26.6578 54.5705ZM24.6054 54.6671C24.6054 55.2466 24.1587 55.633 23.4343 55.633H22.2028V53.991C22.2028 53.8099 22.3477 53.665 22.5167 53.665H23.4101C24.1587 53.665 24.5933 54.0031 24.5933 54.643V54.6671H24.6054Z" fill="#3B3834"/>
<path d="M31.1841 51.7937C28.8902 51.7937 27.1758 53.5202 27.1758 55.6571V55.6692C27.1758 57.8061 28.866 59.5084 31.1599 59.5084C33.4538 59.5084 35.1682 57.7699 35.1682 55.645V55.6209C35.1803 53.496 33.478 51.7937 31.1841 51.7937ZM33.0795 55.6692C33.0795 56.7437 32.331 57.6492 31.1961 57.6492C30.0733 57.6492 29.3007 56.7195 29.3007 55.645V55.6209C29.3007 54.5464 30.0613 53.6409 31.172 53.6409C32.3069 53.6409 33.0795 54.5826 33.0795 55.645V55.6692Z" fill="#3B3834"/>
<path d="M41.0112 52.4096V55.8625L37.9567 51.9387H36.5683C36.2786 51.9387 36.0371 52.1802 36.0371 52.4699V59.3637H38.0775V55.2951L41.2527 59.3637H43.0516V51.9387H41.5425C41.2527 51.9387 41.0112 52.144 41.0112 52.4096Z" fill="#3B3834"/>
<path d="M13.1582 52.4457V53.7375H15.3797V59.3515H17.4321V53.9669C17.4321 53.8341 17.5408 53.7375 17.6856 53.7375H19.6536V51.9265H13.6653C13.3997 51.9386 13.1703 52.1801 13.1582 52.4457Z" fill="#3B3834"/>
<path d="M3.18731 51.9387H0.531221C0.253539 51.9387 0 52.156 0 52.4216V59.3637H2.05243V57.4924C2.05243 57.3716 2.17316 57.2388 2.2939 57.2388H3.06658C4.91377 57.2388 6.26596 56.3213 6.26596 54.5707V54.5465C6.26596 52.9046 5.05865 51.9387 3.18731 51.9387ZM4.21353 54.6672C4.21353 55.2468 3.76682 55.6331 3.04243 55.6331H2.06451V53.6652H3.03036C3.77889 53.6652 4.2256 54.0032 4.2256 54.6431V54.6672H4.21353Z" fill="#3B3834"/>
<path d="M6.71289 52.4458V59.3516H12.677V57.601H8.74118V56.7076C8.74118 56.5748 8.86191 56.4299 8.99471 56.4299H12.2182V54.8121H8.75325V53.967C8.75325 53.8342 8.86191 53.6893 8.99471 53.6893H12.6891V51.9387H7.24411C6.96643 51.9387 6.71289 52.1681 6.71289 52.4458Z" fill="#3B3834"/>
<path d="M55.2478 54.7396C54.2095 54.5102 53.9681 54.3653 53.9681 54.0273V54.0031C53.9681 53.7375 54.2095 53.5202 54.7045 53.5202C55.1633 53.5202 55.6462 53.6409 56.1292 53.8703C56.1292 53.8703 56.2378 53.9186 56.2861 53.9548C56.431 54.0152 56.5879 54.0755 56.7932 54.0273C56.9381 53.991 57.0346 53.8703 57.1675 53.7134L57.8073 52.8079C56.9984 52.1559 56.0205 51.8179 54.7528 51.8179C52.9781 51.8179 51.8794 52.8199 51.8794 54.1963V54.2204C51.8794 55.7416 53.0988 56.1883 54.6804 56.5505C55.6825 56.7799 55.9239 56.949 55.9239 57.2629V57.287C55.9239 57.613 55.6342 57.7941 55.0788 57.7941C54.4269 57.7941 53.799 57.625 53.2195 57.287C53.0505 57.2025 52.8453 57.0938 52.5797 57.1542C52.471 57.1783 52.3865 57.2508 52.302 57.3594L51.5293 58.2891C52.4348 59.098 53.6904 59.5085 55.0064 59.5085C56.8053 59.5085 58.0005 58.603 58.0005 57.0938V57.0455C58.0126 55.6571 56.9501 55.1018 55.2478 54.7396Z" fill="#3B3834"/>
<path d="M45.6494 59.3636L46.0236 58.4219C46.084 58.277 46.2047 58.12 46.3617 58.0838H49.0178L49.5369 59.3515H51.7463L48.6073 51.9265H46.9171C46.6635 51.9507 46.5669 52.0835 46.4824 52.2646L43.4883 59.3636H45.6494ZM47.6052 54.3774L48.4383 56.4902H46.7722L47.6052 54.3774Z" fill="#3B3834"/>
<g opacity="0.3">
<mask id="mask1" mask-type="alpha" maskUnits="userSpaceOnUse" x="10" y="0" width="38" height="43">
<g opacity="0.3">
<g opacity="0.3">
<path opacity="0.3" d="M14.778 29.5792C14.778 27.5267 15.3334 25.595 16.3113 23.941C16.3113 23.941 25.8732 7.38876 25.9094 7.31632L29.64 13.7754C30.4851 12.7372 31.3665 11.7351 32.284 10.7692L28.4327 4.09279C28.9881 3.89962 29.7366 3.82718 30.9439 3.82718H40.4334C42.0271 2.7406 43.6811 1.7506 45.3834 0.845119C45.9146 0.567437 46.47 0.277682 47.0495 0H30.8473C26.332 0.120731 25.1488 1.00207 23.4344 3.98413C23.4344 3.98413 13.0274 22.0214 13.0153 22.0335C11.7235 24.2429 10.9629 26.8386 10.9629 29.5792C10.9629 35.0121 13.8725 39.7689 18.2068 42.3767C18.3275 40.9279 18.4965 39.5033 18.7259 38.0907C16.3113 36.0504 14.778 32.9959 14.778 29.5792Z" fill="url(#paint2_linear)"/>
</g>
</g>
</mask>
<g mask="url(#mask1)">
<path opacity="0.3" d="M14.778 29.5792C14.778 27.5267 15.3334 25.595 16.3113 23.941C16.3113 23.941 25.8732 7.38876 25.9094 7.31632L29.64 13.7754C30.4851 12.7372 31.3665 11.7351 32.284 10.7692L28.4327 4.09279C28.9881 3.89962 29.7366 3.82718 30.9439 3.82718H40.4334C42.0271 2.7406 43.6811 1.7506 45.3834 0.845119C45.9146 0.567437 46.47 0.277682 47.0495 0H30.8473C26.332 0.120731 25.1488 1.00207 23.4344 3.98413C23.4344 3.98413 13.0274 22.0214 13.0153 22.0335C11.7235 24.2429 10.9629 26.8386 10.9629 29.5792C10.9629 35.0121 13.8725 39.7689 18.2068 42.3767C18.3275 40.9279 18.4965 39.5033 18.7259 38.0907C16.3113 36.0504 14.778 32.9959 14.778 29.5792Z" fill="url(#paint3_linear)"/>
</g>
</g>
<mask id="mask2" mask-type="alpha" maskUnits="userSpaceOnUse" x="25" y="4" width="6" height="9">
<path d="M28.7699 10.6243C28.8303 9.05483 29.4822 8.20971 30.1342 7.08691L28.4198 4.09277C27.4056 4.58777 26.7295 5.89167 25.8965 7.32837L29.0234 12.7734C28.8544 12.0852 28.7337 11.3729 28.7699 10.6243Z" fill="url(#paint4_linear)"/>
</mask>
<g mask="url(#mask2)">
<path opacity="0.8" d="M28.7699 10.6243C28.8303 9.05483 29.4822 8.20971 30.1342 7.08691L28.4198 4.09277C27.4056 4.58777 26.7295 5.89167 25.8965 7.32837L29.0234 12.7734C28.8544 12.0852 28.7337 11.3729 28.7699 10.6243Z" fill="url(#paint5_linear)"/>
</g>
<mask id="mask3" mask-type="alpha" maskUnits="userSpaceOnUse" x="18" y="10" width="23" height="35">
<path d="M36.5449 18.17L34.3355 14.3549L32.2589 10.7571C31.3414 11.7229 30.46 12.7371 29.6149 13.7754L35.4704 23.9289V23.9409C36.4483 25.595 37.0037 27.5146 37.0037 29.5791C37.0037 35.7243 32.0175 40.7105 25.8722 40.7105C23.1437 40.7105 20.6446 39.7205 18.7008 38.0907C18.4714 39.5032 18.2903 40.9278 18.1816 42.3766C20.4272 43.7288 23.0592 44.5015 25.8722 44.5015C34.1182 44.5015 40.8067 37.813 40.8067 29.567C40.8067 26.7419 40.0219 24.0979 38.6577 21.8523L36.5449 18.17Z" fill="url(#paint6_linear)"/>
</mask>
<g mask="url(#mask3)">
<path opacity="0.3" d="M36.5449 18.17L34.3355 14.3549L32.2589 10.7571C31.3414 11.7229 30.46 12.7371 29.6149 13.7754L35.4704 23.9289V23.9409C36.4483 25.595 37.0037 27.5146 37.0037 29.5791C37.0037 35.7243 32.0175 40.7105 25.8722 40.7105C23.1437 40.7105 20.6446 39.7205 18.7008 38.0907C18.4714 39.5032 18.2903 40.9278 18.1816 42.3766C20.4272 43.7288 23.0592 44.5015 25.8722 44.5015C34.1182 44.5015 40.8067 37.813 40.8067 29.567C40.8067 26.7419 40.0219 24.0979 38.6577 21.8523L36.5449 18.17Z" fill="url(#paint7_linear)"/>
</g>
<mask id="mask4" mask-type="alpha" maskUnits="userSpaceOnUse" x="34" y="0" width="14" height="19">
<path d="M36.5453 18.1701L47.0369 0C46.9765 0.0241463 43.7771 1.50914 40.4208 3.81511L34.3359 14.3429L36.5453 18.1701Z" fill="url(#paint8_linear)"/>
</mask>
<g mask="url(#mask4)">
<path opacity="0.4" d="M36.5453 18.1701L47.0369 0C46.9765 0.0241463 43.7771 1.50914 40.4208 3.81511L34.3359 14.3429L36.5453 18.1701Z" fill="url(#paint9_linear)"/>
</g>
<mask id="mask5" mask-type="alpha" maskUnits="userSpaceOnUse" x="19" y="21" width="16" height="17">
<path d="M25.8957 21.2969C25.4128 21.2969 24.942 21.3452 24.4832 21.4176C22.2255 25.5345 20.487 30.0016 19.4004 34.7101C20.9216 36.6298 23.2638 37.8612 25.8957 37.8612C30.4715 37.8612 34.1779 34.1548 34.1779 29.579C34.1779 25.0033 30.4715 21.2969 25.8957 21.2969Z" fill="url(#paint10_linear)"/>
</mask>
<g mask="url(#mask5)">
<path opacity="0.3" d="M25.8957 21.2969C25.4128 21.2969 24.942 21.3452 24.4832 21.4176C22.2255 25.5345 20.487 30.0016 19.4004 34.7101C20.9216 36.6298 23.2638 37.8612 25.8957 37.8612C30.4715 37.8612 34.1779 34.1548 34.1779 29.579C34.1779 25.0033 30.4715 21.2969 25.8957 21.2969Z" fill="url(#paint11_linear)"/>
<g opacity="0.9">
<mask id="mask6" mask-type="alpha" maskUnits="userSpaceOnUse" x="12" y="23" width="29" height="22">
<g opacity="0.9">
<g opacity="0.9">
<path opacity="0.9" d="M40.624 29.1325C40.624 37.3784 33.9355 44.067 25.6895 44.067C22.8765 44.067 20.2445 43.2822 17.9989 41.9421C15.4757 40.4209 13.4474 38.1873 12.1797 35.5071C13.4232 38.3805 15.536 40.7831 18.2042 42.3767C20.4498 43.7289 23.0817 44.5016 25.8948 44.5016C34.1407 44.5016 40.8292 37.8131 40.8292 29.5671C40.8292 27.2974 40.3222 25.1363 39.4046 23.2046C40.1894 25.0276 40.624 27.0318 40.624 29.1325Z" fill="url(#paint12_linear)"/>
</g>
</g>
</mask>
<g mask="url(#mask6)">
<path opacity="0.8" d="M40.624 29.1325C40.624 37.3784 33.9355 44.067 25.6895 44.067C22.8765 44.067 20.2445 43.2822 17.9989 41.9421C15.4757 40.4209 13.4474 38.1873 12.1797 35.5071C13.4232 38.3805 15.536 40.7831 18.2042 42.3767C20.4498 43.7289 23.0817 44.5016 25.8948 44.5016C34.1407 44.5016 40.8292 37.8131 40.8292 29.5671C40.8292 27.2974 40.3222 25.1363 39.4046 23.2046C40.1894 25.0276 40.624 27.0318 40.624 29.1325Z" fill="url(#paint13_linear)"/>
</g>
</g>
</g>
<mask id="mask7" mask-type="alpha" maskUnits="userSpaceOnUse" x="19" y="23" width="16" height="15">
<path d="M31.464 23.4338C32.9248 24.9309 33.8303 26.9713 33.8303 29.2289C33.8303 33.8047 30.1239 37.5111 25.5481 37.5111C23.4112 37.5111 21.4553 36.7022 19.9824 35.3621C21.4916 36.8954 23.5802 37.8492 25.8983 37.8492C30.474 37.8492 34.1804 34.1427 34.1804 29.567C34.1804 27.1403 33.1301 24.9551 31.464 23.4338Z" fill="url(#paint14_linear)"/>
</mask>
<g mask="url(#mask7)">
<path opacity="0.8" d="M31.464 23.4338C32.9248 24.9309 33.8303 26.9713 33.8303 29.2289C33.8303 33.8047 30.1239 37.5111 25.5481 37.5111C23.4112 37.5111 21.4553 36.7022 19.9824 35.3621C21.4916 36.8954 23.5802 37.8492 25.8983 37.8492C30.474 37.8492 34.1804 34.1427 34.1804 29.567C34.1804 27.1403 33.1301 24.9551 31.464 23.4338Z" fill="url(#paint15_linear)"/>
<g opacity="0.8">
<mask id="mask8" mask-type="alpha" maskUnits="userSpaceOnUse" x="14" y="6" width="12" height="32">
<g opacity="0.8">
<g opacity="0.8">
<path opacity="0.8" d="M25.8251 7.44912L25.5474 6.97827C25.5112 7.05071 15.9493 23.603 15.9493 23.603C14.9714 25.257 14.416 27.1887 14.416 29.2411C14.416 32.4405 15.7682 35.326 17.9293 37.3543C15.9734 35.3501 14.7661 32.6095 14.7661 29.5913C14.7661 27.5388 15.3215 25.6071 16.2994 23.9531C16.2994 23.941 24.9317 8.99448 25.8251 7.44912Z" fill="url(#paint16_linear)"/>
</g>
</g>
</mask>
<g mask="url(#mask8)">
<path opacity="0.8" d="M25.8251 7.44912L25.5474 6.97827C25.5112 7.05071 15.9493 23.603 15.9493 23.603C14.9714 25.257 14.416 27.1887 14.416 29.2411C14.416 32.4405 15.7682 35.326 17.9293 37.3543C15.9734 35.3501 14.7661 32.6095 14.7661 29.5913C14.7661 27.5388 15.3215 25.6071 16.2994 23.9531C16.2994 23.941 24.9317 8.99448 25.8251 7.44912Z" fill="url(#paint17_linear)"/>
</g>
</g>
</g>
<defs>
<linearGradient id="paint0_linear" x1="10.9702" y1="21.1873" x2="47.0443" y2="21.1873" gradientUnits="userSpaceOnUse">
<stop offset="0.0122699" stop-color="white"/>
<stop offset="0.0797546" stop-color="white"/>
<stop offset="0.0934276" stop-color="white"/>
<stop offset="0.4908" stop-color="white"/>
<stop offset="0.6656" stop-color="#F1F1F1"/>
<stop offset="0.9943" stop-color="#CDCDCD"/>
<stop offset="1" stop-color="#CCCCCC"/>
</linearGradient>
<linearGradient id="paint1_linear" x1="10.9702" y1="21.1873" x2="47.0443" y2="21.1873" gradientUnits="userSpaceOnUse">
<stop offset="0.0122699" stop-color="#00A99D"/>
<stop offset="0.0797546" stop-color="#00A99D"/>
<stop offset="0.0934276" stop-color="#00A99D"/>
<stop offset="0.4908" stop-color="#00A99D"/>
<stop offset="1" stop-color="#00A99D"/>
</linearGradient>
<linearGradient id="paint2_linear" x1="18.5193" y1="9.46676" x2="34.5459" y2="22.9146" gradientUnits="userSpaceOnUse">
<stop offset="0.0122699" stop-color="white"/>
<stop offset="0.0797546" stop-color="white"/>
<stop offset="0.2039" stop-color="#BBBBBB"/>
<stop offset="0.4909" stop-color="#121212"/>
<stop offset="0.5215"/>
<stop offset="1"/>
</linearGradient>
<linearGradient id="paint3_linear" x1="18.5193" y1="9.46676" x2="34.5459" y2="22.9146" gradientUnits="userSpaceOnUse">
<stop offset="0.0122699" stop-color="#00685E"/>
<stop offset="0.0797546" stop-color="#00685E"/>
<stop offset="0.5215" stop-color="#00685E"/>
<stop offset="1" stop-color="#00685E"/>
</linearGradient>
<linearGradient id="paint4_linear" x1="26.0319" y1="7.04889" x2="30.7191" y2="9.43714" gradientUnits="userSpaceOnUse">
<stop stop-color="white"/>
<stop offset="0.0950655" stop-color="#DFDFDF"/>
<stop offset="0.2393" stop-color="#B3B3B3"/>
<stop offset="0.2744" stop-color="#9E9E9E"/>
<stop offset="0.3555" stop-color="#747474"/>
<stop offset="0.4412" stop-color="#505050"/>
<stop offset="0.5308" stop-color="#333333"/>
<stop offset="0.6256" stop-color="#1C1C1C"/>
<stop offset="0.7281" stop-color="#0C0C0C"/>
<stop offset="0.8436" stop-color="#030303"/>
<stop offset="1"/>
</linearGradient>
<linearGradient id="paint5_linear" x1="26.0319" y1="7.04889" x2="30.7191" y2="9.43714" gradientUnits="userSpaceOnUse">
<stop stop-color="#00685E"/>
<stop offset="0.2393" stop-color="#00685E"/>
<stop offset="0.3224" stop-color="#00685E"/>
<stop offset="1" stop-color="#00685E"/>
</linearGradient>
<linearGradient id="paint6_linear" x1="21.9744" y1="25.989" x2="40.9578" y2="31.0756" gradientUnits="userSpaceOnUse">
<stop stop-color="white"/>
<stop offset="0.2883" stop-color="white"/>
<stop offset="0.3029" stop-color="#F4F4F4"/>
<stop offset="0.3847" stop-color="#BCBCBC"/>
<stop offset="0.4688" stop-color="#8A8A8A"/>
<stop offset="0.5536" stop-color="#5F5F5F"/>
<stop offset="0.6392" stop-color="#3D3D3D"/>
<stop offset="0.7258" stop-color="#222222"/>
<stop offset="0.8137" stop-color="#0F0F0F"/>
<stop offset="0.9039" stop-color="#040404"/>
<stop offset="1"/>
</linearGradient>
<linearGradient id="paint7_linear" x1="21.9744" y1="25.989" x2="40.9578" y2="31.0756" gradientUnits="userSpaceOnUse">
<stop stop-color="#00685E"/>
<stop offset="0.2883" stop-color="#00685E"/>
<stop offset="0.312" stop-color="#00685E"/>
<stop offset="1" stop-color="#00685E"/>
</linearGradient>
<linearGradient id="paint8_linear" x1="34.347" y1="9.08232" x2="47.0438" y2="9.08232" gradientUnits="userSpaceOnUse">
<stop stop-color="white"/>
<stop offset="0.2761" stop-color="white"/>
<stop offset="0.2777" stop-color="#FEFEFE"/>
<stop offset="0.3824" stop-color="#C9C9C9"/>
<stop offset="0.4884" stop-color="#9B9B9B"/>
<stop offset="0.5935" stop-color="#757575"/>
<stop offset="0.6978" stop-color="#585858"/>
<stop offset="0.8008" stop-color="#444444"/>
<stop offset="0.9022" stop-color="#373737"/>
<stop offset="1" stop-color="#333333"/>
</linearGradient>
<linearGradient id="paint9_linear" x1="34.347" y1="9.08232" x2="47.0438" y2="9.08232" gradientUnits="userSpaceOnUse">
<stop stop-color="#00685E"/>
<stop offset="0.2761" stop-color="#00685E"/>
<stop offset="1" stop-color="#00685E"/>
</linearGradient>
<linearGradient id="paint10_linear" x1="21.1939" y1="26.5709" x2="32.8822" y2="34.0315" gradientUnits="userSpaceOnUse">
<stop offset="0.0122699" stop-color="white"/>
<stop offset="0.0858896" stop-color="white"/>
<stop offset="0.1111" stop-color="#F0F0F0"/>
<stop offset="0.2137" stop-color="#B9B9B9"/>
<stop offset="0.3196" stop-color="#878787"/>
<stop offset="0.4266" stop-color="#5E5E5E"/>
<stop offset="0.5348" stop-color="#3C3C3C"/>
<stop offset="0.6448" stop-color="#212121"/>
<stop offset="0.7572" stop-color="#0F0F0F"/>
<stop offset="0.8735" stop-color="#040404"/>
<stop offset="1"/>
</linearGradient>
<linearGradient id="paint11_linear" x1="21.1939" y1="26.5709" x2="32.8822" y2="34.0315" gradientUnits="userSpaceOnUse">
<stop offset="0.0122699" stop-color="#00685E"/>
<stop offset="0.0858896" stop-color="#00685E"/>
<stop offset="0.1249" stop-color="#00685E"/>
<stop offset="1" stop-color="#00685E"/>
</linearGradient>
<linearGradient id="paint12_linear" x1="23.4135" y1="44.3974" x2="30.2404" y2="20.5895" gradientUnits="userSpaceOnUse">
<stop stop-color="white"/>
<stop offset="0.4172" stop-color="white"/>
<stop offset="0.5479" stop-color="#F4F4F4"/>
<stop offset="0.7801" stop-color="#D5D5D5"/>
<stop offset="1" stop-color="#B3B3B3"/>
</linearGradient>
<linearGradient id="paint13_linear" x1="23.4135" y1="44.3974" x2="30.2404" y2="20.5895" gradientUnits="userSpaceOnUse">
<stop stop-color="#00685E"/>
<stop offset="0.4172" stop-color="#00685E"/>
<stop offset="1" stop-color="#00685E"/>
</linearGradient>
<linearGradient id="paint14_linear" x1="24.3835" y1="38.2638" x2="32.5735" y2="24.0782" gradientUnits="userSpaceOnUse">
<stop stop-color="white"/>
<stop offset="0.5215" stop-color="white"/>
<stop offset="0.5694" stop-color="#E6E6E6"/>
<stop offset="0.6697" stop-color="#B9B9B9"/>
<stop offset="0.7658" stop-color="#959595"/>
<stop offset="0.8554" stop-color="#7B7B7B"/>
<stop offset="0.9361" stop-color="#6B6B6B"/>
<stop offset="1" stop-color="#666666"/>
</linearGradient>
<linearGradient id="paint15_linear" x1="24.3835" y1="38.2638" x2="32.5735" y2="24.0782" gradientUnits="userSpaceOnUse">
<stop stop-color="#00685E"/>
<stop offset="0.5215" stop-color="#00685E"/>
<stop offset="1" stop-color="#00685E"/>
</linearGradient>
<linearGradient id="paint16_linear" x1="13.9391" y1="22.7025" x2="26.8254" y2="21.8014" gradientUnits="userSpaceOnUse">
<stop stop-color="white"/>
<stop offset="0.5706" stop-color="white"/>
<stop offset="0.6108" stop-color="#E6E6E6"/>
<stop offset="0.8824" stop-color="#424242"/>
<stop offset="1"/>
</linearGradient>
<linearGradient id="paint17_linear" x1="13.9391" y1="22.7025" x2="26.8254" y2="21.8014" gradientUnits="userSpaceOnUse">
<stop stop-color="#00685E"/>
<stop offset="0.5706" stop-color="#00685E"/>
<stop offset="1" stop-color="#00685E"/>
</linearGradient>
</defs>
</svg>
