<svg width="205" height="65" viewBox="0 0 205 65" fill="none" xmlns="http://www.w3.org/2000/svg">
<rect opacity="0.2" y="7" width="36" height="52" fill="#3145B6"/>
<path d="M31.59 26.51C33.446 26.51 35.1473 26.8193 36.694 27.438C38.2407 28.018 39.5553 28.8687 40.638 29.99C41.6433 30.9953 42.4167 32.194 42.958 33.586C43.538 34.978 43.828 36.5247 43.828 38.226C43.828 41.5513 42.7453 44.2967 40.58 46.462C39.4973 47.5833 38.1827 48.4533 36.636 49.072C35.128 49.6907 33.446 50 31.59 50H13.842V15.2H40.348V20.768H20.048V26.51H31.59ZM37.68 38.226C37.68 36.4087 37.1193 34.9393 35.998 33.818C34.838 32.658 33.272 32.078 31.3 32.078H20.048V44.432H31.59C32.5567 44.432 33.4267 44.258 34.2 43.91C34.9733 43.562 35.6307 43.0787 36.172 42.46C36.7133 41.9187 37.1 41.2807 37.332 40.546C37.564 39.8113 37.68 39.038 37.68 38.226ZM48.734 21H71.818V26.568H54.94V32.426H70.02V37.936H54.94V44.49H72.398V50H48.734V21ZM102.909 31.73C102.909 33.122 102.638 34.4367 102.097 35.674C101.594 36.9113 100.898 38.0133 100.009 38.98C99.0034 40.024 97.7854 40.8553 96.3547 41.474C94.924 42.0927 93.3967 42.402 91.7727 42.402H83.8267V50H77.6207V21H91.7727C93.3967 21 94.9047 21.29 96.2967 21.87C97.6887 22.45 98.8874 23.2813 99.8927 24.364C100.821 25.292 101.555 26.394 102.097 27.67C102.638 28.9073 102.909 30.2607 102.909 31.73ZM91.9467 36.892C93.416 36.892 94.5567 36.3893 95.3687 35.384C96.258 34.3787 96.7027 33.1607 96.7027 31.73C96.7027 31.034 96.5867 30.396 96.3547 29.816C96.1227 29.1973 95.8327 28.656 95.4847 28.192C95.0207 27.6507 94.4407 27.2447 93.7447 26.974C93.0874 26.6647 92.3527 26.51 91.5407 26.51H83.8267V36.892H91.9467ZM113.675 21V31.904H117.329C118.025 31.904 118.586 31.7687 119.011 31.498C119.475 31.1887 119.842 30.7827 120.113 30.28L122.839 24.77C123.148 24.1127 123.535 23.5327 123.999 23.03C124.502 22.5273 125.024 22.1213 125.565 21.812C126.764 21.0773 128.252 20.71 130.031 20.71C130.727 20.71 131.365 20.7487 131.945 20.826C132.525 20.8647 133.105 20.942 133.685 21.058L132.931 26.22H131.075C130.263 26.22 129.625 26.3747 129.161 26.684C128.658 26.9933 128.272 27.4187 128.001 27.96L125.449 33.006C125.294 33.3153 125.14 33.586 124.985 33.818C124.83 34.05 124.637 34.282 124.405 34.514L134.033 50H126.841L119.243 37.182C118.779 37.298 118.257 37.356 117.677 37.356H113.675V50H107.527V21H113.675ZM150.059 20.478C152.301 20.478 154.37 20.884 156.265 21.696C158.198 22.508 159.841 23.61 161.195 25.002C162.548 26.3553 163.592 27.9407 164.327 29.758C165.061 31.5367 165.429 33.4507 165.429 35.5C165.429 37.588 165.042 39.5793 164.269 41.474C163.495 43.33 162.374 44.954 160.905 46.346C159.551 47.6607 157.947 48.6853 156.091 49.42C154.273 50.1547 152.263 50.522 150.059 50.522C147.816 50.522 145.747 50.1353 143.853 49.362C141.958 48.5887 140.334 47.5253 138.981 46.172C137.627 44.8187 136.564 43.2333 135.791 41.416C135.017 39.56 134.631 37.588 134.631 35.5C134.631 33.3733 135.037 31.3627 135.849 29.468C136.699 27.5733 137.859 25.93 139.329 24.538C140.682 23.262 142.248 22.276 144.027 21.58C145.844 20.8453 147.855 20.478 150.059 20.478ZM140.837 35.5C140.837 36.9307 141.069 38.226 141.533 39.386C141.997 40.546 142.635 41.532 143.447 42.344C145.148 44.1227 147.352 45.012 150.059 45.012C151.335 45.012 152.514 44.7993 153.597 44.374C154.679 43.91 155.627 43.272 156.439 42.46C158.256 40.7587 159.165 38.4387 159.165 35.5C159.165 34.0307 158.933 32.6967 158.469 31.498C158.005 30.2993 157.328 29.294 156.439 28.482C155.627 27.7087 154.66 27.1093 153.539 26.684C152.456 26.22 151.296 25.988 150.059 25.988C148.744 25.988 147.507 26.22 146.347 26.684C145.225 27.148 144.239 27.8247 143.389 28.714C142.615 29.4873 141.997 30.454 141.533 31.614C141.069 32.774 140.837 34.0693 140.837 35.5ZM176.38 21L185.892 34.92L195.346 21H201.668V50H195.462V30.918H195.23L187.052 43.098H184.558L176.264 30.918H176.032V50H170.058V21H176.38Z" fill="#3145B6"/>
</svg>
