<svg width="17" height="24" viewBox="0 0 17 24" fill="none" xmlns="http://www.w3.org/2000/svg">
<path fill-rule="evenodd" clip-rule="evenodd" d="M5.91579 13.7522C4.50509 11.263 3.06934 9.11722 4.26636 7.56539L5.95166 6.57421L2.56004 0.590282C1.4629 1.22398 0.736208 1.74524 0.375028 2.77863C-0.973521 6.63753 1.62153 12.3131 3.30683 15.2864C4.99212 18.2593 8.41899 23.2073 12.3747 23.9475C13.4338 24.1456 14.2402 23.7651 15.3275 23.1144L11.9355 17.1305L10.2502 18.1216C8.3321 18.4016 7.3268 16.241 5.91579 13.7522L5.91579 13.7522ZM12.3604 16.8807C12.8196 16.6108 13.7136 16.3084 14.0937 16.8684C14.9536 18.3437 15.7604 19.8505 16.6204 21.3257C16.822 22.1081 16.3346 22.4999 15.749 22.8583L12.3604 16.8807L12.3604 16.8807ZM6.37653 6.32447C6.83573 6.05423 7.53985 5.41675 7.25381 4.80164C6.42941 3.30526 5.5515 1.8407 4.7271 0.344308C4.16275 -0.224826 3.58573 0.00950527 2.9883 0.346513L6.37652 6.32447L6.37653 6.32447Z" fill="white"/>
</svg>
