<svg width="36" height="36" viewBox="0 0 36 36" fill="none" xmlns="http://www.w3.org/2000/svg">
<g clip-path="url(#clip0)">
<path d="M35.5878 33.5984L25.431 23.4416C30.0586 17.8114 29.7437 9.4534 24.4853 4.19501C18.8913 -1.39899 9.78924 -1.39899 4.19525 4.19501C-1.39874 9.789 -1.39874 18.891 4.19525 24.485C9.45223 29.742 17.8092 30.0603 23.4419 25.4308L33.5987 35.5876C34.148 36.1368 35.0385 36.1368 35.5877 35.5876C36.1371 35.0382 36.1371 34.1477 35.5878 33.5984ZM22.4962 22.4959C17.999 26.9931 10.6816 26.993 6.18439 22.4959C1.6872 17.9987 1.6872 10.6813 6.18439 6.18408C10.6814 1.6871 17.9989 1.68675 22.4962 6.18408C26.9934 10.6813 26.9934 17.9987 22.4962 22.4959Z" fill="#3145B6"/>
<path d="M21.2271 12.9341H15.747V7.45389C15.747 6.67708 15.1173 6.04736 14.3405 6.04736C13.5636 6.04736 12.9339 6.67708 12.9339 7.45389V12.9341H7.45377C6.67696 12.9341 6.04724 13.5638 6.04724 14.3406C6.04724 15.1174 6.67696 15.7471 7.45377 15.7471H12.9339V21.2273C12.9339 22.0041 13.5636 22.6338 14.3405 22.6338C15.1173 22.6338 15.747 22.0041 15.747 21.2273V15.7471H21.2271C22.004 15.7471 22.6337 15.1174 22.6337 14.3406C22.6337 13.5638 22.004 12.9341 21.2271 12.9341Z" fill="#3145B6"/>
</g>
<defs>
<clipPath id="clip0">
<rect width="36" height="36" fill="white"/>
</clipPath>
</defs>
</svg>
