<svg width="58" height="60" fill="none" xmlns="http://www.w3.org/2000/svg"><path d="M34.167 30.127a8.282 8.282 0 10-16.528-1.095 8.282 8.282 0 0016.528 1.095z" fill="#00A99D"/><path d="M36.545 18.17L47.036 0c-.06.024-3.26 1.51-6.616 3.815l-6.084 10.528-2.077-3.598a52.517 52.517 0 00-2.644 3.018l5.855 10.154v.012a11.018 11.018 0 011.534 5.638c0 6.145-4.986 11.132-11.132 11.132-2.728 0-5.227-.99-7.171-2.62a50.054 50.054 0 00-.52 4.286 14.858 14.858 0 007.691 2.124c8.246 0 14.935-6.688 14.935-14.934 0-2.825-.785-5.47-2.15-7.715l-2.112-3.67z" fill="#00A99D"/><mask id="a" maskUnits="userSpaceOnUse" x="10" y="0" width="38" height="43"><path d="M14.778 29.58c0-2.053.555-3.985 1.533-5.639 0 0 9.562-16.552 9.598-16.625l3.731 6.46a52.34 52.34 0 012.644-3.007l-3.851-6.676c.555-.193 1.304-.266 2.51-.266h9.49A52.755 52.755 0 0147.05 0H30.847c-4.515.12-5.698 1.002-7.413 3.984 0 0-10.407 18.037-10.419 18.05a14.963 14.963 0 00-2.052 7.545c0 5.433 2.91 10.19 7.244 12.798.12-1.45.29-2.874.519-4.286a11.111 11.111 0 01-3.948-8.512z" fill="url(#paint0_linear)"/></mask><g mask="url(#a)"><path d="M14.778 29.58c0-2.053.555-3.985 1.533-5.639 0 0 9.562-16.552 9.598-16.625l3.731 6.46a52.34 52.34 0 012.644-3.007l-3.851-6.676c.555-.193 1.304-.266 2.51-.266h9.49A52.755 52.755 0 0147.05 0H30.847c-4.515.12-5.698 1.002-7.413 3.984 0 0-10.407 18.037-10.419 18.05a14.963 14.963 0 00-2.052 7.545c0 5.433 2.91 10.19 7.244 12.798.12-1.45.29-2.874.519-4.286a11.111 11.111 0 01-3.948-8.512z" fill="url(#paint1_linear)"/></g><path d="M26.658 54.57v-.024c0-1.654-1.207-2.62-3.079-2.62h-2.91c-.277 0-.519.23-.519.483v6.943h2.053V57.48c0-.12.12-.253.23-.253h.724l1.436 2.125h2.379l-1.715-2.488c.87-.422 1.4-1.195 1.4-2.293zm-2.053.097c0 .58-.446.966-1.17.966h-1.232v-1.642c0-.181.145-.326.314-.326h.893c.749 0 1.183.338 1.183.978v.024h.012zm6.579-2.873c-2.294 0-4.008 1.726-4.008 3.863v.012c0 2.137 1.69 3.84 3.984 3.84s4.008-1.74 4.008-3.864v-.024c.012-2.125-1.69-3.827-3.984-3.827zm1.896 3.875c0 1.075-.749 1.98-1.884 1.98-1.123 0-1.895-.93-1.895-2.004v-.024c0-1.075.76-1.98 1.871-1.98 1.135 0 1.908.942 1.908 2.004v.024zm7.931-3.259v3.453l-3.054-3.924h-1.389a.536.536 0 00-.53.53v6.895h2.04v-4.069l3.175 4.069h1.799v-7.425h-1.51c-.29 0-.53.205-.53.47zm-27.853.036v1.291h2.222v5.614h2.052v-5.384c0-.133.109-.23.254-.23h1.968v-1.81h-5.989a.557.557 0 00-.507.519zm-9.971-.507H.531c-.277 0-.531.217-.531.483v6.942h2.052v-1.872c0-.12.121-.253.242-.253h.773c1.847 0 3.199-.918 3.199-2.668v-.024c0-1.642-1.207-2.608-3.079-2.608zm1.027 2.728c0 .58-.447.966-1.172.966h-.977v-1.968h.965c.749 0 1.196.338 1.196.978v.024h-.012zm2.499-2.221v6.906h5.964V57.6H8.741v-.893c0-.133.12-.278.254-.278h3.223v-1.618H8.753v-.845c0-.133.109-.278.242-.278h3.694v-1.75H7.244c-.278 0-.531.23-.531.507zm48.535 2.294c-1.038-.23-1.28-.375-1.28-.713v-.024c0-.266.241-.483.736-.483.46 0 .942.12 1.425.35 0 0 .109.049.157.085.145.06.302.12.507.072.145-.036.242-.157.374-.314l.64-.905c-.809-.652-1.787-.99-3.054-.99-1.775 0-2.874 1.002-2.874 2.378v.024c0 1.522 1.22 1.968 2.801 2.33 1.002.23 1.244.399 1.244.713v.024c0 .326-.29.507-.845.507-.652 0-1.28-.169-1.86-.507-.169-.084-.374-.193-.64-.133-.108.024-.193.097-.277.205l-.773.93c.906.809 2.161 1.22 3.477 1.22 1.8 0 2.995-.906 2.995-2.415v-.049c.012-1.388-1.05-1.943-2.753-2.305zm-9.598 4.624l.374-.942c.06-.145.18-.302.338-.338h2.656l.519 1.267h2.21l-3.14-7.425h-1.69c-.254.025-.35.157-.435.339l-2.994 7.099h2.161zm1.955-4.987l.833 2.113h-1.666l.833-2.113z" fill="#3B3834"/><g opacity=".3"><mask id="b" maskUnits="userSpaceOnUse" x="10" y="0" width="38" height="43"><path opacity=".3" d="M14.778 29.58c0-2.053.555-3.985 1.533-5.639 0 0 9.562-16.552 9.598-16.625l3.731 6.46a52.34 52.34 0 012.644-3.007l-3.851-6.676c.555-.193 1.304-.266 2.51-.266h9.49A52.755 52.755 0 0147.05 0H30.847c-4.515.12-5.698 1.002-7.413 3.984 0 0-10.407 18.037-10.419 18.05a14.963 14.963 0 00-2.052 7.545c0 5.433 2.91 10.19 7.244 12.798.12-1.45.29-2.874.519-4.286a11.111 11.111 0 01-3.948-8.512z" fill="url(#paint2_linear)"/></mask><g mask="url(#b)"><path opacity=".3" d="M14.778 29.58c0-2.053.555-3.985 1.533-5.639 0 0 9.562-16.552 9.598-16.625l3.731 6.46a52.34 52.34 0 012.644-3.007l-3.851-6.676c.555-.193 1.304-.266 2.51-.266h9.49A52.755 52.755 0 0147.05 0H30.847c-4.515.12-5.698 1.002-7.413 3.984 0 0-10.407 18.037-10.419 18.05a14.963 14.963 0 00-2.052 7.545c0 5.433 2.91 10.19 7.244 12.798.12-1.45.29-2.874.519-4.286a11.111 11.111 0 01-3.948-8.512z" fill="url(#paint3_linear)"/></g></g><mask id="c" maskUnits="userSpaceOnUse" x="25" y="4" width="6" height="9"><path d="M28.77 10.624c.06-1.57.712-2.414 1.364-3.537L28.42 4.093c-1.014.495-1.69 1.799-2.524 3.235l3.127 5.445c-.169-.688-.29-1.4-.253-2.149z" fill="url(#paint4_linear)"/></mask><g mask="url(#c)"><path opacity=".8" d="M28.77 10.624c.06-1.57.712-2.414 1.364-3.537L28.42 4.093c-1.014.495-1.69 1.799-2.524 3.235l3.127 5.445c-.169-.688-.29-1.4-.253-2.149z" fill="url(#paint5_linear)"/></g><mask id="d" maskUnits="userSpaceOnUse" x="18" y="10" width="23" height="35"><path d="M36.545 18.17l-2.21-3.815-2.076-3.598a52.517 52.517 0 00-2.644 3.018L35.47 23.93v.012a11.018 11.018 0 011.534 5.638c0 6.145-4.986 11.132-11.132 11.132-2.728 0-5.227-.99-7.171-2.62a50.05 50.05 0 00-.52 4.286 14.858 14.858 0 007.691 2.124c8.246 0 14.935-6.688 14.935-14.934 0-2.825-.785-5.47-2.15-7.715l-2.112-3.682z" fill="url(#paint6_linear)"/></mask><g mask="url(#d)"><path opacity=".3" d="M36.545 18.17l-2.21-3.815-2.076-3.598a52.517 52.517 0 00-2.644 3.018L35.47 23.93v.012a11.018 11.018 0 011.534 5.638c0 6.145-4.986 11.132-11.132 11.132-2.728 0-5.227-.99-7.171-2.62a50.05 50.05 0 00-.52 4.286 14.858 14.858 0 007.691 2.124c8.246 0 14.935-6.688 14.935-14.934 0-2.825-.785-5.47-2.15-7.715l-2.112-3.682z" fill="url(#paint7_linear)"/></g><mask id="e" maskUnits="userSpaceOnUse" x="34" y="0" width="14" height="19"><path d="M36.545 18.17L47.037 0c-.06.024-3.26 1.51-6.616 3.815l-6.085 10.528 2.21 3.827z" fill="url(#paint8_linear)"/></mask><g mask="url(#e)"><path opacity=".4" d="M36.545 18.17L47.037 0c-.06.024-3.26 1.51-6.616 3.815l-6.085 10.528 2.21 3.827z" fill="url(#paint9_linear)"/></g><mask id="f" maskUnits="userSpaceOnUse" x="19" y="21" width="16" height="17"><path d="M25.896 21.297a9.1 9.1 0 00-1.413.12A51.967 51.967 0 0019.4 34.71a8.267 8.267 0 006.496 3.151 8.28 8.28 0 008.282-8.282 8.28 8.28 0 00-8.282-8.282z" fill="url(#paint10_linear)"/></mask><g mask="url(#f)"><path opacity=".3" d="M25.896 21.297a9.1 9.1 0 00-1.413.12A51.967 51.967 0 0019.4 34.71a8.267 8.267 0 006.496 3.151 8.28 8.28 0 008.282-8.282 8.28 8.28 0 00-8.282-8.282z" fill="url(#paint11_linear)"/><g opacity=".9"><mask id="g" maskUnits="userSpaceOnUse" x="12" y="23" width="29" height="22"><path opacity=".9" d="M40.624 29.133c0 8.245-6.689 14.934-14.935 14.934a14.97 14.97 0 01-7.69-2.125 15.005 15.005 0 01-5.82-6.435 14.891 14.891 0 006.025 6.87 14.858 14.858 0 007.69 2.125c8.247 0 14.935-6.689 14.935-14.935 0-2.27-.507-4.43-1.424-6.362a14.957 14.957 0 011.219 5.928z" fill="url(#paint12_linear)"/></mask><g mask="url(#g)"><path opacity=".8" d="M40.624 29.133c0 8.245-6.689 14.934-14.935 14.934a14.97 14.97 0 01-7.69-2.125 15.005 15.005 0 01-5.82-6.435 14.891 14.891 0 006.025 6.87 14.858 14.858 0 007.69 2.125c8.247 0 14.935-6.689 14.935-14.935 0-2.27-.507-4.43-1.424-6.362a14.957 14.957 0 011.219 5.928z" fill="url(#paint13_linear)"/></g></g></g><mask id="h" maskUnits="userSpaceOnUse" x="19" y="23" width="16" height="15"><path d="M31.464 23.434a8.28 8.28 0 01-5.916 14.077 8.244 8.244 0 01-5.566-2.149 8.28 8.28 0 1011.482-11.928z" fill="url(#paint14_linear)"/></mask><g mask="url(#h)"><path opacity=".8" d="M31.464 23.434a8.28 8.28 0 01-5.916 14.077 8.244 8.244 0 01-5.566-2.149 8.28 8.28 0 1011.482-11.928z" fill="url(#paint15_linear)"/><g opacity=".8"><mask id="i" maskUnits="userSpaceOnUse" x="14" y="6" width="12" height="32"><path opacity=".8" d="M25.825 7.45l-.278-.472c-.036.073-9.598 16.625-9.598 16.625a11.05 11.05 0 00-1.533 5.638c0 3.2 1.352 6.085 3.513 8.113a11.085 11.085 0 01-3.163-7.763c0-2.052.556-3.984 1.533-5.638 0-.012 8.633-14.959 9.526-16.504z" fill="url(#paint16_linear)"/></mask><g mask="url(#i)"><path opacity=".8" d="M25.825 7.45l-.278-.472c-.036.073-9.598 16.625-9.598 16.625a11.05 11.05 0 00-1.533 5.638c0 3.2 1.352 6.085 3.513 8.113a11.085 11.085 0 01-3.163-7.763c0-2.052.556-3.984 1.533-5.638 0-.012 8.633-14.959 9.526-16.504z" fill="url(#paint17_linear)"/></g></g></g><defs><linearGradient id="paint0_linear" x1="10.97" y1="21.187" x2="47.044" y2="21.187" gradientUnits="userSpaceOnUse"><stop offset=".012" stop-color="#fff"/><stop offset=".08" stop-color="#fff"/><stop offset=".093" stop-color="#fff"/><stop offset=".491" stop-color="#fff"/><stop offset=".666" stop-color="#F1F1F1"/><stop offset=".994" stop-color="#CDCDCD"/><stop offset="1" stop-color="#CCC"/></linearGradient><linearGradient id="paint1_linear" x1="10.97" y1="21.187" x2="47.044" y2="21.187" gradientUnits="userSpaceOnUse"><stop offset=".012" stop-color="#00A99D"/><stop offset=".08" stop-color="#00A99D"/><stop offset=".093" stop-color="#00A99D"/><stop offset=".491" stop-color="#00A99D"/><stop offset="1" stop-color="#00A99D"/></linearGradient><linearGradient id="paint2_linear" x1="18.519" y1="9.467" x2="34.546" y2="22.915" gradientUnits="userSpaceOnUse"><stop offset=".012" stop-color="#fff"/><stop offset=".08" stop-color="#fff"/><stop offset=".204" stop-color="#BBB"/><stop offset=".491" stop-color="#121212"/><stop offset=".521"/><stop offset="1"/></linearGradient><linearGradient id="paint3_linear" x1="18.519" y1="9.467" x2="34.546" y2="22.915" gradientUnits="userSpaceOnUse"><stop offset=".012" stop-color="#00685E"/><stop offset=".08" stop-color="#00685E"/><stop offset=".521" stop-color="#00685E"/><stop offset="1" stop-color="#00685E"/></linearGradient><linearGradient id="paint4_linear" x1="26.032" y1="7.049" x2="30.719" y2="9.437" gradientUnits="userSpaceOnUse"><stop stop-color="#fff"/><stop offset=".095" stop-color="#DFDFDF"/><stop offset=".239" stop-color="#B3B3B3"/><stop offset=".274" stop-color="#9E9E9E"/><stop offset=".355" stop-color="#747474"/><stop offset=".441" stop-color="#505050"/><stop offset=".531" stop-color="#333"/><stop offset=".626" stop-color="#1C1C1C"/><stop offset=".728" stop-color="#0C0C0C"/><stop offset=".844" stop-color="#030303"/><stop offset="1"/></linearGradient><linearGradient id="paint5_linear" x1="26.032" y1="7.049" x2="30.719" y2="9.437" gradientUnits="userSpaceOnUse"><stop stop-color="#00685E"/><stop offset=".239" stop-color="#00685E"/><stop offset=".322" stop-color="#00685E"/><stop offset="1" stop-color="#00685E"/></linearGradient><linearGradient id="paint6_linear" x1="21.974" y1="25.989" x2="40.958" y2="31.076" gradientUnits="userSpaceOnUse"><stop stop-color="#fff"/><stop offset=".288" stop-color="#fff"/><stop offset=".303" stop-color="#F4F4F4"/><stop offset=".385" stop-color="#BCBCBC"/><stop offset=".469" stop-color="#8A8A8A"/><stop offset=".554" stop-color="#5F5F5F"/><stop offset=".639" stop-color="#3D3D3D"/><stop offset=".726" stop-color="#222"/><stop offset=".814" stop-color="#0F0F0F"/><stop offset=".904" stop-color="#040404"/><stop offset="1"/></linearGradient><linearGradient id="paint7_linear" x1="21.974" y1="25.989" x2="40.958" y2="31.076" gradientUnits="userSpaceOnUse"><stop stop-color="#00685E"/><stop offset=".288" stop-color="#00685E"/><stop offset=".312" stop-color="#00685E"/><stop offset="1" stop-color="#00685E"/></linearGradient><linearGradient id="paint8_linear" x1="34.347" y1="9.082" x2="47.044" y2="9.082" gradientUnits="userSpaceOnUse"><stop stop-color="#fff"/><stop offset=".276" stop-color="#fff"/><stop offset=".278" stop-color="#FEFEFE"/><stop offset=".382" stop-color="#C9C9C9"/><stop offset=".488" stop-color="#9B9B9B"/><stop offset=".594" stop-color="#757575"/><stop offset=".698" stop-color="#585858"/><stop offset=".801" stop-color="#444"/><stop offset=".902" stop-color="#373737"/><stop offset="1" stop-color="#333"/></linearGradient><linearGradient id="paint9_linear" x1="34.347" y1="9.082" x2="47.044" y2="9.082" gradientUnits="userSpaceOnUse"><stop stop-color="#00685E"/><stop offset=".276" stop-color="#00685E"/><stop offset="1" stop-color="#00685E"/></linearGradient><linearGradient id="paint10_linear" x1="21.194" y1="26.571" x2="32.882" y2="34.032" gradientUnits="userSpaceOnUse"><stop offset=".012" stop-color="#fff"/><stop offset=".086" stop-color="#fff"/><stop offset=".111" stop-color="#F0F0F0"/><stop offset=".214" stop-color="#B9B9B9"/><stop offset=".32" stop-color="#878787"/><stop offset=".427" stop-color="#5E5E5E"/><stop offset=".535" stop-color="#3C3C3C"/><stop offset=".645" stop-color="#212121"/><stop offset=".757" stop-color="#0F0F0F"/><stop offset=".874" stop-color="#040404"/><stop offset="1"/></linearGradient><linearGradient id="paint11_linear" x1="21.194" y1="26.571" x2="32.882" y2="34.032" gradientUnits="userSpaceOnUse"><stop offset=".012" stop-color="#00685E"/><stop offset=".086" stop-color="#00685E"/><stop offset=".125" stop-color="#00685E"/><stop offset="1" stop-color="#00685E"/></linearGradient><linearGradient id="paint12_linear" x1="23.413" y1="44.397" x2="30.24" y2="20.59" gradientUnits="userSpaceOnUse"><stop stop-color="#fff"/><stop offset=".417" stop-color="#fff"/><stop offset=".548" stop-color="#F4F4F4"/><stop offset=".78" stop-color="#D5D5D5"/><stop offset="1" stop-color="#B3B3B3"/></linearGradient><linearGradient id="paint13_linear" x1="23.413" y1="44.397" x2="30.24" y2="20.59" gradientUnits="userSpaceOnUse"><stop stop-color="#00685E"/><stop offset=".417" stop-color="#00685E"/><stop offset="1" stop-color="#00685E"/></linearGradient><linearGradient id="paint14_linear" x1="24.384" y1="38.264" x2="32.574" y2="24.078" gradientUnits="userSpaceOnUse"><stop stop-color="#fff"/><stop offset=".521" stop-color="#fff"/><stop offset=".569" stop-color="#E6E6E6"/><stop offset=".67" stop-color="#B9B9B9"/><stop offset=".766" stop-color="#959595"/><stop offset=".855" stop-color="#7B7B7B"/><stop offset=".936" stop-color="#6B6B6B"/><stop offset="1" stop-color="#666"/></linearGradient><linearGradient id="paint15_linear" x1="24.384" y1="38.264" x2="32.574" y2="24.078" gradientUnits="userSpaceOnUse"><stop stop-color="#00685E"/><stop offset=".521" stop-color="#00685E"/><stop offset="1" stop-color="#00685E"/></linearGradient><linearGradient id="paint16_linear" x1="13.939" y1="22.703" x2="26.825" y2="21.801" gradientUnits="userSpaceOnUse"><stop stop-color="#fff"/><stop offset=".571" stop-color="#fff"/><stop offset=".611" stop-color="#E6E6E6"/><stop offset=".882" stop-color="#424242"/><stop offset="1"/></linearGradient><linearGradient id="paint17_linear" x1="13.939" y1="22.703" x2="26.825" y2="21.801" gradientUnits="userSpaceOnUse"><stop stop-color="#00685E"/><stop offset=".571" stop-color="#00685E"/><stop offset="1" stop-color="#00685E"/></linearGradient></defs></svg>