<?xml version="1.0" encoding="UTF-8"?>
<svg width="7px" height="14px" viewBox="0 0 7 14" version="1.1" xmlns="http://www.w3.org/2000/svg" xmlns:xlink="http://www.w3.org/1999/xlink">
    <!-- Generator: sketchtool 63 (101010) - https://sketch.com -->
    <title>1597DE2C-D549-41DB-9EAD-CB709747BD75</title>
    <desc>Created with sketchtool.</desc>
    <g id="DESKTOP" stroke="none" stroke-width="1" fill="none" fill-rule="evenodd">
        <g id="blog_article" transform="translate(-1412.000000, -422.000000)" fill="#1D252D">
            <g id="main" transform="translate(370.000000, 160.000000)">
                <g id="hero-img" transform="translate(0.000000, 244.000000)">
                    <g id="share-up" transform="translate(960.000000, 0.000000)">
                        <g id="src/social/fb" transform="translate(60.000000, 0.000000)">
                            <g id="fb">
                                <path d="M26.361875,32.000085 L26.361875,25.4375802 L28.895875,25.4375802 L29,23.0803284 L26.361875,23.0803284 L26.361875,21.3513272 C26.361875,21.0240769 26.4205,20.7650767 26.538625,20.5743266 C26.655875,20.3853265 26.93675,20.2969514 27.3795,20.3100764 L28.937875,20.3100764 L29,18.1094498 C28.80575,18.0831998 28.608875,18.0665748 28.407625,18.0595748 C28.20725,18.0543248 28.0235,18.0438247 27.85725,18.0306997 C27.663,18.0184497 27.469625,18.0114497 27.27625,18.0114497 C26.666375,17.9720747 26.144,18.0341997 25.707375,18.1986999 C25.27075,18.36145 24.911125,18.5907001 24.627625,18.8855754 C24.34325,19.1804506 24.132375,19.5173258 23.994125,19.8970761 C23.855875,20.2777014 23.78675,20.6635767 23.78675,21.056452 L23.78675,23.0803284 L22,23.0803284 L22,25.4375802 L23.78675,25.4375802 L23.78675,32.000085 L26.361875,32.000085 Z"></path>
                            </g>
                        </g>
                    </g>
                </g>
            </g>
        </g>
    </g>
</svg>