<?xml version="1.0" encoding="UTF-8"?>
<svg width="60px" height="42px" viewBox="0 0 60 42" version="1.1" xmlns="http://www.w3.org/2000/svg" xmlns:xlink="http://www.w3.org/1999/xlink">
    <!-- Generator: sketchtool 63 (101010) - https://sketch.com -->
    <title>87248575-0EA8-4F55-9ADF-1DDBC2039473</title>
    <desc>Created with sketchtool.</desc>
    <g id="DESKTOP" stroke="none" stroke-width="1" fill="none" fill-rule="evenodd">
        <g id="blog_article" transform="translate(-1110.000000, -5649.000000)" fill="#FD574C" fill-rule="nonzero">
            <g id="main" transform="translate(370.000000, 160.000000)">
                <g id="block-hero" transform="translate(200.000000, 5444.000000)">
                    <path d="M573.997673,55.3280266 C573.997673,49.7707964 578.730972,44.5354384 586.897134,45.0348762 C593.683655,45.4499359 600,51.3190163 600,61.2532942 C600,64.8917819 599.243252,68.2215424 597.727952,71.2300322 C596.229527,74.2050181 594.278136,76.7825198 591.876647,78.9570858 C589.492132,81.1162808 586.829842,82.8762873 583.892662,84.2353723 C580.967383,85.5889501 578.056517,86.5067451 575.161157,86.986546 C574.777586,87.050109 574.396307,86.8855232 574.177984,86.5728768 L574.111465,86.4632875 L570.770935,80.073293 C570.468359,79.4945055 570.792775,78.7857386 571.428595,78.6364728 C573.352418,78.1848339 575.299219,77.5440451 577.26923,76.7134653 C579.211023,75.8947826 580.970859,74.8735346 582.550984,73.6493937 C584.113273,72.4390696 585.41874,71.0302097 586.471031,69.4198949 C587.12029,68.4263364 587.592842,67.3787116 587.890081,66.2733299 L587.993331,65.8560973 L588.041,65.626 L588.016333,65.6302873 C585.214926,66.1178841 583.41499,66.1875353 581.403958,65.6903851 L581.084496,65.6071557 L580.790139,65.5232082 C576.983819,64.3944913 573.997673,60.3107375 573.997673,55.3280266 Z M543.34053,55.3280266 C543.34053,49.7707964 548.073829,44.5354384 556.239991,45.0348762 C563.026512,45.4499359 569.342857,51.3190163 569.342857,61.2532942 C569.342857,64.8917819 568.58611,68.2215424 567.070809,71.2300322 C565.572384,74.2050181 563.620994,76.7825198 561.219504,78.9570858 C558.83499,81.1162808 556.172699,82.8762873 553.235519,84.2353723 C550.31024,85.5889501 547.399374,86.5067451 544.504014,86.986546 C544.120443,87.050109 543.739164,86.8855232 543.520841,86.5728768 L543.454322,86.4632875 L540.113792,80.073293 C539.811216,79.4945055 540.135633,78.7857386 540.771452,78.6364728 C542.695275,78.1848339 544.642076,77.5440451 546.612087,76.7134653 C548.55388,75.8947826 550.313717,74.8735346 551.893841,73.6493937 C553.456131,72.4390696 554.761597,71.0302097 555.813888,69.4198949 C556.463147,68.4263364 556.9357,67.3787116 557.232939,66.2733299 L557.336188,65.8560973 L557.384,65.626 L557.35919,65.6302873 C554.557783,66.1178841 552.757847,66.1875353 550.746816,65.6903851 L550.427353,65.6071557 L550.132996,65.5232082 C546.326676,64.3944913 543.34053,60.3107375 543.34053,55.3280266 Z M586.775043,47.0311461 C579.839276,46.6069586 575.997673,50.8560388 575.997673,55.3280266 C575.997673,59.4330974 578.409262,62.7311069 581.358741,63.605738 C583.352115,64.1968483 585.032724,64.1416436 588.074143,63.5885191 L589.041275,63.4073834 C589.689778,63.2855887 590.276389,63.8142047 590.222518,64.4718434 C590.043929,66.6519869 589.349706,68.6707915 588.145259,70.5139511 C586.970519,72.3116503 585.512858,73.8847581 583.775842,75.2304445 C582.056661,76.5623142 580.146076,77.671043 578.046219,78.5563673 C576.665127,79.1386522 575.292075,79.6331579 573.927098,80.0397062 L573.245282,80.2356497 L573.128,80.266 L575.543,84.885 L576.088381,84.7765163 C577.949154,84.3819246 579.822011,83.7936212 581.707355,83.0108822 L582.414945,82.7082394 L583.052781,82.4202687 C585.806903,81.1458883 588.2997,79.4979318 590.534213,77.4745641 C592.751751,75.4665674 594.553264,73.087032 595.941731,70.3303578 C597.313323,67.6071876 598,64.5857443 598,61.2532942 C598,52.4394526 592.560332,47.3849711 586.775043,47.0311461 Z M556.1179,47.0311461 C549.182133,46.6069586 545.34053,50.8560388 545.34053,55.3280266 C545.34053,59.4330974 547.752119,62.7311069 550.701598,63.605738 C552.694972,64.1968483 554.375581,64.1416436 557.417,63.5885191 L558.384132,63.4073834 C559.032635,63.2855887 559.619247,63.8142047 559.565375,64.4718434 C559.386786,66.6519869 558.692564,68.6707915 557.488116,70.5139511 C556.313376,72.3116503 554.855715,73.8847581 553.118699,75.2304445 C551.399518,76.5623142 549.488933,77.671043 547.389076,78.5563673 C546.007984,79.1386522 544.634932,79.6331579 543.269955,80.0397062 L542.588139,80.2356497 L542.471,80.266 L544.886,84.885 L545.431238,84.7765163 C547.292012,84.3819246 549.164868,83.7936212 551.050212,83.0108822 L551.757802,82.7082394 L552.395638,82.4202687 C555.14976,81.1458883 557.642557,79.4979318 559.87707,77.4745641 C562.094608,75.4665674 563.896121,73.087032 565.284588,70.3303578 C566.65618,67.6071876 567.342857,64.5857443 567.342857,61.2532942 C567.342857,52.4394526 561.903189,47.3849711 556.1179,47.0311461 Z" id="i__quote" transform="translate(569.999692, 66.000923) scale(-1, -1) translate(-569.999692, -66.000923) "></path>
                </g>
            </g>
        </g>
    </g>
</svg>