<?xml version="1.0" encoding="UTF-8"?>
<svg width="15px" height="15px" viewBox="0 0 15 15" version="1.1" xmlns="http://www.w3.org/2000/svg" xmlns:xlink="http://www.w3.org/1999/xlink">
    <!-- Generator: sketchtool 63 (101010) - https://sketch.com -->
    <title>C65F3F8A-298E-4AE1-A75C-B54D9C12115D</title>
    <desc>Created with sketchtool.</desc>
    <g id="DESKTOP" stroke="none" stroke-width="1" fill="none" fill-rule="evenodd">
        <g id="blog_article" transform="translate(-1517.000000, -420.000000)" fill="#1D252D" fill-rule="nonzero">
            <g id="main" transform="translate(370.000000, 160.000000)">
                <g id="hero-img" transform="translate(0.000000, 244.000000)">
                    <g id="share-up" transform="translate(960.000000, 0.000000)">
                        <g id="src/social/linkedin" transform="translate(170.000000, 0.000000)">
                            <g id="linkedin">
                                <path d="M27.9241888,20.254899 C30.4441796,20.254899 32,21.9324939 32,24.4807391 L32,31 L29.0636629,31 L29.0636629,24.8629759 C29.0636629,23.6525594 28.2528833,22.8243797 27.0476703,22.8243797 C25.8424573,22.8243797 24.9878518,23.6525594 24.9878518,24.8629759 L24.9878518,31 L22.0296017,31 L22.0296017,20.4884882 L24.7468092,20.4884882 L24.7468092,21.4440802 C25.5137629,20.700842 26.631324,20.254899 27.9241888,20.254899 Z M20.3745963,20.4884882 L20.3745963,31 L17.4163463,31 L17.4163463,20.4884882 L20.3745963,20.4884882 Z M18.8845148,16 C19.9363371,16 20.7909426,16.7644736 20.7909426,17.7837717 C20.7909426,18.7818344 19.9363371,19.546308 18.8845148,19.546308 C17.8326926,19.546308 17,18.7818344 17,17.7837717 C17,16.7644736 17.8326926,16 18.8845148,16 Z" id="in"></path>
                            </g>
                        </g>
                    </g>
                </g>
            </g>
        </g>
    </g>
</svg>