<?xml version="1.0" encoding="UTF-8"?>
<svg width="16px" height="13px" viewBox="0 0 16 13" version="1.1" xmlns="http://www.w3.org/2000/svg" xmlns:xlink="http://www.w3.org/1999/xlink">
    <!-- Generator: sketchtool 63 (101010) - https://sketch.com -->
    <title>49DD89FC-0DFA-40CD-B8BF-89BE3D3BE957</title>
    <desc>Created with sketchtool.</desc>
    <g id="DESKTOP" stroke="none" stroke-width="1" fill="none" fill-rule="evenodd">
        <g id="blog_article" transform="translate(-1462.000000, -423.000000)" fill="#1D252D">
            <g id="main" transform="translate(370.000000, 160.000000)">
                <g id="hero-img" transform="translate(0.000000, 244.000000)">
                    <g id="share-up" transform="translate(960.000000, 0.000000)">
                        <g id="src/social/twitter" transform="translate(115.000000, 0.000000)">
                            <g id="twitter">
                                <path d="M33,20.5383333 C32.4112,20.7994167 31.7786667,20.976 31.1141333,21.0550833 C31.7925333,20.6488333 32.3130667,20.0053333 32.5573333,19.2394167 C31.9237333,19.6153333 31.2208,19.8883333 30.4730667,20.0356667 C29.8746667,19.3975833 29.0213333,19 28.0773333,19 C25.9589333,19 24.4005333,20.976 24.8794667,23.0289167 C22.152,22.8924167 19.7328,21.5859167 18.1136,19.6001667 C17.2538667,21.0745833 17.6677333,23.0050833 19.1301333,23.98225 C18.5914667,23.9649167 18.0858667,23.8175833 17.6432,23.5716667 C17.6069333,25.0915833 18.6970667,26.514 20.2757333,26.8303333 C19.8138667,26.956 19.3072,26.98525 18.7930667,26.8866667 C19.2112,28.191 20.4229333,29.14 21.8597333,29.166 C20.4794667,30.2471667 18.7418667,30.7303333 17,30.5255833 C18.4528,31.4561667 20.1786667,32 22.0314667,32 C28.1264,32 31.5696,26.8530833 31.3616,22.237 C32.0037333,21.7744167 32.5594667,21.1959167 33,20.5383333" id="tw"></path>
                            </g>
                        </g>
                    </g>
                </g>
            </g>
        </g>
    </g>
</svg>