<svg width="23" height="20" viewBox="0 0 23 20" fill="none" xmlns="http://www.w3.org/2000/svg">
<path fill-rule="evenodd" clip-rule="evenodd" d="M13.6 10.59C13.9776 11.1928 14.6805 11.5622 15.4415 11.5622H18.8588L11.9603 0.127414C11.9342 0.0836636 11.8964 0.054497 11.8543 0.0297053C11.726 -0.0334892 11.5668 0.00588584 11.4922 0.127414L9.86853 2.81464C9.51227 3.40769 9.51706 4.13637 9.88983 4.72457L13.6 10.59ZM6.46493 8.33339L0.0306026 19.6275C0.0103738 19.6627 0 19.708 0 19.7483C0 19.8898 0.113593 20.0001 0.258825 20.0001L3.47313 19.9955C4.22523 19.9955 4.91457 19.6023 5.28284 18.9634L8.45047 13.447C8.81873 12.8127 8.79799 12.0328 8.40897 11.4141L6.46493 8.33339ZM20.9739 16.7187C21.1797 16.8854 21.3331 17.0562 21.6611 17.5794L22.9674 19.6576C23.0362 19.7687 22.9939 19.9122 22.8616 19.9724C22.8246 19.9909 22.7769 20.0002 22.7346 20.0002H9.21251L10.9791 17.4868C11.3225 16.996 11.4812 16.8345 11.6822 16.6817C11.8833 16.5284 12.105 16.4178 12.3642 16.3483C12.6182 16.2789 12.8563 16.2465 13.5171 16.2465H19.0808C19.7628 16.2465 20.0109 16.2835 20.2755 16.3576C20.54 16.4317 20.7675 16.552 20.9739 16.7187Z" fill="#2253AA"/>
</svg>
