<?xml version="1.0" encoding="UTF-8"?>
<svg width="1090px" height="150px" viewBox="0 0 1090 150" version="1.1" xmlns="http://www.w3.org/2000/svg" xmlns:xlink="http://www.w3.org/1999/xlink">
    <!-- Generator: sketchtool 63 (101010) - https://sketch.com -->
    <title>E99D2FAE-8D03-49E0-AD69-B5ECA64634E5</title>
    <desc>Created with sketchtool.</desc>
    <g id="DESKTOP" stroke="none" stroke-width="1" fill="none" fill-rule="evenodd">
        <g id="thanks" transform="translate(-417.000000, -1411.000000)">
            <g id="section--subscribe-to-our-newsletter" transform="translate(370.000000, 1351.000000)">
                <g id="bg-baner-color" transform="translate(-57.000000, -252.000000)">
                    <g>
                        <g id="3" transform="translate(261.000000, 329.000000)">
                            <path d="M2.60512728,17.494433 C2.60512728,17.494433 1.61639889,16.6805151 0.76749067,15.7920791 C-0.102501543,14.8805168 -0.0669916564,14.3890826 0.0828156761,13.4505396 C0.245939216,12.4323392 0.441798432,11.8259158 0.537786093,11.5445456 C0.816316763,10.7306278 1.18806088,10.945831 1.33342948,11.432126 C1.41887515,11.717993 1.93987176,13.733837 2.13351161,13.9580337 C2.32715145,14.1828729 2.61788865,14.2683118 2.61788865,14.2683118 C2.61788865,14.2683118 2.78656061,12.543474 2.79599292,12.4426176 C2.82040597,12.1811617 3.03069107,12.0687421 3.19991788,12.3025749 C3.4157514,12.5993626 3.6443463,14.8477545 3.69317239,15.2030005 C3.74366301,15.5723791 4,16.6805151 4,16.6805151 L2.87145143,18 L2.60512728,17.494433 Z" id="Fill-64" fill="#D2BDA7"></path>
                            <path d="M54.4973762,35.5704014 C54.4973762,35.5704014 56.6539389,37.7429599 57.207001,38.2929898 C57.7600632,38.8424206 58.0644372,39 58.2017535,39 C58.3403354,39 58.492206,38.8687837 58.3124925,38.5350509 C58.1144279,38.1665668 57.4215183,37.304973 57.4835321,37.2852007 C57.6442618,37.234272 57.8461232,37.3559017 58.209347,37.4751348 C58.6099058,37.6057519 59.1699286,37.9724386 59.5565659,38.286399 C59.9438359,38.6009587 60.3791984,39 60.6076371,39 C60.7386255,39 61.1879093,38.7375674 60.9120111,38.1881366 C60.6348472,37.6381067 60.026732,36.0413421 59.2256145,35.5704014 C58.4232315,35.0994608 56.5710428,34.9946075 56.1008768,34.7849011 C55.6313435,34.5757939 54.8289604,34 54.8289604,34 L54,35.0730977 L54.4973762,35.5704014 Z" id="Fill-66" fill="#D2BDA7"></path>
                            <path d="M17.2921063,101.993883 C17.2333131,101.884873 17.1893667,101.738727 17.1567039,101.573415 C17.1454203,101.159534 17.1549222,100.539612 17.2220296,99.6351848 C17.3776237,97.5418248 18,91.2617449 18,91.2617449 L13.1742081,91 C13.1742081,91 14.4195546,100.839091 14.4195546,101.729144 L14.4195546,102.34667 C14.2645544,102.502399 14.1048032,102.652738 13.9408949,102.791696 C12.592215,103.943493 10.2274225,107.676203 10.0552001,108.563859 C9.90673246,109.329328 10.069453,109.596464 10.4032082,109.879172 C10.6579787,110.094797 11.4026923,110.005552 11.826122,109.740214 C12.3451648,109.414979 17.1537345,104.925186 17.5260913,104.505915 C17.8984481,104.087243 18.0528545,103.773988 17.9839655,103.389457 C17.9150765,103.005524 17.6032945,102.570082 17.2921063,101.993883" id="Fill-68" fill="#D2BDA7"></path>
                            <path d="M17.9840763,103.563055 C17.9151863,103.189205 17.6034,102.765197 17.2922075,102.20413 C17.2601381,102.146391 17.2334135,102.076403 17.2096584,102 C16.3354688,102.961745 14.7385288,104.09321 12.7751656,105.060788 C12.4544711,105.218843 12.1373398,105.362901 11.8237718,105.49996 C10.9240455,106.784814 10.1508153,108.120993 10.0552009,108.601574 C9.90673116,109.346941 10.0694539,109.607061 10.4032138,109.882345 C10.6579878,110.092308 11.4027118,110.005407 11.8261473,109.747036 C12.3451974,109.430342 17.1538338,105.057872 17.5261957,104.650194 C17.8979639,104.242517 18.0529662,103.937488 17.9840763,103.563055" id="Fill-70" fill="#243437"></path>
                            <path d="M66.6737458,99.4541732 C66.5135422,98.0885534 66.3009527,96.0915375 65.7691744,95.1985629 C65.4341479,94.6363197 64.4053122,94.3657213 63.6877465,94.2424487 C63.1894708,93.7770195 62.4073363,92.9616165 61.9486546,92.0566153 C61.2390077,90.6555171 57.9039718,84 57.9039718,84 L54,87.8533207 L61.7774866,95.6700054 L61.7768774,95.6712081 C61.7768774,95.6712081 62.4688593,97.1420605 63.2668314,99.5624125 C64.0654126,101.982163 65.4317114,104.585921 65.8751646,104.919057 C66.122475,105.104267 66.9399395,104.988812 66.9929346,104.393495 C67.0410566,103.859515 66.8333402,100.820394 66.6737458,99.4541732" id="Fill-72" fill="#D2BDA7"></path>
                            <path d="M66.6999221,99.3241075 C66.5525721,97.9264601 66.3570392,95.8826084 65.867927,94.9686909 C65.5670641,94.406801 64.6571921,94.1304717 64,94 C64.3949876,94.8973008 64.688567,96.3903403 64.7552386,98.0963195 C64.8146268,99.6004368 64.6835246,100.956235 64.4308446,101.895385 C65.048818,103.436428 65.6942445,104.69068 65.9654133,104.917159 C66.1928813,105.106712 66.9447583,104.988549 66.9935015,104.379271 C67.0377625,103.832767 66.8467118,100.72237 66.6999221,99.3241075" id="Fill-74" fill="#243437"></path>
                            <path d="M23,14.4192656 C23,14.4192656 25.4839667,11.6859272 25.8341003,11.0979209 C26.1836334,10.5099146 25.9734331,9.29885917 25.8341003,8.81419943 C25.6935664,8.33013363 25.0989999,6.53107192 25.2395338,5.28556766 C25.3788666,4.03946945 25.8341003,3.20972722 26.2887335,2.79455913 C26.7433667,2.37939104 27.7577332,1.82583359 28.5973331,1.58350372 C29.4375337,1.34117385 30.2765331,0.579735385 31.0812999,0.30295666 C31.8860666,0.0267718813 33.1460672,-0.077168627 33.6703667,0.0606267897 C34.1952668,0.199610098 34.9297667,0.475794877 35.5946001,1.306725 C36.258833,2.13646723 36.2246004,2.48273761 36.3290999,3.07133786 C36.4342001,3.65934416 36.5038665,5.80408231 36.3290999,6.39208861 C36.1537329,6.98128281 36.2246004,7.98386325 36.2942668,8.36517643 C36.3639331,8.74530172 36.9939334,9.61008675 37.7632664,9.85241662 L38.5332,10.0947465 C38.5332,10.0947465 43.5707998,10.0597037 44.4806667,10.1291953 C45.3899331,10.198687 46.7550338,10.64771 47.3844335,11.5475378 C48.0138331,12.4473657 48.2588666,12.6896955 48.5387333,13.4160912 C48.8185999,14.1424869 48.9585333,15.5263805 48.9933664,16.1494296 C49.0288002,16.7724787 48.9237001,17.8789996 48.6438334,18.5370915 C48.3633662,19.1939956 47.6294669,20.0938234 47.1742332,20.5778892 C46.7196,21.0625489 44.5154999,23 44.5154999,23 L23,14.4192656 Z" id="Fill-76" fill="#1D252D"></path>
                            <path d="M28.7748883,8 C28.7748883,8 28.6800758,9.33759108 28.3490451,10.463952 C28.0180144,11.5915131 27,13.5057865 27,13.5057865 C27,13.5057865 27.5677909,14.5019288 27.8874441,14.6855551 C28.2070974,14.8685812 29.8638765,15 29.8638765,15 L30.7161046,14.6333476 L31,13.9774539 C31,13.9774539 30.8580523,12.6404629 30.8580523,12.0115731 C30.8580523,11.3820832 30.8818908,9.49421346 30.8818908,9.49421346 L28.7748883,8 Z" id="Fill-78" fill="#D2BDA7"></path>
                            <path d="M30.3213917,3 C29.1014953,3 28.0846217,4.3556705 27.8575414,6.15231993 C27.7354931,6.09488149 27.6075771,6.07450012 27.4831817,6.10229291 C27.095913,6.1899946 26.9016919,6.67111866 27.0495581,7.39311356 C27.1921434,8.09287424 27.7583771,8.59252683 28.1462326,8.54311742 C28.7288959,9.95560874 29.9663954,11 30.9873764,11 C32.3745024,11 33,8.72346175 33,6.56303559 C33,4.40199182 31.7091044,3 30.3213917,3" id="Fill-80" fill="#F4E4D4"></path>
                            <path d="M47.1593748,60.1605325 C45.3479964,55.0312891 42.0381467,42.6699082 41.6843994,41.1980019 C41.3306521,39.7260957 40.9769048,38 40.9769048,38 L29.182525,38 L29.182525,38.0047847 L18.317858,38.2541894 C18.317858,38.2541894 15.3359303,46.7297618 13.9203405,53.6317521 C12.5059518,60.5343405 12.0176724,69.0075205 12,74.9477776 C11.9792347,82.1051536 13.2632954,92 13.2632954,92 L19.479999,92 C19.479999,92 21.7346126,76.9268665 22.0883599,74.6433484 C22.4421072,72.3592322 24.5748011,65.6599953 25.6870931,62.1581623 C26.6108,59.2490392 28.6708226,54.2914484 29.6173519,51.8972831 C30.4233432,54.553413 31.5578571,58.8429342 34.3499984,63.8399991 C37.0982967,68.759312 40.8567869,73.3233577 44.495159,77.7390765 C48.1341318,82.1541972 54.153842,88.4126397 54.153842,88.4126397 L59,84.8946581 C59,84.8946581 48.2338297,63.2030303 47.1593748,60.1605325" id="Fill-82" fill="#1D252D"></path>
                            <path d="M28.87903,13.0013786 C27.9789409,13.0121923 27.0709776,13.0788771 26.1611972,13.1954254 C24.5306187,13.4032897 22.8237204,13.894114 21.3978727,14.7159593 C18.3638579,16.4659851 15.4703685,19.965436 14.4121884,20.5253481 C13.3534027,21.0852603 11.7300927,20.8401485 10.8833064,20.5247474 C9.85965194,20.1444637 8.90080877,19.3370367 8.00617115,18.7314665 C7.0194652,18.0640176 4.85101382,16.621583 4.43246636,16.8943299 C3.85703931,17.2698075 2.7716022,17.7714455 2.10107827,18.2136079 C1.41056581,18.6689871 4.46154057,24.9055192 5.08845319,25.8186806 C6.86985417,28.4139815 9.351459,30.0228278 12.471485,30.4992337 C13.8476642,30.7095011 15.4352371,30.5515002 16.5467199,30.1844333 C17.3965348,29.9032757 18.4934804,29.4376835 18.9635135,29.2346253 C19.0701189,29.1883664 19.18581,29.2706711 19.1791472,29.385417 L18.9810791,33.0711048 C18.3202466,37.3305222 13.5569221,38.8528585 17.8035737,41.8176293 C18.3886921,42.2255481 19.1621872,40.6311202 19.8811682,40.4731192 C20.3578641,40.3679855 20.9920452,40.4208528 21.3633471,40.6305194 C21.7334375,40.8407869 24.2210995,41.943189 24.7504924,41.9954555 C25.2798853,42.0483227 26.496762,41.6277878 26.8674582,41.3652539 C27.2375486,41.10272 28.2436374,40.5253857 29.3551201,40.6305194 C30.4659972,40.7356532 31.1546925,41.4703876 32.0008731,41.6800543 C32.8482652,41.8903218 33.6944458,41.8380553 34.2238386,41.5232549 C35.3625785,40.845593 37.1669965,40.3067076 38.3178506,41.1645987 C39.4384191,42 42.5081709,39.9552606 41.2906884,38.2226569 C40.1228744,36.5615442 38.7212553,29.5109767 38.5976899,28.1598583 C38.5831528,28.000055 38.7582037,27.8955221 38.8932777,27.9826329 C41.0102435,29.3553788 52.6241783,36.87274 52.9603489,36.8505117 C53.5454673,36.8126636 55.3916796,35.018782 55.932581,34.4816989 C56.0185922,34.3957896 56.0228322,34.2642223 55.9422724,34.1729061 C54.6890528,32.762312 45.4501174,22.354074 44.8092734,21.5226165 C43.1259979,19.3400406 40.6649872,17.4272077 38.4523188,15.8153576 C35.6175835,13.7493299 32.306758,12.9623289 28.87903,13.0013786" id="Fill-84" fill="#FD574C"></path>
                        </g>
                        <g id="1" transform="translate(61.000000, 341.000000)">
                            <path d="M53.8431687,74 C53.8431687,74 51.753449,76.080657 50.6079217,76.7734158 C49.4623943,77.4673649 46.5638629,77.3280989 45.3500668,78.7850349 C44.1374277,80.2407807 43,84.5008901 43,84.5008901 C43,84.5008901 43.3367156,85.3329149 44.011304,84.8484598 C44.6847352,84.3628145 48.3839786,80.5181222 48.6535826,80.4490844 C48.9231865,80.3788563 49.0574099,81.0037676 48.9902982,81.350147 C48.9231865,81.6965264 48.518202,83.8033701 48.6535826,83.9295427 C48.787806,84.0545249 48.9902982,84.1235627 49.5966177,83.3605758 C50.2029372,82.5987792 51.1471295,81.2120713 51.9559413,80.2407807 C52.764753,79.2706803 55.1911883,76.9126817 55.1911883,76.9126817 L56,76.080657 L53.8431687,74 Z" id="Fill-28" fill="#D2BDA7"></path>
                            <path d="M148.959149,0.243312701 C148.477495,-0.324701103 147.507122,0.00851785074 146.797007,2.24499809 C146.443716,3.35968071 144.969315,6.12741394 144.969315,6.12741394 C144.969315,6.12741394 144.594826,5.32104779 144.585405,4.35340841 C144.571274,3.03832008 144.038982,2.03747739 143.739862,2.35172302 C142.864878,3.27074327 143.237011,7.95952527 143.015615,10.0039006 C142.99324,10.2102355 143.001484,10.8339834 143.001484,10.8339834 L145.906714,11 L147.427043,9.17856116 C147.427043,9.17856116 149.761119,6.62902112 149.958962,5.18823454 C150.182713,3.55652892 149.440802,0.811326505 148.959149,0.243312701" id="Fill-30" fill="#D2BDA7"></path>
                            <path d="M106.179502,36.2073385 C106.179502,36.2073385 109.403055,37.2996837 111.665198,35.1149932 C113.92734,32.9303027 116.359143,28.5609218 114.097001,25.2838861 C111.834858,22.0068504 111.834858,23.0991956 110.703787,19.8221599 C109.572716,16.5451242 109.403055,14.3604337 106.009842,13.2680885 C102.616628,12.1757432 98.2620039,14.63352 95.9998615,16.8182105 C93.737719,19.002901 91.4755766,19.8221599 88.082363,17.6374694 C84.6891493,15.452779 82.2573462,14.5231932 77.7330614,15.6155384 C73.2087765,16.7078836 69.9852236,20.9145051 68.8541524,24.1915409 C66.9279381,29.7712403 68.6810985,34.4388315 69.9852236,36.2073385 C70.912702,37.4646278 73.661205,40.3582504 77.0544187,41.4505956 C80.4476323,42.5429408 82.4270069,41.6690646 82.4270069,41.6690646 L106.179502,36.2073385 Z" id="Fill-38" fill="#1D252D"></path>
                            <path d="M99,38.7898448 L105.857143,41 L107,37.6847672 C107,37.6847672 105.772571,33.9319237 105.243429,30.1083552 C105.100571,29.079528 100.515429,27.3224546 100.461714,28.2728213 C100.070857,35.2116036 99,38.7898448 99,38.7898448" id="Fill-40" fill="#D2BDA7"></path>
                            <path d="M109.80978,24.2880993 C109.232543,20.4418305 106.843177,17.6437567 104.13545,18.0368297 C101.937763,18.3551864 100.314008,20.6778909 100.08818,23.5961607 C99.7676155,23.4261539 99.4250186,23.3709288 99.0978441,23.4478108 C98.2088548,23.6524687 97.7715205,24.7277347 98.1196254,26.1841625 C98.4677302,27.6395074 99.9659031,28.6519684 100.854892,28.4473105 C100.929801,28.4289021 100.989287,28.3931682 101.050977,28.3596 C102.396028,30.7537723 104.966055,32.2578453 106.998503,31.9633112 C109.70623,31.5702381 110.387017,28.1332852 109.80978,24.2880993" id="Fill-42" fill="#F4E4D4"></path>
                            <path d="M105.011628,36.7818324 C99.372093,36.7818324 92.6046512,34.550013 86.9651163,37.8977421 C81.3255814,41.2454711 65.5348837,59.1000261 65.5348837,59.1000261 L52,73.606852 L56.5116279,79.1864004 L83.5813953,61.3318455 C82.5493605,64.5646358 81.3594186,67.7527898 80.4864186,71.0313324 C79.7374884,73.8445407 78.7438023,78.5179705 77.8245581,82.4191907 C77.1534535,84.5092896 78.5994302,85.1766036 79.5265698,87 C79.1205233,86.2032405 80.7988488,81.8411495 81.1259419,80.8636126 C81.1947442,80.6560534 81.2714419,80.4384511 81.4395,80.2967305 C81.561314,80.1929509 81.7192209,80.1416191 81.8726163,80.0925191 C88.2452907,78.0727225 94.9315233,76.9969856 101.6155,76.7916582 C107.835907,76.5997217 115.606058,76.6510536 121.415907,79.1607345 C123.432605,80.0322599 124.308988,81.6369381 125.096267,83.5629982 C125.494419,84.5360714 125.853093,85.8461494 126.455395,86.604968 C127.83257,82.4013362 128.4845,84.1075621 127.561872,79.8838439 C126.109128,73.2285586 123.331093,60.1746471 121.930233,53.5204777 C121.930233,53.5204777 129.825581,52.404568 134.337209,49.0568389 C138.848837,45.7091099 143.360465,39.0136518 145.616279,30.0863743 C147.872093,21.1590968 149,12.2318194 149,12.2318194 L142.232558,10 C142.232558,10 137.72093,22.2750065 135.465116,25.6227356 C133.209302,28.9704646 125.313953,33.4341034 119.674419,34.550013 C114.034884,35.6659227 110.651163,36.7818324 105.011628,36.7818324" id="Fill-44" fill="#FFFFFF"></path>
                            <path d="M80.7824127,80.0062733 L69.0664703,116.896062 C69.0664703,116.896062 64.9000997,128.470964 63.5436594,131.999788 C62.3745478,135.043976 59.9088058,139.744942 55.3734202,139.94105 C51.1122568,140.127015 34.4445175,138.339499 32.4414547,138.107324 C32.3195782,138.092673 32.2078581,138.159169 32.1548192,138.269621 L28.8032156,145.344174 C28.771618,145.41856 28.7388919,145.492946 28.7072943,145.567332 L28.0200462,147.337943 C27.9703929,147.468682 28.0144038,147.612945 28.1362803,147.68395 C29.7206748,148.603631 39.9774847,155.09324 44.5264121,157.2741 C49.4567677,159.637544 57.1485288,162.395459 64.6416764,162.000988 C72.1359524,161.606518 77.4612782,158.84973 80.8128818,156.091815 C84.165614,153.335027 89.7866031,146.241314 93.8299687,137.774842 C95.8036909,133.63966 103.51915,111.185251 103.51915,111.185251 C103.619585,110.964347 104.477235,110.684836 104.731144,111.576341 C106.585247,118.090745 114.855921,146.727076 115.54994,148.804247 C116.338752,151.168818 118.480619,161.410409 118.87446,164.167197 C119.233319,166.676032 122.205751,184.351708 122.737268,187.516491 C122.785793,187.80051 123.030674,188 123.318438,188 L133.238959,188 C133.532366,188 133.780633,187.790367 133.822387,187.500713 C134.276038,184.39679 136.716954,167.671225 137.609586,161.606518 C138.595883,154.910656 139.863173,144.048056 138.173829,131.275089 C136.793691,120.834008 129.715826,96.6946453 128.956355,93.7507655 C127.896706,89.639252 125.645377,82.8137789 124.521405,79.8687721 C123.721308,77.7713141 115.96748,76.2982472 113.550263,76.1539835 C103.163677,75.5318466 92.871884,76.9699747 89.9129935,77.3633185 C88.1412704,77.600001 81.1694834,78.4858699 80.7824127,80.0062733" id="Fill-46" fill="#1D252D"></path>
                        </g>
                        <path d="M229.381556,411.117099 L227.86705,413.737567 C228.139485,413.97712 228.491014,414.120267 228.883556,414.120267 C229.738944,414.120267 230.430285,413.430823 230.430285,412.574862 C230.430285,411.897105 229.990874,411.327438 229.381556,411.117099 L229.381556,411.117099 Z M224.296096,420.173343 C224.237508,420.173343 224.184778,420.185029 224.129119,420.190871 L222.87826,422.352685 C223.121401,422.890216 223.663343,423.267073 224.296096,423.267073 C225.151484,423.267073 225.845755,422.57763 225.845755,421.721669 C225.845755,420.868629 225.151484,420.173343 224.296096,420.173343 L224.296096,420.173343 Z M228.883556,429.317228 C228.025238,429.317228 227.328038,430.015436 227.328038,430.871397 C227.328038,431.724436 228.025238,432.41388 228.883556,432.41388 C229.738944,432.41388 230.430285,431.724436 230.430285,430.871397 C230.430285,430.015436 229.738944,429.317228 228.883556,429.317228 L228.883556,429.317228 Z M228.883556,447.616684 C228.025238,447.616684 227.328038,448.306127 227.328038,449.162088 C227.328038,450.018049 228.025238,450.707493 228.883556,450.707493 C229.738944,450.707493 230.430285,450.018049 230.430285,449.162088 C230.430285,448.306127 229.738944,447.616684 228.883556,447.616684 L228.883556,447.616684 Z M215.124106,438.466956 C214.265788,438.466956 213.571517,439.162242 213.571517,440.018203 C213.571517,440.871243 214.265788,441.560686 215.124106,441.560686 C215.979494,441.560686 216.673765,440.871243 216.673765,440.018203 C216.673765,439.162242 215.979494,438.466956 215.124106,438.466956 L215.124106,438.466956 Z M242.640076,401.87973 C241.781759,401.87973 241.090417,402.572095 241.090417,403.428056 C241.090417,404.284017 241.781759,404.970539 242.640076,404.970539 C243.498394,404.970539 244.192665,404.284017 244.192665,403.428056 C244.192665,402.572095 243.498394,401.87973 242.640076,401.87973 L242.640076,401.87973 Z M219.711565,447.616684 C218.853248,447.616684 218.156047,448.306127 218.156047,449.162088 C218.156047,450.018049 218.853248,450.707493 219.711565,450.707493 C220.564024,450.707493 221.261225,450.018049 221.261225,449.162088 C221.261225,448.306127 220.564024,447.616684 219.711565,447.616684 L219.711565,447.616684 Z M224.296096,438.466956 C223.437778,438.466956 222.740578,439.162242 222.740578,440.018203 C222.740578,440.871243 223.437778,441.560686 224.296096,441.560686 C225.151484,441.560686 225.845755,440.871243 225.845755,440.018203 C225.845755,439.162242 225.151484,438.466956 224.296096,438.466956 L224.296096,438.466956 Z M238.245958,395.806204 C239.010534,395.71272 239.605205,395.067098 239.605205,394.281249 C239.605205,394.065068 239.561264,393.860572 239.48217,393.673605 L238.245958,395.806204 Z M238.052617,429.317228 C237.197228,429.317228 236.502957,430.015436 236.502957,430.871397 C236.502957,431.724436 237.197228,432.41388 238.052617,432.41388 C238.910934,432.41388 239.605205,431.724436 239.605205,430.871397 C239.605205,430.015436 238.910934,429.317228 238.052617,429.317228 L238.052617,429.317228 Z M238.052617,447.616684 C237.197228,447.616684 236.502957,448.306127 236.502957,449.162088 C236.502957,450.018049 237.197228,450.707493 238.052617,450.707493 C238.910934,450.707493 239.605205,450.018049 239.605205,449.162088 C239.605205,448.306127 238.910934,447.616684 238.052617,447.616684 L238.052617,447.616684 Z M215.124106,456.766412 C214.265788,456.766412 213.571517,457.452934 213.571517,458.308895 C213.571517,459.164856 214.265788,459.860142 215.124106,459.860142 C215.979494,459.860142 216.673765,459.164856 216.673765,458.308895 C216.673765,457.452934 215.979494,456.766412 215.124106,456.766412 L215.124106,456.766412 Z M233.468086,438.466956 C232.609768,438.466956 231.918427,439.162242 231.918427,440.018203 C231.918427,440.871243 232.609768,441.560686 233.468086,441.560686 C234.326404,441.560686 235.017745,440.871243 235.017745,440.018203 C235.017745,439.162242 234.326404,438.466956 233.468086,438.466956 L233.468086,438.466956 Z M233.468086,456.766412 C232.609768,456.766412 231.918427,457.452934 231.918427,458.308895 C231.918427,459.164856 232.609768,459.860142 233.468086,459.860142 C234.326404,459.860142 235.017745,459.164856 235.017745,458.308895 C235.017745,457.452934 234.326404,456.766412 233.468086,456.766412 L233.468086,456.766412 Z M238.052617,411.026537 C237.197228,411.026537 236.502957,411.721823 236.502957,412.574862 C236.502957,413.430823 237.197228,414.120267 238.052617,414.120267 C238.910934,414.120267 239.605205,413.430823 239.605205,412.574862 C239.605205,411.721823 238.910934,411.026537 238.052617,411.026537 L238.052617,411.026537 Z M232.987662,404.891662 C233.139992,404.938404 233.295251,404.970539 233.468086,404.970539 C234.326404,404.970539 235.017745,404.284017 235.017745,403.428056 C235.017745,402.972322 234.815616,402.563331 234.499239,402.282879 L232.987662,404.891662 Z M233.468086,420.173343 C232.609768,420.173343 231.918427,420.868629 231.918427,421.721669 C231.918427,422.57763 232.609768,423.267073 233.468086,423.267073 C234.326404,423.267073 235.017745,422.57763 235.017745,421.721669 C235.017745,420.868629 234.326404,420.173343 233.468086,420.173343 L233.468086,420.173343 Z M224.296096,456.766412 C223.437778,456.766412 222.740578,457.452934 222.740578,458.308895 C222.740578,459.164856 223.437778,459.860142 224.296096,459.860142 C225.151484,459.860142 225.845755,459.164856 225.845755,458.308895 C225.845755,457.452934 225.151484,456.766412 224.296096,456.766412 L224.296096,456.766412 Z M288.500028,456.766412 C287.64464,456.766412 286.950369,457.452934 286.950369,458.308895 C286.950369,459.164856 287.64464,459.860142 288.500028,459.860142 C289.358346,459.860142 290.052617,459.164856 290.052617,458.308895 C290.052617,457.452934 289.358346,456.766412 288.500028,456.766412 L288.500028,456.766412 Z M283.915498,429.317228 C283.060109,429.317228 282.365838,430.015436 282.365838,430.871397 C282.365838,431.724436 283.060109,432.41388 283.915498,432.41388 C284.770886,432.41388 285.468086,431.724436 285.468086,430.871397 C285.468086,430.015436 284.770886,429.317228 283.915498,429.317228 L283.915498,429.317228 Z M283.915498,447.616684 C283.060109,447.616684 282.365838,448.306127 282.365838,449.162088 C282.365838,450.018049 283.060109,450.707493 283.915498,450.707493 C284.770886,450.707493 285.468086,450.018049 285.468086,449.162088 C285.468086,448.306127 284.770886,447.616684 283.915498,447.616684 L283.915498,447.616684 Z M279.328038,423.267073 C280.039885,423.267073 280.631626,422.787969 280.816179,422.139425 L279.705932,420.228849 C279.585826,420.196714 279.459861,420.173343 279.328038,420.173343 C278.472649,420.173343 277.778379,420.868629 277.778379,421.721669 C277.778379,422.57763 278.472649,423.267073 279.328038,423.267073 L279.328038,423.267073 Z M283.915498,465.907376 C283.060109,465.907376 282.365838,466.59974 282.365838,467.455701 C282.365838,468.086717 282.737874,468.621328 283.276886,468.866723 L284.55118,468.866723 C285.090192,468.621328 285.468086,468.086717 285.468086,467.455701 C285.468086,466.59974 284.770886,465.907376 283.915498,465.907376 L283.915498,465.907376 Z M210.536646,447.616684 C209.681257,447.616684 208.984057,448.306127 208.984057,449.162088 C208.984057,450.018049 209.681257,450.707493 210.536646,450.707493 C211.392034,450.707493 212.086305,450.018049 212.086305,449.162088 C212.086305,448.306127 211.392034,447.616684 210.536646,447.616684 L210.536646,447.616684 Z M293.087488,447.616684 C292.232099,447.616684 291.537829,448.306127 291.537829,449.162088 C291.537829,450.018049 292.232099,450.707493 293.087488,450.707493 C293.945806,450.707493 294.640076,450.018049 294.640076,449.162088 C294.640076,448.306127 293.945806,447.616684 293.087488,447.616684 L293.087488,447.616684 Z M288.500028,438.466956 C287.64464,438.466956 286.950369,439.162242 286.950369,440.018203 C286.950369,440.871243 287.64464,441.560686 288.500028,441.560686 C289.358346,441.560686 290.052617,440.871243 290.052617,440.018203 C290.052617,439.162242 289.358346,438.466956 288.500028,438.466956 L288.500028,438.466956 Z M297.672018,456.766412 C296.81663,456.766412 296.122359,457.452934 296.122359,458.308895 C296.122359,459.164856 296.81663,459.860142 297.672018,459.860142 C298.530336,459.860142 299.224607,459.164856 299.224607,458.308895 C299.224607,457.452934 298.530336,456.766412 297.672018,456.766412 L297.672018,456.766412 Z M274.743507,465.907376 C273.885189,465.907376 273.193848,466.59974 273.193848,467.455701 C273.193848,468.086717 273.565883,468.621328 274.107825,468.866723 L275.382119,468.866723 C275.918202,468.621328 276.296096,468.086717 276.296096,467.455701 C276.296096,466.59974 275.598896,465.907376 274.743507,465.907376 L274.743507,465.907376 Z M205.952115,456.766412 C205.093797,456.766412 204.399527,457.452934 204.399527,458.308895 C204.399527,459.164856 205.093797,459.860142 205.952115,459.860142 C206.807504,459.860142 207.501774,459.164856 207.501774,458.308895 C207.501774,457.452934 206.807504,456.766412 205.952115,456.766412 L205.952115,456.766412 Z M210.536646,465.907376 C209.681257,465.907376 208.984057,466.59974 208.984057,467.455701 C208.984057,468.086717 209.361951,468.621328 209.900963,468.866723 L211.175258,468.866723 C211.71134,468.621328 212.086305,468.086717 212.086305,467.455701 C212.086305,466.59974 211.392034,465.907376 210.536646,465.907376 L210.536646,465.907376 Z M228.883556,465.907376 C228.025238,465.907376 227.328038,466.59974 227.328038,467.455701 C227.328038,468.086717 227.705932,468.621328 228.244944,468.866723 L229.516309,468.866723 C230.05825,468.621328 230.430285,468.086717 230.430285,467.455701 C230.430285,466.59974 229.738944,465.907376 228.883556,465.907376 L228.883556,465.907376 Z M219.711565,465.907376 C218.853248,465.907376 218.156047,466.59974 218.156047,467.455701 C218.156047,468.086717 218.533942,468.621328 219.072953,468.866723 L220.347248,468.866723 C220.88626,468.621328 221.261225,468.086717 221.261225,467.455701 C221.261225,466.59974 220.564024,465.907376 219.711565,465.907376 L219.711565,465.907376 Z M265.571517,465.907376 C264.713199,465.907376 264.018928,466.59974 264.018928,467.455701 C264.018928,468.086717 264.393893,468.621328 264.935834,468.866723 L266.207199,468.866723 C266.746211,468.621328 267.121176,468.086717 267.121176,467.455701 C267.121176,466.59974 266.426905,465.907376 265.571517,465.907376 L265.571517,465.907376 Z M256.399527,465.907376 C255.541209,465.907376 254.846938,466.59974 254.846938,467.455701 C254.846938,468.086717 255.221903,468.621328 255.760915,468.866723 L257.03228,468.866723 C257.574221,468.621328 257.949186,468.086717 257.949186,467.455701 C257.949186,466.59974 257.254915,465.907376 256.399527,465.907376 L256.399527,465.907376 Z M238.052617,465.907376 C237.197228,465.907376 236.502957,466.59974 236.502957,467.455701 C236.502957,468.086717 236.880852,468.621328 237.416934,468.866723 L238.691228,468.866723 C239.23024,468.621328 239.605205,468.086717 239.605205,467.455701 C239.605205,466.59974 238.910934,465.907376 238.052617,465.907376 L238.052617,465.907376 Z M247.224607,465.907376 C246.369218,465.907376 245.674948,466.59974 245.674948,467.455701 C245.674948,468.086717 246.049913,468.621328 246.591854,468.866723 L247.863219,468.866723 C248.402231,468.621328 248.777195,468.086717 248.777195,467.455701 C248.777195,466.59974 248.082925,465.907376 247.224607,465.907376 L247.224607,465.907376 Z M293.087488,465.907376 C292.232099,465.907376 291.537829,466.59974 291.537829,467.455701 C291.537829,468.086717 291.912793,468.621328 292.448876,468.866723 L293.72317,468.866723 C294.262182,468.621328 294.640076,468.086717 294.640076,467.455701 C294.640076,466.59974 293.945806,465.907376 293.087488,465.907376 L293.087488,465.907376 Z M270.156047,404.970539 C270.387471,404.970539 270.598389,404.923797 270.794659,404.833234 L269.253788,402.168946 C268.864176,402.452319 268.606388,402.908052 268.606388,403.428056 C268.606388,404.284017 269.29773,404.970539 270.156047,404.970539 L270.156047,404.970539 Z M265.571517,429.317228 C264.713199,429.317228 264.018928,430.015436 264.018928,430.871397 C264.018928,431.724436 264.713199,432.41388 265.571517,432.41388 C266.426905,432.41388 267.121176,431.724436 267.121176,430.871397 C267.121176,430.015436 266.426905,429.317228 265.571517,429.317228 L265.571517,429.317228 Z M270.156047,420.173343 C269.29773,420.173343 268.606388,420.868629 268.606388,421.721669 C268.606388,422.57763 269.29773,423.267073 270.156047,423.267073 C271.014365,423.267073 271.708636,422.57763 271.708636,421.721669 C271.708636,420.868629 271.014365,420.173343 270.156047,420.173343 L270.156047,420.173343 Z M265.571517,395.826654 L265.580305,395.826654 L264.235705,393.504165 C264.103881,393.734953 264.018928,393.994955 264.018928,394.281249 C264.018928,395.131368 264.713199,395.826654 265.571517,395.826654 L265.571517,395.826654 Z M260.984057,438.466956 C260.125739,438.466956 259.431468,439.162242 259.431468,440.018203 C259.431468,440.871243 260.125739,441.560686 260.984057,441.560686 C261.842375,441.560686 262.533716,440.871243 262.533716,440.018203 C262.533716,439.162242 261.842375,438.466956 260.984057,438.466956 L260.984057,438.466956 Z M270.156047,456.766412 C269.29773,456.766412 268.606388,457.452934 268.606388,458.308895 C268.606388,459.164856 269.29773,459.860142 270.156047,459.860142 C271.014365,459.860142 271.708636,459.164856 271.708636,458.308895 C271.708636,457.452934 271.014365,456.766412 270.156047,456.766412 L270.156047,456.766412 Z M242.640076,420.173343 C241.781759,420.173343 241.090417,420.868629 241.090417,421.721669 C241.090417,422.57763 241.781759,423.267073 242.640076,423.267073 C243.498394,423.267073 244.192665,422.57763 244.192665,421.721669 C244.192665,420.868629 243.498394,420.173343 242.640076,420.173343 L242.640076,420.173343 Z M265.571517,447.616684 C264.713199,447.616684 264.018928,448.306127 264.018928,449.162088 C264.018928,450.018049 264.713199,450.707493 265.571517,450.707493 C266.426905,450.707493 267.121176,450.018049 267.121176,449.162088 C267.121176,448.306127 266.426905,447.616684 265.571517,447.616684 L265.571517,447.616684 Z M274.743507,447.616684 C273.885189,447.616684 273.193848,448.306127 273.193848,449.162088 C273.193848,450.018049 273.885189,450.707493 274.743507,450.707493 C275.598896,450.707493 276.296096,450.018049 276.296096,449.162088 C276.296096,448.306127 275.598896,447.616684 274.743507,447.616684 L274.743507,447.616684 Z M279.328038,438.466956 C278.472649,438.466956 277.778379,439.162242 277.778379,440.018203 C277.778379,440.871243 278.472649,441.560686 279.328038,441.560686 C280.186356,441.560686 280.883556,440.871243 280.883556,440.018203 C280.883556,439.162242 280.186356,438.466956 279.328038,438.466956 L279.328038,438.466956 Z M219.711565,429.317228 C219.222353,429.317228 218.79173,429.550938 218.510506,429.904424 L218.261506,430.325101 C218.197059,430.497461 218.156047,430.678586 218.156047,430.871397 C218.156047,431.724436 218.853248,432.41388 219.711565,432.41388 C220.564024,432.41388 221.261225,431.724436 221.261225,430.871397 C221.261225,430.015436 220.564024,429.317228 219.711565,429.317228 L219.711565,429.317228 Z M201.367585,465.907376 C200.509267,465.907376 199.812067,466.59974 199.812067,467.455701 C199.812067,468.086717 200.189961,468.621328 200.728973,468.866723 L202.000338,468.866723 C202.53935,468.621328 202.914315,468.086717 202.914315,467.455701 C202.914315,466.59974 202.222973,465.907376 201.367585,465.907376 L201.367585,465.907376 Z M270.156047,438.466956 C269.29773,438.466956 268.606388,439.162242 268.606388,440.018203 C268.606388,440.871243 269.29773,441.560686 270.156047,441.560686 C271.014365,441.560686 271.708636,440.871243 271.708636,440.018203 C271.708636,439.162242 271.014365,438.466956 270.156047,438.466956 L270.156047,438.466956 Z M302.256549,465.907376 C301.40116,465.907376 300.709819,466.59974 300.709819,467.455701 C300.709819,468.086717 301.084784,468.621328 301.623796,468.866723 L302.895161,468.866723 C303.434173,468.621328 303.812067,468.086717 303.812067,467.455701 C303.812067,466.59974 303.114867,465.907376 302.256549,465.907376 L302.256549,465.907376 Z M274.743507,414.120267 C275.194637,414.120267 275.595966,413.924535 275.883049,413.61487 L274.403695,411.064515 C273.709425,411.222268 273.193848,411.835756 273.193848,412.574862 C273.193848,413.430823 273.885189,414.120267 274.743507,414.120267 L274.743507,414.120267 Z M274.743507,429.317228 C273.885189,429.317228 273.193848,430.015436 273.193848,430.871397 C273.193848,431.724436 273.885189,432.41388 274.743507,432.41388 C275.598896,432.41388 276.296096,431.724436 276.296096,430.871397 C276.296096,430.015436 275.598896,429.317228 274.743507,429.317228 L274.743507,429.317228 Z M279.328038,456.766412 C278.472649,456.766412 277.778379,457.452934 277.778379,458.308895 C277.778379,459.164856 278.472649,459.860142 279.328038,459.860142 C280.186356,459.860142 280.883556,459.164856 280.883556,458.308895 C280.883556,457.452934 280.186356,456.766412 279.328038,456.766412 L279.328038,456.766412 Z M260.984057,456.766412 C260.125739,456.766412 259.431468,457.452934 259.431468,458.308895 C259.431468,459.164856 260.125739,459.860142 260.984057,459.860142 C261.842375,459.860142 262.533716,459.164856 262.533716,458.308895 C262.533716,457.452934 261.842375,456.766412 260.984057,456.766412 L260.984057,456.766412 Z M265.571517,411.026537 C264.713199,411.026537 264.018928,411.721823 264.018928,412.574862 C264.018928,413.430823 264.713199,414.120267 265.571517,414.120267 C266.426905,414.120267 267.121176,413.430823 267.121176,412.574862 C267.121176,411.721823 266.426905,411.026537 265.571517,411.026537 L265.571517,411.026537 Z M247.224607,447.616684 C246.369218,447.616684 245.674948,448.306127 245.674948,449.162088 C245.674948,450.018049 246.369218,450.707493 247.224607,450.707493 C248.082925,450.707493 248.777195,450.018049 248.777195,449.162088 C248.777195,448.306127 248.082925,447.616684 247.224607,447.616684 L247.224607,447.616684 Z M247.224607,429.317228 C246.369218,429.317228 245.674948,430.015436 245.674948,430.871397 C245.674948,431.724436 246.369218,432.41388 247.224607,432.41388 C248.082925,432.41388 248.777195,431.724436 248.777195,430.871397 C248.777195,430.015436 248.082925,429.317228 247.224607,429.317228 L247.224607,429.317228 Z M252.005408,373.866723 C251.14709,373.866723 250.452819,374.559087 250.452819,375.415048 C250.452819,376.268088 251.14709,376.960452 252.005408,376.960452 C252.860796,376.960452 253.555067,376.268088 253.555067,375.415048 C253.555067,374.559087 252.860796,373.866723 252.005408,373.866723 L252.005408,373.866723 Z M251.812067,383.586117 C250.953749,383.586117 250.259478,384.278482 250.259478,385.134443 C250.259478,385.984561 250.953749,386.679847 251.812067,386.679847 C252.670385,386.679847 253.364655,385.984561 253.364655,385.134443 C253.364655,384.278482 252.670385,383.586117 251.812067,383.586117 L251.812067,383.586117 Z M247.224607,411.026537 C246.369218,411.026537 245.674948,411.721823 245.674948,412.574862 C245.674948,413.430823 246.369218,414.120267 247.224607,414.120267 C248.082925,414.120267 248.777195,413.430823 248.777195,412.574862 C248.777195,411.721823 248.082925,411.026537 247.224607,411.026537 L247.224607,411.026537 Z M242.640076,456.766412 C241.781759,456.766412 241.090417,457.452934 241.090417,458.308895 C241.090417,459.164856 241.781759,459.860142 242.640076,459.860142 C243.498394,459.860142 244.192665,459.164856 244.192665,458.308895 C244.192665,457.452934 243.498394,456.766412 242.640076,456.766412 L242.640076,456.766412 Z M242.640076,438.466956 C241.781759,438.466956 241.090417,439.162242 241.090417,440.018203 C241.090417,440.871243 241.781759,441.560686 242.640076,441.560686 C243.498394,441.560686 244.192665,440.871243 244.192665,440.018203 C244.192665,439.162242 243.498394,438.466956 242.640076,438.466956 L242.640076,438.466956 Z M248.434454,392.732924 C247.420878,392.732924 246.597713,393.425288 246.597713,394.281249 C246.597713,395.131368 247.420878,395.826654 248.434454,395.826654 C249.448031,395.826654 250.268266,395.131368 250.268266,394.281249 C250.268266,393.425288 249.448031,392.732924 248.434454,392.732924 L248.434454,392.732924 Z M251.812067,401.87973 C250.953749,401.87973 250.259478,402.572095 250.259478,403.428056 C250.259478,404.284017 250.953749,404.970539 251.812067,404.970539 C252.670385,404.970539 253.364655,404.284017 253.364655,403.428056 C253.364655,402.572095 252.670385,401.87973 251.812067,401.87973 L251.812067,401.87973 Z M260.984057,401.87973 C260.125739,401.87973 259.431468,402.572095 259.431468,403.428056 C259.431468,404.284017 260.125739,404.970539 260.984057,404.970539 C261.842375,404.970539 262.533716,404.284017 262.533716,403.428056 C262.533716,402.572095 261.842375,401.87973 260.984057,401.87973 L260.984057,401.87973 Z M251.812067,420.173343 C250.953749,420.173343 250.259478,420.868629 250.259478,421.721669 C250.259478,422.57763 250.953749,423.267073 251.812067,423.267073 C252.670385,423.267073 253.364655,422.57763 253.364655,421.721669 C253.364655,420.868629 252.670385,420.173343 251.812067,420.173343 L251.812067,420.173343 Z M256.399527,429.317228 C255.541209,429.317228 254.846938,430.015436 254.846938,430.871397 C254.846938,431.724436 255.541209,432.41388 256.399527,432.41388 C257.254915,432.41388 257.949186,431.724436 257.949186,430.871397 C257.949186,430.015436 257.254915,429.317228 256.399527,429.317228 L256.399527,429.317228 Z M260.137457,386.428609 L259.443186,385.227927 C259.47248,385.730402 259.739057,386.165686 260.137457,386.428609 L260.137457,386.428609 Z M260.984057,420.173343 C260.125739,420.173343 259.431468,420.868629 259.431468,421.721669 C259.431468,422.57763 260.125739,423.267073 260.984057,423.267073 C261.842375,423.267073 262.533716,422.57763 262.533716,421.721669 C262.533716,420.868629 261.842375,420.173343 260.984057,420.173343 L260.984057,420.173343 Z M256.399527,411.026537 C255.541209,411.026537 254.846938,411.721823 254.846938,412.574862 C254.846938,413.430823 255.541209,414.120267 256.399527,414.120267 C257.254915,414.120267 257.949186,413.430823 257.949186,412.574862 C257.949186,411.721823 257.254915,411.026537 256.399527,411.026537 L256.399527,411.026537 Z M251.812067,456.766412 C250.953749,456.766412 250.259478,457.452934 250.259478,458.308895 C250.259478,459.164856 250.953749,459.860142 251.812067,459.860142 C252.670385,459.860142 253.364655,459.164856 253.364655,458.308895 C253.364655,457.452934 252.670385,456.766412 251.812067,456.766412 L251.812067,456.766412 Z M251.812067,438.466956 C250.953749,438.466956 250.259478,439.162242 250.259478,440.018203 C250.259478,440.871243 250.953749,441.560686 251.812067,441.560686 C252.670385,441.560686 253.364655,440.871243 253.364655,440.018203 C253.364655,439.162242 252.670385,438.466956 251.812067,438.466956 L251.812067,438.466956 Z M256.399527,447.616684 C255.541209,447.616684 254.846938,448.306127 254.846938,449.162088 C254.846938,450.018049 255.541209,450.707493 256.399527,450.707493 C257.254915,450.707493 257.949186,450.018049 257.949186,449.162088 C257.949186,448.306127 257.254915,447.616684 256.399527,447.616684 L256.399527,447.616684 Z M256.399527,392.732924 C255.541209,392.732924 254.846938,393.425288 254.846938,394.281249 C254.846938,395.131368 255.541209,395.826654 256.399527,395.826654 C257.254915,395.826654 257.949186,395.131368 257.949186,394.281249 C257.949186,393.425288 257.254915,392.732924 256.399527,392.732924 L256.399527,392.732924 Z" id="Fill-7" fill="#FFFFFF" transform="translate(251.812067, 421.366723) rotate(130.000000) translate(-251.812067, -421.366723) "></path>
                        <g id="Group-47" transform="translate(412.000000, 337.000000)" fill="#FFFFFF">
                            <g id="Group-5" transform="translate(254.013649, 0.693471)">
                                <path d="M235.164151,88.1075292 C234.339151,89.5065292 234.822151,91.2995292 236.244151,92.1115292 C237.666151,92.9235292 239.487151,92.4475292 240.312151,91.0485292 C241.138151,89.6495292 240.654151,87.8565292 239.232151,87.0445292 C237.810151,86.2325292 235.989151,86.7085292 235.164151,88.1075292" id="Fill-1"></path>
                                <path d="M20.6417507,98.5025292 C19.8167507,99.9015292 20.2997507,101.694529 21.7217507,102.506529 C23.1427507,103.318529 24.9647507,102.842529 25.7897507,101.443529 C26.6157507,100.044529 26.1307507,98.2515292 24.7087507,97.4395292 C23.2877507,96.6275292 21.4667507,97.1035292 20.6417507,98.5025292" id="Fill-3"></path>
                                <path d="M173.623151,123.276029 C173.616151,123.735029 173.989151,124.113029 174.456151,124.120029 C174.923151,124.127029 175.307151,123.760029 175.313151,123.300029 C175.320151,122.841029 174.947151,122.463029 174.480151,122.456029 C174.014151,122.449029 173.630151,122.817029 173.623151,123.276029" id="Fill-17"></path>
                                <path d="M175.583151,115.786229 C175.576151,116.245229 175.949151,116.623229 176.416151,116.630229 C176.883151,116.637229 177.268151,116.270229 177.273151,115.810229 C177.281151,115.351229 176.908151,114.973229 176.441151,114.966229 C175.975151,114.959229 175.590151,115.327229 175.583151,115.786229" id="Fill-19"></path>
                                <path d="M104.156351,104.133429 C104.149351,104.592429 104.521351,104.970429 104.989351,104.977429 C105.456351,104.984429 105.840351,104.617429 105.846351,104.157429 C105.853351,103.698429 105.480351,103.320429 105.013351,103.313429 C104.547351,103.306429 104.163351,103.674429 104.156351,104.133429" id="Fill-23"></path>
                                <path d="M100.088051,103.539629 C100.080051,103.998629 100.453051,104.376629 100.920051,104.383629 C101.387051,104.390629 101.772051,104.023629 101.778051,103.563629 C101.785051,103.104629 101.412051,102.726629 100.945051,102.719629 C100.479051,102.712629 100.094051,103.080629 100.088051,103.539629" id="Fill-25"></path>
                                <path d="M96.0186507,102.945929 C96.0116507,103.404929 96.3846507,103.782929 96.8516507,103.789929 C97.3186507,103.796929 97.7036507,103.429929 97.7086507,102.969929 C97.7166507,102.510929 97.3436507,102.132929 96.8766507,102.125929 C96.4106507,102.118929 96.0256507,102.486929 96.0186507,102.945929" id="Fill-27"></path>
                                <path d="M91.9503507,102.352129 C91.9433507,102.811129 92.3163507,103.189129 92.7833507,103.196129 C93.2503507,103.203129 93.6343507,102.836129 93.6403507,102.376129 C93.6473507,101.917129 93.2753507,101.539129 92.8073507,101.532129 C92.3413507,101.525129 91.9573507,101.893129 91.9503507,102.352129" id="Fill-29"></path>
                                <path d="M168.577251,4.22422916 C169.762251,4.24122916 170.737251,3.30922916 170.754251,2.14322916 C170.771251,0.976229155 169.825251,0.0172291551 168.640251,0.00022915508 C167.455251,-0.0167708449 166.480251,0.914229155 166.463251,2.08122916 C166.445251,3.24722916 167.391251,4.20722916 168.577251,4.22422916" id="Fill-31"></path>
                                <path d="M290.023551,54.0831292 C290.006551,55.2501292 290.953551,56.2091292 292.138551,56.2261292 C293.324551,56.2431292 294.298551,55.3121292 294.316551,54.1451292 C294.333551,52.9791292 293.386551,52.0191292 292.201551,52.0021292 C291.015551,51.9851292 290.041551,52.9161292 290.023551,54.0831292" id="Fill-33"></path>
                            </g>
                        </g>
                        <g id="Group-47" transform="translate(280.500000, 374.500000) scale(-1, -1) translate(-280.500000, -374.500000) " fill="#FFFFFF">
                            <g id="Group-5" transform="translate(0.013649, 316.693471)">
                                <path d="M235.164151,88.1075292 C234.339151,89.5065292 234.822151,91.2995292 236.244151,92.1115292 C237.666151,92.9235292 239.487151,92.4475292 240.312151,91.0485292 C241.138151,89.6495292 240.654151,87.8565292 239.232151,87.0445292 C237.810151,86.2325292 235.989151,86.7085292 235.164151,88.1075292" id="Fill-1"></path>
                                <path d="M20.6417507,98.5025292 C19.8167507,99.9015292 20.2997507,101.694529 21.7217507,102.506529 C23.1427507,103.318529 24.9647507,102.842529 25.7897507,101.443529 C26.6157507,100.044529 26.1307507,98.2515292 24.7087507,97.4395292 C23.2877507,96.6275292 21.4667507,97.1035292 20.6417507,98.5025292" id="Fill-3"></path>
                                <path d="M175.583151,115.786229 C175.576151,116.245229 175.949151,116.623229 176.416151,116.630229 C176.883151,116.637229 177.268151,116.270229 177.273151,115.810229 C177.281151,115.351229 176.908151,114.973229 176.441151,114.966229 C175.975151,114.959229 175.590151,115.327229 175.583151,115.786229" id="Fill-19"></path>
                                <path d="M104.156351,104.133429 C104.149351,104.592429 104.521351,104.970429 104.989351,104.977429 C105.456351,104.984429 105.840351,104.617429 105.846351,104.157429 C105.853351,103.698429 105.480351,103.320429 105.013351,103.313429 C104.547351,103.306429 104.163351,103.674429 104.156351,104.133429" id="Fill-23"></path>
                                <path d="M100.088051,103.539629 C100.080051,103.998629 100.453051,104.376629 100.920051,104.383629 C101.387051,104.390629 101.772051,104.023629 101.778051,103.563629 C101.785051,103.104629 101.412051,102.726629 100.945051,102.719629 C100.479051,102.712629 100.094051,103.080629 100.088051,103.539629" id="Fill-25"></path>
                                <path d="M96.0186507,102.945929 C96.0116507,103.404929 96.3846507,103.782929 96.8516507,103.789929 C97.3186507,103.796929 97.7036507,103.429929 97.7086507,102.969929 C97.7166507,102.510929 97.3436507,102.132929 96.8766507,102.125929 C96.4106507,102.118929 96.0256507,102.486929 96.0186507,102.945929" id="Fill-27"></path>
                                <path d="M91.9503507,102.352129 C91.9433507,102.811129 92.3163507,103.189129 92.7833507,103.196129 C93.2503507,103.203129 93.6343507,102.836129 93.6403507,102.376129 C93.6473507,101.917129 93.2753507,101.539129 92.8073507,101.532129 C92.3413507,101.525129 91.9573507,101.893129 91.9503507,102.352129" id="Fill-29"></path>
                                <path d="M168.577251,4.22422916 C169.762251,4.24122916 170.737251,3.30922916 170.754251,2.14322916 C170.771251,0.976229155 169.825251,0.0172291551 168.640251,0.00022915508 C167.455251,-0.0167708449 166.480251,0.914229155 166.463251,2.08122916 C166.445251,3.24722916 167.391251,4.20722916 168.577251,4.22422916" id="Fill-31"></path>
                                <path d="M290.023551,54.0831292 C290.006551,55.2501292 290.953551,56.2091292 292.138551,56.2261292 C293.324551,56.2431292 294.298551,55.3121292 294.316551,54.1451292 C294.333551,52.9791292 293.386551,52.0191292 292.201551,52.0021292 C291.015551,51.9851292 290.041551,52.9161292 290.023551,54.0831292" id="Fill-33"></path>
                            </g>
                            <g id="Group-5" transform="translate(234.013649, 0.693471)">
                                <path d="M122.806751,375.044029 C121.908751,375.031029 121.169751,375.737029 121.156751,376.621029 C121.143751,377.504029 121.860751,378.231029 122.758751,378.244029 C123.656751,378.257029 124.394751,377.551029 124.408751,376.668029 C124.420751,375.784029 123.703751,375.057029 122.806751,375.044029" id="Fill-5"></path>
                                <path d="M74.6719507,425.604529 C73.0209507,425.580529 71.6609507,426.879529 71.6369507,428.505529 C71.6129507,430.131529 72.9329507,431.468529 74.5839507,431.492529 C76.2359507,431.516529 77.5959507,430.217529 77.6189507,428.591529 C77.6449507,426.965529 76.3239507,425.628529 74.6719507,425.604529" id="Fill-7"></path>
                                <path d="M0.00015068306,320.399029 C-0.00984931694,321.000029 0.479150683,321.494029 1.08915068,321.503029 C1.69915068,321.512029 2.20115068,321.032029 2.21115068,320.431029 C2.22015068,319.830029 1.73215068,319.336029 1.12115068,319.327029 C0.511150683,319.318029 0.00915068306,319.798029 0.00015068306,320.399029" id="Fill-9"></path>
                            </g>
                        </g>
                        <path d="M930.639149,338.940956 C932.020576,338.940956 933.139149,340.059528 933.139149,341.440956 C933.139149,342.822383 932.020576,343.940956 930.639149,343.940956 C929.25964,343.940956 928.139149,342.822383 928.139149,341.440956 C928.139149,340.059528 929.25964,338.940956 930.639149,338.940956 Z M866.132025,327.36594 C868.064751,327.36594 869.632025,328.935117 869.632025,330.867166 C869.632025,332.799215 868.064751,334.36594 866.132025,334.36594 C864.199299,334.36594 862.632025,332.799215 862.632025,330.867166 C862.632025,328.935117 864.199299,327.36594 866.132025,327.36594 Z M898.381503,314.596399 C900.590735,314.596399 902.38041,316.386074 902.38041,318.595306 C902.38041,320.806724 900.590735,322.596399 898.381503,322.596399 C896.17227,322.596399 894.38041,320.806724 894.38041,318.595306 C894.38041,316.386074 896.17227,314.596399 898.381503,314.596399 Z M786.5,306.397449 C788.984637,306.397449 791,308.411186 791,310.896401 C791,313.383712 788.984637,315.397449 786.5,315.397449 C784.015363,315.397449 782,313.383712 782,310.896401 C782,308.411186 784.015363,306.397449 786.5,306.397449 Z M927.508489,294.289075 C928.611718,294.289075 929.50743,295.184787 929.50743,296.290134 C929.50743,297.393363 928.611718,298.289075 927.508489,298.289075 C926.403142,298.289075 925.50743,297.393363 925.50743,296.290134 C925.50743,295.184787 926.403142,294.289075 927.508489,294.289075 Z M968.814173,284.864339 C972.403375,284.864339 975.314173,287.774611 975.314173,291.363165 C975.314173,294.951719 972.403375,297.864339 968.814173,297.864339 C965.224971,297.864339 962.314173,294.951719 962.314173,291.363165 C962.314173,287.774611 965.224971,284.864339 968.814173,284.864339 Z M864.19105,262.445934 C869.16307,262.445934 873.1922,266.474549 873.1922,271.445934 C873.1922,276.415019 869.16307,280.445934 864.19105,280.445934 C859.22133,280.445934 855.1922,276.415019 855.1922,271.445934 C855.1922,266.474549 859.22133,262.445934 864.19105,262.445934 Z M910.882635,263.190483 C912.813998,263.190483 914.381446,264.759776 914.381446,266.690483 C914.381446,268.621189 912.813998,270.190483 910.882635,270.190483 C908.948894,270.190483 907.381446,268.621189 907.381446,266.690483 C907.381446,264.759776 908.948894,263.190483 910.882635,263.190483 Z M945.226255,258.139646 C947.158139,258.139646 948.725136,259.706643 948.725136,261.638527 C948.725136,263.572649 947.158139,265.139646 945.226255,265.139646 C943.292133,265.139646 941.725136,263.572649 941.725136,261.638527 C941.725136,259.706643 943.292133,258.139646 945.226255,258.139646 Z M891.310283,240.581004 C893.795486,240.581004 895.810283,242.597467 895.810283,245.082077 C895.810283,247.566687 893.795486,249.581004 891.310283,249.581004 C888.825081,249.581004 886.810283,247.566687 886.810283,245.082077 C886.810283,242.597467 888.825081,240.581004 891.310283,240.581004 Z M929.452477,224.537936 C931.66081,224.537936 933.452477,226.32741 933.452477,228.537936 C933.452477,230.748462 931.66081,232.537936 929.452477,232.537936 C927.24195,232.537936 925.452477,230.748462 925.452477,228.537936 C925.452477,226.32741 927.24195,224.537936 929.452477,224.537936 Z M805.308369,202 C810.832037,202 815.309428,206.479034 815.309428,212 C815.309428,217.523083 810.832037,222 805.308369,222 C799.786818,222 795.309428,217.523083 795.309428,212 C795.309428,206.479034 799.786818,202 805.308369,202 Z" id="Combined-Shape" stroke="#FFFFFF" stroke-width="2" transform="translate(878.657086, 272.970478) rotate(20.000000) translate(-878.657086, -272.970478) "></path>
                        <path d="M1177.63915,528.940956 C1179.02058,528.940956 1180.13915,530.059528 1180.13915,531.440956 C1180.13915,532.822383 1179.02058,533.940956 1177.63915,533.940956 C1176.25964,533.940956 1175.13915,532.822383 1175.13915,531.440956 C1175.13915,530.059528 1176.25964,528.940956 1177.63915,528.940956 Z M1113.13202,517.36594 C1115.06475,517.36594 1116.63202,518.935117 1116.63202,520.867166 C1116.63202,522.799215 1115.06475,524.36594 1113.13202,524.36594 C1111.1993,524.36594 1109.63202,522.799215 1109.63202,520.867166 C1109.63202,518.935117 1111.1993,517.36594 1113.13202,517.36594 Z M1145.3815,504.596399 C1147.59074,504.596399 1149.38041,506.386074 1149.38041,508.595306 C1149.38041,510.806724 1147.59074,512.596399 1145.3815,512.596399 C1143.17227,512.596399 1141.38041,510.806724 1141.38041,508.595306 C1141.38041,506.386074 1143.17227,504.596399 1145.3815,504.596399 Z M1033.5,496.397449 C1035.98464,496.397449 1038,498.411186 1038,500.896401 C1038,503.383712 1035.98464,505.397449 1033.5,505.397449 C1031.01536,505.397449 1029,503.383712 1029,500.896401 C1029,498.411186 1031.01536,496.397449 1033.5,496.397449 Z M1174.50849,484.289075 C1175.61172,484.289075 1176.50743,485.184787 1176.50743,486.290134 C1176.50743,487.393363 1175.61172,488.289075 1174.50849,488.289075 C1173.40314,488.289075 1172.50743,487.393363 1172.50743,486.290134 C1172.50743,485.184787 1173.40314,484.289075 1174.50849,484.289075 Z M1215.81417,474.864339 C1219.40337,474.864339 1222.31417,477.774611 1222.31417,481.363165 C1222.31417,484.951719 1219.40337,487.864339 1215.81417,487.864339 C1212.22497,487.864339 1209.31417,484.951719 1209.31417,481.363165 C1209.31417,477.774611 1212.22497,474.864339 1215.81417,474.864339 Z M1111.19105,452.445934 C1116.16307,452.445934 1120.1922,456.474549 1120.1922,461.445934 C1120.1922,466.415019 1116.16307,470.445934 1111.19105,470.445934 C1106.22133,470.445934 1102.1922,466.415019 1102.1922,461.445934 C1102.1922,456.474549 1106.22133,452.445934 1111.19105,452.445934 Z M1157.88264,453.190483 C1159.814,453.190483 1161.38145,454.759776 1161.38145,456.690483 C1161.38145,458.621189 1159.814,460.190483 1157.88264,460.190483 C1155.94889,460.190483 1154.38145,458.621189 1154.38145,456.690483 C1154.38145,454.759776 1155.94889,453.190483 1157.88264,453.190483 Z M1192.22626,448.139646 C1194.15814,448.139646 1195.72514,449.706643 1195.72514,451.638527 C1195.72514,453.572649 1194.15814,455.139646 1192.22626,455.139646 C1190.29213,455.139646 1188.72514,453.572649 1188.72514,451.638527 C1188.72514,449.706643 1190.29213,448.139646 1192.22626,448.139646 Z M1138.31028,430.581004 C1140.79549,430.581004 1142.81028,432.597467 1142.81028,435.082077 C1142.81028,437.566687 1140.79549,439.581004 1138.31028,439.581004 C1135.82508,439.581004 1133.81028,437.566687 1133.81028,435.082077 C1133.81028,432.597467 1135.82508,430.581004 1138.31028,430.581004 Z M1176.45248,414.537936 C1178.66081,414.537936 1180.45248,416.32741 1180.45248,418.537936 C1180.45248,420.748462 1178.66081,422.537936 1176.45248,422.537936 C1174.24195,422.537936 1172.45248,420.748462 1172.45248,418.537936 C1172.45248,416.32741 1174.24195,414.537936 1176.45248,414.537936 Z M1052.30837,392 C1057.83204,392 1062.30943,396.479034 1062.30943,402 C1062.30943,407.523083 1057.83204,412 1052.30837,412 C1046.78682,412 1042.30943,407.523083 1042.30943,402 C1042.30943,396.479034 1046.78682,392 1052.30837,392 Z" id="Combined-Shape" stroke="#FFFFFF" stroke-width="2" transform="translate(1125.657086, 462.970478) rotate(20.000000) translate(-1125.657086, -462.970478) "></path>
                    </g>
                </g>
            </g>
        </g>
    </g>
</svg>